solid JSxCAD
facet normal -0.9962061363529302 0.08702490386531302 0
  outer loop
    vertex -2.5 0 -3
    vertex -2.5 0 3
    vertex -2.462 0.435 3
  endloop
endfacet
facet normal -0.9962061363529302 -0.08702490386531302 0
  outer loop
    vertex -2.5 0 -3
    vertex -2.462 -0.435 -3
    vertex -2.5 0 3
  endloop
endfacet
facet normal 0 0 -1
  outer loop
    vertex -2.5 0 -3
    vertex -2.462 0.435 -3
    vertex -2.462 -0.435 -3
  endloop
endfacet
facet normal -0.9962061363529302 0.08702490386531302 0
  outer loop
    vertex -2.5 0 -3
    vertex -2.462 0.435 3
    vertex -2.462 0.435 -3
  endloop
endfacet
facet normal -0.9962061363529302 -0.08702490386531302 0
  outer loop
    vertex -2.5 0 3
    vertex -2.462 -0.435 -3
    vertex -2.462 -0.435 3
  endloop
endfacet
facet normal 0 0 1
  outer loop
    vertex -2.5 0 3
    vertex -2.462 -0.435 3
    vertex -2.462 0.435 3
  endloop
endfacet
facet normal 0 0 -1
  outer loop
    vertex -2.462 -0.435 -3
    vertex -2.462 0.435 -3
    vertex -2.349 -0.856 -3
  endloop
endfacet
facet normal -0.9658148237499072 -0.2592329574435618 0
  outer loop
    vertex -2.462 -0.435 -3
    vertex -2.349 -0.856 -3
    vertex -2.462 -0.435 3
  endloop
endfacet
facet normal -0.9658148237499072 -0.2592329574435618 0
  outer loop
    vertex -2.462 -0.435 3
    vertex -2.349 -0.856 -3
    vertex -2.349 -0.856 3
  endloop
endfacet
facet normal 0 0 1
  outer loop
    vertex -2.462 -0.435 3
    vertex -2.349 -0.856 3
    vertex -2.462 0.435 3
  endloop
endfacet
facet normal -0.9658148237499072 0.2592329574435618 0
  outer loop
    vertex -2.462 0.435 -3
    vertex -2.462 0.435 3
    vertex -2.349 0.856 3
  endloop
endfacet
facet normal 0 0 -1
  outer loop
    vertex -2.462 0.435 -3
    vertex -2.349 0.856 -3
    vertex -2.349 -0.856 -3
  endloop
endfacet
facet normal -0.9658148237499072 0.2592329574435618 0
  outer loop
    vertex -2.462 0.435 -3
    vertex -2.349 0.856 3
    vertex -2.349 0.856 -3
  endloop
endfacet
facet normal 0 0 1
  outer loop
    vertex -2.462 0.435 3
    vertex -2.349 -0.856 3
    vertex -2.349 0.856 3
  endloop
endfacet
facet normal 0 0 -1
  outer loop
    vertex -2.349 -0.856 -3
    vertex -2.349 0.856 -3
    vertex -2.164 -1.2510000000000001 -3
  endloop
endfacet
facet normal -0.9055965574336855 -0.4241401598107134 0
  outer loop
    vertex -2.349 -0.856 -3
    vertex -2.164 -1.2510000000000001 -3
    vertex -2.349 -0.856 3
  endloop
endfacet
facet normal -0.9055965574336855 -0.4241401598107134 0
  outer loop
    vertex -2.349 -0.856 3
    vertex -2.164 -1.2510000000000001 -3
    vertex -2.164 -1.2510000000000001 3
  endloop
endfacet
facet normal 0 0 1
  outer loop
    vertex -2.349 -0.856 3
    vertex -2.164 -1.2510000000000001 3
    vertex -2.349 0.856 3
  endloop
endfacet
facet normal -0.9055965574336855 0.4241401598107134 0
  outer loop
    vertex -2.349 0.856 -3
    vertex -2.349 0.856 3
    vertex -2.164 1.2510000000000001 3
  endloop
endfacet
facet normal 0 0 -1
  outer loop
    vertex -2.349 0.856 -3
    vertex -2.164 1.2510000000000001 -3
    vertex -2.164 -1.2510000000000001 -3
  endloop
endfacet
facet normal -0.9055965574336855 0.4241401598107134 0
  outer loop
    vertex -2.349 0.856 -3
    vertex -2.164 1.2510000000000001 3
    vertex -2.164 1.2510000000000001 -3
  endloop
endfacet
facet normal 0 0 1
  outer loop
    vertex -2.349 0.856 3
    vertex -2.164 -1.2510000000000001 3
    vertex -2.164 1.2510000000000001 3
  endloop
endfacet
facet normal -1 0 0
  outer loop
    vertex -2.24 -0.209 -3.5
    vertex -2.24 -0.209 -3
    vertex -2.24 0.209 -3
  endloop
endfacet
facet normal 0 0 -1
  outer loop
    vertex -2.24 -0.209 -3.5
    vertex -2.24 0.209 -3.5
    vertex -2.164 -0.616 -3.5
  endloop
endfacet
facet normal -1 0 0
  outer loop
    vertex -2.24 -0.209 -3.5
    vertex -2.24 0.209 -3
    vertex -2.24 0.209 -3.5
  endloop
endfacet
facet normal -0.9830086290097346 -0.18355935087159678 0
  outer loop
    vertex -2.24 -0.209 -3.5
    vertex -2.164 -0.616 -3.5
    vertex -2.24 -0.209 -3
  endloop
endfacet
facet normal -0.9830086290097346 -0.18355935087159678 0
  outer loop
    vertex -2.24 -0.209 -3
    vertex -2.164 -0.616 -3.5
    vertex -2.164 -0.616 -3
  endloop
endfacet
facet normal 0 0 1
  outer loop
    vertex -2.24 -0.209 -3
    vertex -2.164 -0.616 -3
    vertex -2.24 0.209 -3
  endloop
endfacet
facet normal -1 0 0
  outer loop
    vertex -2.24 -0.209 3
    vertex -2.24 -0.209 3.5
    vertex -2.24 0.209 3.5
  endloop
endfacet
facet normal 0 0 -1
  outer loop
    vertex -2.24 -0.209 3
    vertex -2.24 0.209 3
    vertex -2.164 -0.616 3
  endloop
endfacet
facet normal -1 0 0
  outer loop
    vertex -2.24 -0.209 3
    vertex -2.24 0.209 3.5
    vertex -2.24 0.209 3
  endloop
endfacet
facet normal -0.9830086290097346 -0.18355935087159678 0
  outer loop
    vertex -2.24 -0.209 3
    vertex -2.164 -0.616 3
    vertex -2.24 -0.209 3.5
  endloop
endfacet
facet normal -0.9830086290097346 -0.18355935087159678 0
  outer loop
    vertex -2.24 -0.209 3.5
    vertex -2.164 -0.616 3
    vertex -2.164 -0.616 3.5
  endloop
endfacet
facet normal 0 0 1
  outer loop
    vertex -2.24 -0.209 3.5
    vertex -2.164 -0.616 3.5
    vertex -2.24 0.209 3.5
  endloop
endfacet
facet normal -0.9830086290097346 0.18355935087159678 0
  outer loop
    vertex -2.24 0.209 -3.5
    vertex -2.24 0.209 -3
    vertex -2.164 0.616 -3
  endloop
endfacet
facet normal 0 0 -1
  outer loop
    vertex -2.24 0.209 -3.5
    vertex -2.164 0.616 -3.5
    vertex -2.164 -0.616 -3.5
  endloop
endfacet
facet normal -0.9830086290097346 0.18355935087159678 0
  outer loop
    vertex -2.24 0.209 -3.5
    vertex -2.164 0.616 -3
    vertex -2.164 0.616 -3.5
  endloop
endfacet
facet normal 0 0 1
  outer loop
    vertex -2.24 0.209 -3
    vertex -2.164 -0.616 -3
    vertex -2.164 0.616 -3
  endloop
endfacet
facet normal -0.9830086290097346 0.18355935087159678 0
  outer loop
    vertex -2.24 0.209 3
    vertex -2.24 0.209 3.5
    vertex -2.164 0.616 3.5
  endloop
endfacet
facet normal 0 0 -1
  outer loop
    vertex -2.24 0.209 3
    vertex -2.164 0.616 3
    vertex -2.164 -0.616 3
  endloop
endfacet
facet normal -0.9830086290097346 0.18355935087159678 0
  outer loop
    vertex -2.24 0.209 3
    vertex -2.164 0.616 3.5
    vertex -2.164 0.616 3
  endloop
endfacet
facet normal 0 0 1
  outer loop
    vertex -2.24 0.209 3.5
    vertex -2.164 -0.616 3.5
    vertex -2.164 0.616 3.5
  endloop
endfacet
facet normal 0 0 -1
  outer loop
    vertex -2.164 -1.2510000000000001 -3
    vertex -2.164 1.2510000000000001 -3
    vertex -1.9160000000000001 -1.606 -3
  endloop
endfacet
facet normal -0.8197739888452481 -0.572687180939779 0
  outer loop
    vertex -2.164 -1.2510000000000001 -3
    vertex -1.9160000000000001 -1.606 -3
    vertex -2.164 -1.2510000000000001 3
  endloop
endfacet
facet normal -0.8197739888452481 -0.572687180939779 0
  outer loop
    vertex -2.164 -1.2510000000000001 3
    vertex -1.9160000000000001 -1.606 -3
    vertex -1.9160000000000001 -1.606 3
  endloop
endfacet
facet normal 0 0 1
  outer loop
    vertex -2.164 -1.2510000000000001 3
    vertex -1.9160000000000001 -1.606 3
    vertex -2.164 1.2510000000000001 3
  endloop
endfacet
facet normal 0 0 -1
  outer loop
    vertex -2.164 -0.616 -3.5
    vertex -2.164 0.616 -3.5
    vertex -2.0140000000000002 -1.0030000000000001 -3.5
  endloop
endfacet
facet normal -0.9324110220206995 -0.3613996209382553 0
  outer loop
    vertex -2.164 -0.616 -3.5
    vertex -2.0140000000000002 -1.0030000000000001 -3.5
    vertex -2.164 -0.616 -3
  endloop
endfacet
facet normal -0.9324110220206995 -0.3613996209382553 0
  outer loop
    vertex -2.164 -0.616 -3
    vertex -2.0140000000000002 -1.0030000000000001 -3.5
    vertex -2.0140000000000002 -1.0030000000000001 -3
  endloop
endfacet
facet normal 0 0 1
  outer loop
    vertex -2.164 -0.616 -3
    vertex -2.0140000000000002 -1.0030000000000001 -3
    vertex -2.164 0.616 -3
  endloop
endfacet
facet normal 0 0 -1
  outer loop
    vertex -2.164 -0.616 3
    vertex -2.164 0.616 3
    vertex -2.0140000000000002 -1.0030000000000001 3
  endloop
endfacet
facet normal -0.9324110220206995 -0.3613996209382553 0
  outer loop
    vertex -2.164 -0.616 3
    vertex -2.0140000000000002 -1.0030000000000001 3
    vertex -2.164 -0.616 3.5
  endloop
endfacet
facet normal -0.9324110220206995 -0.3613996209382553 0
  outer loop
    vertex -2.164 -0.616 3.5
    vertex -2.0140000000000002 -1.0030000000000001 3
    vertex -2.0140000000000002 -1.0030000000000001 3.5
  endloop
endfacet
facet normal 0 0 1
  outer loop
    vertex -2.164 -0.616 3.5
    vertex -2.0140000000000002 -1.0030000000000001 3.5
    vertex -2.164 0.616 3.5
  endloop
endfacet
facet normal -0.9324110220206995 0.3613996209382553 0
  outer loop
    vertex -2.164 0.616 -3.5
    vertex -2.164 0.616 -3
    vertex -2.0140000000000002 1.0030000000000001 -3
  endloop
endfacet
facet normal 0 0 -1
  outer loop
    vertex -2.164 0.616 -3.5
    vertex -2.0140000000000002 1.0030000000000001 -3.5
    vertex -2.0140000000000002 -1.0030000000000001 -3.5
  endloop
endfacet
facet normal -0.9324110220206995 0.3613996209382553 0
  outer loop
    vertex -2.164 0.616 -3.5
    vertex -2.0140000000000002 1.0030000000000001 -3
    vertex -2.0140000000000002 1.0030000000000001 -3.5
  endloop
endfacet
facet normal 0 0 1
  outer loop
    vertex -2.164 0.616 -3
    vertex -2.0140000000000002 -1.0030000000000001 -3
    vertex -2.0140000000000002 1.0030000000000001 -3
  endloop
endfacet
facet normal -0.9324110220206995 0.3613996209382553 0
  outer loop
    vertex -2.164 0.616 3
    vertex -2.164 0.616 3.5
    vertex -2.0140000000000002 1.0030000000000001 3.5
  endloop
endfacet
facet normal 0 0 -1
  outer loop
    vertex -2.164 0.616 3
    vertex -2.0140000000000002 1.0030000000000001 3
    vertex -2.0140000000000002 -1.0030000000000001 3
  endloop
endfacet
facet normal -0.9324110220206995 0.3613996209382553 0
  outer loop
    vertex -2.164 0.616 3
    vertex -2.0140000000000002 1.0030000000000001 3.5
    vertex -2.0140000000000002 1.0030000000000001 3
  endloop
endfacet
facet normal 0 0 1
  outer loop
    vertex -2.164 0.616 3.5
    vertex -2.0140000000000002 -1.0030000000000001 3.5
    vertex -2.0140000000000002 1.0030000000000001 3.5
  endloop
endfacet
facet normal -0.8197739888452481 0.572687180939779 0
  outer loop
    vertex -2.164 1.2510000000000001 -3
    vertex -2.164 1.2510000000000001 3
    vertex -1.9160000000000001 1.606 3
  endloop
endfacet
facet normal 0 0 -1
  outer loop
    vertex -2.164 1.2510000000000001 -3
    vertex -1.9160000000000001 1.606 -3
    vertex -1.9160000000000001 -1.606 -3
  endloop
endfacet
facet normal -0.8197739888452481 0.572687180939779 0
  outer loop
    vertex -2.164 1.2510000000000001 -3
    vertex -1.9160000000000001 1.606 3
    vertex -1.9160000000000001 1.606 -3
  endloop
endfacet
facet normal 0 0 1
  outer loop
    vertex -2.164 1.2510000000000001 3
    vertex -1.9160000000000001 -1.606 3
    vertex -1.9160000000000001 1.606 3
  endloop
endfacet
facet normal 0 0 -1
  outer loop
    vertex -2.0140000000000002 -1.0030000000000001 -3.5
    vertex -2.0140000000000002 1.0030000000000001 -3.5
    vertex -1.794 -1.358 -3.5
  endloop
endfacet
facet normal -0.8500099064417785 -0.5267667025836379 0
  outer loop
    vertex -2.0140000000000002 -1.0030000000000001 -3.5
    vertex -1.794 -1.358 -3.5
    vertex -2.0140000000000002 -1.0030000000000001 -3
  endloop
endfacet
facet normal -0.8500099064417785 -0.5267667025836379 0
  outer loop
    vertex -2.0140000000000002 -1.0030000000000001 -3
    vertex -1.794 -1.358 -3.5
    vertex -1.794 -1.358 -3
  endloop
endfacet
facet normal 0 0 1
  outer loop
    vertex -2.0140000000000002 -1.0030000000000001 -3
    vertex -1.794 -1.358 -3
    vertex -2.0140000000000002 1.0030000000000001 -3
  endloop
endfacet
facet normal 0 0 -1
  outer loop
    vertex -2.0140000000000002 -1.0030000000000001 3
    vertex -2.0140000000000002 1.0030000000000001 3
    vertex -1.794 -1.358 3
  endloop
endfacet
facet normal -0.8500099064417785 -0.5267667025836379 0
  outer loop
    vertex -2.0140000000000002 -1.0030000000000001 3
    vertex -1.794 -1.358 3
    vertex -2.0140000000000002 -1.0030000000000001 3.5
  endloop
endfacet
facet normal -0.8500099064417785 -0.5267667025836379 0
  outer loop
    vertex -2.0140000000000002 -1.0030000000000001 3.5
    vertex -1.794 -1.358 3
    vertex -1.794 -1.358 3.5
  endloop
endfacet
facet normal 0 0 1
  outer loop
    vertex -2.0140000000000002 -1.0030000000000001 3.5
    vertex -1.794 -1.358 3.5
    vertex -2.0140000000000002 1.0030000000000001 3.5
  endloop
endfacet
facet normal -0.8500099064417785 0.5267667025836379 0
  outer loop
    vertex -2.0140000000000002 1.0030000000000001 -3.5
    vertex -2.0140000000000002 1.0030000000000001 -3
    vertex -1.794 1.358 -3
  endloop
endfacet
facet normal 0 0 -1
  outer loop
    vertex -2.0140000000000002 1.0030000000000001 -3.5
    vertex -1.794 1.358 -3.5
    vertex -1.794 -1.358 -3.5
  endloop
endfacet
facet normal -0.8500099064417785 0.5267667025836379 0
  outer loop
    vertex -2.0140000000000002 1.0030000000000001 -3.5
    vertex -1.794 1.358 -3
    vertex -1.794 1.358 -3.5
  endloop
endfacet
facet normal 0 0 1
  outer loop
    vertex -2.0140000000000002 1.0030000000000001 -3
    vertex -1.794 -1.358 -3
    vertex -1.794 1.358 -3
  endloop
endfacet
facet normal -0.8500099064417785 0.5267667025836379 0
  outer loop
    vertex -2.0140000000000002 1.0030000000000001 3
    vertex -2.0140000000000002 1.0030000000000001 3.5
    vertex -1.794 1.358 3.5
  endloop
endfacet
facet normal 0 0 -1
  outer loop
    vertex -2.0140000000000002 1.0030000000000001 3
    vertex -1.794 1.358 3
    vertex -1.794 -1.358 3
  endloop
endfacet
facet normal -0.8500099064417785 0.5267667025836379 0
  outer loop
    vertex -2.0140000000000002 1.0030000000000001 3
    vertex -1.794 1.358 3.5
    vertex -1.794 1.358 3
  endloop
endfacet
facet normal 0 0 1
  outer loop
    vertex -2.0140000000000002 1.0030000000000001 3.5
    vertex -1.794 -1.358 3.5
    vertex -1.794 1.358 3.5
  endloop
endfacet
facet normal 0 0 -1
  outer loop
    vertex -1.9160000000000001 -1.606 -3
    vertex -1.9160000000000001 1.606 -3
    vertex -1.606 -1.9160000000000001 -3
  endloop
endfacet
facet normal -0.7071067811865475 -0.7071067811865475 0
  outer loop
    vertex -1.9160000000000001 -1.606 -3
    vertex -1.606 -1.9160000000000001 -3
    vertex -1.9160000000000001 -1.606 3
  endloop
endfacet
facet normal -0.7071067811865475 -0.7071067811865475 0
  outer loop
    vertex -1.9160000000000001 -1.606 3
    vertex -1.606 -1.9160000000000001 -3
    vertex -1.606 -1.9160000000000001 3
  endloop
endfacet
facet normal 0 0 1
  outer loop
    vertex -1.9160000000000001 -1.606 3
    vertex -1.606 -1.9160000000000001 3
    vertex -1.9160000000000001 1.606 3
  endloop
endfacet
facet normal -0.7071067811865475 0.7071067811865475 0
  outer loop
    vertex -1.9160000000000001 1.606 -3
    vertex -1.9160000000000001 1.606 3
    vertex -1.606 1.9160000000000001 3
  endloop
endfacet
facet normal 0 0 -1
  outer loop
    vertex -1.9160000000000001 1.606 -3
    vertex -1.606 1.9160000000000001 -3
    vertex -1.606 -1.9160000000000001 -3
  endloop
endfacet
facet normal -0.7071067811865475 0.7071067811865475 0
  outer loop
    vertex -1.9160000000000001 1.606 -3
    vertex -1.606 1.9160000000000001 3
    vertex -1.606 1.9160000000000001 -3
  endloop
endfacet
facet normal 0 0 1
  outer loop
    vertex -1.9160000000000001 1.606 3
    vertex -1.606 -1.9160000000000001 3
    vertex -1.606 1.9160000000000001 3
  endloop
endfacet
facet normal 0 0 -1
  outer loop
    vertex -1.794 -1.358 -3.5
    vertex -1.794 1.358 -3.5
    vertex -1.5150000000000001 -1.6640000000000001 -3.5
  endloop
endfacet
facet normal -0.7389558439133296 -0.6737538576856825 0
  outer loop
    vertex -1.794 -1.358 -3.5
    vertex -1.5150000000000001 -1.6640000000000001 -3.5
    vertex -1.794 -1.358 -3
  endloop
endfacet
facet normal -0.7389558439133296 -0.6737538576856825 0
  outer loop
    vertex -1.794 -1.358 -3
    vertex -1.5150000000000001 -1.6640000000000001 -3.5
    vertex -1.5150000000000001 -1.6640000000000001 -3
  endloop
endfacet
facet normal 0 0 1
  outer loop
    vertex -1.794 -1.358 -3
    vertex -1.5150000000000001 -1.6640000000000001 -3
    vertex -1.794 1.358 -3
  endloop
endfacet
facet normal 0 0 -1
  outer loop
    vertex -1.794 -1.358 3
    vertex -1.794 1.358 3
    vertex -1.5150000000000001 -1.6640000000000001 3
  endloop
endfacet
facet normal -0.7389558439133296 -0.6737538576856825 0
  outer loop
    vertex -1.794 -1.358 3
    vertex -1.5150000000000001 -1.6640000000000001 3
    vertex -1.794 -1.358 3.5
  endloop
endfacet
facet normal -0.7389558439133296 -0.6737538576856825 0
  outer loop
    vertex -1.794 -1.358 3.5
    vertex -1.5150000000000001 -1.6640000000000001 3
    vertex -1.5150000000000001 -1.6640000000000001 3.5
  endloop
endfacet
facet normal 0 0 1
  outer loop
    vertex -1.794 -1.358 3.5
    vertex -1.5150000000000001 -1.6640000000000001 3.5
    vertex -1.794 1.358 3.5
  endloop
endfacet
facet normal -0.7389558439133296 0.6737538576856825 0
  outer loop
    vertex -1.794 1.358 -3.5
    vertex -1.794 1.358 -3
    vertex -1.5150000000000001 1.6640000000000001 -3
  endloop
endfacet
facet normal 0 0 -1
  outer loop
    vertex -1.794 1.358 -3.5
    vertex -1.5150000000000001 1.6640000000000001 -3.5
    vertex -1.5150000000000001 -1.6640000000000001 -3.5
  endloop
endfacet
facet normal -0.7389558439133296 0.6737538576856825 0
  outer loop
    vertex -1.794 1.358 -3.5
    vertex -1.5150000000000001 1.6640000000000001 -3
    vertex -1.5150000000000001 1.6640000000000001 -3.5
  endloop
endfacet
facet normal 0 0 1
  outer loop
    vertex -1.794 1.358 -3
    vertex -1.5150000000000001 -1.6640000000000001 -3
    vertex -1.5150000000000001 1.6640000000000001 -3
  endloop
endfacet
facet normal -0.7389558439133296 0.6737538576856825 0
  outer loop
    vertex -1.794 1.358 3
    vertex -1.794 1.358 3.5
    vertex -1.5150000000000001 1.6640000000000001 3.5
  endloop
endfacet
facet normal 0 0 -1
  outer loop
    vertex -1.794 1.358 3
    vertex -1.5150000000000001 1.6640000000000001 3
    vertex -1.5150000000000001 -1.6640000000000001 3
  endloop
endfacet
facet normal -0.7389558439133296 0.6737538576856825 0
  outer loop
    vertex -1.794 1.358 3
    vertex -1.5150000000000001 1.6640000000000001 3.5
    vertex -1.5150000000000001 1.6640000000000001 3
  endloop
endfacet
facet normal 0 0 1
  outer loop
    vertex -1.794 1.358 3.5
    vertex -1.5150000000000001 -1.6640000000000001 3.5
    vertex -1.5150000000000001 1.6640000000000001 3.5
  endloop
endfacet
facet normal 0 0 -1
  outer loop
    vertex -1.606 -1.9160000000000001 -3
    vertex -1.606 1.9160000000000001 -3
    vertex -1.2510000000000001 -2.164 -3
  endloop
endfacet
facet normal -0.572687180939779 -0.8197739888452481 0
  outer loop
    vertex -1.606 -1.9160000000000001 -3
    vertex -1.2510000000000001 -2.164 -3
    vertex -1.606 -1.9160000000000001 3
  endloop
endfacet
facet normal -0.572687180939779 -0.8197739888452481 0
  outer loop
    vertex -1.606 -1.9160000000000001 3
    vertex -1.2510000000000001 -2.164 -3
    vertex -1.2510000000000001 -2.164 3
  endloop
endfacet
facet normal 0 0 1
  outer loop
    vertex -1.606 -1.9160000000000001 3
    vertex -1.2510000000000001 -2.164 3
    vertex -1.606 1.9160000000000001 3
  endloop
endfacet
facet normal -0.572687180939779 0.8197739888452481 0
  outer loop
    vertex -1.606 1.9160000000000001 -3
    vertex -1.606 1.9160000000000001 3
    vertex -1.2510000000000001 2.164 3
  endloop
endfacet
facet normal 0 0 -1
  outer loop
    vertex -1.606 1.9160000000000001 -3
    vertex -1.2510000000000001 2.164 -3
    vertex -1.2510000000000001 -2.164 -3
  endloop
endfacet
facet normal -0.572687180939779 0.8197739888452481 0
  outer loop
    vertex -1.606 1.9160000000000001 -3
    vertex -1.2510000000000001 2.164 3
    vertex -1.2510000000000001 2.164 -3
  endloop
endfacet
facet normal 0 0 1
  outer loop
    vertex -1.606 1.9160000000000001 3
    vertex -1.2510000000000001 -2.164 3
    vertex -1.2510000000000001 2.164 3
  endloop
endfacet
facet normal 0 0 -1
  outer loop
    vertex -1.5150000000000001 -1.6640000000000001 -3.5
    vertex -1.5150000000000001 1.6640000000000001 -3.5
    vertex -1.182 -1.9140000000000001 -3.5
  endloop
endfacet
facet normal -0.6003841766645185 -0.799711723317139 0
  outer loop
    vertex -1.5150000000000001 -1.6640000000000001 -3.5
    vertex -1.182 -1.9140000000000001 -3.5
    vertex -1.5150000000000001 -1.6640000000000001 -3
  endloop
endfacet
facet normal -0.6003841766645185 -0.799711723317139 0
  outer loop
    vertex -1.5150000000000001 -1.6640000000000001 -3
    vertex -1.182 -1.9140000000000001 -3.5
    vertex -1.182 -1.9140000000000001 -3
  endloop
endfacet
facet normal 0 0 1
  outer loop
    vertex -1.5150000000000001 -1.6640000000000001 -3
    vertex -1.182 -1.9140000000000001 -3
    vertex -1.5150000000000001 1.6640000000000001 -3
  endloop
endfacet
facet normal 0 0 -1
  outer loop
    vertex -1.5150000000000001 -1.6640000000000001 3
    vertex -1.5150000000000001 1.6640000000000001 3
    vertex -1.182 -1.9140000000000001 3
  endloop
endfacet
facet normal -0.6003841766645185 -0.799711723317139 0
  outer loop
    vertex -1.5150000000000001 -1.6640000000000001 3
    vertex -1.182 -1.9140000000000001 3
    vertex -1.5150000000000001 -1.6640000000000001 3.5
  endloop
endfacet
facet normal -0.6003841766645185 -0.799711723317139 0
  outer loop
    vertex -1.5150000000000001 -1.6640000000000001 3.5
    vertex -1.182 -1.9140000000000001 3
    vertex -1.182 -1.9140000000000001 3.5
  endloop
endfacet
facet normal 0 0 1
  outer loop
    vertex -1.5150000000000001 -1.6640000000000001 3.5
    vertex -1.182 -1.9140000000000001 3.5
    vertex -1.5150000000000001 1.6640000000000001 3.5
  endloop
endfacet
facet normal -0.6003841766645185 0.799711723317139 0
  outer loop
    vertex -1.5150000000000001 1.6640000000000001 -3.5
    vertex -1.5150000000000001 1.6640000000000001 -3
    vertex -1.182 1.9140000000000001 -3
  endloop
endfacet
facet normal 0 0 -1
  outer loop
    vertex -1.5150000000000001 1.6640000000000001 -3.5
    vertex -1.182 1.9140000000000001 -3.5
    vertex -1.182 -1.9140000000000001 -3.5
  endloop
endfacet
facet normal -0.6003841766645185 0.799711723317139 0
  outer loop
    vertex -1.5150000000000001 1.6640000000000001 -3.5
    vertex -1.182 1.9140000000000001 -3
    vertex -1.182 1.9140000000000001 -3.5
  endloop
endfacet
facet normal 0 0 1
  outer loop
    vertex -1.5150000000000001 1.6640000000000001 -3
    vertex -1.182 -1.9140000000000001 -3
    vertex -1.182 1.9140000000000001 -3
  endloop
endfacet
facet normal -0.6003841766645185 0.799711723317139 0
  outer loop
    vertex -1.5150000000000001 1.6640000000000001 3
    vertex -1.5150000000000001 1.6640000000000001 3.5
    vertex -1.182 1.9140000000000001 3.5
  endloop
endfacet
facet normal 0 0 -1
  outer loop
    vertex -1.5150000000000001 1.6640000000000001 3
    vertex -1.182 1.9140000000000001 3
    vertex -1.182 -1.9140000000000001 3
  endloop
endfacet
facet normal -0.6003841766645185 0.799711723317139 0
  outer loop
    vertex -1.5150000000000001 1.6640000000000001 3
    vertex -1.182 1.9140000000000001 3.5
    vertex -1.182 1.9140000000000001 3
  endloop
endfacet
facet normal 0 0 1
  outer loop
    vertex -1.5150000000000001 1.6640000000000001 3.5
    vertex -1.182 -1.9140000000000001 3.5
    vertex -1.182 1.9140000000000001 3.5
  endloop
endfacet
facet normal 0 0 -1
  outer loop
    vertex -1.2510000000000001 -2.164 -3
    vertex -1.2510000000000001 2.164 -3
    vertex -0.856 -2.349 -3
  endloop
endfacet
facet normal -0.4241401598107134 -0.9055965574336855 0
  outer loop
    vertex -1.2510000000000001 -2.164 -3
    vertex -0.856 -2.349 -3
    vertex -1.2510000000000001 -2.164 3
  endloop
endfacet
facet normal -0.4241401598107134 -0.9055965574336855 0
  outer loop
    vertex -1.2510000000000001 -2.164 3
    vertex -0.856 -2.349 -3
    vertex -0.856 -2.349 3
  endloop
endfacet
facet normal 0 0 1
  outer loop
    vertex -1.2510000000000001 -2.164 3
    vertex -0.856 -2.349 3
    vertex -1.2510000000000001 2.164 3
  endloop
endfacet
facet normal -0.4241401598107134 0.9055965574336855 0
  outer loop
    vertex -1.2510000000000001 2.164 -3
    vertex -1.2510000000000001 2.164 3
    vertex -0.856 2.349 3
  endloop
endfacet
facet normal 0 0 -1
  outer loop
    vertex -1.2510000000000001 2.164 -3
    vertex -0.856 2.349 -3
    vertex -0.856 -2.349 -3
  endloop
endfacet
facet normal -0.4241401598107134 0.9055965574336855 0
  outer loop
    vertex -1.2510000000000001 2.164 -3
    vertex -0.856 2.349 3
    vertex -0.856 2.349 -3
  endloop
endfacet
facet normal 0 0 1
  outer loop
    vertex -1.2510000000000001 2.164 3
    vertex -0.856 -2.349 3
    vertex -0.856 2.349 3
  endloop
endfacet
facet normal 0 0 -1
  outer loop
    vertex -1.182 -1.9140000000000001 -3.5
    vertex -1.182 1.9140000000000001 -3.5
    vertex -0.811 -2.099 -3.5
  endloop
endfacet
facet normal -0.44624847372444626 -0.8949091013609161 0
  outer loop
    vertex -1.182 -1.9140000000000001 -3.5
    vertex -0.811 -2.099 -3.5
    vertex -1.182 -1.9140000000000001 -3
  endloop
endfacet
facet normal -0.44624847372444626 -0.8949091013609161 0
  outer loop
    vertex -1.182 -1.9140000000000001 -3
    vertex -0.811 -2.099 -3.5
    vertex -0.811 -2.099 -3
  endloop
endfacet
facet normal 0 0 1
  outer loop
    vertex -1.182 -1.9140000000000001 -3
    vertex -0.811 -2.099 -3
    vertex -1.182 1.9140000000000001 -3
  endloop
endfacet
facet normal 0 0 -1
  outer loop
    vertex -1.182 -1.9140000000000001 3
    vertex -1.182 1.9140000000000001 3
    vertex -0.811 -2.099 3
  endloop
endfacet
facet normal -0.44624847372444626 -0.8949091013609161 0
  outer loop
    vertex -1.182 -1.9140000000000001 3
    vertex -0.811 -2.099 3
    vertex -1.182 -1.9140000000000001 3.5
  endloop
endfacet
facet normal -0.44624847372444626 -0.8949091013609161 0
  outer loop
    vertex -1.182 -1.9140000000000001 3.5
    vertex -0.811 -2.099 3
    vertex -0.811 -2.099 3.5
  endloop
endfacet
facet normal 0 0 1
  outer loop
    vertex -1.182 -1.9140000000000001 3.5
    vertex -0.811 -2.099 3.5
    vertex -1.182 1.9140000000000001 3.5
  endloop
endfacet
facet normal -0.44624847372444626 0.8949091013609161 0
  outer loop
    vertex -1.182 1.9140000000000001 -3.5
    vertex -1.182 1.9140000000000001 -3
    vertex -0.811 2.099 -3
  endloop
endfacet
facet normal 0 0 -1
  outer loop
    vertex -1.182 1.9140000000000001 -3.5
    vertex -0.811 2.099 -3.5
    vertex -0.811 -2.099 -3.5
  endloop
endfacet
facet normal -0.44624847372444626 0.8949091013609161 0
  outer loop
    vertex -1.182 1.9140000000000001 -3.5
    vertex -0.811 2.099 -3
    vertex -0.811 2.099 -3.5
  endloop
endfacet
facet normal 0 0 1
  outer loop
    vertex -1.182 1.9140000000000001 -3
    vertex -0.811 -2.099 -3
    vertex -0.811 2.099 -3
  endloop
endfacet
facet normal -0.44624847372444626 0.8949091013609161 0
  outer loop
    vertex -1.182 1.9140000000000001 3
    vertex -1.182 1.9140000000000001 3.5
    vertex -0.811 2.099 3.5
  endloop
endfacet
facet normal 0 0 -1
  outer loop
    vertex -1.182 1.9140000000000001 3
    vertex -0.811 2.099 3
    vertex -0.811 -2.099 3
  endloop
endfacet
facet normal -0.44624847372444626 0.8949091013609161 0
  outer loop
    vertex -1.182 1.9140000000000001 3
    vertex -0.811 2.099 3.5
    vertex -0.811 2.099 3
  endloop
endfacet
facet normal 0 0 1
  outer loop
    vertex -1.182 1.9140000000000001 3.5
    vertex -0.811 -2.099 3.5
    vertex -0.811 2.099 3.5
  endloop
endfacet
facet normal 0 0 -1
  outer loop
    vertex -0.856 -2.349 -3
    vertex -0.856 2.349 -3
    vertex -0.435 -2.462 -3
  endloop
endfacet
facet normal -0.2592329574435618 -0.9658148237499072 0
  outer loop
    vertex -0.856 -2.349 -3
    vertex -0.435 -2.462 -3
    vertex -0.856 -2.349 3
  endloop
endfacet
facet normal -0.2592329574435618 -0.9658148237499072 0
  outer loop
    vertex -0.856 -2.349 3
    vertex -0.435 -2.462 -3
    vertex -0.435 -2.462 3
  endloop
endfacet
facet normal 0 0 1
  outer loop
    vertex -0.856 -2.349 3
    vertex -0.435 -2.462 3
    vertex -0.856 2.349 3
  endloop
endfacet
facet normal -0.2592329574435618 0.9658148237499072 0
  outer loop
    vertex -0.856 2.349 -3
    vertex -0.856 2.349 3
    vertex -0.435 2.462 3
  endloop
endfacet
facet normal 0 0 -1
  outer loop
    vertex -0.856 2.349 -3
    vertex -0.435 2.462 -3
    vertex -0.435 -2.462 -3
  endloop
endfacet
facet normal -0.2592329574435618 0.9658148237499072 0
  outer loop
    vertex -0.856 2.349 -3
    vertex -0.435 2.462 3
    vertex -0.435 2.462 -3
  endloop
endfacet
facet normal 0 0 1
  outer loop
    vertex -0.856 2.349 3
    vertex -0.435 -2.462 3
    vertex -0.435 2.462 3
  endloop
endfacet
facet normal 0 0 -1
  outer loop
    vertex -0.811 -2.099 -3.5
    vertex -0.811 2.099 -3.5
    vertex -0.41500000000000004 -2.211 -3.5
  endloop
endfacet
facet normal -0.27215267048297576 -0.9622540849219529 0
  outer loop
    vertex -0.811 -2.099 -3.5
    vertex -0.41500000000000004 -2.211 -3.5
    vertex -0.811 -2.099 -3
  endloop
endfacet
facet normal -0.27215267048297576 -0.9622540849219529 0
  outer loop
    vertex -0.811 -2.099 -3
    vertex -0.41500000000000004 -2.211 -3.5
    vertex -0.41500000000000004 -2.211 -3
  endloop
endfacet
facet normal 0 0 1
  outer loop
    vertex -0.811 -2.099 -3
    vertex -0.41500000000000004 -2.211 -3
    vertex -0.811 2.099 -3
  endloop
endfacet
facet normal 0 0 -1
  outer loop
    vertex -0.811 -2.099 3
    vertex -0.811 2.099 3
    vertex -0.41500000000000004 -2.211 3
  endloop
endfacet
facet normal -0.27215267048297576 -0.9622540849219529 0
  outer loop
    vertex -0.811 -2.099 3
    vertex -0.41500000000000004 -2.211 3
    vertex -0.811 -2.099 3.5
  endloop
endfacet
facet normal -0.27215267048297576 -0.9622540849219529 0
  outer loop
    vertex -0.811 -2.099 3.5
    vertex -0.41500000000000004 -2.211 3
    vertex -0.41500000000000004 -2.211 3.5
  endloop
endfacet
facet normal 0 0 1
  outer loop
    vertex -0.811 -2.099 3.5
    vertex -0.41500000000000004 -2.211 3.5
    vertex -0.811 2.099 3.5
  endloop
endfacet
facet normal -0.27215267048297576 0.9622540849219529 0
  outer loop
    vertex -0.811 2.099 -3.5
    vertex -0.811 2.099 -3
    vertex -0.41500000000000004 2.211 -3
  endloop
endfacet
facet normal 0 0 -1
  outer loop
    vertex -0.811 2.099 -3.5
    vertex -0.41500000000000004 2.211 -3.5
    vertex -0.41500000000000004 -2.211 -3.5
  endloop
endfacet
facet normal -0.27215267048297576 0.9622540849219529 0
  outer loop
    vertex -0.811 2.099 -3.5
    vertex -0.41500000000000004 2.211 -3
    vertex -0.41500000000000004 2.211 -3.5
  endloop
endfacet
facet normal 0 0 1
  outer loop
    vertex -0.811 2.099 -3
    vertex -0.41500000000000004 -2.211 -3
    vertex -0.41500000000000004 2.211 -3
  endloop
endfacet
facet normal -0.27215267048297576 0.9622540849219529 0
  outer loop
    vertex -0.811 2.099 3
    vertex -0.811 2.099 3.5
    vertex -0.41500000000000004 2.211 3.5
  endloop
endfacet
facet normal 0 0 -1
  outer loop
    vertex -0.811 2.099 3
    vertex -0.41500000000000004 2.211 3
    vertex -0.41500000000000004 -2.211 3
  endloop
endfacet
facet normal -0.27215267048297576 0.9622540849219529 0
  outer loop
    vertex -0.811 2.099 3
    vertex -0.41500000000000004 2.211 3.5
    vertex -0.41500000000000004 2.211 3
  endloop
endfacet
facet normal 0 0 1
  outer loop
    vertex -0.811 2.099 3.5
    vertex -0.41500000000000004 -2.211 3.5
    vertex -0.41500000000000004 2.211 3.5
  endloop
endfacet
facet normal 0 0 -1
  outer loop
    vertex -0.435 -2.462 -3
    vertex -0.435 2.462 -3
    vertex 0 -2.5 -3
  endloop
endfacet
facet normal -0.08702490386531302 -0.9962061363529302 0
  outer loop
    vertex -0.435 -2.462 -3
    vertex 0 -2.5 -3
    vertex -0.435 -2.462 3
  endloop
endfacet
facet normal -0.08702490386531302 -0.9962061363529302 0
  outer loop
    vertex -0.435 -2.462 3
    vertex 0 -2.5 -3
    vertex 0 -2.5 3
  endloop
endfacet
facet normal 0 0 1
  outer loop
    vertex -0.435 -2.462 3
    vertex 0 -2.5 3
    vertex -0.435 2.462 3
  endloop
endfacet
facet normal -0.08702490386531302 0.9962061363529302 0
  outer loop
    vertex -0.435 2.462 -3
    vertex -0.435 2.462 3
    vertex 0 2.5 3
  endloop
endfacet
facet normal 0 0 -1
  outer loop
    vertex -0.435 2.462 -3
    vertex 0 2.5 -3
    vertex 0 -2.5 -3
  endloop
endfacet
facet normal -0.08702490386531302 0.9962061363529302 0
  outer loop
    vertex -0.435 2.462 -3
    vertex 0 2.5 3
    vertex 0 2.5 -3
  endloop
endfacet
facet normal 0 0 1
  outer loop
    vertex -0.435 2.462 3
    vertex 0 -2.5 3
    vertex 0 2.5 3
  endloop
endfacet
facet normal 0 0 -1
  outer loop
    vertex -0.41500000000000004 -2.211 -3.5
    vertex -0.41500000000000004 2.211 -3.5
    vertex 0 -2.25 -3.5
  endloop
endfacet
facet normal -0.09356365944699681 -0.9956132992436804 0
  outer loop
    vertex -0.41500000000000004 -2.211 -3.5
    vertex 0 -2.25 -3.5
    vertex -0.41500000000000004 -2.211 -3
  endloop
endfacet
facet normal -0.09356365944699681 -0.9956132992436804 0
  outer loop
    vertex -0.41500000000000004 -2.211 -3
    vertex 0 -2.25 -3.5
    vertex 0 -2.25 -3
  endloop
endfacet
facet normal 0 0 1
  outer loop
    vertex -0.41500000000000004 -2.211 -3
    vertex 0 -2.25 -3
    vertex -0.41500000000000004 2.211 -3
  endloop
endfacet
facet normal 0 0 -1
  outer loop
    vertex -0.41500000000000004 -2.211 3
    vertex -0.41500000000000004 2.211 3
    vertex 0 -2.25 3
  endloop
endfacet
facet normal -0.09356365944699681 -0.9956132992436804 0
  outer loop
    vertex -0.41500000000000004 -2.211 3
    vertex 0 -2.25 3
    vertex -0.41500000000000004 -2.211 3.5
  endloop
endfacet
facet normal -0.09356365944699681 -0.9956132992436804 0
  outer loop
    vertex -0.41500000000000004 -2.211 3.5
    vertex 0 -2.25 3
    vertex 0 -2.25 3.5
  endloop
endfacet
facet normal 0 0 1
  outer loop
    vertex -0.41500000000000004 -2.211 3.5
    vertex 0 -2.25 3.5
    vertex -0.41500000000000004 2.211 3.5
  endloop
endfacet
facet normal -0.09356365944699681 0.9956132992436804 0
  outer loop
    vertex -0.41500000000000004 2.211 -3.5
    vertex -0.41500000000000004 2.211 -3
    vertex 0 2.25 -3
  endloop
endfacet
facet normal 0 0 -1
  outer loop
    vertex -0.41500000000000004 2.211 -3.5
    vertex 0 2.25 -3.5
    vertex 0 -2.25 -3.5
  endloop
endfacet
facet normal -0.09356365944699681 0.9956132992436804 0
  outer loop
    vertex -0.41500000000000004 2.211 -3.5
    vertex 0 2.25 -3
    vertex 0 2.25 -3.5
  endloop
endfacet
facet normal 0 0 1
  outer loop
    vertex -0.41500000000000004 2.211 -3
    vertex 0 -2.25 -3
    vertex 0 2.25 -3
  endloop
endfacet
facet normal -0.09356365944699681 0.9956132992436804 0
  outer loop
    vertex -0.41500000000000004 2.211 3
    vertex -0.41500000000000004 2.211 3.5
    vertex 0 2.25 3.5
  endloop
endfacet
facet normal 0 0 -1
  outer loop
    vertex -0.41500000000000004 2.211 3
    vertex 0 2.25 3
    vertex 0 -2.25 3
  endloop
endfacet
facet normal -0.09356365944699681 0.9956132992436804 0
  outer loop
    vertex -0.41500000000000004 2.211 3
    vertex 0 2.25 3.5
    vertex 0 2.25 3
  endloop
endfacet
facet normal 0 0 1
  outer loop
    vertex -0.41500000000000004 2.211 3.5
    vertex 0 -2.25 3.5
    vertex 0 2.25 3.5
  endloop
endfacet
facet normal 0 0 -1
  outer loop
    vertex 0 -2.5 -3
    vertex 0 2.5 -3
    vertex 0.435 -2.462 -3
  endloop
endfacet
facet normal 0.08702490386531302 -0.9962061363529302 0
  outer loop
    vertex 0 -2.5 -3
    vertex 0.435 -2.462 -3
    vertex 0 -2.5 3
  endloop
endfacet
facet normal 0.08702490386531302 -0.9962061363529302 0
  outer loop
    vertex 0 -2.5 3
    vertex 0.435 -2.462 -3
    vertex 0.435 -2.462 3
  endloop
endfacet
facet normal 0 0 1
  outer loop
    vertex 0 -2.5 3
    vertex 0.435 -2.462 3
    vertex 0 2.5 3
  endloop
endfacet
facet normal 0 0 -1
  outer loop
    vertex 0 -2.25 -3.5
    vertex 0 2.25 -3.5
    vertex 0.41500000000000004 -2.211 -3.5
  endloop
endfacet
facet normal 0.09356365944699681 -0.9956132992436804 0
  outer loop
    vertex 0 -2.25 -3.5
    vertex 0.41500000000000004 -2.211 -3.5
    vertex 0 -2.25 -3
  endloop
endfacet
facet normal 0.09356365944699681 -0.9956132992436804 0
  outer loop
    vertex 0 -2.25 -3
    vertex 0.41500000000000004 -2.211 -3.5
    vertex 0.41500000000000004 -2.211 -3
  endloop
endfacet
facet normal 0 0 1
  outer loop
    vertex 0 -2.25 -3
    vertex 0.41500000000000004 -2.211 -3
    vertex 0 2.25 -3
  endloop
endfacet
facet normal 0 0 -1
  outer loop
    vertex 0 -2.25 3
    vertex 0 2.25 3
    vertex 0.41500000000000004 -2.211 3
  endloop
endfacet
facet normal 0.09356365944699681 -0.9956132992436804 0
  outer loop
    vertex 0 -2.25 3
    vertex 0.41500000000000004 -2.211 3
    vertex 0 -2.25 3.5
  endloop
endfacet
facet normal 0.09356365944699681 -0.9956132992436804 0
  outer loop
    vertex 0 -2.25 3.5
    vertex 0.41500000000000004 -2.211 3
    vertex 0.41500000000000004 -2.211 3.5
  endloop
endfacet
facet normal 0 0 1
  outer loop
    vertex 0 -2.25 3.5
    vertex 0.41500000000000004 -2.211 3.5
    vertex 0 2.25 3.5
  endloop
endfacet
facet normal 0.09356365944699681 0.9956132992436804 0
  outer loop
    vertex 0 2.25 -3.5
    vertex 0 2.25 -3
    vertex 0.41500000000000004 2.211 -3
  endloop
endfacet
facet normal 0 0 -1
  outer loop
    vertex 0 2.25 -3.5
    vertex 0.41500000000000004 2.211 -3.5
    vertex 0.41500000000000004 -2.211 -3.5
  endloop
endfacet
facet normal 0.09356365944699681 0.9956132992436804 0
  outer loop
    vertex 0 2.25 -3.5
    vertex 0.41500000000000004 2.211 -3
    vertex 0.41500000000000004 2.211 -3.5
  endloop
endfacet
facet normal 0 0 1
  outer loop
    vertex 0 2.25 -3
    vertex 0.41500000000000004 -2.211 -3
    vertex 0.41500000000000004 2.211 -3
  endloop
endfacet
facet normal 0.09356365944699681 0.9956132992436804 0
  outer loop
    vertex 0 2.25 3
    vertex 0 2.25 3.5
    vertex 0.41500000000000004 2.211 3.5
  endloop
endfacet
facet normal 0 0 -1
  outer loop
    vertex 0 2.25 3
    vertex 0.41500000000000004 2.211 3
    vertex 0.41500000000000004 -2.211 3
  endloop
endfacet
facet normal 0.09356365944699681 0.9956132992436804 0
  outer loop
    vertex 0 2.25 3
    vertex 0.41500000000000004 2.211 3.5
    vertex 0.41500000000000004 2.211 3
  endloop
endfacet
facet normal 0 0 1
  outer loop
    vertex 0 2.25 3.5
    vertex 0.41500000000000004 -2.211 3.5
    vertex 0.41500000000000004 2.211 3.5
  endloop
endfacet
facet normal 0.08702490386531302 0.9962061363529302 0
  outer loop
    vertex 0 2.5 -3
    vertex 0 2.5 3
    vertex 0.435 2.462 3
  endloop
endfacet
facet normal 0 0 -1
  outer loop
    vertex 0 2.5 -3
    vertex 0.435 2.462 -3
    vertex 0.435 -2.462 -3
  endloop
endfacet
facet normal 0.08702490386531302 0.9962061363529302 0
  outer loop
    vertex 0 2.5 -3
    vertex 0.435 2.462 3
    vertex 0.435 2.462 -3
  endloop
endfacet
facet normal 0 0 1
  outer loop
    vertex 0 2.5 3
    vertex 0.435 -2.462 3
    vertex 0.435 2.462 3
  endloop
endfacet
facet normal 0 0 -1
  outer loop
    vertex 0.41500000000000004 -2.211 -3.5
    vertex 0.41500000000000004 2.211 -3.5
    vertex 0.811 -2.099 -3.5
  endloop
endfacet
facet normal 0.27215267048297576 -0.9622540849219529 0
  outer loop
    vertex 0.41500000000000004 -2.211 -3.5
    vertex 0.811 -2.099 -3.5
    vertex 0.41500000000000004 -2.211 -3
  endloop
endfacet
facet normal 0.27215267048297576 -0.9622540849219529 0
  outer loop
    vertex 0.41500000000000004 -2.211 -3
    vertex 0.811 -2.099 -3.5
    vertex 0.811 -2.099 -3
  endloop
endfacet
facet normal 0 0 1
  outer loop
    vertex 0.41500000000000004 -2.211 -3
    vertex 0.811 -2.099 -3
    vertex 0.41500000000000004 2.211 -3
  endloop
endfacet
facet normal 0 0 -1
  outer loop
    vertex 0.41500000000000004 -2.211 3
    vertex 0.41500000000000004 2.211 3
    vertex 0.811 -2.099 3
  endloop
endfacet
facet normal 0.27215267048297576 -0.9622540849219529 0
  outer loop
    vertex 0.41500000000000004 -2.211 3
    vertex 0.811 -2.099 3
    vertex 0.41500000000000004 -2.211 3.5
  endloop
endfacet
facet normal 0.27215267048297576 -0.9622540849219529 0
  outer loop
    vertex 0.41500000000000004 -2.211 3.5
    vertex 0.811 -2.099 3
    vertex 0.811 -2.099 3.5
  endloop
endfacet
facet normal 0 0 1
  outer loop
    vertex 0.41500000000000004 -2.211 3.5
    vertex 0.811 -2.099 3.5
    vertex 0.41500000000000004 2.211 3.5
  endloop
endfacet
facet normal 0.27215267048297576 0.9622540849219529 0
  outer loop
    vertex 0.41500000000000004 2.211 -3.5
    vertex 0.41500000000000004 2.211 -3
    vertex 0.811 2.099 -3
  endloop
endfacet
facet normal 0 0 -1
  outer loop
    vertex 0.41500000000000004 2.211 -3.5
    vertex 0.811 2.099 -3.5
    vertex 0.811 -2.099 -3.5
  endloop
endfacet
facet normal 0.27215267048297576 0.9622540849219529 0
  outer loop
    vertex 0.41500000000000004 2.211 -3.5
    vertex 0.811 2.099 -3
    vertex 0.811 2.099 -3.5
  endloop
endfacet
facet normal 0 0 1
  outer loop
    vertex 0.41500000000000004 2.211 -3
    vertex 0.811 -2.099 -3
    vertex 0.811 2.099 -3
  endloop
endfacet
facet normal 0.27215267048297576 0.9622540849219529 0
  outer loop
    vertex 0.41500000000000004 2.211 3
    vertex 0.41500000000000004 2.211 3.5
    vertex 0.811 2.099 3.5
  endloop
endfacet
facet normal 0 0 -1
  outer loop
    vertex 0.41500000000000004 2.211 3
    vertex 0.811 2.099 3
    vertex 0.811 -2.099 3
  endloop
endfacet
facet normal 0.27215267048297576 0.9622540849219529 0
  outer loop
    vertex 0.41500000000000004 2.211 3
    vertex 0.811 2.099 3.5
    vertex 0.811 2.099 3
  endloop
endfacet
facet normal 0 0 1
  outer loop
    vertex 0.41500000000000004 2.211 3.5
    vertex 0.811 -2.099 3.5
    vertex 0.811 2.099 3.5
  endloop
endfacet
facet normal 0 0 -1
  outer loop
    vertex 0.435 -2.462 -3
    vertex 0.435 2.462 -3
    vertex 0.856 -2.349 -3
  endloop
endfacet
facet normal 0.2592329574435618 -0.9658148237499072 0
  outer loop
    vertex 0.435 -2.462 -3
    vertex 0.856 -2.349 -3
    vertex 0.435 -2.462 3
  endloop
endfacet
facet normal 0.2592329574435618 -0.9658148237499072 0
  outer loop
    vertex 0.435 -2.462 3
    vertex 0.856 -2.349 -3
    vertex 0.856 -2.349 3
  endloop
endfacet
facet normal 0 0 1
  outer loop
    vertex 0.435 -2.462 3
    vertex 0.856 -2.349 3
    vertex 0.435 2.462 3
  endloop
endfacet
facet normal 0.2592329574435618 0.9658148237499072 0
  outer loop
    vertex 0.435 2.462 -3
    vertex 0.435 2.462 3
    vertex 0.856 2.349 3
  endloop
endfacet
facet normal 0 0 -1
  outer loop
    vertex 0.435 2.462 -3
    vertex 0.856 2.349 -3
    vertex 0.856 -2.349 -3
  endloop
endfacet
facet normal 0.2592329574435618 0.9658148237499072 0
  outer loop
    vertex 0.435 2.462 -3
    vertex 0.856 2.349 3
    vertex 0.856 2.349 -3
  endloop
endfacet
facet normal 0 0 1
  outer loop
    vertex 0.435 2.462 3
    vertex 0.856 -2.349 3
    vertex 0.856 2.349 3
  endloop
endfacet
facet normal 0 0 -1
  outer loop
    vertex 0.811 -2.099 -3.5
    vertex 0.811 2.099 -3.5
    vertex 1.182 -1.9140000000000001 -3.5
  endloop
endfacet
facet normal 0.44624847372444626 -0.8949091013609161 0
  outer loop
    vertex 0.811 -2.099 -3.5
    vertex 1.182 -1.9140000000000001 -3.5
    vertex 0.811 -2.099 -3
  endloop
endfacet
facet normal 0.44624847372444626 -0.8949091013609161 0
  outer loop
    vertex 0.811 -2.099 -3
    vertex 1.182 -1.9140000000000001 -3.5
    vertex 1.182 -1.9140000000000001 -3
  endloop
endfacet
facet normal 0 0 1
  outer loop
    vertex 0.811 -2.099 -3
    vertex 1.182 -1.9140000000000001 -3
    vertex 0.811 2.099 -3
  endloop
endfacet
facet normal 0 0 -1
  outer loop
    vertex 0.811 -2.099 3
    vertex 0.811 2.099 3
    vertex 1.182 -1.9140000000000001 3
  endloop
endfacet
facet normal 0.44624847372444626 -0.8949091013609161 0
  outer loop
    vertex 0.811 -2.099 3
    vertex 1.182 -1.9140000000000001 3
    vertex 0.811 -2.099 3.5
  endloop
endfacet
facet normal 0.44624847372444626 -0.8949091013609161 0
  outer loop
    vertex 0.811 -2.099 3.5
    vertex 1.182 -1.9140000000000001 3
    vertex 1.182 -1.9140000000000001 3.5
  endloop
endfacet
facet normal 0 0 1
  outer loop
    vertex 0.811 -2.099 3.5
    vertex 1.182 -1.9140000000000001 3.5
    vertex 0.811 2.099 3.5
  endloop
endfacet
facet normal 0.44624847372444626 0.8949091013609161 0
  outer loop
    vertex 0.811 2.099 -3.5
    vertex 0.811 2.099 -3
    vertex 1.182 1.9140000000000001 -3
  endloop
endfacet
facet normal 0 0 -1
  outer loop
    vertex 0.811 2.099 -3.5
    vertex 1.182 1.9140000000000001 -3.5
    vertex 1.182 -1.9140000000000001 -3.5
  endloop
endfacet
facet normal 0.44624847372444626 0.8949091013609161 0
  outer loop
    vertex 0.811 2.099 -3.5
    vertex 1.182 1.9140000000000001 -3
    vertex 1.182 1.9140000000000001 -3.5
  endloop
endfacet
facet normal 0 0 1
  outer loop
    vertex 0.811 2.099 -3
    vertex 1.182 -1.9140000000000001 -3
    vertex 1.182 1.9140000000000001 -3
  endloop
endfacet
facet normal 0.44624847372444626 0.8949091013609161 0
  outer loop
    vertex 0.811 2.099 3
    vertex 0.811 2.099 3.5
    vertex 1.182 1.9140000000000001 3.5
  endloop
endfacet
facet normal 0 0 -1
  outer loop
    vertex 0.811 2.099 3
    vertex 1.182 1.9140000000000001 3
    vertex 1.182 -1.9140000000000001 3
  endloop
endfacet
facet normal 0.44624847372444626 0.8949091013609161 0
  outer loop
    vertex 0.811 2.099 3
    vertex 1.182 1.9140000000000001 3.5
    vertex 1.182 1.9140000000000001 3
  endloop
endfacet
facet normal 0 0 1
  outer loop
    vertex 0.811 2.099 3.5
    vertex 1.182 -1.9140000000000001 3.5
    vertex 1.182 1.9140000000000001 3.5
  endloop
endfacet
facet normal 0 0 -1
  outer loop
    vertex 0.856 -2.349 -3
    vertex 0.856 2.349 -3
    vertex 1.2510000000000001 -2.164 -3
  endloop
endfacet
facet normal 0.4241401598107134 -0.9055965574336855 0
  outer loop
    vertex 0.856 -2.349 -3
    vertex 1.2510000000000001 -2.164 -3
    vertex 0.856 -2.349 3
  endloop
endfacet
facet normal 0.4241401598107134 -0.9055965574336855 0
  outer loop
    vertex 0.856 -2.349 3
    vertex 1.2510000000000001 -2.164 -3
    vertex 1.2510000000000001 -2.164 3
  endloop
endfacet
facet normal 0 0 1
  outer loop
    vertex 0.856 -2.349 3
    vertex 1.2510000000000001 -2.164 3
    vertex 0.856 2.349 3
  endloop
endfacet
facet normal 0.4241401598107134 0.9055965574336855 0
  outer loop
    vertex 0.856 2.349 -3
    vertex 0.856 2.349 3
    vertex 1.2510000000000001 2.164 3
  endloop
endfacet
facet normal 0 0 -1
  outer loop
    vertex 0.856 2.349 -3
    vertex 1.2510000000000001 2.164 -3
    vertex 1.2510000000000001 -2.164 -3
  endloop
endfacet
facet normal 0.4241401598107134 0.9055965574336855 0
  outer loop
    vertex 0.856 2.349 -3
    vertex 1.2510000000000001 2.164 3
    vertex 1.2510000000000001 2.164 -3
  endloop
endfacet
facet normal 0 0 1
  outer loop
    vertex 0.856 2.349 3
    vertex 1.2510000000000001 -2.164 3
    vertex 1.2510000000000001 2.164 3
  endloop
endfacet
facet normal 0 0 -1
  outer loop
    vertex 1.182 -1.9140000000000001 -3.5
    vertex 1.182 1.9140000000000001 -3.5
    vertex 1.5150000000000001 -1.6640000000000001 -3.5
  endloop
endfacet
facet normal 0.6003841766645185 -0.799711723317139 0
  outer loop
    vertex 1.182 -1.9140000000000001 -3.5
    vertex 1.5150000000000001 -1.6640000000000001 -3.5
    vertex 1.182 -1.9140000000000001 -3
  endloop
endfacet
facet normal 0.6003841766645185 -0.799711723317139 0
  outer loop
    vertex 1.182 -1.9140000000000001 -3
    vertex 1.5150000000000001 -1.6640000000000001 -3.5
    vertex 1.5150000000000001 -1.6640000000000001 -3
  endloop
endfacet
facet normal 0 0 1
  outer loop
    vertex 1.182 -1.9140000000000001 -3
    vertex 1.5150000000000001 -1.6640000000000001 -3
    vertex 1.182 1.9140000000000001 -3
  endloop
endfacet
facet normal 0 0 -1
  outer loop
    vertex 1.182 -1.9140000000000001 3
    vertex 1.182 1.9140000000000001 3
    vertex 1.5150000000000001 -1.6640000000000001 3
  endloop
endfacet
facet normal 0.6003841766645185 -0.799711723317139 0
  outer loop
    vertex 1.182 -1.9140000000000001 3
    vertex 1.5150000000000001 -1.6640000000000001 3
    vertex 1.182 -1.9140000000000001 3.5
  endloop
endfacet
facet normal 0.6003841766645185 -0.799711723317139 0
  outer loop
    vertex 1.182 -1.9140000000000001 3.5
    vertex 1.5150000000000001 -1.6640000000000001 3
    vertex 1.5150000000000001 -1.6640000000000001 3.5
  endloop
endfacet
facet normal 0 0 1
  outer loop
    vertex 1.182 -1.9140000000000001 3.5
    vertex 1.5150000000000001 -1.6640000000000001 3.5
    vertex 1.182 1.9140000000000001 3.5
  endloop
endfacet
facet normal 0.6003841766645185 0.799711723317139 0
  outer loop
    vertex 1.182 1.9140000000000001 -3.5
    vertex 1.182 1.9140000000000001 -3
    vertex 1.5150000000000001 1.6640000000000001 -3
  endloop
endfacet
facet normal 0 0 -1
  outer loop
    vertex 1.182 1.9140000000000001 -3.5
    vertex 1.5150000000000001 1.6640000000000001 -3.5
    vertex 1.5150000000000001 -1.6640000000000001 -3.5
  endloop
endfacet
facet normal 0.6003841766645185 0.799711723317139 0
  outer loop
    vertex 1.182 1.9140000000000001 -3.5
    vertex 1.5150000000000001 1.6640000000000001 -3
    vertex 1.5150000000000001 1.6640000000000001 -3.5
  endloop
endfacet
facet normal 0 0 1
  outer loop
    vertex 1.182 1.9140000000000001 -3
    vertex 1.5150000000000001 -1.6640000000000001 -3
    vertex 1.5150000000000001 1.6640000000000001 -3
  endloop
endfacet
facet normal 0.6003841766645185 0.799711723317139 0
  outer loop
    vertex 1.182 1.9140000000000001 3
    vertex 1.182 1.9140000000000001 3.5
    vertex 1.5150000000000001 1.6640000000000001 3.5
  endloop
endfacet
facet normal 0 0 -1
  outer loop
    vertex 1.182 1.9140000000000001 3
    vertex 1.5150000000000001 1.6640000000000001 3
    vertex 1.5150000000000001 -1.6640000000000001 3
  endloop
endfacet
facet normal 0.6003841766645185 0.799711723317139 0
  outer loop
    vertex 1.182 1.9140000000000001 3
    vertex 1.5150000000000001 1.6640000000000001 3.5
    vertex 1.5150000000000001 1.6640000000000001 3
  endloop
endfacet
facet normal 0 0 1
  outer loop
    vertex 1.182 1.9140000000000001 3.5
    vertex 1.5150000000000001 -1.6640000000000001 3.5
    vertex 1.5150000000000001 1.6640000000000001 3.5
  endloop
endfacet
facet normal 0 0 -1
  outer loop
    vertex 1.2510000000000001 -2.164 -3
    vertex 1.2510000000000001 2.164 -3
    vertex 1.606 -1.9160000000000001 -3
  endloop
endfacet
facet normal 0.572687180939779 -0.8197739888452481 0
  outer loop
    vertex 1.2510000000000001 -2.164 -3
    vertex 1.606 -1.9160000000000001 -3
    vertex 1.2510000000000001 -2.164 3
  endloop
endfacet
facet normal 0.572687180939779 -0.8197739888452481 0
  outer loop
    vertex 1.2510000000000001 -2.164 3
    vertex 1.606 -1.9160000000000001 -3
    vertex 1.606 -1.9160000000000001 3
  endloop
endfacet
facet normal 0 0 1
  outer loop
    vertex 1.2510000000000001 -2.164 3
    vertex 1.606 -1.9160000000000001 3
    vertex 1.2510000000000001 2.164 3
  endloop
endfacet
facet normal 0.572687180939779 0.8197739888452481 0
  outer loop
    vertex 1.2510000000000001 2.164 -3
    vertex 1.2510000000000001 2.164 3
    vertex 1.606 1.9160000000000001 3
  endloop
endfacet
facet normal 0 0 -1
  outer loop
    vertex 1.2510000000000001 2.164 -3
    vertex 1.606 1.9160000000000001 -3
    vertex 1.606 -1.9160000000000001 -3
  endloop
endfacet
facet normal 0.572687180939779 0.8197739888452481 0
  outer loop
    vertex 1.2510000000000001 2.164 -3
    vertex 1.606 1.9160000000000001 3
    vertex 1.606 1.9160000000000001 -3
  endloop
endfacet
facet normal 0 0 1
  outer loop
    vertex 1.2510000000000001 2.164 3
    vertex 1.606 -1.9160000000000001 3
    vertex 1.606 1.9160000000000001 3
  endloop
endfacet
facet normal 0 0 -1
  outer loop
    vertex 1.5150000000000001 -1.6640000000000001 -3.5
    vertex 1.5150000000000001 1.6640000000000001 -3.5
    vertex 1.794 -1.358 -3.5
  endloop
endfacet
facet normal 0.7389558439133296 -0.6737538576856825 0
  outer loop
    vertex 1.5150000000000001 -1.6640000000000001 -3.5
    vertex 1.794 -1.358 -3.5
    vertex 1.5150000000000001 -1.6640000000000001 -3
  endloop
endfacet
facet normal 0.7389558439133296 -0.6737538576856825 0
  outer loop
    vertex 1.5150000000000001 -1.6640000000000001 -3
    vertex 1.794 -1.358 -3.5
    vertex 1.794 -1.358 -3
  endloop
endfacet
facet normal 0 0 1
  outer loop
    vertex 1.5150000000000001 -1.6640000000000001 -3
    vertex 1.794 -1.358 -3
    vertex 1.5150000000000001 1.6640000000000001 -3
  endloop
endfacet
facet normal 0 0 -1
  outer loop
    vertex 1.5150000000000001 -1.6640000000000001 3
    vertex 1.5150000000000001 1.6640000000000001 3
    vertex 1.794 -1.358 3
  endloop
endfacet
facet normal 0.7389558439133296 -0.6737538576856825 0
  outer loop
    vertex 1.5150000000000001 -1.6640000000000001 3
    vertex 1.794 -1.358 3
    vertex 1.5150000000000001 -1.6640000000000001 3.5
  endloop
endfacet
facet normal 0.7389558439133296 -0.6737538576856825 0
  outer loop
    vertex 1.5150000000000001 -1.6640000000000001 3.5
    vertex 1.794 -1.358 3
    vertex 1.794 -1.358 3.5
  endloop
endfacet
facet normal 0 0 1
  outer loop
    vertex 1.5150000000000001 -1.6640000000000001 3.5
    vertex 1.794 -1.358 3.5
    vertex 1.5150000000000001 1.6640000000000001 3.5
  endloop
endfacet
facet normal 0.7389558439133296 0.6737538576856825 0
  outer loop
    vertex 1.5150000000000001 1.6640000000000001 -3.5
    vertex 1.5150000000000001 1.6640000000000001 -3
    vertex 1.794 1.358 -3
  endloop
endfacet
facet normal 0 0 -1
  outer loop
    vertex 1.5150000000000001 1.6640000000000001 -3.5
    vertex 1.794 1.358 -3.5
    vertex 1.794 -1.358 -3.5
  endloop
endfacet
facet normal 0.7389558439133296 0.6737538576856825 0
  outer loop
    vertex 1.5150000000000001 1.6640000000000001 -3.5
    vertex 1.794 1.358 -3
    vertex 1.794 1.358 -3.5
  endloop
endfacet
facet normal 0 0 1
  outer loop
    vertex 1.5150000000000001 1.6640000000000001 -3
    vertex 1.794 -1.358 -3
    vertex 1.794 1.358 -3
  endloop
endfacet
facet normal 0.7389558439133296 0.6737538576856825 0
  outer loop
    vertex 1.5150000000000001 1.6640000000000001 3
    vertex 1.5150000000000001 1.6640000000000001 3.5
    vertex 1.794 1.358 3.5
  endloop
endfacet
facet normal 0 0 -1
  outer loop
    vertex 1.5150000000000001 1.6640000000000001 3
    vertex 1.794 1.358 3
    vertex 1.794 -1.358 3
  endloop
endfacet
facet normal 0.7389558439133296 0.6737538576856825 0
  outer loop
    vertex 1.5150000000000001 1.6640000000000001 3
    vertex 1.794 1.358 3.5
    vertex 1.794 1.358 3
  endloop
endfacet
facet normal 0 0 1
  outer loop
    vertex 1.5150000000000001 1.6640000000000001 3.5
    vertex 1.794 -1.358 3.5
    vertex 1.794 1.358 3.5
  endloop
endfacet
facet normal 0 0 -1
  outer loop
    vertex 1.606 -1.9160000000000001 -3
    vertex 1.606 1.9160000000000001 -3
    vertex 1.9160000000000001 -1.606 -3
  endloop
endfacet
facet normal 0.7071067811865475 -0.7071067811865475 0
  outer loop
    vertex 1.606 -1.9160000000000001 -3
    vertex 1.9160000000000001 -1.606 -3
    vertex 1.606 -1.9160000000000001 3
  endloop
endfacet
facet normal 0.7071067811865475 -0.7071067811865475 0
  outer loop
    vertex 1.606 -1.9160000000000001 3
    vertex 1.9160000000000001 -1.606 -3
    vertex 1.9160000000000001 -1.606 3
  endloop
endfacet
facet normal 0 0 1
  outer loop
    vertex 1.606 -1.9160000000000001 3
    vertex 1.9160000000000001 -1.606 3
    vertex 1.606 1.9160000000000001 3
  endloop
endfacet
facet normal 0.7071067811865475 0.7071067811865475 0
  outer loop
    vertex 1.606 1.9160000000000001 -3
    vertex 1.606 1.9160000000000001 3
    vertex 1.9160000000000001 1.606 3
  endloop
endfacet
facet normal 0 0 -1
  outer loop
    vertex 1.606 1.9160000000000001 -3
    vertex 1.9160000000000001 1.606 -3
    vertex 1.9160000000000001 -1.606 -3
  endloop
endfacet
facet normal 0.7071067811865475 0.7071067811865475 0
  outer loop
    vertex 1.606 1.9160000000000001 -3
    vertex 1.9160000000000001 1.606 3
    vertex 1.9160000000000001 1.606 -3
  endloop
endfacet
facet normal 0 0 1
  outer loop
    vertex 1.606 1.9160000000000001 3
    vertex 1.9160000000000001 -1.606 3
    vertex 1.9160000000000001 1.606 3
  endloop
endfacet
facet normal 0 0 -1
  outer loop
    vertex 1.794 -1.358 -3.5
    vertex 1.794 1.358 -3.5
    vertex 2.0140000000000002 -1.0030000000000001 -3.5
  endloop
endfacet
facet normal 0.8500099064417785 -0.5267667025836379 0
  outer loop
    vertex 1.794 -1.358 -3.5
    vertex 2.0140000000000002 -1.0030000000000001 -3.5
    vertex 1.794 -1.358 -3
  endloop
endfacet
facet normal 0.8500099064417785 -0.5267667025836379 0
  outer loop
    vertex 1.794 -1.358 -3
    vertex 2.0140000000000002 -1.0030000000000001 -3.5
    vertex 2.0140000000000002 -1.0030000000000001 -3
  endloop
endfacet
facet normal 0 0 1
  outer loop
    vertex 1.794 -1.358 -3
    vertex 2.0140000000000002 -1.0030000000000001 -3
    vertex 1.794 1.358 -3
  endloop
endfacet
facet normal 0 0 -1
  outer loop
    vertex 1.794 -1.358 3
    vertex 1.794 1.358 3
    vertex 2.0140000000000002 -1.0030000000000001 3
  endloop
endfacet
facet normal 0.8500099064417785 -0.5267667025836379 0
  outer loop
    vertex 1.794 -1.358 3
    vertex 2.0140000000000002 -1.0030000000000001 3
    vertex 1.794 -1.358 3.5
  endloop
endfacet
facet normal 0.8500099064417785 -0.5267667025836379 0
  outer loop
    vertex 1.794 -1.358 3.5
    vertex 2.0140000000000002 -1.0030000000000001 3
    vertex 2.0140000000000002 -1.0030000000000001 3.5
  endloop
endfacet
facet normal 0 0 1
  outer loop
    vertex 1.794 -1.358 3.5
    vertex 2.0140000000000002 -1.0030000000000001 3.5
    vertex 1.794 1.358 3.5
  endloop
endfacet
facet normal 0.8500099064417785 0.5267667025836379 0
  outer loop
    vertex 1.794 1.358 -3.5
    vertex 1.794 1.358 -3
    vertex 2.0140000000000002 1.0030000000000001 -3
  endloop
endfacet
facet normal 0 0 -1
  outer loop
    vertex 1.794 1.358 -3.5
    vertex 2.0140000000000002 1.0030000000000001 -3.5
    vertex 2.0140000000000002 -1.0030000000000001 -3.5
  endloop
endfacet
facet normal 0.8500099064417785 0.5267667025836379 0
  outer loop
    vertex 1.794 1.358 -3.5
    vertex 2.0140000000000002 1.0030000000000001 -3
    vertex 2.0140000000000002 1.0030000000000001 -3.5
  endloop
endfacet
facet normal 0 0 1
  outer loop
    vertex 1.794 1.358 -3
    vertex 2.0140000000000002 -1.0030000000000001 -3
    vertex 2.0140000000000002 1.0030000000000001 -3
  endloop
endfacet
facet normal 0.8500099064417785 0.5267667025836379 0
  outer loop
    vertex 1.794 1.358 3
    vertex 1.794 1.358 3.5
    vertex 2.0140000000000002 1.0030000000000001 3.5
  endloop
endfacet
facet normal 0 0 -1
  outer loop
    vertex 1.794 1.358 3
    vertex 2.0140000000000002 1.0030000000000001 3
    vertex 2.0140000000000002 -1.0030000000000001 3
  endloop
endfacet
facet normal 0.8500099064417785 0.5267667025836379 0
  outer loop
    vertex 1.794 1.358 3
    vertex 2.0140000000000002 1.0030000000000001 3.5
    vertex 2.0140000000000002 1.0030000000000001 3
  endloop
endfacet
facet normal 0 0 1
  outer loop
    vertex 1.794 1.358 3.5
    vertex 2.0140000000000002 -1.0030000000000001 3.5
    vertex 2.0140000000000002 1.0030000000000001 3.5
  endloop
endfacet
facet normal 0 0 -1
  outer loop
    vertex 1.9160000000000001 -1.606 -3
    vertex 1.9160000000000001 1.606 -3
    vertex 2.164 -1.2510000000000001 -3
  endloop
endfacet
facet normal 0.8197739888452481 -0.572687180939779 0
  outer loop
    vertex 1.9160000000000001 -1.606 -3
    vertex 2.164 -1.2510000000000001 -3
    vertex 1.9160000000000001 -1.606 3
  endloop
endfacet
facet normal 0.8197739888452481 -0.572687180939779 0
  outer loop
    vertex 1.9160000000000001 -1.606 3
    vertex 2.164 -1.2510000000000001 -3
    vertex 2.164 -1.2510000000000001 3
  endloop
endfacet
facet normal 0 0 1
  outer loop
    vertex 1.9160000000000001 -1.606 3
    vertex 2.164 -1.2510000000000001 3
    vertex 1.9160000000000001 1.606 3
  endloop
endfacet
facet normal 0.8197739888452481 0.572687180939779 0
  outer loop
    vertex 1.9160000000000001 1.606 -3
    vertex 1.9160000000000001 1.606 3
    vertex 2.164 1.2510000000000001 3
  endloop
endfacet
facet normal 0 0 -1
  outer loop
    vertex 1.9160000000000001 1.606 -3
    vertex 2.164 1.2510000000000001 -3
    vertex 2.164 -1.2510000000000001 -3
  endloop
endfacet
facet normal 0.8197739888452481 0.572687180939779 0
  outer loop
    vertex 1.9160000000000001 1.606 -3
    vertex 2.164 1.2510000000000001 3
    vertex 2.164 1.2510000000000001 -3
  endloop
endfacet
facet normal 0 0 1
  outer loop
    vertex 1.9160000000000001 1.606 3
    vertex 2.164 -1.2510000000000001 3
    vertex 2.164 1.2510000000000001 3
  endloop
endfacet
facet normal 0 0 -1
  outer loop
    vertex 2.0140000000000002 -1.0030000000000001 -3.5
    vertex 2.0140000000000002 1.0030000000000001 -3.5
    vertex 2.164 -0.616 -3.5
  endloop
endfacet
facet normal 0.9324110220206995 -0.3613996209382553 0
  outer loop
    vertex 2.0140000000000002 -1.0030000000000001 -3.5
    vertex 2.164 -0.616 -3.5
    vertex 2.0140000000000002 -1.0030000000000001 -3
  endloop
endfacet
facet normal 0.9324110220206995 -0.3613996209382553 0
  outer loop
    vertex 2.0140000000000002 -1.0030000000000001 -3
    vertex 2.164 -0.616 -3.5
    vertex 2.164 -0.616 -3
  endloop
endfacet
facet normal 0 0 1
  outer loop
    vertex 2.0140000000000002 -1.0030000000000001 -3
    vertex 2.164 -0.616 -3
    vertex 2.0140000000000002 1.0030000000000001 -3
  endloop
endfacet
facet normal 0 0 -1
  outer loop
    vertex 2.0140000000000002 -1.0030000000000001 3
    vertex 2.0140000000000002 1.0030000000000001 3
    vertex 2.164 -0.616 3
  endloop
endfacet
facet normal 0.9324110220206995 -0.3613996209382553 0
  outer loop
    vertex 2.0140000000000002 -1.0030000000000001 3
    vertex 2.164 -0.616 3
    vertex 2.0140000000000002 -1.0030000000000001 3.5
  endloop
endfacet
facet normal 0.9324110220206995 -0.3613996209382553 0
  outer loop
    vertex 2.0140000000000002 -1.0030000000000001 3.5
    vertex 2.164 -0.616 3
    vertex 2.164 -0.616 3.5
  endloop
endfacet
facet normal 0 0 1
  outer loop
    vertex 2.0140000000000002 -1.0030000000000001 3.5
    vertex 2.164 -0.616 3.5
    vertex 2.0140000000000002 1.0030000000000001 3.5
  endloop
endfacet
facet normal 0.9324110220206995 0.3613996209382553 0
  outer loop
    vertex 2.0140000000000002 1.0030000000000001 -3.5
    vertex 2.0140000000000002 1.0030000000000001 -3
    vertex 2.164 0.616 -3
  endloop
endfacet
facet normal 0 0 -1
  outer loop
    vertex 2.0140000000000002 1.0030000000000001 -3.5
    vertex 2.164 0.616 -3.5
    vertex 2.164 -0.616 -3.5
  endloop
endfacet
facet normal 0.9324110220206995 0.3613996209382553 0
  outer loop
    vertex 2.0140000000000002 1.0030000000000001 -3.5
    vertex 2.164 0.616 -3
    vertex 2.164 0.616 -3.5
  endloop
endfacet
facet normal 0 0 1
  outer loop
    vertex 2.0140000000000002 1.0030000000000001 -3
    vertex 2.164 -0.616 -3
    vertex 2.164 0.616 -3
  endloop
endfacet
facet normal 0.9324110220206995 0.3613996209382553 0
  outer loop
    vertex 2.0140000000000002 1.0030000000000001 3
    vertex 2.0140000000000002 1.0030000000000001 3.5
    vertex 2.164 0.616 3.5
  endloop
endfacet
facet normal 0 0 -1
  outer loop
    vertex 2.0140000000000002 1.0030000000000001 3
    vertex 2.164 0.616 3
    vertex 2.164 -0.616 3
  endloop
endfacet
facet normal 0.9324110220206995 0.3613996209382553 0
  outer loop
    vertex 2.0140000000000002 1.0030000000000001 3
    vertex 2.164 0.616 3.5
    vertex 2.164 0.616 3
  endloop
endfacet
facet normal 0 0 1
  outer loop
    vertex 2.0140000000000002 1.0030000000000001 3.5
    vertex 2.164 -0.616 3.5
    vertex 2.164 0.616 3.5
  endloop
endfacet
facet normal 0 0 -1
  outer loop
    vertex 2.164 -1.2510000000000001 -3
    vertex 2.164 1.2510000000000001 -3
    vertex 2.349 -0.856 -3
  endloop
endfacet
facet normal 0.9055965574336855 -0.4241401598107134 0
  outer loop
    vertex 2.164 -1.2510000000000001 -3
    vertex 2.349 -0.856 -3
    vertex 2.164 -1.2510000000000001 3
  endloop
endfacet
facet normal 0.9055965574336855 -0.4241401598107134 0
  outer loop
    vertex 2.164 -1.2510000000000001 3
    vertex 2.349 -0.856 -3
    vertex 2.349 -0.856 3
  endloop
endfacet
facet normal 0 0 1
  outer loop
    vertex 2.164 -1.2510000000000001 3
    vertex 2.349 -0.856 3
    vertex 2.164 1.2510000000000001 3
  endloop
endfacet
facet normal 0 0 -1
  outer loop
    vertex 2.164 -0.616 -3.5
    vertex 2.164 0.616 -3.5
    vertex 2.24 -0.209 -3.5
  endloop
endfacet
facet normal 0.9830086290097346 -0.18355935087159678 0
  outer loop
    vertex 2.164 -0.616 -3.5
    vertex 2.24 -0.209 -3.5
    vertex 2.164 -0.616 -3
  endloop
endfacet
facet normal 0.9830086290097346 -0.18355935087159678 0
  outer loop
    vertex 2.164 -0.616 -3
    vertex 2.24 -0.209 -3.5
    vertex 2.24 -0.209 -3
  endloop
endfacet
facet normal 0 0 1
  outer loop
    vertex 2.164 -0.616 -3
    vertex 2.24 -0.209 -3
    vertex 2.164 0.616 -3
  endloop
endfacet
facet normal 0 0 -1
  outer loop
    vertex 2.164 -0.616 3
    vertex 2.164 0.616 3
    vertex 2.24 -0.209 3
  endloop
endfacet
facet normal 0.9830086290097346 -0.18355935087159678 0
  outer loop
    vertex 2.164 -0.616 3
    vertex 2.24 -0.209 3
    vertex 2.164 -0.616 3.5
  endloop
endfacet
facet normal 0.9830086290097346 -0.18355935087159678 0
  outer loop
    vertex 2.164 -0.616 3.5
    vertex 2.24 -0.209 3
    vertex 2.24 -0.209 3.5
  endloop
endfacet
facet normal 0 0 1
  outer loop
    vertex 2.164 -0.616 3.5
    vertex 2.24 -0.209 3.5
    vertex 2.164 0.616 3.5
  endloop
endfacet
facet normal 0.9830086290097346 0.18355935087159678 0
  outer loop
    vertex 2.164 0.616 -3.5
    vertex 2.164 0.616 -3
    vertex 2.24 0.209 -3
  endloop
endfacet
facet normal 0 0 -1
  outer loop
    vertex 2.164 0.616 -3.5
    vertex 2.24 0.209 -3.5
    vertex 2.24 -0.209 -3.5
  endloop
endfacet
facet normal 0.9830086290097346 0.18355935087159678 0
  outer loop
    vertex 2.164 0.616 -3.5
    vertex 2.24 0.209 -3
    vertex 2.24 0.209 -3.5
  endloop
endfacet
facet normal 0 0 1
  outer loop
    vertex 2.164 0.616 -3
    vertex 2.24 -0.209 -3
    vertex 2.24 0.209 -3
  endloop
endfacet
facet normal 0.9830086290097346 0.18355935087159678 0
  outer loop
    vertex 2.164 0.616 3
    vertex 2.164 0.616 3.5
    vertex 2.24 0.209 3.5
  endloop
endfacet
facet normal 0 0 -1
  outer loop
    vertex 2.164 0.616 3
    vertex 2.24 0.209 3
    vertex 2.24 -0.209 3
  endloop
endfacet
facet normal 0.9830086290097346 0.18355935087159678 0
  outer loop
    vertex 2.164 0.616 3
    vertex 2.24 0.209 3.5
    vertex 2.24 0.209 3
  endloop
endfacet
facet normal 0 0 1
  outer loop
    vertex 2.164 0.616 3.5
    vertex 2.24 -0.209 3.5
    vertex 2.24 0.209 3.5
  endloop
endfacet
facet normal 0.9055965574336855 0.4241401598107134 0
  outer loop
    vertex 2.164 1.2510000000000001 -3
    vertex 2.164 1.2510000000000001 3
    vertex 2.349 0.856 3
  endloop
endfacet
facet normal 0 0 -1
  outer loop
    vertex 2.164 1.2510000000000001 -3
    vertex 2.349 0.856 -3
    vertex 2.349 -0.856 -3
  endloop
endfacet
facet normal 0.9055965574336855 0.4241401598107134 0
  outer loop
    vertex 2.164 1.2510000000000001 -3
    vertex 2.349 0.856 3
    vertex 2.349 0.856 -3
  endloop
endfacet
facet normal 0 0 1
  outer loop
    vertex 2.164 1.2510000000000001 3
    vertex 2.349 -0.856 3
    vertex 2.349 0.856 3
  endloop
endfacet
facet normal 1 0 0
  outer loop
    vertex 2.24 -0.209 -3.5
    vertex 2.24 0.209 -3.5
    vertex 2.24 -0.209 -3
  endloop
endfacet
facet normal 1 0 0
  outer loop
    vertex 2.24 -0.209 -3
    vertex 2.24 0.209 -3.5
    vertex 2.24 0.209 -3
  endloop
endfacet
facet normal 1 0 0
  outer loop
    vertex 2.24 -0.209 3
    vertex 2.24 0.209 3
    vertex 2.24 -0.209 3.5
  endloop
endfacet
facet normal 1 0 0
  outer loop
    vertex 2.24 -0.209 3.5
    vertex 2.24 0.209 3
    vertex 2.24 0.209 3.5
  endloop
endfacet
facet normal 0 0 -1
  outer loop
    vertex 2.349 -0.856 -3
    vertex 2.349 0.856 -3
    vertex 2.462 -0.435 -3
  endloop
endfacet
facet normal 0.9658148237499072 -0.2592329574435618 0
  outer loop
    vertex 2.349 -0.856 -3
    vertex 2.462 -0.435 -3
    vertex 2.349 -0.856 3
  endloop
endfacet
facet normal 0.9658148237499072 -0.2592329574435618 0
  outer loop
    vertex 2.349 -0.856 3
    vertex 2.462 -0.435 -3
    vertex 2.462 -0.435 3
  endloop
endfacet
facet normal 0 0 1
  outer loop
    vertex 2.349 -0.856 3
    vertex 2.462 -0.435 3
    vertex 2.349 0.856 3
  endloop
endfacet
facet normal 0.9658148237499072 0.2592329574435618 0
  outer loop
    vertex 2.349 0.856 -3
    vertex 2.349 0.856 3
    vertex 2.462 0.435 3
  endloop
endfacet
facet normal 0 0 -1
  outer loop
    vertex 2.349 0.856 -3
    vertex 2.462 0.435 -3
    vertex 2.462 -0.435 -3
  endloop
endfacet
facet normal 0.9658148237499072 0.2592329574435618 0
  outer loop
    vertex 2.349 0.856 -3
    vertex 2.462 0.435 3
    vertex 2.462 0.435 -3
  endloop
endfacet
facet normal 0 0 1
  outer loop
    vertex 2.349 0.856 3
    vertex 2.462 -0.435 3
    vertex 2.462 0.435 3
  endloop
endfacet
facet normal 0 0 -1
  outer loop
    vertex 2.462 -0.435 -3
    vertex 2.462 0.435 -3
    vertex 2.5 0 -3
  endloop
endfacet
facet normal 0.9962061363529302 -0.08702490386531302 0
  outer loop
    vertex 2.462 -0.435 -3
    vertex 2.5 0 -3
    vertex 2.462 -0.435 3
  endloop
endfacet
facet normal 0.9962061363529302 -0.08702490386531302 0
  outer loop
    vertex 2.462 -0.435 3
    vertex 2.5 0 -3
    vertex 2.5 0 3
  endloop
endfacet
facet normal 0 0 1
  outer loop
    vertex 2.462 -0.435 3
    vertex 2.5 0 3
    vertex 2.462 0.435 3
  endloop
endfacet
facet normal 0.9962061363529302 0.08702490386531302 0
  outer loop
    vertex 2.462 0.435 -3
    vertex 2.462 0.435 3
    vertex 2.5 0 3
  endloop
endfacet
facet normal 0.9962061363529302 0.08702490386531302 0
  outer loop
    vertex 2.462 0.435 -3
    vertex 2.5 0 3
    vertex 2.5 0 -3
  endloop
endfacet
endsolid JSxCAD
