solid JSxCAD
facet normal -0.9990027599156245 -0.04343289051202419 0.010347449093177212
  outer loop
    vertex -5.316 0.28500000000000003 0.533
    vertex -5.299 -0.233 0
    vertex -5.269 -0.792 0.55
  endloop
endfacet
facet normal -0.999066493736968 0.010363760308474553 -0.04193725747339162
  outer loop
    vertex -5.316 0.28500000000000003 0.533
    vertex -5.2940000000000005 0.249 0
    vertex -5.299 -0.233 0
  endloop
endfacet
facet normal -0.9863299807443238 -0.04052203735198146 0.15972205099405246
  outer loop
    vertex -5.316 0.28500000000000003 0.533
    vertex -5.269 -0.792 0.55
    vertex -5.144 -0.228 1.465
  endloop
endfacet
facet normal -0.9957966904153355 0.07894794057204052 -0.04643462110643565
  outer loop
    vertex -5.316 0.28500000000000003 0.533
    vertex -5.219 1.195 0
    vertex -5.2940000000000005 0.249 0
  endloop
endfacet
facet normal -0.9542429499260839 0.22020991152141323 0.20230666668228345
  outer loop
    vertex -5.316 0.28500000000000003 0.533
    vertex -5.216 1.208 0
    vertex -5.219 1.195 0
  endloop
endfacet
facet normal -0.9749455071666175 0.06149558843587495 0.21377453229641818
  outer loop
    vertex -5.316 0.28500000000000003 0.533
    vertex -5.144 -0.228 1.465
    vertex -5.0840000000000005 0.904 1.413
  endloop
endfacet
facet normal -0.9749230615922533 0.1806638744810254 0.1299445590745993
  outer loop
    vertex -5.316 0.28500000000000003 0.533
    vertex -5.0840000000000005 0.904 1.413
    vertex -5.216 1.208 0
  endloop
endfacet
facet normal 0 0 -1
  outer loop
    vertex -5.299 -0.233 0
    vertex -5.2940000000000005 0.249 0
    vertex -2.443 -0.89 0
  endloop
endfacet
facet normal -0.9989685076354992 -0.044441539024404356 0.00932042711713306
  outer loop
    vertex -5.299 -0.233 0
    vertex -5.276 -0.75 0
    vertex -5.269 -0.792 0.55
  endloop
endfacet
facet normal 0 0 -1
  outer loop
    vertex -5.299 -0.233 0
    vertex -2.443 -0.89 0
    vertex -2.251 -1.301 0
  endloop
endfacet
facet normal 0 0 -1
  outer loop
    vertex -5.299 -0.233 0
    vertex -2.251 -1.301 0
    vertex -5.276 -0.75 0
  endloop
endfacet
facet normal 0 0 -1
  outer loop
    vertex -5.2940000000000005 0.249 0
    vertex -5.219 1.195 0
    vertex -2.56 -0.453 0
  endloop
endfacet
facet normal 0 0 -1
  outer loop
    vertex -5.2940000000000005 0.249 0
    vertex -2.56 -0.453 0
    vertex -2.443 -0.89 0
  endloop
endfacet
facet normal -0.9601505608769683 -0.27933473043240253 -0.009110917730949913
  outer loop
    vertex -5.276 -0.75 0
    vertex -4.997 -1.709 0
    vertex -5.269 -0.792 0.55
  endloop
endfacet
facet normal 0 0 -1
  outer loop
    vertex -5.276 -0.75 0
    vertex -2.251 -1.301 0
    vertex -1.993 -1.67 0
  endloop
endfacet
facet normal 0 0 -1
  outer loop
    vertex -5.276 -0.75 0
    vertex -1.993 -1.67 0
    vertex -1.67 -1.993 0
  endloop
endfacet
facet normal 0 0 -1
  outer loop
    vertex -5.276 -0.75 0
    vertex -1.67 -1.993 0
    vertex -4.997 -1.709 0
  endloop
endfacet
facet normal -0.9430724294917309 -0.32421380403850186 0.07416064996646403
  outer loop
    vertex -5.269 -0.792 0.55
    vertex -4.997 -1.709 0
    vertex -4.649 -2.56 0.705
  endloop
endfacet
facet normal -0.9516985131116608 -0.1857239207175768 0.24449246494390267
  outer loop
    vertex -5.269 -0.792 0.55
    vertex -4.832 -1.108 2.011
    vertex -5.144 -0.228 1.465
  endloop
endfacet
facet normal -0.9345866048492344 -0.31290311859263914 0.16923213764348033
  outer loop
    vertex -5.269 -0.792 0.55
    vertex -4.649 -2.56 0.705
    vertex -4.621 -2.099 1.712
  endloop
endfacet
facet normal -0.9376455108566716 -0.2668450723496267 0.2227433575509128
  outer loop
    vertex -5.269 -0.792 0.55
    vertex -4.621 -2.099 1.712
    vertex -4.832 -1.108 2.011
  endloop
endfacet
facet normal 0 0 -1
  outer loop
    vertex -5.219 1.195 0
    vertex -5.216 1.208 0
    vertex -2.56 -0.453 0
  endloop
endfacet
facet normal 0 0 -1
  outer loop
    vertex -5.216 1.208 0
    vertex -5.212 1.222 0
    vertex -2.56 -0.453 0
  endloop
endfacet
facet normal -0.9510349146963285 0.2717242613418383 0.14730416432260005
  outer loop
    vertex -5.216 1.208 0
    vertex -5.0840000000000005 0.904 1.413
    vertex -5.212 1.222 0
  endloop
endfacet
facet normal -0.948743907668147 0.2788754486997004 0.1487060246765936
  outer loop
    vertex -5.212 1.222 0
    vertex -5.0840000000000005 0.904 1.413
    vertex -4.7620000000000005 2.297 0.855
  endloop
endfacet
facet normal 0 0 -1
  outer loop
    vertex -5.212 1.222 0
    vertex -4.783 2.329 0
    vertex -2.56 0.453 0
  endloop
endfacet
facet normal -0.9318128395316314 0.3611090407941005 0.03640182331646249
  outer loop
    vertex -5.212 1.222 0
    vertex -4.7620000000000005 2.297 0.855
    vertex -4.783 2.329 0
  endloop
endfacet
facet normal 0 0 -1
  outer loop
    vertex -5.212 1.222 0
    vertex -2.6 0 0
    vertex -2.56 -0.453 0
  endloop
endfacet
facet normal 0 0 -1
  outer loop
    vertex -5.212 1.222 0
    vertex -2.56 0.453 0
    vertex -2.6 0 0
  endloop
endfacet
facet normal -0.9241479447332879 -0.0986574039478026 0.369076269748571
  outer loop
    vertex -5.144 -0.228 1.465
    vertex -4.832 -1.108 2.011
    vertex -4.75 -0.159 2.47
  endloop
endfacet
facet normal -0.9305167640252894 0.06587051046930617 0.36027715403341487
  outer loop
    vertex -5.144 -0.228 1.465
    vertex -4.75 -0.159 2.47
    vertex -5.0840000000000005 0.904 1.413
  endloop
endfacet
facet normal -0.8959696727821954 0.1381734123985157 0.4220739906233451
  outer loop
    vertex -5.0840000000000005 0.904 1.413
    vertex -4.75 -0.159 2.47
    vertex -4.4030000000000005 1.416 2.691
  endloop
endfacet
facet normal -0.8879249365366567 0.29023023617510313 0.35686932774633057
  outer loop
    vertex -5.0840000000000005 0.904 1.413
    vertex -4.4030000000000005 1.416 2.691
    vertex -4.394 2.335 1.966
  endloop
endfacet
facet normal -0.9014651109542663 0.32355535917395234 0.2875284043047347
  outer loop
    vertex -5.0840000000000005 0.904 1.413
    vertex -4.394 2.335 1.966
    vertex -4.7620000000000005 2.297 0.855
  endloop
endfacet
facet normal -0.9432219987805367 -0.3235871090706943 0.07499095851980968
  outer loop
    vertex -4.997 -1.709 0
    vertex -4.7620000000000005 -2.394 0
    vertex -4.649 -2.56 0.705
  endloop
endfacet
facet normal 0 0 -1
  outer loop
    vertex -4.997 -1.709 0
    vertex -1.67 -1.993 0
    vertex -1.301 -2.251 0
  endloop
endfacet
facet normal 0 0 -1
  outer loop
    vertex -4.997 -1.709 0
    vertex -1.301 -2.251 0
    vertex -0.89 -2.443 0
  endloop
endfacet
facet normal 0 0 -1
  outer loop
    vertex -4.997 -1.709 0
    vertex -0.89 -2.443 0
    vertex -0.453 -2.56 0
  endloop
endfacet
facet normal 0 0 -1
  outer loop
    vertex -4.997 -1.709 0
    vertex -0.453 -2.56 0
    vertex -4.7620000000000005 -2.394 0
  endloop
endfacet
facet normal -0.8507881015147771 -0.30932365274235535 0.42482759347176136
  outer loop
    vertex -4.832 -1.108 2.011
    vertex -4.621 -2.099 1.712
    vertex -4.2940000000000005 -1.408 2.87
  endloop
endfacet
facet normal -0.8607501869087597 -0.15943675718434075 0.48341393876788125
  outer loop
    vertex -4.832 -1.108 2.011
    vertex -4.2940000000000005 -1.408 2.87
    vertex -4.75 -0.159 2.47
  endloop
endfacet
facet normal -0.8594731524875328 0.509599117174301 0.04018258239978451
  outer loop
    vertex -4.783 2.329 0
    vertex -4.7620000000000005 2.297 0.855
    vertex -4.171 3.357 0.053
  endloop
endfacet
facet normal 0 0 -1
  outer loop
    vertex -4.783 2.329 0
    vertex -4.24 3.245 0
    vertex -2.251 1.301 0
  endloop
endfacet
facet normal -0.8594462371544043 0.5094752257367268 0.04227481285170699
  outer loop
    vertex -4.783 2.329 0
    vertex -4.171 3.357 0.053
    vertex -4.24 3.245 0
  endloop
endfacet
facet normal 0 0 -1
  outer loop
    vertex -4.783 2.329 0
    vertex -2.443 0.89 0
    vertex -2.56 0.453 0
  endloop
endfacet
facet normal 0 0 -1
  outer loop
    vertex -4.783 2.329 0
    vertex -2.251 1.301 0
    vertex -2.443 0.89 0
  endloop
endfacet
facet normal -0.8585889074246409 -0.5123837028179316 0.01697142109391232
  outer loop
    vertex -4.7620000000000005 -2.394 0
    vertex -4.244 -3.262 0
    vertex -4.649 -2.56 0.705
  endloop
endfacet
facet normal 0 0 -1
  outer loop
    vertex -4.7620000000000005 -2.394 0
    vertex -0.453 -2.56 0
    vertex 4.051 -3.403 0
  endloop
endfacet
facet normal 0 0 -1
  outer loop
    vertex -4.7620000000000005 -2.394 0
    vertex 4.051 -3.403 0
    vertex -4.244 -3.262 0
  endloop
endfacet
facet normal -0.8287525255775297 0.49684454425066055 0.2575165047083764
  outer loop
    vertex -4.7620000000000005 2.297 0.855
    vertex -4.394 2.335 1.966
    vertex -4.048 3.248 1.318
  endloop
endfacet
facet normal -0.8220090567069275 0.5549614644150147 0.12774538624204654
  outer loop
    vertex -4.7620000000000005 2.297 0.855
    vertex -4.048 3.248 1.318
    vertex -4.171 3.357 0.053
  endloop
endfacet
facet normal -0.8122464727033979 -0.11329197829973663 0.5722067766409451
  outer loop
    vertex -4.75 -0.159 2.47
    vertex -4.2940000000000005 -1.408 2.87
    vertex -4.117 0.111 3.422
  endloop
endfacet
facet normal -0.8418152598354063 0.11135737815487123 0.5281539573256271
  outer loop
    vertex -4.75 -0.159 2.47
    vertex -4.117 0.111 3.422
    vertex -4.4030000000000005 1.416 2.691
  endloop
endfacet
facet normal -0.7925031981904028 -0.5943773986427944 0.13658033841152814
  outer loop
    vertex -4.649 -2.56 0.705
    vertex -4.244 -3.262 0
    vertex -4.226 -3.286 0
  endloop
endfacet
facet normal -0.7856837808813709 -0.6008313749383323 0.14731821119490682
  outer loop
    vertex -4.649 -2.56 0.705
    vertex -4.226 -3.286 0
    vertex -3.838 -3.43 1.482
  endloop
endfacet
facet normal -0.8114074816729179 -0.5225728268538175 0.2617929321414609
  outer loop
    vertex -4.649 -2.56 0.705
    vertex -3.838 -3.43 1.482
    vertex -4.621 -2.099 1.712
  endloop
endfacet
facet normal -0.7672083875547389 -0.5169434523003624 0.37968507633226817
  outer loop
    vertex -4.621 -2.099 1.712
    vertex -3.838 -3.43 1.482
    vertex -3.706 -2.6630000000000003 2.793
  endloop
endfacet
facet normal -0.7919086012545213 -0.39937146647705646 0.46193419339021974
  outer loop
    vertex -4.621 -2.099 1.712
    vertex -3.706 -2.6630000000000003 2.793
    vertex -4.2940000000000005 -1.408 2.87
  endloop
endfacet
facet normal -0.7334696428269037 0.20268262017743233 0.6488004612586099
  outer loop
    vertex -4.4030000000000005 1.416 2.691
    vertex -4.117 0.111 3.422
    vertex -3.343 0.636 4.133
  endloop
endfacet
facet normal -0.7620584326942922 0.4056290901764277 0.504709804107432
  outer loop
    vertex -4.4030000000000005 1.416 2.691
    vertex -3.512 2.749 2.965
    vertex -4.394 2.335 1.966
  endloop
endfacet
facet normal -0.7284030778374115 0.2136239839905631 0.6509944313594284
  outer loop
    vertex -4.4030000000000005 1.416 2.691
    vertex -3.343 0.636 4.133
    vertex -3.289 1.841 3.798
  endloop
endfacet
facet normal -0.722892690142044 0.36224971813793494 0.5883887322580077
  outer loop
    vertex -4.4030000000000005 1.416 2.691
    vertex -3.289 1.841 3.798
    vertex -3.512 2.749 2.965
  endloop
endfacet
facet normal -0.723536675088169 0.5567507854997418 0.4080725948256977
  outer loop
    vertex -4.394 2.335 1.966
    vertex -3.512 2.749 2.965
    vertex -3.371 3.652 1.983
  endloop
endfacet
facet normal -0.7263589124656872 0.5590493575855062 0.3998331477815425
  outer loop
    vertex -4.394 2.335 1.966
    vertex -3.371 3.652 1.983
    vertex -4.048 3.248 1.318
  endloop
endfacet
facet normal -0.7325725442953429 -0.37796271115658797 0.5661109929331961
  outer loop
    vertex -4.2940000000000005 -1.408 2.87
    vertex -3.706 -2.6630000000000003 2.793
    vertex -3.499 -1.848 3.605
  endloop
endfacet
facet normal -0.7241892923080702 -0.21268933627121214 0.6559825570416089
  outer loop
    vertex -4.2940000000000005 -1.408 2.87
    vertex -3.499 -1.848 3.605
    vertex -3.461 -0.645 4.037
  endloop
endfacet
facet normal -0.7592910934057158 -0.14228354516706385 0.6350058489883733
  outer loop
    vertex -4.2940000000000005 -1.408 2.87
    vertex -3.461 -0.645 4.037
    vertex -4.117 0.111 3.422
  endloop
endfacet
facet normal 0 0 -1
  outer loop
    vertex -4.244 -3.262 0
    vertex 4.051 -3.403 0
    vertex -4.226 -3.286 0
  endloop
endfacet
facet normal -0.8187202332873196 0.5614081599684484 -0.12049090225738211
  outer loop
    vertex -4.24 3.245 0
    vertex -4.171 3.357 0.053
    vertex -4.168 3.35 0
  endloop
endfacet
facet normal 0 0 -1
  outer loop
    vertex -4.24 3.245 0
    vertex -4.168 3.35 0
    vertex -2.251 1.301 0
  endloop
endfacet
facet normal -0.702363042360095 -0.702363042360088 0.11563871952487452
  outer loop
    vertex -4.226 -3.286 0
    vertex -4.182 -3.33 0
    vertex -3.838 -3.43 1.482
  endloop
endfacet
facet normal 0 0 -1
  outer loop
    vertex -4.226 -3.286 0
    vertex 4.051 -3.403 0
    vertex -4.182 -3.33 0
  endloop
endfacet
facet normal -0.6941204282125298 -0.71728535311116 0.060815732752738286
  outer loop
    vertex -4.182 -3.33 0
    vertex -3.315 -4.1690000000000005 0
    vertex -3.081 -4.355 0.47700000000000004
  endloop
endfacet
facet normal -0.7032382083232153 -0.7014430115920078 0.11590394231038152
  outer loop
    vertex -4.182 -3.33 0
    vertex -3.081 -4.355 0.47700000000000004
    vertex -3.838 -3.43 1.482
  endloop
endfacet
facet normal 0 0 -1
  outer loop
    vertex -4.182 -3.33 0
    vertex 4.051 -3.403 0
    vertex -3.315 -4.1690000000000005 0
  endloop
endfacet
facet normal -0.7133161324498968 0.6884330115504845 -0.13130149958874043
  outer loop
    vertex -4.171 3.357 0.053
    vertex -4.085 3.436 0
    vertex -4.168 3.35 0
  endloop
endfacet
facet normal -0.7048817391743109 0.6975617887797215 0.12864402284223717
  outer loop
    vertex -4.171 3.357 0.053
    vertex -4.048 3.248 1.318
    vertex -3.182 4.162 1.107
  endloop
endfacet
facet normal -0.6639328270575481 0.7469244304397418 0.036015224109246576
  outer loop
    vertex -4.171 3.357 0.053
    vertex -3.194 4.228 0
    vertex -4.085 3.436 0
  endloop
endfacet
facet normal -0.6629989025936102 0.7468320851944684 0.05171355415895041
  outer loop
    vertex -4.171 3.357 0.053
    vertex -3.182 4.162 1.107
    vertex -3.194 4.228 0
  endloop
endfacet
facet normal 0 0 -1
  outer loop
    vertex -4.168 3.35 0
    vertex -4.085 3.436 0
    vertex -1.993 1.67 0
  endloop
endfacet
facet normal 0 0 -1
  outer loop
    vertex -4.168 3.35 0
    vertex -1.993 1.67 0
    vertex -2.251 1.301 0
  endloop
endfacet
facet normal -0.6792619117406129 0.00757427585974205 0.7338568563444021
  outer loop
    vertex -4.117 0.111 3.422
    vertex -3.461 -0.645 4.037
    vertex -3.343 0.636 4.133
  endloop
endfacet
facet normal 0 0 -1
  outer loop
    vertex -4.085 3.436 0
    vertex -3.194 4.228 0
    vertex 3.8120000000000003 3.718 0
  endloop
endfacet
facet normal 0 0 -1
  outer loop
    vertex -4.085 3.436 0
    vertex -1.67 1.993 0
    vertex -1.993 1.67 0
  endloop
endfacet
facet normal 0 0 -1
  outer loop
    vertex -4.085 3.436 0
    vertex -1.301 2.251 0
    vertex -1.67 1.993 0
  endloop
endfacet
facet normal 0 0 -1
  outer loop
    vertex -4.085 3.436 0
    vertex -0.89 2.443 0
    vertex -1.301 2.251 0
  endloop
endfacet
facet normal 0 0 -1
  outer loop
    vertex -4.085 3.436 0
    vertex -0.453 2.56 0
    vertex -0.89 2.443 0
  endloop
endfacet
facet normal 0 0 -1
  outer loop
    vertex -4.085 3.436 0
    vertex 0 2.6 0
    vertex -0.453 2.56 0
  endloop
endfacet
facet normal 0 0 -1
  outer loop
    vertex -4.085 3.436 0
    vertex 0.453 2.56 0
    vertex 0 2.6 0
  endloop
endfacet
facet normal 0 0 -1
  outer loop
    vertex -4.085 3.436 0
    vertex 3.8120000000000003 3.718 0
    vertex 0.453 2.56 0
  endloop
endfacet
facet normal -0.6702444720301797 0.6950822029647841 0.2600636053633969
  outer loop
    vertex -4.048 3.248 1.318
    vertex -3.371 3.652 1.983
    vertex -3.182 4.162 1.107
  endloop
endfacet
facet normal -0.683481331166842 -0.5979755892222234 0.41866270987602466
  outer loop
    vertex -3.838 -3.43 1.482
    vertex -3.096 -3.753 2.232
    vertex -3.706 -2.6630000000000003 2.793
  endloop
endfacet
facet normal -0.6135075138797734 -0.7546874317058382 0.2324981953441909
  outer loop
    vertex -3.838 -3.43 1.482
    vertex -3.081 -4.355 0.47700000000000004
    vertex -2.586 -4.433 1.53
  endloop
endfacet
facet normal -0.6067542311486164 -0.7439905535312875 0.27987025429555656
  outer loop
    vertex -3.838 -3.43 1.482
    vertex -2.586 -4.433 1.53
    vertex -3.096 -3.753 2.232
  endloop
endfacet
facet normal -0.6067786652724799 -0.6049485695017501 0.5156131104112208
  outer loop
    vertex -3.706 -2.6630000000000003 2.793
    vertex -3.096 -3.753 2.232
    vertex -2.644 -3.412 3.164
  endloop
endfacet
facet normal -0.5866739584450869 -0.5274690916633835 0.6144835423525822
  outer loop
    vertex -3.706 -2.6630000000000003 2.793
    vertex -2.644 -3.412 3.164
    vertex -2.637 -2.588 3.878
  endloop
endfacet
facet normal -0.6096244834984714 -0.4763959438783932 0.6335652245628992
  outer loop
    vertex -3.706 -2.6630000000000003 2.793
    vertex -2.637 -2.588 3.878
    vertex -3.499 -1.848 3.605
  endloop
endfacet
facet normal -0.5537982458902805 0.48494173708072746 0.6768596711918763
  outer loop
    vertex -3.512 2.749 2.965
    vertex -3.289 1.841 3.798
    vertex -2.299 3.093 3.7110000000000003
  endloop
endfacet
facet normal -0.5849015987317694 0.6371575777521832 0.5019166673004503
  outer loop
    vertex -3.512 2.749 2.965
    vertex -2.562 3.948 2.5500000000000003
    vertex -3.371 3.652 1.983
  endloop
endfacet
facet normal -0.5309323312294223 0.6204509619244692 0.5771927438059941
  outer loop
    vertex -3.512 2.749 2.965
    vertex -2.299 3.093 3.7110000000000003
    vertex -2.562 3.948 2.5500000000000003
  endloop
endfacet
facet normal -0.6101913046389177 -0.25061609760083287 0.7515704513659284
  outer loop
    vertex -3.499 -1.848 3.605
    vertex -2.689 -1.547 4.363
    vertex -3.461 -0.645 4.037
  endloop
endfacet
facet normal -0.5559489876960974 -0.37369065611885255 0.74247964053511
  outer loop
    vertex -3.499 -1.848 3.605
    vertex -2.637 -2.588 3.878
    vertex -2.689 -1.547 4.363
  endloop
endfacet
facet normal -0.509301186866835 -0.12834387062871885 0.8509642483254346
  outer loop
    vertex -3.461 -0.645 4.037
    vertex -2.689 -1.547 4.363
    vertex -1.928 -0.887 4.918
  endloop
endfacet
facet normal -0.5577705061412083 -0.010816436313383766 0.8299247358552816
  outer loop
    vertex -3.461 -0.645 4.037
    vertex -2.322 0.23800000000000002 4.814
    vertex -3.343 0.636 4.133
  endloop
endfacet
facet normal -0.5074966232480578 -0.09860478390284663 0.8559931506637725
  outer loop
    vertex -3.461 -0.645 4.037
    vertex -1.928 -0.887 4.918
    vertex -2.322 0.23800000000000002 4.814
  endloop
endfacet
facet normal -0.5244655362096905 0.780146142732763 0.3410394365868463
  outer loop
    vertex -3.371 3.652 1.983
    vertex -2.562 3.948 2.5500000000000003
    vertex -3.182 4.162 1.107
  endloop
endfacet
facet normal -0.5697193914784214 0.24373037550936413 0.78486643387746
  outer loop
    vertex -3.343 0.636 4.133
    vertex -2.407 1.407 4.573
    vertex -3.289 1.841 3.798
  endloop
endfacet
facet normal -0.5119339243725634 0.1375859299410162 0.8479350027913533
  outer loop
    vertex -3.343 0.636 4.133
    vertex -2.322 0.23800000000000002 4.814
    vertex -2.407 1.407 4.573
  endloop
endfacet
facet normal -0.577994248978953 -0.8153163909438216 -0.034377766151940846
  outer loop
    vertex -3.315 -4.1690000000000005 0
    vertex -2.8890000000000002 -4.471 0
    vertex -3.081 -4.355 0.47700000000000004
  endloop
endfacet
facet normal 0 0 -1
  outer loop
    vertex -3.315 -4.1690000000000005 0
    vertex 2.983 -4.428 0
    vertex -2.8890000000000002 -4.471 0
  endloop
endfacet
facet normal 0 0 -1
  outer loop
    vertex -3.315 -4.1690000000000005 0
    vertex 3.38 -4.111 0
    vertex 2.983 -4.428 0
  endloop
endfacet
facet normal 0 0 -1
  outer loop
    vertex -3.315 -4.1690000000000005 0
    vertex 3.757 -3.781 0
    vertex 3.38 -4.111 0
  endloop
endfacet
facet normal 0 0 -1
  outer loop
    vertex -3.315 -4.1690000000000005 0
    vertex 4.051 -3.403 0
    vertex 3.757 -3.781 0
  endloop
endfacet
facet normal -0.4701142378524178 0.4254702682770694 0.7732836828620392
  outer loop
    vertex -3.289 1.841 3.798
    vertex -2.407 1.407 4.573
    vertex -2.299 3.093 3.7110000000000003
  endloop
endfacet
facet normal -0.5414440277676497 0.8388774513966422 0.05588368575012652
  outer loop
    vertex -3.194 4.228 0
    vertex -3.182 4.162 1.107
    vertex -2.129 4.905 0.156
  endloop
endfacet
facet normal 0 0 -1
  outer loop
    vertex -3.194 4.228 0
    vertex -2.368 4.761 0
    vertex 3.044 4.372 0
  endloop
endfacet
facet normal -0.5413765111895671 0.838981234976702 0.05497236113885482
  outer loop
    vertex -3.194 4.228 0
    vertex -2.129 4.905 0.156
    vertex -2.368 4.761 0
  endloop
endfacet
facet normal 0 0 -1
  outer loop
    vertex -3.194 4.228 0
    vertex 3.044 4.372 0
    vertex 3.235 4.239 0
  endloop
endfacet
facet normal 0 0 -1
  outer loop
    vertex -3.194 4.228 0
    vertex 3.235 4.239 0
    vertex 3.8120000000000003 3.718 0
  endloop
endfacet
facet normal -0.47143426371971575 0.8201538728568908 0.3241872295894652
  outer loop
    vertex -3.182 4.162 1.107
    vertex -2.562 3.948 2.5500000000000003
    vertex -1.729 4.83 1.53
  endloop
endfacet
facet normal -0.4536171787490194 0.8728905042963617 0.17970426442637186
  outer loop
    vertex -3.182 4.162 1.107
    vertex -1.729 4.83 1.53
    vertex -2.129 4.905 0.156
  endloop
endfacet
facet normal -0.4895576370674571 -0.7765714589332259 0.3965729304418661
  outer loop
    vertex -3.096 -3.753 2.232
    vertex -2.586 -4.433 1.53
    vertex -2.14 -4.18 2.576
  endloop
endfacet
facet normal -0.49677725202512335 -0.7091099310911732 0.500375326628161
  outer loop
    vertex -3.096 -3.753 2.232
    vertex -2.14 -4.18 2.576
    vertex -2.644 -3.412 3.164
  endloop
endfacet
facet normal -0.4909886689734084 -0.8710502682898632 0.014197078991047274
  outer loop
    vertex -3.081 -4.355 0.47700000000000004
    vertex -2.8890000000000002 -4.471 0
    vertex -2.41 -4.741 0
  endloop
endfacet
facet normal -0.4912138850223153 -0.8709299346897046 0.013782888763630775
  outer loop
    vertex -3.081 -4.355 0.47700000000000004
    vertex -2.41 -4.741 0
    vertex -2.197 -4.853 0.514
  endloop
endfacet
facet normal -0.48924852858921575 -0.8560892345529074 0.16657460717619713
  outer loop
    vertex -3.081 -4.355 0.47700000000000004
    vertex -2.197 -4.853 0.514
    vertex -2.586 -4.433 1.53
  endloop
endfacet
facet normal 0 0 -1
  outer loop
    vertex -2.8890000000000002 -4.471 0
    vertex 2.38 -4.735 0
    vertex -2.41 -4.741 0
  endloop
endfacet
facet normal 0 0 -1
  outer loop
    vertex -2.8890000000000002 -4.471 0
    vertex 2.983 -4.428 0
    vertex 2.38 -4.735 0
  endloop
endfacet
facet normal -0.4179311765978286 -0.40073263735731374 0.8153201119708787
  outer loop
    vertex -2.689 -1.547 4.363
    vertex -2.637 -2.588 3.878
    vertex -1.566 -2.177 4.6290000000000004
  endloop
endfacet
facet normal -0.3768031223429918 -0.30192389559167226 0.8757062111594969
  outer loop
    vertex -2.689 -1.547 4.363
    vertex -1.566 -2.177 4.6290000000000004
    vertex -1.928 -0.887 4.918
  endloop
endfacet
facet normal -0.3658924545961463 -0.7051377894041013 0.6073741924249862
  outer loop
    vertex -2.644 -3.412 3.164
    vertex -2.14 -4.18 2.576
    vertex -1.731 -3.294 3.851
  endloop
endfacet
facet normal -0.43702249368188173 -0.5868915067662365 0.6815935000436303
  outer loop
    vertex -2.644 -3.412 3.164
    vertex -1.731 -3.294 3.851
    vertex -2.637 -2.588 3.878
  endloop
endfacet
facet normal -0.36290615866790255 -0.4958836875970032 0.7889223589023857
  outer loop
    vertex -2.637 -2.588 3.878
    vertex -1.731 -3.294 3.851
    vertex -1.566 -2.177 4.6290000000000004
  endloop
endfacet
facet normal 0.9961241854268891 0.08795798546815806 0
  outer loop
    vertex -2.6 0 0
    vertex -2.6 0 4
    vertex -2.56 -0.453 0
  endloop
endfacet
facet normal 0.9961241854268891 -0.08795798546815806 0
  outer loop
    vertex -2.6 0 0
    vertex -2.56 0.453 0
    vertex -2.56 0.453 4
  endloop
endfacet
facet normal 0.9961241854268891 -0.08795798546815806 0
  outer loop
    vertex -2.6 0 0
    vertex -2.56 0.453 4
    vertex -2.6 0 4
  endloop
endfacet
facet normal 0.9961241854268891 0.08795798546815806 0
  outer loop
    vertex -2.6 0 4
    vertex -2.56 -0.453 4
    vertex -2.56 -0.453 0
  endloop
endfacet
facet normal 0 0 -1
  outer loop
    vertex -2.6 0 4
    vertex -2.56 0.453 4
    vertex -2.56 -0.453 4
  endloop
endfacet
facet normal -0.3496689404200612 -0.9054946083352635 0.2404394859029596
  outer loop
    vertex -2.586 -4.433 1.53
    vertex -2.197 -4.853 0.514
    vertex -1.2570000000000001 -5.152 0.755
  endloop
endfacet
facet normal -0.31381927915619945 -0.9014516437346342 0.2981650449633721
  outer loop
    vertex -2.586 -4.433 1.53
    vertex -1.2570000000000001 -5.152 0.755
    vertex -0.869 -4.825 2.152
  endloop
endfacet
facet normal -0.327633249877295 -0.876869541778722 0.35179007984253363
  outer loop
    vertex -2.586 -4.433 1.53
    vertex -0.869 -4.825 2.152
    vertex -2.14 -4.18 2.576
  endloop
endfacet
facet normal -0.4545838871189148 0.6649224706906547 0.5926479541367651
  outer loop
    vertex -2.562 3.948 2.5500000000000003
    vertex -2.299 3.093 3.7110000000000003
    vertex -1.784 3.9050000000000002 3.1950000000000003
  endloop
endfacet
facet normal -0.3546199833711399 0.8016868758496282 0.48118896546400086
  outer loop
    vertex -2.562 3.948 2.5500000000000003
    vertex -1.784 3.9050000000000002 3.1950000000000003
    vertex -1.206 4.5040000000000004 2.623
  endloop
endfacet
facet normal -0.36334328109844044 0.8307789641479092 0.4216491110033873
  outer loop
    vertex -2.562 3.948 2.5500000000000003
    vertex -1.206 4.5040000000000004 2.623
    vertex -1.729 4.83 1.53
  endloop
endfacet
facet normal 0.9659776409535934 0.2586255926580559 0
  outer loop
    vertex -2.56 -0.453 0
    vertex -2.56 -0.453 4
    vertex -2.443 -0.89 0
  endloop
endfacet
facet normal 0 0 -1
  outer loop
    vertex -2.56 -0.453 4
    vertex -2.56 0.453 4
    vertex -2.443 -0.89 4
  endloop
endfacet
facet normal 0.9659776409535934 0.2586255926580559 0
  outer loop
    vertex -2.56 -0.453 4
    vertex -2.443 -0.89 4
    vertex -2.443 -0.89 0
  endloop
endfacet
facet normal 0.9659776409535934 -0.2586255926580559 0
  outer loop
    vertex -2.56 0.453 0
    vertex -2.443 0.89 0
    vertex -2.443 0.89 4
  endloop
endfacet
facet normal 0.9659776409535934 -0.2586255926580559 0
  outer loop
    vertex -2.56 0.453 0
    vertex -2.443 0.89 4
    vertex -2.56 0.453 4
  endloop
endfacet
facet normal 0 0 -1
  outer loop
    vertex -2.56 0.453 4
    vertex -2.443 0.89 4
    vertex -2.443 -0.89 4
  endloop
endfacet
facet normal 0.9060141162433817 0.4232474703618722 0
  outer loop
    vertex -2.443 -0.89 0
    vertex -2.443 -0.89 4
    vertex -2.251 -1.301 0
  endloop
endfacet
facet normal 0 0 -1
  outer loop
    vertex -2.443 -0.89 4
    vertex -2.443 0.89 4
    vertex -2.251 -1.301 4
  endloop
endfacet
facet normal 0.9060141162433817 0.4232474703618722 0
  outer loop
    vertex -2.443 -0.89 4
    vertex -2.251 -1.301 4
    vertex -2.251 -1.301 0
  endloop
endfacet
facet normal 0.9060141162433817 -0.4232474703618722 0
  outer loop
    vertex -2.443 0.89 0
    vertex -2.251 1.301 0
    vertex -2.251 1.301 4
  endloop
endfacet
facet normal 0.9060141162433817 -0.4232474703618722 0
  outer loop
    vertex -2.443 0.89 0
    vertex -2.251 1.301 4
    vertex -2.443 0.89 4
  endloop
endfacet
facet normal 0 0 -1
  outer loop
    vertex -2.443 0.89 4
    vertex -2.251 1.301 4
    vertex -2.251 -1.301 4
  endloop
endfacet
facet normal -0.4206105453093571 -0.9069414883233006 -0.023321790936413716
  outer loop
    vertex -2.41 -4.741 0
    vertex -1.858 -4.997 0
    vertex -2.197 -4.853 0.514
  endloop
endfacet
facet normal 0 0 -1
  outer loop
    vertex -2.41 -4.741 0
    vertex 1.931 -4.941 0
    vertex -1.858 -4.997 0
  endloop
endfacet
facet normal 0 0 -1
  outer loop
    vertex -2.41 -4.741 0
    vertex 2.38 -4.735 0
    vertex 1.931 -4.941 0
  endloop
endfacet
facet normal -0.34275994477362104 0.165711035008893 0.92469209639483
  outer loop
    vertex -2.407 1.407 4.573
    vertex -2.322 0.23800000000000002 4.814
    vertex -1.1300000000000001 1.342 5.058
  endloop
endfacet
facet normal -0.4012682209335708 0.43721332151279224 0.804877833189956
  outer loop
    vertex -2.407 1.407 4.573
    vertex -1.215 2.42 4.617
    vertex -2.299 3.093 3.7110000000000003
  endloop
endfacet
facet normal -0.3192166355294961 0.33715333343150794 0.8856796087509587
  outer loop
    vertex -2.407 1.407 4.573
    vertex -1.1300000000000001 1.342 5.058
    vertex -1.215 2.42 4.617
  endloop
endfacet
facet normal -0.45415903196712826 0.8829105656423906 -0.11919944110487658
  outer loop
    vertex -2.368 4.761 0
    vertex -2.129 4.905 0.156
    vertex -2.09 4.904 0
  endloop
endfacet
facet normal 0 0 -1
  outer loop
    vertex -2.368 4.761 0
    vertex -2.09 4.904 0
    vertex 3.044 4.372 0
  endloop
endfacet
facet normal -0.3418504497549055 -0.03290181482469182 0.9391782262082157
  outer loop
    vertex -2.322 0.23800000000000002 4.814
    vertex -1.928 -0.887 4.918
    vertex -1.204 0.097 5.216
  endloop
endfacet
facet normal -0.3196720643317582 0.13796758906418147 0.937429845723769
  outer loop
    vertex -2.322 0.23800000000000002 4.814
    vertex -1.204 0.097 5.216
    vertex -1.1300000000000001 1.342 5.058
  endloop
endfacet
facet normal -0.2842168530916049 0.5750126446531925 0.7671904841091594
  outer loop
    vertex -2.299 3.093 3.7110000000000003
    vertex -1.215 2.42 4.617
    vertex -0.965 3.6990000000000003 3.751
  endloop
endfacet
facet normal -0.31297349273889097 0.6428044818767248 0.6991780824096354
  outer loop
    vertex -2.299 3.093 3.7110000000000003
    vertex -0.965 3.6990000000000003 3.751
    vertex -1.784 3.9050000000000002 3.1950000000000003
  endloop
endfacet
facet normal 0.8195448237229068 0.5730150800013816 0
  outer loop
    vertex -2.251 -1.301 0
    vertex -2.251 -1.301 4
    vertex -1.993 -1.67 0
  endloop
endfacet
facet normal 0 0 -1
  outer loop
    vertex -2.251 -1.301 4
    vertex -2.251 1.301 4
    vertex -1.993 -1.67 4
  endloop
endfacet
facet normal 0.8195448237229068 0.5730150800013816 0
  outer loop
    vertex -2.251 -1.301 4
    vertex -1.993 -1.67 4
    vertex -1.993 -1.67 0
  endloop
endfacet
facet normal 0.8195448237229068 -0.5730150800013816 0
  outer loop
    vertex -2.251 1.301 0
    vertex -1.993 1.67 0
    vertex -1.993 1.67 4
  endloop
endfacet
facet normal 0.8195448237229068 -0.5730150800013816 0
  outer loop
    vertex -2.251 1.301 0
    vertex -1.993 1.67 4
    vertex -2.251 1.301 4
  endloop
endfacet
facet normal 0 0 -1
  outer loop
    vertex -2.251 1.301 4
    vertex -1.993 1.67 4
    vertex -1.993 -1.67 4
  endloop
endfacet
facet normal -0.3166109543336588 -0.9468738821193518 0.05645666440870904
  outer loop
    vertex -2.197 -4.853 0.514
    vertex -1.858 -4.997 0
    vertex -1.538 -5.104 0
  endloop
endfacet
facet normal -0.31595097336589734 -0.947038617267331 0.057383271373490335
  outer loop
    vertex -2.197 -4.853 0.514
    vertex -1.538 -5.104 0
    vertex -1.2570000000000001 -5.152 0.755
  endloop
endfacet
facet normal -0.23143914620158273 -0.8101343786068052 0.5386262249508915
  outer loop
    vertex -2.14 -4.18 2.576
    vertex -0.869 -4.825 2.152
    vertex -0.794 -3.899 3.577
  endloop
endfacet
facet normal -0.2979198303036947 -0.7364660534322598 0.6073397128903475
  outer loop
    vertex -2.14 -4.18 2.576
    vertex -0.794 -3.899 3.577
    vertex -1.731 -3.294 3.851
  endloop
endfacet
facet normal -0.3505539645999728 0.9318523109619445 -0.09361190339975156
  outer loop
    vertex -2.129 4.905 0.156
    vertex -1.8800000000000001 4.9830000000000005 0
    vertex -2.09 4.904 0
  endloop
endfacet
facet normal -0.3203229250457863 0.9362446633980629 0.14435772909255412
  outer loop
    vertex -2.129 4.905 0.156
    vertex -1.729 4.83 1.53
    vertex -1.008 5.221 0.594
  endloop
endfacet
facet normal -0.2818838768021097 0.958992861387938 0.0295663965675267
  outer loop
    vertex -2.129 4.905 0.156
    vertex -1.008 5.221 0.594
    vertex -1.8800000000000001 4.9830000000000005 0
  endloop
endfacet
facet normal 0 0 -1
  outer loop
    vertex -2.09 4.904 0
    vertex -1.8800000000000001 4.9830000000000005 0
    vertex 2.053 4.936 0
  endloop
endfacet
facet normal 0 0 -1
  outer loop
    vertex -2.09 4.904 0
    vertex 2.053 4.936 0
    vertex 2.101 4.916 0
  endloop
endfacet
facet normal 0 0 -1
  outer loop
    vertex -2.09 4.904 0
    vertex 2.101 4.916 0
    vertex 3.044 4.372 0
  endloop
endfacet
facet normal 0.7071067811865475 0.7071067811865475 0
  outer loop
    vertex -1.993 -1.67 0
    vertex -1.993 -1.67 4
    vertex -1.67 -1.993 0
  endloop
endfacet
facet normal 0 0 -1
  outer loop
    vertex -1.993 -1.67 4
    vertex -1.993 1.67 4
    vertex -1.67 -1.993 4
  endloop
endfacet
facet normal 0.7071067811865475 0.7071067811865475 0
  outer loop
    vertex -1.993 -1.67 4
    vertex -1.67 -1.993 4
    vertex -1.67 -1.993 0
  endloop
endfacet
facet normal 0.7071067811865475 -0.7071067811865475 0
  outer loop
    vertex -1.993 1.67 0
    vertex -1.67 1.993 0
    vertex -1.67 1.993 4
  endloop
endfacet
facet normal 0.7071067811865475 -0.7071067811865475 0
  outer loop
    vertex -1.993 1.67 0
    vertex -1.67 1.993 4
    vertex -1.993 1.67 4
  endloop
endfacet
facet normal 0 0 -1
  outer loop
    vertex -1.993 1.67 4
    vertex -1.67 1.993 4
    vertex -1.67 -1.993 4
  endloop
endfacet
facet normal -0.22197468669123097 -0.27205730803284617 0.9363290338413367
  outer loop
    vertex -1.928 -0.887 4.918
    vertex -1.566 -2.177 4.6290000000000004
    vertex -0.582 -2.116 4.88
  endloop
endfacet
facet normal -0.2132676367422714 -0.26266647024853756 0.9410224442198712
  outer loop
    vertex -1.928 -0.887 4.918
    vertex -0.582 -2.116 4.88
    vertex -0.255 -1.21 5.207
  endloop
endfacet
facet normal -0.19620885240462843 -0.14913893481859652 0.9691540973236574
  outer loop
    vertex -1.928 -0.887 4.918
    vertex -0.255 -1.21 5.207
    vertex -1.204 0.097 5.216
  endloop
endfacet
facet normal 0 0 -1
  outer loop
    vertex -1.8800000000000001 4.9830000000000005 0
    vertex -1.091 5.214 0
    vertex 2.053 4.936 0
  endloop
endfacet
facet normal -0.2808710302548371 0.9593387137275613 0.02794095036205196
  outer loop
    vertex -1.8800000000000001 4.9830000000000005 0
    vertex -1.008 5.221 0.594
    vertex -1.091 5.214 0
  endloop
endfacet
facet normal 0 0 -1
  outer loop
    vertex -1.858 -4.997 0
    vertex 0.636 -5.299 0
    vertex -1.538 -5.104 0
  endloop
endfacet
facet normal 0 0 -1
  outer loop
    vertex -1.858 -4.997 0
    vertex 1.931 -4.941 0
    vertex 0.636 -5.299 0
  endloop
endfacet
facet normal -0.21084740449768347 0.7738177730741427 0.5972850459296337
  outer loop
    vertex -1.784 3.9050000000000002 3.1950000000000003
    vertex -0.965 3.6990000000000003 3.751
    vertex -1.206 4.5040000000000004 2.623
  endloop
endfacet
facet normal -0.27042922252858903 -0.5230252007960109 0.8082775976945515
  outer loop
    vertex -1.731 -3.294 3.851
    vertex -0.8180000000000001 -3.1510000000000002 4.249
    vertex -1.566 -2.177 4.6290000000000004
  endloop
endfacet
facet normal -0.21251715153586764 -0.6568037325710325 0.7234952088188564
  outer loop
    vertex -1.731 -3.294 3.851
    vertex -0.794 -3.899 3.577
    vertex -0.8180000000000001 -3.1510000000000002 4.249
  endloop
endfacet
facet normal -0.21263284018120757 0.903829095499545 0.37132228778373544
  outer loop
    vertex -1.729 4.83 1.53
    vertex -1.206 4.5040000000000004 2.623
    vertex -0.453 5.032 1.7690000000000001
  endloop
endfacet
facet normal -0.19625351806142743 0.9493483731341745 0.24540216599697975
  outer loop
    vertex -1.729 4.83 1.53
    vertex -0.453 5.032 1.7690000000000001
    vertex -1.008 5.221 0.594
  endloop
endfacet
facet normal 0.5730150800013816 0.8195448237229068 0
  outer loop
    vertex -1.67 -1.993 0
    vertex -1.67 -1.993 4
    vertex -1.301 -2.251 0
  endloop
endfacet
facet normal 0 0 -1
  outer loop
    vertex -1.67 -1.993 4
    vertex -1.67 1.993 4
    vertex -1.301 -2.251 4
  endloop
endfacet
facet normal 0.5730150800013816 0.8195448237229068 0
  outer loop
    vertex -1.67 -1.993 4
    vertex -1.301 -2.251 4
    vertex -1.301 -2.251 0
  endloop
endfacet
facet normal 0.5730150800013816 -0.8195448237229068 0
  outer loop
    vertex -1.67 1.993 0
    vertex -1.301 2.251 0
    vertex -1.301 2.251 4
  endloop
endfacet
facet normal 0.5730150800013816 -0.8195448237229068 0
  outer loop
    vertex -1.67 1.993 0
    vertex -1.301 2.251 4
    vertex -1.67 1.993 4
  endloop
endfacet
facet normal 0 0 -1
  outer loop
    vertex -1.67 1.993 4
    vertex -1.301 2.251 4
    vertex -1.301 -2.251 4
  endloop
endfacet
facet normal -0.18888876731464824 -0.47942003018646767 0.8570166090796368
  outer loop
    vertex -1.566 -2.177 4.6290000000000004
    vertex -0.8180000000000001 -3.1510000000000002 4.249
    vertex -0.582 -2.116 4.88
  endloop
endfacet
facet normal -0.2233493547776588 -0.9745085005825199 0.02117186842988227
  outer loop
    vertex -1.538 -5.104 0
    vertex -0.709 -5.2940000000000005 0
    vertex -1.2570000000000001 -5.152 0.755
  endloop
endfacet
facet normal 0 0 -1
  outer loop
    vertex -1.538 -5.104 0
    vertex 0.636 -5.299 0
    vertex -0.709 -5.2940000000000005 0
  endloop
endfacet
facet normal 0.4232474703618722 0.9060141162433817 0
  outer loop
    vertex -1.301 -2.251 0
    vertex -1.301 -2.251 4
    vertex -0.89 -2.443 0
  endloop
endfacet
facet normal 0 0 -1
  outer loop
    vertex -1.301 -2.251 4
    vertex -1.301 2.251 4
    vertex -0.89 -2.443 4
  endloop
endfacet
facet normal 0.4232474703618722 0.9060141162433817 0
  outer loop
    vertex -1.301 -2.251 4
    vertex -0.89 -2.443 4
    vertex -0.89 -2.443 0
  endloop
endfacet
facet normal 0.4232474703618722 -0.9060141162433817 0
  outer loop
    vertex -1.301 2.251 0
    vertex -0.89 2.443 0
    vertex -0.89 2.443 4
  endloop
endfacet
facet normal 0.4232474703618722 -0.9060141162433817 0
  outer loop
    vertex -1.301 2.251 0
    vertex -0.89 2.443 4
    vertex -1.301 2.251 4
  endloop
endfacet
facet normal 0 0 -1
  outer loop
    vertex -1.301 2.251 4
    vertex -0.89 2.443 4
    vertex -0.89 -2.443 4
  endloop
endfacet
facet normal -0.10888002551570268 -0.9882956162194632 0.10684996492789275
  outer loop
    vertex -1.2570000000000001 -5.152 0.755
    vertex -0.709 -5.2940000000000005 0
    vertex -0.591 -5.307 0
  endloop
endfacet
facet normal -0.10741380997511574 -0.9883149461188919 0.10814731020529984
  outer loop
    vertex -1.2570000000000001 -5.152 0.755
    vertex -0.591 -5.307 0
    vertex -0.032 -5.258 1.0030000000000001
  endloop
endfacet
facet normal -0.1356064955715257 -0.9556684612138464 0.26135927494536837
  outer loop
    vertex -1.2570000000000001 -5.152 0.755
    vertex -0.032 -5.258 1.0030000000000001
    vertex -0.869 -4.825 2.152
  endloop
endfacet
facet normal -0.1506460689833556 0.36411317061409 0.9190905074502819
  outer loop
    vertex -1.215 2.42 4.617
    vertex -1.1300000000000001 1.342 5.058
    vertex -0.13 1.94 4.985
  endloop
endfacet
facet normal -0.08613400195219505 0.47621242657490626 0.8751015132447998
  outer loop
    vertex -1.215 2.42 4.617
    vertex -0.13 1.94 4.985
    vertex 0.139 2.992 4.439
  endloop
endfacet
facet normal -0.13610325022835354 0.5735484211797128 0.8077859331775572
  outer loop
    vertex -1.215 2.42 4.617
    vertex 0.139 2.992 4.439
    vertex -0.965 3.6990000000000003 3.751
  endloop
endfacet
facet normal -0.13737459987118777 0.7921474948281824 0.5946684502709605
  outer loop
    vertex -1.206 4.5040000000000004 2.623
    vertex -0.965 3.6990000000000003 3.751
    vertex -0.008 4.437 2.989
  endloop
endfacet
facet normal -0.09230953787128049 0.8812870229953221 0.46347829756962
  outer loop
    vertex -1.206 4.5040000000000004 2.623
    vertex -0.008 4.437 2.989
    vertex -0.453 5.032 1.7690000000000001
  endloop
endfacet
facet normal -0.1360415610170914 -0.10556159900993389 0.9850631667515027
  outer loop
    vertex -1.204 0.097 5.216
    vertex -0.255 -1.21 5.207
    vertex 0.027 -0.23900000000000002 5.3500000000000005
  endloop
endfacet
facet normal -0.16077614182958933 0.13365900738695077 0.9778989221605304
  outer loop
    vertex -1.204 0.097 5.216
    vertex -0.14300000000000002 0.766 5.299
    vertex -1.1300000000000001 1.342 5.058
  endloop
endfacet
facet normal -0.09905538420961309 0.03371206990120932 0.9945106973794006
  outer loop
    vertex -1.204 0.097 5.216
    vertex 0.027 -0.23900000000000002 5.3500000000000005
    vertex -0.14300000000000002 0.766 5.299
  endloop
endfacet
facet normal -0.08422883614434398 0.2583317466819132 0.9623773749512408
  outer loop
    vertex -1.1300000000000001 1.342 5.058
    vertex -0.14300000000000002 0.766 5.299
    vertex -0.13 1.94 4.985
  endloop
endfacet
facet normal -0.12889824739297995 0.9916376532391743 0.0063250689578172314
  outer loop
    vertex -1.091 5.214 0
    vertex -1.008 5.221 0.594
    vertex -0.41400000000000003 5.3020000000000005 0
  endloop
endfacet
facet normal 0 0 -1
  outer loop
    vertex -1.091 5.214 0
    vertex -0.41400000000000003 5.3020000000000005 0
    vertex 0.936 5.259 0
  endloop
endfacet
facet normal 0 0 -1
  outer loop
    vertex -1.091 5.214 0
    vertex 0.936 5.259 0
    vertex 1.034 5.249 0
  endloop
endfacet
facet normal 0 0 -1
  outer loop
    vertex -1.091 5.214 0
    vertex 1.034 5.249 0
    vertex 1.064 5.243 0
  endloop
endfacet
facet normal 0 0 -1
  outer loop
    vertex -1.091 5.214 0
    vertex 1.064 5.243 0
    vertex 2.053 4.936 0
  endloop
endfacet
facet normal -0.07368312532580873 0.978583775247463 0.1922097600660377
  outer loop
    vertex -1.008 5.221 0.594
    vertex -0.453 5.032 1.7690000000000001
    vertex 0.358 5.272 0.858
  endloop
endfacet
facet normal -0.05311628803656208 0.9951672356275387 0.08258833500355751
  outer loop
    vertex -1.008 5.221 0.594
    vertex 0.358 5.272 0.858
    vertex -0.41400000000000003 5.3020000000000005 0
  endloop
endfacet
facet normal -0.08806695476918804 0.7685314853803599 0.6337219954023525
  outer loop
    vertex -0.965 3.6990000000000003 3.751
    vertex 0.062 3.787 3.787
    vertex -0.008 4.437 2.989
  endloop
endfacet
facet normal -0.08090589415183401 0.6273621936957058 0.7745133402419895
  outer loop
    vertex -0.965 3.6990000000000003 3.751
    vertex 0.139 2.992 4.439
    vertex 0.062 3.787 3.787
  endloop
endfacet
facet normal 0.2586255926580559 0.9659776409535934 0
  outer loop
    vertex -0.89 -2.443 0
    vertex -0.89 -2.443 4
    vertex -0.453 -2.56 0
  endloop
endfacet
facet normal 0 0 -1
  outer loop
    vertex -0.89 -2.443 4
    vertex -0.89 2.443 4
    vertex -0.453 -2.56 4
  endloop
endfacet
facet normal 0.2586255926580559 0.9659776409535934 0
  outer loop
    vertex -0.89 -2.443 4
    vertex -0.453 -2.56 4
    vertex -0.453 -2.56 0
  endloop
endfacet
facet normal 0.2586255926580559 -0.9659776409535934 0
  outer loop
    vertex -0.89 2.443 0
    vertex -0.453 2.56 0
    vertex -0.453 2.56 4
  endloop
endfacet
facet normal 0.2586255926580559 -0.9659776409535934 0
  outer loop
    vertex -0.89 2.443 0
    vertex -0.453 2.56 4
    vertex -0.89 2.443 4
  endloop
endfacet
facet normal 0 0 -1
  outer loop
    vertex -0.89 2.443 4
    vertex -0.453 2.56 4
    vertex -0.453 -2.56 4
  endloop
endfacet
facet normal -0.09171249676280943 -0.952023046899421 0.2919605043663861
  outer loop
    vertex -0.869 -4.825 2.152
    vertex -0.032 -5.258 1.0030000000000001
    vertex 0.108 -4.978 1.96
  endloop
endfacet
facet normal -0.1578938906716622 -0.8241751390659932 0.5438794530354278
  outer loop
    vertex -0.869 -4.825 2.152
    vertex -0.011 -4.375 3.083
    vertex -0.794 -3.899 3.577
  endloop
endfacet
facet normal -0.046016333242291985 -0.8821156108320269 0.468779848331148
  outer loop
    vertex -0.869 -4.825 2.152
    vertex 0.108 -4.978 1.96
    vertex -0.011 -4.375 3.083
  endloop
endfacet
facet normal -0.04407637167914116 -0.6684378592277354 0.7424608419375696
  outer loop
    vertex -0.8180000000000001 -3.1510000000000002 4.249
    vertex -0.794 -3.899 3.577
    vertex 0.494 -3.774 3.766
  endloop
endfacet
facet normal -0.10707487002443554 -0.4996429780967713 0.8595881959681855
  outer loop
    vertex -0.8180000000000001 -3.1510000000000002 4.249
    vertex 0.08 -2.817 4.555
    vertex -0.582 -2.116 4.88
  endloop
endfacet
facet normal -0.022525738538355676 -0.6417530352594434 0.7665804803401878
  outer loop
    vertex -0.8180000000000001 -3.1510000000000002 4.249
    vertex 0.494 -3.774 3.766
    vertex 0.08 -2.817 4.555
  endloop
endfacet
facet normal -0.02664394941484546 -0.7406166131756309 0.6713993835623004
  outer loop
    vertex -0.794 -3.899 3.577
    vertex -0.011 -4.375 3.083
    vertex 0.494 -3.774 3.766
  endloop
endfacet
facet normal 0 0 -1
  outer loop
    vertex -0.709 -5.2940000000000005 0
    vertex 0.636 -5.299 0
    vertex -0.591 -5.307 0
  endloop
endfacet
facet normal -0.01195127031882274 -0.9983907358647381 0.05543559936749196
  outer loop
    vertex -0.591 -5.307 0
    vertex 0.495 -5.32 0
    vertex -0.032 -5.258 1.0030000000000001
  endloop
endfacet
facet normal 0 0 -1
  outer loop
    vertex -0.591 -5.307 0
    vertex 0.636 -5.299 0
    vertex 0.495 -5.32 0
  endloop
endfacet
facet normal 0.017774134918911992 -0.40668604568722394 0.9133950625940418
  outer loop
    vertex -0.582 -2.116 4.88
    vertex 0.08 -2.817 4.555
    vertex 0.712 -1.891 4.955
  endloop
endfacet
facet normal 0.004812332807581356 -0.3410237186539523 0.940042373921718
  outer loop
    vertex -0.582 -2.116 4.88
    vertex 0.712 -1.891 4.955
    vertex -0.255 -1.21 5.207
  endloop
endfacet
facet normal 0.08795798546815806 0.9961241854268891 0
  outer loop
    vertex -0.453 -2.56 0
    vertex -0.453 -2.56 4
    vertex 0 -2.6 0
  endloop
endfacet
facet normal 0 0 -1
  outer loop
    vertex -0.453 -2.56 0
    vertex 0 -2.6 0
    vertex 4.051 -3.403 0
  endloop
endfacet
facet normal 0 0 -1
  outer loop
    vertex -0.453 -2.56 4
    vertex -0.453 2.56 4
    vertex 0 -2.6 4
  endloop
endfacet
facet normal 0.08795798546815806 0.9961241854268891 0
  outer loop
    vertex -0.453 -2.56 4
    vertex 0 -2.6 4
    vertex 0 -2.6 0
  endloop
endfacet
facet normal 0.08795798546815806 -0.9961241854268891 0
  outer loop
    vertex -0.453 2.56 0
    vertex 0 2.6 0
    vertex 0 2.6 4
  endloop
endfacet
facet normal 0.08795798546815806 -0.9961241854268891 0
  outer loop
    vertex -0.453 2.56 0
    vertex 0 2.6 4
    vertex -0.453 2.56 4
  endloop
endfacet
facet normal 0 0 -1
  outer loop
    vertex -0.453 2.56 4
    vertex 0 2.6 4
    vertex 0 -2.6 4
  endloop
endfacet
facet normal 0.019909104500865665 0.9014676858877069 0.43238829639368875
  outer loop
    vertex -0.453 5.032 1.7690000000000001
    vertex -0.008 4.437 2.989
    vertex 0.843 4.918 1.947
  endloop
endfacet
facet normal 0.04409433016127084 0.9556973988992415 0.29102950328936195
  outer loop
    vertex -0.453 5.032 1.7690000000000001
    vertex 0.843 4.918 1.947
    vertex 0.358 5.272 0.858
  endloop
endfacet
facet normal 0 0 -1
  outer loop
    vertex -0.41400000000000003 5.3020000000000005 0
    vertex -0.01 5.323 0
    vertex 0.936 5.259 0
  endloop
endfacet
facet normal -0.05173804684808388 0.9953414726964752 0.081354331407477
  outer loop
    vertex -0.41400000000000003 5.3020000000000005 0
    vertex 0.358 5.272 0.858
    vertex -0.01 5.323 0
  endloop
endfacet
facet normal -0.11266805655832045 -0.11266805655831771 0.9872242997732293
  outer loop
    vertex -0.255 -1.21 5.207
    vertex 0.029 -0.241 5.3500000000000005
    vertex 0.027 -0.23900000000000002 5.3500000000000005
  endloop
endfacet
facet normal 0.20021590978830567 -0.20021590978830567 0.959076211223739
  outer loop
    vertex -0.255 -1.21 5.207
    vertex 0.03 -0.24 5.3500000000000005
    vertex 0.029 -0.241 5.3500000000000005
  endloop
endfacet
facet normal 0.11007753931187839 -0.20368271723654216 0.9728290117169516
  outer loop
    vertex -0.255 -1.21 5.207
    vertex 0.712 -1.891 4.955
    vertex 1.45 -0.962 5.066
  endloop
endfacet
facet normal 0.1064726231941048 -0.17556478388196212 0.9786933059802986
  outer loop
    vertex -0.255 -1.21 5.207
    vertex 1.45 -0.962 5.066
    vertex 0.03 -0.24 5.3500000000000005
  endloop
endfacet
facet normal -0.13613509368161575 0.027227018736322967 0.9903160736446871
  outer loop
    vertex -0.14300000000000002 0.766 5.299
    vertex 0.027 -0.23900000000000002 5.3500000000000005
    vertex 0.028 -0.234 5.3500000000000005
  endloop
endfacet
facet normal 0.06692168223965521 0.06223020788429147 0.9958156906139269
  outer loop
    vertex -0.14300000000000002 0.766 5.299
    vertex 0.028 -0.234 5.3500000000000005
    vertex 0.9590000000000001 0.17300000000000001 5.2620000000000005
  endloop
endfacet
facet normal 0.11438010030664789 0.15129590394936296 0.9818486350257795
  outer loop
    vertex -0.14300000000000002 0.766 5.299
    vertex 0.9590000000000001 0.17300000000000001 5.2620000000000005
    vertex 0.961 1.411 5.071
  endloop
endfacet
facet normal 0.04881821465940016 0.25756700489267115 0.9650264348234652
  outer loop
    vertex -0.14300000000000002 0.766 5.299
    vertex 0.961 1.411 5.071
    vertex -0.13 1.94 4.985
  endloop
endfacet
facet normal 0.12952569381169352 0.4136372476726841 0.9011810705847999
  outer loop
    vertex -0.13 1.94 4.985
    vertex 0.961 1.411 5.071
    vertex 1.471 2.467 4.513
  endloop
endfacet
facet normal 0.12093250912235397 0.4327454253360702 0.893368191222452
  outer loop
    vertex -0.13 1.94 4.985
    vertex 1.471 2.467 4.513
    vertex 0.139 2.992 4.439
  endloop
endfacet
facet normal 0.14591761547541082 -0.9797325610491918 0.13723031120697074
  outer loop
    vertex -0.032 -5.258 1.0030000000000001
    vertex 0.495 -5.32 0
    vertex 0.636 -5.299 0
  endloop
endfacet
facet normal 0.14806538755966447 -0.979211798078956 0.13863944427825864
  outer loop
    vertex -0.032 -5.258 1.0030000000000001
    vertex 0.636 -5.299 0
    vertex 1.54 -5.006 1.104
  endloop
endfacet
facet normal 0.13656137878957514 -0.9559784042035459 0.25972346932753665
  outer loop
    vertex -0.032 -5.258 1.0030000000000001
    vertex 1.54 -5.006 1.104
    vertex 0.108 -4.978 1.96
  endloop
endfacet
facet normal 0.030880099173573258 -0.8792370508219445 0.47538261215252664
  outer loop
    vertex -0.011 -4.375 3.083
    vertex 0.108 -4.978 1.96
    vertex 0.846 -4.632 2.552
  endloop
endfacet
facet normal 0.13304965387091178 -0.7907800618639885 0.5974652151909907
  outer loop
    vertex -0.011 -4.375 3.083
    vertex 0.846 -4.632 2.552
    vertex 0.494 -3.774 3.766
  endloop
endfacet
facet normal 0.0674679081088102 0.99726001673335 0.030340408705546443
  outer loop
    vertex -0.01 5.323 0
    vertex 0.358 5.272 0.858
    vertex 0.936 5.259 0
  endloop
endfacet
facet normal 0.12180220810390659 0.7747727565960757 0.620396161930045
  outer loop
    vertex -0.008 4.437 2.989
    vertex 0.062 3.787 3.787
    vertex 1.284 4.358 2.834
  endloop
endfacet
facet normal 0.11166657777245703 0.8644146138416596 0.49022234831305106
  outer loop
    vertex -0.008 4.437 2.989
    vertex 1.284 4.358 2.834
    vertex 0.843 4.918 1.947
  endloop
endfacet
facet normal -0.08795798546815806 0.9961241854268891 0
  outer loop
    vertex 0 -2.6 0
    vertex 0 -2.6 4
    vertex 0.453 -2.56 0
  endloop
endfacet
facet normal 0 0 -1
  outer loop
    vertex 0 -2.6 0
    vertex 0.453 -2.56 0
    vertex 4.051 -3.403 0
  endloop
endfacet
facet normal 0 0 -1
  outer loop
    vertex 0 -2.6 4
    vertex 0 2.6 4
    vertex 0.453 -2.56 4
  endloop
endfacet
facet normal -0.08795798546815806 0.9961241854268891 0
  outer loop
    vertex 0 -2.6 4
    vertex 0.453 -2.56 4
    vertex 0.453 -2.56 0
  endloop
endfacet
facet normal -0.08795798546815806 -0.9961241854268891 0
  outer loop
    vertex 0 2.6 0
    vertex 0.453 2.56 0
    vertex 0.453 2.56 4
  endloop
endfacet
facet normal -0.08795798546815806 -0.9961241854268891 0
  outer loop
    vertex 0 2.6 0
    vertex 0.453 2.56 4
    vertex 0 2.6 4
  endloop
endfacet
facet normal 0 0 -1
  outer loop
    vertex 0 2.6 4
    vertex 0.453 2.56 4
    vertex 0.453 -2.56 4
  endloop
endfacet
facet normal 0 0 1
  outer loop
    vertex 0.027 -0.23900000000000002 5.3500000000000005
    vertex 0.029 -0.241 5.3500000000000005
    vertex 0.03 -0.24 5.3500000000000005
  endloop
endfacet
facet normal 0 0 1
  outer loop
    vertex 0.027 -0.23900000000000002 5.3500000000000005
    vertex 0.03 -0.24 5.3500000000000005
    vertex 0.032 -0.23800000000000002 5.3500000000000005
  endloop
endfacet
facet normal 0 0 1
  outer loop
    vertex 0.027 -0.23900000000000002 5.3500000000000005
    vertex 0.032 -0.23800000000000002 5.3500000000000005
    vertex 0.028 -0.234 5.3500000000000005
  endloop
endfacet
facet normal 0.06548714013885533 0.06548714013885526 0.9957021989294127
  outer loop
    vertex 0.028 -0.234 5.3500000000000005
    vertex 0.032 -0.23800000000000002 5.3500000000000005
    vertex 0.9590000000000001 0.17300000000000001 5.2620000000000005
  endloop
endfacet
facet normal 0.16578885573939034 -0.16578885573939264 0.9721255631991408
  outer loop
    vertex 0.03 -0.24 5.3500000000000005
    vertex 0.9590000000000001 0.17300000000000001 5.2620000000000005
    vertex 0.032 -0.23800000000000002 5.3500000000000005
  endloop
endfacet
facet normal 0.14152553703055823 -0.1086916875741359 0.9839495106053454
  outer loop
    vertex 0.03 -0.24 5.3500000000000005
    vertex 1.45 -0.962 5.066
    vertex 0.9590000000000001 0.17300000000000001 5.2620000000000005
  endloop
endfacet
facet normal 0.12110576168412852 0.6364568175083083 0.7617454390635384
  outer loop
    vertex 0.062 3.787 3.787
    vertex 0.139 2.992 4.439
    vertex 1.2570000000000001 3.641 3.719
  endloop
endfacet
facet normal 0.12954860867421739 0.768514876847879 0.6265796374396984
  outer loop
    vertex 0.062 3.787 3.787
    vertex 1.2570000000000001 3.641 3.719
    vertex 1.284 4.358 2.834
  endloop
endfacet
facet normal 0.07886981316791494 -0.6136158550121269 0.7856558629887482
  outer loop
    vertex 0.08 -2.817 4.555
    vertex 0.494 -3.774 3.766
    vertex 1.044 -3.0580000000000003 4.2700000000000005
  endloop
endfacet
facet normal 0.1395881014442225 -0.4714212927528261 0.8707910924409205
  outer loop
    vertex 0.08 -2.817 4.555
    vertex 1.044 -3.0580000000000003 4.2700000000000005
    vertex 0.712 -1.891 4.955
  endloop
endfacet
facet normal 0.17566467352564338 -0.9295098922400961 0.32427346900869675
  outer loop
    vertex 0.108 -4.978 1.96
    vertex 1.54 -5.006 1.104
    vertex 0.846 -4.632 2.552
  endloop
endfacet
facet normal 0.181623081684475 0.5734083323310286 0.7988841847306674
  outer loop
    vertex 0.139 2.992 4.439
    vertex 1.471 2.467 4.513
    vertex 1.2570000000000001 3.641 3.719
  endloop
endfacet
facet normal 0.15940202198310008 0.9575285088540878 0.24027099308773522
  outer loop
    vertex 0.358 5.272 0.858
    vertex 0.843 4.918 1.947
    vertex 1.47 5.051 1.0010000000000001
  endloop
endfacet
facet normal 0.07129087135675716 0.996912140436984 0.03292105573254654
  outer loop
    vertex 0.358 5.272 0.858
    vertex 1.048 5.25 0.03
    vertex 0.936 5.259 0
  endloop
endfacet
facet normal 0.17826563030592327 0.9763130493496078 0.12261400703550175
  outer loop
    vertex 0.358 5.272 0.858
    vertex 1.47 5.051 1.0010000000000001
    vertex 1.048 5.25 0.03
  endloop
endfacet
facet normal -0.2586255926580559 0.9659776409535934 0
  outer loop
    vertex 0.453 -2.56 0
    vertex 0.453 -2.56 4
    vertex 0.89 -2.443 0
  endloop
endfacet
facet normal 0 0 -1
  outer loop
    vertex 0.453 -2.56 0
    vertex 0.89 -2.443 0
    vertex 4.051 -3.403 0
  endloop
endfacet
facet normal 0 0 -1
  outer loop
    vertex 0.453 -2.56 4
    vertex 0.453 2.56 4
    vertex 0.89 -2.443 4
  endloop
endfacet
facet normal -0.2586255926580559 0.9659776409535934 0
  outer loop
    vertex 0.453 -2.56 4
    vertex 0.89 -2.443 4
    vertex 0.89 -2.443 0
  endloop
endfacet
facet normal -0.2586255926580559 -0.9659776409535934 0
  outer loop
    vertex 0.453 2.56 0
    vertex 0.89 2.443 0
    vertex 0.89 2.443 4
  endloop
endfacet
facet normal -0.2586255926580559 -0.9659776409535934 0
  outer loop
    vertex 0.453 2.56 0
    vertex 0.89 2.443 4
    vertex 0.453 2.56 4
  endloop
endfacet
facet normal 0 0 -1
  outer loop
    vertex 0.453 2.56 0
    vertex 3.8120000000000003 3.718 0
    vertex 0.89 2.443 0
  endloop
endfacet
facet normal 0 0 -1
  outer loop
    vertex 0.453 2.56 4
    vertex 0.89 2.443 4
    vertex 0.89 -2.443 4
  endloop
endfacet
facet normal 0.22184166988559442 -0.764810458398256 0.6048563765283629
  outer loop
    vertex 0.494 -3.774 3.766
    vertex 0.846 -4.632 2.552
    vertex 1.7650000000000001 -3.486 3.664
  endloop
endfacet
facet normal 0.20822634039478727 -0.6648881665548443 0.7173322222939187
  outer loop
    vertex 0.494 -3.774 3.766
    vertex 1.7650000000000001 -3.486 3.664
    vertex 1.044 -3.0580000000000003 4.2700000000000005
  endloop
endfacet
facet normal 0.2662652998499433 -0.9631663779488157 0.03759412832849133
  outer loop
    vertex 0.636 -5.299 0
    vertex 1.931 -4.941 0
    vertex 1.54 -5.006 1.104
  endloop
endfacet
facet normal 0.2110741229631563 -0.4494516470387538 0.8680097531649549
  outer loop
    vertex 0.712 -1.891 4.955
    vertex 1.044 -3.0580000000000003 4.2700000000000005
    vertex 1.824 -2.093 4.58
  endloop
endfacet
facet normal 0.25269890488908203 -0.31024581199228896 0.9164555633576044
  outer loop
    vertex 0.712 -1.891 4.955
    vertex 1.824 -2.093 4.58
    vertex 1.45 -0.962 5.066
  endloop
endfacet
facet normal 0.25333531732147835 0.8698798991396409 0.42323773233306367
  outer loop
    vertex 0.843 4.918 1.947
    vertex 1.284 4.358 2.834
    vertex 1.885 4.634 1.907
  endloop
endfacet
facet normal 0.2614487724828698 0.9167005598254425 0.3021665484181218
  outer loop
    vertex 0.843 4.918 1.947
    vertex 1.885 4.634 1.907
    vertex 1.47 5.051 1.0010000000000001
  endloop
endfacet
facet normal 0.2872706874366832 -0.8850502276793525 0.3662808302715031
  outer loop
    vertex 0.846 -4.632 2.552
    vertex 1.54 -5.006 1.104
    vertex 2.335 -4.325 2.126
  endloop
endfacet
facet normal 0.312802495543621 -0.7941594409538468 0.5210233978676547
  outer loop
    vertex 0.846 -4.632 2.552
    vertex 2.335 -4.325 2.126
    vertex 2.424 -3.75 2.949
  endloop
endfacet
facet normal 0.2937619068700299 -0.7764939809009633 0.5574594511681169
  outer loop
    vertex 0.846 -4.632 2.552
    vertex 2.424 -3.75 2.949
    vertex 1.7650000000000001 -3.486 3.664
  endloop
endfacet
facet normal -0.4232474703618722 0.9060141162433817 0
  outer loop
    vertex 0.89 -2.443 0
    vertex 0.89 -2.443 4
    vertex 1.301 -2.251 0
  endloop
endfacet
facet normal 0 0 -1
  outer loop
    vertex 0.89 -2.443 0
    vertex 1.301 -2.251 0
    vertex 4.051 -3.403 0
  endloop
endfacet
facet normal 0 0 -1
  outer loop
    vertex 0.89 -2.443 4
    vertex 0.89 2.443 4
    vertex 1.301 -2.251 4
  endloop
endfacet
facet normal -0.4232474703618722 0.9060141162433817 0
  outer loop
    vertex 0.89 -2.443 4
    vertex 1.301 -2.251 4
    vertex 1.301 -2.251 0
  endloop
endfacet
facet normal -0.4232474703618722 -0.9060141162433817 0
  outer loop
    vertex 0.89 2.443 0
    vertex 1.301 2.251 0
    vertex 1.301 2.251 4
  endloop
endfacet
facet normal -0.4232474703618722 -0.9060141162433817 0
  outer loop
    vertex 0.89 2.443 0
    vertex 1.301 2.251 4
    vertex 0.89 2.443 4
  endloop
endfacet
facet normal 0 0 -1
  outer loop
    vertex 0.89 2.443 0
    vertex 3.8120000000000003 3.718 0
    vertex 1.301 2.251 0
  endloop
endfacet
facet normal 0 0 -1
  outer loop
    vertex 0.89 2.443 4
    vertex 1.301 2.251 4
    vertex 1.301 -2.251 4
  endloop
endfacet
facet normal 0.10118608420999638 0.9916236252578972 -0.08027429347327264
  outer loop
    vertex 0.936 5.259 0
    vertex 1.048 5.25 0.03
    vertex 1.034 5.249 0
  endloop
endfacet
facet normal 0.28523172516399314 -0.04196384617310717 0.9575395023571258
  outer loop
    vertex 0.9590000000000001 0.17300000000000001 5.2620000000000005
    vertex 1.45 -0.962 5.066
    vertex 2.122 0.046 4.91
  endloop
endfacet
facet normal 0.300172622643377 0.12944189627814573 0.9450614753037575
  outer loop
    vertex 0.9590000000000001 0.17300000000000001 5.2620000000000005
    vertex 2.122 0.046 4.91
    vertex 2.201 1.25 4.72
  endloop
endfacet
facet normal 0.2869183719473786 0.14561343705720606 0.9468234126739012
  outer loop
    vertex 0.9590000000000001 0.17300000000000001 5.2620000000000005
    vertex 2.201 1.25 4.72
    vertex 0.961 1.411 5.071
  endloop
endfacet
facet normal 0.29653536110904927 0.33028867274371093 0.8960893773888425
  outer loop
    vertex 0.961 1.411 5.071
    vertex 2.201 1.25 4.72
    vertex 1.471 2.467 4.513
  endloop
endfacet
facet normal 0.19462064053125222 0.9731032026563691 -0.12325973900314093
  outer loop
    vertex 1.034 5.249 0
    vertex 1.048 5.25 0.03
    vertex 1.064 5.243 0
  endloop
endfacet
facet normal 0.3418440698344292 -0.5263949547190527 0.7784927639775211
  outer loop
    vertex 1.044 -3.0580000000000003 4.2700000000000005
    vertex 1.7650000000000001 -3.486 3.664
    vertex 1.824 -2.093 4.58
  endloop
endfacet
facet normal 0.29472077298709715 0.9532128240818073 0.06726795653112719
  outer loop
    vertex 1.048 5.25 0.03
    vertex 1.47 5.051 1.0010000000000001
    vertex 2.077 4.931 0.042
  endloop
endfacet
facet normal 0.2958407899861858 0.9530506231151054 -0.06459672406754832
  outer loop
    vertex 1.048 5.25 0.03
    vertex 2.053 4.936 0
    vertex 1.064 5.243 0
  endloop
endfacet
facet normal 0.29623968883291546 0.9534840187132297 -0.05576981996247408
  outer loop
    vertex 1.048 5.25 0.03
    vertex 2.077 4.931 0.042
    vertex 2.053 4.936 0
  endloop
endfacet
facet normal 0.2661717573420334 0.5728355765721568 0.7752496357991395
  outer loop
    vertex 1.2570000000000001 3.641 3.719
    vertex 1.471 2.467 4.513
    vertex 2.111 3.029 3.878
  endloop
endfacet
facet normal 0.3487009987255448 0.6595780679308964 0.6658561299502719
  outer loop
    vertex 1.2570000000000001 3.641 3.719
    vertex 2.111 3.029 3.878
    vertex 2.21 3.755 3.107
  endloop
endfacet
facet normal 0.30096351431153573 0.7364625664442347 0.6058414407083927
  outer loop
    vertex 1.2570000000000001 3.641 3.719
    vertex 2.21 3.755 3.107
    vertex 1.284 4.358 2.834
  endloop
endfacet
facet normal 0.37523029989373174 0.7932949176004195 0.4794636542544219
  outer loop
    vertex 1.284 4.358 2.834
    vertex 2.21 3.755 3.107
    vertex 1.885 4.634 1.907
  endloop
endfacet
facet normal -0.5730150800013816 0.8195448237229068 0
  outer loop
    vertex 1.301 -2.251 0
    vertex 1.301 -2.251 4
    vertex 1.67 -1.993 0
  endloop
endfacet
facet normal 0 0 -1
  outer loop
    vertex 1.301 -2.251 0
    vertex 1.67 -1.993 0
    vertex 4.051 -3.403 0
  endloop
endfacet
facet normal 0 0 -1
  outer loop
    vertex 1.301 -2.251 4
    vertex 1.301 2.251 4
    vertex 1.67 -1.993 4
  endloop
endfacet
facet normal -0.5730150800013816 0.8195448237229068 0
  outer loop
    vertex 1.301 -2.251 4
    vertex 1.67 -1.993 4
    vertex 1.67 -1.993 0
  endloop
endfacet
facet normal -0.5730150800013816 -0.8195448237229068 0
  outer loop
    vertex 1.301 2.251 0
    vertex 1.67 1.993 0
    vertex 1.67 1.993 4
  endloop
endfacet
facet normal -0.5730150800013816 -0.8195448237229068 0
  outer loop
    vertex 1.301 2.251 0
    vertex 1.67 1.993 4
    vertex 1.301 2.251 4
  endloop
endfacet
facet normal 0 0 -1
  outer loop
    vertex 1.301 2.251 0
    vertex 3.8120000000000003 3.718 0
    vertex 1.67 1.993 0
  endloop
endfacet
facet normal 0 0 -1
  outer loop
    vertex 1.301 2.251 4
    vertex 1.67 1.993 4
    vertex 1.67 -1.993 4
  endloop
endfacet
facet normal 0.3733311579251015 -0.259297796398286 0.8907235818733531
  outer loop
    vertex 1.45 -0.962 5.066
    vertex 1.824 -2.093 4.58
    vertex 2.628 -1.09 4.535
  endloop
endfacet
facet normal 0.39659647638314943 -0.1236213880521697 0.9096312370057027
  outer loop
    vertex 1.45 -0.962 5.066
    vertex 2.628 -1.09 4.535
    vertex 2.122 0.046 4.91
  endloop
endfacet
facet normal 0.3757748083118485 0.8951288683825784 0.2398699698301522
  outer loop
    vertex 1.47 5.051 1.0010000000000001
    vertex 1.885 4.634 1.907
    vertex 2.595 4.553 1.097
  endloop
endfacet
facet normal 0.391556265385373 0.9103561885131949 0.13392274292735967
  outer loop
    vertex 1.47 5.051 1.0010000000000001
    vertex 2.595 4.553 1.097
    vertex 2.077 4.931 0.042
  endloop
endfacet
facet normal 0.4327430904436473 0.3972265731693223 0.8092863938318983
  outer loop
    vertex 1.471 2.467 4.513
    vertex 2.201 1.25 4.72
    vertex 3.036 1.522 4.14
  endloop
endfacet
facet normal 0.43726378502028196 0.4077532412563265 0.8015844787386396
  outer loop
    vertex 1.471 2.467 4.513
    vertex 3.036 1.522 4.14
    vertex 2.111 3.029 3.878
  endloop
endfacet
facet normal 0.415166210200724 -0.9049011086413856 0.09376034069455856
  outer loop
    vertex 1.54 -5.006 1.104
    vertex 1.931 -4.941 0
    vertex 2.38 -4.735 0
  endloop
endfacet
facet normal 0.41454968754759125 -0.9052407687466666 0.09320787066089678
  outer loop
    vertex 1.54 -5.006 1.104
    vertex 2.38 -4.735 0
    vertex 2.977 -4.378 0.812
  endloop
endfacet
facet normal 0.42961452031546915 -0.8691524048549669 0.2449601213849653
  outer loop
    vertex 1.54 -5.006 1.104
    vertex 2.977 -4.378 0.812
    vertex 2.335 -4.325 2.126
  endloop
endfacet
facet normal -0.7071067811865475 0.7071067811865475 0
  outer loop
    vertex 1.67 -1.993 0
    vertex 1.67 -1.993 4
    vertex 1.993 -1.67 0
  endloop
endfacet
facet normal 0 0 -1
  outer loop
    vertex 1.67 -1.993 0
    vertex 1.993 -1.67 0
    vertex 4.051 -3.403 0
  endloop
endfacet
facet normal 0 0 -1
  outer loop
    vertex 1.67 -1.993 4
    vertex 1.67 1.993 4
    vertex 1.993 -1.67 4
  endloop
endfacet
facet normal -0.7071067811865475 0.7071067811865475 0
  outer loop
    vertex 1.67 -1.993 4
    vertex 1.993 -1.67 4
    vertex 1.993 -1.67 0
  endloop
endfacet
facet normal -0.7071067811865475 -0.7071067811865475 0
  outer loop
    vertex 1.67 1.993 0
    vertex 1.993 1.67 0
    vertex 1.993 1.67 4
  endloop
endfacet
facet normal -0.7071067811865475 -0.7071067811865475 0
  outer loop
    vertex 1.67 1.993 0
    vertex 1.993 1.67 4
    vertex 1.67 1.993 4
  endloop
endfacet
facet normal 0 0 -1
  outer loop
    vertex 1.67 1.993 0
    vertex 3.8120000000000003 3.718 0
    vertex 1.993 1.67 0
  endloop
endfacet
facet normal 0 0 -1
  outer loop
    vertex 1.67 1.993 4
    vertex 1.993 1.67 4
    vertex 1.993 -1.67 4
  endloop
endfacet
facet normal 0.49003264723471307 -0.567893117738488 0.6613360805743166
  outer loop
    vertex 1.7650000000000001 -3.486 3.664
    vertex 2.424 -3.75 2.949
    vertex 2.922 -2.193 3.9170000000000003
  endloop
endfacet
facet normal 0.4088146175441916 -0.5134438856393918 0.7544839194984341
  outer loop
    vertex 1.7650000000000001 -3.486 3.664
    vertex 2.922 -2.193 3.9170000000000003
    vertex 1.824 -2.093 4.58
  endloop
endfacet
facet normal 0.46437168880793933 -0.3354642904042478 0.8196478783582842
  outer loop
    vertex 1.824 -2.093 4.58
    vertex 2.922 -2.193 3.9170000000000003
    vertex 2.628 -1.09 4.535
  endloop
endfacet
facet normal 0.4049957917176334 0.7864308489267183 0.4663742365819624
  outer loop
    vertex 1.885 4.634 1.907
    vertex 2.21 3.755 3.107
    vertex 2.818 3.994 2.176
  endloop
endfacet
facet normal 0.46812303876631445 0.8204192296785849 0.32828814804952794
  outer loop
    vertex 1.885 4.634 1.907
    vertex 2.818 3.994 2.176
    vertex 2.595 4.553 1.097
  endloop
endfacet
facet normal -0.8195448237229068 0.5730150800013816 0
  outer loop
    vertex 1.993 -1.67 0
    vertex 1.993 -1.67 4
    vertex 2.251 -1.301 0
  endloop
endfacet
facet normal 0 0 -1
  outer loop
    vertex 1.993 -1.67 0
    vertex 2.251 -1.301 0
    vertex 4.051 -3.403 0
  endloop
endfacet
facet normal 0 0 -1
  outer loop
    vertex 1.993 -1.67 4
    vertex 1.993 1.67 4
    vertex 2.251 -1.301 4
  endloop
endfacet
facet normal -0.8195448237229068 0.5730150800013816 0
  outer loop
    vertex 1.993 -1.67 4
    vertex 2.251 -1.301 4
    vertex 2.251 -1.301 0
  endloop
endfacet
facet normal -0.8195448237229068 -0.5730150800013816 0
  outer loop
    vertex 1.993 1.67 0
    vertex 2.251 1.301 0
    vertex 2.251 1.301 4
  endloop
endfacet
facet normal -0.8195448237229068 -0.5730150800013816 0
  outer loop
    vertex 1.993 1.67 0
    vertex 2.251 1.301 4
    vertex 1.993 1.67 4
  endloop
endfacet
facet normal 0 0 -1
  outer loop
    vertex 1.993 1.67 0
    vertex 3.8120000000000003 3.718 0
    vertex 2.251 1.301 0
  endloop
endfacet
facet normal 0 0 -1
  outer loop
    vertex 1.993 1.67 4
    vertex 2.251 1.301 4
    vertex 2.251 -1.301 4
  endloop
endfacet
facet normal 0.38231393154098203 0.9175534356983771 -0.1092325518688521
  outer loop
    vertex 2.053 4.936 0
    vertex 2.077 4.931 0.042
    vertex 2.101 4.916 0
  endloop
endfacet
facet normal 0.4843096603728082 0.8717158024167903 0.07453665330846639
  outer loop
    vertex 2.077 4.931 0.042
    vertex 2.595 4.553 1.097
    vertex 3.144 4.324 0.20800000000000002
  endloop
endfacet
facet normal 0.4995542817029702 0.8659553081726112 -0.023810163374228463
  outer loop
    vertex 2.077 4.931 0.042
    vertex 3.044 4.372 0
    vertex 2.101 4.916 0
  endloop
endfacet
facet normal 0.4987687437689937 0.8658120753630976 -0.039989878651301096
  outer loop
    vertex 2.077 4.931 0.042
    vertex 3.144 4.324 0.20800000000000002
    vertex 3.044 4.372 0
  endloop
endfacet
facet normal 0.45216510496820234 0.4148167576205348 0.7896035558723637
  outer loop
    vertex 2.111 3.029 3.878
    vertex 3.036 1.522 4.14
    vertex 3.087 2.441 3.628
  endloop
endfacet
facet normal 0.5078766670598784 0.5674407680648037 0.6481298217133471
  outer loop
    vertex 2.111 3.029 3.878
    vertex 3.087 2.441 3.628
    vertex 3.142 3.237 2.888
  endloop
endfacet
facet normal 0.4846630140268414 0.6048965430003285 0.631824291318931
  outer loop
    vertex 2.111 3.029 3.878
    vertex 3.142 3.237 2.888
    vertex 2.21 3.755 3.107
  endloop
endfacet
facet normal 0.530132151974645 -0.043401802332899544 0.8468035102649184
  outer loop
    vertex 2.122 0.046 4.91
    vertex 2.628 -1.09 4.535
    vertex 3.211 0.49 4.251
  endloop
endfacet
facet normal 0.48300799735339744 0.10547995614317288 0.8692394683542015
  outer loop
    vertex 2.122 0.046 4.91
    vertex 3.211 0.49 4.251
    vertex 2.201 1.25 4.72
  endloop
endfacet
facet normal 0.5215454640517982 0.1781879098346471 0.8344096102728886
  outer loop
    vertex 2.201 1.25 4.72
    vertex 3.211 0.49 4.251
    vertex 3.036 1.522 4.14
  endloop
endfacet
facet normal 0.5064030702239294 0.6957987411167714 0.509332938585454
  outer loop
    vertex 2.21 3.755 3.107
    vertex 3.142 3.237 2.888
    vertex 2.818 3.994 2.176
  endloop
endfacet
facet normal -0.9060141162433817 0.4232474703618722 0
  outer loop
    vertex 2.251 -1.301 0
    vertex 2.251 -1.301 4
    vertex 2.443 -0.89 0
  endloop
endfacet
facet normal 0 0 -1
  outer loop
    vertex 2.251 -1.301 0
    vertex 2.443 -0.89 0
    vertex 4.051 -3.403 0
  endloop
endfacet
facet normal 0 0 -1
  outer loop
    vertex 2.251 -1.301 4
    vertex 2.251 1.301 4
    vertex 2.443 -0.89 4
  endloop
endfacet
facet normal -0.9060141162433817 0.4232474703618722 0
  outer loop
    vertex 2.251 -1.301 4
    vertex 2.443 -0.89 4
    vertex 2.443 -0.89 0
  endloop
endfacet
facet normal -0.9060141162433817 -0.4232474703618722 0
  outer loop
    vertex 2.251 1.301 0
    vertex 2.443 0.89 0
    vertex 2.443 0.89 4
  endloop
endfacet
facet normal -0.9060141162433817 -0.4232474703618722 0
  outer loop
    vertex 2.251 1.301 0
    vertex 2.443 0.89 4
    vertex 2.251 1.301 4
  endloop
endfacet
facet normal 0 0 -1
  outer loop
    vertex 2.251 1.301 0
    vertex 3.8120000000000003 3.718 0
    vertex 2.443 0.89 0
  endloop
endfacet
facet normal 0 0 -1
  outer loop
    vertex 2.251 1.301 4
    vertex 2.443 0.89 4
    vertex 2.443 -0.89 4
  endloop
endfacet
facet normal 0.5087326787351493 -0.8136448663344376 0.2813771367303584
  outer loop
    vertex 2.335 -4.325 2.126
    vertex 2.977 -4.378 0.812
    vertex 3.23 -3.902 1.731
  endloop
endfacet
facet normal 0.5348544119519067 -0.7223645943847157 0.4383151272714475
  outer loop
    vertex 2.335 -4.325 2.126
    vertex 3.23 -3.902 1.731
    vertex 3.278 -3.3240000000000003 2.625
  endloop
endfacet
facet normal 0.5292926141451959 -0.7213134735695215 0.4467171380845109
  outer loop
    vertex 2.335 -4.325 2.126
    vertex 3.278 -3.3240000000000003 2.625
    vertex 2.424 -3.75 2.949
  endloop
endfacet
facet normal 0.45293723010603876 -0.8896454389379189 0.058127949910753825
  outer loop
    vertex 2.38 -4.735 0
    vertex 2.983 -4.428 0
    vertex 2.977 -4.378 0.812
  endloop
endfacet
facet normal 0.5236368016760679 -0.564294734651776 0.6382600977460052
  outer loop
    vertex 2.424 -3.75 2.949
    vertex 3.278 -3.3240000000000003 2.625
    vertex 2.922 -2.193 3.9170000000000003
  endloop
endfacet
facet normal -0.9659776409535934 0.2586255926580559 0
  outer loop
    vertex 2.443 -0.89 0
    vertex 2.443 -0.89 4
    vertex 2.56 -0.453 0
  endloop
endfacet
facet normal 0 0 -1
  outer loop
    vertex 2.443 -0.89 0
    vertex 2.56 -0.453 0
    vertex 4.051 -3.403 0
  endloop
endfacet
facet normal 0 0 -1
  outer loop
    vertex 2.443 -0.89 4
    vertex 2.443 0.89 4
    vertex 2.56 -0.453 4
  endloop
endfacet
facet normal -0.9659776409535934 0.2586255926580559 0
  outer loop
    vertex 2.443 -0.89 4
    vertex 2.56 -0.453 4
    vertex 2.56 -0.453 0
  endloop
endfacet
facet normal -0.9659776409535934 -0.2586255926580559 0
  outer loop
    vertex 2.443 0.89 0
    vertex 2.56 0.453 0
    vertex 2.56 0.453 4
  endloop
endfacet
facet normal -0.9659776409535934 -0.2586255926580559 0
  outer loop
    vertex 2.443 0.89 0
    vertex 2.56 0.453 4
    vertex 2.443 0.89 4
  endloop
endfacet
facet normal 0 0 -1
  outer loop
    vertex 2.443 0.89 0
    vertex 3.8120000000000003 3.718 0
    vertex 4.051 -3.403 0
  endloop
endfacet
facet normal 0 0 -1
  outer loop
    vertex 2.443 0.89 0
    vertex 4.051 -3.403 0
    vertex 2.56 0.453 0
  endloop
endfacet
facet normal 0 0 -1
  outer loop
    vertex 2.443 0.89 4
    vertex 2.56 0.453 4
    vertex 2.56 -0.453 4
  endloop
endfacet
facet normal -0.9961241854268891 0.08795798546815806 0
  outer loop
    vertex 2.56 -0.453 0
    vertex 2.56 -0.453 4
    vertex 2.6 0 0
  endloop
endfacet
facet normal 0 0 -1
  outer loop
    vertex 2.56 -0.453 0
    vertex 2.6 0 0
    vertex 4.051 -3.403 0
  endloop
endfacet
facet normal 0 0 -1
  outer loop
    vertex 2.56 -0.453 4
    vertex 2.56 0.453 4
    vertex 2.6 0 4
  endloop
endfacet
facet normal -0.9961241854268891 0.08795798546815806 0
  outer loop
    vertex 2.56 -0.453 4
    vertex 2.6 0 4
    vertex 2.6 0 0
  endloop
endfacet
facet normal -0.9961241854268891 -0.08795798546815806 0
  outer loop
    vertex 2.56 0.453 0
    vertex 2.6 0 0
    vertex 2.6 0 4
  endloop
endfacet
facet normal -0.9961241854268891 -0.08795798546815806 0
  outer loop
    vertex 2.56 0.453 0
    vertex 2.6 0 4
    vertex 2.56 0.453 4
  endloop
endfacet
facet normal 0 0 -1
  outer loop
    vertex 2.56 0.453 0
    vertex 4.051 -3.403 0
    vertex 2.6 0 0
  endloop
endfacet
facet normal 0.5515937430059383 0.781711504025218 0.2909836200739318
  outer loop
    vertex 2.595 4.553 1.097
    vertex 2.818 3.994 2.176
    vertex 3.414 3.971 1.108
  endloop
endfacet
facet normal 0.5718292904959551 0.8074308726812077 0.14514354402506477
  outer loop
    vertex 2.595 4.553 1.097
    vertex 3.414 3.971 1.108
    vertex 3.144 4.324 0.20800000000000002
  endloop
endfacet
facet normal 0.6157406780109669 -0.2538236648436535 0.745947025336204
  outer loop
    vertex 2.628 -1.09 4.535
    vertex 2.922 -2.193 3.9170000000000003
    vertex 3.871 -0.749 3.625
  endloop
endfacet
facet normal 0.6029961046084801 -0.079825633725408 0.7937402383823916
  outer loop
    vertex 2.628 -1.09 4.535
    vertex 3.871 -0.749 3.625
    vertex 3.211 0.49 4.251
  endloop
endfacet
facet normal 0.6114539200638599 0.6650195020814662 0.42880434406598267
  outer loop
    vertex 2.818 3.994 2.176
    vertex 3.142 3.237 2.888
    vertex 3.736 3.335 1.889
  endloop
endfacet
facet normal 0.6164194647857143 0.7155834532911027 0.3285838778900658
  outer loop
    vertex 2.818 3.994 2.176
    vertex 3.736 3.335 1.889
    vertex 3.414 3.971 1.108
  endloop
endfacet
facet normal 0.5558507486385735 -0.543537037271916 0.6289653681655334
  outer loop
    vertex 2.922 -2.193 3.9170000000000003
    vertex 3.278 -3.3240000000000003 2.625
    vertex 3.628 -2.406 3.109
  endloop
endfacet
facet normal 0.6747839413770804 -0.3078330970013753 0.6707498914276132
  outer loop
    vertex 2.922 -2.193 3.9170000000000003
    vertex 3.628 -2.406 3.109
    vertex 3.871 -0.749 3.625
  endloop
endfacet
facet normal 0.6231090112490356 -0.7803604967377502 0.052656008502933165
  outer loop
    vertex 2.977 -4.378 0.812
    vertex 2.983 -4.428 0
    vertex 3.38 -4.111 0
  endloop
endfacet
facet normal 0.6239345153082133 -0.7796570716727166 0.05329700927659407
  outer loop
    vertex 2.977 -4.378 0.812
    vertex 3.38 -4.111 0
    vertex 3.81 -3.75 0.247
  endloop
endfacet
facet normal 0.6693757649648577 -0.7187439602647935 0.18799788525563937
  outer loop
    vertex 2.977 -4.378 0.812
    vertex 3.81 -3.75 0.247
    vertex 3.23 -3.902 1.731
  endloop
endfacet
facet normal 0.661568169299528 0.1902031338541838 0.725362202793693
  outer loop
    vertex 3.036 1.522 4.14
    vertex 3.211 0.49 4.251
    vertex 4.0680000000000005 0.991 3.338
  endloop
endfacet
facet normal 0.6462226148845611 0.3437376924483084 0.6813521342170085
  outer loop
    vertex 3.036 1.522 4.14
    vertex 3.872 1.99 3.111
    vertex 3.087 2.441 3.628
  endloop
endfacet
facet normal 0.675492720634547 0.28687820083724463 0.6792720237534616
  outer loop
    vertex 3.036 1.522 4.14
    vertex 4.0680000000000005 0.991 3.338
    vertex 3.872 1.99 3.111
  endloop
endfacet
facet normal 0.5693718868100883 0.8176694013588479 -0.08504354526819301
  outer loop
    vertex 3.044 4.372 0
    vertex 3.144 4.324 0.20800000000000002
    vertex 3.235 4.239 0
  endloop
endfacet
facet normal 0.6580367282024113 0.4877980939124846 0.5736206794668516
  outer loop
    vertex 3.087 2.441 3.628
    vertex 3.872 1.99 3.111
    vertex 3.142 3.237 2.888
  endloop
endfacet
facet normal 0.6970760764605846 0.4999750282040024 0.5139162527092563
  outer loop
    vertex 3.142 3.237 2.888
    vertex 3.872 1.99 3.111
    vertex 4.2700000000000005 2.353 2.218
  endloop
endfacet
facet normal 0.7003042682337615 0.5380049439292766 0.4691743942301538
  outer loop
    vertex 3.142 3.237 2.888
    vertex 4.2700000000000005 2.353 2.218
    vertex 3.736 3.335 1.889
  endloop
endfacet
facet normal 0.6589877390234175 0.7461358823060223 0.09495475213078104
  outer loop
    vertex 3.144 4.324 0.20800000000000002
    vertex 3.414 3.971 1.108
    vertex 3.934 3.611 0.328
  endloop
endfacet
facet normal 0.6701377789936894 0.7421679433385012 -0.010104506227629866
  outer loop
    vertex 3.144 4.324 0.20800000000000002
    vertex 3.8120000000000003 3.718 0
    vertex 3.235 4.239 0
  endloop
endfacet
facet normal 0.67060736810702 0.7417750531833843 -0.0074517323732757
  outer loop
    vertex 3.144 4.324 0.20800000000000002
    vertex 3.934 3.611 0.328
    vertex 3.8120000000000003 3.718 0
  endloop
endfacet
facet normal 0.7196404218766785 0.03292200040087985 0.6935660062969929
  outer loop
    vertex 3.211 0.49 4.251
    vertex 3.871 -0.749 3.625
    vertex 4.0680000000000005 0.991 3.338
  endloop
endfacet
facet normal 0.6989706107609472 -0.6857505562161244 0.20294398227526847
  outer loop
    vertex 3.23 -3.902 1.731
    vertex 3.81 -3.75 0.247
    vertex 4.28 -3.033 1.051
  endloop
endfacet
facet normal 0.6741692072744478 -0.6362143524189028 0.3751362122471501
  outer loop
    vertex 3.23 -3.902 1.731
    vertex 4.027 -2.867 2.054
    vertex 3.278 -3.3240000000000003 2.625
  endloop
endfacet
facet normal 0.7140473501475767 -0.6390681245039612 0.28588164332501936
  outer loop
    vertex 3.23 -3.902 1.731
    vertex 4.28 -3.033 1.051
    vertex 4.027 -2.867 2.054
  endloop
endfacet
facet normal 0.6949904456775853 -0.5243584990111178 0.4919719960848168
  outer loop
    vertex 3.278 -3.3240000000000003 2.625
    vertex 4.027 -2.867 2.054
    vertex 3.628 -2.406 3.109
  endloop
endfacet
facet normal 0.6579229726575562 -0.7516271536118154 -0.04683998295094751
  outer loop
    vertex 3.38 -4.111 0
    vertex 3.757 -3.781 0
    vertex 3.81 -3.75 0.247
  endloop
endfacet
facet normal 0.7400325173897788 0.637583530906576 0.21410071070047834
  outer loop
    vertex 3.414 3.971 1.108
    vertex 3.736 3.335 1.889
    vertex 4.406 2.783 1.217
  endloop
endfacet
facet normal 0.74287737238075 0.6387077950882819 0.20046336846949822
  outer loop
    vertex 3.414 3.971 1.108
    vertex 4.406 2.783 1.217
    vertex 3.934 3.611 0.328
  endloop
endfacet
facet normal 0.7427041970840107 -0.4633957429993093 0.4833785897243618
  outer loop
    vertex 3.628 -2.406 3.109
    vertex 4.027 -2.867 2.054
    vertex 4.355 -1.947 2.432
  endloop
endfacet
facet normal 0.744306147707277 -0.2956350997415771 0.5988390821296995
  outer loop
    vertex 3.628 -2.406 3.109
    vertex 4.355 -1.947 2.432
    vertex 3.871 -0.749 3.625
  endloop
endfacet
facet normal 0.7761231630596155 0.5342657902095846 0.33495208787835
  outer loop
    vertex 3.736 3.335 1.889
    vertex 4.2700000000000005 2.353 2.218
    vertex 4.406 2.783 1.217
  endloop
endfacet
facet normal 0.7860096141006766 -0.6113408109671927 -0.09193094901762246
  outer loop
    vertex 3.757 -3.781 0
    vertex 4.051 -3.403 0
    vertex 3.81 -3.75 0.247
  endloop
endfacet
facet normal 0.8270387538979803 -0.5618692618958772 0.017602047820016165
  outer loop
    vertex 3.81 -3.75 0.247
    vertex 4.051 -3.403 0
    vertex 4.28 -3.033 1.051
  endloop
endfacet
facet normal 0.729312748157416 0.6824492783962957 -0.04864049538658903
  outer loop
    vertex 3.8120000000000003 3.718 0
    vertex 3.934 3.611 0.328
    vertex 4.045 3.469 0
  endloop
endfacet
facet normal 0 0 -1
  outer loop
    vertex 3.8120000000000003 3.718 0
    vertex 4.045 3.469 0
    vertex 4.051 -3.403 0
  endloop
endfacet
facet normal 0.807592417032416 -0.21900890386548436 0.5475669712276109
  outer loop
    vertex 3.871 -0.749 3.625
    vertex 4.355 -1.947 2.432
    vertex 4.723 -0.53 2.456
  endloop
endfacet
facet normal 0.7737994229630881 0.016834431817714334 0.6332069605803197
  outer loop
    vertex 3.871 -0.749 3.625
    vertex 4.607 0.439 2.694
    vertex 4.0680000000000005 0.991 3.338
  endloop
endfacet
facet normal 0.8113644247037537 -0.04599692217391998 0.5827281128242169
  outer loop
    vertex 3.871 -0.749 3.625
    vertex 4.723 -0.53 2.456
    vertex 4.607 0.439 2.694
  endloop
endfacet
facet normal 0.7845251696855026 0.27967839777217335 0.5534439917006266
  outer loop
    vertex 3.872 1.99 3.111
    vertex 4.0680000000000005 0.991 3.338
    vertex 4.5440000000000005 1.413 2.45
  endloop
endfacet
facet normal 0.7924555978258038 0.3536419307472643 0.4969421599058536
  outer loop
    vertex 3.872 1.99 3.111
    vertex 4.5440000000000005 1.413 2.45
    vertex 4.2700000000000005 2.353 2.218
  endloop
endfacet
facet normal 0.831337011180709 0.5542246741204732 0.041397879621802185
  outer loop
    vertex 3.934 3.611 0.328
    vertex 4.341 3.025 0
    vertex 4.045 3.469 0
  endloop
endfacet
facet normal 0.8360212553367918 0.5449848276498344 0.06371811560753396
  outer loop
    vertex 3.934 3.611 0.328
    vertex 4.406 2.783 1.217
    vertex 4.341 3.025 0
  endloop
endfacet
facet normal 0.8443080846103195 -0.45202334692429336 0.2877824735751182
  outer loop
    vertex 4.027 -2.867 2.054
    vertex 4.28 -3.033 1.051
    vertex 4.8500000000000005 -1.643 1.562
  endloop
endfacet
facet normal 0.8399344892247987 -0.43356128634175123 0.32639648404411853
  outer loop
    vertex 4.027 -2.867 2.054
    vertex 4.8500000000000005 -1.643 1.562
    vertex 4.355 -1.947 2.432
  endloop
endfacet
facet normal 0 0 -1
  outer loop
    vertex 4.045 3.469 0
    vertex 4.341 3.025 0
    vertex 4.051 -3.403 0
  endloop
endfacet
facet normal 0 0 -1
  outer loop
    vertex 4.051 -3.403 0
    vertex 4.341 3.025 0
    vertex 4.689 2.492 0
  endloop
endfacet
facet normal 0.8275409145546266 -0.5611407571295073 0.017236166227315084
  outer loop
    vertex 4.051 -3.403 0
    vertex 4.546 -2.673 0
    vertex 4.28 -3.033 1.051
  endloop
endfacet
facet normal 0 0 -1
  outer loop
    vertex 4.051 -3.403 0
    vertex 4.689 2.492 0
    vertex 4.823 2.274 0
  endloop
endfacet
facet normal 0 0 -1
  outer loop
    vertex 4.051 -3.403 0
    vertex 4.823 2.274 0
    vertex 5.061 1.5070000000000001 0
  endloop
endfacet
facet normal 0 0 -1
  outer loop
    vertex 4.051 -3.403 0
    vertex 4.832 -2.209 0
    vertex 4.546 -2.673 0
  endloop
endfacet
facet normal 0 0 -1
  outer loop
    vertex 4.051 -3.403 0
    vertex 5.061 1.5070000000000001 0
    vertex 5.249 0.834 0
  endloop
endfacet
facet normal 0 0 -1
  outer loop
    vertex 4.051 -3.403 0
    vertex 5.107 -1.483 0
    vertex 4.832 -2.209 0
  endloop
endfacet
facet normal 0 0 -1
  outer loop
    vertex 4.051 -3.403 0
    vertex 5.208 -1.077 0
    vertex 5.107 -1.483 0
  endloop
endfacet
facet normal 0 0 -1
  outer loop
    vertex 4.051 -3.403 0
    vertex 5.249 0.834 0
    vertex 5.316 0.197 0
  endloop
endfacet
facet normal 0 0 -1
  outer loop
    vertex 4.051 -3.403 0
    vertex 5.312 -0.271 0
    vertex 5.208 -1.077 0
  endloop
endfacet
facet normal 0 0 -1
  outer loop
    vertex 4.051 -3.403 0
    vertex 5.316 0.197 0
    vertex 5.312 -0.271 0
  endloop
endfacet
facet normal 0.8262116447111204 0.1866030961790459 0.5315577133671743
  outer loop
    vertex 4.0680000000000005 0.991 3.338
    vertex 4.607 0.439 2.694
    vertex 4.5440000000000005 1.413 2.45
  endloop
endfacet
facet normal 0.8529140084828544 0.3452600905579724 0.3915777879318617
  outer loop
    vertex 4.2700000000000005 2.353 2.218
    vertex 4.5440000000000005 1.413 2.45
    vertex 4.798 1.804 1.552
  endloop
endfacet
facet normal 0.8437253744403523 0.44203660261445804 0.3045178721759282
  outer loop
    vertex 4.2700000000000005 2.353 2.218
    vertex 4.798 1.804 1.552
    vertex 4.406 2.783 1.217
  endloop
endfacet
facet normal 0.8504014417218817 -0.5249406586969936 0.0354216425947697
  outer loop
    vertex 4.28 -3.033 1.051
    vertex 4.546 -2.673 0
    vertex 4.929 -2.013 0.586
  endloop
endfacet
facet normal 0.8649586557653983 -0.44203886306602597 0.23758823067612275
  outer loop
    vertex 4.28 -3.033 1.051
    vertex 4.929 -2.013 0.586
    vertex 4.8500000000000005 -1.643 1.562
  endloop
endfacet
facet normal 0.8356201899317407 0.5455831634075904 0.06385851536489248
  outer loop
    vertex 4.341 3.025 0
    vertex 4.406 2.783 1.217
    vertex 4.689 2.492 0
  endloop
endfacet
facet normal 0.877833920765214 -0.23504496869643013 0.4173265750518004
  outer loop
    vertex 4.355 -1.947 2.432
    vertex 4.8500000000000005 -1.643 1.562
    vertex 4.723 -0.53 2.456
  endloop
endfacet
facet normal 0.8806181794412778 0.4245817087965568 0.21033781065924742
  outer loop
    vertex 4.406 2.783 1.217
    vertex 4.798 1.804 1.552
    vertex 4.913 2.048 0.578
  endloop
endfacet
facet normal 0.8493359039348137 0.5228524799379227 0.07248314638588096
  outer loop
    vertex 4.406 2.783 1.217
    vertex 4.913 2.048 0.578
    vertex 4.689 2.492 0
  endloop
endfacet
facet normal 0.8839842817881503 0.16660745163126467 0.43682232842704377
  outer loop
    vertex 4.5440000000000005 1.413 2.45
    vertex 4.607 0.439 2.694
    vertex 4.979 0.762 1.818
  endloop
endfacet
facet normal 0.8983154557735769 0.24852915439806122 0.3623018097284299
  outer loop
    vertex 4.5440000000000005 1.413 2.45
    vertex 4.979 0.762 1.818
    vertex 4.798 1.804 1.552
  endloop
endfacet
facet normal 0.8507713556279712 -0.5243978614431022 0.034568531308762064
  outer loop
    vertex 4.546 -2.673 0
    vertex 4.832 -2.209 0
    vertex 4.929 -2.013 0.586
  endloop
endfacet
facet normal 0.9186359920392444 0.012979934251978527 0.39489167557304555
  outer loop
    vertex 4.607 0.439 2.694
    vertex 4.723 -0.53 2.456
    vertex 4.979 0.762 1.818
  endloop
endfacet
facet normal 0.8497207970334432 0.5223054440480811 0.0719137692419664
  outer loop
    vertex 4.689 2.492 0
    vertex 4.913 2.048 0.578
    vertex 4.823 2.274 0
  endloop
endfacet
facet normal 0.9286720653079762 -0.162024727729482 0.33364079894522053
  outer loop
    vertex 4.723 -0.53 2.456
    vertex 4.8500000000000005 -1.643 1.562
    vertex 5.191 -0.8190000000000001 1.0130000000000001
  endloop
endfacet
facet normal 0.9487648206477087 -0.03279839572339344 0.31427628026832183
  outer loop
    vertex 4.723 -0.53 2.456
    vertex 5.191 -0.8190000000000001 1.0130000000000001
    vertex 4.979 0.762 1.818
  endloop
endfacet
facet normal 0.9500313613448115 0.2212399680389816 0.22021191839551849
  outer loop
    vertex 4.798 1.804 1.552
    vertex 4.979 0.762 1.818
    vertex 5.255 0.8240000000000001 0.5650000000000001
  endloop
endfacet
facet normal 0.9482430488581791 0.2630612358585174 0.17785923220551234
  outer loop
    vertex 4.798 1.804 1.552
    vertex 5.255 0.8240000000000001 0.5650000000000001
    vertex 4.913 2.048 0.578
  endloop
endfacet
facet normal 0.954561808407021 0.2962004046947465 -0.03281880846992915
  outer loop
    vertex 4.823 2.274 0
    vertex 4.913 2.048 0.578
    vertex 5.061 1.5070000000000001 0
  endloop
endfacet
facet normal 0.9345433407474364 -0.3539936896770597 -0.03629341446381905
  outer loop
    vertex 4.832 -2.209 0
    vertex 5.107 -1.483 0
    vertex 4.929 -2.013 0.586
  endloop
endfacet
facet normal 0.9454980132339956 -0.2716717980377439 0.17952142245845348
  outer loop
    vertex 4.8500000000000005 -1.643 1.562
    vertex 4.929 -2.013 0.586
    vertex 5.191 -0.8190000000000001 1.0130000000000001
  endloop
endfacet
facet normal 0.9630826899909007 0.2691531492836615 -0.0053211343318475
  outer loop
    vertex 4.913 2.048 0.578
    vertex 5.255 0.8240000000000001 0.5650000000000001
    vertex 5.061 1.5070000000000001 0
  endloop
endfacet
facet normal 0.9676010625024803 -0.24070863870135578 0.07620718534765
  outer loop
    vertex 4.929 -2.013 0.586
    vertex 5.107 -1.483 0
    vertex 5.208 -1.077 0
  endloop
endfacet
facet normal 0.967683281651125 -0.24000720602916953 0.07736670774293698
  outer loop
    vertex 4.929 -2.013 0.586
    vertex 5.208 -1.077 0
    vertex 5.191 -0.8190000000000001 1.0130000000000001
  endloop
endfacet
facet normal 0.976158152706781 0.020887225379068203 0.21605319881929252
  outer loop
    vertex 4.979 0.762 1.818
    vertex 5.191 -0.8190000000000001 1.0130000000000001
    vertex 5.255 0.8240000000000001 0.5650000000000001
  endloop
endfacet
facet normal 0.9631129482391808 0.2690419528513606 -0.00546594364764903
  outer loop
    vertex 5.061 1.5070000000000001 0
    vertex 5.255 0.8240000000000001 0.5650000000000001
    vertex 5.249 0.834 0
  endloop
endfacet
facet normal 0.9905778854480282 -0.1278165013481328 0.04917717808532583
  outer loop
    vertex 5.191 -0.8190000000000001 1.0130000000000001
    vertex 5.208 -1.077 0
    vertex 5.312 -0.271 0
  endloop
endfacet
facet normal 0.993380102422694 -0.007438159789505314 0.11463265629664118
  outer loop
    vertex 5.191 -0.8190000000000001 1.0130000000000001
    vertex 5.312 -0.271 0
    vertex 5.255 0.8240000000000001 0.5650000000000001
  endloop
endfacet
facet normal 0.9944762841172617 0.10459954636712199 -0.008709490692093074
  outer loop
    vertex 5.249 0.834 0
    vertex 5.255 0.8240000000000001 0.5650000000000001
    vertex 5.316 0.197 0
  endloop
endfacet
facet normal 0.9931375716889894 -0.008488355313580182 0.11664352328255408
  outer loop
    vertex 5.255 0.8240000000000001 0.5650000000000001
    vertex 5.312 -0.271 0
    vertex 5.316 0.197 0
  endloop
endfacet
endsolid JSxCAD
