<?xml version="1.0" encoding="UTF-8" standalone="no"?>
<svg
   xmlns:dc="http://purl.org/dc/elements/1.1/"
   xmlns:cc="http://creativecommons.org/ns#"
   xmlns:rdf="http://www.w3.org/1999/02/22-rdf-syntax-ns#"
   xmlns:svg="http://www.w3.org/2000/svg"
   xmlns="http://www.w3.org/2000/svg"
   xmlns:sodipodi="http://sodipodi.sourceforge.net/DTD/sodipodi-0.dtd"
   xmlns:inkscape="http://www.inkscape.org/namespaces/inkscape"
   viewBox="0 0 793.70074 1122.5197"
   height="1122.5197"
   width="793.70074"
   xml:space="preserve"
   id="svg2"
   version="1.1"
   sodipodi:docname="imp.svg"
   inkscape:version="0.92.3 (2405546, 2018-03-11)"><sodipodi:namedview
     pagecolor="#ffffff"
     bordercolor="#666666"
     borderopacity="1"
     objecttolerance="10"
     gridtolerance="10"
     guidetolerance="10"
     inkscape:pageopacity="0"
     inkscape:pageshadow="2"
     inkscape:window-width="1920"
     inkscape:window-height="1019"
     id="namedview314"
     showgrid="false"
     inkscape:zoom="5.2011752"
     inkscape:cx="419.99903"
     inkscape:cy="577.14382"
     inkscape:window-x="0"
     inkscape:window-y="0"
     inkscape:window-maximized="1"
     inkscape:current-layer="svg2" /><metadata
     id="metadata8"><rdf:RDF><cc:Work
         rdf:about=""><dc:format>image/svg+xml</dc:format><dc:type
           rdf:resource="http://purl.org/dc/dcmitype/StillImage" /><dc:title></dc:title></cc:Work></rdf:RDF></metadata><defs
     id="defs6"><clipPath
       id="clipPath20"
       clipPathUnits="userSpaceOnUse"><path
         id="path18"
         d="m 290.344,348.441 h 49.148 v 121.082 h -49.148 z" /></clipPath><clipPath
       id="clipPath28"
       clipPathUnits="userSpaceOnUse"><path
         id="path26"
         d="M 0,0 H 596 V 842 H 0 Z" /></clipPath><clipPath
       id="clipPath32"
       clipPathUnits="userSpaceOnUse"><path
         id="path30"
         d="m 316.145,428.852 h 9.484 v 12.801 h -9.484 z" /></clipPath><clipPath
       id="clipPath36"
       clipPathUnits="userSpaceOnUse"><path
         id="path34"
         d="M 0,0 H 596 V 842 H 0 Z" /></clipPath><clipPath
       id="clipPath40"
       clipPathUnits="userSpaceOnUse"><path
         id="path38"
         d="m 316.145,428.852 h 9.484 v 12.801 h -9.484 z" /></clipPath><clipPath
       id="clipPath44"
       clipPathUnits="userSpaceOnUse"><path
         id="path42"
         d="M 0,0 H 596 V 842 H 0 Z" /></clipPath><clipPath
       id="clipPath48"
       clipPathUnits="userSpaceOnUse"><path
         id="path46"
         d="m 312.434,432.344 h 3.715 v 6.414 h -3.715 z" /></clipPath><clipPath
       id="clipPath52"
       clipPathUnits="userSpaceOnUse"><path
         id="path50"
         d="M 0,0 H 596 V 842 H 0 Z" /></clipPath><clipPath
       id="clipPath56"
       clipPathUnits="userSpaceOnUse"><path
         id="path54"
         d="m 312.434,432.344 h 3.715 v 6.414 h -3.715 z" /></clipPath><clipPath
       id="clipPath60"
       clipPathUnits="userSpaceOnUse"><path
         id="path58"
         d="M 0,0 H 596 V 842 H 0 Z" /></clipPath><clipPath
       id="clipPath64"
       clipPathUnits="userSpaceOnUse"><path
         id="path62"
         d="m 320.066,424.453 h 16.25 v 15.676 h -16.25 z" /></clipPath><clipPath
       id="clipPath68"
       clipPathUnits="userSpaceOnUse"><path
         id="path66"
         d="M 0,0 H 596 V 842 H 0 Z" /></clipPath><clipPath
       id="clipPath72"
       clipPathUnits="userSpaceOnUse"><path
         id="path70"
         d="m 320.066,424.453 h 16.25 v 15.676 h -16.25 z" /></clipPath><clipPath
       id="clipPath76"
       clipPathUnits="userSpaceOnUse"><path
         id="path74"
         d="M 0,0 H 596 V 842 H 0 Z" /></clipPath><clipPath
       id="clipPath80"
       clipPathUnits="userSpaceOnUse"><path
         id="path78"
         d="m 320.66,426.188 h 7.727 v 15.465 h -7.727 z" /></clipPath><clipPath
       id="clipPath84"
       clipPathUnits="userSpaceOnUse"><path
         id="path82"
         d="M 0,0 H 596 V 842 H 0 Z" /></clipPath><clipPath
       id="clipPath88"
       clipPathUnits="userSpaceOnUse"><path
         id="path86"
         d="m 320.66,426.188 h 7.727 v 15.465 h -7.727 z" /></clipPath><clipPath
       id="clipPath92"
       clipPathUnits="userSpaceOnUse"><path
         id="path90"
         d="M 0,0 H 596 V 842 H 0 Z" /></clipPath><clipPath
       id="clipPath96"
       clipPathUnits="userSpaceOnUse"><path
         id="path94"
         d="m 314.312,435.246 h 6.262 v 8.941 h -6.262 z" /></clipPath><clipPath
       id="clipPath100"
       clipPathUnits="userSpaceOnUse"><path
         id="path98"
         d="M 0,0 H 596 V 842 H 0 Z" /></clipPath><clipPath
       id="clipPath104"
       clipPathUnits="userSpaceOnUse"><path
         id="path102"
         d="m 314.312,435.246 h 6.262 v 8.941 h -6.262 z" /></clipPath><clipPath
       id="clipPath108"
       clipPathUnits="userSpaceOnUse"><path
         id="path106"
         d="M 0,0 H 596 V 842 H 0 Z" /></clipPath><clipPath
       id="clipPath112"
       clipPathUnits="userSpaceOnUse"><path
         id="path110"
         d="m 320.066,377.938 h 16.25 v 15.676 h -16.25 z" /></clipPath><clipPath
       id="clipPath116"
       clipPathUnits="userSpaceOnUse"><path
         id="path114"
         d="M 0,0 H 596 V 842 H 0 Z" /></clipPath><clipPath
       id="clipPath120"
       clipPathUnits="userSpaceOnUse"><path
         id="path118"
         d="m 320.066,377.938 h 16.25 v 15.676 h -16.25 z" /></clipPath><clipPath
       id="clipPath124"
       clipPathUnits="userSpaceOnUse"><path
         id="path122"
         d="M 0,0 H 596 V 842 H 0 Z" /></clipPath><clipPath
       id="clipPath128"
       clipPathUnits="userSpaceOnUse"><path
         id="path126"
         d="m 320.66,376.414 h 7.727 v 15.465 h -7.727 z" /></clipPath><clipPath
       id="clipPath132"
       clipPathUnits="userSpaceOnUse"><path
         id="path130"
         d="M 0,0 H 596 V 842 H 0 Z" /></clipPath><clipPath
       id="clipPath136"
       clipPathUnits="userSpaceOnUse"><path
         id="path134"
         d="m 320.66,376.414 h 7.727 v 15.465 h -7.727 z" /></clipPath><clipPath
       id="clipPath140"
       clipPathUnits="userSpaceOnUse"><path
         id="path138"
         d="M 0,0 H 596 V 842 H 0 Z" /></clipPath><clipPath
       id="clipPath144"
       clipPathUnits="userSpaceOnUse"><path
         id="path142"
         d="m 313.363,373.941 h 7.453 v 8.875 h -7.453 z" /></clipPath><clipPath
       id="clipPath148"
       clipPathUnits="userSpaceOnUse"><path
         id="path146"
         d="M 0,0 H 596 V 842 H 0 Z" /></clipPath><clipPath
       id="clipPath152"
       clipPathUnits="userSpaceOnUse"><path
         id="path150"
         d="m 313.363,373.941 h 7.453 v 8.875 h -7.453 z" /></clipPath><clipPath
       id="clipPath156"
       clipPathUnits="userSpaceOnUse"><path
         id="path154"
         d="M 0,0 H 596 V 842 H 0 Z" /></clipPath><clipPath
       id="clipPath160"
       clipPathUnits="userSpaceOnUse"><path
         id="path158"
         d="m 309.996,374.324 h 15.547 v 17.18 h -15.547 z" /></clipPath><clipPath
       id="clipPath164"
       clipPathUnits="userSpaceOnUse"><path
         id="path162"
         d="M 0,0 H 596 V 842 H 0 Z" /></clipPath><clipPath
       id="clipPath168"
       clipPathUnits="userSpaceOnUse"><path
         id="path166"
         d="m 309.996,374.32 h 15.547 v 17.184 h -15.547 z" /></clipPath><clipPath
       id="clipPath172"
       clipPathUnits="userSpaceOnUse"><path
         id="path170"
         d="M 0,0 H 596 V 842 H 0 Z" /></clipPath><clipPath
       id="clipPath176"
       clipPathUnits="userSpaceOnUse"><path
         id="path174"
         d="m 310.301,374.469 h 6.859 v 14.75 h -6.859 z" /></clipPath><clipPath
       id="clipPath180"
       clipPathUnits="userSpaceOnUse"><path
         id="path178"
         d="M 0,0 H 596 V 842 H 0 Z" /></clipPath><clipPath
       id="clipPath184"
       clipPathUnits="userSpaceOnUse"><path
         id="path182"
         d="m 310.301,374.469 h 6.859 v 14.75 h -6.859 z" /></clipPath><clipPath
       id="clipPath188"
       clipPathUnits="userSpaceOnUse"><path
         id="path186"
         d="M 0,0 H 596 V 842 H 0 Z" /></clipPath><clipPath
       id="clipPath192"
       clipPathUnits="userSpaceOnUse"><path
         id="path190"
         d="m 307.574,372.289 h 4.188 v 9.004 h -4.188 z" /></clipPath><clipPath
       id="clipPath196"
       clipPathUnits="userSpaceOnUse"><path
         id="path194"
         d="M 0,0 H 596 V 842 H 0 Z" /></clipPath><clipPath
       id="clipPath200"
       clipPathUnits="userSpaceOnUse"><path
         id="path198"
         d="m 307.574,372.289 h 4.188 v 9.004 h -4.188 z" /></clipPath><clipPath
       id="clipPath204"
       clipPathUnits="userSpaceOnUse"><path
         id="path202"
         d="M 0,0 H 596 V 842 H 0 Z" /></clipPath></defs><g
     transform="matrix(1.3333333,0,0,1.3333333,0,3.3396326e-5)"
     id="g10"><g
       id="g12" /><g
       id="g14"><g
         clip-path="url(#clipPath20)"
         id="g16"><g
           id="g22"><g
             id="g24" /><g
             id="g626"><g
               id="g624"
               clip-path="url(#clipPath28)"><g
                 id="g210"><path
                   id="path206"
                   style="fill:#ba93d0;fill-opacity:1;fill-rule:nonzero;stroke:none"
                   d="m 305.906,441.785 c 2.594,-0.715 3.375,-6.012 3.356,-8.539 -0.039,-4.887 -2.492,-6.57 -6.102,-9.269 6.426,-0.258 12.5,0.652 17.305,5.117 4.398,4.086 8.019,11.125 6.621,17.383 -0.281,-2.18 -2.41,-6.2 -4.684,-7.016 -3.05,-1.102 -3.816,2.992 -4.148,5.488 -1.074,-3.945 -5.758,-4.101 -7.02,-0.164 0.071,-0.562 -0.277,-1.066 -0.324,-1.605 -1.656,-0.223 -2.738,1.98 -3.172,3.48 -0.082,-1.668 -1.027,-3.371 -1.832,-4.875" /><path
                   id="path208"
                   style="fill:#0c0a08;fill-opacity:1;fill-rule:nonzero;stroke:none"
                   d="m 306.812,442.098 c 0.407,0.765 0.817,1.578 1.118,2.418 0.629,-1.102 1.636,-2.161 3.07,-1.981 l 0.512,0.07 0.023,0.235 c 0.801,-1.004 1.926,-1.578 3.192,-1.578 1.277,0 2.418,0.593 3.218,1.609 0.434,-1.937 1.352,-4.246 3.496,-4.246 0.375,0 0.77,0.074 1.18,0.223 1.625,0.586 3.156,2.562 4.117,4.539 -0.105,-5.282 -3.297,-10.645 -6.715,-13.817 -3.656,-3.398 -8.402,-4.98 -14.929,-4.98 h -0.039 c 2.855,2.191 4.82,4.18 4.855,8.652 0.016,2.067 -0.535,7.328 -3.098,8.856 m 1.547,4.746 -1.273,-0.153 c -0.07,-1.461 -0.914,-3.039 -1.66,-4.433 l -0.477,-0.887 0.785,-0.215 c 2,-0.551 2.899,-5.043 2.875,-7.906 -0.031,-4.422 -2.101,-5.965 -5.527,-8.52 l -1.777,-1.328 1.828,-0.074 c 0.656,-0.023 1.312,-0.039 1.961,-0.039 6.875,0 11.902,1.691 15.812,5.328 4.324,4.016 8.301,11.36 6.817,18 l -1.282,-0.058 c -0.265,-2.051 -2.281,-5.774 -4.261,-6.489 -0.266,-0.093 -0.516,-0.144 -0.739,-0.144 -1.867,0 -2.375,3.844 -2.543,5.109 l -1.269,0.082 c -0.426,-1.551 -1.563,-2.558 -2.902,-2.558 -1.293,0 -2.395,0.929 -2.875,2.425 l -1.262,-0.277 c 0.023,-0.187 -0.051,-0.406 -0.133,-0.668 -0.019,-0.059 -0.043,-0.121 -0.062,-0.184 -0.875,0.25 -1.637,1.625 -2.036,2.989" /></g><g
                 id="g238"><g
                   id="g236"
                   clip-path="url(#clipPath32)"><g
                     id="g234"><g
                       id="g212" /><g
                       id="g232"><g
                         style="opacity:0.5"
                         id="g230"
                         clip-path="url(#clipPath36)"><g
                           id="g214" /><g
                           id="g228"><g
                             id="g226"
                             clip-path="url(#clipPath40)"><g
                               id="g224"><g
                                 id="g222"><g
                                   id="g220"
                                   clip-path="url(#clipPath44)"><g
                                   id="g218"><path
                                   id="path216"
                                   style="fill:#cc96d1;fill-opacity:1;fill-rule:nonzero;stroke:none"
                                   d="m 325.391,441.348 c 1.652,-6.536 -5.649,-8.922 -9.246,-12.496 2.433,2.675 1.707,8.293 1.796,11.714 2.887,-0.953 5.805,-2.382 7.297,1.086" /></g></g></g></g></g></g></g></g></g></g></g><g
                 id="g266"><g
                   id="g264"
                   clip-path="url(#clipPath48)"><g
                     id="g262"><g
                       id="g240" /><g
                       id="g260"><g
                         style="opacity:0.5"
                         id="g258"
                         clip-path="url(#clipPath52)"><g
                           id="g242" /><g
                           id="g256"><g
                             id="g254"
                             clip-path="url(#clipPath56)"><g
                               id="g252"><g
                                 id="g250"><g
                                   id="g248"
                                   clip-path="url(#clipPath60)"><g
                                   id="g246"><path
                                   id="path244"
                                   style="fill:#cc96d1;fill-opacity:1;fill-rule:nonzero;stroke:none"
                                   d="m 315.18,438.758 c 1.289,-1.153 1.144,-4.84 0.425,-6.414 -0.828,1.957 -1.437,4.457 -3.171,5.801" /></g></g></g></g></g></g></g></g></g></g></g><g
                 id="g320"><path
                   id="path268"
                   style="fill:#bf4352;fill-opacity:1;fill-rule:nonzero;stroke:none"
                   d="m 306.23,440.258 c -0.523,-0.196 -1.097,0.07 -1.289,0.59 -1.363,3.672 -4.113,5.867 -7.664,6.277 -0.109,-1.18 -0.519,-2.328 -1.222,-3.16 -0.993,-1.176 -2.383,-1.52 -3.809,-0.953 -0.512,0.203 -0.762,0.785 -0.558,1.297 0.207,0.511 0.785,0.765 1.3,0.558 0.617,-0.242 1.106,-0.121 1.539,0.391 0.407,0.48 0.653,1.18 0.743,1.914 -0.598,-0.039 -1.211,-0.117 -1.84,-0.25 -0.543,-0.11 -1.071,0.238 -1.184,0.777 -0.109,0.543 0.238,1.071 0.781,1.184 0.7,0.144 1.383,0.219 2.055,0.265 -0.059,0.164 -0.133,0.317 -0.215,0.457 -0.508,0.833 -1.394,1.114 -2.637,0.829 -0.539,-0.118 -1.074,0.214 -1.199,0.754 -0.121,0.539 0.215,1.074 0.754,1.195 0.453,0.105 0.891,0.152 1.309,0.152 1.496,0 2.73,-0.652 3.48,-1.89 0.274,-0.45 0.461,-0.961 0.582,-1.504 4.446,-0.395 7.989,-3.09 9.66,-7.598 0.192,-0.516 -0.07,-1.094 -0.586,-1.285" /><path
                   id="path270"
                   style="fill:#0c0a08;fill-opacity:1;fill-rule:nonzero;stroke:none"
                   d="m 292.012,450.91 c -0.235,0 -0.442,0.164 -0.492,0.387 -0.063,0.269 0.109,0.539 0.378,0.598 1.872,0.421 3.407,-0.125 4.25,-1.508 0.227,-0.379 0.403,-0.832 0.52,-1.356 l 0.078,-0.355 0.367,-0.035 c 4.293,-0.379 7.66,-3.028 9.235,-7.27 0.047,-0.125 0.043,-0.262 -0.012,-0.383 -0.059,-0.121 -0.156,-0.215 -0.281,-0.261 -0.262,-0.098 -0.551,0.043 -0.645,0.293 -1.418,3.82 -4.285,6.164 -8.074,6.605 l -0.508,0.055 -0.047,-0.508 c -0.109,-1.141 -0.5,-2.164 -1.109,-2.883 -0.844,-1 -2.027,-1.297 -3.238,-0.812 -0.125,0.046 -0.223,0.144 -0.278,0.265 -0.051,0.121 -0.051,0.258 -0.004,0.383 0.102,0.25 0.395,0.383 0.649,0.281 0.824,-0.328 1.539,-0.144 2.109,0.528 0.445,0.527 0.746,1.3 0.856,2.175 l 0.074,0.598 -0.602,-0.039 c -0.64,-0.039 -1.285,-0.125 -1.91,-0.254 -0.266,-0.047 -0.535,0.125 -0.59,0.387 -0.027,0.133 -0.004,0.265 0.071,0.379 0.074,0.109 0.187,0.187 0.316,0.211 0.602,0.125 1.234,0.207 1.992,0.257 l 0.664,0.043 -0.23,0.629 c -0.071,0.196 -0.156,0.379 -0.258,0.547 -0.617,1.012 -1.723,1.391 -3.176,1.055 -0.031,-0.008 -0.07,-0.012 -0.105,-0.012 m 1.082,2.129 c -0.457,0 -0.934,-0.059 -1.418,-0.168 -0.809,-0.183 -1.313,-0.988 -1.133,-1.797 0.184,-0.789 0.996,-1.304 1.793,-1.129 0.906,0.211 1.527,0.09 1.934,-0.367 -0.481,-0.051 -0.918,-0.117 -1.344,-0.207 -0.395,-0.078 -0.731,-0.309 -0.953,-0.644 -0.219,-0.336 -0.293,-0.735 -0.215,-1.125 0.16,-0.793 0.941,-1.34 1.769,-1.168 0.371,0.078 0.75,0.136 1.125,0.179 -0.113,-0.418 -0.289,-0.773 -0.507,-1.035 -0.25,-0.293 -0.446,-0.332 -0.586,-0.332 -0.11,0 -0.243,0.031 -0.387,0.086 -0.742,0.301 -1.649,-0.086 -1.949,-0.836 -0.149,-0.375 -0.141,-0.781 0.015,-1.148 0.16,-0.371 0.453,-0.653 0.824,-0.801 1.618,-0.645 3.25,-0.235 4.376,1.098 0.64,0.757 1.082,1.777 1.269,2.914 3.156,-0.532 5.547,-2.606 6.766,-5.887 0.281,-0.754 1.175,-1.16 1.929,-0.883 0.375,0.141 0.676,0.418 0.84,0.781 0.168,0.364 0.184,0.774 0.043,1.149 -1.672,4.5 -5.207,7.359 -9.73,7.883 -0.137,0.484 -0.321,0.921 -0.555,1.304 -0.836,1.375 -2.223,2.133 -3.906,2.133" /><path
                   id="path272"
                   style="fill:#bf4352;fill-opacity:1;fill-rule:nonzero;stroke:none"
                   d="m 300.852,466.586 c -0.286,0 -0.563,-0.117 -0.762,-0.352 -0.36,-0.418 -0.313,-1.046 0.109,-1.406 2.067,-1.773 5.016,-3.117 7.473,-4.074 -1.051,-1.188 -1.668,-2.543 -1.801,-3.988 -0.199,-2.153 0.649,-4.391 2.457,-6.469 0.36,-0.418 0.992,-0.465 1.41,-0.102 0.414,0.364 0.461,0.993 0.098,1.41 -1.438,1.661 -2.121,3.379 -1.973,4.977 0.129,1.402 0.899,2.668 2.282,3.766 0.285,0.226 0.421,0.586 0.363,0.945 -0.059,0.355 -0.305,0.656 -0.645,0.777 -3.925,1.418 -6.664,2.817 -8.363,4.274 -0.188,0.164 -0.422,0.242 -0.648,0.242" /><path
                   id="path274"
                   style="fill:#0c0a08;fill-opacity:1;fill-rule:nonzero;stroke:none"
                   d="m 309.082,450.449 c -0.144,0 -0.281,0.063 -0.375,0.172 -1.719,1.977 -2.523,4.086 -2.336,6.102 0.121,1.336 0.688,2.582 1.676,3.703 l 0.473,0.535 -0.668,0.262 c -3.297,1.281 -5.696,2.582 -7.329,3.984 -0.101,0.086 -0.164,0.207 -0.171,0.34 -0.012,0.133 0.031,0.262 0.117,0.363 0.148,0.176 0.386,0.328 0.707,0.055 1.746,-1.5 4.531,-2.926 8.515,-4.363 0.172,-0.063 0.297,-0.211 0.325,-0.391 0.031,-0.176 -0.039,-0.359 -0.184,-0.473 -1.492,-1.183 -2.324,-2.566 -2.469,-4.109 -0.16,-1.738 0.567,-3.586 2.094,-5.352 0.09,-0.097 0.133,-0.226 0.125,-0.359 -0.012,-0.133 -0.07,-0.258 -0.172,-0.344 -0.117,-0.101 -0.242,-0.125 -0.328,-0.125 m -8.23,16.637 c -0.442,0 -0.856,-0.191 -1.141,-0.527 -0.262,-0.301 -0.387,-0.688 -0.359,-1.09 0.031,-0.399 0.218,-0.762 0.523,-1.024 1.609,-1.379 3.895,-2.66 6.977,-3.902 -0.856,-1.141 -1.352,-2.391 -1.477,-3.731 -0.215,-2.292 0.676,-4.66 2.574,-6.843 0.52,-0.602 1.516,-0.676 2.117,-0.149 0.301,0.262 0.485,0.625 0.512,1.028 0.027,0.398 -0.101,0.785 -0.363,1.086 -1.348,1.554 -1.988,3.144 -1.856,4.601 0.118,1.262 0.825,2.41 2.098,3.422 0.426,0.336 0.633,0.879 0.547,1.418 -0.09,0.535 -0.461,0.984 -0.973,1.168 -3.867,1.395 -6.551,2.762 -8.207,4.18 -0.269,0.234 -0.617,0.363 -0.972,0.363" /><path
                   id="path276"
                   style="fill:#bf4352;fill-opacity:1;fill-rule:nonzero;stroke:none"
                   d="m 317.176,449.008 c 0.051,0.347 0.074,0.754 0.144,1.047 0.102,0.238 0.149,0.461 0.258,0.73 l 0.422,0.848 0.531,0.824 c 0.403,0.531 0.805,1.07 1.285,1.555 0.45,0.508 0.973,0.957 1.477,1.422 0.535,0.429 1.062,0.875 1.641,1.254 0.55,0.41 1.156,0.738 1.746,1.085 l 0.914,0.457 c 0.308,0.145 0.625,0.254 0.937,0.383 0.309,0.145 0.629,0.203 0.949,0.301 0.317,0.109 0.633,0.148 0.95,0.191 0.32,0.071 0.621,0.067 0.922,0.051 0.316,0.024 0.582,-0.066 0.855,-0.129 l 0.207,-0.047 0.207,-0.089 c 0.156,-0.075 0.356,-0.149 0.473,-0.219 l 0.367,-0.215 0.344,-0.266 c 0.441,-0.371 0.691,-0.824 0.742,-1.336 0.062,-0.507 -0.106,-1.089 -0.41,-1.621 -0.305,-0.531 -0.735,-1.019 -1.235,-1.41 -0.496,-0.379 -1.078,-0.676 -1.613,-0.742 -0.547,-0.062 -0.93,0.106 -1.199,0.559 -0.258,0.468 -0.344,1.136 -0.348,1.797 l -0.015,-0.122 c 0.074,0.36 0.214,0.688 0.371,0.84 0.136,0.137 0.293,0.156 0.59,0.043 0.277,-0.113 0.57,-0.355 0.777,-0.621 0.101,-0.121 0.187,-0.289 0.191,-0.332 0.008,-0.012 0,0.012 0.012,0.043 0.012,0.063 0.062,0.133 0.129,0.172 0.133,0.059 0.07,0.027 0.035,0.035 l -0.023,0.004 c -0.27,0.059 -0.539,-0.113 -0.598,-0.387 -0.059,-0.269 0.113,-0.539 0.387,-0.597 0.031,-0.004 0.062,-0.008 0.093,-0.012 0.172,-0.004 0.344,-0.066 0.661,0.113 0.152,0.102 0.261,0.266 0.304,0.426 0.032,0.141 0.028,0.269 0.012,0.363 -0.07,0.375 -0.219,0.578 -0.367,0.797 -0.305,0.41 -0.672,0.75 -1.168,0.992 -0.246,0.114 -0.543,0.2 -0.879,0.184 -0.332,-0.012 -0.68,-0.168 -0.914,-0.383 -0.465,-0.441 -0.633,-0.945 -0.758,-1.406 l -0.016,-0.055 v -0.066 c -0.015,-0.774 0.02,-1.598 0.426,-2.426 0.227,-0.395 0.547,-0.813 1.02,-1.031 0.449,-0.223 0.957,-0.297 1.402,-0.254 0.91,0.09 1.66,0.48 2.328,0.941 0.656,0.481 1.223,1.074 1.664,1.781 0.434,0.7 0.75,1.555 0.688,2.497 -0.043,0.941 -0.543,1.843 -1.196,2.421 l -0.5,0.411 -0.562,0.351 c -0.188,0.113 -0.332,0.168 -0.5,0.258 l -0.285,0.133 -0.317,0.094 c -0.422,0.125 -0.855,0.257 -1.269,0.25 l -0.629,0.031 c -0.207,0 -0.402,-0.035 -0.606,-0.051 -0.402,-0.039 -0.804,-0.09 -1.179,-0.195 -0.379,-0.102 -0.774,-0.168 -1.129,-0.317 -0.363,-0.133 -0.734,-0.25 -1.086,-0.398 l -1.043,-0.481 c -0.668,-0.355 -1.348,-0.703 -1.973,-1.129 -0.648,-0.398 -1.246,-0.863 -1.851,-1.32 -0.578,-0.492 -1.172,-0.965 -1.699,-1.527 -0.555,-0.524 -1.047,-1.125 -1.536,-1.735 l -0.679,-0.972 -0.582,-1.078 c -0.18,-0.387 -0.325,-0.868 -0.469,-1.305 -0.098,-0.406 -0.121,-0.73 -0.188,-1.098 -0.113,-0.648 0.317,-1.265 0.965,-1.379 0.649,-0.117 1.266,0.317 1.379,0.965 0.004,0.012 0.004,0.024 0.008,0.032 z" /><path
                   id="path278"
                   style="fill:#0c0a08;fill-opacity:1;fill-rule:nonzero;stroke:none"
                   d="m 330.031,455.16 0.239,0.098 -0.02,0.269 c 0.02,-0.058 0.035,-0.121 0.051,-0.191 0,-0.02 0.011,-0.102 -0.012,-0.211 -0.016,-0.07 -0.074,-0.148 -0.144,-0.195 -0.051,-0.028 -0.094,-0.043 -0.129,-0.051 z m -14.043,-6.863 c -0.047,0 -0.093,0.004 -0.14,0.012 -0.446,0.078 -0.743,0.503 -0.664,0.945 0.027,0.137 0.046,0.269 0.062,0.402 0.031,0.215 0.063,0.426 0.121,0.672 l 0.063,0.184 c 0.117,0.367 0.242,0.746 0.382,1.054 l 0.575,1.055 0.652,0.938 c 0.496,0.617 0.961,1.179 1.488,1.679 0.422,0.446 0.887,0.84 1.336,1.219 l 0.563,0.453 c 0.512,0.387 1.043,0.789 1.59,1.125 0.546,0.371 1.132,0.684 1.703,0.985 l 0.254,0.136 1.019,0.465 c 0.215,0.094 0.453,0.176 0.688,0.258 l 0.371,0.133 c 0.238,0.097 0.488,0.156 0.754,0.218 l 0.34,0.086 c 0.363,0.106 0.753,0.149 1.121,0.184 l 0.218,0.023 c 0.114,0.012 0.227,0.028 0.34,0.028 l 0.621,-0.031 c 0.399,-0.004 0.766,-0.11 1.157,-0.227 l 0.75,-0.301 c 0.093,-0.043 0.183,-0.086 0.293,-0.152 l 0.554,-0.348 0.465,-0.383 c 0.609,-0.543 1.02,-1.371 1.055,-2.148 0.051,-0.762 -0.16,-1.527 -0.633,-2.281 -0.406,-0.653 -0.934,-1.215 -1.566,-1.676 -0.75,-0.524 -1.434,-0.801 -2.141,-0.871 -0.414,-0.039 -0.836,0.035 -1.203,0.215 -0.324,0.152 -0.606,0.441 -0.86,0.882 -0.371,0.758 -0.386,1.551 -0.375,2.231 0.118,0.449 0.262,0.891 0.657,1.262 0.175,0.16 0.437,0.273 0.672,0.281 h 0.015 c 0.266,0 0.473,-0.051 0.692,-0.152 0.394,-0.192 0.722,-0.469 1.027,-0.872 0.023,-0.039 0.047,-0.074 0.07,-0.109 l -0.195,0.004 c -0.047,0.004 -0.106,0.012 -0.16,0.012 l -0.031,0.047 -0.024,-0.008 c -0.238,0.269 -0.543,0.5 -0.832,0.621 -0.473,0.18 -0.75,0.121 -1,-0.125 -0.27,-0.266 -0.406,-0.738 -0.453,-0.938 h -0.008 l -0.016,-0.121 h 0.012 c 0.012,-0.808 0.145,-1.445 0.395,-1.902 0.343,-0.582 0.863,-0.828 1.566,-0.754 0.563,0.07 1.199,0.363 1.801,0.82 0.543,0.422 1.004,0.946 1.332,1.524 0.363,0.625 0.527,1.281 0.457,1.851 -0.059,0.594 -0.359,1.145 -0.871,1.575 l -0.359,0.277 -0.403,0.238 c -0.082,0.051 -0.207,0.106 -0.332,0.16 l -0.387,0.172 -0.429,0.106 c -0.231,0.058 -0.504,0.125 -0.817,0.097 -0.058,0.008 -0.172,0.012 -0.285,0.012 -0.254,0 -0.473,-0.023 -0.687,-0.07 -0.313,-0.039 -0.645,-0.082 -0.993,-0.203 -0.082,-0.024 -0.175,-0.047 -0.273,-0.075 -0.227,-0.062 -0.465,-0.125 -0.707,-0.238 l -0.324,-0.129 c -0.207,-0.078 -0.414,-0.16 -0.617,-0.254 l -1.231,-0.64 c -0.5,-0.289 -1.015,-0.586 -1.496,-0.942 -0.48,-0.316 -0.941,-0.691 -1.391,-1.058 l -0.609,-0.524 c -0.398,-0.359 -0.809,-0.734 -1.172,-1.148 -0.476,-0.477 -0.887,-1.024 -1.281,-1.547 l -0.57,-0.875 -0.442,-0.883 c -0.066,-0.164 -0.109,-0.293 -0.148,-0.418 -0.035,-0.113 -0.071,-0.219 -0.117,-0.332 -0.071,-0.265 -0.098,-0.519 -0.125,-0.769 -0.016,-0.129 -0.028,-0.254 -0.047,-0.372 -0.008,-0.058 -0.016,-0.093 -0.016,-0.128 -0.066,-0.356 -0.402,-0.637 -0.801,-0.637 m 12.856,13.004 h -0.008 c -0.148,0 -0.293,-0.016 -0.438,-0.035 l -0.199,-0.02 c -0.41,-0.039 -0.84,-0.086 -1.254,-0.207 l -0.312,-0.078 c -0.281,-0.066 -0.574,-0.133 -0.852,-0.25 l -0.351,-0.125 c -0.25,-0.086 -0.5,-0.176 -0.742,-0.277 l -1.321,-0.629 c -0.59,-0.309 -1.195,-0.629 -1.758,-1.016 -0.566,-0.348 -1.109,-0.758 -1.636,-1.152 l -0.59,-0.481 c -0.469,-0.394 -0.949,-0.801 -1.387,-1.265 -0.547,-0.512 -1.027,-1.098 -1.555,-1.754 l -0.695,-1 -0.601,-1.11 c -0.172,-0.367 -0.305,-0.769 -0.43,-1.16 l -0.067,-0.211 c -0.074,-0.297 -0.109,-0.531 -0.144,-0.769 -0.016,-0.121 -0.035,-0.246 -0.059,-0.375 -0.148,-0.852 0.422,-1.664 1.27,-1.817 0.855,-0.156 1.668,0.43 1.816,1.27 l 0.016,0.117 c 0.019,0.125 0.035,0.262 0.047,0.395 0.027,0.218 0.047,0.441 0.09,0.617 0.039,0.07 0.082,0.203 0.125,0.336 0.031,0.109 0.066,0.218 0.117,0.34 l 0.41,0.824 0.512,0.785 c 0.386,0.508 0.781,1.035 1.234,1.492 0.352,0.399 0.73,0.742 1.129,1.102 l 0.578,0.5 c 0.434,0.355 0.883,0.718 1.348,1.023 0.465,0.344 0.941,0.617 1.441,0.91 l 0.293,0.168 0.891,0.446 c 0.179,0.082 0.367,0.16 0.558,0.23 l 0.356,0.141 c 0.207,0.097 0.402,0.148 0.601,0.203 0.106,0.027 0.207,0.054 0.313,0.086 0.285,0.097 0.566,0.136 0.863,0.175 0.324,0.067 0.582,0.067 0.879,0.051 l 0.133,0.004 c 0.16,0 0.32,-0.039 0.488,-0.082 l 0.703,-0.238 c 0.09,-0.039 0.18,-0.078 0.242,-0.117 l 0.372,-0.215 0.308,-0.238 c 0.352,-0.297 0.555,-0.661 0.594,-1.075 0.051,-0.41 -0.082,-0.918 -0.36,-1.394 -0.285,-0.496 -0.675,-0.946 -1.14,-1.305 -0.492,-0.375 -1.004,-0.613 -1.43,-0.668 -0.363,-0.039 -0.637,0.059 -0.828,0.379 -0.18,0.328 -0.285,0.856 -0.297,1.516 0.071,0.277 0.176,0.472 0.242,0.539 0.028,0.008 0.079,0.008 0.196,-0.039 0.136,-0.055 0.3,-0.172 0.445,-0.313 -0.074,-0.097 -0.129,-0.215 -0.156,-0.34 -0.102,-0.472 0.199,-0.941 0.672,-1.043 0.054,-0.015 0.113,-0.019 0.164,-0.023 0.129,-0.008 0.183,-0.012 0.242,-0.012 0.207,0 0.402,0.055 0.613,0.176 0.246,0.16 0.414,0.395 0.485,0.656 0.039,0.188 0.046,0.367 0.015,0.524 -0.078,0.429 -0.242,0.672 -0.39,0.89 -0.418,0.567 -0.833,0.918 -1.348,1.168 -0.324,0.149 -0.645,0.227 -0.961,0.227 l -0.098,-0.004 c -0.41,-0.016 -0.843,-0.199 -1.152,-0.484 -0.539,-0.508 -0.731,-1.082 -0.867,-1.579 l -0.028,-0.148 c -0.015,-0.895 0.032,-1.781 0.465,-2.664 0.344,-0.602 0.735,-0.992 1.196,-1.207 0.484,-0.238 1.066,-0.34 1.601,-0.285 0.84,0.082 1.633,0.402 2.5,1.004 0.719,0.523 1.313,1.156 1.77,1.89 0.554,0.895 0.808,1.809 0.746,2.723 -0.047,0.98 -0.539,1.984 -1.321,2.676 l -0.511,0.418 -0.602,0.382 c -0.14,0.082 -0.25,0.137 -0.363,0.188 l -0.461,0.223 -0.367,0.113 c -0.453,0.133 -0.895,0.262 -1.344,0.262 z" /><path
                   id="path280"
                   style="fill:#cc96d1;fill-opacity:1;fill-rule:nonzero;stroke:none"
                   d="m 313.223,439.801 c 7.91,-4.153 6.398,-11.078 4.117,-17.977 2.765,0.098 5.89,0.746 8.535,1.664 3.508,1.219 6.793,3.309 9.383,6.09 2.875,3.09 3.515,6.332 3.586,10.348 -0.656,-1.594 -3.024,-4.61 -5.055,-4.399 -2.312,0.239 -3,4.063 -3.449,5.801 -1.828,-6.039 -7.332,-4.016 -8.922,0.918 -2.106,-3.133 -6.023,-0.504 -7.164,2.246 -0.242,-1.379 -0.981,-2.648 -1.488,-3.93" /><path
                   id="path282"
                   style="fill:#0c0a08;fill-opacity:1;fill-rule:nonzero;stroke:none"
                   d="m 313.41,440.422 c 0.141,0.344 0.293,0.683 0.449,1.023 0.207,0.457 0.414,0.922 0.598,1.403 0.981,-1.328 2.496,-2.493 4.141,-2.657 0.976,-0.097 1.871,0.196 2.601,0.829 1.129,-2.461 3.199,-4.122 5.328,-4.071 1.493,0.016 2.766,0.856 3.653,2.363 0.547,-1.949 1.488,-4.222 3.543,-4.433 1.605,-0.176 3.211,1.172 4.332,2.566 -0.297,-2.781 -1.133,-5.125 -3.274,-7.425 -2.469,-2.657 -5.625,-4.7 -9.117,-5.915 -2.394,-0.835 -5.047,-1.394 -7.414,-1.578 2.168,6.793 3.281,13.645 -4.727,17.848 -0.035,0.02 -0.074,0.035 -0.113,0.047 m 0.582,6.383 -0.379,-2.2 c -0.156,-0.886 -0.554,-1.769 -0.937,-2.621 -0.18,-0.394 -0.36,-0.789 -0.512,-1.179 -0.137,-0.336 0.027,-0.715 0.363,-0.848 0.02,-0.008 0.039,-0.012 0.063,-0.019 -0.063,-0.278 0.066,-0.575 0.332,-0.711 7.469,-3.926 6.058,-10.372 3.801,-17.196 l -0.293,-0.886 0.933,0.031 c 2.711,0.097 5.895,0.715 8.727,1.699 3.695,1.285 7.027,3.449 9.644,6.262 3.024,3.246 3.688,6.656 3.758,10.777 l -1.25,0.258 c -0.601,-1.465 -2.75,-4.164 -4.387,-4 -1.632,0.168 -2.332,3.043 -2.746,4.762 l -0.718,2.808 -0.672,-2.222 c -0.633,-2.094 -1.774,-3.254 -3.203,-3.27 h -0.024 c -1.801,0 -3.672,1.758 -4.457,4.195 l -0.41,1.274 -0.746,-1.11 c -0.559,-0.832 -1.285,-1.214 -2.156,-1.125 -1.446,0.145 -3.184,1.606 -3.871,3.258 z" /><path
                   id="path284"
                   style="fill:#d9baae;fill-opacity:1;fill-rule:nonzero;stroke:none"
                   d="m 300.723,423.336 c -1.289,0.039 -2.953,-1.238 -3.43,-2.617 -0.883,-2.543 1.184,-4.188 2.602,-5.895 -2.985,-0.094 -7.04,4.004 -7.825,6.672 -0.98,3.32 1.532,6.024 4.387,7.481" /><path
                   id="path286"
                   style="fill:#0c0a08;fill-opacity:1;fill-rule:nonzero;stroke:none"
                   d="m 296.457,429.629 c -0.102,0 -0.203,-0.024 -0.297,-0.07 -3,-1.539 -5.816,-4.508 -4.715,-8.247 0.836,-2.832 5.071,-7.281 8.469,-7.136 l 1.328,0.039 -0.847,1.023 c -0.231,0.278 -0.477,0.555 -0.727,0.828 -1.273,1.43 -2.379,2.661 -1.762,4.438 0.383,1.109 1.758,2.187 2.801,2.184 0.004,0 0.012,0 0.016,0 0.351,0 0.64,0.277 0.652,0.628 0.008,0.36 -0.273,0.661 -0.633,0.668 -1.566,0.055 -3.496,-1.41 -4.066,-3.054 -0.735,-2.125 0.265,-3.684 1.414,-5.035 -2.348,1.07 -4.852,3.929 -5.395,5.785 -0.879,2.972 1.52,5.422 4.055,6.718 0.32,0.164 0.449,0.555 0.285,0.875 -0.117,0.227 -0.344,0.356 -0.578,0.356" /><path
                   id="path288"
                   style="fill:#bf4352;fill-opacity:1;fill-rule:nonzero;stroke:none"
                   d="m 317.867,446.75 c 0.649,1.879 -0.351,3.926 -2.23,4.574 l -4.696,1.617 c -1.879,0.649 -3.925,-0.351 -4.574,-2.23 l -2.679,-7.781 c -0.649,-1.879 0.351,-3.93 2.23,-4.578 l 4.691,-1.614 c 1.883,-0.648 3.93,0.348 4.579,2.231 z" /><path
                   id="path290"
                   style="fill:#0c0a08;fill-opacity:1;fill-rule:nonzero;stroke:none"
                   d="m 311.785,437.191 c -0.328,0 -0.652,0.051 -0.965,0.161 l -4.691,1.613 c -0.742,0.258 -1.344,0.789 -1.691,1.5 -0.344,0.707 -0.395,1.508 -0.137,2.25 l 2.679,7.785 c 0.411,1.188 1.532,1.988 2.79,1.988 0.328,0 0.648,-0.054 0.96,-0.16 l 4.692,-1.617 c 0.746,-0.258 1.348,-0.789 1.691,-1.5 0.348,-0.707 0.395,-1.504 0.141,-2.25 l -2.684,-7.781 c -0.41,-1.192 -1.527,-1.989 -2.785,-1.989 m -2.015,16.598 c -1.813,0 -3.426,-1.152 -4.02,-2.867 l -2.68,-7.781 c -0.367,-1.075 -0.297,-2.227 0.2,-3.246 0.496,-1.02 1.363,-1.786 2.437,-2.157 l 4.691,-1.617 c 0.45,-0.152 0.914,-0.23 1.387,-0.23 1.813,0 3.426,1.152 4.016,2.863 l 2.679,7.781 c 0.372,1.074 0.301,2.227 -0.199,3.25 -0.496,1.02 -1.359,1.785 -2.433,2.153 l -4.692,1.617 c -0.449,0.156 -0.918,0.234 -1.386,0.234" /><path
                   id="path292"
                   style="fill:#bf4352;fill-opacity:1;fill-rule:nonzero;stroke:none"
                   d="m 315.715,431.125 c 0,6.063 -4.914,10.98 -10.977,10.98 -6.066,0 -10.984,-4.917 -10.984,-10.98 0,-6.063 4.918,-10.98 10.984,-10.98 6.063,0 10.977,4.917 10.977,10.98" /><path
                   id="path294"
                   style="fill:#0c0a08;fill-opacity:1;fill-rule:nonzero;stroke:none"
                   d="m 304.734,420.797 c -5.695,0 -10.328,4.633 -10.328,10.328 0,5.695 4.633,10.328 10.328,10.328 5.7,0 10.332,-4.633 10.332,-10.328 0,-5.695 -4.632,-10.328 -10.332,-10.328 m 0,21.957 c -6.41,0 -11.629,-5.215 -11.629,-11.629 0,-6.414 5.219,-11.629 11.629,-11.629 6.414,0 11.633,5.215 11.633,11.629 0,6.414 -5.219,11.629 -11.633,11.629" /><path
                   id="path296"
                   style="fill:#fff200;fill-opacity:1;fill-rule:nonzero;stroke:none"
                   d="m 305.023,428.738 c 0.184,1.442 -0.207,2.68 -0.867,2.766 -0.66,0.09 -1.347,-1.02 -1.531,-2.461 -0.184,-1.438 0.203,-2.676 0.863,-2.762 0.664,-0.09 1.352,1.016 1.535,2.457" /><path
                   id="path298"
                   style="fill:#0c0a08;fill-opacity:1;fill-rule:nonzero;stroke:none"
                   d="m 303.562,426.652 c -0.355,0.043 -0.738,1 -0.562,2.344 0.168,1.324 0.742,2.137 1.082,2.137 v 0.375 l 0.023,-0.379 c 0.094,-0.008 0.172,-0.09 0.223,-0.156 0.258,-0.332 0.457,-1.137 0.32,-2.188 -0.168,-1.324 -0.746,-2.133 -1.086,-2.133 m 0.52,5.231 c -0.969,0 -1.652,-1.403 -1.828,-2.793 -0.219,-1.699 0.293,-3.067 1.187,-3.18 l 0.121,-0.008 c 0.969,0 1.657,1.403 1.833,2.789 0.144,1.129 -0.04,2.18 -0.473,2.743 -0.199,0.254 -0.445,0.406 -0.719,0.441 z" /><path
                   id="path300"
                   style="fill:#fff200;fill-opacity:1;fill-rule:nonzero;stroke:none"
                   d="m 300.688,429.395 c 0.156,1.265 -0.344,2.367 -1.122,2.464 -0.789,0.102 -1.55,-0.843 -1.711,-2.105 -0.164,-1.258 0.34,-2.363 1.122,-2.465 0.781,-0.101 1.546,0.84 1.711,2.106" /><path
                   id="path302"
                   style="fill:#0c0a08;fill-opacity:1;fill-rule:nonzero;stroke:none"
                   d="m 299.094,427.656 c -0.235,0.024 -0.387,0.125 -0.52,0.301 -0.304,0.391 -0.437,1.063 -0.347,1.75 0.14,1.102 0.742,1.785 1.222,1.785 l 0.067,-0.004 c 0.164,-0.023 0.316,-0.117 0.449,-0.289 0.301,-0.39 0.437,-1.062 0.347,-1.758 -0.14,-1.101 -0.742,-1.785 -1.218,-1.785 m 0.355,4.586 c -0.945,0 -1.789,-1.051 -1.965,-2.441 -0.117,-0.887 0.067,-1.75 0.493,-2.301 0.257,-0.336 0.589,-0.535 0.953,-0.582 1.004,-0.121 1.941,0.957 2.129,2.43 0.113,0.898 -0.075,1.761 -0.504,2.312 -0.254,0.328 -0.582,0.528 -0.942,0.57 -0.054,0.008 -0.109,0.012 -0.164,0.012" /><path
                   id="path304"
                   style="fill:#d9baae;fill-opacity:1;fill-rule:nonzero;stroke:none"
                   d="m 304.84,422.574 c 2.015,-0.051 3.551,-2.804 3.098,-4.726 -0.376,-1.578 -1.934,-2.543 -3.051,-3.547 2.754,-0.418 5.855,0.117 7.574,2.48 2.82,3.879 0.844,7.352 -1.664,10.239 -1.688,-0.786 -3.977,-1.7 -5.652,-4.293" /><path
                   id="path306"
                   style="fill:#0c0a08;fill-opacity:1;fill-rule:nonzero;stroke:none"
                   d="m 306.078,422.93 c 1.379,1.816 3.11,2.636 4.543,3.293 2.953,-3.543 3.344,-6.274 1.317,-9.059 -1.114,-1.527 -3.09,-2.355 -5.426,-2.344 0.886,0.754 1.765,1.637 2.058,2.879 0.293,1.25 -0.101,2.821 -1.008,3.996 -0.429,0.559 -0.937,0.977 -1.484,1.235 m 4.887,4.886 -0.801,-0.371 c -1.621,-0.746 -3.828,-1.761 -5.48,-4.242 -0.278,-0.066 -0.485,-0.312 -0.493,-0.613 -0.007,-0.36 0.274,-0.656 0.633,-0.664 0.817,-0.02 1.422,-0.653 1.711,-1.028 0.664,-0.863 0.973,-2.031 0.77,-2.902 -0.246,-1.047 -1.196,-1.824 -2.11,-2.582 -0.257,-0.211 -0.507,-0.418 -0.742,-0.629 l -1.023,-0.918 1.359,-0.207 c 3.492,-0.539 6.563,0.488 8.199,2.738 3.227,4.438 0.574,8.43 -1.699,11.047 z" /><path
                   id="path308"
                   style="fill:#0c0a08;fill-opacity:1;fill-rule:nonzero;stroke:none"
                   d="m 301.113,437.355 c -0.875,0 -1.726,-0.089 -2.519,-0.273 -0.348,-0.082 -0.567,-0.434 -0.485,-0.781 0.082,-0.348 0.434,-0.567 0.782,-0.485 3.457,0.801 8.457,-0.433 10.101,-3.488 0.172,-0.316 0.567,-0.433 0.883,-0.266 0.313,0.172 0.434,0.563 0.262,0.883 -1.563,2.907 -5.473,4.41 -9.024,4.41" /><path
                   id="path310"
                   style="fill:#0c0a08;fill-opacity:1;fill-rule:nonzero;stroke:none"
                   d="m 301.023,426.883 c -0.14,0 -0.277,-0.047 -0.39,-0.129 -1.625,-1.211 -4.77,-2.707 -6.688,-2.922 -0.359,-0.043 -0.613,-0.363 -0.574,-0.719 0.039,-0.355 0.367,-0.613 0.719,-0.574 1.914,0.215 4.793,1.5 6.668,2.719 0.144,-0.309 0.289,-0.621 0.433,-0.942 0.879,-1.937 1.789,-3.945 2.981,-5.492 0.219,-0.285 0.629,-0.336 0.914,-0.117 0.281,0.219 0.336,0.629 0.117,0.914 -1.101,1.426 -1.98,3.359 -2.828,5.231 -0.262,0.574 -0.516,1.132 -0.766,1.66 -0.086,0.176 -0.242,0.304 -0.433,0.351 -0.051,0.012 -0.102,0.02 -0.153,0.02" /><path
                   id="path312"
                   style="fill:#bf4352;fill-opacity:1;fill-rule:nonzero;stroke:none"
                   d="m 317.238,449.516 c -1.101,1.695 -1.164,4.488 -0.129,6.093 0.649,1.012 1.637,1.434 2.942,1.239 0.406,-0.059 0.797,0.132 1.008,0.48 0.207,0.348 0.179,0.789 -0.063,1.113 -2.418,3.204 -3.715,6.2 -4.219,9.723 -0.07,0.5 -0.496,0.859 -0.988,0.859 -0.047,0 -0.094,0 -0.141,-0.007 -0.546,-0.078 -0.925,-0.586 -0.847,-1.133 0.469,-3.305 1.566,-6.176 3.511,-9.113 -1.187,-0.27 -2.179,-0.977 -2.886,-2.079 -1.461,-2.273 -1.399,-5.906 0.133,-8.265" /><path
                   id="path314"
                   style="fill:#0c0a08;fill-opacity:1;fill-rule:nonzero;stroke:none"
                   d="m 315.789,469.523 c -0.07,0 -0.141,-0.003 -0.211,-0.015 -0.82,-0.113 -1.39,-0.875 -1.273,-1.696 0.449,-3.167 1.48,-5.968 3.226,-8.757 -1.023,-0.387 -1.89,-1.102 -2.527,-2.094 -1.555,-2.426 -1.496,-6.293 0.137,-8.809 0.152,-0.23 0.461,-0.297 0.691,-0.148 0.23,0.152 0.297,0.461 0.145,0.691 -1.434,2.211 -1.493,5.606 -0.133,7.727 0.636,0.988 1.504,1.617 2.578,1.859 l 0.707,0.16 -0.399,0.602 c -1.886,2.852 -2.976,5.684 -3.437,8.91 -0.039,0.274 0.152,0.527 0.426,0.567 0.32,0.007 0.531,-0.18 0.566,-0.426 0.512,-3.61 1.844,-6.68 4.313,-9.957 0.121,-0.16 0.132,-0.379 0.031,-0.555 -0.106,-0.172 -0.301,-0.27 -0.504,-0.238 -1.496,0.215 -2.68,-0.285 -3.437,-1.465 -1.145,-1.785 -1.086,-4.762 0.128,-6.637 0.153,-0.234 0.465,-0.297 0.692,-0.148 0.234,0.152 0.297,0.461 0.148,0.691 -0.988,1.524 -1.051,4.121 -0.129,5.555 0.543,0.848 1.344,1.172 2.45,1.015 0.597,-0.097 1.195,0.192 1.511,0.715 0.313,0.528 0.274,1.184 -0.093,1.672 -2.36,3.129 -3.633,6.059 -4.122,9.492 -0.105,0.735 -0.742,1.289 -1.484,1.289" /><path
                   id="path316"
                   style="fill:#bf4352;fill-opacity:1;fill-rule:nonzero;stroke:none"
                   d="m 313.215,440.824 c 2.414,-0.054 5.137,0.367 7.031,1.996 -0.246,0.153 -0.469,0.336 -0.656,0.555 -0.949,1.07 -1.113,2.781 -0.504,5.227 0.113,0.453 0.519,0.757 0.969,0.757 0.082,0 0.16,-0.011 0.242,-0.027 0.535,-0.133 0.863,-0.676 0.73,-1.215 -0.566,-2.277 -0.207,-3.121 0.063,-3.422 0.117,-0.136 0.289,-0.222 0.472,-0.285 0.532,0.914 0.891,2.031 1.004,3.422 0.043,0.523 0.481,0.918 0.996,0.918 0.028,0 0.055,0 0.083,-0.004 0.55,-0.043 0.96,-0.527 0.914,-1.074 -0.094,-1.18 -0.352,-2.246 -0.75,-3.207 1.406,0.328 1.64,1.031 1.648,2.832 0.004,0.551 0.449,0.996 1,0.996 h 0.008 c 0.551,-0.004 0.996,-0.453 0.992,-1.004 -0.012,-2.75 -0.723,-4.535 -4.234,-4.953 -0.246,-0.031 -0.469,-0.02 -0.696,-0.027 -1.925,-2.325 -5.129,-3.555 -9.347,-3.485" /><path
                   id="path318"
                   style="fill:#0c0a08;fill-opacity:1;fill-rule:nonzero;stroke:none"
                   d="m 324.695,445.527 c 0.102,0.371 0.184,0.75 0.246,1.137 -0.031,-0.535 -0.101,-0.891 -0.246,-1.137 m -4.64,4.332 c -0.688,0 -1.289,-0.468 -1.453,-1.136 -0.653,-2.618 -0.45,-4.477 0.609,-5.68 0.07,-0.078 0.141,-0.152 0.219,-0.223 -1.864,-1.297 -4.344,-1.539 -6.207,-1.496 -0.254,0.012 -0.504,-0.215 -0.512,-0.492 -0.004,-0.277 0.215,-0.504 0.492,-0.508 2.18,-0.051 5.235,0.278 7.367,2.117 l 0.516,0.442 -0.578,0.363 c -0.207,0.129 -0.391,0.281 -0.543,0.457 -0.828,0.938 -0.957,2.504 -0.395,4.777 0.067,0.262 0.336,0.438 0.61,0.364 0.125,-0.032 0.234,-0.11 0.304,-0.227 0.071,-0.113 0.09,-0.25 0.059,-0.379 -0.477,-1.906 -0.418,-3.211 0.172,-3.875 0.211,-0.242 0.492,-0.359 0.687,-0.425 l 0.387,-0.137 0.207,0.359 c 0.598,1.031 0.957,2.25 1.066,3.629 0.024,0.258 0.243,0.461 0.5,0.461 0.317,-0.023 0.52,-0.266 0.5,-0.539 -0.089,-1.094 -0.328,-2.121 -0.718,-3.055 l -0.371,-0.898 0.949,0.219 c 1.879,0.441 2.031,1.652 2.035,3.32 0.004,0.273 0.227,0.496 0.5,0.496 0.281,0 0.504,-0.227 0.5,-0.504 -0.008,-2.598 -0.617,-4.078 -3.793,-4.457 -0.164,-0.02 -0.316,-0.02 -0.469,-0.02 l -0.406,-0.007 -0.148,-0.176 c -1.844,-2.227 -4.922,-3.395 -8.953,-3.305 -0.274,0 -0.504,-0.219 -0.508,-0.492 -0.004,-0.277 0.218,-0.504 0.492,-0.508 4.219,-0.062 7.531,1.137 9.59,3.488 0.168,0 0.336,0.004 0.519,0.028 4.094,0.488 4.668,2.906 4.676,5.445 0.004,0.828 -0.664,1.504 -1.492,1.508 -0.641,0 -1.184,-0.398 -1.403,-0.957 -0.042,0.734 -0.624,1.348 -1.378,1.41 l -0.122,0.004 c -0.777,0 -1.433,-0.605 -1.496,-1.379 -0.082,-1.016 -0.308,-1.93 -0.679,-2.723 -0.137,0.274 -0.328,1.024 0.125,2.852 0.199,0.801 -0.293,1.617 -1.094,1.816 -0.121,0.028 -0.242,0.043 -0.363,0.043" /></g><g
                 id="g348"><g
                   id="g346"
                   clip-path="url(#clipPath64)"><g
                     id="g344"><g
                       id="g322" /><g
                       id="g342"><g
                         style="opacity:0.5"
                         id="g340"
                         clip-path="url(#clipPath68)"><g
                           id="g324" /><g
                           id="g338"><g
                             id="g336"
                             clip-path="url(#clipPath72)"><g
                               id="g334"><g
                                 id="g332"><g
                                   id="g330"
                                   clip-path="url(#clipPath76)"><g
                                   id="g328"><path
                                   id="path326"
                                   style="fill:#cc96d1;fill-opacity:1;fill-rule:nonzero;stroke:none"
                                   d="m 329.965,439.672 c 0.16,-5.563 -5.465,-12.004 -9.895,-15.219 6.75,1.621 13.614,5.168 16.246,11.996 -3.093,-1.992 -5.336,0.25 -5.894,3.68" /></g></g></g></g></g></g></g></g></g></g></g><g
                 id="g376"><g
                   id="g374"
                   clip-path="url(#clipPath80)"><g
                     id="g372"><g
                       id="g350" /><g
                       id="g370"><g
                         style="opacity:0.5"
                         id="g368"
                         clip-path="url(#clipPath84)"><g
                           id="g352" /><g
                           id="g366"><g
                             id="g364"
                             clip-path="url(#clipPath88)"><g
                               id="g362"><g
                                 id="g360"><g
                                   id="g358"
                                   clip-path="url(#clipPath92)"><g
                                   id="g356"><path
                                   id="path354"
                                   style="fill:#cc96d1;fill-opacity:1;fill-rule:nonzero;stroke:none"
                                   d="m 321.277,441.652 c 0.84,-5.195 0.883,-10.586 -0.617,-15.464 3.113,3.25 5.285,7.925 7.727,11.777 -3.192,0.125 -4.325,0.414 -6.5,2.773" /></g></g></g></g></g></g></g></g></g></g></g><g
                 id="g404"><g
                   id="g402"
                   clip-path="url(#clipPath96)"><g
                     id="g400"><g
                       id="g378" /><g
                       id="g398"><g
                         style="opacity:0.5"
                         id="g396"
                         clip-path="url(#clipPath100)"><g
                           id="g380" /><g
                           id="g394"><g
                             id="g392"
                             clip-path="url(#clipPath104)"><g
                               id="g390"><g
                                 id="g388"><g
                                   id="g386"
                                   clip-path="url(#clipPath108)"><g
                                   id="g384"><path
                                   id="path382"
                                   style="fill:#cc96d1;fill-opacity:1;fill-rule:nonzero;stroke:none"
                                   d="m 320.207,441.5 c -0.027,-2.004 0.809,-4.438 0.047,-6.254 -0.695,2.508 -3.18,5.961 -5.942,6.25 1.692,0.723 2.805,2.168 4.536,2.692 -0.02,-1.157 0.773,-2.043 1.664,-2.688" /></g></g></g></g></g></g></g></g></g></g></g><g
                 id="g430"><path
                   id="path406"
                   style="fill:#d9baae;fill-opacity:1;fill-rule:nonzero;stroke:none"
                   d="m 304.84,395.492 c 2.015,0.051 3.551,2.805 3.098,4.727 -0.372,1.578 -1.934,2.539 -3.051,3.543 2.754,0.422 5.855,-0.114 7.574,-2.481 2.82,-3.875 0.844,-7.347 -1.664,-10.234 -1.688,0.785 -3.977,1.699 -5.652,4.293" /><path
                   id="path408"
                   style="fill:#0c0a08;fill-opacity:1;fill-rule:nonzero;stroke:none"
                   d="m 306.512,403.246 c 2.324,0.012 4.312,-0.816 5.422,-2.344 2.031,-2.789 1.64,-5.515 -1.313,-9.058 -1.433,0.656 -3.164,1.476 -4.543,3.293 0.547,0.258 1.055,0.675 1.484,1.234 0.907,1.176 1.305,2.742 1.008,3.996 -0.293,1.242 -1.172,2.121 -2.058,2.879 m 0.066,1.297 c -0.582,0 -1.18,-0.043 -1.789,-0.137 l -1.359,-0.207 1.023,-0.918 c 0.235,-0.211 0.485,-0.422 0.746,-0.633 0.914,-0.753 1.86,-1.535 2.106,-2.582 0.207,-0.871 -0.106,-2.035 -0.77,-2.902 -0.289,-0.371 -0.894,-1.004 -1.711,-1.023 -0.359,-0.008 -0.644,-0.309 -0.633,-0.668 0.008,-0.297 0.215,-0.543 0.489,-0.614 1.656,-2.48 3.867,-3.492 5.484,-4.238 l 0.801,-0.371 0.324,0.371 c 2.273,2.617 4.926,6.609 1.699,11.043 -1.351,1.859 -3.676,2.879 -6.41,2.879" /><path
                   id="path410"
                   style="fill:#bf4352;fill-opacity:1;fill-rule:nonzero;stroke:none"
                   d="m 317.238,368.551 c -1.101,-1.696 -1.164,-4.489 -0.129,-6.098 0.649,-1.012 1.637,-1.43 2.942,-1.234 0.406,0.058 0.797,-0.133 1.008,-0.481 0.207,-0.347 0.179,-0.789 -0.063,-1.113 -2.418,-3.203 -3.715,-6.203 -4.219,-9.723 -0.07,-0.5 -0.496,-0.863 -0.988,-0.863 -0.047,0 -0.094,0.004 -0.141,0.012 -0.546,0.078 -0.925,0.582 -0.847,1.129 0.469,3.304 1.566,6.179 3.511,9.117 -1.187,0.269 -2.179,0.976 -2.886,2.078 -1.461,2.273 -1.399,5.906 0.133,8.266" /><path
                   id="path412"
                   style="fill:#0c0a08;fill-opacity:1;fill-rule:nonzero;stroke:none"
                   d="m 315.559,370.141 c -0.164,0 -0.325,-0.079 -0.418,-0.227 -1.633,-2.516 -1.692,-6.383 -0.137,-8.809 0.637,-0.992 1.504,-1.707 2.527,-2.093 -1.746,-2.793 -2.777,-5.59 -3.226,-8.762 -0.117,-0.816 0.453,-1.578 1.273,-1.695 0.82,-0.114 1.582,0.468 1.695,1.273 0.489,3.438 1.762,6.363 4.122,9.496 0.367,0.488 0.406,1.145 0.093,1.668 -0.316,0.528 -0.902,0.813 -1.511,0.719 -1.098,-0.164 -1.907,0.168 -2.45,1.012 -0.922,1.437 -0.859,4.035 0.129,5.558 0.149,0.231 0.086,0.539 -0.148,0.692 -0.227,0.148 -0.539,0.082 -0.692,-0.149 -1.214,-1.875 -1.273,-4.855 -0.128,-6.64 0.757,-1.176 1.953,-1.684 3.437,-1.461 0.199,0.027 0.398,-0.063 0.504,-0.243 0.101,-0.171 0.09,-0.39 -0.031,-0.554 -2.469,-3.274 -3.801,-6.344 -4.313,-9.957 -0.035,-0.242 -0.246,-0.43 -0.496,-0.43 -0.344,0.047 -0.535,0.301 -0.496,0.574 0.461,3.227 1.551,6.059 3.437,8.907 l 0.399,0.605 -0.707,0.16 c -1.074,0.242 -1.942,0.871 -2.578,1.86 -1.36,2.121 -1.301,5.515 0.133,7.726 0.152,0.231 0.085,0.539 -0.145,0.688 -0.086,0.058 -0.18,0.082 -0.273,0.082" /><path
                   id="path414"
                   style="fill:#bf4352;fill-opacity:1;fill-rule:nonzero;stroke:none"
                   d="m 314.129,377.242 c 2.414,0.055 5.137,-0.367 7.031,-1.996 -0.246,-0.152 -0.469,-0.336 -0.66,-0.555 -0.945,-1.07 -1.109,-2.781 -0.5,-5.226 0.113,-0.453 0.52,-0.758 0.969,-0.758 0.082,0 0.16,0.008 0.242,0.027 0.535,0.133 0.863,0.676 0.73,1.211 -0.566,2.278 -0.207,3.125 0.059,3.422 0.121,0.141 0.293,0.223 0.477,0.289 0.531,-0.914 0.89,-2.031 1.003,-3.422 0.043,-0.523 0.481,-0.918 0.997,-0.918 0.027,0 0.054,0 0.082,0 0.55,0.047 0.961,0.528 0.914,1.079 -0.094,1.179 -0.352,2.246 -0.75,3.207 1.406,-0.329 1.64,-1.032 1.648,-2.832 0.004,-0.551 0.449,-0.997 1,-0.997 h 0.008 c 0.551,0 0.996,0.454 0.992,1.004 -0.012,2.746 -0.723,4.535 -4.234,4.953 -0.246,0.028 -0.469,0.02 -0.696,0.028 -1.925,2.324 -5.129,3.551 -9.347,3.484" /><path
                   id="path416"
                   style="fill:#0c0a08;fill-opacity:1;fill-rule:nonzero;stroke:none"
                   d="m 325.855,371.402 c -0.062,0.387 -0.144,0.766 -0.246,1.133 0.145,-0.242 0.215,-0.597 0.246,-1.133 m -11.433,8.344 c -0.113,0 -0.223,0 -0.336,-0.004 -0.277,-0.004 -0.496,-0.23 -0.492,-0.508 0.004,-0.277 0.254,-0.5 0.508,-0.492 4,0.074 7.109,-1.078 8.953,-3.304 l 0.148,-0.176 0.406,-0.008 c 0.153,0 0.305,0 0.469,-0.02 3.176,-0.379 3.785,-1.859 3.793,-4.457 0.004,-0.277 -0.219,-0.504 -0.496,-0.504 -0.277,0 -0.5,0.223 -0.504,0.497 -0.004,1.668 -0.156,2.878 -2.035,3.32 l -0.949,0.219 0.371,-0.899 c 0.39,-0.933 0.629,-1.961 0.719,-3.055 0.019,-0.273 -0.184,-0.515 -0.461,-0.539 -0.301,0 -0.516,0.204 -0.539,0.461 -0.11,1.375 -0.469,2.598 -1.067,3.629 l -0.207,0.356 -0.387,-0.133 c -0.195,-0.067 -0.476,-0.184 -0.691,-0.43 -0.586,-0.66 -0.645,-1.965 -0.168,-3.871 0.066,-0.269 -0.098,-0.543 -0.367,-0.609 -0.254,-0.059 -0.539,0.101 -0.606,0.367 -0.566,2.273 -0.437,3.836 0.395,4.773 0.152,0.18 0.336,0.332 0.543,0.461 l 0.578,0.36 -0.516,0.445 c -2.132,1.836 -5.187,2.16 -7.367,2.117 -0.277,-0.004 -0.496,-0.234 -0.488,-0.508 0.004,-0.277 0.254,-0.496 0.508,-0.492 1.836,0.043 4.343,-0.199 6.207,-1.496 -0.078,-0.07 -0.149,-0.144 -0.219,-0.223 -1.059,-1.203 -1.262,-3.062 -0.609,-5.679 0.195,-0.785 1.004,-1.285 1.812,-1.094 0.805,0.199 1.297,1.012 1.098,1.816 -0.453,1.829 -0.262,2.582 -0.125,2.852 0.371,-0.793 0.597,-1.707 0.679,-2.723 0.063,-0.773 0.719,-1.379 1.497,-1.379 l 0.117,0.004 c 0.758,0.059 1.34,0.672 1.383,1.41 0.218,-0.558 0.761,-0.957 1.394,-0.957 0.836,0.004 1.504,0.68 1.5,1.504 -0.008,2.543 -0.582,4.961 -4.676,5.45 -0.183,0.019 -0.351,0.023 -0.519,0.027 -2.004,2.289 -5.196,3.492 -9.254,3.492" /><path
                   id="path418"
                   style="fill:#bf4352;fill-opacity:1;fill-rule:nonzero;stroke:none"
                   d="m 317.867,371.316 c 0.649,-1.878 -0.351,-3.925 -2.23,-4.574 l -4.696,-1.617 c -1.879,-0.648 -3.925,0.352 -4.574,2.23 l -2.679,7.782 c -0.649,1.879 0.351,3.929 2.23,4.578 l 4.691,1.613 c 1.883,0.649 3.93,-0.351 4.579,-2.23 z" /><path
                   id="path420"
                   style="fill:#0c0a08;fill-opacity:1;fill-rule:nonzero;stroke:none"
                   d="m 309.77,365.578 c -1.258,0 -2.379,0.801 -2.79,1.988 l -2.679,7.782 c -0.258,0.746 -0.207,1.547 0.137,2.254 0.343,0.707 0.945,1.238 1.691,1.496 l 4.691,1.617 c 0.313,0.105 0.637,0.16 0.965,0.16 1.258,0 2.375,-0.797 2.785,-1.988 l 2.684,-7.782 c 0.254,-0.746 0.207,-1.546 -0.141,-2.253 -0.343,-0.707 -0.945,-1.239 -1.691,-1.497 l -4.692,-1.617 c -0.312,-0.105 -0.636,-0.16 -0.96,-0.16 m 2.015,16.598 h -0.004 c -0.469,0 -0.933,-0.078 -1.383,-0.231 l -4.691,-1.617 c -1.074,-0.371 -1.941,-1.137 -2.437,-2.156 -0.5,-1.02 -0.571,-2.176 -0.2,-3.246 l 2.68,-7.781 c 0.594,-1.715 2.207,-2.868 4.02,-2.868 0.468,0 0.937,0.078 1.382,0.235 l 4.696,1.617 c 1.074,0.367 1.937,1.133 2.433,2.152 0.5,1.02 0.571,2.176 0.199,3.246 l -2.679,7.782 c -0.59,1.714 -2.203,2.867 -4.016,2.867" /><path
                   id="path422"
                   style="fill:#bf4352;fill-opacity:1;fill-rule:nonzero;stroke:none"
                   d="m 315.715,386.941 c 0,-6.066 -4.914,-10.98 -10.977,-10.98 -6.066,0 -10.984,4.914 -10.984,10.98 0,6.063 4.918,10.981 10.984,10.981 6.063,0 10.977,-4.918 10.977,-10.981" /><path
                   id="path424"
                   style="fill:#0c0a08;fill-opacity:1;fill-rule:nonzero;stroke:none"
                   d="m 304.734,376.609 c -5.695,0 -10.328,4.637 -10.328,10.332 0,5.696 4.633,10.329 10.328,10.329 5.7,0 10.332,-4.633 10.332,-10.329 0,-5.695 -4.632,-10.332 -10.332,-10.332 m 0,21.961 c -6.41,0 -11.629,-5.215 -11.629,-11.629 0,-6.414 5.219,-11.629 11.629,-11.629 6.414,0 11.633,5.215 11.633,11.629 0,6.414 -5.219,11.629 -11.633,11.629" /><path
                   id="path426"
                   style="fill:#ba93d0;fill-opacity:1;fill-rule:nonzero;stroke:none"
                   d="m 313.223,378.266 c 7.91,4.152 6.398,11.078 4.117,17.972 2.765,-0.097 5.89,-0.742 8.535,-1.66 3.508,-1.219 6.793,-3.308 9.383,-6.09 2.875,-3.09 3.515,-6.332 3.586,-10.347 -0.656,1.593 -3.024,4.605 -5.055,4.398 -2.312,-0.238 -3,-4.062 -3.449,-5.801 -1.828,6.039 -7.332,4.016 -8.922,-0.918 -2.106,3.133 -6.023,0.5 -7.164,-2.246 -0.242,1.379 -0.981,2.649 -1.488,3.93" /><path
                   id="path428"
                   style="fill:#0c0a08;fill-opacity:1;fill-rule:nonzero;stroke:none"
                   d="m 313.41,377.645 c 0.039,0.011 0.078,0.023 0.113,0.046 8.008,4.204 6.895,11.055 4.727,17.844 2.367,-0.18 5.02,-0.742 7.414,-1.574 3.492,-1.215 6.648,-3.262 9.117,-5.918 2.141,-2.297 2.977,-4.641 3.274,-7.422 -1.121,1.395 -2.727,2.727 -4.332,2.563 -2.055,-0.207 -2.996,-2.485 -3.543,-4.434 -0.887,1.512 -2.16,2.352 -3.653,2.363 h -0.035 c -2.105,0 -4.168,-1.621 -5.293,-4.066 -0.734,0.633 -1.633,0.922 -2.601,0.824 -1.645,-0.16 -3.16,-1.324 -4.141,-2.652 -0.184,0.48 -0.391,0.941 -0.598,1.398 -0.156,0.344 -0.308,0.684 -0.449,1.028 m 3.02,19.277 0.293,-0.887 c 2.257,-6.824 3.668,-13.273 -3.801,-17.195 -0.266,-0.137 -0.395,-0.434 -0.332,-0.711 -0.024,-0.008 -0.043,-0.016 -0.063,-0.024 -0.336,-0.128 -0.5,-0.507 -0.363,-0.843 0.152,-0.391 0.332,-0.785 0.512,-1.18 0.383,-0.852 0.781,-1.734 0.937,-2.621 l 0.379,-2.203 0.86,2.066 c 0.687,1.653 2.425,3.114 3.871,3.254 0.875,0.086 1.597,-0.289 2.156,-1.121 l 0.746,-1.109 0.41,1.273 c 0.793,2.445 2.66,4.254 4.481,4.195 1.429,-0.015 2.57,-1.175 3.203,-3.269 l 0.672,-2.223 0.718,2.809 c 0.414,1.719 1.114,4.594 2.746,4.762 1.579,0.167 3.786,-2.536 4.387,-4 l 1.25,0.257 c -0.07,4.121 -0.734,7.532 -3.758,10.778 -2.617,2.812 -5.949,4.976 -9.644,6.261 -2.832,0.985 -6.016,1.602 -8.727,1.7 z" /></g><g
                 id="g458"><g
                   id="g456"
                   clip-path="url(#clipPath112)"><g
                     id="g454"><g
                       id="g432" /><g
                       id="g452"><g
                         style="opacity:0.5"
                         id="g450"
                         clip-path="url(#clipPath116)"><g
                           id="g434" /><g
                           id="g448"><g
                             id="g446"
                             clip-path="url(#clipPath120)"><g
                               id="g444"><g
                                 id="g442"><g
                                   id="g440"
                                   clip-path="url(#clipPath124)"><g
                                   id="g438"><path
                                   id="path436"
                                   style="fill:#cc96d1;fill-opacity:1;fill-rule:nonzero;stroke:none"
                                   d="m 329.965,378.395 c 0.16,5.562 -5.465,12.003 -9.895,15.214 6.75,-1.617 13.614,-5.164 16.246,-11.992 -3.093,1.988 -5.336,-0.25 -5.894,-3.679" /></g></g></g></g></g></g></g></g></g></g></g><g
                 id="g486"><g
                   id="g484"
                   clip-path="url(#clipPath128)"><g
                     id="g482"><g
                       id="g460" /><g
                       id="g480"><g
                         style="opacity:0.5"
                         id="g478"
                         clip-path="url(#clipPath132)"><g
                           id="g462" /><g
                           id="g476"><g
                             id="g474"
                             clip-path="url(#clipPath136)"><g
                               id="g472"><g
                                 id="g470"><g
                                   id="g468"
                                   clip-path="url(#clipPath140)"><g
                                   id="g466"><path
                                   id="path464"
                                   style="fill:#cc96d1;fill-opacity:1;fill-rule:nonzero;stroke:none"
                                   d="m 321.277,376.414 c 0.84,5.195 0.883,10.582 -0.617,15.465 3.113,-3.25 5.285,-7.926 7.727,-11.781 -3.192,-0.121 -4.325,-0.41 -6.5,-2.77" /></g></g></g></g></g></g></g></g></g></g></g><g
                 id="g514"><g
                   id="g512"
                   clip-path="url(#clipPath144)"><g
                     id="g510"><g
                       id="g488" /><g
                       id="g508"><g
                         style="opacity:0.5"
                         id="g506"
                         clip-path="url(#clipPath148)"><g
                           id="g490" /><g
                           id="g504"><g
                             id="g502"
                             clip-path="url(#clipPath152)"><g
                               id="g500"><g
                                 id="g498"><g
                                   id="g496"
                                   clip-path="url(#clipPath156)"><g
                                   id="g494"><path
                                   id="path492"
                                   style="fill:#cc96d1;fill-opacity:1;fill-rule:nonzero;stroke:none"
                                   d="m 320.816,376.871 c 0,1.395 -0.109,4.574 -0.152,5.945 -1.211,-2.093 -4.969,-5.933 -7.301,-6.746 0.524,-0.59 1.176,-1.625 1.344,-2.129 0.809,1.907 1.996,3.508 4.281,3.235" /></g></g></g></g></g></g></g></g></g></g></g><g
                 id="g520"><path
                   id="path516"
                   style="fill:#cc96d1;fill-opacity:1;fill-rule:nonzero;stroke:none"
                   d="m 305.906,376.281 c 2.594,0.715 3.375,6.012 3.356,8.539 -0.039,4.887 -1.45,6.735 -5.059,9.43 6.426,0.258 11.457,-0.812 16.262,-5.277 4.398,-4.086 8.019,-11.129 6.621,-17.383 -0.281,2.176 -2.41,6.195 -4.684,7.015 -3.05,1.098 -3.816,-2.992 -4.148,-5.488 -1.074,3.945 -5.758,4.102 -7.02,0.164 0.071,0.563 -0.273,1.067 -0.324,1.606 -1.656,0.222 -2.738,-1.981 -3.172,-3.485 -0.082,1.672 -1.027,3.375 -1.832,4.879" /><path
                   id="path518"
                   style="fill:#0c0a08;fill-opacity:1;fill-rule:nonzero;stroke:none"
                   d="m 306.812,375.969 c 2.563,1.523 3.114,6.785 3.098,8.855 -0.035,4.446 -1.191,6.547 -3.879,8.813 5.949,-0.02 10.137,-1.559 13.992,-5.141 3.418,-3.176 6.61,-8.535 6.715,-13.816 -0.961,1.976 -2.492,3.953 -4.117,4.539 -0.41,0.144 -0.805,0.222 -1.18,0.222 -2.144,0 -3.062,-2.308 -3.496,-4.25 -0.8,1.016 -1.941,1.614 -3.218,1.614 -1.266,0 -2.391,-0.578 -3.196,-1.582 l -0.019,0.238 -0.516,0.07 c -1.426,0.192 -2.437,-0.879 -3.066,-1.984 -0.301,0.84 -0.711,1.652 -1.118,2.422 m -0.886,18.969 c -0.571,0 -1.156,-0.016 -1.75,-0.04 l -1.828,-0.074 1.464,-1.097 c 3.571,-2.665 4.762,-4.325 4.797,-8.911 0.024,-2.98 -0.964,-7.382 -2.875,-7.906 l -0.785,-0.215 0.473,-0.886 c 0.746,-1.395 1.594,-2.973 1.664,-4.438 l 1.273,-0.148 c 0.399,1.363 1.161,2.738 2.036,2.988 0.019,-0.063 0.043,-0.125 0.062,-0.184 0.082,-0.261 0.156,-0.484 0.133,-0.668 l 1.265,-0.277 c 0.477,1.496 1.579,2.422 2.872,2.422 1.339,0 2.476,-1.004 2.902,-2.559 l 1.269,0.086 c 0.168,1.266 0.676,5.11 2.543,5.11 0.223,0 0.473,-0.051 0.739,-0.145 1.98,-0.715 3.996,-4.437 4.261,-6.492 l 1.282,-0.055 c 1.484,6.637 -2.493,13.985 -6.817,18 -4.136,3.844 -8.617,5.489 -14.98,5.489" /></g><g
                 id="g548"><g
                   id="g546"
                   clip-path="url(#clipPath160)"><g
                     id="g544"><g
                       id="g522" /><g
                       id="g542"><g
                         style="opacity:0.5"
                         id="g540"
                         clip-path="url(#clipPath164)"><g
                           id="g524" /><g
                           id="g538"><g
                             id="g536"
                             clip-path="url(#clipPath168)"><g
                               id="g534"><g
                                 id="g532"><g
                                   id="g530"
                                   clip-path="url(#clipPath172)"><g
                                   id="g528"><path
                                   id="path526"
                                   style="fill:#cc96d1;fill-opacity:1;fill-rule:nonzero;stroke:none"
                                   d="m 325.543,375.957 c -3.352,9.906 -8.801,13.398 -15.547,15.547 3.266,-2.199 4.957,-4.664 6.555,-8.383 1.289,-3.004 0.558,-5.891 1.683,-8.801 0.157,4.914 4.125,6.356 6.852,2.246" /></g></g></g></g></g></g></g></g></g></g></g><g
                 id="g576"><g
                   id="g574"
                   clip-path="url(#clipPath176)"><g
                     id="g572"><g
                       id="g550" /><g
                       id="g570"><g
                         style="opacity:0.5"
                         id="g568"
                         clip-path="url(#clipPath180)"><g
                           id="g552" /><g
                           id="g566"><g
                             id="g564"
                             clip-path="url(#clipPath184)"><g
                               id="g562"><g
                                 id="g560"><g
                                   id="g558"
                                   clip-path="url(#clipPath188)"><g
                                   id="g556"><path
                                   id="path554"
                                   style="fill:#cc96d1;fill-opacity:1;fill-rule:nonzero;stroke:none"
                                   d="m 317.16,375.043 c -0.824,5.672 -2.621,10.852 -6.859,14.176 1.828,-5.336 2.894,-9.606 1.387,-14.746 1.257,1.804 4.011,2.742 5.472,0.875" /></g></g></g></g></g></g></g></g></g></g></g><g
                 id="g604"><g
                   id="g602"
                   clip-path="url(#clipPath192)"><g
                     id="g600"><g
                       id="g578" /><g
                       id="g598"><g
                         style="opacity:0.5"
                         id="g596"
                         clip-path="url(#clipPath196)"><g
                           id="g580" /><g
                           id="g594"><g
                             id="g592"
                             clip-path="url(#clipPath200)"><g
                               id="g590"><g
                                 id="g588"><g
                                   id="g586"
                                   clip-path="url(#clipPath204)"><g
                                   id="g584"><path
                                   id="path582"
                                   style="fill:#cc96d1;fill-opacity:1;fill-rule:nonzero;stroke:none"
                                   d="m 311.367,374.125 c 0.676,1.828 0.395,5.352 -0.152,7.168 -0.457,-4.727 -4.481,-6.109 -3.485,-9.004 0.86,0.973 2.059,3.66 3.332,2.145" /></g></g></g></g></g></g></g></g></g></g></g><g
                 id="g622"><path
                   id="path606"
                   style="fill:#bf4352;fill-opacity:1;fill-rule:nonzero;stroke:none"
                   d="m 303.855,375.027 c -1.519,-2.355 -3.804,-3.765 -6.578,-4.089 -0.109,1.183 -0.519,2.332 -1.222,3.16 -0.993,1.175 -2.383,1.523 -3.805,0.957 -0.516,-0.203 -0.766,-0.785 -0.562,-1.301 0.207,-0.512 0.785,-0.766 1.3,-0.559 0.617,0.246 1.11,0.121 1.539,-0.386 0.407,-0.481 0.653,-1.18 0.743,-1.914 -0.598,0.039 -1.211,0.117 -1.84,0.246 -0.543,0.113 -1.071,-0.235 -1.18,-0.778 -0.113,-0.539 0.234,-1.066 0.777,-1.179 0.7,-0.145 1.383,-0.219 2.055,-0.266 -0.059,-0.164 -0.133,-0.32 -0.215,-0.457 -0.508,-0.832 -1.394,-1.117 -2.637,-0.828 -0.539,0.117 -1.074,-0.215 -1.199,-0.754 -0.121,-0.539 0.219,-1.074 0.754,-1.199 0.453,-0.102 0.891,-0.153 1.309,-0.153 1.496,0 2.73,0.657 3.48,1.895 0.274,0.445 0.461,0.961 0.582,1.504 3.492,0.308 6.426,2.039 8.336,4.953" /><path
                   id="path608"
                   style="fill:#0c0a08;fill-opacity:1;fill-rule:nonzero;stroke:none"
                   d="m 293.562,375.816 c -0.492,0 -0.996,-0.097 -1.5,-0.296 -0.765,-0.305 -1.144,-1.18 -0.839,-1.95 0.152,-0.375 0.437,-0.668 0.804,-0.824 0.368,-0.156 0.778,-0.16 1.149,-0.012 0.414,0.164 0.676,0.098 0.969,-0.25 0.218,-0.257 0.394,-0.613 0.507,-1.031 -0.375,0.043 -0.754,0.102 -1.125,0.18 -0.386,0.078 -0.793,0.004 -1.125,-0.219 -0.336,-0.219 -0.562,-0.559 -0.644,-0.949 -0.082,-0.391 -0.004,-0.793 0.219,-1.125 0.218,-0.336 0.554,-0.567 0.949,-0.649 0.426,-0.086 0.867,-0.152 1.347,-0.207 -0.25,-0.285 -0.777,-0.632 -1.933,-0.363 -0.813,0.176 -1.613,-0.332 -1.793,-1.133 -0.184,-0.804 0.32,-1.609 1.129,-1.793 2.289,-0.523 4.262,0.219 5.328,1.965 0.23,0.383 0.414,0.82 0.551,1.305 3.488,0.406 6.445,2.223 8.355,5.14 0.152,0.231 0.09,0.54 -0.144,0.692 -0.231,0.148 -0.539,0.086 -0.692,-0.145 -1.832,-2.797 -4.586,-4.429 -7.961,-4.73 l -0.363,-0.031 -0.082,-0.36 c -0.113,-0.515 -0.289,-0.972 -0.52,-1.351 -0.843,-1.387 -2.382,-1.938 -4.253,-1.512 -0.266,0.062 -0.434,0.332 -0.375,0.602 0.062,0.265 0.332,0.429 0.601,0.375 1.832,-0.422 2.738,0.339 3.172,1.054 0.102,0.168 0.187,0.352 0.258,0.547 l 0.23,0.629 -0.664,0.043 c -0.758,0.051 -1.39,0.133 -1.988,0.254 -0.133,0.027 -0.246,0.105 -0.32,0.215 -0.075,0.113 -0.098,0.246 -0.071,0.375 0.028,0.133 0.102,0.246 0.211,0.32 0.113,0.07 0.25,0.098 0.379,0.07 0.629,-0.129 1.27,-0.214 1.91,-0.257 l 0.602,-0.036 -0.074,0.598 c -0.106,0.875 -0.411,1.648 -0.856,2.176 -0.574,0.676 -1.285,0.851 -2.105,0.531 -0.125,-0.055 -0.262,-0.051 -0.383,0 -0.125,0.055 -0.219,0.152 -0.27,0.277 -0.101,0.254 0.024,0.547 0.282,0.649 1.23,0.492 2.382,0.203 3.238,-0.813 0.605,-0.718 1,-1.742 1.109,-2.886 l 0.047,-0.508 0.508,0.058 c 2.941,0.344 5.34,1.832 6.937,4.313 0.153,0.234 0.082,0.543 -0.148,0.691 -0.234,0.149 -0.543,0.082 -0.691,-0.148 -1.34,-2.082 -3.313,-3.383 -5.727,-3.793 -0.187,1.137 -0.629,2.16 -1.269,2.918 -0.774,0.918 -1.793,1.394 -2.876,1.394" /><path
                   id="path610"
                   style="fill:#bf4352;fill-opacity:1;fill-rule:nonzero;stroke:none"
                   d="m 309.836,366.457 c -1.438,-1.656 -2.121,-3.375 -1.973,-4.973 0.129,-1.402 0.899,-2.668 2.282,-3.765 0.285,-0.227 0.421,-0.59 0.363,-0.946 -0.059,-0.359 -0.305,-0.656 -0.645,-0.781 -3.925,-1.414 -6.664,-2.812 -8.363,-4.269 -0.188,-0.164 -0.418,-0.243 -0.648,-0.243 -0.286,0 -0.563,0.118 -0.762,0.348 -0.36,0.422 -0.313,1.051 0.109,1.41 2.067,1.774 5.016,3.117 7.473,4.074 -1.051,1.188 -1.664,2.543 -1.801,3.985 -0.199,2.156 0.649,4.394 2.457,6.473" /><path
                   id="path612"
                   style="fill:#0c0a08;fill-opacity:1;fill-rule:nonzero;stroke:none"
                   d="m 308.328,368.27 c -0.14,0 -0.281,-0.059 -0.379,-0.172 -1.898,-2.184 -2.789,-4.551 -2.574,-6.844 0.125,-1.34 0.621,-2.59 1.477,-3.731 -3.079,-1.242 -5.368,-2.523 -6.981,-3.906 -0.301,-0.262 -0.488,-0.621 -0.516,-1.023 -0.031,-0.399 0.094,-0.785 0.356,-1.09 0.516,-0.602 1.508,-0.68 2.113,-0.164 1.656,1.418 4.34,2.789 8.207,4.183 0.512,0.184 0.883,0.633 0.973,1.168 0.086,0.536 -0.125,1.079 -0.551,1.418 -1.269,1.008 -1.973,2.161 -2.09,3.422 -0.136,1.457 0.504,3.047 1.852,4.602 0.18,0.207 0.156,0.523 -0.051,0.703 -0.207,0.18 -0.523,0.16 -0.707,-0.051 -1.527,-1.762 -2.254,-3.613 -2.09,-5.347 0.141,-1.543 0.973,-2.926 2.465,-4.11 0.145,-0.113 0.211,-0.297 0.184,-0.473 -0.028,-0.179 -0.153,-0.332 -0.325,-0.39 -3.984,-1.438 -6.769,-2.867 -8.515,-4.363 -0.321,-0.274 -0.559,-0.122 -0.707,0.054 -0.086,0.102 -0.129,0.231 -0.117,0.364 0.007,0.132 0.07,0.253 0.171,0.339 1.633,1.403 4.032,2.703 7.329,3.985 l 0.668,0.258 -0.473,0.539 c -0.988,1.117 -1.551,2.363 -1.676,3.703 -0.187,2.019 0.621,4.125 2.332,6.097 0.184,0.207 0.16,0.524 -0.047,0.704 -0.097,0.082 -0.211,0.125 -0.328,0.125" /><path
                   id="path614"
                   style="fill:#bf4352;fill-opacity:1;fill-rule:nonzero;stroke:none"
                   d="m 317.16,369.16 c 0.004,-0.012 0.004,-0.023 0.008,-0.031 l 0.008,-0.07 c 0.051,-0.348 0.074,-0.754 0.144,-1.047 0.102,-0.239 0.149,-0.461 0.258,-0.731 l 0.422,-0.847 0.531,-0.825 c 0.403,-0.531 0.805,-1.07 1.285,-1.554 0.45,-0.508 0.973,-0.957 1.477,-1.422 0.535,-0.43 1.062,-0.875 1.641,-1.254 0.55,-0.41 1.156,-0.738 1.75,-1.086 l 0.91,-0.457 c 0.308,-0.145 0.625,-0.254 0.937,-0.383 0.309,-0.144 0.629,-0.203 0.949,-0.301 0.317,-0.109 0.633,-0.148 0.95,-0.191 0.32,-0.07 0.621,-0.066 0.922,-0.051 0.316,-0.023 0.582,0.067 0.855,0.129 l 0.207,0.047 0.207,0.09 c 0.156,0.074 0.356,0.144 0.473,0.219 l 0.367,0.214 0.344,0.262 c 0.441,0.371 0.691,0.824 0.742,1.336 0.062,0.512 -0.106,1.094 -0.41,1.621 -0.305,0.531 -0.735,1.024 -1.235,1.414 -0.496,0.379 -1.078,0.676 -1.613,0.742 -0.547,0.063 -0.93,-0.105 -1.199,-0.558 -0.258,-0.473 -0.344,-1.137 -0.348,-1.797 l -0.015,0.121 c 0.074,-0.359 0.214,-0.688 0.375,-0.84 0.132,-0.137 0.289,-0.156 0.586,-0.047 0.277,0.117 0.57,0.36 0.777,0.621 0.101,0.121 0.187,0.293 0.191,0.336 0.008,0.012 0,-0.011 0.012,-0.047 0.012,-0.058 0.062,-0.132 0.129,-0.171 0.133,-0.055 0.07,-0.024 0.035,-0.032 l -0.023,-0.004 c -0.27,-0.058 -0.539,0.114 -0.598,0.383 -0.059,0.274 0.113,0.539 0.387,0.602 0.031,0.004 0.062,0.008 0.093,0.008 0.172,0.003 0.344,0.07 0.661,-0.11 0.152,-0.101 0.261,-0.265 0.304,-0.429 0.032,-0.137 0.028,-0.266 0.012,-0.36 -0.07,-0.379 -0.219,-0.578 -0.367,-0.801 -0.305,-0.41 -0.672,-0.746 -1.168,-0.988 -0.246,-0.113 -0.543,-0.199 -0.879,-0.183 -0.332,0.011 -0.68,0.167 -0.914,0.382 -0.465,0.442 -0.633,0.946 -0.758,1.407 l -0.016,0.054 v 0.067 c -0.015,0.773 0.02,1.597 0.426,2.425 0.227,0.395 0.547,0.809 1.02,1.032 0.449,0.218 0.957,0.297 1.402,0.254 0.906,-0.09 1.66,-0.481 2.328,-0.946 0.656,-0.476 1.223,-1.07 1.664,-1.777 0.434,-0.699 0.75,-1.559 0.688,-2.496 -0.043,-0.942 -0.543,-1.844 -1.196,-2.422 l -0.5,-0.41 -0.562,-0.356 c -0.188,-0.113 -0.332,-0.168 -0.5,-0.254 l -0.285,-0.132 -0.317,-0.094 c -0.422,-0.125 -0.855,-0.258 -1.269,-0.25 l -0.629,-0.031 c -0.207,0 -0.402,0.035 -0.606,0.05 -0.402,0.039 -0.804,0.086 -1.179,0.196 -0.379,0.101 -0.774,0.168 -1.129,0.312 -0.363,0.137 -0.734,0.254 -1.086,0.403 l -1.043,0.476 c -0.668,0.36 -1.348,0.707 -1.973,1.133 -0.648,0.398 -1.246,0.863 -1.851,1.316 -0.578,0.496 -1.172,0.969 -1.699,1.532 -0.555,0.519 -1.047,1.125 -1.536,1.73 l -0.679,0.977 -0.582,1.078 c -0.18,0.386 -0.325,0.867 -0.469,1.304 -0.098,0.407 -0.121,0.731 -0.188,1.098" /><path
                   id="path616"
                   style="fill:#0c0a08;fill-opacity:1;fill-rule:nonzero;stroke:none"
                   d="m 329.75,363.188 0.074,0.003 c 0.114,0.012 0.184,0.02 0.34,-0.07 0.051,-0.035 0.109,-0.113 0.129,-0.195 0.012,-0.051 0.012,-0.094 0.012,-0.129 l -0.27,0.113 -0.012,0.227 z m -12.586,6.367 c -0.012,0 -0.023,-0.004 -0.035,-0.004 -0.207,-0.016 -0.359,-0.215 -0.34,-0.422 0,-0.024 0.012,-0.078 0.016,-0.102 0.019,-0.144 0.031,-0.269 0.047,-0.394 0.027,-0.254 0.054,-0.504 0.101,-0.707 0.07,-0.176 0.106,-0.281 0.141,-0.395 0.039,-0.125 0.082,-0.254 0.136,-0.394 l 0.434,-0.871 0.555,-0.864 c 0.429,-0.574 0.84,-1.117 1.332,-1.609 0.347,-0.398 0.758,-0.773 1.156,-1.133 l 0.609,-0.527 c 0.45,-0.363 0.911,-0.738 1.411,-1.067 0.464,-0.343 0.976,-0.644 1.476,-0.929 l 0.289,-0.168 0.934,-0.469 c 0.211,-0.102 0.418,-0.18 0.625,-0.262 l 0.336,-0.133 c 0.23,-0.105 0.468,-0.167 0.695,-0.23 0.098,-0.027 0.191,-0.051 0.285,-0.082 0.336,-0.113 0.668,-0.16 0.988,-0.203 0.36,-0.074 0.704,-0.07 1.02,-0.055 0.262,-0.027 0.527,0.043 0.762,0.102 l 0.816,0.273 c 0.125,0.055 0.25,0.11 0.336,0.164 l 0.359,0.211 0.383,0.289 c 0.528,0.446 0.828,0.992 0.887,1.598 0.07,0.558 -0.094,1.219 -0.457,1.848 -0.328,0.57 -0.789,1.097 -1.328,1.515 -0.606,0.461 -1.242,0.754 -1.801,0.82 -0.699,0.083 -1.23,-0.171 -1.562,-0.742 -0.258,-0.465 -0.391,-1.105 -0.403,-1.91 l -0.012,-0.004 0.016,-0.121 0.008,0.004 c 0.098,-0.402 0.266,-0.75 0.457,-0.941 0.324,-0.325 0.719,-0.227 0.984,-0.125 0.313,0.129 0.629,0.371 0.879,0.664 0.059,0.008 0.125,0.004 0.192,0.019 l 0.164,-0.031 c -0.012,-0.016 -0.02,-0.035 -0.032,-0.051 -0.324,-0.433 -0.652,-0.711 -1.054,-0.91 -0.239,-0.109 -0.469,-0.156 -0.696,-0.145 -0.238,0.008 -0.5,0.122 -0.679,0.282 -0.391,0.371 -0.535,0.812 -0.653,1.23 -0.011,0.711 0.004,1.504 0.387,2.281 0.242,0.422 0.524,0.711 0.84,0.86 0.371,0.18 0.809,0.262 1.211,0.219 0.707,-0.071 1.391,-0.348 2.148,-0.875 0.625,-0.457 1.153,-1.02 1.559,-1.672 0.473,-0.758 0.684,-1.52 0.633,-2.274 -0.035,-0.785 -0.446,-1.613 -1.067,-2.168 l -0.492,-0.398 -0.523,-0.324 c -0.102,-0.063 -0.192,-0.106 -0.285,-0.149 l -0.461,-0.219 -0.262,-0.078 c -0.43,-0.125 -0.809,-0.238 -1.156,-0.23 l -0.657,-0.031 c -0.101,0 -0.214,0.011 -0.332,0.027 l -0.222,0.023 c -0.364,0.036 -0.754,0.079 -1.106,0.18 l -0.351,0.086 c -0.266,0.066 -0.516,0.125 -0.743,0.215 l -0.382,0.141 c -0.235,0.082 -0.473,0.164 -0.696,0.257 l -1.265,0.602 c -0.571,0.301 -1.157,0.613 -1.688,0.973 -0.562,0.347 -1.093,0.75 -1.605,1.132 l -0.563,0.457 c -0.449,0.379 -0.914,0.77 -1.32,1.203 -0.543,0.512 -1.008,1.079 -1.52,1.715 l -0.66,0.953 -0.558,1.04 c -0.133,0.289 -0.258,0.668 -0.375,1.035 l -0.071,0.211 c -0.05,0.218 -0.082,0.429 -0.113,0.64 -0.016,0.133 -0.035,0.266 -0.062,0.406 -0.036,0.204 -0.227,0.34 -0.434,0.301 -0.203,-0.035 -0.34,-0.23 -0.305,-0.433 0.024,-0.133 0.043,-0.254 0.059,-0.379 0.035,-0.235 0.07,-0.469 0.137,-0.742 l 0.074,-0.235 c 0.125,-0.39 0.258,-0.793 0.418,-1.14 l 0.59,-1.098 0.703,-1.008 c 0.543,-0.68 1.023,-1.266 1.586,-1.793 0.422,-0.449 0.902,-0.855 1.367,-1.25 l 0.594,-0.48 c 0.527,-0.395 1.07,-0.809 1.652,-1.164 0.547,-0.375 1.152,-0.696 1.742,-1.008 l 0.25,-0.133 1.063,-0.488 c 0.25,-0.106 0.5,-0.196 0.75,-0.282 l 0.363,-0.128 c 0.266,-0.114 0.559,-0.18 0.84,-0.247 l 0.32,-0.082 c 0.406,-0.117 0.836,-0.164 1.242,-0.203 l 0.203,-0.023 c 0.145,-0.016 0.29,-0.031 0.438,-0.031 l 0.648,0.031 c 0.477,-0.016 0.891,0.125 1.328,0.254 l 0.344,0.105 0.516,0.239 c 0.113,0.054 0.223,0.105 0.355,0.187 l 0.571,0.356 0.539,0.437 c 0.793,0.703 1.285,1.707 1.332,2.695 0.062,0.907 -0.192,1.821 -0.746,2.715 -0.457,0.735 -1.051,1.367 -1.762,1.883 -0.875,0.609 -1.668,0.93 -2.508,1.012 -0.543,0.058 -1.117,-0.047 -1.609,-0.289 -0.453,-0.211 -0.844,-0.602 -1.176,-1.18 -0.445,-0.906 -0.492,-1.793 -0.477,-2.621 l 0.012,-0.156 c 0.152,-0.559 0.344,-1.133 0.879,-1.637 0.313,-0.289 0.746,-0.469 1.16,-0.485 0.344,-0.023 0.699,0.055 1.051,0.219 0.512,0.25 0.937,0.61 1.309,1.106 0.191,0.281 0.355,0.527 0.433,0.953 0.031,0.16 0.024,0.34 -0.012,0.512 -0.074,0.273 -0.242,0.511 -0.464,0.66 -0.383,0.215 -0.633,0.195 -0.801,0.179 -0.129,-0.007 -0.188,-0.015 -0.242,-0.027 -0.473,-0.102 -0.774,-0.57 -0.672,-1.043 0.027,-0.129 0.082,-0.242 0.156,-0.34 -0.148,-0.144 -0.312,-0.258 -0.457,-0.32 -0.133,-0.051 -0.176,-0.043 -0.176,-0.043 -0.066,0.07 -0.176,0.258 -0.25,0.547 0.012,0.664 0.117,1.191 0.301,1.527 0.184,0.309 0.406,0.418 0.828,0.371 0.422,-0.054 0.934,-0.293 1.43,-0.672 0.461,-0.359 0.851,-0.808 1.133,-1.296 0.281,-0.485 0.414,-0.989 0.363,-1.391 -0.039,-0.422 -0.242,-0.785 -0.61,-1.094 l -0.332,-0.254 -0.324,-0.187 c -0.07,-0.043 -0.16,-0.078 -0.25,-0.117 l -0.703,-0.239 c -0.203,-0.051 -0.375,-0.093 -0.57,-0.078 -0.356,-0.015 -0.61,-0.015 -0.875,0.043 -0.352,0.047 -0.633,0.086 -0.906,0.18 -0.118,0.035 -0.219,0.062 -0.325,0.09 -0.199,0.054 -0.394,0.105 -0.589,0.195 l -0.368,0.145 c -0.191,0.074 -0.379,0.148 -0.566,0.234 l -1.176,0.613 c -0.5,0.289 -0.976,0.567 -1.422,0.895 -0.484,0.32 -0.933,0.683 -1.367,1.035 l -0.578,0.5 c -0.399,0.363 -0.777,0.703 -1.113,1.09 -0.469,0.472 -0.864,0.996 -1.246,1.504 l -0.54,0.828 -0.398,0.808 c -0.039,0.098 -0.074,0.207 -0.105,0.313 -0.043,0.137 -0.086,0.269 -0.145,0.402 -0.023,0.113 -0.043,0.336 -0.07,0.555 -0.012,0.133 -0.028,0.269 -0.047,0.394 l -0.02,0.118 c -0.015,0.191 -0.172,0.328 -0.363,0.328" /><path
                   id="path618"
                   style="fill:#d9baae;fill-opacity:1;fill-rule:nonzero;stroke:none"
                   d="m 296.457,389.086 c -2.855,1.461 -5.367,4.16 -4.387,7.484 0.785,2.668 4.84,6.766 7.825,6.672 -1.418,-1.707 -3.485,-3.351 -2.602,-5.894 0.477,-1.379 1.352,-2.832 2.641,-2.793 0,0 0.152,-1.371 -0.762,-2.594 -0.914,-1.219 -2.715,-2.875 -2.715,-2.875" /><path
                   id="path620"
                   style="fill:#0c0a08;fill-opacity:1;fill-rule:nonzero;stroke:none"
                   d="m 296.352,389.883 c -2.379,1.344 -4.489,3.687 -3.661,6.504 0.555,1.871 3.043,4.738 5.411,5.797 -1.157,-1.356 -2.164,-2.914 -1.426,-5.051 0.613,-1.758 1.519,-2.852 2.597,-3.149 -0.043,-0.422 -0.187,-1.05 -0.621,-1.632 -0.636,-0.848 -1.746,-1.942 -2.3,-2.469 m 3.441,14.012 c -3.387,0 -7.535,-4.387 -8.348,-7.141 -1.097,-3.738 1.715,-6.711 4.715,-8.246 l 0.402,-0.207 0.333,0.308 c 0.078,0.071 1.859,1.711 2.796,2.965 1.055,1.41 0.895,2.985 0.891,3.051 l -0.066,0.594 -0.602,-0.016 c -1.105,0 -1.816,1.805 -2.008,2.359 -0.617,1.778 0.485,3.008 1.762,4.434 0.25,0.277 0.496,0.551 0.727,0.828 l 0.847,1.024 z" /></g></g></g></g></g></g></g></svg>