<?xml version="1.0" encoding="UTF-8" standalone="no"?>
<svg
   xmlns:dc="http://purl.org/dc/elements/1.1/"
   xmlns:cc="http://creativecommons.org/ns#"
   xmlns:rdf="http://www.w3.org/1999/02/22-rdf-syntax-ns#"
   xmlns:svg="http://www.w3.org/2000/svg"
   xmlns="http://www.w3.org/2000/svg"
   id="svg28304"
   version="1.1"
   viewBox="0 0 210 297"
   height="297mm"
   width="210mm">
  <defs
     id="defs28298">
    <clipPath
       id="clipPath13166"
       clipPathUnits="userSpaceOnUse">
      <path
         id="path13164"
         d="m 473.721,229.836 h 49.147 V 350.92 h -49.147 z" />
    </clipPath>
    <clipPath
       id="clipPath13182"
       clipPathUnits="userSpaceOnUse">
      <path
         id="path13180"
         d="m 499.52,270.507 h 9.486 v -12.799 h -9.486 z" />
    </clipPath>
    <clipPath
       id="clipPath13186"
       clipPathUnits="userSpaceOnUse">
      <path
         id="path13184"
         d="m 499.52,257.708 h 9.486 v 12.8 h -9.486 z" />
    </clipPath>
    <clipPath
       id="clipPath13206"
       clipPathUnits="userSpaceOnUse">
      <path
         id="path13204"
         d="m 495.81,267.018 h 3.713 v -6.414 h -3.713 z" />
    </clipPath>
    <clipPath
       id="clipPath13210"
       clipPathUnits="userSpaceOnUse">
      <path
         id="path13208"
         d="m 495.81,260.604 h 3.714 v 6.414 h -3.714 z" />
    </clipPath>
    <clipPath
       id="clipPath13334"
       clipPathUnits="userSpaceOnUse">
      <path
         id="path13332"
         d="m 503.443,274.906 h 16.249 v -15.674 h -16.249 z" />
    </clipPath>
    <clipPath
       id="clipPath13338"
       clipPathUnits="userSpaceOnUse">
      <path
         id="path13336"
         d="m 503.443,259.232 h 16.249 v 15.674 h -16.249 z" />
    </clipPath>
    <clipPath
       id="clipPath13358"
       clipPathUnits="userSpaceOnUse">
      <path
         id="path13356"
         d="m 504.035,273.174 h 7.727 v -15.466 h -7.727 z" />
    </clipPath>
    <clipPath
       id="clipPath13362"
       clipPathUnits="userSpaceOnUse">
      <path
         id="path13360"
         d="m 504.035,257.708 h 7.727 v 15.466 h -7.727 z" />
    </clipPath>
    <clipPath
       id="clipPath13382"
       clipPathUnits="userSpaceOnUse">
      <path
         id="path13380"
         d="m 497.686,264.113 h 6.264 v -8.942 h -6.264 z" />
    </clipPath>
    <clipPath
       id="clipPath13386"
       clipPathUnits="userSpaceOnUse">
      <path
         id="path13384"
         d="m 497.686,255.171 h 6.265 v 8.942 h -6.265 z" />
    </clipPath>
    <clipPath
       id="clipPath13454"
       clipPathUnits="userSpaceOnUse">
      <path
         id="path13452"
         d="m 503.443,321.423 h 16.249 v -15.674 h -16.249 z" />
    </clipPath>
    <clipPath
       id="clipPath13458"
       clipPathUnits="userSpaceOnUse">
      <path
         id="path13456"
         d="m 503.443,305.749 h 16.249 v 15.674 h -16.249 z" />
    </clipPath>
    <clipPath
       id="clipPath13478"
       clipPathUnits="userSpaceOnUse">
      <path
         id="path13476"
         d="m 504.035,322.947 h 7.727 v -15.465 h -7.727 z" />
    </clipPath>
    <clipPath
       id="clipPath13482"
       clipPathUnits="userSpaceOnUse">
      <path
         id="path13480"
         d="m 504.035,307.482 h 7.727 v 15.466 h -7.727 z" />
    </clipPath>
    <clipPath
       id="clipPath13502"
       clipPathUnits="userSpaceOnUse">
      <path
         id="path13500"
         d="m 496.739,325.418 h 7.454 v -8.874 h -7.454 z" />
    </clipPath>
    <clipPath
       id="clipPath13506"
       clipPathUnits="userSpaceOnUse">
      <path
         id="path13504"
         d="m 496.739,316.544 h 7.454 v 8.874 h -7.454 z" />
    </clipPath>
    <clipPath
       id="clipPath13534"
       clipPathUnits="userSpaceOnUse">
      <path
         id="path13532"
         d="m 493.37,325.038 h 15.549 V 307.856 H 493.37 Z" />
    </clipPath>
    <clipPath
       id="clipPath13538"
       clipPathUnits="userSpaceOnUse">
      <path
         id="path13536"
         d="m 493.37,307.856 h 15.549 v 17.183 H 493.37 Z" />
    </clipPath>
    <clipPath
       id="clipPath13558"
       clipPathUnits="userSpaceOnUse">
      <path
         id="path13556"
         d="m 493.676,324.89 h 6.859 v -14.748 h -6.859 z" />
    </clipPath>
    <clipPath
       id="clipPath13562"
       clipPathUnits="userSpaceOnUse">
      <path
         id="path13560"
         d="m 493.676,310.142 h 6.859 v 14.748 h -6.859 z" />
    </clipPath>
    <clipPath
       id="clipPath13582"
       clipPathUnits="userSpaceOnUse">
      <path
         id="path13580"
         d="m 490.949,327.072 h 4.19 v -9.003 h -4.19 z" />
    </clipPath>
    <clipPath
       id="clipPath13586"
       clipPathUnits="userSpaceOnUse">
      <path
         id="path13584"
         d="m 490.949,318.069 h 4.19 v 9.004 h -4.19 z" />
    </clipPath>
  </defs>
  <metadata
     id="metadata28301">
    <rdf:RDF>
      <cc:Work
         rdf:about="">
        <dc:format>image/svg+xml</dc:format>
        <dc:type
           rdf:resource="http://purl.org/dc/dcmitype/StillImage" />
        <dc:title></dc:title>
      </cc:Work>
    </rdf:RDF>
  </metadata>
  <g
     id="layer1">
    <g
       transform="matrix(0.35277777,0,0,-0.35277777,-64.690768,246.71879)"
       clip-path="url(#clipPath13166)"
       id="g13162">
      <g
         transform="translate(489.2822,257.5769)"
         id="g13168">
        <path
           id="path13170"
           style="fill:#ba93d0;fill-opacity:1;fill-rule:nonzero;stroke:none"
           d="m 0,0 c 2.592,0.713 3.373,6.011 3.354,8.537 -0.038,4.889 -2.49,6.572 -6.1,9.268 C 3.68,18.064 9.752,17.156 14.559,12.689 18.957,8.604 22.578,1.563 21.18,-4.692 20.896,-2.515 18.768,1.505 16.494,2.324 13.443,3.423 12.678,-0.67 12.348,-3.165 11.273,0.78 6.589,0.936 5.328,-3.002 5.396,-2.439 5.052,-1.934 5.004,-1.396 3.346,-1.173 2.265,-3.376 1.83,-4.878 1.749,-3.207 0.806,-1.506 0,0" />
      </g>
      <g
         transform="translate(490.1865,257.2634)"
         id="g13172">
        <path
           id="path13174"
           style="fill:#0c0a08;fill-opacity:1;fill-rule:nonzero;stroke:none"
           d="m 0,0 c 0.407,-0.768 0.818,-1.58 1.119,-2.419 0.629,1.102 1.636,2.16 3.068,1.982 l 0.515,-0.07 0.021,-0.236 c 0.802,1.003 1.928,1.58 3.192,1.58 1.277,0 2.42,-0.597 3.218,-1.613 0.433,1.941 1.352,4.247 3.497,4.247 0.374,0 0.771,-0.075 1.181,-0.222 1.625,-0.586 3.154,-2.562 4.117,-4.537 -0.106,5.28 -3.299,10.641 -6.716,13.814 -3.657,3.4 -8.402,4.983 -14.931,4.983 H -1.756 C 1.101,15.316 3.065,13.326 3.099,8.855 3.115,6.787 2.563,1.525 0,0 m 1.55,-4.745 -1.274,0.149 c -0.071,1.462 -0.917,3.041 -1.663,4.434 l -0.474,0.887 0.784,0.215 c 1.999,0.55 2.898,5.042 2.876,7.906 -0.033,4.424 -2.101,5.966 -5.528,8.519 l -1.778,1.328 1.83,0.075 c 0.656,0.026 1.31,0.041 1.958,0.041 6.878,0 11.903,-1.694 15.816,-5.33 4.322,-4.014 8.297,-11.36 6.813,-18 l -1.279,0.058 c -0.267,2.053 -2.282,5.775 -4.262,6.489 -0.266,0.096 -0.515,0.145 -0.739,0.145 -1.866,0 -2.375,-3.845 -2.542,-5.108 l -1.272,-0.085 c -0.423,1.554 -1.562,2.559 -2.901,2.559 -1.293,0 -2.394,-0.929 -2.873,-2.424 L 3.778,-2.61 c 0.023,0.186 -0.05,0.408 -0.133,0.666 -0.02,0.06 -0.041,0.123 -0.061,0.187 C 2.707,-2.009 1.945,-3.383 1.55,-4.745" />
      </g>
      <g
         id="g13176">
        <g
           id="g13178" />
        <g
           id="g13198">
          <g
             style="opacity:0.5"
             id="g13196"
             clip-path="url(#clipPath13182)">
            <g
               id="g13194">
              <g
                 id="g13192"
                 clip-path="url(#clipPath13186)">
                <g
                   id="g13190"
                   transform="translate(508.7666,258.0124)">
                  <path
                     id="path13188"
                     style="fill:#cc96d1;fill-opacity:1;fill-rule:nonzero;stroke:none"
                     d="m 0,0 c 1.65,6.535 -5.65,8.922 -9.247,12.495 2.432,-2.674 1.707,-8.29 1.798,-11.712 2.885,0.952 5.803,2.38 7.297,-1.088" />
                </g>
              </g>
            </g>
          </g>
        </g>
      </g>
      <g
         id="g13200">
        <g
           id="g13202" />
        <g
           id="g13222">
          <g
             style="opacity:0.5"
             id="g13220"
             clip-path="url(#clipPath13206)">
            <g
               id="g13218">
              <g
                 id="g13216"
                 clip-path="url(#clipPath13210)">
                <g
                   id="g13214"
                   transform="translate(498.5537,260.6042)">
                  <path
                     id="path13212"
                     style="fill:#cc96d1;fill-opacity:1;fill-rule:nonzero;stroke:none"
                     d="M 0,0 C 1.292,1.149 1.144,4.839 0.426,6.414 -0.399,4.455 -1.009,1.954 -2.744,0.61" />
                </g>
              </g>
            </g>
          </g>
        </g>
      </g>
      <g
         transform="translate(489.604,259.1023)"
         id="g13224">
        <path
           id="path13226"
           style="fill:#bf4352;fill-opacity:1;fill-rule:nonzero;stroke:none"
           d="m 0,0 c -0.52,0.194 -1.094,-0.071 -1.286,-0.589 -1.365,-3.673 -4.115,-5.867 -7.665,-6.279 -0.111,1.181 -0.521,2.33 -1.223,3.16 -0.993,1.176 -2.382,1.522 -3.807,0.955 -0.513,-0.204 -0.763,-0.786 -0.559,-1.299 0.205,-0.512 0.785,-0.765 1.299,-0.558 0.619,0.245 1.108,0.121 1.54,-0.389 0.406,-0.48 0.652,-1.182 0.742,-1.913 -0.598,0.038 -1.211,0.117 -1.841,0.247 -0.541,0.11 -1.07,-0.236 -1.181,-0.778 -0.111,-0.54 0.237,-1.07 0.778,-1.181 0.702,-0.145 1.384,-0.22 2.057,-0.265 -0.061,-0.164 -0.132,-0.319 -0.217,-0.46 -0.506,-0.832 -1.392,-1.113 -2.636,-0.826 -0.537,0.118 -1.074,-0.216 -1.197,-0.754 -0.122,-0.539 0.215,-1.074 0.754,-1.197 0.453,-0.103 0.889,-0.153 1.306,-0.153 1.499,0 2.731,0.656 3.482,1.891 0.272,0.449 0.461,0.963 0.582,1.505 4.446,0.394 7.986,3.09 9.661,7.597 C 0.781,-0.769 0.518,-0.192 0,0" />
      </g>
      <g
         transform="translate(475.3872,248.4509)"
         id="g13228">
        <path
           id="path13230"
           style="fill:#0c0a08;fill-opacity:1;fill-rule:nonzero;stroke:none"
           d="m 0,0 c -0.233,0 -0.44,-0.163 -0.492,-0.389 -0.061,-0.268 0.109,-0.537 0.378,-0.598 1.871,-0.42 3.406,0.125 4.249,1.51 0.23,0.378 0.405,0.833 0.522,1.355 l 0.079,0.356 0.365,0.033 c 4.293,0.379 7.659,3.031 9.236,7.272 0.046,0.126 0.041,0.262 -0.014,0.383 -0.056,0.122 -0.156,0.214 -0.281,0.261 C 13.783,10.279 13.493,10.14 13.399,9.889 11.98,6.071 9.112,3.727 5.323,3.286 L 4.815,3.228 4.768,3.736 C 4.661,4.878 4.268,5.902 3.661,6.62 2.815,7.621 1.634,7.917 0.421,7.434 0.297,7.385 0.199,7.29 0.146,7.167 0.094,7.045 0.092,6.908 0.141,6.784 0.241,6.533 0.535,6.401 0.79,6.505 1.615,6.831 2.329,6.647 2.897,5.976 3.342,5.449 3.646,4.677 3.754,3.8 L 3.828,3.202 3.226,3.24 C 2.585,3.281 1.943,3.367 1.316,3.497 1.049,3.541 0.78,3.371 0.726,3.107 0.699,2.977 0.724,2.844 0.798,2.731 0.871,2.62 0.984,2.544 1.114,2.517 1.715,2.394 2.348,2.313 3.104,2.262 L 3.771,2.217 3.54,1.59 C 3.468,1.395 3.382,1.21 3.281,1.043 2.665,0.03 1.557,-0.347 0.105,-0.011 0.074,-0.004 0.037,0 0,0 m 1.081,-2.128 c -0.455,0 -0.931,0.056 -1.417,0.166 -0.807,0.184 -1.314,0.989 -1.131,1.796 0.182,0.792 0.993,1.305 1.792,1.131 C 1.229,0.755 1.853,0.873 2.257,1.331 1.778,1.382 1.339,1.45 0.913,1.538 0.521,1.618 0.183,1.848 -0.038,2.182 -0.258,2.517 -0.334,2.917 -0.254,3.309 -0.092,4.101 0.687,4.647 1.517,4.477 1.888,4.399 2.264,4.34 2.641,4.296 2.526,4.715 2.353,5.07 2.134,5.33 1.884,5.625 1.689,5.662 1.548,5.662 1.436,5.662 1.305,5.634 1.16,5.576 0.416,5.277 -0.488,5.662 -0.788,6.414 -0.936,6.787 -0.93,7.194 -0.772,7.562 -0.614,7.931 -0.321,8.215 0.051,8.363 1.667,9.006 3.302,8.596 4.425,7.266 5.066,6.508 5.509,5.486 5.697,4.35 c 3.155,0.533 5.546,2.607 6.765,5.886 0.281,0.754 1.174,1.162 1.93,0.884 0.375,-0.14 0.673,-0.417 0.84,-0.782 C 15.399,9.974 15.414,9.566 15.274,9.191 13.601,4.689 10.067,1.833 5.543,1.307 5.407,0.822 5.221,0.385 4.99,0.004 4.154,-1.371 2.766,-2.128 1.081,-2.128" />
      </g>
      <g
         transform="translate(484.2251,232.7751)"
         id="g13232">
        <path
           id="path13234"
           style="fill:#bf4352;fill-opacity:1;fill-rule:nonzero;stroke:none"
           d="M 0,0 C -0.282,0 -0.562,0.118 -0.76,0.35 -1.119,0.769 -1.071,1.399 -0.651,1.759 1.417,3.532 4.364,4.876 6.821,5.83 5.772,7.019 5.156,8.375 5.022,9.818 c -0.2,2.155 0.649,4.392 2.455,6.471 0.36,0.419 0.993,0.464 1.41,0.1 0.417,-0.363 0.462,-0.993 0.099,-1.41 C 7.547,13.32 6.865,11.601 7.014,10.004 7.144,8.602 7.911,7.335 9.294,6.237 9.579,6.012 9.718,5.65 9.66,5.293 9.601,4.935 9.354,4.637 9.012,4.514 5.086,3.097 2.351,1.699 0.65,0.241 0.462,0.079 0.23,0 0,0" />
      </g>
      <g
         transform="translate(492.4565,248.9099)"
         id="g13236">
        <path
           id="path13238"
           style="fill:#0c0a08;fill-opacity:1;fill-rule:nonzero;stroke:none"
           d="m 0,0 c -0.145,0 -0.282,-0.062 -0.376,-0.172 -1.715,-1.974 -2.522,-4.083 -2.335,-6.099 0.124,-1.338 0.688,-2.584 1.676,-3.703 l 0.474,-0.538 -0.668,-0.259 c -3.298,-1.281 -5.695,-2.583 -7.328,-3.985 -0.102,-0.087 -0.163,-0.208 -0.173,-0.341 -0.011,-0.132 0.031,-0.261 0.118,-0.363 0.15,-0.175 0.387,-0.328 0.705,-0.055 1.748,1.499 4.534,2.926 8.518,4.365 0.171,0.061 0.295,0.21 0.324,0.389 0.029,0.178 -0.041,0.36 -0.183,0.472 -1.494,1.185 -2.324,2.569 -2.468,4.112 -0.161,1.736 0.563,3.585 2.093,5.349 0.088,0.1 0.131,0.229 0.122,0.362 -0.01,0.133 -0.07,0.255 -0.171,0.343 C 0.21,-0.021 0.085,0 0,0 m -8.231,-16.635 c -0.44,0 -0.855,0.192 -1.141,0.525 -0.259,0.303 -0.386,0.691 -0.356,1.09 0.031,0.4 0.216,0.763 0.52,1.024 1.611,1.382 3.898,2.662 6.979,3.905 -0.857,1.139 -1.354,2.391 -1.479,3.729 -0.212,2.293 0.679,4.66 2.576,6.844 0.518,0.6 1.515,0.675 2.116,0.149 C 1.286,0.368 1.468,0.004 1.496,-0.396 1.524,-0.795 1.395,-1.182 1.132,-1.484 -0.215,-3.036 -0.855,-4.627 -0.72,-6.085 c 0.117,-1.261 0.822,-2.411 2.094,-3.421 0.426,-0.338 0.635,-0.881 0.548,-1.417 -0.088,-0.536 -0.46,-0.984 -0.972,-1.169 -3.868,-1.395 -6.552,-2.763 -8.206,-4.181 -0.27,-0.233 -0.617,-0.362 -0.975,-0.362" />
      </g>
      <g
         transform="translate(500.5527,250.3513)"
         id="g13240">
        <path
           id="path13242"
           style="fill:#bf4352;fill-opacity:1;fill-rule:nonzero;stroke:none"
           d="m 0,0 c 0.049,-0.345 0.072,-0.751 0.142,-1.044 0.104,-0.24 0.149,-0.463 0.259,-0.732 l 0.42,-0.848 0.534,-0.824 c 0.4,-0.531 0.803,-1.069 1.285,-1.553 0.447,-0.511 0.972,-0.957 1.476,-1.422 0.535,-0.431 1.064,-0.876 1.639,-1.254 0.554,-0.411 1.156,-0.741 1.749,-1.087 l 0.913,-0.458 c 0.308,-0.144 0.624,-0.253 0.937,-0.382 0.31,-0.144 0.63,-0.203 0.948,-0.3 0.318,-0.11 0.633,-0.15 0.949,-0.192 0.321,-0.07 0.624,-0.066 0.925,-0.05 0.316,-0.026 0.58,0.067 0.853,0.129 l 0.209,0.045 0.206,0.09 c 0.156,0.074 0.354,0.148 0.474,0.221 l 0.364,0.214 0.346,0.263 c 0.439,0.371 0.691,0.825 0.74,1.336 0.063,0.511 -0.102,1.093 -0.41,1.621 -0.305,0.532 -0.734,1.023 -1.232,1.412 -0.497,0.378 -1.078,0.676 -1.616,0.743 -0.545,0.06 -0.929,-0.107 -1.196,-0.561 -0.258,-0.469 -0.346,-1.134 -0.35,-1.796 l -0.015,0.121 c 0.073,-0.358 0.217,-0.686 0.373,-0.838 0.137,-0.137 0.291,-0.159 0.589,-0.045 0.277,0.116 0.569,0.357 0.776,0.62 0.101,0.122 0.188,0.292 0.193,0.335 0.005,0.012 -0.001,-0.011 0.012,-0.045 0.01,-0.06 0.061,-0.133 0.126,-0.172 0.133,-0.059 0.073,-0.026 0.038,-0.033 l -0.023,-0.005 c -0.272,-0.059 -0.539,0.113 -0.599,0.385 -0.058,0.271 0.114,0.539 0.386,0.598 0.031,0.007 0.064,0.011 0.096,0.012 0.171,0.004 0.34,0.067 0.657,-0.112 0.155,-0.103 0.264,-0.265 0.306,-0.427 0.03,-0.14 0.028,-0.269 0.011,-0.361 -0.071,-0.378 -0.219,-0.58 -0.365,-0.799 -0.308,-0.41 -0.673,-0.748 -1.168,-0.99 C 11.708,-8.3 11.412,-8.387 11.078,-8.37 10.744,-8.357 10.396,-8.202 10.163,-7.986 9.697,-7.547 9.53,-7.04 9.404,-6.581 L 9.39,-6.526 9.389,-6.459 c -0.015,0.774 0.019,1.598 0.425,2.425 0.229,0.396 0.548,0.811 1.019,1.031 0.451,0.222 0.957,0.299 1.405,0.253 0.907,-0.089 1.659,-0.478 2.325,-0.941 0.659,-0.478 1.224,-1.073 1.665,-1.78 0.436,-0.701 0.752,-1.557 0.689,-2.498 -0.044,-0.938 -0.543,-1.843 -1.194,-2.421 l -0.502,-0.411 -0.562,-0.352 c -0.188,-0.113 -0.332,-0.167 -0.5,-0.254 l -0.286,-0.135 -0.315,-0.095 c -0.424,-0.125 -0.855,-0.255 -1.27,-0.247 l -0.63,-0.033 c -0.207,0 -0.402,0.036 -0.604,0.053 -0.404,0.039 -0.807,0.086 -1.181,0.195 -0.378,0.1 -0.773,0.168 -1.129,0.314 -0.361,0.133 -0.733,0.251 -1.086,0.401 l -1.041,0.477 c -0.67,0.358 -1.349,0.705 -1.973,1.132 -0.648,0.397 -1.246,0.862 -1.852,1.318 -0.577,0.494 -1.172,0.967 -1.7,1.527 -0.555,0.523 -1.048,1.127 -1.536,1.734 l -0.679,0.975 -0.581,1.076 c -0.181,0.39 -0.325,0.869 -0.469,1.308 -0.099,0.406 -0.122,0.727 -0.188,1.095 -0.115,0.648 0.317,1.266 0.965,1.381 0.647,0.115 1.265,-0.317 1.38,-0.965 0.001,-0.011 0.003,-0.023 0.006,-0.034 z" />
      </g>
      <g
         transform="translate(513.4062,244.2019)"
         id="g13244">
        <path
           id="path13246"
           style="fill:#0c0a08;fill-opacity:1;fill-rule:nonzero;stroke:none"
           d="M 0,0 0.24,-0.101 0.218,-0.37 c 0.02,0.058 0.037,0.121 0.051,0.192 0.002,0.02 0.014,0.101 -0.01,0.213 C 0.241,0.102 0.184,0.182 0.112,0.229 0.062,0.257 0.02,0.272 -0.016,0.281 Z m -14.041,6.862 c -0.048,0 -0.096,-0.004 -0.144,-0.012 -0.442,-0.079 -0.739,-0.504 -0.661,-0.947 0.026,-0.137 0.044,-0.269 0.063,-0.402 0.031,-0.212 0.06,-0.425 0.121,-0.67 l 0.061,-0.185 c 0.119,-0.367 0.242,-0.747 0.383,-1.053 l 0.572,-1.057 0.656,-0.938 c 0.494,-0.614 0.96,-1.179 1.486,-1.676 0.423,-0.447 0.888,-0.84 1.338,-1.22 l 0.562,-0.455 c 0.511,-0.387 1.041,-0.786 1.59,-1.123 0.544,-0.372 1.132,-0.684 1.701,-0.985 l 0.253,-0.135 1.021,-0.468 c 0.217,-0.093 0.452,-0.175 0.686,-0.257 l 0.374,-0.133 c 0.237,-0.097 0.488,-0.157 0.752,-0.219 l 0.342,-0.084 c 0.361,-0.105 0.751,-0.149 1.121,-0.185 l 0.219,-0.022 c 0.112,-0.014 0.225,-0.028 0.34,-0.029 l 0.62,0.033 c 0.397,0.001 0.766,0.109 1.156,0.224 l 0.75,0.303 c 0.092,0.044 0.185,0.087 0.292,0.151 l 0.555,0.348 0.464,0.384 c 0.611,0.543 1.02,1.37 1.056,2.148 C 3.74,-1.042 3.527,-0.276 3.056,0.48 2.65,1.132 2.123,1.695 1.49,2.154 0.737,2.679 0.055,2.957 -0.651,3.026 -1.066,3.066 -1.489,2.99 -1.855,2.81 -2.181,2.658 -2.459,2.371 -2.714,1.928 -3.085,1.172 -3.103,0.379 -3.09,-0.303 c 0.117,-0.449 0.263,-0.889 0.657,-1.261 0.174,-0.162 0.439,-0.273 0.672,-0.282 h 0.014 c 0.268,0 0.475,0.05 0.693,0.151 0.396,0.193 0.724,0.471 1.026,0.874 0.024,0.038 0.048,0.073 0.07,0.107 l -0.195,-0.001 c -0.046,-0.006 -0.103,-0.013 -0.159,-0.014 l -0.032,-0.046 -0.022,0.007 c -0.239,-0.27 -0.544,-0.5 -0.832,-0.62 -0.472,-0.182 -0.749,-0.123 -0.999,0.125 -0.271,0.265 -0.407,0.737 -0.454,0.937 l -0.01,-0.001 -0.016,0.121 0.014,0.002 c 0.012,0.807 0.144,1.446 0.395,1.901 0.341,0.582 0.861,0.829 1.566,0.753 C -0.14,2.381 0.498,2.09 1.1,1.632 1.642,1.209 2.101,0.684 2.43,0.109 2.794,-0.516 2.956,-1.175 2.887,-1.744 2.83,-2.339 2.528,-2.888 2.017,-3.32 L 1.656,-3.596 1.254,-3.835 C 1.171,-3.886 1.047,-3.941 0.922,-3.995 L 0.534,-4.166 0.105,-4.271 c -0.231,-0.057 -0.502,-0.124 -0.814,-0.099 -0.061,-0.007 -0.174,-0.011 -0.288,-0.011 -0.254,0 -0.472,0.022 -0.686,0.069 -0.312,0.04 -0.644,0.083 -0.991,0.203 -0.083,0.025 -0.179,0.05 -0.273,0.076 -0.23,0.061 -0.468,0.126 -0.71,0.237 l -0.324,0.129 c -0.206,0.08 -0.413,0.16 -0.615,0.255 l -1.231,0.641 c -0.499,0.288 -1.015,0.585 -1.495,0.943 -0.481,0.314 -0.945,0.691 -1.394,1.055 l -0.607,0.526 c -0.398,0.36 -0.81,0.733 -1.173,1.148 -0.476,0.478 -0.886,1.022 -1.282,1.548 l -0.569,0.872 -0.441,0.886 c -0.068,0.164 -0.11,0.293 -0.15,0.417 -0.036,0.112 -0.069,0.22 -0.118,0.332 -0.069,0.265 -0.097,0.518 -0.125,0.77 -0.013,0.127 -0.027,0.253 -0.044,0.371 -0.008,0.056 -0.015,0.091 -0.018,0.126 -0.065,0.356 -0.403,0.639 -0.798,0.639 M -1.186,-6.143 h -0.009 c -0.15,0 -0.293,0.016 -0.437,0.034 l -0.198,0.02 C -2.242,-6.049 -2.673,-6 -3.086,-5.88 l -0.312,0.077 c -0.283,0.067 -0.574,0.135 -0.853,0.25 l -0.351,0.124 c -0.25,0.088 -0.5,0.176 -0.741,0.28 l -1.322,0.626 c -0.587,0.31 -1.194,0.632 -1.757,1.018 -0.564,0.346 -1.108,0.756 -1.635,1.153 l -0.592,0.481 c -0.466,0.393 -0.948,0.8 -1.385,1.263 -0.546,0.514 -1.029,1.1 -1.556,1.756 l -0.694,0.997 -0.604,1.112 c -0.172,0.368 -0.301,0.77 -0.426,1.159 l -0.069,0.21 c -0.074,0.299 -0.108,0.533 -0.142,0.769 -0.018,0.124 -0.036,0.247 -0.059,0.376 -0.15,0.851 0.419,1.666 1.269,1.817 0.856,0.158 1.666,-0.43 1.815,-1.269 l 0.018,-0.117 c 0.018,-0.127 0.033,-0.261 0.046,-0.395 0.025,-0.22 0.047,-0.44 0.089,-0.616 0.038,-0.072 0.08,-0.203 0.123,-0.338 0.035,-0.108 0.07,-0.217 0.119,-0.338 l 0.409,-0.824 0.512,-0.786 c 0.386,-0.51 0.781,-1.034 1.236,-1.492 0.351,-0.4 0.729,-0.742 1.129,-1.104 l 0.576,-0.499 c 0.434,-0.353 0.884,-0.717 1.35,-1.024 0.464,-0.344 0.939,-0.617 1.441,-0.907 l 0.291,-0.169 0.892,-0.447 C -4.091,-2.82 -3.9,-2.895 -3.71,-2.968 l 0.354,-0.14 c 0.207,-0.096 0.405,-0.148 0.603,-0.201 0.104,-0.028 0.208,-0.055 0.312,-0.087 0.287,-0.099 0.567,-0.136 0.865,-0.175 0.322,-0.066 0.58,-0.067 0.878,-0.051 l 0.132,-0.004 c 0.161,0 0.32,0.04 0.488,0.083 l 0.702,0.236 c 0.091,0.039 0.182,0.077 0.245,0.116 l 0.37,0.216 0.308,0.239 c 0.35,0.297 0.555,0.662 0.595,1.073 C 2.191,-1.251 2.06,-0.745 1.78,-0.266 1.498,0.227 1.104,0.677 0.642,1.038 0.147,1.414 -0.361,1.652 -0.789,1.705 -1.153,1.744 -1.427,1.647 -1.616,1.327 -1.797,0.998 -1.9,0.472 -1.913,-0.189 c 0.07,-0.276 0.174,-0.471 0.243,-0.54 0.026,-0.009 0.077,-0.007 0.193,0.038 0.138,0.057 0.301,0.173 0.447,0.314 -0.074,0.099 -0.128,0.214 -0.156,0.34 -0.102,0.473 0.2,0.941 0.672,1.045 0.054,0.012 0.111,0.018 0.164,0.02 0.128,0.01 0.182,0.014 0.241,0.014 0.208,0 0.403,-0.056 0.614,-0.175 C 0.752,0.705 0.92,0.47 0.988,0.208 1.028,0.022 1.034,-0.157 1.006,-0.313 0.925,-0.742 0.761,-0.988 0.615,-1.206 0.195,-1.772 -0.219,-2.122 -0.732,-2.372 -1.058,-2.523 -1.379,-2.598 -1.693,-2.598 l -0.101,0.002 c -0.41,0.016 -0.843,0.198 -1.151,0.485 -0.537,0.507 -0.729,1.081 -0.866,1.58 l -0.028,0.148 c -0.016,0.893 0.029,1.779 0.463,2.663 0.347,0.603 0.734,0.991 1.197,1.206 0.484,0.238 1.066,0.342 1.602,0.286 C 0.261,3.69 1.057,3.37 1.924,2.766 2.643,2.245 3.235,1.61 3.692,0.877 4.248,-0.017 4.499,-0.932 4.437,-1.845 4.392,-2.825 3.898,-3.828 3.118,-4.521 L 2.604,-4.941 2.005,-5.321 C 1.865,-5.404 1.754,-5.458 1.643,-5.511 L 1.18,-5.731 0.812,-5.847 C 0.359,-5.98 -0.08,-6.109 -0.529,-6.109 Z" />
      </g>
      <g
         transform="translate(496.5986,259.5603)"
         id="g13248">
        <path
           id="path13250"
           style="fill:#cc96d1;fill-opacity:1;fill-rule:nonzero;stroke:none"
           d="m 0,0 c 7.908,4.152 6.399,11.078 4.116,17.974 2.766,-0.097 5.893,-0.745 8.537,-1.663 3.505,-1.219 6.792,-3.306 9.382,-6.089 C 24.91,7.133 25.552,3.891 25.62,-0.124 24.966,1.468 22.599,4.482 20.567,4.273 18.254,4.036 17.564,0.212 17.117,-1.529 15.288,4.51 9.786,2.488 8.193,-2.445 6.088,0.687 2.173,-1.944 1.029,-4.692 c -0.239,1.38 -0.978,2.65 -1.486,3.929" />
      </g>
      <g
         transform="translate(496.7856,258.9372)"
         id="g13252">
        <path
           id="path13254"
           style="fill:#0c0a08;fill-opacity:1;fill-rule:nonzero;stroke:none"
           d="m 0,0 c 0.139,-0.341 0.293,-0.682 0.448,-1.023 0.207,-0.457 0.417,-0.921 0.598,-1.4 0.98,1.326 2.498,2.491 4.14,2.653 0.978,0.099 1.871,-0.193 2.603,-0.825 1.13,2.459 3.198,4.118 5.329,4.068 1.493,-0.014 2.766,-0.855 3.653,-2.364 0.547,1.949 1.486,4.223 3.543,4.434 1.605,0.178 3.208,-1.171 4.329,-2.564 -0.296,2.78 -1.131,5.124 -3.27,7.423 -2.472,2.657 -5.626,4.702 -9.121,5.917 C 9.858,17.152 7.208,17.712 4.841,17.895 7.008,11.104 8.123,4.252 0.115,0.048 0.078,0.028 0.04,0.013 0,0 m 0.583,-6.383 -0.381,2.202 c -0.154,0.886 -0.553,1.768 -0.938,2.621 -0.179,0.395 -0.356,0.788 -0.512,1.18 -0.133,0.334 0.031,0.712 0.364,0.845 0.02,0.008 0.041,0.014 0.062,0.02 -0.061,0.279 0.068,0.575 0.333,0.713 7.47,3.923 6.06,10.371 3.801,17.195 l -0.293,0.886 0.933,-0.033 c 2.713,-0.095 5.894,-0.714 8.727,-1.698 3.695,-1.285 7.029,-3.449 9.645,-6.261 C 25.347,8.04 26.013,4.63 26.083,0.51 L 24.832,0.252 C 24.23,1.718 22.083,4.414 20.447,4.25 18.811,4.082 18.114,1.208 17.698,-0.51 l -0.716,-2.808 -0.674,2.223 c -0.634,2.094 -1.771,3.254 -3.202,3.268 h -0.025 c -1.799,0 -3.669,-1.759 -4.456,-4.194 L 8.213,-3.296 7.467,-2.185 C 6.909,-1.354 6.185,-0.97 5.314,-1.063 3.867,-1.206 2.129,-2.667 1.443,-4.319 Z" />
      </g>
      <g
         transform="translate(484.0996,276.0232)"
         id="g13256">
        <path
           id="path13258"
           style="fill:#d9baae;fill-opacity:1;fill-rule:nonzero;stroke:none"
           d="m 0,0 c -1.292,-0.037 -2.954,1.239 -3.432,2.619 -0.882,2.543 1.184,4.187 2.601,5.894 -2.984,0.093 -7.038,-4.004 -7.823,-6.672 -0.979,-3.322 1.533,-6.022 4.386,-7.482" />
      </g>
      <g
         transform="translate(479.831,269.7322)"
         id="g13260">
        <path
           id="path13262"
           style="fill:#0c0a08;fill-opacity:1;fill-rule:nonzero;stroke:none"
           d="m 0,0 c -0.1,0 -0.201,0.023 -0.295,0.071 -3.001,1.536 -5.815,4.508 -4.714,8.244 0.833,2.831 5.068,7.282 8.467,7.138 l 1.33,-0.041 -0.85,-1.023 C 3.708,14.112 3.462,13.837 3.214,13.561 1.937,12.134 0.833,10.901 1.451,9.123 1.835,8.014 3.207,6.937 4.25,6.94 4.256,6.941 4.263,6.941 4.269,6.941 4.619,6.941 4.908,6.662 4.918,6.31 4.929,5.951 4.646,5.651 4.287,5.642 2.722,5.59 0.792,7.054 0.222,8.697 -0.516,10.825 0.485,12.384 1.635,13.733 -0.715,12.664 -3.216,9.802 -3.762,7.948 -4.638,4.974 -2.24,2.527 0.296,1.229 0.616,1.065 0.743,0.674 0.579,0.354 0.464,0.13 0.236,0 0,0" />
      </g>
      <g
         transform="translate(501.2422,252.612)"
         id="g13264">
        <path
           id="path13266"
           style="fill:#bf4352;fill-opacity:1;fill-rule:nonzero;stroke:none"
           d="m 0,0 c 0.647,-1.88 -0.352,-3.928 -2.231,-4.575 l -4.693,-1.617 c -1.88,-0.648 -3.929,0.35 -4.576,2.23 l -2.681,7.781 c -0.648,1.88 0.352,3.929 2.232,4.577 l 4.693,1.616 c 1.88,0.647 3.928,-0.351 4.575,-2.231 z" />
      </g>
      <g
         transform="translate(495.1592,262.1706)"
         id="g13268">
        <path
           id="path13270"
           style="fill:#0c0a08;fill-opacity:1;fill-rule:nonzero;stroke:none"
           d="M 0,0 C -0.326,0 -0.65,-0.054 -0.962,-0.161 L -5.655,-1.777 C -6.399,-2.034 -7,-2.565 -7.346,-3.274 -7.691,-3.982 -7.74,-4.782 -7.483,-5.527 l 2.68,-7.782 c 0.41,-1.19 1.531,-1.989 2.788,-1.989 0.327,0 0.65,0.054 0.962,0.161 l 4.693,1.617 c 0.745,0.257 1.345,0.789 1.691,1.497 0.345,0.708 0.394,1.507 0.138,2.252 L 2.788,-1.989 C 2.378,-0.799 1.258,0 0,0 m -2.015,-16.599 c -1.812,0 -3.426,1.153 -4.017,2.867 l -2.68,7.781 c -0.37,1.073 -0.3,2.226 0.198,3.247 0.497,1.02 1.363,1.786 2.436,2.155 l 4.693,1.616 c 0.448,0.155 0.914,0.234 1.385,0.234 1.812,0 3.427,-1.153 4.017,-2.866 l 2.68,-7.782 c 0.37,-1.073 0.3,-2.226 -0.198,-3.247 -0.497,-1.019 -1.362,-1.785 -2.436,-2.154 l -4.692,-1.617 c -0.449,-0.155 -0.915,-0.234 -1.386,-0.234" />
      </g>
      <g
         transform="translate(499.0908,268.2361)"
         id="g13272">
        <path
           id="path13274"
           style="fill:#bf4352;fill-opacity:1;fill-rule:nonzero;stroke:none"
           d="m 0,0 c 0,-6.065 -4.916,-10.98 -10.979,-10.98 -6.065,0 -10.981,4.915 -10.981,10.98 0,6.063 4.916,10.979 10.981,10.979 C -4.916,10.979 0,6.063 0,0" />
      </g>
      <g
         transform="translate(488.1113,278.5652)"
         id="g13276">
        <path
           id="path13278"
           style="fill:#0c0a08;fill-opacity:1;fill-rule:nonzero;stroke:none"
           d="m 0,0 c -5.696,0 -10.331,-4.634 -10.331,-10.329 0,-5.696 4.635,-10.33 10.331,-10.33 5.696,0 10.329,4.634 10.329,10.33 C 10.329,-4.634 5.696,0 0,0 m 0,-21.96 c -6.413,0 -11.63,5.218 -11.63,11.631 0,6.412 5.217,11.63 11.63,11.63 6.413,0 11.63,-5.218 11.63,-11.63 C 11.63,-16.742 6.413,-21.96 0,-21.96" />
      </g>
      <g
         transform="translate(488.397,270.6218)"
         id="g13280">
        <path
           id="path13282"
           style="fill:#fff200;fill-opacity:1;fill-rule:nonzero;stroke:none"
           d="m 0,0 c 0.185,-1.44 -0.204,-2.681 -0.866,-2.765 -0.66,-0.089 -1.346,1.018 -1.53,2.459 -0.185,1.441 0.202,2.679 0.863,2.764 C -0.869,2.546 -0.183,1.441 0,0" />
      </g>
      <g
         transform="translate(486.9385,272.7097)"
         id="g13284">
        <path
           id="path13286"
           style="fill:#0c0a08;fill-opacity:1;fill-rule:nonzero;stroke:none"
           d="m 0,0 c -0.355,-0.044 -0.738,-1.001 -0.565,-2.346 0.168,-1.324 0.744,-2.136 1.083,-2.136 v -0.375 l 0.025,0.377 c 0.092,0.011 0.171,0.091 0.222,0.158 0.257,0.332 0.456,1.136 0.321,2.186 C 0.919,-0.812 0.341,0 0,0 m 0.518,-5.232 c -0.966,0 -1.651,1.404 -1.828,2.791 -0.217,1.7 0.293,3.068 1.188,3.183 L 0,0.75 c 0.97,0 1.655,-1.404 1.831,-2.791 C 1.975,-3.168 1.794,-4.219 1.358,-4.781 1.161,-5.037 0.913,-5.19 0.64,-5.225 Z" />
      </g>
      <g
         transform="translate(484.0615,269.9656)"
         id="g13288">
        <path
           id="path13290"
           style="fill:#fff200;fill-opacity:1;fill-rule:nonzero;stroke:none"
           d="m 0,0 c 0.159,-1.264 -0.341,-2.367 -1.121,-2.464 -0.786,-0.101 -1.549,0.843 -1.709,2.103 -0.165,1.26 0.34,2.367 1.122,2.467 C -0.928,2.206 -0.163,1.267 0,0" />
      </g>
      <g
         transform="translate(482.4678,271.7038)"
         id="g13292">
        <path
           id="path13294"
           style="fill:#0c0a08;fill-opacity:1;fill-rule:nonzero;stroke:none"
           d="m 0,0 c -0.232,-0.025 -0.385,-0.125 -0.52,-0.3 -0.303,-0.392 -0.435,-1.063 -0.344,-1.751 0.139,-1.102 0.742,-1.784 1.22,-1.784 l 0.069,0.005 c 0.164,0.02 0.314,0.117 0.447,0.287 0.303,0.39 0.437,1.064 0.35,1.758 C 1.08,-0.683 0.477,0 0,0 m 0.356,-4.585 c -0.943,0 -1.788,1.049 -1.964,2.439 -0.117,0.889 0.068,1.75 0.494,2.303 0.257,0.334 0.587,0.536 0.952,0.583 C 0.842,0.859 1.777,-0.22 1.966,-1.69 2.079,-2.59 1.891,-3.454 1.464,-4.003 1.208,-4.332 0.881,-4.529 0.519,-4.574 0.466,-4.581 0.411,-4.585 0.356,-4.585" />
      </g>
      <g
         transform="translate(488.2158,276.7859)"
         id="g13296">
        <path
           id="path13298"
           style="fill:#d9baae;fill-opacity:1;fill-rule:nonzero;stroke:none"
           d="M 0,0 C 2.014,0.051 3.55,2.804 3.097,4.726 2.724,6.306 1.165,7.268 0.046,8.272 2.801,8.693 5.9,8.158 7.622,5.792 10.441,1.916 8.466,-1.559 5.956,-4.445 4.268,-3.659 1.981,-2.744 0.305,-0.152" />
      </g>
      <g
         transform="translate(489.4551,276.4324)"
         id="g13300">
        <path
           id="path13302"
           style="fill:#0c0a08;fill-opacity:1;fill-rule:nonzero;stroke:none"
           d="M 0,0 C 1.379,-1.817 3.109,-2.637 4.542,-3.295 7.496,0.249 7.884,2.977 5.857,5.763 4.745,7.292 2.767,8.119 0.432,8.107 1.318,7.352 2.197,6.471 2.49,5.229 2.785,3.978 2.39,2.409 1.484,1.234 1.052,0.675 0.545,0.257 0,0 m 4.886,-4.888 -0.801,0.372 c -1.62,0.745 -3.829,1.76 -5.483,4.239 -0.276,0.069 -0.483,0.316 -0.491,0.614 -0.009,0.359 0.274,0.657 0.633,0.666 0.816,0.02 1.422,0.651 1.711,1.025 0.666,0.865 0.975,2.031 0.77,2.902 -0.247,1.047 -1.194,1.827 -2.109,2.582 -0.257,0.213 -0.51,0.421 -0.743,0.631 l -1.022,0.918 1.358,0.208 C 2.202,9.805 5.271,8.779 6.908,6.528 10.135,2.092 7.483,-1.9 5.208,-4.519 Z" />
      </g>
      <g
         transform="translate(484.4888,262.0046)"
         id="g13304">
        <path
           id="path13306"
           style="fill:#0c0a08;fill-opacity:1;fill-rule:nonzero;stroke:none"
           d="m 0,0 c -0.875,0 -1.728,0.091 -2.518,0.275 -0.35,0.081 -0.567,0.431 -0.486,0.781 0.081,0.348 0.432,0.565 0.78,0.485 C 1.236,0.738 6.236,1.971 7.88,5.027 8.05,5.344 8.446,5.461 8.76,5.292 9.076,5.122 9.195,4.729 9.024,4.412 7.46,1.503 3.55,0 0,0" />
      </g>
      <g
         transform="translate(484.397,272.4782)"
         id="g13308">
        <path
           id="path13310"
           style="fill:#0c0a08;fill-opacity:1;fill-rule:nonzero;stroke:none"
           d="m 0,0 c -0.139,0 -0.275,0.045 -0.388,0.129 -1.626,1.21 -4.772,2.707 -6.689,2.923 -0.357,0.04 -0.614,0.361 -0.574,0.718 0.04,0.356 0.369,0.612 0.718,0.573 1.917,-0.215 4.795,-1.498 6.671,-2.72 C -0.12,1.932 0.024,2.247 0.169,2.566 1.048,4.505 1.958,6.51 3.151,8.058 3.37,8.342 3.779,8.394 4.063,8.175 4.347,7.956 4.4,7.548 4.181,7.263 3.08,5.835 2.202,3.9 1.353,2.029 1.093,1.458 0.839,0.898 0.586,0.37 0.502,0.194 0.345,0.066 0.156,0.02 0.104,0.007 0.052,0 0,0" />
      </g>
      <g
         transform="translate(500.6123,249.8464)"
         id="g13312">
        <path
           id="path13314"
           style="fill:#bf4352;fill-opacity:1;fill-rule:nonzero;stroke:none"
           d="m 0,0 c -1.102,-1.696 -1.161,-4.488 -0.129,-6.097 0.65,-1.012 1.638,-1.431 2.943,-1.237 0.405,0.06 0.798,-0.131 1.006,-0.479 0.207,-0.349 0.183,-0.789 -0.061,-1.113 -2.416,-3.203 -3.716,-6.202 -4.217,-9.725 -0.071,-0.499 -0.499,-0.86 -0.989,-0.86 -0.047,0 -0.094,0.003 -0.142,0.01 -0.547,0.078 -0.927,0.584 -0.849,1.131 0.469,3.304 1.57,6.178 3.513,9.115 -1.187,0.27 -2.179,0.976 -2.887,2.078 -1.459,2.274 -1.399,5.905 0.134,8.267" />
      </g>
      <g
         transform="translate(499.165,229.8357)"
         id="g13316">
        <path
           id="path13318"
           style="fill:#0c0a08;fill-opacity:1;fill-rule:nonzero;stroke:none"
           d="m 0,0 c -0.07,0 -0.141,0.005 -0.212,0.015 -0.818,0.117 -1.39,0.878 -1.274,1.696 0.45,3.169 1.48,5.969 3.229,8.758 -1.026,0.387 -1.891,1.101 -2.529,2.094 -1.556,2.426 -1.495,6.295 0.137,8.81 0.151,0.231 0.462,0.295 0.691,0.147 0.231,-0.15 0.297,-0.46 0.146,-0.692 -1.434,-2.211 -1.493,-5.603 -0.132,-7.724 0.635,-0.991 1.503,-1.617 2.577,-1.861 l 0.706,-0.16 -0.4,-0.603 C 1.055,7.631 -0.037,4.8 -0.496,1.57 -0.534,1.298 -0.344,1.044 -0.071,1.005 0.248,0.998 0.46,1.185 0.494,1.43 1.008,5.042 2.338,8.112 4.807,11.386 4.93,11.549 4.941,11.767 4.838,11.942 4.733,12.116 4.54,12.214 4.335,12.182 2.839,11.965 1.654,12.466 0.897,13.644 -0.248,15.43 -0.189,18.408 1.028,20.283 1.18,20.516 1.49,20.579 1.72,20.43 1.951,20.279 2.017,19.97 1.866,19.738 0.877,18.215 0.817,15.62 1.739,14.185 2.281,13.339 3.083,13.011 4.188,13.171 4.785,13.267 5.383,12.979 5.697,12.453 6.01,11.928 5.974,11.272 5.605,10.784 3.244,7.653 1.973,4.725 1.484,1.289 1.379,0.554 0.741,0 0,0" />
      </g>
      <g
         transform="translate(496.5884,258.5378)"
         id="g13320">
        <path
           id="path13322"
           style="fill:#bf4352;fill-opacity:1;fill-rule:nonzero;stroke:none"
           d="M 0,0 C 2.415,0.053 5.139,-0.367 7.032,-1.997 6.787,-2.149 6.566,-2.333 6.375,-2.551 5.429,-3.622 5.265,-5.332 5.873,-7.778 c 0.113,-0.455 0.521,-0.759 0.969,-0.759 0.08,0 0.161,0.01 0.242,0.029 0.537,0.133 0.863,0.676 0.73,1.212 -0.565,2.277 -0.205,3.122 0.061,3.422 0.12,0.137 0.29,0.222 0.476,0.286 0.529,-0.912 0.891,-2.031 1.002,-3.42 0.042,-0.523 0.48,-0.92 0.996,-0.92 0.026,0 0.054,0.001 0.081,0.003 0.551,0.045 0.961,0.527 0.917,1.077 -0.095,1.179 -0.354,2.246 -0.753,3.206 1.406,-0.328 1.644,-1.031 1.652,-2.833 0.002,-0.55 0.449,-0.995 1,-0.995 h 0.004 c 0.552,0.002 0.998,0.452 0.996,1.004 -0.012,2.748 -0.725,4.534 -4.236,4.952 -0.248,0.03 -0.468,0.022 -0.696,0.027 C 7.388,0.838 4.185,2.067 -0.032,2" />
      </g>
      <g
         transform="translate(508.0723,253.8318)"
         id="g13324">
        <path
           id="path13326"
           style="fill:#0c0a08;fill-opacity:1;fill-rule:nonzero;stroke:none"
           d="M 0,0 C 0.101,-0.369 0.182,-0.748 0.245,-1.136 0.215,-0.599 0.143,-0.245 0,0 m -4.642,-4.331 c -0.689,0 -1.288,0.468 -1.455,1.138 -0.65,2.618 -0.449,4.475 0.613,5.679 0.068,0.077 0.14,0.152 0.215,0.224 -1.861,1.296 -4.343,1.537 -6.204,1.496 -0.255,-0.013 -0.505,0.213 -0.511,0.489 -0.006,0.277 0.213,0.505 0.489,0.511 2.182,0.051 5.236,-0.28 7.369,-2.118 L -3.61,2.644 -4.188,2.284 C -4.396,2.155 -4.579,2.001 -4.733,1.825 -5.562,0.886 -5.691,-0.677 -5.126,-2.952 c 0.065,-0.263 0.335,-0.437 0.609,-0.363 0.126,0.031 0.236,0.111 0.305,0.226 0.068,0.114 0.089,0.249 0.057,0.379 -0.474,1.907 -0.416,3.211 0.172,3.874 0.213,0.243 0.495,0.36 0.687,0.427 L -2.907,1.726 -2.7,1.369 c 0.597,-1.03 0.957,-2.252 1.067,-3.631 0.022,-0.258 0.239,-0.46 0.498,-0.46 0.316,0.024 0.522,0.266 0.5,0.54 -0.088,1.093 -0.329,2.121 -0.717,3.055 l -0.373,0.899 0.949,-0.22 c 1.88,-0.44 2.031,-1.653 2.038,-3.319 10e-4,-0.274 0.225,-0.497 0.5,-0.497 0.278,10e-4 0.501,0.227 0.5,0.502 -0.011,2.6 -0.619,4.079 -3.795,4.458 -0.164,0.02 -0.316,0.02 -0.467,0.021 l -0.409,0.007 -0.146,0.175 c -1.844,2.227 -4.924,3.397 -8.953,3.307 -0.275,-0.002 -0.504,0.217 -0.508,0.492 -0.005,0.277 0.216,0.503 0.492,0.508 4.216,0.061 7.529,-1.139 9.587,-3.49 0.168,-0.001 0.338,-0.005 0.522,-0.028 4.092,-0.486 4.666,-2.905 4.677,-5.446 0.003,-0.827 -0.667,-1.503 -1.493,-1.506 -0.64,0 -1.186,0.398 -1.405,0.955 -0.043,-0.734 -0.623,-1.346 -1.377,-1.408 l -0.122,-0.005 c -0.776,0 -1.432,0.607 -1.494,1.38 -0.082,1.016 -0.31,1.929 -0.683,2.723 -0.136,-0.274 -0.326,-1.025 0.127,-2.851 0.2,-0.803 -0.292,-1.618 -1.094,-1.817 -0.122,-0.029 -0.243,-0.044 -0.363,-0.044" />
      </g>
      <g
         id="g13328">
        <g
           id="g13330" />
        <g
           id="g13350">
          <g
             style="opacity:0.5"
             id="g13348"
             clip-path="url(#clipPath13334)">
            <g
               id="g13346">
              <g
                 id="g13344"
                 clip-path="url(#clipPath13338)">
                <g
                   id="g13342"
                   transform="translate(513.3398,259.6902)">
                  <path
                     id="path13340"
                     style="fill:#cc96d1;fill-opacity:1;fill-rule:nonzero;stroke:none"
                     d="M 0,0 C 0.16,5.562 -5.464,12.003 -9.896,15.216 -3.146,13.597 3.72,10.051 6.353,3.222 3.259,5.212 1.017,2.97 0.458,-0.458" />
                </g>
              </g>
            </g>
          </g>
        </g>
      </g>
      <g
         id="g13352">
        <g
           id="g13354" />
        <g
           id="g13374">
          <g
             style="opacity:0.5"
             id="g13372"
             clip-path="url(#clipPath13358)">
            <g
               id="g13370">
              <g
                 id="g13368"
                 clip-path="url(#clipPath13362)">
                <g
                   id="g13366"
                   transform="translate(504.6514,257.7077)">
                  <path
                     id="path13364"
                     style="fill:#cc96d1;fill-opacity:1;fill-rule:nonzero;stroke:none"
                     d="M 0,0 C 0.843,5.197 0.885,10.585 -0.616,15.466 2.499,12.215 4.671,7.541 7.11,3.686 3.919,3.564 2.788,3.274 0.609,0.915" />
                </g>
              </g>
            </g>
          </g>
        </g>
      </g>
      <g
         id="g13376">
        <g
           id="g13378" />
        <g
           id="g13398">
          <g
             style="opacity:0.5"
             id="g13396"
             clip-path="url(#clipPath13382)">
            <g
               id="g13394">
              <g
                 id="g13392"
                 clip-path="url(#clipPath13386)">
                <g
                   id="g13390"
                   transform="translate(503.584,257.8601)">
                  <path
                     id="path13388"
                     style="fill:#cc96d1;fill-opacity:1;fill-rule:nonzero;stroke:none"
                     d="M 0,0 C -0.03,2.005 0.807,4.439 0.045,6.253 -0.649,3.747 -3.136,0.295 -5.898,0.004 -4.206,-0.72 -3.091,-2.162 -1.361,-2.689 -1.38,-1.53 -0.589,-0.645 0.305,0" />
                </g>
              </g>
            </g>
          </g>
        </g>
      </g>
      <g
         transform="translate(488.2158,303.8694)"
         id="g13400">
        <path
           id="path13402"
           style="fill:#d9baae;fill-opacity:1;fill-rule:nonzero;stroke:none"
           d="M 0,0 C 2.014,-0.051 3.55,-2.804 3.097,-4.726 2.725,-6.306 1.164,-7.268 0.047,-8.272 2.801,-8.693 5.9,-8.158 7.621,-5.792 10.441,-1.916 8.466,1.559 5.956,4.445 4.268,3.659 1.981,2.744 0.305,0.152" />
      </g>
      <g
         transform="translate(489.8867,296.1155)"
         id="g13404">
        <path
           id="path13406"
           style="fill:#0c0a08;fill-opacity:1;fill-rule:nonzero;stroke:none"
           d="M 0,0 C 2.325,-0.012 4.313,0.816 5.424,2.344 7.452,5.13 7.064,7.858 4.11,11.402 2.677,10.744 0.947,9.925 -0.432,8.108 0.114,7.851 0.62,7.433 1.052,6.873 1.958,5.698 2.354,4.13 2.059,2.879 1.766,1.636 0.887,0.756 0,0 m 0.065,-1.3 c -0.579,0 -1.176,0.046 -1.787,0.139 l -1.358,0.207 1.021,0.919 c 0.234,0.21 0.487,0.419 0.745,0.632 0.915,0.755 1.861,1.535 2.107,2.58 0.206,0.872 -0.104,2.038 -0.77,2.902 -0.289,0.374 -0.895,1.004 -1.71,1.025 -0.359,0.009 -0.643,0.308 -0.634,0.667 0.008,0.298 0.215,0.544 0.491,0.613 1.655,2.48 3.864,3.495 5.484,4.24 l 0.801,0.371 0.321,-0.37 C 7.052,10.008 9.703,6.015 6.476,1.58 5.125,-0.278 2.801,-1.3 0.065,-1.3" />
      </g>
      <g
         transform="translate(500.6123,330.8088)"
         id="g13408">
        <path
           id="path13410"
           style="fill:#bf4352;fill-opacity:1;fill-rule:nonzero;stroke:none"
           d="m 0,0 c -1.102,1.696 -1.161,4.488 -0.129,6.097 0.65,1.012 1.638,1.431 2.943,1.237 0.405,-0.06 0.798,0.131 1.006,0.479 0.207,0.349 0.183,0.789 -0.061,1.113 -2.416,3.203 -3.716,6.202 -4.217,9.725 -0.071,0.499 -0.499,0.86 -0.989,0.86 -0.047,0 -0.094,-0.003 -0.142,-0.01 -0.547,-0.078 -0.927,-0.584 -0.849,-1.131 0.469,-3.304 1.57,-6.178 3.513,-9.115 C -0.112,8.985 -1.104,8.279 -1.812,7.177 -3.271,4.903 -3.211,1.272 -1.678,-1.09" />
      </g>
      <g
         transform="translate(498.9346,329.219)"
         id="g13412">
        <path
           id="path13414"
           style="fill:#0c0a08;fill-opacity:1;fill-rule:nonzero;stroke:none"
           d="m 0,0 c -0.163,0 -0.323,0.08 -0.419,0.228 -1.632,2.514 -1.692,6.383 -0.137,8.809 0.638,0.993 1.503,1.707 2.53,2.094 -1.749,2.79 -2.78,5.59 -3.23,8.759 -0.115,0.818 0.456,1.579 1.275,1.696 0.822,0.115 1.581,-0.47 1.696,-1.274 0.488,-3.436 1.76,-6.364 4.121,-9.495 C 6.204,10.328 6.24,9.673 5.928,9.148 5.614,8.622 5.027,8.338 4.419,8.429 3.318,8.594 2.513,8.263 1.97,7.417 1.048,5.981 1.107,3.385 2.097,1.862 2.247,1.63 2.182,1.321 1.95,1.17 1.721,1.021 1.409,1.085 1.259,1.317 0.041,3.193 -0.018,6.171 1.128,7.957 1.885,9.135 3.081,9.64 4.565,9.418 4.766,9.391 4.964,9.483 5.068,9.66 5.172,9.833 5.16,10.052 5.037,10.215 2.568,13.488 1.238,16.559 0.725,20.171 0.689,20.416 0.478,20.601 0.23,20.601 -0.113,20.557 -0.304,20.303 -0.266,20.03 0.193,16.801 1.285,13.97 3.17,11.121 L 3.569,10.517 2.863,10.357 C 1.789,10.113 0.922,9.487 0.286,8.497 -1.074,6.376 -1.016,2.983 0.419,0.772 0.569,0.541 0.504,0.231 0.272,0.081 0.188,0.026 0.094,0 0,0" />
      </g>
      <g
         transform="translate(497.5029,322.1174)"
         id="g13416">
        <path
           id="path13418"
           style="fill:#bf4352;fill-opacity:1;fill-rule:nonzero;stroke:none"
           d="M 0,0 C 2.414,-0.053 5.139,0.367 7.031,1.997 6.786,2.149 6.565,2.333 6.374,2.551 5.429,3.622 5.265,5.332 5.872,7.778 c 0.113,0.455 0.522,0.759 0.97,0.759 0.08,0 0.161,-0.01 0.242,-0.029 C 7.62,8.375 7.946,7.832 7.813,7.296 7.248,5.019 7.608,4.174 7.874,3.874 7.994,3.737 8.164,3.652 8.351,3.588 8.88,4.5 9.241,5.619 9.353,7.008 c 0.042,0.523 0.479,0.92 0.996,0.92 0.026,0 0.053,-0.001 0.081,-0.003 C 10.98,7.88 11.391,7.398 11.347,6.848 11.252,5.669 10.992,4.602 10.594,3.642 12,3.97 12.237,4.673 12.245,6.475 c 0.002,0.55 0.449,0.995 1,0.995 H 13.25 C 13.802,7.468 14.247,7.018 14.245,6.466 14.233,3.718 13.521,1.932 10.01,1.514 9.762,1.484 9.542,1.492 9.313,1.487 7.388,-0.838 4.185,-2.067 -0.033,-2" />
      </g>
      <g
         transform="translate(509.2314,327.9597)"
         id="g13420">
        <path
           id="path13422"
           style="fill:#0c0a08;fill-opacity:1;fill-rule:nonzero;stroke:none"
           d="M 0,0 C -0.063,-0.388 -0.145,-0.767 -0.245,-1.136 -0.103,-0.891 -0.03,-0.537 0,0 m -11.436,-8.345 c -0.111,0 -0.222,0.001 -0.334,0.003 -0.276,0.004 -0.496,0.232 -0.492,0.508 0.005,0.276 0.254,0.501 0.508,0.492 3.998,-0.074 7.109,1.079 8.954,3.306 l 0.146,0.176 0.409,0.007 c 0.151,0.001 0.303,0.001 0.468,0.021 3.174,0.378 3.783,1.858 3.794,4.457 C 2.018,0.901 1.795,1.126 1.52,1.127 1.242,1.127 1.018,0.904 1.017,0.63 1.01,-1.036 0.859,-2.249 -1.021,-2.688 l -0.949,-0.221 0.373,0.9 c 0.388,0.933 0.629,1.961 0.717,3.054 0.022,0.275 -0.184,0.517 -0.46,0.539 h -0.002 c -0.298,0 -0.515,-0.201 -0.536,-0.459 -0.11,-1.378 -0.47,-2.6 -1.067,-3.63 l -0.207,-0.356 -0.389,0.134 c -0.192,0.066 -0.474,0.184 -0.689,0.429 -0.586,0.661 -0.644,1.965 -0.17,3.872 0.066,0.268 -0.097,0.54 -0.365,0.606 -0.256,0.059 -0.541,-0.101 -0.606,-0.365 -0.566,-2.274 -0.437,-3.837 0.392,-4.775 0.155,-0.177 0.338,-0.332 0.545,-0.46 l 0.579,-0.36 -0.516,-0.444 c -2.133,-1.838 -5.189,-2.159 -7.368,-2.118 -0.277,0.006 -0.495,0.235 -0.49,0.51 0.006,0.276 0.257,0.493 0.511,0.49 1.833,-0.042 4.342,0.199 6.204,1.496 -0.076,0.072 -0.148,0.147 -0.216,0.224 -1.061,1.203 -1.262,3.061 -0.612,5.679 0.196,0.786 1.005,1.287 1.815,1.095 0.805,-0.2 1.297,-1.015 1.097,-1.819 -0.454,-1.828 -0.262,-2.579 -0.127,-2.851 0.372,0.795 0.601,1.708 0.683,2.724 0.061,0.773 0.718,1.379 1.494,1.379 L -1.264,2.581 C -0.505,2.52 0.076,1.907 0.119,1.172 0.338,1.73 0.882,2.127 1.517,2.127 2.35,2.125 3.02,1.449 3.017,0.622 3.006,-1.919 2.432,-4.338 -1.659,-4.825 -1.844,-4.847 -2.014,-4.851 -2.182,-4.853 -4.186,-7.142 -7.374,-8.345 -11.436,-8.345" />
      </g>
      <g
         transform="translate(501.2422,328.0432)"
         id="g13424">
        <path
           id="path13426"
           style="fill:#bf4352;fill-opacity:1;fill-rule:nonzero;stroke:none"
           d="m 0,0 c 0.647,1.88 -0.352,3.928 -2.231,4.575 l -4.694,1.617 c -1.879,0.648 -3.928,-0.35 -4.576,-2.23 l -2.68,-7.781 c -0.648,-1.88 0.352,-3.929 2.232,-4.577 l 4.692,-1.616 c 1.881,-0.647 3.929,0.351 4.576,2.231 z" />
      </g>
      <g
         transform="translate(493.1445,333.7829)"
         id="g13428">
        <path
           id="path13430"
           style="fill:#0c0a08;fill-opacity:1;fill-rule:nonzero;stroke:none"
           d="m 0,0 c -1.257,0 -2.378,-0.8 -2.789,-1.99 l -2.679,-7.781 c -0.258,-0.745 -0.209,-1.545 0.137,-2.253 0.345,-0.708 0.946,-1.24 1.691,-1.497 l 4.693,-1.616 c 0.311,-0.107 0.635,-0.162 0.962,-0.162 1.257,0 2.378,0.799 2.788,1.99 l 2.68,7.781 C 7.739,-4.783 7.69,-3.983 7.346,-3.275 7,-2.567 6.399,-2.036 5.654,-1.779 L 0.961,-0.162 C 0.649,-0.055 0.326,0 0,0 M 2.015,-16.599 H 2.014 c -0.47,0 -0.936,0.078 -1.385,0.233 l -4.692,1.616 c -1.074,0.37 -1.939,1.135 -2.437,2.156 -0.498,1.02 -0.568,2.174 -0.197,3.247 l 2.679,7.781 C -3.427,0.148 -1.812,1.3 0,1.3 0.471,1.3 0.937,1.222 1.385,1.067 L 6.078,-0.55 c 1.073,-0.369 1.939,-1.135 2.436,-2.155 0.498,-1.02 0.568,-2.173 0.198,-3.246 l -2.681,-7.782 c -0.59,-1.714 -2.204,-2.866 -4.016,-2.866" />
      </g>
      <g
         transform="translate(499.0908,312.4192)"
         id="g13432">
        <path
           id="path13434"
           style="fill:#bf4352;fill-opacity:1;fill-rule:nonzero;stroke:none"
           d="M 0,0 C 0,6.065 -4.916,10.98 -10.979,10.98 -17.044,10.98 -21.96,6.065 -21.96,0 c 0,-6.063 4.916,-10.979 10.981,-10.979 C -4.916,-10.979 0,-6.063 0,0" />
      </g>
      <g
         transform="translate(488.1113,322.7497)"
         id="g13436">
        <path
           id="path13438"
           style="fill:#0c0a08;fill-opacity:1;fill-rule:nonzero;stroke:none"
           d="m 0,0 c -5.696,0 -10.331,-4.634 -10.331,-10.331 0,-5.695 4.635,-10.329 10.331,-10.329 5.696,0 10.329,4.634 10.329,10.329 C 10.329,-4.634 5.696,0 0,0 m 0,-21.96 c -6.413,0 -11.63,5.217 -11.63,11.629 C -11.63,-3.917 -6.413,1.3 0,1.3 6.413,1.3 11.63,-3.917 11.63,-10.331 11.63,-16.743 6.413,-21.96 0,-21.96" />
      </g>
      <g
         transform="translate(496.5986,321.0949)"
         id="g13440">
        <path
           id="path13442"
           style="fill:#ba93d0;fill-opacity:1;fill-rule:nonzero;stroke:none"
           d="m 0,0 c 7.908,-4.152 6.399,-11.078 4.116,-17.974 2.766,0.097 5.893,0.745 8.537,1.663 3.505,1.219 6.792,3.306 9.382,6.089 2.875,3.089 3.517,6.331 3.585,10.346 -0.654,-1.592 -3.021,-4.606 -5.053,-4.397 -2.313,0.237 -3.003,4.061 -3.45,5.802 C 15.288,-4.51 9.786,-2.488 8.193,2.445 6.088,-0.687 2.173,1.944 1.029,4.692 0.79,3.312 0.051,2.042 -0.457,0.763" />
      </g>
      <g
         transform="translate(496.7856,321.7175)"
         id="g13444">
        <path
           id="path13446"
           style="fill:#0c0a08;fill-opacity:1;fill-rule:nonzero;stroke:none"
           d="m 0,0 c 0.04,-0.012 0.078,-0.027 0.115,-0.047 8.008,-4.205 6.893,-11.057 4.726,-17.847 2.367,0.183 5.017,0.743 7.412,1.575 3.494,1.215 6.648,3.261 9.12,5.918 2.139,2.299 2.974,4.643 3.27,7.422 -1.121,-1.393 -2.724,-2.725 -4.329,-2.563 -2.057,0.21 -2.996,2.484 -3.543,4.433 -0.887,-1.509 -2.16,-2.349 -3.653,-2.363 h -0.037 c -2.103,0 -4.168,1.623 -5.292,4.067 C 7.056,-0.038 6.155,-0.326 5.186,-0.23 3.544,-0.067 2.026,1.097 1.046,2.423 0.865,1.945 0.655,1.481 0.448,1.024 0.293,0.682 0.139,0.341 0,0 m 3.019,-19.278 0.293,0.886 c 2.259,6.823 3.669,13.272 -3.801,17.194 -0.265,0.139 -0.394,0.434 -0.333,0.713 -0.021,0.006 -0.042,0.013 -0.062,0.021 -0.333,0.132 -0.497,0.51 -0.364,0.844 0.156,0.393 0.333,0.786 0.512,1.18 0.385,0.853 0.784,1.736 0.938,2.621 L 0.583,6.384 1.443,4.319 C 2.129,2.667 3.867,1.207 5.314,1.063 6.186,0.979 6.909,1.355 7.467,2.186 l 0.746,1.11 0.412,-1.274 c 0.791,-2.447 2.659,-4.255 4.481,-4.194 1.431,0.013 2.568,1.173 3.202,3.267 l 0.674,2.224 0.716,-2.809 c 0.416,-1.718 1.113,-4.592 2.749,-4.76 1.578,-0.168 3.783,2.533 4.385,3.999 l 1.251,-0.259 c -0.07,-4.12 -0.736,-7.53 -3.759,-10.777 -2.616,-2.811 -5.95,-4.976 -9.644,-6.26 -2.834,-0.985 -6.015,-1.604 -8.728,-1.699 z" />
      </g>
      <g
         id="g13448">
        <g
           id="g13450" />
        <g
           id="g13470">
          <g
             style="opacity:0.5"
             id="g13468"
             clip-path="url(#clipPath13454)">
            <g
               id="g13466">
              <g
                 id="g13464"
                 clip-path="url(#clipPath13458)">
                <g
                   id="g13462"
                   transform="translate(513.3398,320.9651)">
                  <path
                     id="path13460"
                     style="fill:#cc96d1;fill-opacity:1;fill-rule:nonzero;stroke:none"
                     d="m 0,0 c 0.16,-5.562 -5.464,-12.003 -9.896,-15.216 6.75,1.619 13.616,5.165 16.249,11.994 -3.094,-1.99 -5.336,0.252 -5.895,3.68" />
                </g>
              </g>
            </g>
          </g>
        </g>
      </g>
      <g
         id="g13472">
        <g
           id="g13474" />
        <g
           id="g13494">
          <g
             style="opacity:0.5"
             id="g13492"
             clip-path="url(#clipPath13478)">
            <g
               id="g13490">
              <g
                 id="g13488"
                 clip-path="url(#clipPath13482)">
                <g
                   id="g13486"
                   transform="translate(504.6514,322.9475)">
                  <path
                     id="path13484"
                     style="fill:#cc96d1;fill-opacity:1;fill-rule:nonzero;stroke:none"
                     d="m 0,0 c 0.843,-5.197 0.885,-10.585 -0.616,-15.466 3.115,3.251 5.287,7.925 7.726,11.78 -3.191,0.122 -4.322,0.412 -6.501,2.771" />
                </g>
              </g>
            </g>
          </g>
        </g>
      </g>
      <g
         id="g13496">
        <g
           id="g13498" />
        <g
           id="g13518">
          <g
             style="opacity:0.5"
             id="g13516"
             clip-path="url(#clipPath13502)">
            <g
               id="g13514">
              <g
                 id="g13512"
                 clip-path="url(#clipPath13506)">
                <g
                   id="g13510"
                   transform="translate(504.1933,322.4895)">
                  <path
                     id="path13508"
                     style="fill:#cc96d1;fill-opacity:1;fill-rule:nonzero;stroke:none"
                     d="m 0,0 c 0,-1.393 -0.11,-4.574 -0.152,-5.945 -1.214,2.095 -4.971,5.933 -7.302,6.747 0.521,0.589 1.177,1.622 1.345,2.127 0.806,-1.905 1.996,-3.509 4.28,-3.234" />
                </g>
              </g>
            </g>
          </g>
        </g>
      </g>
      <g
         transform="translate(489.2822,323.0783)"
         id="g13520">
        <path
           id="path13522"
           style="fill:#cc96d1;fill-opacity:1;fill-rule:nonzero;stroke:none"
           d="m 0,0 c 2.592,-0.713 3.373,-6.011 3.354,-8.537 -0.038,-4.889 -1.449,-6.734 -5.058,-9.43 6.426,-0.26 11.456,0.811 16.263,5.278 4.398,4.085 8.019,11.126 6.621,17.381 C 20.896,2.515 18.768,-1.505 16.494,-2.324 13.443,-3.423 12.678,0.67 12.348,3.165 11.273,-0.78 6.59,-0.936 5.328,3.002 5.396,2.439 5.053,1.934 5.004,1.396 3.346,1.173 2.266,3.376 1.83,4.878 1.748,3.207 0.806,1.506 0,0" />
      </g>
      <g
         transform="translate(490.1865,323.3918)"
         id="g13524">
        <path
           id="path13526"
           style="fill:#0c0a08;fill-opacity:1;fill-rule:nonzero;stroke:none"
           d="m 0,0 c 2.564,-1.525 3.115,-6.787 3.099,-8.855 -0.034,-4.447 -1.192,-6.546 -3.878,-8.812 5.948,0.019 10.136,1.559 13.991,5.14 3.417,3.174 6.61,8.535 6.716,13.815 -0.963,-1.975 -2.492,-3.952 -4.117,-4.537 -0.41,-0.147 -0.806,-0.222 -1.181,-0.222 -2.145,0 -3.064,2.305 -3.497,4.247 -0.798,-1.016 -1.941,-1.613 -3.218,-1.613 -1.264,0 -2.391,0.578 -3.193,1.582 L 4.7,0.507 4.186,0.438 C 2.758,0.244 1.748,1.317 1.119,2.42 0.818,1.581 0.407,0.768 0,0 m -0.884,-18.967 c -0.001,0 0,0 0,0 -0.573,0 -1.156,0.013 -1.751,0.037 l -1.83,0.074 1.467,1.097 c 3.569,2.664 4.763,4.326 4.797,8.913 0.023,2.977 -0.964,7.38 -2.876,7.906 l -0.784,0.215 0.473,0.885 c 0.746,1.393 1.593,2.973 1.664,4.436 L 1.55,4.746 C 1.945,3.382 2.708,2.008 3.584,1.757 3.604,1.821 3.625,1.883 3.645,1.943 3.729,2.201 3.801,2.424 3.779,2.61 l 1.264,0.277 c 0.479,-1.495 1.58,-2.424 2.872,-2.424 1.339,0 2.478,1.004 2.901,2.559 l 1.272,-0.085 c 0.167,-1.264 0.676,-5.108 2.542,-5.108 0.224,0 0.473,0.049 0.739,0.145 1.98,0.713 3.995,4.437 4.262,6.489 l 1.279,0.058 c 1.484,-6.64 -2.491,-13.985 -6.813,-18 -4.139,-3.846 -8.62,-5.488 -14.981,-5.488" />
      </g>
      <g
         id="g13528">
        <g
           id="g13530" />
        <g
           id="g13550">
          <g
             style="opacity:0.5"
             id="g13548"
             clip-path="url(#clipPath13534)">
            <g
               id="g13546">
              <g
                 id="g13544"
                 clip-path="url(#clipPath13538)">
                <g
                   id="g13542"
                   transform="translate(508.9189,323.4045)">
                  <path
                     id="path13540"
                     style="fill:#cc96d1;fill-opacity:1;fill-rule:nonzero;stroke:none"
                     d="m 0,0 c -3.354,-9.909 -8.802,-13.401 -15.549,-15.549 3.267,2.2 4.959,4.666 6.556,8.384 1.29,3.004 0.558,5.889 1.685,8.799 0.156,-4.911 4.124,-6.353 6.851,-2.244" />
                </g>
              </g>
            </g>
          </g>
        </g>
      </g>
      <g
         id="g13552">
        <g
           id="g13554" />
        <g
           id="g13574">
          <g
             style="opacity:0.5"
             id="g13572"
             clip-path="url(#clipPath13558)">
            <g
               id="g13570">
              <g
                 id="g13568"
                 clip-path="url(#clipPath13562)">
                <g
                   id="g13566"
                   transform="translate(500.5351,324.3186)">
                  <path
                     id="path13564"
                     style="fill:#cc96d1;fill-opacity:1;fill-rule:nonzero;stroke:none"
                     d="m 0,0 c -0.825,-5.672 -2.622,-10.851 -6.859,-14.177 1.829,5.336 2.895,9.604 1.387,14.748 1.256,-1.808 4.013,-2.744 5.472,-0.876" />
                </g>
              </g>
            </g>
          </g>
        </g>
      </g>
      <g
         id="g13576">
        <g
           id="g13578" />
        <g
           id="g13598">
          <g
             style="opacity:0.5"
             id="g13596"
             clip-path="url(#clipPath13582)">
            <g
               id="g13594">
              <g
                 id="g13592"
                 clip-path="url(#clipPath13586)">
                <g
                   id="g13590"
                   transform="translate(494.7422,325.2336)">
                  <path
                     id="path13588"
                     style="fill:#cc96d1;fill-opacity:1;fill-rule:nonzero;stroke:none"
                     d="m 0,0 c 0.677,-1.827 0.396,-5.349 -0.152,-7.165 -0.457,4.726 -4.481,6.109 -3.483,9.004 0.859,-0.973 2.056,-3.663 3.33,-2.144" />
                </g>
              </g>
            </g>
          </g>
        </g>
      </g>
      <g
         transform="translate(487.2295,324.3342)"
         id="g13600">
        <path
           id="path13602"
           style="fill:#bf4352;fill-opacity:1;fill-rule:nonzero;stroke:none"
           d="m 0,0 c -1.518,2.354 -3.803,3.765 -6.576,4.087 -0.111,-1.181 -0.522,-2.33 -1.223,-3.16 -0.994,-1.176 -2.383,-1.523 -3.807,-0.955 -0.513,0.204 -0.763,0.786 -0.56,1.299 0.205,0.512 0.785,0.765 1.3,0.558 0.618,-0.245 1.108,-0.121 1.54,0.389 0.406,0.48 0.652,1.181 0.742,1.913 -0.598,-0.038 -1.211,-0.117 -1.842,-0.247 -0.541,-0.111 -1.07,0.236 -1.18,0.778 -0.112,0.54 0.237,1.069 0.778,1.181 0.701,0.144 1.384,0.219 2.057,0.264 -0.061,0.164 -0.132,0.32 -0.217,0.46 -0.506,0.832 -1.393,1.114 -2.637,0.827 -0.537,-0.119 -1.073,0.215 -1.196,0.753 -0.122,0.54 0.215,1.075 0.753,1.198 0.453,0.102 0.89,0.153 1.306,0.153 1.499,0 2.731,-0.656 3.483,-1.892 0.271,-0.448 0.461,-0.962 0.582,-1.504 3.493,-0.31 6.426,-2.04 8.336,-4.954" />
      </g>
      <g
         transform="translate(476.9365,323.5432)"
         id="g13604">
        <path
           id="path13606"
           style="fill:#0c0a08;fill-opacity:1;fill-rule:nonzero;stroke:none"
           d="m 0,0 c -0.491,0 -0.996,0.098 -1.499,0.298 -0.767,0.306 -1.143,1.179 -0.839,1.948 0.15,0.375 0.436,0.668 0.806,0.826 0.367,0.157 0.774,0.161 1.145,0.012 C 0.027,2.92 0.292,2.987 0.585,3.332 0.804,3.591 0.978,3.947 1.092,4.365 0.715,4.321 0.339,4.261 -0.032,4.185 -0.42,4.105 -0.825,4.182 -1.16,4.402 c -0.335,0.22 -0.563,0.558 -0.643,0.952 -0.081,0.39 -0.004,0.791 0.217,1.125 0.22,0.335 0.558,0.564 0.95,0.645 0.427,0.087 0.867,0.155 1.348,0.207 -0.249,0.285 -0.778,0.633 -1.932,0.366 -0.814,-0.175 -1.613,0.33 -1.796,1.13 -0.182,0.807 0.324,1.612 1.129,1.796 2.29,0.521 4.265,-0.22 5.328,-1.966 C 3.673,8.274 3.858,7.837 3.995,7.354 7.481,6.947 10.438,5.131 12.35,2.213 12.501,1.982 12.437,1.673 12.206,1.521 11.974,1.37 11.665,1.435 11.514,1.666 9.682,4.46 6.929,6.095 3.552,6.395 L 3.188,6.427 3.108,6.784 C 2.992,7.302 2.816,7.758 2.586,8.139 1.742,9.524 0.205,10.074 -1.665,9.648 -1.933,9.587 -2.102,9.318 -2.041,9.049 -1.979,8.783 -1.71,8.616 -1.439,8.673 0.393,9.094 1.297,8.333 1.732,7.618 1.833,7.45 1.919,7.266 1.991,7.072 L 2.222,6.444 1.555,6.399 C 0.798,6.349 0.167,6.268 -0.434,6.144 -0.565,6.117 -0.678,6.041 -0.751,5.929 -0.825,5.817 -0.851,5.685 -0.824,5.554 -0.797,5.422 -0.721,5.31 -0.61,5.237 -0.498,5.164 -0.363,5.138 -0.233,5.165 0.395,5.294 1.038,5.38 1.677,5.421 L 2.279,5.459 2.205,4.861 C 2.098,3.984 1.793,3.212 1.349,2.686 0.773,2.007 0.063,1.831 -0.757,2.155 -0.883,2.207 -1.018,2.205 -1.139,2.152 -1.263,2.1 -1.358,2.001 -1.409,1.876 -1.51,1.621 -1.384,1.329 -1.128,1.227 0.103,0.737 1.255,1.026 2.112,2.041 2.718,2.758 3.111,3.782 3.219,4.925 L 3.267,5.434 3.774,5.375 C 6.716,5.033 9.115,3.542 10.713,1.062 10.863,0.83 10.796,0.521 10.564,0.371 10.331,0.222 10.022,0.288 9.873,0.52 8.531,2.601 6.559,3.905 4.147,4.312 3.959,3.175 3.517,2.153 2.876,1.395 2.102,0.479 1.085,0 0,0" />
      </g>
      <g
         transform="translate(493.2119,332.9016)"
         id="g13608">
        <path
           id="path13610"
           style="fill:#bf4352;fill-opacity:1;fill-rule:nonzero;stroke:none"
           d="m 0,0 c -1.439,1.658 -2.121,3.378 -1.973,4.975 0.13,1.402 0.897,2.669 2.281,3.766 0.284,0.226 0.423,0.587 0.365,0.945 -0.059,0.358 -0.306,0.656 -0.648,0.779 -3.925,1.417 -6.661,2.814 -8.361,4.272 -0.189,0.162 -0.42,0.242 -0.65,0.242 -0.283,0 -0.563,-0.119 -0.76,-0.35 -0.359,-0.419 -0.312,-1.05 0.107,-1.409 2.069,-1.774 5.016,-3.117 7.473,-4.072 C -3.215,7.96 -3.83,6.604 -3.965,5.16 -4.164,3.006 -3.316,0.769 -1.51,-1.311" />
      </g>
      <g
         transform="translate(491.7021,331.091)"
         id="g13612">
        <path
           id="path13614"
           style="fill:#0c0a08;fill-opacity:1;fill-rule:nonzero;stroke:none"
           d="m 0,0 c -0.14,0 -0.278,0.058 -0.377,0.172 -1.897,2.183 -2.788,4.55 -2.576,6.845 0.125,1.338 0.621,2.589 1.477,3.729 -3.079,1.242 -5.366,2.523 -6.979,3.905 -0.303,0.261 -0.488,0.624 -0.518,1.024 -0.03,0.399 0.097,0.786 0.357,1.09 0.514,0.603 1.508,0.682 2.115,0.163 1.653,-1.418 4.337,-2.786 8.206,-4.182 C 2.216,12.562 2.588,12.114 2.676,11.577 2.764,11.041 2.554,10.498 2.128,10.16 0.856,9.151 0.152,8 0.035,6.739 -0.101,5.281 0.54,3.69 1.887,2.138 2.068,1.93 2.046,1.614 1.837,1.433 1.629,1.252 1.313,1.273 1.132,1.483 c -1.53,1.763 -2.254,3.613 -2.093,5.349 0.143,1.543 0.973,2.926 2.468,4.111 0.141,0.113 0.211,0.294 0.182,0.472 -0.029,0.179 -0.153,0.329 -0.323,0.39 -3.985,1.438 -6.771,2.865 -8.518,4.363 -0.318,0.274 -0.556,0.12 -0.704,-0.053 -0.088,-0.102 -0.13,-0.232 -0.12,-0.365 0.01,-0.132 0.072,-0.253 0.173,-0.34 1.634,-1.401 4.031,-2.704 7.328,-3.985 L 0.193,11.166 -0.281,10.628 C -1.269,9.51 -1.832,8.264 -1.957,6.924 -2.144,4.908 -1.336,2.8 0.377,0.828 0.559,0.62 0.537,0.304 0.328,0.123 0.233,0.041 0.117,0 0,0" />
      </g>
      <g
         transform="translate(500.5371,330.1994)"
         id="g13616">
        <path
           id="path13618"
           style="fill:#bf4352;fill-opacity:1;fill-rule:nonzero;stroke:none"
           d="m 0,0 c 0.001,0.012 0.003,0.023 0.006,0.034 l 0.01,0.07 c 0.048,0.345 0.072,0.751 0.141,1.044 0.105,0.241 0.15,0.463 0.26,0.733 l 0.42,0.848 0.534,0.824 c 0.4,0.53 0.803,1.068 1.284,1.552 0.448,0.511 0.973,0.957 1.477,1.422 0.535,0.431 1.063,0.876 1.639,1.254 0.553,0.411 1.156,0.741 1.749,1.087 l 0.913,0.458 c 0.307,0.145 0.624,0.253 0.936,0.383 0.311,0.144 0.631,0.202 0.948,0.3 0.319,0.109 0.633,0.149 0.95,0.191 0.321,0.071 0.624,0.067 0.924,0.05 0.317,0.026 0.58,-0.066 0.854,-0.129 l 0.209,-0.045 0.206,-0.09 c 0.155,-0.074 0.353,-0.147 0.474,-0.22 L 14.298,9.552 14.644,9.288 C 15.083,8.917 15.335,8.464 15.384,7.952 15.446,7.441 15.281,6.859 14.974,6.331 14.669,5.8 14.239,5.309 13.741,4.92 13.244,4.541 12.664,4.243 12.126,4.177 11.581,4.116 11.196,4.283 10.93,4.737 10.672,5.206 10.584,5.871 10.58,6.533 L 10.564,6.412 c 0.074,0.359 0.217,0.687 0.374,0.839 0.136,0.137 0.291,0.158 0.588,0.045 0.278,-0.116 0.57,-0.358 0.777,-0.62 0.1,-0.122 0.187,-0.292 0.193,-0.335 0.005,-0.013 -0.002,0.011 0.012,0.045 0.01,0.059 0.06,0.133 0.126,0.172 0.133,0.058 0.073,0.025 0.038,0.033 L 12.648,6.596 C 12.377,6.654 12.109,6.482 12.05,6.211 11.991,5.939 12.164,5.672 12.436,5.612 12.467,5.605 12.5,5.602 12.531,5.601 c 0.171,-0.004 0.341,-0.068 0.657,0.112 0.156,0.102 0.264,0.265 0.306,0.427 0.03,0.139 0.028,0.268 0.012,0.361 C 13.435,6.879 13.286,7.08 13.141,7.3 12.833,7.71 12.468,8.048 11.973,8.289 11.724,8.404 11.428,8.491 11.094,8.475 10.76,8.462 10.411,8.307 10.179,8.091 9.713,7.651 9.546,7.145 9.42,6.686 L 9.405,6.631 9.404,6.563 C 9.39,5.789 9.424,4.966 9.83,4.139 10.059,3.742 10.378,3.327 10.849,3.107 11.3,2.886 11.806,2.809 12.254,2.854 c 0.906,0.089 1.659,0.478 2.325,0.942 0.658,0.477 1.224,1.072 1.664,1.779 0.437,0.701 0.753,1.558 0.69,2.498 -0.044,0.939 -0.543,1.843 -1.195,2.421 l -0.502,0.411 -0.561,0.353 c -0.189,0.112 -0.332,0.167 -0.5,0.254 l -0.286,0.134 -0.316,0.095 c -0.424,0.125 -0.854,0.255 -1.269,0.247 l -0.63,0.033 c -0.207,0 -0.403,-0.036 -0.605,-0.052 C 10.666,11.93 10.263,11.883 9.889,11.773 9.511,11.674 9.115,11.605 8.76,11.46 8.398,11.326 8.026,11.209 7.674,11.059 L 6.633,10.581 C 5.963,10.224 5.283,9.877 4.659,9.449 4.012,9.053 3.414,8.588 2.808,8.132 2.23,7.638 1.636,7.164 1.107,6.604 0.553,6.081 0.06,5.478 -0.429,4.87 L -1.107,3.896 -1.688,2.819 C -1.869,2.43 -2.014,1.95 -2.157,1.512 -2.257,1.105 -2.279,0.784 -2.346,0.416" />
      </g>
      <g
         transform="translate(513.1269,336.1726)"
         id="g13620">
        <path
           id="path13622"
           style="fill:#0c0a08;fill-opacity:1;fill-rule:nonzero;stroke:none"
           d="M 0,0 0.072,-0.005 C 0.185,-0.016 0.258,-0.022 0.413,0.066 0.463,0.1 0.521,0.179 0.541,0.261 0.552,0.311 0.554,0.356 0.554,0.392 L 0.284,0.279 0.271,0.05 Z m -12.589,-6.365 c -0.012,0 -0.023,0.001 -0.035,0.002 -0.206,0.017 -0.356,0.215 -0.34,0.421 0.002,0.023 0.012,0.08 0.019,0.102 0.016,0.143 0.03,0.269 0.044,0.395 0.027,0.253 0.055,0.505 0.103,0.707 0.07,0.175 0.104,0.283 0.14,0.394 0.039,0.125 0.081,0.254 0.138,0.394 l 0.431,0.872 0.556,0.862 c 0.43,0.574 0.841,1.118 1.333,1.612 0.346,0.398 0.759,0.771 1.156,1.132 l 0.607,0.526 c 0.45,0.364 0.914,0.74 1.412,1.068 0.463,0.344 0.978,0.642 1.477,0.93 l 0.289,0.167 0.934,0.469 c 0.211,0.1 0.417,0.18 0.623,0.26 l 0.338,0.134 c 0.228,0.106 0.467,0.17 0.696,0.232 0.095,0.025 0.19,0.051 0.285,0.08 0.335,0.115 0.667,0.159 0.987,0.202 0.359,0.078 0.703,0.073 1.018,0.055 0.264,0.027 0.529,-0.041 0.763,-0.1 L 1.201,4.276 C 1.326,4.222 1.45,4.167 1.539,4.113 L 1.897,3.902 2.281,3.613 C 2.808,3.169 3.109,2.62 3.167,2.015 3.235,1.456 3.073,0.796 2.708,0.169 2.38,-0.402 1.921,-0.928 1.382,-1.349 0.777,-1.81 0.14,-2.1 -0.418,-2.168 c -0.7,-0.081 -1.23,0.171 -1.565,0.742 -0.256,0.464 -0.389,1.104 -0.401,1.911 l -0.013,0.002 0.015,0.121 0.01,-0.001 c 0.096,0.403 0.264,0.75 0.458,0.939 0.323,0.325 0.717,0.228 0.984,0.127 C -0.619,1.543 -0.301,1.3 -0.054,1.009 0.006,1.001 0.073,1.003 0.138,0.989 L 0.305,1.02 C 0.293,1.037 0.282,1.054 0.271,1.071 -0.051,1.504 -0.379,1.783 -0.781,1.979 -1.02,2.089 -1.253,2.138 -1.478,2.127 -1.715,2.118 -1.979,2.006 -2.156,1.843 c -0.392,-0.37 -0.537,-0.81 -0.653,-1.23 -0.014,-0.712 0.003,-1.504 0.386,-2.282 0.243,-0.421 0.522,-0.708 0.84,-0.857 0.371,-0.182 0.81,-0.261 1.209,-0.22 0.708,0.07 1.391,0.348 2.149,0.876 0.627,0.456 1.155,1.019 1.56,1.67 C 3.807,0.557 4.02,1.322 3.969,2.075 3.932,2.861 3.522,3.688 2.899,4.241 L 2.409,4.642 1.886,4.967 C 1.785,5.027 1.692,5.07 1.601,5.113 L 1.139,5.334 0.876,5.409 C 0.449,5.535 0.07,5.647 -0.279,5.64 L -0.936,5.674 C -1.035,5.673 -1.15,5.659 -1.266,5.646 L -1.49,5.622 C -1.854,5.586 -2.245,5.543 -2.596,5.44 L -2.947,5.354 C -3.212,5.291 -3.463,5.232 -3.688,5.14 L -4.073,5.001 C -4.308,4.919 -4.543,4.837 -4.769,4.741 L -6.034,4.142 C -6.603,3.84 -7.19,3.529 -7.719,3.167 -8.284,2.82 -8.813,2.42 -9.325,2.034 L -9.887,1.578 c -0.45,-0.379 -0.915,-0.771 -1.323,-1.204 -0.541,-0.512 -1.007,-1.078 -1.517,-1.712 l -0.663,-0.954 -0.558,-1.04 c -0.132,-0.287 -0.255,-0.667 -0.373,-1.034 l -0.07,-0.212 c -0.052,-0.218 -0.082,-0.43 -0.113,-0.642 -0.018,-0.133 -0.037,-0.265 -0.062,-0.404 -0.038,-0.203 -0.227,-0.339 -0.436,-0.302 -0.204,0.036 -0.34,0.232 -0.303,0.435 0.024,0.13 0.041,0.254 0.059,0.377 0.034,0.235 0.068,0.47 0.135,0.742 l 0.076,0.237 c 0.125,0.388 0.255,0.79 0.417,1.139 l 0.591,1.097 0.701,1.01 c 0.543,0.677 1.025,1.264 1.586,1.793 0.423,0.448 0.904,0.854 1.369,1.247 l 0.594,0.481 c 0.526,0.397 1.07,0.808 1.65,1.164 0.547,0.375 1.154,0.697 1.741,1.009 l 0.252,0.134 1.062,0.487 c 0.25,0.107 0.5,0.195 0.75,0.283 l 0.362,0.129 c 0.268,0.11 0.559,0.179 0.841,0.246 l 0.322,0.079 c 0.403,0.118 0.835,0.167 1.24,0.206 l 0.204,0.021 c 0.144,0.017 0.288,0.033 0.437,0.033 L -0.267,6.39 C 0.208,6.406 0.625,6.265 1.062,6.136 L 1.406,6.033 1.922,5.792 C 2.033,5.739 2.145,5.686 2.277,5.607 L 2.846,5.25 3.386,4.811 C 4.178,4.109 4.671,3.105 4.718,2.118 4.778,1.213 4.527,0.297 3.972,-0.596 3.515,-1.33 2.922,-1.964 2.209,-2.481 1.336,-3.089 0.54,-3.41 -0.3,-3.492 c -0.542,-0.059 -1.114,0.047 -1.606,0.29 -0.456,0.212 -0.844,0.599 -1.179,1.18 -0.445,0.907 -0.491,1.793 -0.476,2.62 l 0.014,0.157 c 0.152,0.556 0.344,1.131 0.878,1.636 0.312,0.289 0.744,0.469 1.158,0.485 0.344,0.021 0.699,-0.057 1.051,-0.22 C 0.054,2.406 0.48,2.046 0.851,1.552 1.04,1.27 1.204,1.023 1.284,0.597 1.313,0.438 1.308,0.258 1.271,0.087 1.199,-0.188 1.031,-0.424 0.806,-0.573 0.426,-0.79 0.175,-0.768 0.006,-0.752 c -0.13,0.006 -0.187,0.013 -0.24,0.025 -0.473,0.103 -0.775,0.572 -0.672,1.044 0.027,0.127 0.082,0.242 0.155,0.34 -0.147,0.143 -0.312,0.259 -0.457,0.32 -0.132,0.049 -0.175,0.044 -0.178,0.044 -0.065,-0.07 -0.174,-0.259 -0.248,-0.55 0.013,-0.662 0.116,-1.188 0.302,-1.526 0.182,-0.308 0.406,-0.416 0.827,-0.369 0.423,0.052 0.932,0.29 1.429,0.669 0.46,0.359 0.853,0.809 1.135,1.299 0.28,0.482 0.412,0.988 0.363,1.39 C 2.381,2.355 2.177,2.72 1.812,3.028 L 1.48,3.28 1.154,3.469 C 1.085,3.511 0.994,3.548 0.903,3.587 L 0.201,3.824 C -0.001,3.875 -0.174,3.918 -0.367,3.903 -0.725,3.919 -0.979,3.918 -1.243,3.861 -1.595,3.813 -1.875,3.775 -2.15,3.681 -2.266,3.646 -2.37,3.617 -2.474,3.589 -2.672,3.536 -2.87,3.485 -3.063,3.396 L -3.431,3.249 C -3.621,3.175 -3.812,3.102 -3.998,3.014 L -5.173,2.402 C -5.675,2.112 -6.149,1.838 -6.596,1.507 -7.08,1.188 -7.529,0.824 -7.964,0.472 l -0.576,-0.5 c -0.399,-0.362 -0.777,-0.704 -1.112,-1.087 -0.472,-0.475 -0.867,-0.999 -1.247,-1.505 l -0.539,-0.829 -0.399,-0.81 c -0.038,-0.095 -0.073,-0.206 -0.107,-0.312 -0.043,-0.136 -0.085,-0.267 -0.145,-0.403 -0.02,-0.113 -0.043,-0.333 -0.067,-0.552 -0.014,-0.135 -0.029,-0.269 -0.047,-0.395 l -0.02,-0.117 c -0.015,-0.194 -0.174,-0.327 -0.366,-0.327" />
      </g>
      <g
         transform="translate(479.831,310.2727)"
         id="g13624">
        <path
           id="path13626"
           style="fill:#d9baae;fill-opacity:1;fill-rule:nonzero;stroke:none"
           d="m 0,0 c -2.853,-1.46 -5.364,-4.159 -4.386,-7.481 0.786,-2.668 4.839,-6.766 7.824,-6.672 -1.417,1.707 -3.483,3.35 -2.602,5.893 0.478,1.38 1.351,2.831 2.643,2.794 0,0 0.151,1.371 -0.763,2.591 C 1.802,-1.655 0,0 0,0" />
      </g>
      <g
         transform="translate(479.7266,309.4787)"
         id="g13628">
        <path
           id="path13630"
           style="fill:#0c0a08;fill-opacity:1;fill-rule:nonzero;stroke:none"
           d="m 0,0 c -2.38,-1.343 -4.487,-3.687 -3.658,-6.504 0.553,-1.874 3.041,-4.739 5.407,-5.796 -1.153,1.352 -2.162,2.913 -1.423,5.047 0.611,1.76 1.518,2.853 2.597,3.149 C 2.878,-3.68 2.734,-3.05 2.3,-2.471 1.665,-1.623 0.554,-0.53 0,0 m 3.441,-14.011 c -3.385,0 -7.534,4.386 -8.346,7.14 -1.1,3.736 1.713,6.708 4.714,8.244 L 0.211,1.579 0.544,1.272 C 0.62,1.203 2.401,-0.438 3.34,-1.691 4.396,-3.101 4.236,-4.677 4.229,-4.743 L 4.163,-5.339 3.564,-5.322 c -1.108,0 -1.818,-1.804 -2.009,-2.357 -0.617,-1.778 0.486,-3.009 1.763,-4.436 0.248,-0.277 0.495,-0.552 0.724,-0.829 l 0.849,-1.023 z" />
      </g>
    </g>
  </g>
</svg>
