<?xml version="1.0" encoding="UTF-8" standalone="no"?>
<!-- Generator: Adobe Illustrator 18.0.0, SVG Export Plug-In . SVG Version: 6.00 Build 0)  -->

<svg
   xmlns:dc="http://purl.org/dc/elements/1.1/"
   xmlns:cc="http://creativecommons.org/ns#"
   xmlns:rdf="http://www.w3.org/1999/02/22-rdf-syntax-ns#"
   xmlns:svg="http://www.w3.org/2000/svg"
   xmlns="http://www.w3.org/2000/svg"
   xmlns:sodipodi="http://sodipodi.sourceforge.net/DTD/sodipodi-0.dtd"
   xmlns:inkscape="http://www.inkscape.org/namespaces/inkscape"
   version="1.1"
   id="Слой_2"
   x="0px"
   y="0px"
   viewBox="0 165 1590 833"
   enable-background="new 0 165 1590 833"
   xml:space="preserve"
   sodipodi:docname="moped.svg"
   inkscape:version="0.92.3 (2405546, 2018-03-11)"><metadata
   id="metadata9"><rdf:RDF><cc:Work
       rdf:about=""><dc:format>image/svg+xml</dc:format><dc:type
         rdf:resource="http://purl.org/dc/dcmitype/StillImage" /><dc:title></dc:title></cc:Work></rdf:RDF></metadata><defs
   id="defs7" /><sodipodi:namedview
   pagecolor="#ffffff"
   bordercolor="#666666"
   borderopacity="1"
   objecttolerance="10"
   gridtolerance="10"
   guidetolerance="10"
   inkscape:pageopacity="0"
   inkscape:pageshadow="2"
   inkscape:window-width="1920"
   inkscape:window-height="1019"
   id="namedview5"
   showgrid="false"
   inkscape:zoom="0.88038398"
   inkscape:cx="795.7"
   inkscape:cy="415.58765"
   inkscape:window-x="0"
   inkscape:window-y="0"
   inkscape:window-maximized="1"
   inkscape:current-layer="Слой_2" />
<path
   fill="#000000"
   stroke=""
   stroke-width="2"
   stroke-miterlimit="10"
   d="M1587.4,678.4l-4.2-15H1565c0,0-1.1-6.4-2.6-12.9  c-1.6-6.5-13.4-47-13.4-47l3.2-4.8l24.5-8.5l-11.3-52.9l-42.7,1.1l-2.7-3.2l-9.1,1.1l-12.3-13.6c0,0,9.7,0.3,23.5-7.2  c13.9-7.4-0.5-21.3-17.1-27.8c-16.6-6.4-49.2-6.4-49.2-6.4l-57.6-33.1l18.2-2.7c0,0,0,0-8-12.9c-7.9-12.9-16-17.1-28.9-18.7  c-12.9-1.6-181-2.1-191.2-0.7s-11.3,5.4-19.7,19.9c-8.5,14.4-2.6,17.6-2.6,17.6s-97.8-2.1-108.9-5.8c-11.3-3.7-8.5-17.6-8.5-17.6  l9.1-28.4l-2.1-2.6l4.8-10.7l27.8,0.5c0,0,1.6-3.7,3.2-3.7c1.6,0,44.4,6.9,44.4,6.9s0.5,2.7,7.4,6.4c6.9,3.7,33.1,0,33.1,0  s1.1-32.6,0.5-35.8c-0.5-3.2-3.2-10.7-14.4-9.7c-11.3,1.1-9.1,17.6-9.1,17.6l-5.3-0.5c0,0-0.5-8.5,4.2-17.6s20.3-5.3,20.3-5.3  l1.1-5.8c0,0-7.4-4.8-21.9,0.5c-14.4,5.3-16,24.1-16,24.1l-41.1-7.4c0,0-1.6-3.2,7.4-4.8c9.1-1.6,39.5-18.7,49.7-28.9  c10.2-10.2,43.2-25.6,43.2-25.6s-4.8-20.8-13.4-24.5c-8.5-3.7-32.6,3.2-58.7,5.3c-26.1,2.1-158.6-9.7-163.4-12.9s-10.7-8-17.6-6.4  s-7.4,5.3,1.1,29.4c8.5,24,41.1,66.2,52.3,75.8c11.3,9.5,43.2,13.9,43.2,13.9l-2.7,12.9h-2.7l-9.1,26.5c0,0-3.2,1.9-10.7,9.3  c-7.4,7.4-24,52.9-28.9,68.4c-4.8,15.5-48.6,159.7-48.6,159.7s-25-8-66.2-25c-41.1-17.1-152.8-85.5-152.8-85.5s6.4,2.1,20.3,0  c13.9-2.1,35.8-28.4,27.3-81.2s-36.8-103.6-65.2-141s-69.6-51.9-69.6-51.9s0.5-3.2,0-9.1c-0.5-5.8-28.4-5.8-28.4-5.8l-17.6-10.7  c0,0,0.5-4.2-1.6-7.9c-2.1-3.7-4.8-7.4-4.8-7.4l3.2-4.8l-4.2-3.7c0,0,20.8,2.6,25-4.8c4.2-7.4-2.1-15-2.1-15l-22.9-2.6  c0,0,0,0,22.9-7.4s-1.1-12.9-10.7-6.4c-9.7,6.4-15.5,9.1-15.5,9.1s-1.6-4.8-13.9-11.3c-12.3-6.4-18.7,4.8-18.7,4.8l-25-4.8  c0,0-6.4,10.7-9.7,18.7c-3.2,8,6.4-1.6-4.8,8c-11.3,9.7-20.8,40.5-20.8,40.5s-7.9,0-12.3,5.3c-4.2,5.3-5.8,13.9-5.8,13.9  s0,0-3.2,1.6s-3.2,6.9-5.3,12.3c-2.1,5.3-5.8,13.4-5.8,13.4s-9.1-2.1-6-3.7s6.4-13.4,5.8-23.5c-0.5-10.2-9.1-15-17.1-21.9  c-6.6-5.7-20.9-11.5-48-16.6c-0.1-3.7-0.7-7.6-2.8-9.5c-4.2-4.2-21.9-5.3-25-4.8c-1.6,0.3-4.4,5-6.8,9.7  c-26.8-1.1-34.8,7.4-34.8,7.4l4.2,11.8c0,0,0.5,8.5,0,32.6s12.3,37.9,14.4,42.7s12.3,3.2,27.3,3.2c15,0,36.8-4.8,35.1-2.7  c-1.7,2.1-7.8,2.1-13.8,9.7c-5.8,7.4-4.2,12.9,0,21.3s9.1,16,12.9,33.1c2.5,11.7-0.9,34.7-3.3,48.1c-28.5-9.9-42.5-12.3-42.5-12.3  c-34.2-6.9-77.9-8-115.9-2.1c-37.9,5.8-51.8,15-51.8,15s9.1,6.4,12.9,9.7c3.7,3.2,15,16.6,17.6,25.3c0.5,1.9,1.7,3.4,3.3,4.9  C93.8,495.5,4,600.4,4,726.3c0,143.1,115.9,259,259,259c126,0,230.9-90,254.1-209.1c6.4,4.6,16.6,9.5,16.6,9.5v8.5  c0,0,19.2,3.2,22.9,12.3c3.7,9.1,3.7,9.1,3.7,9.1s39.5-99.9,20.3-172c-19.2-72.1-48.1-110-83.3-143.1c-18.2-17.1-36-31.1-53.5-42.4  l2.3-6.8l21.9,3.2l-1.1-12.3c0,0-3.2,1.1-2.1-6.4c1.1-7.4,4.8-10.2,26.1-10.2c21.3,0,37.4,21.3,72.6,58.7  c29.9,31.8,122.8,101.4,154.9,125.1c-12.1,11.4-37.2,35.1-40.1,35.1c-3.7,0-16.6,6.9-16.6,6.9s-22.9-24.5-33.7-32.1  c-10.7-7.4-20.3,12.3-20.3,12.3l1.1,6.4l-9.7,13.4v8c0,0-5.3,1.1-2.1,20.8c2.3,13.5,17.8,17.6,27.3,18.7c2.1,6.2,5.3,10.6,5.3,10.6  l10.7,16.3l-3.7,6.6l8,12.9c0,0-2.1,1.1-10.2,6.4c-8,5.3-22.4,33.7-23.5,39.5c-1.1,5.8-5.8,28.4,34.7,42.7  c30.3,10.7,67.3,4.8,84,1.2c19.2,8.2,49.2,8.9,66.6,6.9c23.5-2.6,88.6-17.6,88.6-17.6l42.7-5.8c0,0,73-1.2,116.7-2.3  c36.7,98.4,131.6,168.7,242.7,168.7c143.1,0,259-115.9,259-259c0-14.7-1.2-29-3.6-43.1c3.2,5.6,6.4,12.5,8.2,19.9  c3.7,15,13.4,9.1,15.5,5.3s-1.1-29.9-1.1-29.9h22.3V678.4z M271.2,670.6c-2.6-0.4-5.4-0.7-8.2-0.7c-2.8,0-5.6,0.3-8.2,0.7l-0.9-1.7  l9.9-58l8.5,58L271.2,670.6z M272.3,783.6l-9.9,58l-8.5-58l1.1-1.7c2.6,0.4,5.4,0.7,8.2,0.7s5.6-0.3,8.2-0.7L272.3,783.6z   M381.7,705.3l-24.8,0.1c-1.5-4.4-2.1-8.9-1.6-13.1c0.3-2.1,2.6-9.5,6.4-19.9l6.5-5.2l77.5-28.6c6.1,12.9,11,26.4,14.3,40.5  L381.7,705.3z M460.4,680.8c1.9,7.8,3.2,15.9,4,24.1l-77.4,0.4L460.4,680.8z M313,686l-3.4,1.3l6.5-10.6L313,686z M318.1,670.2  l-11.1,18l-1.9,0.7c-3.7-4.1-7.9-7.7-12.7-10.6l0.4-2l32.1-27.2L318.1,670.2z M291.4,675.5l-1.6,1.3c-4.8-2.7-10.1-4.5-15.5-5.7  l-0.3-2l29.1-51.1L291.4,675.5z M307,691.3l1.1-1.7l4.2-1.6l-2.4,7.3C309,693.9,308.1,692.6,307,691.3z M363.3,669.2l-0.5,0.4  c0-0.1,0-0.1,0.1-0.3L363.3,669.2z M357.6,707.1l19.2-0.1l-16.7,5.6C359.1,710.8,358.3,708.9,357.6,707.1z M372.3,664.1L433,616  c4.4,6.8,8.5,13.9,12.1,21.2L372.3,664.1z M367.4,666l-3.8,1.5c7.7-21.1,19.2-51.4,28.4-75l12.7-10.7c10.2,10.1,19.3,21.1,27.3,33.1  L367.4,666z M403.6,580.5l-10.3,8.7c1.9-4.9,3.7-9.4,5.2-13.5C400.2,577.3,401.9,578.9,403.6,580.5z M326,646.2l-32.6,27.6  l12.5-60.3l40.9-71.7c3.8,1.7,7.6,3.6,11.3,5.6L326,646.2z M306.9,608.5l15.6-75.8c7.8,2.4,15.5,5.3,22.8,8.6L306.9,608.5z   M263,523.8c4.6,0,9.4,0.1,13.9,0.5l-13.1,76.3l-11.3-76.6C256,523.8,259.6,523.8,263,523.8z M264.6,605.7l13.9-81.4  c14.6,1.1,28.8,3.7,42.3,7.8L304.2,613l-30.6,53.7L264.6,605.7z M274.3,781.4c5.6-1.1,10.7-3,15.5-5.7l1.5,1.3l10.5,57.9l-27.8-51.5  L274.3,781.4z M315.1,778.3l21.5,36.8l-43.7-39C297.7,777.6,304.8,778.6,315.1,778.3z M350.5,774.5l12.2,10.1l-21.6-8.6  C344.2,775.6,347.4,775,350.5,774.5z M366.1,721.2c-1.9-2.3-3.6-4.6-5.2-7.3l21.1-7l82.5-0.4c0.3,3.2,0.5,6.4,0.7,9.5l-78.3,16.3  C386.9,732.4,373.1,729.5,366.1,721.2z M251,524.1l12.1,81.6l-10.5,60.8l-29.3-54.1l-14.7-81.4C222.2,527.4,236.4,525,251,524.1z   M218.9,691.3c-3.4,4.4-6.2,9.1-8.2,14.3h-2L163.4,668l54.5,21.6L218.9,691.3z M189.3,637.4l43.9,39l0.4,2c-4.8,2.9-9,6.5-12.7,10.6  l-1.9-0.8L189.3,637.4z M209.6,708.5c-1.7,5.2-2.7,10.6-2.9,16.3l-1.9,0.7l-55.4-19.9l58.6,1.7L209.6,708.5z M206.8,727.9  c0.1,5.7,1.2,11.1,2.9,16.3l-1.6,1.2l-58.8,0.3l55.7-18.4L206.8,727.9z M208.7,746.9h2c2.1,5.2,4.9,10.1,8.2,14.3l-1.1,1.7  l-55.3,20.4L208.7,746.9z M219,764.3l2-0.7c3.7,4.1,7.9,7.7,12.7,10.6l-0.5,2l-44.9,38L219,764.3z M234.7,777l1.6-1.3  c4.8,2.6,10.1,4.5,15.5,5.7l0.3,2l-29.1,51.1L234.7,777z M251.8,671.2c-5.6,1.1-10.7,3-15.5,5.7l-1.5-1.3l-10.5-57.9l27.8,51.5  L251.8,671.2z M207,531.6l13.8,76.2l-36.8-68.1C191.5,536.5,199.1,533.9,207,531.6z M182.6,540.4l39.2,72.6l11,60.8l-46-40.8  l-41.7-71.4C156.7,553.2,169.3,546.1,182.6,540.4z M143.9,562.5l39,66.9L125.1,578C130.9,572.4,137.3,567.3,143.9,562.5z   M123.9,579.2l61.6,54.7l31.1,53.4l-57.2-22.7l-63.5-52.7C104,600,113.4,589,123.9,579.2z M95,613.1l59.5,49.6l-71.9-28.5  C86.3,626.9,90.5,619.9,95,613.1z M81.9,635.6l76.7,30.3l47.4,39.5l-61.5-1.7l-77.8-28C70.4,661.7,75.5,648.4,81.9,635.6z   M66.4,677.4l72.9,26.1l-77.4-2.3C63.1,693.3,64.5,685.2,66.4,677.4z M60.4,726.3c0-7.8,0.5-15.6,1.3-23.2l82.4,2.4l58.2,20.8  l-58.4,19.3L61.3,746C60.8,739.5,60.4,732.9,60.4,726.3z M61.6,747.6l77.5-0.4l-73.4,24.4C63.9,763.8,62.4,755.8,61.6,747.6z   M66,773.3l78.3-26l61.7-0.3l-48.2,38.2l-77.5,28.6C74.2,800.9,69.3,787.4,66,773.3z M81.1,815.2l72.7-26.8l-60.7,48.1  C88.6,829.6,84.7,822.6,81.1,815.2z M93.9,837.8l64.7-51.1l57.9-21.3l-32.2,52.3l-62.9,53.4C111,860.9,101.9,849.8,93.9,837.8z   M122.4,872l59.1-50.1L141,887.8C134.5,883,128.3,877.7,122.4,872z M142.3,888.9l43.2-70.2l47.2-39.9L220.2,839l-40.9,71.7  C166.2,904.8,153.7,897.5,142.3,888.9z M180.7,911.4l38.4-67.3l-15.6,75.8C195.8,917.5,188.2,914.7,180.7,911.4z M205.1,920.4  l16.6-80.8l30.6-53.7l9,60.8l-13.9,81.4C232.8,927.1,218.8,924.4,205.1,920.4z M263,928.7c-4.6,0-9.4-0.1-13.9-0.5l13.1-76.3  l11.3,76.6C270,928.7,266.5,928.7,263,928.7z M275.1,928.5L263,846.8l10.5-60.8l29.3,54.1l14.7,81.2  C303.8,925.2,289.6,927.5,275.1,928.5z M319.1,920.9l-13.8-76.2l36.8,68.1C334.6,916,326.9,918.7,319.1,920.9z M343.4,912.2  l-39.2-72.6l-11-60.8l46,40.8l41.6,71.3C369.3,899.3,356.7,906.3,343.4,912.2z M382.1,890l-39-66.9l57.8,51.4  C395,880,388.8,885.3,382.1,890z M402.1,873.3l-61.6-54.7l-23.6-40.4c2.5-0.1,5-0.3,8-0.5c4.5-0.4,8.7-0.8,12.7-1.3l29,11.5  l63.5,52.7C421.9,852.5,412.6,863.5,402.1,873.3z M431,839.4l-59.5-49.6l71.9,28.5C439.6,825.6,435.5,832.7,431,839.4z M444.1,816.9  l-76.7-30.3l-15-12.5c20.8-4.1,32.2-9.8,37.6-13.9c2.1-1.6,4.5-3.7,6.8-5.8l62.3,22.4C455.5,790.8,450.5,804.2,444.1,816.9z   M459.5,775.2l-61.3-22c1.3-1.3,2.6-2.5,3.8-3.7l61.9,1.7C463,759.3,461.5,767.2,459.5,775.2z M403.6,747.7c2.4-2.4,4.1-4.2,4.1-4.2  l57.8-13.6c-0.1,6.6-0.5,13.1-1.3,19.6L403.6,747.7z M628.3,675.3c-4.6,4.9-5.8,10.6-5.4,15.9c-10.1-2.8-13.9-9.9-17.5-17  c-4.2-8.5,3.7-10.2,5.3-11.8s13.9-15,13.9-15l15,15.5C639.4,662.9,641.6,661.3,628.3,675.3z M651.2,810.9c-11.3-2.1-14.4-9.1-15-16  c-0.5-6.9,22.9-32.1,22.9-32.1l11.3-2.6l4.8-6.9l32.1,10.7c0,0,4.2-4.8-2.7,4.8c-6,8.2-3.3,29.4,5.3,47  C693.5,815.6,661.3,812.8,651.2,810.9z M738.8,691.3c0,0-3.7-2.7-7.4-10.7c-3.7-8-19.2-26.8-19.2-26.8l25.8-27.6  c2.1,9.9,7.7,32.5,7.7,32.5l-2.1,4.8l3.2,16L738.8,691.3z M767,665.1l-4.2-9.1l-9.1-1.6l-9.7-27.4c8.5,5.2,19.1,11.5,28.8,17.5  l0.7,17.9L767,665.1z M856.2,709.4l-29.4,1.6l-5.8-21.9l8-8.5l0.1-2.8c16.8,8.6,32.3,16.2,32.3,16.2L856.2,709.4z M1256.9,787.1  l2.1-10.1l1.6-1.3c4.8,2.7,10.1,4.5,15.5,5.7l0.1,0.9C1270,784,1263.5,785.6,1256.9,787.1z M1271.7,791.5l-24.5,43.1l8.2-39.8  C1260.9,793.7,1266.4,792.5,1271.7,791.5z M1225.4,793.6l18-29.3l2-0.7c3.7,4.1,7.9,7.7,12.7,10.6l-0.4,2l-17.1,14.4  C1235.4,791.7,1230.3,792.7,1225.4,793.6z M1230.1,799.4l-17.5,14.8l8.2-13.2C1223.8,800.5,1227,799.9,1230.1,799.4z M1100.5,804.6  c-2.8-6.8-5.3-13.6-7.4-20.7c9.4-1.5,27.2-4.9,29.5-10.5c2.3-5.2-1.5-8.2-4-9.7l26.9-9h74.7l-38.3,30.3l-48.8,18  C1122.7,803.7,1111.7,804.2,1100.5,804.6z M1350.3,533.8c6.6,2.1,13,4.6,19.2,7.4l-38.4,67.3l15.4-74.7  C1347.8,533.8,1349.1,533.8,1350.3,533.8z M1391.8,666l-26.2,9.7c-1.9-2.5-4.5-6.2-8.2-11.7c-1.6-2.3-3.3-4.2-5.3-6.1l14.2-23.1  l62.9-53.4c10.2,10.1,19.3,21.1,27.3,33.1L1391.8,666z M1457.2,616.2c4.4,6.8,8.5,13.9,12.1,21.2l-72.6,26.8L1457.2,616.2z   M1243.2,761.3l-1.1,1.7l-55.3,20.4l36-28.5h15.9C1240.2,757,1241.7,759.3,1243.2,761.3z M1345.1,652.7l17-14.3l-11.4,18.5  C1349,655.4,1347.1,653.9,1345.1,652.7z M1314.4,640.9l13.1-22.8l-5,24.8C1319.7,642.1,1317.1,641.5,1314.4,640.9z M1210.9,635.8  l6.9,11.8c-4.9,0.9-8,1.6-8,1.6S1208.7,647.3,1210.9,635.8z M1213.7,637.4l10.2,9c-1.6,0.3-3,0.5-4.4,0.8L1213.7,637.4z   M1252.8,641.1l-4.2-23.5l11.9,22.1C1258.1,640,1255.6,640.5,1252.8,641.1z M1283.5,637.5l4.6-26.6l4,27  C1289,637.6,1286,637.5,1283.5,637.5z M1279.4,541.2c6.4-1.9,13-3.2,19.6-4.2l-10.9,63.6L1279.4,541.2z M1287.4,605.7l-5.4,31.8  c-4.5,0-7.9,0.1-10.1,0.4s-5.6,0.8-9.5,1.5l-14.6-26.9l-9-49.8c10.1-9.9,24.1-16.6,39.2-21.1L1287.4,605.7z M1245.1,607.8  l-16.8-31.1c2.4-4.6,5.4-8.9,8.9-12.6L1245.1,607.8z M1246,613l5.2,28.4c-8.3,1.5-17.6,3.3-25.3,4.8l-14.4-12.9  c2-9.7,6-24.9,13.9-49.2c0.7-1.9,1.3-3.7,2.1-5.4L1246,613z M1116.7,762.7l23.8-8l0,0L1116.7,762.7L1116.7,762.7z M1366.5,677  l0.8-0.3C1367.3,676.7,1367,676.9,1366.5,677c5.7,7.7,0.8-0.3,0.8-0.3l20.4-7.6l-46,36.4h-2c-1.3-3.3-2.9-6.4-4.8-9.4  C1346.7,689.2,1363,679.2,1366.5,677C1366.5,677.1,1366.5,677.1,1366.5,677z M1368.9,630.5l40.5-65.9c6.5,4.9,12.7,10.2,18.6,15.9  L1368.9,630.5z M1364.8,633.9l-21.2,17.9c-6-3.6-12.7-6.4-19.7-8.5l6.1-29.8l40.9-71.7c13.1,6,25.6,13.4,37,21.9L1364.8,633.9z   M1344.9,533.6l-16.3,79.2l-15.8,27.6c-6.6-1.3-13.1-2.1-19.1-2.7l-4.8-32.2l11.9-69C1316.4,534.1,1331.9,533.5,1344.9,533.6z   M1178.1,788.4l-16.7,13.2c-7.2,0.4-14.7,0.9-22.7,1.3L1178.1,788.4z M1183,786.6l57.9-21.3l-17.8,28.8c-8.5,1.6-16.8,2.9-24.5,4.1  c-7.9,1.2-20,2.4-34.3,3.3L1183,786.6z M1257,778.7l-1.9,8.7c-3.8,0.8-7.6,1.7-11.4,2.5L1257,778.7z M1296.2,785.4l-9.7,56.3  l-7.7-51.8C1285.1,788.4,1290.9,787,1296.2,785.4z M1315.9,778.5l10.2,56.4l-27.2-50.3C1305.7,782.6,1311.5,780.6,1315.9,778.5z   M1323,774.1c3.8-3.4,6.8-6.6,8.6-9.1l29.3,50.2l-42.7-37.9C1320.2,776.2,1321.8,775.2,1323,774.1z M1333.9,757.9  c2.3-3.4,4.2-7,5.8-11h2l45.3,37.6l-54.1-21.5C1334.7,760.3,1334.9,758.5,1333.9,757.9z M1340.6,744c1.7-5.2,2.7-10.6,2.9-16.3  l1.9-0.7l55.4,19.9l-58.6-1.7L1340.6,744z M1343.6,724.7c-0.1-5.7-1.2-11.1-2.9-16.3l1.6-1.2l58.8-0.3l-55.7,18.4L1343.6,724.7z   M1344.3,705.6l48.2-38.2l77.5-28.6c6.1,12.9,11,26.4,14.3,40.5l-78.3,26L1344.3,705.6z M1484.8,680.8c1.9,7.8,3.2,15.9,4,24.1  l-77.4,0.4L1484.8,680.8z M986.6,807.8l49.8-16.8c1.3,5.3,2.9,10.5,4.5,15.5C1009.7,807.4,986.6,807.8,986.6,807.8z M1105.3,815.2  l2.7-1.1c12.7-0.7,27-1.5,40.7-2.6l-31.4,24.9C1113,829.6,1108.9,822.6,1105.3,815.2z M1118.3,837.8l33.4-26.5  c10.1-0.9,19.7-2.1,28.1-3.6c9.3-1.6,23.2-3.8,38.7-6.4l-10.1,16.3l-62.9,53.4C1135.4,860.9,1126.2,849.8,1118.3,837.8z M1146.8,872  l59.1-50.1l-40.5,65.9C1158.8,883,1152.6,877.7,1146.8,872z M1166.7,888.9l43.2-70.2l23.5-19.9c6.8-1.2,13.5-2.4,20.4-3.7l-9,43.9  l-40.9,71.7C1190.5,904.8,1178.1,897.5,1166.7,888.9z M1205.1,911.4l38.4-67.3l-15.6,75.8C1220.1,917.5,1212.5,914.7,1205.1,911.4z   M1229.5,920.4l16.6-80.8l27.8-48.6c1.2-0.3,2.3-0.5,3.4-0.8l8.3,56.7l-13.9,81.4C1257.2,927.1,1243.1,924.4,1229.5,920.4z   M1287.4,928.7c-4.6,0-9.4-0.1-13.9-0.5l13.1-76.3l11.3,76.6C1294.3,928.7,1290.8,928.7,1287.4,928.7z M1299.4,928.5l-12.1-81.6  l10.5-60.8l29.3,54.1l14.7,81.2C1328.2,925.2,1314,927.5,1299.4,928.5z M1343.3,920.9l-13.8-76.2l36.8,68.1  C1358.9,916,1351.2,918.7,1343.3,920.9z M1367.8,912.2l-39.2-72.6l-11-60.8l46,40.8l41.6,71.3C1393.6,899.3,1381,906.3,1367.8,912.2  z M1406.5,890l-39-66.9l57.8,51.4C1419.3,880,1413.1,885.3,1406.5,890z M1426.5,873.3l-61.6-54.7l-31.1-53.4l57.2,22.7l63.5,52.7  C1446.2,852.5,1437,863.5,1426.5,873.3z M1455.4,839.4l-59.5-49.6l71.9,28.5C1464,825.6,1459.9,832.7,1455.4,839.4z M1468.5,816.9  l-76.7-30.3l-47.4-39.5l61.5,1.7l77.8,28C1479.9,790.8,1474.9,804.2,1468.5,816.9z M1483.9,775.2l-72.9-26.1l77.4,2.3  C1487.3,759.3,1485.9,767.2,1483.9,775.2z M1488.5,749.5l-82.4-2.4l-58.2-20.8l58.4-19.3l82.5-0.4c0.7,6.5,0.9,13.1,0.9,19.7  C1489.8,734.1,1489.4,741.9,1488.5,749.5z"
   id="path2" />
</svg>