<?xml version="1.0" encoding="UTF-8"?>
<!DOCTYPE svg PUBLIC "-//W3C//DTD SVG 1.1//EN" "http://www.w3.org/Graphics/SVG/1.1/DTD/svg11.dtd">
<!-- Creator: CorelDRAW -->
<svg xmlns="http://www.w3.org/2000/svg" xml:space="preserve" width="210mm" height="297mm" version="1.1" style="shape-rendering:geometricPrecision; text-rendering:geometricPrecision; image-rendering:optimizeQuality; fill-rule:evenodd; clip-rule:evenodd"
viewBox="0 0 21000 29700"
 xmlns:xlink="http://www.w3.org/1999/xlink"
 xmlns:xodm="http://www.corel.com/coreldraw/odm/2003">
 <defs>
  <style type="text/css">
   <![CDATA[
    .str0 {stroke:#333333;stroke-width:9;stroke-linejoin:bevel;stroke-miterlimit:22.9256}
    .fil0 {fill:none}
   ]]>
  </style>
 </defs>
 <g id="Plan_x0020_1">
  <metadata id="CorelCorpID_0Corel-Layer"/>
  <g id="decorative_x0020_panel_x0020_screen_x0020_pattern_x0020_wall_x0020_partition_x0020_--panels-patterns-wall_x0020_screen-doors-mandala-windows.dxf">
   <path class="fil0 str0" d="M-3605.94 -1019.17c0,0 28211.88,0 28211.88,0 0,0 0,0 0,0.01 0,0 0,31738.33 0,31738.33 0,0 0,0 0,0 0,0 -28211.88,0 -28211.88,0 0,0 0,0 0,-0.01 0,0 0,-31738.33 0,-31738.33z"/>
   <path class="fil0 str0" d="M-2759.53 -313.86c77.8,0 140.95,63.15 140.95,141.09 0,0 0,0.01 0,0.01 0,77.81 -63.15,140.95 -140.95,140.95 0,0 0,0 0,0 -77.94,0 -141.09,-63.15 -141.09,-140.96 0,0 0,0 0,0 0,-77.94 63.15,-141.09 141.09,-141.09z"/>
   <path class="fil0 str0" d="M23759.54 -313.86c77.94,0 141.09,63.15 141.09,141.09 0,0 0,0.01 0,0.01 0,77.81 -63.15,140.95 -141.09,140.95 0,0 0,0 0,0 -77.94,0 -141.09,-63.15 -141.09,-140.96 0,0 0,0 0,0 0,-77.94 63.15,-141.09 141.09,-141.09z"/>
   <path class="fil0 str0" d="M-2759.53 29731.68c77.8,0 140.95,63.15 140.95,141.09 0,0 0,0 0,0 0,77.93 -63.15,141.09 -140.95,141.09 0,0 0,0 0,0 -77.94,-0.01 -141.09,-63.16 -141.09,-141.09 0,0 0,-0.01 0,-0.01 0,-77.94 63.15,-141.08 141.09,-141.08z"/>
   <path class="fil0 str0" d="M23759.54 29731.68c77.94,0 141.09,63.15 141.09,141.09 0,0 0,0 0,0 0,77.93 -63.15,141.09 -141.09,141.09 0,0 0,0 0,0 -77.94,-0.01 -141.09,-63.16 -141.09,-141.09 0,0 0,-0.01 0,-0.01 0,-77.94 63.15,-141.08 141.09,-141.08z"/>
   <path class="fil0 str0" d="M22360.23 20872.7c351.99,0 637.37,-296.03 637.37,-661.22 0,0 0,0 0,0 0,-365.05 -285.38,-661.21 -637.37,-661.21 0,0 0,0 0,0 -352.13,0.01 -637.51,296.16 -637.51,661.21 0,0 0,0.01 0,0.01 0,365.19 285.38,661.21 637.51,661.21z"/>
   <path class="fil0 str0" d="M-2195.31 391.46c0,0 0,1579.04 0,1579.04 0,0 0,0.01 0,0.01 760.08,13.72 1475.12,365.7 2157.52,963.64 0,0 0,0 0,0 33.31,-923.55 -383.56,-1814.06 -913.82,-2542.69 0,0 0,0 0,0 0,0 -1243.7,0 -1243.7,0z"/>
   <path class="fil0 str0" d="M-2195.31 3109.21c0,0 0,706.65 0,706.65 0,0 0,0 0,0 319.62,-214.63 765.94,-328.81 1280.34,-388.9 0,0 0,0 0,0 -407.42,-253.27 -858,-353.19 -1280.34,-317.75z"/>
   <path class="fil0 str0" d="M-2195.31 6089.82c0,0 0,1108.07 0,1108.07 0,0 0,0.01 0,0.01 1122.6,347.72 2551.08,-41.31 3360.05,-1007.89 0,0 0,0.01 0,0.01 -1014.01,298.7 -2558.8,572.88 -3360.05,-100.2z"/>
   <path class="fil0 str0" d="M-2195.31 8295.3c0,0 0,632.71 0,632.71 0,0 0,0.01 0,0.01 290.71,200.64 533.06,462.7 722.11,742.21 0,0 0,0 0,0 -32.11,-567.96 112.04,-949.26 295.63,-1297.12 0,0 0,0.01 0,0.01 -368.77,43.82 -702.91,6.78 -1017.74,-77.82z"/>
   <path class="fil0 str0" d="M-2195.31 13309.93c0,0 0,1319.64 0,1319.64 0,0 0,0.01 0,0.01 176.4,390.09 227.03,856.92 277.79,1347.2 0,0 0,0 0,0 760.21,-1250.62 1128.72,-2982.21 276.32,-4758.56 0,0 0,0.01 0,0.01 -137.76,728.37 -278.45,1476.58 -554.11,2091.7z"/>
   <path class="fil0 str0" d="M-2195.31 20213.62c0,0 0,776.86 0,776.86 0,0 0,0.01 0,0.01 56.89,282.84 182,570.34 400.09,855.85 0,0 0,0 0,0 332.14,-724.23 889.04,-961.78 1499.9,-1155.1 0,0 0,0 0,0 -785.92,-260.33 -1141.91,-977.37 -1181.75,-1991.91 0,0 0,0.01 0,0.01 -289.1,407.15 -610.32,934.86 -718.24,1514.28z"/>
   <path class="fil0 str0" d="M-2195.31 22329.43c0,0 0,2274.9 0,2274.9 0,0 0,0.01 0,0.01 38.37,45.96 78.21,89.52 119.51,130.43 0,0 0,0 0,0 1491.11,1579.96 4761.22,131.62 3341.93,-1910.12 0,0 0,0.01 0,0.01 -378.24,2340.03 -3357.38,1893.18 -3205.5,-306.71 0,0 0,0 0,0 0,0 -255.94,-188.52 -255.94,-188.52z"/>
   <path class="fil0 str0" d="M-2195.31 27344.34c0,0 0,1135.91 0,1135.91 0,0 0,0 0,0 340.94,278.32 683.34,553.04 1012.15,828.29 0,0 0,0 0,0 0,0 1464.32,0 1464.32,0 0,0 0,-0.01 0,-0.01 -808.97,-721.57 -1686.15,-1330.55 -2476.47,-1964.19z"/>
   <path class="fil0 str0" d="M1292.24 29308.54c0,0 1026.27,0 1026.27,0 0,0 0,-0.01 0,-0.01 -616.32,-320.82 -1045.05,-933.4 -780.99,-1867.34 0,0 0,0 0,0 -735.16,243.68 -1561.05,310.56 -2284.89,271.26 0,0 0,0 0,0 697.99,393.16 1399.45,934.87 2039.61,1596.09z"/>
   <path class="fil0 str0" d="M6784.36 29308.54c0,0 1417.57,0 1417.57,0 0,0 0,-0.01 0,-0.01 -589.41,-666.42 -790.06,-1735.71 -984.57,-2765.04 0,0 0,0 0,0 -459.91,958.32 -559.7,1903.45 -433,2765.05z"/>
   <path class="fil0 str0" d="M10307.75 29308.54c0,0 810.97,0 810.97,0 0,0 0,-0.01 0,-0.01 -124.57,-225.56 -285.51,-436.58 -472.7,-630.97 0,0 0,-0.01 0,-0.01 -1075.69,-1023.47 -1737.18,-2153.64 -2097.83,-3402 0,0 0,0 0,0 -568.62,955.25 -640.43,2116.75 306.83,3701.11 0,0 0,-0.01 0,-0.01 625.38,-141.74 1127.52,25.99 1452.73,331.89z"/>
   <path class="fil0 str0" d="M14586.95 29308.54c0,0 1426.49,0 1426.49,0 0,0 0,-0.01 0,-0.01 -94.19,-97.53 -190.52,-190.91 -288.71,-278.84 0,0 0,-0.01 0,-0.01 -2577.72,-2308.47 -5863.7,-3457.7 -4813.45,-7916.77 0,0 0,0.01 0,0.01 -2485.79,3879.78 1040.26,5937.64 3544.57,8081.17 0,0 0,0 0,0 44.24,37.97 87.8,76.08 131.1,114.45z"/>
   <path class="fil0 str0" d="M16870.24 29308.54c0,0 1049.45,0 1049.45,0 0,0 0,-0.01 0,-0.01 -640.3,-314.02 -1096.61,-933.53 -826.16,-1890.12 0,0 0,0 0,0 -735.16,243.68 -1561.05,310.56 -2284.89,271.26 0,0 0,0 0,0 705.99,397.69 1415.57,947.26 2061.6,1618.87z"/>
   <path class="fil0 str0" d="M22312 29308.54c0,0 883.31,0 883.31,0 0,0 0,0 0,0 0,-0.01 0,-907.16 0,-907.16 0,0 0,-0.01 0,-0.01 -206.51,-553.57 -326.28,-1190.26 -443.92,-1812.31 0,0 0,0 0,0 -451.78,941.53 -555.97,1870.14 -439.39,2719.48z"/>
   <path class="fil0 str0" d="M23195.31 24506.67c0,0 0,-829.49 0,-829.49 0,0 0,0.01 0,0.01 -297.63,53.56 -620.98,67.27 -993.36,41.96 0,0 0,0.01 0,0.01 98.46,463.77 197.05,927.54 295.5,1391.32 0,0 0,-0.01 0,-0.01 254.07,-257.67 470.97,-443.92 697.86,-603.8z"/>
   <path class="fil0 str0" d="M23195.31 22614.14c0,0 0,-1068.63 0,-1068.63 0,0 0,0.01 0,0.01 -840.81,696.12 -2287.68,403.68 -3264.52,-79.95 0,0 0,0.01 0,0.01 623.24,1001.49 2059.59,1474.58 3264.52,1148.56z"/>
   <path class="fil0 str0" d="M23195.31 19047.32c0,0 0,-540.51 0,-540.51 0,0 0,0 0,0 -469.23,-42.09 -964.72,85.14 -1377.59,388.23 0,0 0,0 0,0 534.91,-107.24 1018.4,-45.69 1377.59,152.28z"/>
   <path class="fil0 str0" d="M23195.31 17526.11c0,0 0,-2859.64 0,-2859.64 0,0 0,0.01 0,0.01 -893.57,734.9 -2174.44,2229.32 -2117.02,3822.21 0,0 0,0 0,0 670.15,-587.27 1372,-937.27 2117.02,-962.58z"/>
   <path class="fil0 str0" d="M23195.31 13635.81c0,0 0,-1125.13 0,-1125.13 0,0 0,0.01 0,0.01 -612.86,457.11 -1263.15,910.62 -1905.72,1397.57 0,0 0,0.01 0,0.01 -2239.45,1696.81 -3420.4,5945.63 -295.76,7178 0,0 0,0 0,0 -1369.47,-2992.34 -428.6,-5219.8 1719.86,-7047.31 0,0 0,0 0,0 158.01,-134.3 319.08,-268.59 481.62,-403.15z"/>
   <path class="fil0 str0" d="M23195.31 9577.37c0,0 0,-1513.09 0,-1513.09 0,0 0,0.01 0,0.01 -622.32,1302.44 -2723.74,1278.46 -3037.37,-661.76 0,0 0,0.01 0,0.01 -1328.96,1911.84 1453.67,3303.02 3037.37,2174.83z"/>
   <path class="fil0 str0" d="M23195.31 6334.43c0,0 0,-2336.18 0,-2336.18 0,0 0,0 0,0 -121.51,-256.73 -269.92,-489.22 -427.27,-685.33 0,0 0,0.01 0,0.01 -23.85,700.65 -258.6,1403.29 -1114.06,1898.38 0,0 0,0.01 0,0.01 741.02,182.79 1254.89,557.15 1541.33,1123.11z"/>
   <path class="fil0 str0" d="M21345.68 391.46c0,0 -1693.61,0 -1693.61,0 0,0 0,0.01 0,0.01 -140.96,284.31 -262.99,589.53 -354.12,918.08 0,0 0,0.01 0,0.01 -430.2,1551.72 162.14,3190.57 2068.12,2745.45 0,0 0,0 0,0 -1737.45,-670.28 -1095.15,-2527.9 841.74,-2095.7 0,0 0,0 0,0 -350.39,-482.96 -638.83,-993.36 -862.13,-1567.85z"/>
   <path class="fil0 str0" d="M17447.12 391.46c0,0 -1169.35,0 -1169.35,0 0,0 0,0.01 0,0.01 744.88,1327.63 881.18,2892 128.56,4802.25 0,0 0,0 0,0 1920.64,-880.12 1897.06,-3000.33 1040.79,-4802.26z"/>
   <path class="fil0 str0" d="M15191.15 391.46c0,0 -1977,0 -1977,0 0,0 0,0.01 0,0.01 -49.56,386.37 -140.42,737.42 -287.24,1031.05 0,0 0,0.01 0,0.01 181.86,220.1 363.72,440.18 545.58,660.28 0,0 0,0 0,0 958.72,-177.59 1845.36,185.85 2682.71,919.82 0,0 0,0 0,0 34.37,-952.73 -410.08,-1870.28 -964.05,-2611.17z"/>
   <path class="fil0 str0" d="M11255.01 391.46c0,0 -1023.6,0 -1023.6,0 0,0 0,0.01 0,0.01 -201.31,137.89 -458.97,244.6 -778.46,304.15 0,0 0,0.01 0,0.01 645.76,398.35 1404.91,227.55 1802.06,-304.17z"/>
   <path class="fil0 str0" d="M5431.82 391.46c0,0 -1734.52,0 -1734.52,0 0,0 0,0.01 0,0.01 -175.59,361.32 -320.15,756.2 -409.68,1188.8 0,0 0,0.01 0,0.01 -310.56,1500.3 440.46,2841.91 2148.46,2443.02 0,0 0,0 0,0 -1741.97,-672.15 -1098.08,-2534.56 844.01,-2101.3 0,0 0,0 0,0 -342.93,-472.56 -626.58,-971.38 -848.27,-1530.54z"/>
   <path class="fil0 str0" d="M1489.69 391.46c0,0 -1251.83,0 -1251.83,0 0,0 0,0.01 0,0.01 797.78,1421.29 943.67,3096.24 137.9,5141.32 0,0 0,0 0,0 2056.26,-942.2 2030.82,-3212.17 1113.93,-5141.33z"/>
   <path class="fil0 str0" d="M16917 20761.19c546.78,-105.52 1043.46,-324.55 1437.55,-742.62 0,0 0,0.01 0,0.01 221.03,1228.37 865.86,2090.23 1693.75,2794.08 0,0 0,0.01 0,0.01 1008.01,857.05 1701.34,833.61 1858.81,2516.56 0,0 0,0.01 0,0.01 -181.85,345.86 -363.71,691.73 -545.57,1037.59 0,0 0,-0.01 0,-0.01 -303.9,-1532.27 -1097.81,-2186.7 -2068.92,-2523.37 0,0 0,0 0,0 -211.84,-1611.14 -1012.28,-2803.15 -2375.62,-3082.26z"/>
   <path class="fil0 str0" d="M15890.2 19467.53c1599.02,459.24 2234.13,-1041.59 1996.71,-2387.87 0,0 0,0 0,0 -181.32,-1027.74 -848.4,-1954.75 -1587.43,-2941.84 0,0 0,0.01 0,0.01 -136.56,888.5 -273.12,2189.35 -1364.13,3372.43 0,0 0,0 0,0 1996.17,-859.33 2869.49,1393.44 954.85,1957.27z"/>
   <path class="fil0 str0" d="M13870.58 21891.91c332.27,-724.24 889.04,-961.79 1500.03,-1155.1 0,0 0,0 0,0 -786.06,-260.33 -1142.05,-977.37 -1181.75,-1991.92 0,0 0,0.01 0,0.01 -548.24,772.07 -1212.12,1976.59 -318.28,3147.01z"/>
   <path class="fil0 str0" d="M12884.41 21949.6c288.04,212.23 575.95,424.47 863.99,636.83 0,0 0,0.01 0,0.01 -151.88,2199.76 2827.27,2646.6 3205.64,306.55 0,0 0,0.01 0,0.01 1419.16,2041.75 -1850.82,3490.22 -3342.06,1910.11 0,0 0,0 0,0 -572.09,-568.09 -871.46,-1619.28 -727.57,-2853.51z"/>
   <path class="fil0 str0" d="M18968.87 28580.57c575.68,-597.13 386.23,-1868.28 -858,-1850.56 0,0 0,-0.01 0,-0.01 564.89,-507.87 963.52,-1281.79 1062.51,-2098.08 0,0 0,0 0,0 1709.2,529.18 1819.65,3811.43 -204.51,3948.65z"/>
   <path class="fil0 str0" d="M6650.34 20972.89c405.41,0 734.09,-340.93 734.09,-761.41 0,0 0,0 0,0 0,-420.47 -328.68,-761.4 -734.09,-761.4 0,0 0,0 0,0 -405.29,0.01 -733.97,340.93 -733.97,761.4 0,0 0,0.01 0,0.01 0,420.48 328.68,761.4 733.97,761.4z"/>
   <path class="fil0 str0" d="M4221.03 21420.01c707.71,1137.11 2463.41,1593.43 3738.55,971.91 0,0 0,0 0,0 1055.45,-514.27 1436.35,-1582.24 1059.84,-2725.21 0,0 0,0 0,0 -412.08,-1251.16 -1906.78,-1554.92 -2911.46,-817.23 0,0 0,0 0,0 1306.31,-262.05 2307.53,483.22 1934.22,1762.62 0,0 0,0.01 0,0.01 -507.47,1739.84 -2557.74,1433.41 -3821.15,807.9z"/>
   <path class="fil0 str0" d="M6875.49 25064.9c519.2,-526.52 883.71,-754.88 1493.64,-1069.43 0,0 0,0 0,0 4.66,-231.55 46.76,-505.34 155.08,-701.85 0,0 0,0.01 0,0.01 -576.35,309.35 -1147.91,434.18 -1944.22,379.96 0,0 0,0.01 0,0.01 98.59,463.77 197.05,927.54 295.5,1391.3z"/>
   <path class="fil0 str0" d="M1273.19 20806.75c546.78,-105.51 1043.32,-324.54 1437.41,-742.62 0,0 0,0.01 0,0.01 221.03,1228.38 866,2090.36 1693.88,2794.08 0,0 0,0.01 0,0.01 1007.89,856.92 1701.35,833.61 1858.82,2516.44 0,0 0,0 0,0 -181.99,346 -363.85,691.86 -545.7,1037.73 0,0 0,-0.01 0,-0.01 -303.9,-1532.28 -1097.68,-2186.7 -2068.93,-2523.37 0,0 0,0 0,0 -211.83,-1611.15 -1012.14,-2803.02 -2375.48,-3082.27z"/>
   <path class="fil0 str0" d="M105.97 19530.95c1599.02,459.24 2234.12,-1041.59 1996.58,-2387.88 0,0 0,0 0,0 -181.2,-1027.73 -848.28,-1954.74 -1587.43,-2941.84 0,0 0,0.01 0,0.01 -136.43,888.38 -272.99,2189.35 -1364.01,3372.43 0,0 0,0 0,0 1996.18,-859.32 2869.5,1393.45 954.86,1957.28z"/>
   <path class="fil0 str0" d="M3324.93 28512.23c575.81,-597.27 386.36,-1868.28 -857.87,-1850.56 0,0 0,-0.01 0,-0.01 564.76,-507.87 963.52,-1281.79 1062.51,-2098.1 0,0 0,0.01 0,0.01 1709.07,529.19 1819.51,3811.43 -204.64,3948.66z"/>
   <path class="fil0 str0" d="M14434.27 9724.85c-32.11,-567.82 111.91,-949.12 295.64,-1296.98 0,0 0,0.01 0,0.01 -742.63,88.32 -1345.22,-151.5 -1932.5,-448.07 0,0 0,0.01 0,0.01 -7.59,212.24 -15.19,424.46 -22.78,636.7 0,0 0,0.01 0,0.01 729.43,92.46 1293.92,567.95 1659.64,1108.32z"/>
   <path class="fil0 str0" d="M14627.59 5534.79c355.05,0 642.96,-298.7 642.96,-666.95 0,0 0,0 0,0 0,-368.38 -287.91,-666.95 -642.96,-666.95 0,0 0,0 0,0 -355.06,0.01 -642.97,298.57 -642.97,666.95 0,0 0,0.01 0,0.01 0,368.25 287.91,666.94 642.97,666.94z"/>
   <path class="fil0 str0" d="M15002.89 3362.21c-1378.12,-856.13 -3244.14,19.32 -2895.47,1965.54 0,0 0,0.01 0,0.01 441.52,2465.01 3615.45,2480.59 4998.23,828.41 0,0 0,0.01 0,0.01 -1358.54,400.09 -3660.08,757.13 -3905.09,-1100.75 0,0 0,0 0,0 -153.21,-1161.63 658.03,-1559.32 1802.33,-1693.22z"/>
   <path class="fil0 str0" d="M8732.98 2327.55c348.66,456.05 765.4,829.49 1045.98,1368.14 0,0 0,0.01 0,0.01 640.44,235.95 1061.18,725.69 1546.27,1132.17 0,0 0,0 0,0 31.17,-1118.59 454.18,-1790.2 1091.41,-2217.21 0,0 0,0 0,0 -123.1,-199.17 -246.21,-398.35 -369.31,-597.53 0,0 0,0.01 0,0.01 -958.05,561.56 -2053.33,695.85 -3314.35,314.41z"/>
   <path class="fil0 str0" d="M6970.49 3320.38c598.73,745.68 1069.96,2008.17 463.63,3138.49 0,0 0,0 0,0 -286.04,-609.13 -819.36,-1010.02 -1599.82,-1202.53 0,0 0,0 0,0 872.39,-504.94 1111.8,-1221.45 1136.19,-1935.96z"/>
   <path class="fil0 str0" d="M-1176.9 5510.41c338.4,0 612.99,-284.72 612.99,-635.91 0,0 0,0 0,0 0,-351.19 -274.59,-635.9 -612.99,-635.9 0,0 0,0 0,0 -338.54,0.01 -613.12,284.71 -613.12,635.9 0,0 0,0.01 0,0.01 0,351.19 274.58,635.9 613.12,635.9z"/>
   <path class="fil0 str0" d="M4221.56 5407.42c-546.77,-105.52 -1043.32,-324.55 -1437.41,-742.49 0,0 0,0.01 0,0.01 -221.03,1228.24 -865.99,2090.23 -1693.88,2793.95 0,0 0,0.01 0,0.01 -1007.88,857.05 -1701.34,833.6 -1858.82,2516.56 0,0 0,0.01 0,0.01 181.86,345.86 363.85,691.72 545.71,1037.58 0,0 0,0 0,0 303.76,-1532.27 1097.68,-2186.56 2068.79,-2523.37 0,0 0,0 0,0 211.96,-1611.14 1012.27,-2803.01 2375.61,-3082.26z"/>
   <path class="fil0 str0" d="M8363.93 6436.35c-287.91,212.37 -575.95,424.6 -863.86,636.84 0,0 0,0.01 0,0.01 151.75,2199.75 -2827.39,2646.59 -3205.63,306.55 0,0 0,0.01 0,0.01 -1419.16,2041.74 1850.82,3490.2 3342.06,1910.1 0,0 0,0 0,0 571.95,-568.09 871.45,-1619.27 727.43,-2853.51z"/>
   <path class="fil0 str0" d="M2147.84 13181.23c-575.81,-597.14 -386.36,-1868.28 857.87,-1850.56 0,0 0,0 0,0 -564.76,-507.87 -963.52,-1281.8 -1062.51,-2097.97 0,0 0,0.01 0,0.01 -1709.07,529.06 -1819.65,3811.29 204.64,3948.52z"/>
   <path class="fil0 str0" d="M6393.87 12433.28c-1192.54,671.74 -2395.47,1777.15 -3285.04,3171.79 0,0 0,0 0,0 -295.64,-424.47 -727.44,-884.37 -1023.07,-1308.84 0,0 0,0.01 0,0.01 1060.77,48.88 2451.16,-621.4 2023.36,-2134.22 0,0 0,0.01 0,0.01 735.16,243.55 1561.05,310.42 2284.75,271.25z"/>
   <path class="fil0 str0" d="M11804.59 16369.94c-814.44,502.55 -1823.52,31.31 -1922.11,-931.14 0,0 0,0 0,0 -74.21,-724.77 239.55,-1365.2 741.83,-1887.19 0,0 0,0 0,0 1075.82,-1023.47 1737.17,-2153.53 2097.96,-3402.02 0,0 0,0.01 0,0.01 568.62,955.39 640.43,2116.74 -306.83,3701.11 0,0 0,0 0,0 -1952.61,-442.45 -2706.69,2128.6 -610.85,2519.23z"/>
   <path class="fil0 str0" d="M13868.18 16022.35c-79.14,-764.87 -157.88,-1472.32 -727.57,-1913.18 0,0 0,0 0,0 601.67,-665.08 804.04,-1744.24 1000.29,-2782.63 0,0 0,0.01 0,0.01 841.21,1752.9 477.49,3461.69 -272.72,4695.8z"/>
   <path class="fil0 str0" d="M20151.02 5452.98c-546.78,-105.51 -1043.46,-324.54 -1437.42,-742.48 0,0 0,0.01 0,0.01 -221.16,1228.24 -865.99,2090.22 -1693.88,2793.94 0,0 0,0.01 0,0.01 -1007.88,857.06 -1701.34,833.61 -1858.82,2516.56 0,0 0,0.01 0,0.01 181.86,345.87 363.72,691.72 545.71,1037.59 0,0 0,0 0,0 303.77,-1532.28 1097.68,-2186.57 2068.79,-2523.37 0,0 0,0 0,0 211.83,-1611.15 1012.28,-2803.02 2375.62,-3082.27z"/>
   <path class="fil0 str0" d="M17967.38 13181.23c-575.68,-597.14 -386.23,-1868.28 858,-1850.56 0,0 0,0 0,0 -564.89,-507.87 -963.51,-1281.8 -1062.5,-2097.97 0,0 0,0.01 0,0.01 -1709.21,529.06 -1819.65,3811.29 204.5,3948.52z"/>
   <path class="fil0 str0" d="M22105.63 12449.93c-1192.68,671.74 -2395.6,1777.15 -3285.18,3171.8 0,0 0,0 0,0 -295.5,-424.47 -727.43,-884.38 -1023.07,-1308.85 0,0 0,0.01 0,0.01 1060.91,48.89 2451.16,-621.39 2023.36,-2134.21 0,0 0,0.01 0,0.01 735.16,243.54 1561.18,310.41 2284.89,271.24z"/>
   <path class="fil0 str0" d="M10225.28 5448.59c1318.04,4629.46 -1865.88,6178.12 -4877,8459.67 0,0 0,0.01 0,0.01 -2239.45,1696.81 -3420.53,5945.63 -295.77,7178 0,0 0,0 0,0 -1369.46,-2992.34 -428.6,-5219.8 1719.86,-7047.31 0,0 0,0 0,0 2731.08,-2322.99 6357.32,-4613.21 3452.91,-8590.37z"/>
   <path class="fil0 str0" d="M12493.52 17844.66c-348.67,456.05 -765.54,829.62 -1045.99,1368.14 0,0 0,0.01 0,0.01 -640.43,235.94 -1061.17,725.69 -1546.26,1132.17 0,0 0,0 0,0 -31.18,-1118.6 -454.18,-1790.21 -1091.42,-2217.21 0,0 0,0 0,0 123.11,-199.17 246.21,-398.35 369.31,-597.4 0,0 0,0.01 0,0.01 958.06,561.57 2053.34,695.72 3314.36,314.28z"/>
   <path class="fil0 str0" d="M5317.24 18488.69c837.48,-733.83 1724.12,-1097.41 2682.71,-919.68 0,0 0,0 0,0 181.99,-220.1 363.85,-440.19 545.71,-660.29 0,0 0,0 0,0 -342.53,-685.06 -381.04,-1681.49 -298.3,-2713.08 0,0 0,0 0,0 -287.91,-116.04 -3013.25,1985.78 -2930.12,4293.05z"/>
  </g>
 </g>
</svg>
