<?xml version="1.0" encoding="UTF-8" standalone="no"?>
<!-- Created with Inkscape (http://www.inkscape.org/) -->

<svg
   xmlns:dc="http://purl.org/dc/elements/1.1/"
   xmlns:cc="http://creativecommons.org/ns#"
   xmlns:rdf="http://www.w3.org/1999/02/22-rdf-syntax-ns#"
   xmlns:svg="http://www.w3.org/2000/svg"
   xmlns="http://www.w3.org/2000/svg"
   xmlns:sodipodi="http://sodipodi.sourceforge.net/DTD/sodipodi-0.dtd"
   xmlns:inkscape="http://www.inkscape.org/namespaces/inkscape"
   version="1.1"
   id="svg2"
   width="750"
   height="750"
   viewBox="0 0 750 750"
   sodipodi:docname="rocket.svg"
   inkscape:version="0.92.3 (2405546, 2018-03-11)">
  <metadata
     id="metadata8">
    <rdf:RDF>
      <cc:Work
         rdf:about="">
        <dc:format>image/svg+xml</dc:format>
        <dc:type
           rdf:resource="http://purl.org/dc/dcmitype/StillImage" />
        <dc:title></dc:title>
      </cc:Work>
    </rdf:RDF>
  </metadata>
  <defs
     id="defs6" />
  <sodipodi:namedview
     pagecolor="#ffffff"
     bordercolor="#666666"
     borderopacity="1"
     objecttolerance="10"
     gridtolerance="10"
     guidetolerance="10"
     inkscape:pageopacity="0"
     inkscape:pageshadow="2"
     inkscape:window-width="1618"
     inkscape:window-height="973"
     id="namedview4"
     showgrid="false"
     inkscape:zoom="1.5445026"
     inkscape:cx="354.79814"
     inkscape:cy="375"
     inkscape:window-x="0"
     inkscape:window-y="0"
     inkscape:window-maximized="0"
     inkscape:current-layer="svg2" />
  <path
     style="fill:none;stroke:#000000;stroke-opacity:1"
     d="m 236.38875,642.15364 c 15.06589,-7.99603 19.52925,-27.74455 33.19674,-38.24202 6.69937,-13.1905 36.65759,-15.23716 25.19156,-32.06231 -15.8395,-35.92961 -27.98228,-73.62999 -37.19639,-111.88849 -20.39657,10.1032 -33.65235,32.58893 -43.60031,52.88849 -16.56497,39.65563 -12.5347,86.84693 6.1294,124.96918 4.72433,3.39354 10.29173,6.17975 16.279,4.33515 z m 246.75,-1.0157 c 16.50802,-9.75076 15.5415,-32.66206 20.5773,-49.33644 9.21371,-49.52248 -9.30516,-102.39463 -50.2442,-132.45219 -9.11421,29.42055 -16.61612,60.04528 -28.4652,88.65799 -3.41022,11.98758 -11.96004,23.52127 -12.6188,35.6875 25.48571,11.84271 39.80056,37.24597 57.9166,57.10393 3.79896,2.24257 8.83151,0.94531 12.8343,0.33921 z m -86.25352,-44.72627 c 26.62364,-58.32913 54.09286,-140.65434 60.87972,-204.83767 -3.20036,-9.3884 -15.99843,6.42078 -24.6264,8.27531 -55.68435,26.49732 -124.65096,23.20666 -176.3024,-10.84547 -11.81336,5.38481 2.87148,36.95816 2.55305,52.69733 11.80026,51.81407 33.45315,106.75398 56.839,154.60059 25.91811,13.48632 50.7496,13.08896 80.65703,0.10991 z M 369.33725,411.29602 c 31.19211,-4.78016 64.84936,-13.66467 89.179,-34.94671 7.00073,-70.57582 -14.01928,-142.03476 -55.2167,-199.39186 -8.41733,-8.5885 -17.66636,5.74172 -27.1608,6.89186 -22.94065,10.02662 -49.14981,5.79639 -69.9699,-6.99849 -9.25431,8.11837 -16.62184,24.82528 -23.5301,37.49849 -26.00968,49.99875 -35.91102,107.64209 -30.7646,163.78187 34.04608,23.99781 75.5993,36.86957 117.4631,33.16484 z m -21.7486,-59.02774 c -34.43139,-3.03676 -57.58725,-45.43279 -39.7011,-75.50349 15.71945,-36.17325 72.2998,-38.03343 91.0845,-3.41548 18.76996,27.70943 1.09938,70.93438 -31.8333,77.91206 -6.44664,1.05299 -13.05676,3.49341 -19.5501,1.00691 z m 13.7675,-6.1042 c 30.83206,-4.1306 49.65622,-41.73353 32.8416,-68.81477 -16.60211,-32.28135 -69.81354,-29.45023 -82.059,5 -15.46507,32.46467 14.64647,69.42492 49.2174,63.81477 z m -2.4811,-164.15184 c 12.46804,-2.14774 28.87869,-7.17039 34.7327,-17.61276 -12.98983,-13.8441 -26.54686,-41.8756 -49.469,-32.05017 -8.16035,10.13534 -40.71536,29.6019 -28.5,42 12.7085,8.25119 28.39135,10.2019 43.2363,7.66293 z"
     id="path817"
     inkscape:connector-curvature="0"
     sodipodi:nodetypes="ccccccccccccccccccccccccccccccccccccccccccc" />
</svg>
