<?xml version="1.0" encoding="UTF-8" standalone="no"?>
<!-- Created with Inkscape (http://www.inkscape.org/) -->

<svg
   xmlns:dc="http://purl.org/dc/elements/1.1/"
   xmlns:cc="http://creativecommons.org/ns#"
   xmlns:rdf="http://www.w3.org/1999/02/22-rdf-syntax-ns#"
   xmlns:svg="http://www.w3.org/2000/svg"
   xmlns="http://www.w3.org/2000/svg"
   xmlns:sodipodi="http://sodipodi.sourceforge.net/DTD/sodipodi-0.dtd"
   xmlns:inkscape="http://www.inkscape.org/namespaces/inkscape"
   version="1.1"
   id="svg2"
   width="204.25533"
   height="202.21277"
   viewBox="0 0 204.25533 202.21277"
   sodipodi:docname="t-shirt.svg"
   inkscape:version="0.92.3 (2405546, 2018-03-11)">
  <metadata
     id="metadata8">
    <rdf:RDF>
      <cc:Work
         rdf:about="">
        <dc:format>image/svg+xml</dc:format>
        <dc:type
           rdf:resource="http://purl.org/dc/dcmitype/StillImage" />
        <dc:title></dc:title>
      </cc:Work>
    </rdf:RDF>
  </metadata>
  <defs
     id="defs6" />
  <sodipodi:namedview
     pagecolor="#ffffff"
     bordercolor="#666666"
     borderopacity="1"
     objecttolerance="10"
     gridtolerance="10"
     guidetolerance="10"
     inkscape:pageopacity="0"
     inkscape:pageshadow="2"
     inkscape:window-width="1920"
     inkscape:window-height="1019"
     id="namedview4"
     showgrid="false"
     inkscape:zoom="4.1490951"
     inkscape:cx="102.12766"
     inkscape:cy="101.10638"
     inkscape:window-x="0"
     inkscape:window-y="0"
     inkscape:window-maximized="1"
     inkscape:current-layer="svg2" />
  <path
     style="fill:#000000;stroke-width:0.6808511"
     d="m 63.758985,202.16194 c -8.722332,-0.35739 -17.782572,-0.79733 -25.584236,-5.14655 1.797947,-32.01529 8.934825,-63.75232 7.541081,-95.90695 -2.762262,-2.735648 -1.248259,18.53467 -11.090297,14.18748 C 24.32238,113.06843 13.720365,110.13261 4.7508386,104.48697 -4.6365346,98.161272 4.0922353,86.856726 5.9002196,78.68992 12.135311,63.401728 17.888254,47.56338 27.15821,33.827228 37.118044,24.263563 50.298196,18.954251 62.397285,12.617887 69.44435,9.5260761 76.848996,6.4540957 82.261445,0.79001125 94.96859,6.7798525 109.51136,6.0674458 122.80623,2.5738464 c 7.7006,6.0210963 15.8802,11.4101016 25.31795,14.3173776 9.93293,4.52298 21.98282,6.302266 29.74381,14.431909 10.5918,18.640601 17.66666,39.149628 23.45489,59.737685 2.92318,7.615439 4.15193,18.295082 -7.5252,16.582392 -11.0764,1.66017 -22.16351,3.55628 -33.34139,4.29303 -1.60401,-4.70407 -4.88911,-14.740641 -3.94117,-3.72372 1.80361,26.88855 6.36014,53.52774 7.52395,80.46354 1.42655,6.9642 2.61483,14.82733 -6.97275,12.51193 -31.07355,1.38844 -62.215322,2.24429 -93.307335,0.97395 z"
     id="path817"
     inkscape:connector-curvature="0" />
</svg>
