solid JSxCAD
facet normal -1 0 0
  outer loop
    vertex -4.99 -0.312 -5
    vertex -4.99 -0.312 5
    vertex -4.99 0.312 5
  endloop
endfacet
facet normal 0 0 -1
  outer loop
    vertex -4.99 -0.312 -5
    vertex -4.99 0.312 -5
    vertex -4.912 -0.935 -5
  endloop
endfacet
facet normal -1 0 0
  outer loop
    vertex -4.99 -0.312 -5
    vertex -4.99 0.312 5
    vertex -4.99 0.312 -5
  endloop
endfacet
facet normal -0.9922533542433792 -0.12423075703207682 0
  outer loop
    vertex -4.99 -0.312 -5
    vertex -4.912 -0.935 -5
    vertex -4.99 -0.312 5
  endloop
endfacet
facet normal -0.9922533542433792 -0.12423075703207682 0
  outer loop
    vertex -4.99 -0.312 5
    vertex -4.912 -0.935 -5
    vertex -4.912 -0.935 5
  endloop
endfacet
facet normal 0 0 1
  outer loop
    vertex -4.99 -0.312 5
    vertex -4.912 -0.935 5
    vertex -4.99 0.312 5
  endloop
endfacet
facet normal -0.9922533542433792 0.12423075703207682 0
  outer loop
    vertex -4.99 0.312 -5
    vertex -4.99 0.312 5
    vertex -4.912 0.935 5
  endloop
endfacet
facet normal 0 0 -1
  outer loop
    vertex -4.99 0.312 -5
    vertex -4.912 0.935 -5
    vertex -4.912 -0.935 -5
  endloop
endfacet
facet normal -0.9922533542433792 0.12423075703207682 0
  outer loop
    vertex -4.99 0.312 -5
    vertex -4.912 0.935 5
    vertex -4.912 0.935 -5
  endloop
endfacet
facet normal 0 0 1
  outer loop
    vertex -4.99 0.312 5
    vertex -4.912 -0.935 5
    vertex -4.912 0.935 5
  endloop
endfacet
facet normal 0 0 -1
  outer loop
    vertex -4.912 -0.935 -5
    vertex -4.912 0.935 -5
    vertex -4.757 -1.541 -5
  endloop
endfacet
facet normal -0.9688116305951355 -0.2477983543601424 0
  outer loop
    vertex -4.912 -0.935 -5
    vertex -4.757 -1.541 -5
    vertex -4.912 -0.935 5
  endloop
endfacet
facet normal -0.9688116305951355 -0.2477983543601424 0
  outer loop
    vertex -4.912 -0.935 5
    vertex -4.757 -1.541 -5
    vertex -4.757 -1.541 5
  endloop
endfacet
facet normal 0 0 1
  outer loop
    vertex -4.912 -0.935 5
    vertex -4.757 -1.541 5
    vertex -4.912 0.935 5
  endloop
endfacet
facet normal -0.9688116305951355 0.2477983543601424 0
  outer loop
    vertex -4.912 0.935 -5
    vertex -4.912 0.935 5
    vertex -4.757 1.541 5
  endloop
endfacet
facet normal 0 0 -1
  outer loop
    vertex -4.912 0.935 -5
    vertex -4.757 1.541 -5
    vertex -4.757 -1.541 -5
  endloop
endfacet
facet normal -0.9688116305951355 0.2477983543601424 0
  outer loop
    vertex -4.912 0.935 -5
    vertex -4.757 1.541 5
    vertex -4.757 1.541 -5
  endloop
endfacet
facet normal 0 0 1
  outer loop
    vertex -4.912 0.935 5
    vertex -4.757 -1.541 5
    vertex -4.757 1.541 5
  endloop
endfacet
facet normal 0 0 -1
  outer loop
    vertex -4.757 -1.541 -5
    vertex -4.757 1.541 -5
    vertex -4.523 -2.132 -5
  endloop
endfacet
facet normal -0.9297729605796854 -0.36813345647317475 0
  outer loop
    vertex -4.757 -1.541 -5
    vertex -4.523 -2.132 -5
    vertex -4.757 -1.541 5
  endloop
endfacet
facet normal -0.9297729605796854 -0.36813345647317475 0
  outer loop
    vertex -4.757 -1.541 5
    vertex -4.523 -2.132 -5
    vertex -4.523 -2.132 5
  endloop
endfacet
facet normal 0 0 1
  outer loop
    vertex -4.757 -1.541 5
    vertex -4.523 -2.132 5
    vertex -4.757 1.541 5
  endloop
endfacet
facet normal -0.9297729605796854 0.36813345647317475 0
  outer loop
    vertex -4.757 1.541 -5
    vertex -4.757 1.541 5
    vertex -4.523 2.132 5
  endloop
endfacet
facet normal 0 0 -1
  outer loop
    vertex -4.757 1.541 -5
    vertex -4.523 2.132 -5
    vertex -4.523 -2.132 -5
  endloop
endfacet
facet normal -0.9297729605796854 0.36813345647317475 0
  outer loop
    vertex -4.757 1.541 -5
    vertex -4.523 2.132 5
    vertex -4.523 2.132 -5
  endloop
endfacet
facet normal 0 0 1
  outer loop
    vertex -4.757 1.541 5
    vertex -4.523 -2.132 5
    vertex -4.523 2.132 5
  endloop
endfacet
facet normal 0 0 -1
  outer loop
    vertex -4.523 -2.132 -5
    vertex -4.523 2.132 -5
    vertex -4.223 -2.678 -5
  endloop
endfacet
facet normal -0.8764191719050103 -0.4815489955522033 0
  outer loop
    vertex -4.523 -2.132 -5
    vertex -4.223 -2.678 -5
    vertex -4.523 -2.132 5
  endloop
endfacet
facet normal -0.8764191719050103 -0.4815489955522033 0
  outer loop
    vertex -4.523 -2.132 5
    vertex -4.223 -2.678 -5
    vertex -4.223 -2.678 5
  endloop
endfacet
facet normal 0 0 1
  outer loop
    vertex -4.523 -2.132 5
    vertex -4.223 -2.678 5
    vertex -4.523 2.132 5
  endloop
endfacet
facet normal -0.8764191719050103 0.4815489955522033 0
  outer loop
    vertex -4.523 2.132 -5
    vertex -4.523 2.132 5
    vertex -4.223 2.678 5
  endloop
endfacet
facet normal 0 0 -1
  outer loop
    vertex -4.523 2.132 -5
    vertex -4.223 2.678 -5
    vertex -4.223 -2.678 -5
  endloop
endfacet
facet normal -0.8764191719050103 0.4815489955522033 0
  outer loop
    vertex -4.523 2.132 -5
    vertex -4.223 2.678 5
    vertex -4.223 2.678 -5
  endloop
endfacet
facet normal 0 0 1
  outer loop
    vertex -4.523 2.132 5
    vertex -4.223 -2.678 5
    vertex -4.223 2.678 5
  endloop
endfacet
facet normal 0 0 -1
  outer loop
    vertex -4.223 -2.678 -5
    vertex -4.223 2.678 -5
    vertex -3.853 -3.1870000000000003 -5
  endloop
endfacet
facet normal -0.808873501569708 -0.5879827025162898 0
  outer loop
    vertex -4.223 -2.678 -5
    vertex -3.853 -3.1870000000000003 -5
    vertex -4.223 -2.678 5
  endloop
endfacet
facet normal -0.808873501569708 -0.5879827025162898 0
  outer loop
    vertex -4.223 -2.678 5
    vertex -3.853 -3.1870000000000003 -5
    vertex -3.853 -3.1870000000000003 5
  endloop
endfacet
facet normal 0 0 1
  outer loop
    vertex -4.223 -2.678 5
    vertex -3.853 -3.1870000000000003 5
    vertex -4.223 2.678 5
  endloop
endfacet
facet normal -0.808873501569708 0.5879827025162898 0
  outer loop
    vertex -4.223 2.678 -5
    vertex -4.223 2.678 5
    vertex -3.853 3.1870000000000003 5
  endloop
endfacet
facet normal 0 0 -1
  outer loop
    vertex -4.223 2.678 -5
    vertex -3.853 3.1870000000000003 -5
    vertex -3.853 -3.1870000000000003 -5
  endloop
endfacet
facet normal -0.808873501569708 0.5879827025162898 0
  outer loop
    vertex -4.223 2.678 -5
    vertex -3.853 3.1870000000000003 5
    vertex -3.853 3.1870000000000003 -5
  endloop
endfacet
facet normal 0 0 1
  outer loop
    vertex -4.223 2.678 5
    vertex -3.853 -3.1870000000000003 5
    vertex -3.853 3.1870000000000003 5
  endloop
endfacet
facet normal 0 0 -1
  outer loop
    vertex -3.853 -3.1870000000000003 -5
    vertex -3.853 3.1870000000000003 -5
    vertex -3.419 -3.648 -5
  endloop
endfacet
facet normal -0.7281072501234664 -0.6854632246281663 0
  outer loop
    vertex -3.853 -3.1870000000000003 -5
    vertex -3.419 -3.648 -5
    vertex -3.853 -3.1870000000000003 5
  endloop
endfacet
facet normal -0.7281072501234664 -0.6854632246281663 0
  outer loop
    vertex -3.853 -3.1870000000000003 5
    vertex -3.419 -3.648 -5
    vertex -3.419 -3.648 5
  endloop
endfacet
facet normal 0 0 1
  outer loop
    vertex -3.853 -3.1870000000000003 5
    vertex -3.419 -3.648 5
    vertex -3.853 3.1870000000000003 5
  endloop
endfacet
facet normal -0.7281072501234664 0.6854632246281663 0
  outer loop
    vertex -3.853 3.1870000000000003 -5
    vertex -3.853 3.1870000000000003 5
    vertex -3.419 3.648 5
  endloop
endfacet
facet normal 0 0 -1
  outer loop
    vertex -3.853 3.1870000000000003 -5
    vertex -3.419 3.648 -5
    vertex -3.419 -3.648 -5
  endloop
endfacet
facet normal -0.7281072501234664 0.6854632246281663 0
  outer loop
    vertex -3.853 3.1870000000000003 -5
    vertex -3.419 3.648 5
    vertex -3.419 3.648 -5
  endloop
endfacet
facet normal 0 0 1
  outer loop
    vertex -3.853 3.1870000000000003 5
    vertex -3.419 -3.648 5
    vertex -3.419 3.648 5
  endloop
endfacet
facet normal 0 0 -1
  outer loop
    vertex -3.419 -3.648 -5
    vertex -3.419 3.648 -5
    vertex -2.935 -4.048 -5
  endloop
endfacet
facet normal -0.6370460623571181 -0.7708257354521131 0
  outer loop
    vertex -3.419 -3.648 -5
    vertex -2.935 -4.048 -5
    vertex -3.419 -3.648 5
  endloop
endfacet
facet normal -0.6370460623571181 -0.7708257354521131 0
  outer loop
    vertex -3.419 -3.648 5
    vertex -2.935 -4.048 -5
    vertex -2.935 -4.048 5
  endloop
endfacet
facet normal 0 0 1
  outer loop
    vertex -3.419 -3.648 5
    vertex -2.935 -4.048 5
    vertex -3.419 3.648 5
  endloop
endfacet
facet normal -0.6370460623571181 0.7708257354521131 0
  outer loop
    vertex -3.419 3.648 -5
    vertex -3.419 3.648 5
    vertex -2.935 4.048 5
  endloop
endfacet
facet normal 0 0 -1
  outer loop
    vertex -3.419 3.648 -5
    vertex -2.935 4.048 -5
    vertex -2.935 -4.048 -5
  endloop
endfacet
facet normal -0.6370460623571181 0.7708257354521131 0
  outer loop
    vertex -3.419 3.648 -5
    vertex -2.935 4.048 5
    vertex -2.935 4.048 -5
  endloop
endfacet
facet normal 0 0 1
  outer loop
    vertex -3.419 3.648 5
    vertex -2.935 -4.048 5
    vertex -2.935 4.048 5
  endloop
endfacet
facet normal 0 0 -1
  outer loop
    vertex -2.935 -4.048 -5
    vertex -2.935 4.048 -5
    vertex -2.412 -4.38 -5
  endloop
endfacet
facet normal -0.5359350884919309 -0.8442591906062653 0
  outer loop
    vertex -2.935 -4.048 -5
    vertex -2.412 -4.38 -5
    vertex -2.935 -4.048 5
  endloop
endfacet
facet normal -0.5359350884919309 -0.8442591906062653 0
  outer loop
    vertex -2.935 -4.048 5
    vertex -2.412 -4.38 -5
    vertex -2.412 -4.38 5
  endloop
endfacet
facet normal 0 0 1
  outer loop
    vertex -2.935 -4.048 5
    vertex -2.412 -4.38 5
    vertex -2.935 4.048 5
  endloop
endfacet
facet normal -0.5359350884919309 0.8442591906062653 0
  outer loop
    vertex -2.935 4.048 -5
    vertex -2.935 4.048 5
    vertex -2.412 4.38 5
  endloop
endfacet
facet normal 0 0 -1
  outer loop
    vertex -2.935 4.048 -5
    vertex -2.412 4.38 -5
    vertex -2.412 -4.38 -5
  endloop
endfacet
facet normal -0.5359350884919309 0.8442591906062653 0
  outer loop
    vertex -2.935 4.048 -5
    vertex -2.412 4.38 5
    vertex -2.412 4.38 -5
  endloop
endfacet
facet normal 0 0 1
  outer loop
    vertex -2.935 4.048 5
    vertex -2.412 -4.38 5
    vertex -2.412 4.38 5
  endloop
endfacet
facet normal 0 0 -1
  outer loop
    vertex -2.412 -4.38 -5
    vertex -2.412 4.38 -5
    vertex -1.838 -4.65 -5
  endloop
endfacet
facet normal -0.42564518964139525 -0.9048901439042977 0
  outer loop
    vertex -2.412 -4.38 -5
    vertex -1.838 -4.65 -5
    vertex -2.412 -4.38 5
  endloop
endfacet
facet normal -0.42564518964139525 -0.9048901439042977 0
  outer loop
    vertex -2.412 -4.38 5
    vertex -1.838 -4.65 -5
    vertex -1.838 -4.65 5
  endloop
endfacet
facet normal 0 0 1
  outer loop
    vertex -2.412 -4.38 5
    vertex -1.838 -4.65 5
    vertex -2.412 4.38 5
  endloop
endfacet
facet normal -0.42564518964139525 0.9048901439042977 0
  outer loop
    vertex -2.412 4.38 -5
    vertex -2.412 4.38 5
    vertex -1.838 4.65 5
  endloop
endfacet
facet normal 0 0 -1
  outer loop
    vertex -2.412 4.38 -5
    vertex -1.838 4.65 -5
    vertex -1.838 -4.65 -5
  endloop
endfacet
facet normal -0.42564518964139525 0.9048901439042977 0
  outer loop
    vertex -2.412 4.38 -5
    vertex -1.838 4.65 5
    vertex -1.838 4.65 -5
  endloop
endfacet
facet normal 0 0 1
  outer loop
    vertex -2.412 4.38 5
    vertex -1.838 -4.65 5
    vertex -1.838 4.65 5
  endloop
endfacet
facet normal 0 0 -1
  outer loop
    vertex -1.838 -4.65 -5
    vertex -1.838 4.65 -5
    vertex -1.248 -4.8420000000000005 -5
  endloop
endfacet
facet normal -0.3094504863389165 -0.9509155569789612 0
  outer loop
    vertex -1.838 -4.65 -5
    vertex -1.248 -4.8420000000000005 -5
    vertex -1.838 -4.65 5
  endloop
endfacet
facet normal -0.3094504863389165 -0.9509155569789612 0
  outer loop
    vertex -1.838 -4.65 5
    vertex -1.248 -4.8420000000000005 -5
    vertex -1.248 -4.8420000000000005 5
  endloop
endfacet
facet normal 0 0 1
  outer loop
    vertex -1.838 -4.65 5
    vertex -1.248 -4.8420000000000005 5
    vertex -1.838 4.65 5
  endloop
endfacet
facet normal -0.3094504863389165 0.9509155569789612 0
  outer loop
    vertex -1.838 4.65 -5
    vertex -1.838 4.65 5
    vertex -1.248 4.8420000000000005 5
  endloop
endfacet
facet normal 0 0 -1
  outer loop
    vertex -1.838 4.65 -5
    vertex -1.248 4.8420000000000005 -5
    vertex -1.248 -4.8420000000000005 -5
  endloop
endfacet
facet normal -0.3094504863389165 0.9509155569789612 0
  outer loop
    vertex -1.838 4.65 -5
    vertex -1.248 4.8420000000000005 5
    vertex -1.248 4.8420000000000005 -5
  endloop
endfacet
facet normal 0 0 1
  outer loop
    vertex -1.838 4.65 5
    vertex -1.248 -4.8420000000000005 5
    vertex -1.248 4.8420000000000005 5
  endloop
endfacet
facet normal 0 0 -1
  outer loop
    vertex -1.248 -4.8420000000000005 -5
    vertex -1.248 4.8420000000000005 -5
    vertex -0.623 -4.961 -5
  endloop
endfacet
facet normal -0.1870398819181999 -0.9823523209989509 0
  outer loop
    vertex -1.248 -4.8420000000000005 -5
    vertex -0.623 -4.961 -5
    vertex -1.248 -4.8420000000000005 5
  endloop
endfacet
facet normal -0.1870398819181999 -0.9823523209989509 0
  outer loop
    vertex -1.248 -4.8420000000000005 5
    vertex -0.623 -4.961 -5
    vertex -0.623 -4.961 5
  endloop
endfacet
facet normal 0 0 1
  outer loop
    vertex -1.248 -4.8420000000000005 5
    vertex -0.623 -4.961 5
    vertex -1.248 4.8420000000000005 5
  endloop
endfacet
facet normal -0.1870398819181999 0.9823523209989509 0
  outer loop
    vertex -1.248 4.8420000000000005 -5
    vertex -1.248 4.8420000000000005 5
    vertex -0.623 4.961 5
  endloop
endfacet
facet normal 0 0 -1
  outer loop
    vertex -1.248 4.8420000000000005 -5
    vertex -0.623 4.961 -5
    vertex -0.623 -4.961 -5
  endloop
endfacet
facet normal -0.1870398819181999 0.9823523209989509 0
  outer loop
    vertex -1.248 4.8420000000000005 -5
    vertex -0.623 4.961 5
    vertex -0.623 4.961 -5
  endloop
endfacet
facet normal 0 0 1
  outer loop
    vertex -1.248 4.8420000000000005 5
    vertex -0.623 -4.961 5
    vertex -0.623 4.961 5
  endloop
endfacet
facet normal 0 0 -1
  outer loop
    vertex -0.623 -4.961 -5
    vertex -0.623 4.961 -5
    vertex 0 -5 -5
  endloop
endfacet
facet normal -0.06247802128626499 -0.9980463400344459 0
  outer loop
    vertex -0.623 -4.961 -5
    vertex 0 -5 -5
    vertex -0.623 -4.961 5
  endloop
endfacet
facet normal -0.06247802128626499 -0.9980463400344459 0
  outer loop
    vertex -0.623 -4.961 5
    vertex 0 -5 -5
    vertex 0 -5 5
  endloop
endfacet
facet normal 0 0 1
  outer loop
    vertex -0.623 -4.961 5
    vertex 0 -5 5
    vertex -0.623 4.961 5
  endloop
endfacet
facet normal -0.06247802128626499 0.9980463400344459 0
  outer loop
    vertex -0.623 4.961 -5
    vertex -0.623 4.961 5
    vertex 0 5 5
  endloop
endfacet
facet normal 0 0 -1
  outer loop
    vertex -0.623 4.961 -5
    vertex 0 5 -5
    vertex 0 -5 -5
  endloop
endfacet
facet normal -0.06247802128626499 0.9980463400344459 0
  outer loop
    vertex -0.623 4.961 -5
    vertex 0 5 5
    vertex 0 5 -5
  endloop
endfacet
facet normal 0 0 1
  outer loop
    vertex -0.623 4.961 5
    vertex 0 -5 5
    vertex 0 5 5
  endloop
endfacet
facet normal 0 0 -1
  outer loop
    vertex 0 -5 -5
    vertex 0 5 -5
    vertex 0.623 -4.961 -5
  endloop
endfacet
facet normal 0.06247802128626499 -0.9980463400344459 0
  outer loop
    vertex 0 -5 -5
    vertex 0.623 -4.961 -5
    vertex 0 -5 5
  endloop
endfacet
facet normal 0.06247802128626499 -0.9980463400344459 0
  outer loop
    vertex 0 -5 5
    vertex 0.623 -4.961 -5
    vertex 0.623 -4.961 5
  endloop
endfacet
facet normal 0 0 1
  outer loop
    vertex 0 -5 5
    vertex 0.623 -4.961 5
    vertex 0 5 5
  endloop
endfacet
facet normal 0.06247802128626499 0.9980463400344459 0
  outer loop
    vertex 0 5 -5
    vertex 0 5 5
    vertex 0.623 4.961 5
  endloop
endfacet
facet normal 0 0 -1
  outer loop
    vertex 0 5 -5
    vertex 0.623 4.961 -5
    vertex 0.623 -4.961 -5
  endloop
endfacet
facet normal 0.06247802128626499 0.9980463400344459 0
  outer loop
    vertex 0 5 -5
    vertex 0.623 4.961 5
    vertex 0.623 4.961 -5
  endloop
endfacet
facet normal 0 0 1
  outer loop
    vertex 0 5 5
    vertex 0.623 -4.961 5
    vertex 0.623 4.961 5
  endloop
endfacet
facet normal 0 0 -1
  outer loop
    vertex 0.623 -4.961 -5
    vertex 0.623 4.961 -5
    vertex 1.248 -4.8420000000000005 -5
  endloop
endfacet
facet normal 0.1870398819181999 -0.9823523209989509 0
  outer loop
    vertex 0.623 -4.961 -5
    vertex 1.248 -4.8420000000000005 -5
    vertex 0.623 -4.961 5
  endloop
endfacet
facet normal 0.1870398819181999 -0.9823523209989509 0
  outer loop
    vertex 0.623 -4.961 5
    vertex 1.248 -4.8420000000000005 -5
    vertex 1.248 -4.8420000000000005 5
  endloop
endfacet
facet normal 0 0 1
  outer loop
    vertex 0.623 -4.961 5
    vertex 1.248 -4.8420000000000005 5
    vertex 0.623 4.961 5
  endloop
endfacet
facet normal 0.1870398819181999 0.9823523209989509 0
  outer loop
    vertex 0.623 4.961 -5
    vertex 0.623 4.961 5
    vertex 1.248 4.8420000000000005 5
  endloop
endfacet
facet normal 0 0 -1
  outer loop
    vertex 0.623 4.961 -5
    vertex 1.248 4.8420000000000005 -5
    vertex 1.248 -4.8420000000000005 -5
  endloop
endfacet
facet normal 0.1870398819181999 0.9823523209989509 0
  outer loop
    vertex 0.623 4.961 -5
    vertex 1.248 4.8420000000000005 5
    vertex 1.248 4.8420000000000005 -5
  endloop
endfacet
facet normal 0 0 1
  outer loop
    vertex 0.623 4.961 5
    vertex 1.248 -4.8420000000000005 5
    vertex 1.248 4.8420000000000005 5
  endloop
endfacet
facet normal 0 0 -1
  outer loop
    vertex 1.248 -4.8420000000000005 -5
    vertex 1.248 4.8420000000000005 -5
    vertex 1.838 -4.65 -5
  endloop
endfacet
facet normal 0.3094504863389165 -0.9509155569789612 0
  outer loop
    vertex 1.248 -4.8420000000000005 -5
    vertex 1.838 -4.65 -5
    vertex 1.248 -4.8420000000000005 5
  endloop
endfacet
facet normal 0.3094504863389165 -0.9509155569789612 0
  outer loop
    vertex 1.248 -4.8420000000000005 5
    vertex 1.838 -4.65 -5
    vertex 1.838 -4.65 5
  endloop
endfacet
facet normal 0 0 1
  outer loop
    vertex 1.248 -4.8420000000000005 5
    vertex 1.838 -4.65 5
    vertex 1.248 4.8420000000000005 5
  endloop
endfacet
facet normal 0.3094504863389165 0.9509155569789612 0
  outer loop
    vertex 1.248 4.8420000000000005 -5
    vertex 1.248 4.8420000000000005 5
    vertex 1.838 4.65 5
  endloop
endfacet
facet normal 0 0 -1
  outer loop
    vertex 1.248 4.8420000000000005 -5
    vertex 1.838 4.65 -5
    vertex 1.838 -4.65 -5
  endloop
endfacet
facet normal 0.3094504863389165 0.9509155569789612 0
  outer loop
    vertex 1.248 4.8420000000000005 -5
    vertex 1.838 4.65 5
    vertex 1.838 4.65 -5
  endloop
endfacet
facet normal 0 0 1
  outer loop
    vertex 1.248 4.8420000000000005 5
    vertex 1.838 -4.65 5
    vertex 1.838 4.65 5
  endloop
endfacet
facet normal 0 0 -1
  outer loop
    vertex 1.838 -4.65 -5
    vertex 1.838 4.65 -5
    vertex 2.412 -4.38 -5
  endloop
endfacet
facet normal 0.42564518964139525 -0.9048901439042977 0
  outer loop
    vertex 1.838 -4.65 -5
    vertex 2.412 -4.38 -5
    vertex 1.838 -4.65 5
  endloop
endfacet
facet normal 0.42564518964139525 -0.9048901439042977 0
  outer loop
    vertex 1.838 -4.65 5
    vertex 2.412 -4.38 -5
    vertex 2.412 -4.38 5
  endloop
endfacet
facet normal 0 0 1
  outer loop
    vertex 1.838 -4.65 5
    vertex 2.412 -4.38 5
    vertex 1.838 4.65 5
  endloop
endfacet
facet normal 0.42564518964139525 0.9048901439042977 0
  outer loop
    vertex 1.838 4.65 -5
    vertex 1.838 4.65 5
    vertex 2.412 4.38 5
  endloop
endfacet
facet normal 0 0 -1
  outer loop
    vertex 1.838 4.65 -5
    vertex 2.412 4.38 -5
    vertex 2.412 -4.38 -5
  endloop
endfacet
facet normal 0.42564518964139525 0.9048901439042977 0
  outer loop
    vertex 1.838 4.65 -5
    vertex 2.412 4.38 5
    vertex 2.412 4.38 -5
  endloop
endfacet
facet normal 0 0 1
  outer loop
    vertex 1.838 4.65 5
    vertex 2.412 -4.38 5
    vertex 2.412 4.38 5
  endloop
endfacet
facet normal 0 0 -1
  outer loop
    vertex 2.412 -4.38 -5
    vertex 2.412 4.38 -5
    vertex 2.935 -4.048 -5
  endloop
endfacet
facet normal 0.5359350884919309 -0.8442591906062653 0
  outer loop
    vertex 2.412 -4.38 -5
    vertex 2.935 -4.048 -5
    vertex 2.412 -4.38 5
  endloop
endfacet
facet normal 0.5359350884919309 -0.8442591906062653 0
  outer loop
    vertex 2.412 -4.38 5
    vertex 2.935 -4.048 -5
    vertex 2.935 -4.048 5
  endloop
endfacet
facet normal 0 0 1
  outer loop
    vertex 2.412 -4.38 5
    vertex 2.935 -4.048 5
    vertex 2.412 4.38 5
  endloop
endfacet
facet normal 0.5359350884919309 0.8442591906062653 0
  outer loop
    vertex 2.412 4.38 -5
    vertex 2.412 4.38 5
    vertex 2.935 4.048 5
  endloop
endfacet
facet normal 0 0 -1
  outer loop
    vertex 2.412 4.38 -5
    vertex 2.935 4.048 -5
    vertex 2.935 -4.048 -5
  endloop
endfacet
facet normal 0.5359350884919309 0.8442591906062653 0
  outer loop
    vertex 2.412 4.38 -5
    vertex 2.935 4.048 5
    vertex 2.935 4.048 -5
  endloop
endfacet
facet normal 0 0 1
  outer loop
    vertex 2.412 4.38 5
    vertex 2.935 -4.048 5
    vertex 2.935 4.048 5
  endloop
endfacet
facet normal 0 0 -1
  outer loop
    vertex 2.935 -4.048 -5
    vertex 2.935 4.048 -5
    vertex 3.419 -3.648 -5
  endloop
endfacet
facet normal 0.6370460623571181 -0.7708257354521131 0
  outer loop
    vertex 2.935 -4.048 -5
    vertex 3.419 -3.648 -5
    vertex 2.935 -4.048 5
  endloop
endfacet
facet normal 0.6370460623571181 -0.7708257354521131 0
  outer loop
    vertex 2.935 -4.048 5
    vertex 3.419 -3.648 -5
    vertex 3.419 -3.648 5
  endloop
endfacet
facet normal 0 0 1
  outer loop
    vertex 2.935 -4.048 5
    vertex 3.419 -3.648 5
    vertex 2.935 4.048 5
  endloop
endfacet
facet normal 0.6370460623571181 0.7708257354521131 0
  outer loop
    vertex 2.935 4.048 -5
    vertex 2.935 4.048 5
    vertex 3.419 3.648 5
  endloop
endfacet
facet normal 0 0 -1
  outer loop
    vertex 2.935 4.048 -5
    vertex 3.419 3.648 -5
    vertex 3.419 -3.648 -5
  endloop
endfacet
facet normal 0.6370460623571181 0.7708257354521131 0
  outer loop
    vertex 2.935 4.048 -5
    vertex 3.419 3.648 5
    vertex 3.419 3.648 -5
  endloop
endfacet
facet normal 0 0 1
  outer loop
    vertex 2.935 4.048 5
    vertex 3.419 -3.648 5
    vertex 3.419 3.648 5
  endloop
endfacet
facet normal 0 0 -1
  outer loop
    vertex 3.419 -3.648 -5
    vertex 3.419 3.648 -5
    vertex 3.853 -3.1870000000000003 -5
  endloop
endfacet
facet normal 0.7281072501234664 -0.6854632246281663 0
  outer loop
    vertex 3.419 -3.648 -5
    vertex 3.853 -3.1870000000000003 -5
    vertex 3.419 -3.648 5
  endloop
endfacet
facet normal 0.7281072501234664 -0.6854632246281663 0
  outer loop
    vertex 3.419 -3.648 5
    vertex 3.853 -3.1870000000000003 -5
    vertex 3.853 -3.1870000000000003 5
  endloop
endfacet
facet normal 0 0 1
  outer loop
    vertex 3.419 -3.648 5
    vertex 3.853 -3.1870000000000003 5
    vertex 3.419 3.648 5
  endloop
endfacet
facet normal 0.7281072501234664 0.6854632246281663 0
  outer loop
    vertex 3.419 3.648 -5
    vertex 3.419 3.648 5
    vertex 3.853 3.1870000000000003 5
  endloop
endfacet
facet normal 0 0 -1
  outer loop
    vertex 3.419 3.648 -5
    vertex 3.853 3.1870000000000003 -5
    vertex 3.853 -3.1870000000000003 -5
  endloop
endfacet
facet normal 0.7281072501234664 0.6854632246281663 0
  outer loop
    vertex 3.419 3.648 -5
    vertex 3.853 3.1870000000000003 5
    vertex 3.853 3.1870000000000003 -5
  endloop
endfacet
facet normal 0 0 1
  outer loop
    vertex 3.419 3.648 5
    vertex 3.853 -3.1870000000000003 5
    vertex 3.853 3.1870000000000003 5
  endloop
endfacet
facet normal 0 0 -1
  outer loop
    vertex 3.853 -3.1870000000000003 -5
    vertex 3.853 3.1870000000000003 -5
    vertex 4.223 -2.678 -5
  endloop
endfacet
facet normal 0.808873501569708 -0.5879827025162898 0
  outer loop
    vertex 3.853 -3.1870000000000003 -5
    vertex 4.223 -2.678 -5
    vertex 3.853 -3.1870000000000003 5
  endloop
endfacet
facet normal 0.808873501569708 -0.5879827025162898 0
  outer loop
    vertex 3.853 -3.1870000000000003 5
    vertex 4.223 -2.678 -5
    vertex 4.223 -2.678 5
  endloop
endfacet
facet normal 0 0 1
  outer loop
    vertex 3.853 -3.1870000000000003 5
    vertex 4.223 -2.678 5
    vertex 3.853 3.1870000000000003 5
  endloop
endfacet
facet normal 0.808873501569708 0.5879827025162898 0
  outer loop
    vertex 3.853 3.1870000000000003 -5
    vertex 3.853 3.1870000000000003 5
    vertex 4.223 2.678 5
  endloop
endfacet
facet normal 0 0 -1
  outer loop
    vertex 3.853 3.1870000000000003 -5
    vertex 4.223 2.678 -5
    vertex 4.223 -2.678 -5
  endloop
endfacet
facet normal 0.808873501569708 0.5879827025162898 0
  outer loop
    vertex 3.853 3.1870000000000003 -5
    vertex 4.223 2.678 5
    vertex 4.223 2.678 -5
  endloop
endfacet
facet normal 0 0 1
  outer loop
    vertex 3.853 3.1870000000000003 5
    vertex 4.223 -2.678 5
    vertex 4.223 2.678 5
  endloop
endfacet
facet normal 0 0 -1
  outer loop
    vertex 4.223 -2.678 -5
    vertex 4.223 2.678 -5
    vertex 4.523 -2.132 -5
  endloop
endfacet
facet normal 0.8764191719050103 -0.4815489955522033 0
  outer loop
    vertex 4.223 -2.678 -5
    vertex 4.523 -2.132 -5
    vertex 4.223 -2.678 5
  endloop
endfacet
facet normal 0.8764191719050103 -0.4815489955522033 0
  outer loop
    vertex 4.223 -2.678 5
    vertex 4.523 -2.132 -5
    vertex 4.523 -2.132 5
  endloop
endfacet
facet normal 0 0 1
  outer loop
    vertex 4.223 -2.678 5
    vertex 4.523 -2.132 5
    vertex 4.223 2.678 5
  endloop
endfacet
facet normal 0.8764191719050103 0.4815489955522033 0
  outer loop
    vertex 4.223 2.678 -5
    vertex 4.223 2.678 5
    vertex 4.523 2.132 5
  endloop
endfacet
facet normal 0 0 -1
  outer loop
    vertex 4.223 2.678 -5
    vertex 4.523 2.132 -5
    vertex 4.523 -2.132 -5
  endloop
endfacet
facet normal 0.8764191719050103 0.4815489955522033 0
  outer loop
    vertex 4.223 2.678 -5
    vertex 4.523 2.132 5
    vertex 4.523 2.132 -5
  endloop
endfacet
facet normal 0 0 1
  outer loop
    vertex 4.223 2.678 5
    vertex 4.523 -2.132 5
    vertex 4.523 2.132 5
  endloop
endfacet
facet normal 0 0 -1
  outer loop
    vertex 4.523 -2.132 -5
    vertex 4.523 2.132 -5
    vertex 4.757 -1.541 -5
  endloop
endfacet
facet normal 0.9297729605796854 -0.36813345647317475 0
  outer loop
    vertex 4.523 -2.132 -5
    vertex 4.757 -1.541 -5
    vertex 4.523 -2.132 5
  endloop
endfacet
facet normal 0.9297729605796854 -0.36813345647317475 0
  outer loop
    vertex 4.523 -2.132 5
    vertex 4.757 -1.541 -5
    vertex 4.757 -1.541 5
  endloop
endfacet
facet normal 0 0 1
  outer loop
    vertex 4.523 -2.132 5
    vertex 4.757 -1.541 5
    vertex 4.523 2.132 5
  endloop
endfacet
facet normal 0.9297729605796854 0.36813345647317475 0
  outer loop
    vertex 4.523 2.132 -5
    vertex 4.523 2.132 5
    vertex 4.757 1.541 5
  endloop
endfacet
facet normal 0 0 -1
  outer loop
    vertex 4.523 2.132 -5
    vertex 4.757 1.541 -5
    vertex 4.757 -1.541 -5
  endloop
endfacet
facet normal 0.9297729605796854 0.36813345647317475 0
  outer loop
    vertex 4.523 2.132 -5
    vertex 4.757 1.541 5
    vertex 4.757 1.541 -5
  endloop
endfacet
facet normal 0 0 1
  outer loop
    vertex 4.523 2.132 5
    vertex 4.757 -1.541 5
    vertex 4.757 1.541 5
  endloop
endfacet
facet normal 0 0 -1
  outer loop
    vertex 4.757 -1.541 -5
    vertex 4.757 1.541 -5
    vertex 4.912 -0.935 -5
  endloop
endfacet
facet normal 0.9688116305951355 -0.2477983543601424 0
  outer loop
    vertex 4.757 -1.541 -5
    vertex 4.912 -0.935 -5
    vertex 4.757 -1.541 5
  endloop
endfacet
facet normal 0.9688116305951355 -0.2477983543601424 0
  outer loop
    vertex 4.757 -1.541 5
    vertex 4.912 -0.935 -5
    vertex 4.912 -0.935 5
  endloop
endfacet
facet normal 0 0 1
  outer loop
    vertex 4.757 -1.541 5
    vertex 4.912 -0.935 5
    vertex 4.757 1.541 5
  endloop
endfacet
facet normal 0.9688116305951355 0.2477983543601424 0
  outer loop
    vertex 4.757 1.541 -5
    vertex 4.757 1.541 5
    vertex 4.912 0.935 5
  endloop
endfacet
facet normal 0 0 -1
  outer loop
    vertex 4.757 1.541 -5
    vertex 4.912 0.935 -5
    vertex 4.912 -0.935 -5
  endloop
endfacet
facet normal 0.9688116305951355 0.2477983543601424 0
  outer loop
    vertex 4.757 1.541 -5
    vertex 4.912 0.935 5
    vertex 4.912 0.935 -5
  endloop
endfacet
facet normal 0 0 1
  outer loop
    vertex 4.757 1.541 5
    vertex 4.912 -0.935 5
    vertex 4.912 0.935 5
  endloop
endfacet
facet normal 0 0 -1
  outer loop
    vertex 4.912 -0.935 -5
    vertex 4.912 0.935 -5
    vertex 4.99 -0.312 -5
  endloop
endfacet
facet normal 0.9922533542433792 -0.12423075703207682 0
  outer loop
    vertex 4.912 -0.935 -5
    vertex 4.99 -0.312 -5
    vertex 4.912 -0.935 5
  endloop
endfacet
facet normal 0.9922533542433792 -0.12423075703207682 0
  outer loop
    vertex 4.912 -0.935 5
    vertex 4.99 -0.312 -5
    vertex 4.99 -0.312 5
  endloop
endfacet
facet normal 0 0 1
  outer loop
    vertex 4.912 -0.935 5
    vertex 4.99 -0.312 5
    vertex 4.912 0.935 5
  endloop
endfacet
facet normal 0.9922533542433792 0.12423075703207682 0
  outer loop
    vertex 4.912 0.935 -5
    vertex 4.912 0.935 5
    vertex 4.99 0.312 5
  endloop
endfacet
facet normal 0 0 -1
  outer loop
    vertex 4.912 0.935 -5
    vertex 4.99 0.312 -5
    vertex 4.99 -0.312 -5
  endloop
endfacet
facet normal 0.9922533542433792 0.12423075703207682 0
  outer loop
    vertex 4.912 0.935 -5
    vertex 4.99 0.312 5
    vertex 4.99 0.312 -5
  endloop
endfacet
facet normal 0 0 1
  outer loop
    vertex 4.912 0.935 5
    vertex 4.99 -0.312 5
    vertex 4.99 0.312 5
  endloop
endfacet
facet normal 1 0 0
  outer loop
    vertex 4.99 -0.312 -5
    vertex 4.99 0.312 -5
    vertex 4.99 -0.312 5
  endloop
endfacet
facet normal 1 0 0
  outer loop
    vertex 4.99 -0.312 5
    vertex 4.99 0.312 -5
    vertex 4.99 0.312 5
  endloop
endfacet
endsolid JSxCAD
