
<?xml version="1.0" encoding="UTF-8" standalone="no"?>
<!-- Created with Inkscape (http://www.inkscape.org/) -->

<svg
   width="210mm"
   height="297mm"
   viewBox="0 0 210 297"
   version="1.1"
   id="svg19893"
   inkscape:version="1.1.1 (3bf5ae0d25, 2021-09-20)"
   sodipodi:docname="warrior.svg"
   xmlns:inkscape="http://www.inkscape.org/namespaces/inkscape"
   xmlns:sodipodi="http://sodipodi.sourceforge.net/DTD/sodipodi-0.dtd"
   xmlns="http://www.w3.org/2000/svg"
   xmlns:svg="http://www.w3.org/2000/svg">
  <sodipodi:namedview
     id="namedview19895"
     pagecolor="#ffffff"
     bordercolor="#666666"
     borderopacity="1.0"
     inkscape:pageshadow="2"
     inkscape:pageopacity="0.0"
     inkscape:pagecheckerboard="0"
     inkscape:document-units="mm"
     showgrid="false"
     inkscape:zoom="0.76435185"
     inkscape:cx="387.25621"
     inkscape:cy="276.70503"
     inkscape:window-width="1920"
     inkscape:window-height="1005"
     inkscape:window-x="0"
     inkscape:window-y="0"
     inkscape:window-maximized="1"
     inkscape:current-layer="layer1" />
  <defs
     id="defs19890">
    <clipPath
       clipPathUnits="userSpaceOnUse"
       id="clipPath8648">
      <path
         d="M 188.481,139.687 H 251.63 V 345.113 H 188.481 Z"
         id="path8646" />
    </clipPath>
    <clipPath
       clipPathUnits="userSpaceOnUse"
       id="clipPath8896">
      <path
         d="m 245.595,150.37 c 3.18,6.114 -7.66,11.985 -8.581,17.498 v 0 l -0.966,0.215 c -10.508,-4.677 5.629,-25.241 9.547,-17.713"
         id="path8894" />
    </clipPath>
  </defs>
  <g
     inkscape:label="Layer 1"
     inkscape:groupmode="layer"
     id="layer1">
    <g
       id="g8644"
       clip-path="url(#clipPath8648)"
       transform="matrix(0.35277777,0,0,-0.35277777,21.872575,158.82553)">
      <g
         id="g8650"
         transform="translate(227.6783,169.7264)">
        <path
           d="m 0,0 c -1.044,-1.819 -2.006,-3.85 -3.324,-5.484 3.994,-2.278 7.961,-3.412 12.271,-1.348 1.793,0.858 6.407,3.107 6.784,5.29 0.149,0.854 -1.138,2.771 -1.302,3.794"
           style="fill:#41413d;fill-opacity:1;fill-rule:nonzero;stroke:none"
           id="path8652" />
      </g>
      <g
         id="g8654"
         transform="translate(232.0045,161.1659)">
        <path
           d="m 0,0 c -3.046,0 -5.759,1.25 -7.973,2.512 l -0.663,0.378 0.48,0.594 c 0.943,1.17 1.718,2.587 2.466,3.958 0.266,0.488 0.53,0.972 0.8,1.442 L -3.763,8.237 C -4.027,7.774 -4.287,7.299 -4.55,6.819 -5.202,5.623 -5.874,4.393 -6.678,3.28 -2.377,0.973 0.951,0.693 4.341,2.314 9.379,4.727 10.615,6.265 10.765,7.13 10.815,7.418 10.394,8.335 10.142,8.884 9.835,9.552 9.545,10.183 9.461,10.71 l 1.283,0.205 C 10.801,10.563 11.066,9.985 11.323,9.426 11.756,8.483 12.165,7.594 12.046,6.907 11.648,4.615 7.778,2.52 4.901,1.143 3.196,0.326 1.555,0 0,0"
           style="fill:#0c0a08;fill-opacity:1;fill-rule:nonzero;stroke:none"
           id="path8656" />
      </g>
      <g
         id="g8658"
         transform="translate(212.0616,171.6883)">
        <path
           d="m 0,0 c -1.813,0 -3.605,0.771 -5.346,2.302 -0.415,0.364 -0.456,0.996 -0.091,1.411 0.365,0.414 0.997,0.456 1.411,0.091 1.733,-1.525 3.396,-2.075 5.075,-1.68 2.894,0.677 5.944,4.297 8.159,9.685 0.211,0.511 0.797,0.753 1.305,0.545 0.511,-0.21 0.755,-0.794 0.545,-1.305 C 9.876,8.175 6.581,1.363 1.505,0.177 1.002,0.06 0.5,0 0,0"
           style="fill:#946955;fill-opacity:1;fill-rule:nonzero;stroke:none"
           id="path8660" />
      </g>
      <g
         id="g8662"
         transform="translate(207.3766,175.2411)">
        <path
           d="m 0,0 c -0.144,0 -0.281,-0.062 -0.377,-0.17 -0.088,-0.101 -0.132,-0.229 -0.123,-0.362 0.009,-0.133 0.068,-0.255 0.168,-0.343 2.089,-1.837 4.223,-2.527 6.409,-2.014 4.849,1.133 8.052,7.773 9.203,10.576 0.106,0.254 -0.017,0.546 -0.272,0.651 C 14.76,8.444 14.458,8.313 14.355,8.065 12.08,2.529 8.899,-1.202 5.848,-1.916 4.003,-2.345 2.193,-1.765 0.329,-0.124 0.212,-0.021 0.086,0 0,0 m 4.685,-4.053 c -1.936,0 -3.846,0.817 -5.676,2.427 -0.301,0.264 -0.481,0.63 -0.507,1.029 -0.025,0.401 0.106,0.786 0.371,1.087 0.527,0.599 1.521,0.661 2.117,0.136 1.612,-1.418 3.104,-1.924 4.63,-1.568 2.737,0.64 5.657,4.15 7.811,9.388 0.308,0.745 1.207,1.125 1.957,0.818 C 16.153,8.949 16.52,8.07 16.206,7.306 14.995,4.36 11.606,-2.623 6.304,-3.863 5.763,-3.989 5.218,-4.053 4.685,-4.053"
           style="fill:#0c0a08;fill-opacity:1;fill-rule:nonzero;stroke:none"
           id="path8664" />
      </g>
      <g
         id="g8666"
         transform="translate(221.442,151.4042)">
        <path
           d="M 0,0 C -0.454,0 -0.865,0.312 -0.973,0.772 -1.187,1.692 -1.414,2.519 -1.621,3.273 -2.797,7.567 -3.507,10.16 2.065,14.563 2.5,14.907 3.128,14.832 3.47,14.399 3.813,13.966 3.739,13.337 3.306,12.995 -1.229,9.411 -0.811,7.884 0.308,3.802 0.521,3.024 0.754,2.175 0.975,1.228 1.101,0.689 0.766,0.151 0.229,0.026 0.151,0.009 0.075,0 0,0"
           style="fill:#946955;fill-opacity:1;fill-rule:nonzero;stroke:none"
           id="path8668" />
      </g>
      <g
         id="g8670"
         transform="translate(224.1266,165.6835)">
        <path
           d="m 0,0 c -0.078,0 -0.196,-0.019 -0.309,-0.108 -5.314,-4.199 -4.674,-6.532 -3.514,-10.766 0.215,-0.783 0.439,-1.605 0.653,-2.52 0.06,-0.259 0.314,-0.434 0.603,-0.372 0.128,0.031 0.238,0.11 0.308,0.223 0.071,0.113 0.093,0.247 0.062,0.377 -0.219,0.941 -0.449,1.784 -0.662,2.556 -1.115,4.071 -1.624,5.928 3.171,9.718 0.104,0.082 0.17,0.201 0.186,0.333 C 0.514,-0.426 0.476,-0.295 0.393,-0.19 0.298,-0.069 0.154,0 0,0 m -2.685,-14.779 c -0.7,0 -1.3,0.476 -1.459,1.159 -0.21,0.9 -0.432,1.71 -0.635,2.451 -1.198,4.37 -1.983,7.236 3.85,11.846 0.628,0.494 1.614,0.378 2.107,-0.247 0.249,-0.315 0.36,-0.707 0.313,-1.106 -0.047,-0.397 -0.246,-0.753 -0.56,-1.001 -4.275,-3.379 -3.939,-4.605 -2.826,-8.669 0.215,-0.782 0.45,-1.638 0.672,-2.592 0.091,-0.39 0.025,-0.792 -0.186,-1.133 -0.212,-0.341 -0.544,-0.578 -0.934,-0.669 -0.115,-0.027 -0.229,-0.039 -0.342,-0.039"
           style="fill:#0c0a08;fill-opacity:1;fill-rule:nonzero;stroke:none"
           id="path8672" />
      </g>
      <g
         id="g8674"
         transform="translate(242.8121,150.9755)">
        <path
           d="m 0,0 c -0.163,0 -0.328,0.04 -0.481,0.124 -2.489,1.368 -6.658,4.857 -7.254,8.393 -0.405,2.4 0.587,4.427 1.546,6.387 0.457,0.934 0.888,1.816 1.15,2.701 0.157,0.531 0.712,0.834 1.242,0.676 0.53,-0.156 0.832,-0.713 0.676,-1.242 C -3.431,15.992 -3.92,14.992 -4.393,14.025 -5.25,12.271 -6.061,10.615 -5.763,8.849 -5.334,6.306 -1.86,3.165 0.483,1.876 0.967,1.61 1.144,1.002 0.877,0.518 0.695,0.187 0.353,0 0,0"
           style="fill:#946955;fill-opacity:1;fill-rule:nonzero;stroke:none"
           id="path8676" />
      </g>
      <g
         id="g8678"
         transform="translate(238.7301,168.7987)">
        <path
           d="m 0,0 c -0.219,0 -0.415,-0.148 -0.478,-0.36 -0.273,-0.926 -0.713,-1.826 -1.18,-2.779 -0.924,-1.888 -1.88,-3.841 -1.502,-6.085 0.567,-3.362 4.596,-6.714 7.002,-8.037 0.24,-0.132 0.553,-0.037 0.679,0.196 0.065,0.118 0.08,0.253 0.042,0.381 -0.037,0.128 -0.122,0.235 -0.239,0.298 -2.339,1.287 -6.022,4.506 -6.498,7.328 -0.324,1.924 0.52,3.649 1.412,5.476 0.468,0.956 0.947,1.935 1.243,2.939 0.039,0.128 0.024,0.264 -0.04,0.381 C 0.378,-0.145 0.271,-0.06 0.144,-0.021 0.096,-0.007 0.048,0 0,0 m 4.082,-18.323 c -0.251,0 -0.5,0.064 -0.722,0.185 -2.57,1.413 -6.881,5.037 -7.506,8.748 -0.431,2.56 0.596,4.661 1.589,6.691 0.448,0.914 0.87,1.777 1.12,2.623 0.229,0.773 1.086,1.241 1.865,1.013 0.384,-0.113 0.7,-0.37 0.891,-0.721 0.192,-0.353 0.235,-0.758 0.121,-1.142 -0.321,-1.085 -0.818,-2.102 -1.298,-3.087 -0.826,-1.686 -1.601,-3.271 -1.329,-4.879 0.397,-2.356 3.795,-5.409 5.994,-6.617 0.35,-0.193 0.605,-0.512 0.716,-0.896 0.113,-0.385 0.067,-0.79 -0.126,-1.142 -0.262,-0.478 -0.767,-0.776 -1.315,-0.776"
           style="fill:#0c0a08;fill-opacity:1;fill-rule:nonzero;stroke:none"
           id="path8680" />
      </g>
      <g
         id="g8682"
         transform="translate(220.4947,184.0087)">
        <path
           d="m 0,0 c -0.896,-1.399 -1.586,-2.862 -2.621,-4.194 1.086,-0.965 2.336,-1.395 3.574,-1.97 1.497,1.132 2.669,3.042 3.603,4.668"
           style="fill:#989696;fill-opacity:1;fill-rule:nonzero;stroke:none"
           id="path8684" />
      </g>
      <g
         id="g8686"
         transform="translate(221.5279,177.0907)">
        <path
           d="m 0,0 -0.354,0.164 c -0.243,0.113 -0.485,0.22 -0.727,0.326 -1.012,0.447 -2.058,0.907 -3.004,1.747 l -0.455,0.405 0.373,0.48 c 0.628,0.81 1.121,1.663 1.642,2.567 0.305,0.529 0.611,1.058 0.944,1.58 0.194,0.299 0.596,0.391 0.898,0.197 C -0.381,7.271 -0.292,6.87 -0.485,6.567 -0.809,6.063 -1.104,5.551 -1.398,5.04 -1.819,4.312 -2.25,3.563 -2.76,2.84 -2.083,2.353 -1.337,2.024 -0.557,1.681 -0.43,1.624 -0.303,1.568 -0.176,1.512 1.031,2.545 2.043,4.149 2.959,5.745 3.138,6.057 3.536,6.164 3.846,5.985 4.157,5.807 4.265,5.409 4.086,5.099 3.027,3.254 1.837,1.389 0.312,0.235 Z"
           style="fill:#0c0a08;fill-opacity:1;fill-rule:nonzero;stroke:none"
           id="path8688" />
      </g>
      <g
         id="g8690"
         transform="translate(225.5104,189.659)">
        <path
           d="m 0,0 c -3.025,1.241 -4.718,-2.946 -6.092,-5.062 1.275,-0.661 2.702,-1.133 3.636,-2.126 1.12,1.825 1.779,3.945 3.123,5.604"
           style="fill:#989696;fill-opacity:1;fill-rule:nonzero;stroke:none"
           id="path8692" />
      </g>
      <g
         id="g8694"
         transform="translate(223.1637,181.4051)">
        <path
           d="M 0,0 -0.583,0.62 C -1.191,1.268 -2.079,1.682 -3.02,2.119 -3.364,2.28 -3.709,2.44 -4.044,2.614 l -0.637,0.33 0.39,0.601 c 0.222,0.341 0.451,0.736 0.693,1.153 1.25,2.155 3.143,5.407 6.192,4.157 C 2.926,8.719 3.084,8.339 2.948,8.007 2.812,7.676 2.434,7.517 2.1,7.652 0.244,8.414 -1.018,6.555 -2.474,4.046 -2.591,3.844 -2.705,3.647 -2.816,3.46 -2.701,3.405 -2.586,3.352 -2.471,3.298 -1.717,2.946 -0.943,2.586 -0.275,2.081 -0.001,2.588 0.252,3.113 0.5,3.628 1.067,4.806 1.654,6.023 2.509,7.079 2.735,7.358 3.146,7.399 3.423,7.175 3.702,6.949 3.745,6.54 3.519,6.261 2.76,5.323 2.23,4.226 1.671,3.063 1.297,2.286 0.909,1.482 0.444,0.726 Z"
           style="fill:#0c0a08;fill-opacity:1;fill-rule:nonzero;stroke:none"
           id="path8696" />
      </g>
      <g
         id="g8698"
         transform="translate(214.0636,202.2333)">
        <path
           d="m 0,0 c 3.235,-3.271 2.265,-5.359 0.764,-8.983 0.371,0.193 0.943,0.154 1.342,0.314 0.617,-3.773 2.24,-4.258 5.539,-5.548 0.54,3.118 2.541,-1.443 3.267,-2.245 1.976,-2.18 4.97,-1.303 7.676,-2.378 2.072,1.887 4.87,3.39 7.037,4.179 1.265,0.461 1.735,0.017 2.764,1.158 3.391,3.755 -1.614,14.422 -3.577,18.023 -3.458,6.34 -14.1,19.547 -22.315,9.576"
           style="fill:#2c211c;fill-opacity:1;fill-rule:nonzero;stroke:none"
           id="path8700" />
      </g>
      <g
         id="g8702"
         transform="translate(232.7897,182.6395)">
        <path
           d="M 0,0 -0.378,0.149 C -1.339,0.532 -2.382,0.651 -3.39,0.768 -5.123,0.967 -6.916,1.173 -8.296,2.695 -8.512,2.934 -8.759,3.342 -9.072,3.858 -9.377,4.362 -9.965,5.331 -10.34,5.689 -10.371,5.596 -10.407,5.46 -10.44,5.266 l -0.136,-0.785 -1.129,0.442 c -2.878,1.119 -4.683,1.822 -5.429,5.224 -0.007,-10e-4 -0.014,-10e-4 -0.021,-0.002 -0.19,-0.028 -0.406,-0.058 -0.507,-0.111 l -1.584,-0.826 0.783,1.892 c 1.421,3.425 2.134,5.145 -0.725,8.037 l 0.924,0.914 c 3.152,-3.188 2.584,-5.537 1.379,-8.531 0.008,0.002 0.016,0.005 0.023,0.008 l 0.753,0.302 0.13,-0.801 c 0.515,-3.149 1.686,-3.701 4.459,-4.784 0.154,0.378 0.419,0.754 0.886,0.842 1.014,0.198 1.819,-1.144 2.674,-2.555 0.243,-0.402 0.496,-0.818 0.628,-0.964 1.051,-1.159 2.46,-1.321 4.091,-1.508 0.969,-0.113 1.967,-0.227 2.962,-0.562 2.21,1.917 5.013,3.338 6.956,4.045 0.495,0.181 0.886,0.24 1.201,0.288 0.52,0.079 0.782,0.118 1.303,0.695 2.837,3.143 -1.158,12.675 -3.665,17.276 -2.646,4.851 -8.659,12.265 -14.378,12.81 -2.522,0.241 -4.843,-0.882 -6.866,-3.336 l -1.003,0.827 c 2.314,2.808 5.001,4.091 7.993,3.803 C -2.028,37.268 4.266,28.809 6.656,24.425 7.444,22.979 14.232,10.181 10.146,5.655 9.314,4.734 8.684,4.639 8.073,4.546 7.789,4.503 7.495,4.458 7.122,4.322 5.208,3.625 2.41,2.196 0.3,0.273 Z"
           style="fill:#0c0a08;fill-opacity:1;fill-rule:nonzero;stroke:none"
           id="path8704" />
      </g>
      <g
         id="g8706"
         transform="translate(225.8414,190.7714)">
        <path
           d="m 0,0 c -1.461,-1.387 -4.298,-5.343 -4.001,-7.117 0.309,-1.835 1.835,-3.669 4.087,-3.753 0,0 0.173,-4.572 0.333,-7.673 0.144,-2.826 0.56,-4.597 2.217,-5.352 2.613,-1.19 8.166,-0.411 9.696,0.373 1.528,0.782 4.954,2.144 3.837,7.201 -1.117,5.056 -3.441,9.593 -3.74,12.29 -0.299,2.697 0.413,6.672 0.413,6.672"
           style="fill:#52423b;fill-opacity:1;fill-rule:nonzero;stroke:none"
           id="path8708" />
      </g>
      <g
         id="g8710"
         transform="translate(232.2838,165.6171)">
        <path
           d="m 0,0 c -1.536,0 -3.024,0.189 -4.076,0.668 -2.168,0.987 -2.471,3.461 -2.597,5.91 -0.126,2.443 -0.26,5.798 -0.311,7.116 -2.29,0.374 -3.782,2.337 -4.1,4.236 -0.372,2.219 2.892,6.459 4.194,7.696 l 0.895,-0.943 c -1.593,-1.513 -4.032,-5.195 -3.808,-6.538 0.26,-1.541 1.535,-3.139 3.471,-3.211 l 0.603,-0.023 0.022,-0.602 c 0,-10e-4 0.173,-4.568 0.333,-7.664 0.152,-2.992 0.634,-4.246 1.837,-4.793 2.483,-1.131 7.813,-0.315 9.131,0.359 l 0.288,0.144 c 1.654,0.824 4.153,2.069 3.21,6.337 -0.556,2.518 -1.419,4.912 -2.181,7.025 -0.759,2.106 -1.415,3.926 -1.571,5.335 -0.306,2.759 0.389,6.691 0.42,6.857 L 7.039,27.681 C 7.032,27.642 6.348,23.766 6.633,21.194 6.771,19.938 7.403,18.187 8.135,16.157 8.909,14.008 9.787,11.572 10.361,8.974 11.523,3.713 8.104,2.01 6.462,1.191 L 6.186,1.053 C 5.094,0.494 2.484,0 0,0"
           style="fill:#0c0a08;fill-opacity:1;fill-rule:nonzero;stroke:none"
           id="path8712" />
      </g>
      <g
         id="g8714"
         transform="translate(225.8199,190.5135)">
        <path
           d="m 0,0 c -0.145,-1.698 0.333,-4.787 2.274,-5.238 2.67,-0.62 5.102,4.344 5.923,6.635"
           style="fill:#946955;fill-opacity:1;fill-rule:nonzero;stroke:none"
           id="path8716" />
      </g>
      <g
         id="g8718"
         transform="translate(228.5592,184.5712)">
        <path
           d="M 0,0 C -0.2,0 -0.404,0.022 -0.612,0.071 -2.955,0.615 -3.558,3.995 -3.387,5.997 L -2.092,5.888 C -2.236,4.187 -1.7,1.658 -0.317,1.337 1.646,0.893 3.896,4.911 4.846,7.56 L 6.07,7.12 C 5.96,6.814 3.475,0 0,0"
           style="fill:#0c0a08;fill-opacity:1;fill-rule:nonzero;stroke:none"
           id="path8720" />
      </g>
      <g
         id="g8722"
         transform="translate(213.2135,205.0926)">
        <path
           d="M 0,0 C 1.028,-9.276 9.044,-16.001 17.904,-15.019 26.765,-14.036 33.116,-5.72 32.088,3.557 31.06,12.834 23.041,19.558 14.181,18.575 5.321,17.594 -1.028,9.277 0,0"
           style="fill:#946955;fill-opacity:1;fill-rule:nonzero;stroke:none"
           id="path8724" />
      </g>
      <g
         id="g8726"
         transform="translate(229.1139,223.1132)">
        <path
           d="m 0,0 c -0.547,0 -1.102,-0.03 -1.648,-0.092 -4.107,-0.454 -7.784,-2.558 -10.353,-5.925 -2.577,-3.375 -3.732,-7.612 -3.253,-11.932 0.918,-8.286 7.599,-14.535 15.538,-14.535 h 0.001 c 0.547,0 1.101,0.03 1.648,0.091 8.491,0.942 14.595,8.953 13.608,17.858 C 14.623,-6.249 7.941,0 0,0 M 0.285,-33.784 H 0.284 c -8.603,0 -15.839,6.746 -16.83,15.692 -0.516,4.654 0.731,9.223 3.511,12.864 2.787,3.652 6.78,5.934 11.244,6.429 C -1.197,1.267 -0.595,1.3 0,1.3 c 8.605,0 15.842,-6.746 16.834,-15.693 1.065,-9.617 -5.555,-18.272 -14.759,-19.293 -0.594,-0.065 -1.196,-0.098 -1.79,-0.098"
           style="fill:#0c0a08;fill-opacity:1;fill-rule:nonzero;stroke:none"
           id="path8728" />
      </g>
      <g
         id="g8730"
         transform="translate(222.9947,206.3602)">
        <path
           d="M 0,0 C 0.158,-1.426 0.816,-2.524 1.471,-2.452 2.123,-2.38 2.528,-1.163 2.37,0.263 2.212,1.691 1.551,2.788 0.897,2.716 0.243,2.644 -0.158,1.429 0,0"
           style="fill:#0c0a08;fill-opacity:1;fill-rule:nonzero;stroke:none"
           id="path8732" />
      </g>
      <g
         id="g8734"
         transform="translate(218.4615,205.4266)">
        <path
           d="M 0,0 C 0.139,-1.249 0.876,-2.192 1.649,-2.106 2.424,-2.021 2.938,-0.938 2.8,0.311 2.661,1.56 1.923,2.502 1.148,2.417 0.375,2.331 -0.139,1.249 0,0"
           style="fill:#0c0a08;fill-opacity:1;fill-rule:nonzero;stroke:none"
           id="path8736" />
      </g>
      <g
         id="g8738"
         transform="translate(221.3356,196.1561)">
        <path
           d="M 0,0 C 1.38,7.254 10.361,5.706 12.659,0.141 8.495,-0.463 4.267,-0.475 0.109,-0.985"
           style="fill:#ffffff;fill-opacity:1;fill-rule:nonzero;stroke:none"
           id="path8740" />
      </g>
      <g
         id="g8742"
         transform="translate(226.9117,200.4003)">
        <path
           d="m 0,0 c -0.205,0 -0.41,-0.011 -0.614,-0.031 -1.333,-0.137 -3.666,-0.881 -4.323,-4.334 -0.011,-0.055 -0.028,-0.106 -0.049,-0.154 1.741,0.197 3.507,0.315 5.219,0.43 1.931,0.131 3.918,0.265 5.869,0.509 C 4.861,-1.436 2.431,0 0,0 m -5.468,-5.88 c -0.323,0 -0.603,0.242 -0.644,0.571 -0.025,0.2 0.045,0.39 0.173,0.526 -0.209,0.14 -0.326,0.397 -0.276,0.66 0.595,3.128 2.588,5.091 5.468,5.385 C 2.722,1.608 6.334,-0.586 7.684,-3.855 7.761,-4.041 7.747,-4.251 7.647,-4.425 7.549,-4.6 7.375,-4.718 7.176,-4.747 4.895,-5.077 2.569,-5.234 0.321,-5.386 -1.558,-5.512 -3.501,-5.643 -5.388,-5.875 -5.414,-5.878 -5.441,-5.88 -5.468,-5.88"
           style="fill:#0c0a08;fill-opacity:1;fill-rule:nonzero;stroke:none"
           id="path8744" />
      </g>
      <g
         id="g8746"
         transform="translate(222.7447,198.8778)">
        <path
           d="M 0,0 C 0.115,-1.032 0.229,-2.065 0.344,-3.098"
           style="fill:#ffffff;fill-opacity:1;fill-rule:nonzero;stroke:none"
           id="path8748" />
      </g>
      <g
         id="g8750"
         transform="translate(223.0885,195.4051)">
        <path
           d="M 0,0 C -0.189,0 -0.352,0.142 -0.373,0.334 L -0.717,3.431 C -0.739,3.637 -0.591,3.822 -0.386,3.846 -0.167,3.857 0.007,3.72 0.029,3.515 L 0.373,0.416 C 0.396,0.21 0.247,0.025 0.041,0.002 0.027,0.001 0.014,0 0,0"
           style="fill:#0c0a08;fill-opacity:1;fill-rule:nonzero;stroke:none"
           id="path8752" />
      </g>
      <g
         id="g8754"
         transform="translate(226.1871,195.7479)">
        <path
           d="m 0,0 c -0.175,0 -0.331,0.122 -0.367,0.299 l -0.922,4.46 c -0.042,0.203 0.089,0.401 0.291,0.443 0.206,0.04 0.401,-0.09 0.443,-0.291 L 0.367,0.451 C 0.409,0.248 0.278,0.05 0.076,0.008 0.051,0.003 0.024,0 0,0"
           style="fill:#0c0a08;fill-opacity:1;fill-rule:nonzero;stroke:none"
           id="path8756" />
      </g>
      <g
         id="g8758"
         transform="translate(229.7223,195.9979)">
        <path
           d="m 0,0 c -0.168,0 -0.32,0.113 -0.363,0.283 l -1.016,4.022 c -0.051,0.201 0.07,0.404 0.272,0.455 0.204,0.05 0.404,-0.072 0.455,-0.272 L 0.363,0.467 C 0.414,0.266 0.293,0.062 0.092,0.012 0.061,0.004 0.03,0 0,0"
           style="fill:#0c0a08;fill-opacity:1;fill-rule:nonzero;stroke:none"
           id="path8760" />
      </g>
      <g
         id="g8762"
         transform="translate(232.1783,195.7001)">
        <path
           d="M 0,0 C -0.165,0 -0.316,0.109 -0.361,0.276 L -1.08,2.904 c -0.055,0.2 0.062,0.406 0.263,0.46 0.204,0.061 0.406,-0.063 0.46,-0.262 L 0.361,0.474 C 0.416,0.274 0.299,0.068 0.099,0.014 0.065,0.004 0.032,0 0,0"
           style="fill:#0c0a08;fill-opacity:1;fill-rule:nonzero;stroke:none"
           id="path8764" />
      </g>
      <g
         id="g8766"
         transform="translate(222.4479,197.3299)">
        <path
           d="m 0,0 c -0.198,0 -0.364,0.155 -0.374,0.355 -0.012,0.207 0.147,0.383 0.354,0.394 L 9.76,1.263 C 10.004,1.295 10.144,1.114 10.153,0.908 10.165,0.701 10.006,0.525 9.799,0.515 L 0.02,0.001 C 0.013,0 0.006,0 0,0"
           style="fill:#0c0a08;fill-opacity:1;fill-rule:nonzero;stroke:none"
           id="path8768" />
      </g>
      <g
         id="g8770"
         transform="translate(220.3258,218.0663)">
        <path
           d="m 0,0 c 0.506,-1.438 1.979,-2.499 3.466,-1.62 -0.252,1.521 0.698,1.611 1.593,0.436 1.541,-2.022 -0.071,-4.183 3.408,-5.506 0.087,0.435 0.28,0.77 0.368,1.118 1.787,-1.821 0.287,-7.269 4.94,-6.318 0.815,2.026 2.812,-1.78 2.932,-3.074 0.095,-1.024 -2.286,-2.655 0.742,-2.24 0.024,-1.091 0.521,-2 1.508,-2.256 0.453,-6.326 2.848,-5.013 7.498,-6.408 -1.595,1.573 -1.468,6.2 0.604,3.96 0.954,2.327 -0.783,3.82 -0.456,5.883 0.267,1.689 2.106,1.827 1.647,4.246 -3.896,0.228 -0.449,8.169 -1.678,10.059 -0.688,1.061 -1.911,0.714 -2.682,1.161 -1.653,0.961 -2.753,2.626 -4.351,3.697 0.46,0.234 0.756,0.79 1.14,1.014 -2.368,0.718 -5.725,3.823 -8.313,2.952 0.579,0.598 1.214,1.407 1.08,2.385 C 11.195,7.521 8.77,8.973 6.129,8.409 3.944,7.942 1.492,6.359 0.161,4.642 -1.608,6.992 -4.248,-1.345 0.275,-0.742"
           style="fill:#2c211c;fill-opacity:1;fill-rule:nonzero;stroke:none"
           id="path8772" />
      </g>
      <g
         id="g8774"
         transform="translate(238.4088,201.6053)">
        <path
           d="M 0,0 0.016,-0.729 C 0.025,-1.146 0.143,-2.138 1.037,-2.37 L 1.489,-2.487 1.522,-2.952 C 1.84,-7.381 2.98,-7.6 5.735,-8.128 c 0.4,-0.077 0.825,-0.158 1.278,-0.258 -0.386,1.04 -0.481,2.242 -0.257,3.052 0.224,0.81 0.711,1.04 0.98,1.105 0.28,0.07 0.566,0.033 0.863,-0.108 0.078,0.729 -0.125,1.386 -0.352,2.114 -0.263,0.846 -0.534,1.72 -0.369,2.76 0.137,0.866 0.59,1.398 0.99,1.866 0.435,0.509 0.767,0.898 0.718,1.709 -0.51,0.123 -0.929,0.382 -1.251,0.772 -1.063,1.284 -0.754,3.64 -0.456,5.919 0.188,1.437 0.401,3.066 0.065,3.584 -0.266,0.411 -0.633,0.49 -1.259,0.593 -0.403,0.067 -0.819,0.136 -1.205,0.36 -0.956,0.556 -1.724,1.314 -2.468,2.048 -0.63,0.621 -1.226,1.207 -1.917,1.671 l -0.921,0.616 0.987,0.503 c 0.081,0.041 0.167,0.115 0.255,0.203 C 0.83,20.653 0.218,21 -0.417,21.359 -2.134,22.33 -4.075,23.43 -5.51,22.948 l -0.674,1.069 c 0.155,0.16 0.316,0.337 0.458,0.528 -1.133,-0.419 -2.282,-0.334 -3.405,-0.252 -0.882,0.065 -1.792,0.131 -2.687,-0.059 -1.983,-0.423 -4.333,-1.908 -5.59,-3.53 l -0.522,-0.673 -0.511,0.681 c -0.106,0.141 -0.169,0.16 -0.169,0.16 -0.071,-0.008 -0.368,-0.225 -0.652,-0.863 -0.45,-1.013 -0.592,-2.493 -0.05,-3.218 0.202,-0.27 0.497,-0.418 0.893,-0.448 l 0.949,0.334 c 0.238,-0.676 0.728,-1.221 1.278,-1.421 0.292,-0.107 0.587,-0.112 0.884,-0.019 -0.02,0.93 0.423,1.277 0.719,1.405 0.63,0.271 1.41,-0.09 2.082,-0.971 0.679,-0.892 0.831,-1.791 0.965,-2.584 0.172,-1.019 0.302,-1.791 1.526,-2.43 0.002,0.005 0.004,0.011 0.007,0.016 0.05,0.128 0.099,0.251 0.131,0.375 l 0.283,1.122 0.811,-0.826 c 0.761,-0.775 1.008,-1.98 1.247,-3.145 0.447,-2.18 0.787,-3.356 2.795,-3.045 0.408,0.666 0.976,0.674 1.221,0.637 1.451,-0.211 2.703,-3.267 2.792,-4.233 0.051,-0.556 -0.258,-1.074 -0.533,-1.531 -0.033,-0.055 -0.072,-0.121 -0.109,-0.186 0.149,0.004 0.359,0.02 0.649,0.059 z m 8.186,-10.03 c -0.998,0.3 -1.9,0.472 -2.695,0.625 -3.116,0.597 -4.8,1.145 -5.231,5.94 -0.757,0.36 -1.281,1.078 -1.468,2.011 -0.688,-0.044 -1.191,0.071 -1.466,0.486 -0.366,0.555 0.002,1.17 0.298,1.663 C -2.25,0.906 -2.015,1.3 -2.023,1.437 -2.104,2.3 -3.118,4.181 -3.635,4.473 -3.654,4.441 -3.678,4.395 -3.704,4.329 L -3.835,4.005 -4.178,3.935 C -7.833,3.188 -8.398,5.933 -8.811,7.937 -8.894,8.341 -8.978,8.751 -9.082,9.128 L -9.129,8.89 -9.848,9.163 c -2.511,0.956 -2.758,2.418 -2.976,3.707 -0.119,0.708 -0.233,1.377 -0.717,2.014 -0.189,0.248 -0.353,0.391 -0.466,0.469 -0.004,-0.095 0.002,-0.228 0.031,-0.406 l 0.073,-0.439 -0.383,-0.227 c -0.756,-0.447 -1.568,-0.533 -2.352,-0.247 -0.527,0.193 -1.006,0.546 -1.386,1.011 -1.381,-0.094 -2.367,0.573 -2.76,1.83 -0.559,1.784 0.25,4.473 1.545,5.138 0.418,0.214 0.852,0.212 1.24,0.008 1.499,1.648 3.836,3.041 5.909,3.485 1.075,0.229 2.081,0.155 3.055,0.084 1.482,-0.112 2.764,-0.205 3.971,0.849 l 0.908,0.794 0.163,-1.195 c 0.087,-0.635 -0.069,-1.203 -0.324,-1.692 1.523,-0.148 3.102,-1.041 4.54,-1.855 0.938,-0.531 1.824,-1.032 2.561,-1.256 L 4.208,20.804 2.924,20.053 C 2.833,19.999 2.703,19.856 2.578,19.719 2.552,19.69 2.525,19.661 2.498,19.632 3.009,19.216 3.472,18.759 3.924,18.313 4.643,17.605 5.32,16.937 6.134,16.464 6.313,16.359 6.597,16.312 6.897,16.263 7.55,16.154 8.443,16.007 9.034,15.095 9.632,14.176 9.417,12.535 9.168,10.635 8.931,8.819 8.635,6.561 9.337,5.712 9.46,5.562 9.684,5.361 10.205,5.33 L 10.711,5.301 10.806,4.803 C 11.137,3.059 10.427,2.228 9.856,1.559 9.513,1.156 9.241,0.838 9.161,0.334 9.045,-0.406 9.26,-1.102 9.488,-1.837 9.825,-2.924 10.208,-4.155 9.577,-5.693 L 9.19,-6.637 8.498,-5.889 c -0.213,0.231 -0.355,0.327 -0.432,0.367 -0.058,-0.121 -0.131,-0.391 -0.13,-0.822 0.002,-0.857 0.31,-2.025 0.892,-2.6 z"
           style="fill:#0c0a08;fill-opacity:1;fill-rule:nonzero;stroke:none"
           id="path8776" />
      </g>
      <g
         id="g8778"
         transform="translate(219.6568,217.1229)">
        <path
           d="m 0,0 c 0.552,-1.802 -0.538,-3.695 -2.491,-3.639 -0.003,0.14 0.095,0.493 0.086,0.743 0.011,0.007 -0.181,0.134 -0.178,0.111 -1.34,-1.893 -1.215,-4.902 -2.421,-7.028 -0.87,-1.534 -1.325,-2.515 -0.955,-4.554 -3.596,0.091 -2.201,5.634 -2.4,7.727 -0.393,-0.005 -0.764,0.197 -1.162,0.194 2.145,3.654 1.898,12.098 8.418,9.416"
           style="fill:#2c211c;fill-opacity:1;fill-rule:nonzero;stroke:none"
           id="path8780" />
      </g>
      <g
         id="g8782"
         transform="translate(214.4791,202.0858)">
        <path
           d="m 0,0 -0.798,0.021 c -0.879,0.021 -1.59,0.321 -2.112,0.888 -1.206,1.31 -1.067,3.713 -0.956,5.644 0.027,0.463 0.053,0.909 0.055,1.283 C -3.85,7.845 -3.887,7.854 -3.924,7.864 -4.077,7.903 -4.221,7.94 -4.334,7.94 H -4.338 L -5.483,7.933 -4.904,8.92 c 0.55,0.936 0.941,2.242 1.354,3.624 0.776,2.591 1.578,5.27 3.652,6.259 1.166,0.558 2.547,0.493 4.22,-0.195 L 3.828,17.405 C 2.514,17.946 1.479,18.02 0.661,17.629 -0.892,16.889 -1.61,14.49 -2.304,12.172 -2.638,11.056 -2.958,9.988 -3.371,9.068 -3.305,9.056 -3.248,9.055 -3.19,9.048 l 0.599,0.007 0.056,-0.596 C -2.484,7.929 -2.523,7.256 -2.568,6.478 -2.66,4.881 -2.787,2.694 -1.954,1.789 -1.836,1.662 -1.7,1.562 -1.542,1.486 c -0.122,1.66 0.374,2.69 1.15,4.058 0.521,0.919 0.787,2.083 1.043,3.209 0.29,1.274 0.589,2.589 1.268,3.659 L 1.88,12.731 2.426,12.882 C 2.822,12.991 3.258,12.663 3.37,12.4 l 0.052,-0.234 c 10e-4,-0.005 10e-4,-0.01 10e-4,-0.014 0.389,0.136 0.651,0.381 0.818,0.601 0.427,0.56 0.545,1.344 0.315,2.094 l 1.243,0.381 C 6.151,14.078 5.956,12.858 5.275,11.965 4.654,11.149 3.756,10.713 2.668,10.749 L 2.545,10.752 C 2.282,10.06 2.104,9.276 1.918,8.465 1.641,7.247 1.355,5.988 0.739,4.903 -0.071,3.475 -0.478,2.643 -0.142,0.786 Z"
           style="fill:#0c0a08;fill-opacity:1;fill-rule:nonzero;stroke:none"
           id="path8784" />
      </g>
      <g
         id="g8786"
         transform="translate(215.6197,167.8143)">
        <path
           d="m 0,0 c 0.377,-1.16 -0.258,-2.406 -1.418,-2.783 -1.16,-0.377 -2.406,0.259 -2.783,1.419 l -4.837,14.892 c -0.376,1.16 0.259,2.407 1.419,2.784 1.16,0.376 2.406,-0.259 2.783,-1.419 z"
           style="fill:#b2432f;fill-opacity:1;fill-rule:nonzero;stroke:none"
           id="path8788" />
      </g>
      <g
         id="g8790"
         transform="translate(208.6832,183.5848)">
        <path
           d="m 0,0 c -0.163,0 -0.325,-0.026 -0.482,-0.077 -0.817,-0.266 -1.266,-1.147 -1.001,-1.965 l 4.837,-14.892 c 0.26,-0.8 1.153,-1.262 1.964,-1.002 0.817,0.266 1.266,1.147 1,1.964 L 1.482,-1.079 C 1.272,-0.434 0.677,0 0,0 m 4.836,-19.312 c -1.242,0 -2.335,0.794 -2.719,1.976 l -4.836,14.893 c -0.487,1.5 0.337,3.115 1.836,3.602 C -0.597,1.252 -0.299,1.3 0,1.3 1.242,1.3 2.334,0.505 2.718,-0.678 l 4.837,-14.891 c 0.487,-1.499 -0.337,-3.116 -1.835,-3.603 -0.287,-0.093 -0.585,-0.14 -0.884,-0.14"
           style="fill:#0c0a08;fill-opacity:1;fill-rule:nonzero;stroke:none"
           id="path8792" />
      </g>
      <g
         id="g8794"
         transform="translate(205.3307,180.8651)">
        <path
           d="m 0,0 -16.012,47.994 1.594,8.538 L -8.58,50.688 7.256,2.356 Z"
           style="fill:#c9c8c9;fill-opacity:1;fill-rule:nonzero;stroke:none"
           id="path8796" />
      </g>
      <g
         id="g8798"
         transform="translate(189.9884,228.9051)">
        <path
           d="m 0,0 15.755,-47.223 6.022,1.956 L 6.193,2.299 1.336,7.159 Z M 14.93,-48.857 -1.34,-0.092 0.511,9.825 7.332,2.998 23.419,-46.101 Z"
           style="fill:#0c0a08;fill-opacity:1;fill-rule:nonzero;stroke:none"
           id="path8800" />
      </g>
      <g
         id="g8802"
         transform="translate(216.8463,183.9725)">
        <path
           d="m 0,0 c 0.217,-0.668 -0.149,-1.386 -0.817,-1.603 l -13.494,-4.381 c -0.668,-0.217 -1.385,0.148 -1.602,0.816 -0.216,0.668 0.149,1.386 0.817,1.603 L -1.602,0.816 C -0.935,1.033 -0.217,0.668 0,0"
           style="fill:#b2432f;fill-opacity:1;fill-rule:nonzero;stroke:none"
           id="path8804" />
      </g>
      <g
         id="g8806"
         transform="translate(215.6373,184.201)">
        <path
           d="m 0,0 c -0.065,0 -0.129,-0.01 -0.192,-0.03 l -13.495,-4.382 c -0.325,-0.106 -0.504,-0.457 -0.398,-0.784 0.103,-0.319 0.46,-0.506 0.783,-0.399 l 13.493,4.382 c 0.158,0.052 0.287,0.161 0.362,0.309 0.076,0.148 0.089,0.317 0.038,0.475 C 0.507,-0.172 0.27,0 0,0 m -13.495,-6.926 c -0.835,0 -1.569,0.534 -1.827,1.329 -0.327,1.008 0.226,2.094 1.234,2.421 L -0.594,1.206 C 0.396,1.528 1.507,0.958 1.827,-0.028 1.986,-0.516 1.944,-1.037 1.711,-1.494 1.478,-1.951 1.081,-2.291 0.593,-2.449 l -13.494,-4.382 c -0.193,-0.063 -0.392,-0.095 -0.594,-0.095"
           style="fill:#0c0a08;fill-opacity:1;fill-rule:nonzero;stroke:none"
           id="path8808" />
      </g>
      <g
         id="g8810"
         transform="translate(235.4957,185.826)">
        <path
           d="m 0,0 c -0.388,0.394 -1.022,0.396 -1.414,0.008 -6.002,-5.939 -11.444,-10.112 -16.047,-12.347 -0.196,0.301 -0.417,0.587 -0.684,0.836 -0.732,0.684 -2.809,2.085 -6.24,0.343 -0.492,-0.25 -0.689,-0.852 -0.439,-1.345 0.25,-0.491 0.851,-0.687 1.345,-0.438 1.648,0.838 3.058,0.829 3.97,-0.023 0.066,-0.061 0.123,-0.13 0.181,-0.198 -1.113,-0.432 -2.17,-0.738 -3.163,-0.909 -0.545,-0.094 -0.909,-0.612 -0.816,-1.156 0.084,-0.486 0.507,-0.83 0.985,-0.83 0.056,0 0.113,0.005 0.171,0.015 1.093,0.189 2.24,0.513 3.437,0.967 -0.021,-0.236 -0.074,-0.469 -0.165,-0.687 -0.395,-0.933 -1.381,-1.417 -2.796,-1.34 -0.557,0.031 -1.02,-0.398 -1.048,-0.95 -0.027,-0.55 0.398,-1.02 0.95,-1.048 0.123,-0.005 0.244,-0.008 0.364,-0.008 2.094,0 3.677,0.923 4.371,2.568 0.309,0.731 0.388,1.533 0.28,2.312 4.851,2.307 10.456,6.588 16.75,12.816 C 0.385,-1.025 0.389,-0.393 0,0"
           style="fill:#946955;fill-opacity:1;fill-rule:nonzero;stroke:none"
           id="path8812" />
      </g>
      <g
         id="g8814"
         transform="translate(213.7921,168.2235)">
        <path
           d="M 0,0 C -0.291,0 -0.507,-0.209 -0.52,-0.477 -0.534,-0.751 -0.32,-0.986 -0.045,-1 1.999,-1.083 3.552,-0.29 4.206,1.255 4.466,1.871 4.55,2.579 4.451,3.304 L 4.4,3.666 4.731,3.823 c 4.802,2.285 10.392,6.565 16.613,12.721 0.095,0.094 0.148,0.22 0.149,0.352 0.001,0.134 -0.051,0.26 -0.145,0.355 -0.189,0.19 -0.517,0.192 -0.707,0.004 C 14.605,11.282 9.161,7.097 4.461,4.813 L 4.064,4.621 3.824,4.991 C 3.625,5.296 3.427,5.539 3.218,5.734 2.798,6.125 1.881,6.782 0.455,6.782 -0.449,6.782 -1.428,6.518 -2.455,5.996 -2.701,5.872 -2.799,5.57 -2.674,5.324 -2.553,5.087 -2.245,4.982 -2.001,5.105 -0.176,6.033 1.479,5.989 2.536,5.002 2.612,4.931 2.679,4.854 2.745,4.775 L 3.2,4.239 2.556,3.973 C 1.402,3.525 0.306,3.21 -0.703,3.036 -0.834,3.014 -0.949,2.941 -1.026,2.832 -1.103,2.723 -1.133,2.591 -1.11,2.459 -1.069,2.219 -0.862,2.044 -0.619,2.044 0.517,2.232 1.642,2.549 2.813,2.993 L 3.559,3.275 3.488,2.481 C 3.461,2.183 3.393,1.901 3.285,1.645 2.803,0.504 1.643,-0.086 0.001,0 Z m 0.294,-2.008 c -0.127,0 -0.256,0.003 -0.388,0.01 -0.826,0.041 -1.465,0.745 -1.425,1.571 0.04,0.801 0.696,1.428 1.492,1.428 0.172,-0.008 0.258,-0.01 0.343,-0.01 0.63,0 1.42,0.133 1.861,0.717 -0.878,-0.287 -1.729,-0.502 -2.54,-0.643 -0.853,-0.144 -1.594,0.42 -1.733,1.224 -0.068,0.395 0.022,0.792 0.253,1.12 0.231,0.327 0.575,0.545 0.97,0.613 0.7,0.121 1.448,0.315 2.233,0.58 C 0.622,4.935 -0.396,4.8 -1.549,4.214 -2.272,3.849 -3.203,4.157 -3.566,4.871 c -0.374,0.738 -0.079,1.643 0.659,2.018 1.168,0.592 2.299,0.893 3.362,0.893 1.77,0 2.918,-0.825 3.445,-1.317 0.176,-0.163 0.343,-0.35 0.505,-0.564 4.514,2.275 9.738,6.331 15.533,12.065 0.568,0.562 1.56,0.559 2.122,-0.013 0.281,-0.283 0.435,-0.661 0.433,-1.061 -0.002,-0.401 -0.16,-0.777 -0.446,-1.059 C 15.881,9.732 10.309,5.441 5.479,3.074 5.532,2.299 5.412,1.542 5.126,0.866 4.355,-0.96 2.594,-2.008 0.294,-2.008"
           style="fill:#0c0a08;fill-opacity:1;fill-rule:nonzero;stroke:none"
           id="path8816" />
      </g>
      <g
         id="g8818"
         transform="translate(226.2604,171.0604)">
        <path
           d="m 0,0 c -1.219,-2.131 -3.772,-4.602 -5.831,-6.002 0.926,-1.29 0.821,-3.276 1.723,-4.581 1.435,3.704 5.579,6.075 6.601,9.817 -0.854,0.13 -1.682,0.301 -2.409,0.683"
           style="fill:#52423b;fill-opacity:1;fill-rule:nonzero;stroke:none"
           id="path8820" />
      </g>
      <g
         id="g8822"
         transform="translate(221.2945,164.8749)">
        <path
           d="M 0,0 C 0.311,-0.622 0.479,-1.308 0.644,-1.975 0.719,-2.28 0.792,-2.579 0.877,-2.863 1.621,-1.568 2.626,-0.431 3.606,0.679 4.83,2.063 5.994,3.381 6.603,4.908 6.13,5.004 5.654,5.13 5.196,5.317 3.889,3.307 1.735,1.273 0,0 m 1.021,-5.776 -0.699,1.009 c -0.512,0.743 -0.73,1.626 -0.941,2.481 -0.194,0.792 -0.379,1.54 -0.775,2.091 l -0.388,0.541 0.551,0.375 c 1.889,1.285 4.43,3.685 5.632,5.787 L 5.063,6.13 5.353,6.678 C 6.012,6.331 6.802,6.178 7.557,6.062 L 8.278,5.953 8.086,5.249 C 7.507,3.13 6.02,1.446 4.581,-0.182 3.361,-1.562 2.101,-2.989 1.464,-4.633 Z"
           style="fill:#0c0a08;fill-opacity:1;fill-rule:nonzero;stroke:none"
           id="path8824" />
      </g>
      <g
         id="g8826"
         transform="translate(228.9049,169.8934)">
        <path
           d="m 0,0 c -0.154,-3.907 -1.387,-7.771 -2.07,-11.58 2.33,-0.763 8.472,-1.79 10.608,1.071 0,0 -1.245,6.064 -1.438,7.681 C 6.947,-1.552 6.666,-0.276 6.493,0.988 4.291,0.533 2.18,0.247 -0.167,0.25"
           style="fill:#52423b;fill-opacity:1;fill-rule:nonzero;stroke:none"
           id="path8828" />
      </g>
      <g
         id="g8830"
         transform="translate(227.5807,158.7684)">
        <path
           d="M 0,0 C 2.494,-0.682 7.312,-1.236 9.163,0.79 8.906,2.054 7.95,6.785 7.778,8.22 7.696,8.907 7.576,9.595 7.456,10.28 7.395,10.635 7.332,10.989 7.275,11.343 5.345,10.973 3.654,10.779 1.956,10.734 1.813,8.182 1.24,5.646 0.686,3.192 0.449,2.143 0.205,1.062 0,0 m 4.59,-1.92 c -2.251,0 -4.461,0.494 -5.538,0.847 l -0.537,0.177 0.099,0.556 c 0.229,1.272 0.521,2.567 0.804,3.819 0.568,2.514 1.155,5.114 1.257,7.671 l 0.482,-0.018 10e-4,0.893 c 2.084,0.022 4.09,0.221 6.528,0.725 l 0.681,0.141 0.094,-0.69 C 8.538,11.638 8.638,11.071 8.736,10.504 8.86,9.796 8.984,9.085 9.069,8.374 9.257,6.802 10.486,0.808 10.499,0.747 L 10.558,0.461 10.383,0.228 C 9.153,-1.42 6.852,-1.92 4.59,-1.92"
           style="fill:#0c0a08;fill-opacity:1;fill-rule:nonzero;stroke:none"
           id="path8832" />
      </g>
      <g
         id="g8834"
         transform="translate(237.6041,171.3114)">
        <path
           d="m 0,0 c 0.91,-2.688 3.979,-6.165 6.111,-7.916 1.313,1.159 3.015,3.295 3.493,4.915 C 7.003,-1.252 5.518,-0.034 4.509,2.85 3.372,1.523 1.429,0.068 -0.334,-0.167"
           style="fill:#52423b;fill-opacity:1;fill-rule:nonzero;stroke:none"
           id="path8836" />
      </g>
      <g
         id="g8838"
         transform="translate(238.5123,170.7938)">
        <path
           d="m 0,0 c 0.992,-2.154 3.229,-4.815 5.183,-6.528 1.065,1.044 2.222,2.559 2.732,3.789 C 5.889,-1.355 4.403,-0.129 3.37,2.185 2.433,1.291 1.224,0.447 0,0 M 5.219,-8.252 4.791,-7.9 c -2.374,1.949 -5.394,5.489 -6.314,8.209 l 0.274,0.093 -0.079,0.593 C 0.254,1.206 2.08,2.592 3.107,3.79 L 3.842,4.647 4.214,3.582 C 5.149,0.908 6.471,-0.204 9.059,-1.944 L 9.455,-2.21 9.319,-2.668 C 8.811,-4.392 7.04,-6.644 5.634,-7.886 Z"
           style="fill:#0c0a08;fill-opacity:1;fill-rule:nonzero;stroke:none"
           id="path8840" />
      </g>
      <g
         id="g8842"
         transform="translate(226.4156,171.0253)">
        <path
           d="m 0,0 c 4.155,-2.298 13.554,-1.01 15.753,2.319 0,0 -0.271,1.032 -0.704,2.514 C 11.99,1.466 3.256,0.226 -0.483,3.081 -0.507,2.163 -0.445,1.23 -0.333,0.334"
           style="fill:#967e72;fill-opacity:1;fill-rule:nonzero;stroke:none"
           id="path8844" />
      </g>
      <g
         id="g8846"
         transform="translate(226.7076,171.6063)">
        <path
           d="M 0,0 C 0.008,-0.004 0.015,-0.008 0.022,-0.013 3.805,-2.104 12.492,-0.942 14.753,1.87 14.684,2.128 14.57,2.54 14.423,3.063 11.063,0.425 3.982,-0.719 -0.111,1.328 -0.091,0.898 -0.054,0.455 0,0 m 5.336,-2.385 c -2.259,0 -4.407,0.386 -5.942,1.236 -0.13,0.071 -0.226,0.181 -0.282,0.307 -0.201,0.089 -0.352,0.28 -0.382,0.514 -0.126,1.003 -0.178,1.96 -0.155,2.845 l 0.032,1.272 1.012,-0.772 C 2.953,0.469 11.31,1.423 14.275,4.689 l 0.781,0.858 0.325,-1.112 C 15.817,2.941 16.09,1.903 16.09,1.903 L 16.163,1.622 16.003,1.38 C 14.468,-0.944 9.698,-2.385 5.336,-2.385"
           style="fill:#0c0a08;fill-opacity:1;fill-rule:nonzero;stroke:none"
           id="path8848" />
      </g>
      <g
         id="g8850"
         transform="translate(234.2223,185.2645)">
        <path
           d="m 0,0 c -1.451,-1.101 -4.286,-3.149 -5.625,-4.342 1.631,-0.387 3.249,-1.676 3.685,-3.344 -0.013,-0.005 0.252,-0.037 0.228,-0.005 2.109,1.653 3.897,3.187 5.51,5.247"
           style="fill:#989696;fill-opacity:1;fill-rule:nonzero;stroke:none"
           id="path8852" />
      </g>
      <g
         id="g8854"
         transform="translate(232.4352,176.9061)">
        <path
           d="m 0,0 c -0.124,0 -0.235,0.021 -0.308,0.04 l -0.445,0.112 -0.042,0.405 c -0.366,1.307 -1.671,2.466 -3.193,2.827 l -1.214,0.288 0.931,0.83 c 1.037,0.923 2.91,2.317 4.415,3.437 C 0.614,8.29 1.045,8.611 1.395,8.876 1.678,9.094 2.087,9.038 2.305,8.751 2.521,8.465 2.466,8.058 2.18,7.841 1.827,7.573 1.394,7.25 0.92,6.897 -0.205,6.06 -1.539,5.066 -2.552,4.249 -1.34,3.678 -0.331,2.707 0.198,1.593 2.144,3.143 3.669,4.521 5.073,6.314 5.294,6.599 5.705,6.646 5.985,6.426 6.269,6.204 6.318,5.796 6.097,5.514 4.503,3.479 2.786,1.969 0.542,0.207 0.386,0.045 0.18,0 0,0"
           style="fill:#0c0a08;fill-opacity:1;fill-rule:nonzero;stroke:none"
           id="path8856" />
      </g>
      <g
         id="g8858"
         transform="translate(232.3922,184.9803)">
        <path
           d="m 0,0 c 1.323,2.19 5.15,8.035 8.221,5.158 2.877,-2.695 -1.08,-6.771 -2.529,-9.017 -1.213,2.225 -3.588,2.87 -5.701,3.61"
           style="fill:#989696;fill-opacity:1;fill-rule:nonzero;stroke:none"
           id="path8860" />
      </g>
      <g
         id="g8862"
         transform="translate(233.2428,185.1229)">
        <path
           d="m 0,0 c 1.707,-0.586 3.59,-1.254 4.853,-2.845 0.114,0.159 0.234,0.324 0.358,0.492 C 7.229,0.406 8.753,2.83 6.926,4.541 6.416,5.018 5.882,5.211 5.286,5.127 3.816,4.924 1.949,3.109 0,0 m 4.795,-5.274 -0.524,0.961 c -0.988,1.812 -2.921,2.475 -4.792,3.117 l -0.553,0.191 c -0.317,0.11 -0.493,0.442 -0.418,0.761 -0.024,0.145 0.003,0.301 0.085,0.437 C 0.92,4.046 3.112,6.14 5.108,6.415 6.103,6.546 7.013,6.24 7.814,5.49 10.631,2.852 8,-0.742 6.26,-3.12 5.93,-3.572 5.624,-3.988 5.388,-4.354 Z"
           style="fill:#0c0a08;fill-opacity:1;fill-rule:nonzero;stroke:none"
           id="path8864" />
      </g>
      <g
         id="g8866"
         transform="translate(221.2447,208.4755)">
        <path
           d="M 0,0 C -0.131,0 -0.262,0.039 -0.375,0.119 -3.2,2.116 -5.203,3.12 -8.616,4.252 c -0.341,0.113 -0.526,0.481 -0.413,0.821 0.113,0.341 0.482,0.526 0.822,0.413 3.361,-1.114 5.408,-2.111 8.112,-3.977 0.748,0.818 1.49,1.64 2.23,2.462 1.85,2.053 3.763,4.176 5.746,6.178 0.252,0.257 0.665,0.256 0.919,0.005 C 9.056,9.901 9.058,9.49 8.805,9.235 6.844,7.254 4.94,5.143 3.101,3.101 2.23,2.136 1.36,1.169 0.479,0.211 0.352,0.072 0.176,0 0,0"
           style="fill:#0c0a08;fill-opacity:1;fill-rule:nonzero;stroke:none"
           id="path8868" />
      </g>
      <g
         id="g8870"
         transform="translate(208.2814,183.0243)">
        <path
           d="M 0,0 -17.607,54.296 -17.131,54.45 0.476,0.154 Z"
           style="fill:#0c0a08;fill-opacity:1;fill-rule:nonzero;stroke:none"
           id="path8872" />
      </g>
      <g
         id="g8874"
         transform="translate(218.7731,147.8866)">
        <path
           d="M 0,0 C 0.651,1.696 0.61,3.896 0.835,5.684 2.444,5.758 4.008,5.41 5.581,5.284 5.609,1.716 6.032,-1.832 6.09,-5.377 0.105,-6.012 -6.207,-6.512 -11.383,-4.767 -9.373,1.004 -5.722,1.532 0,0"
           style="fill:#989696;fill-opacity:1;fill-rule:nonzero;stroke:none"
           id="path8876" />
      </g>
      <g
         id="g8878"
         transform="translate(208.2369,143.534)">
        <path
           d="m 0,0 c 2.187,-0.647 4.746,-0.962 7.795,-0.962 2.783,0 5.643,0.259 8.168,0.522 C 15.922,1.053 15.822,2.568 15.727,4.039 15.619,5.676 15.508,7.363 15.476,9.045 15.123,9.083 14.771,9.128 14.419,9.174 13.572,9.282 12.77,9.386 11.955,9.396 11.922,9.056 11.895,8.706 11.867,8.351 11.755,6.906 11.64,5.413 11.143,4.119 L 10.933,3.573 10.368,3.725 C 8.572,4.205 7.115,4.439 5.913,4.439 3.029,4.439 1.233,3.104 0,0 m 7.795,-2.262 c -3.496,0 -6.391,0.403 -8.85,1.232 l -0.622,0.21 0.216,0.62 c 1.412,4.052 3.754,5.939 7.374,5.939 1.195,0 2.541,-0.193 4.197,-0.605 0.282,1.009 0.373,2.178 0.461,3.317 0.045,0.575 0.089,1.139 0.155,1.666 l 0.068,0.543 0.547,0.026 c 1.111,0.053 2.198,-0.087 3.243,-0.223 0.529,-0.067 1.057,-0.136 1.585,-0.179 l 0.594,-0.047 0.005,-0.595 c 0.014,-1.838 0.136,-3.708 0.255,-5.518 0.111,-1.682 0.225,-3.421 0.253,-5.138 l 0.009,-0.594 -0.591,-0.063 C 13.997,-1.957 10.862,-2.262 7.795,-2.262"
           style="fill:#0c0a08;fill-opacity:1;fill-rule:nonzero;stroke:none"
           id="path8880" />
      </g>
      <g
         id="g8882"
         transform="translate(213.7618,176.0868)">
        <path
           d="m 0,0 c -0.446,0.324 -1.072,0.225 -1.396,-0.222 -0.95,-1.307 -2.003,-1.87 -2.956,-1.58 -0.271,0.082 -0.505,0.246 -0.717,0.441 0.165,0.121 0.33,0.243 0.49,0.365 0.573,0.433 1.114,0.842 1.661,1.125 0.49,0.255 0.681,0.858 0.426,1.349 -0.255,0.49 -0.858,0.679 -1.348,0.426 -0.68,-0.352 -1.3,-0.819 -1.9,-1.272 0.175,0.806 0.854,1.479 1.977,1.925 0.514,0.203 0.765,0.784 0.562,1.297 C -3.404,4.368 -3.988,4.62 -4.499,4.416 -6.638,3.568 -7.868,1.935 -7.788,0.044 -7.765,-0.5 -7.623,-1.02 -7.402,-1.5 c 0.021,-0.054 0.028,-0.11 0.06,-0.161 0.008,-0.014 0.02,-0.024 0.029,-0.036 0.499,-0.954 1.349,-1.707 2.383,-2.02 0.253,-0.075 0.623,-0.154 1.073,-0.154 1.076,0 2.611,0.451 4.079,2.474 C 0.546,-0.95 0.447,-0.325 0,0"
           style="fill:#946955;fill-opacity:1;fill-rule:nonzero;stroke:none"
           id="path8884" />
      </g>
      <g
         id="g8886"
         transform="translate(209.6305,180.0741)">
        <path
           d="m 0,0 c -0.062,0 -0.124,-0.013 -0.182,-0.036 -1.934,-0.766 -3.046,-2.219 -2.975,-3.886 0.019,-0.448 0.134,-0.905 0.341,-1.357 l 0.045,-0.127 c 0.483,-0.909 1.244,-1.555 2.117,-1.82 0.673,-0.201 2.657,-0.544 4.602,2.135 0.162,0.223 0.113,0.537 -0.111,0.699 -0.216,0.16 -0.54,0.104 -0.698,-0.111 -1.079,-1.485 -2.346,-2.115 -3.505,-1.765 -0.311,0.095 -0.609,0.275 -0.909,0.551 l -0.449,0.411 0.491,0.361 c 0.162,0.119 0.325,0.239 0.483,0.359 0.596,0.451 1.151,0.87 1.733,1.172 0.244,0.127 0.34,0.43 0.213,0.674 -0.123,0.236 -0.431,0.337 -0.676,0.213 -0.645,-0.335 -1.246,-0.788 -1.827,-1.228 l -1.074,-0.81 0.284,1.315 c 0.149,0.688 0.665,1.644 2.282,2.284 0.124,0.049 0.222,0.144 0.274,0.267 0.054,0.122 0.056,0.258 0.006,0.382 C 0.391,-0.128 0.203,0 0,0 m 0.274,-8.358 c -0.416,0 -0.825,0.058 -1.215,0.174 -1.113,0.337 -2.077,1.142 -2.655,2.214 l -0.042,0.062 c -0.053,0.085 -0.078,0.17 -0.093,0.22 -0.256,0.563 -0.401,1.145 -0.425,1.723 -0.089,2.112 1.258,3.929 3.604,4.859 0.75,0.298 1.65,-0.09 1.947,-0.843 C 1.542,-0.321 1.537,-0.729 1.377,-1.097 1.31,-1.252 1.219,-1.393 1.108,-1.514 1.523,-1.614 1.88,-1.889 2.083,-2.278 2.464,-3.014 2.177,-3.921 1.443,-4.302 0.961,-4.552 0.465,-4.921 -0.058,-5.315 0.677,-5.529 1.533,-5.014 2.33,-3.915 2.8,-3.27 3.781,-3.113 4.425,-3.583 5.094,-4.069 5.243,-5.01 4.758,-5.679 3.15,-7.894 1.432,-8.358 0.274,-8.358"
           style="fill:#0c0a08;fill-opacity:1;fill-rule:nonzero;stroke:none"
           id="path8888" />
      </g>
    </g>
    <g
       id="g8892"
       clip-path="url(#clipPath8896)"
       transform="matrix(0.35277777,0,0,-0.35277777,21.872575,158.82553)">
      <g
         id="g8898"
         transform="translate(242.8121,150.9755)">
        <path
           d="m 0,0 c -0.163,0 -0.328,0.04 -0.481,0.124 -2.489,1.368 -6.658,4.857 -7.254,8.393 -0.405,2.4 0.587,4.427 1.546,6.387 0.457,0.934 0.888,1.816 1.15,2.701 0.157,0.531 0.712,0.834 1.242,0.676 0.53,-0.156 0.832,-0.713 0.676,-1.242 C -3.431,15.992 -3.92,14.992 -4.393,14.025 -5.25,12.271 -6.061,10.615 -5.763,8.849 -5.334,6.306 -1.86,3.165 0.483,1.876 0.967,1.61 1.144,1.002 0.877,0.518 0.695,0.187 0.353,0 0,0"
           style="fill:#946955;fill-opacity:1;fill-rule:nonzero;stroke:none"
           id="path8900" />
      </g>
      <g
         id="g8902"
         transform="translate(238.7301,168.7987)">
        <path
           d="m 0,0 c -0.219,0 -0.415,-0.148 -0.478,-0.36 -0.273,-0.926 -0.713,-1.826 -1.18,-2.779 -0.924,-1.888 -1.88,-3.841 -1.502,-6.085 0.567,-3.362 4.596,-6.714 7.002,-8.037 0.24,-0.132 0.553,-0.037 0.679,0.196 0.065,0.118 0.08,0.253 0.042,0.381 -0.037,0.128 -0.122,0.235 -0.239,0.298 -2.339,1.287 -6.022,4.506 -6.498,7.328 -0.324,1.924 0.52,3.649 1.412,5.476 0.468,0.956 0.947,1.935 1.243,2.939 0.039,0.128 0.024,0.264 -0.04,0.381 C 0.378,-0.145 0.271,-0.06 0.144,-0.021 0.096,-0.007 0.048,0 0,0 m 4.082,-18.323 c -0.251,0 -0.5,0.064 -0.722,0.185 -2.57,1.413 -6.881,5.037 -7.506,8.748 -0.431,2.56 0.596,4.661 1.589,6.691 0.448,0.914 0.87,1.777 1.12,2.623 0.229,0.773 1.086,1.241 1.865,1.013 0.384,-0.113 0.7,-0.37 0.891,-0.721 0.192,-0.353 0.235,-0.758 0.121,-1.142 -0.321,-1.085 -0.818,-2.102 -1.298,-3.087 -0.826,-1.686 -1.601,-3.271 -1.329,-4.879 0.397,-2.356 3.795,-5.409 5.994,-6.617 0.35,-0.193 0.605,-0.512 0.716,-0.896 0.113,-0.385 0.067,-0.79 -0.126,-1.142 -0.262,-0.478 -0.767,-0.776 -1.315,-0.776"
           style="fill:#0c0a08;fill-opacity:1;fill-rule:nonzero;stroke:none"
           id="path8904" />
      </g>
    </g>
    <g
       id="g8914"
       transform="matrix(0.35277777,0,0,-0.35277777,107.34216,103.65857)">
      <path
         d="m 0,0 c 1.944,-2.142 4.861,-3.806 7.517,-4.833 -0.986,-3.662 -0.692,-8.97 -4.487,-10.476 -2.426,-0.962 -5.684,-0.71 -8.286,-0.683 -0.438,3.657 0.845,6.789 5.235,6.551 0.375,0.719 0.754,1.822 0.842,2.638 -1.311,0.838 -2.663,2.032 -3.821,3.12 1.014,0.819 2.1,2.787 3,3.683"
         style="fill:#989696;fill-opacity:1;fill-rule:nonzero;stroke:none"
         id="path8916" />
    </g>
    <g
       id="g8918"
       transform="matrix(0.35277777,0,0,-0.35277777,105.69677,109.07427)">
      <path
         d="m 0,0 c 0.209,-0.004 0.421,-0.009 0.636,-0.013 0.587,-0.013 1.193,-0.027 1.805,-0.027 1.528,0 3.479,0.078 5.014,0.687 2.514,0.998 3.019,4.069 3.507,7.039 0.134,0.816 0.271,1.655 0.451,2.439 -2.661,1.1 -5.054,2.619 -6.727,4.267 C 4.445,14.091 4.19,13.735 3.926,13.368 3.498,12.773 3.06,12.164 2.61,11.676 3.521,10.841 4.698,9.823 5.835,9.097 L 6.175,8.88 6.132,8.479 C 6.027,7.511 5.586,6.313 5.219,5.609 L 5.025,5.238 4.607,5.261 C 3.002,5.346 1.795,4.951 1.025,4.084 0.053,2.987 -0.093,1.349 0,0 m 2.441,-1.34 c -0.622,0 -1.238,0.014 -1.835,0.028 -0.413,0.008 -0.816,0.017 -1.205,0.021 l -0.57,0.006 -0.068,0.567 c -0.291,2.426 0.155,4.385 1.291,5.664 0.957,1.079 2.346,1.627 4.128,1.627 0.019,0 0.038,0 0.057,-0.001 0.218,0.492 0.431,1.113 0.54,1.664 -1.334,0.909 -2.655,2.108 -3.56,2.959 l -0.543,0.511 0.58,0.469 c 0.502,0.405 1.068,1.192 1.615,1.952 0.464,0.646 0.903,1.256 1.335,1.686 l 0.482,0.479 0.458,-0.504 c 1.646,-1.812 4.295,-3.513 7.269,-4.663 L 12.96,10.914 12.809,10.35 C 12.573,9.475 12.413,8.504 12.244,7.476 11.723,4.303 11.132,0.708 7.934,-0.562 6.194,-1.251 4.085,-1.34 2.441,-1.34"
         style="fill:#0c0a08;fill-opacity:1;fill-rule:nonzero;stroke:none"
         id="path8920" />
    </g>
  </g>
</svg>

