solid JSxCAD
facet normal -1 0 0
  outer loop
    vertex -15 -15 0
    vertex -15 -15 2.5
    vertex -15 15 2.5
  endloop
endfacet
facet normal 0 0 -1
  outer loop
    vertex -15 -15 0
    vertex -15 15 0
    vertex 15 -15 0
  endloop
endfacet
facet normal -1 0 0
  outer loop
    vertex -15 -15 0
    vertex -15 15 2.5
    vertex -15 15 0
  endloop
endfacet
facet normal 0 -1 0
  outer loop
    vertex -15 -15 0
    vertex 15 -15 0
    vertex -15 -15 2.5
  endloop
endfacet
facet normal 0 0 1
  outer loop
    vertex -15 -15 2.5
    vertex -10.5 0 2.5
    vertex -15 15 2.5
  endloop
endfacet
facet normal 0 0 1
  outer loop
    vertex -15 -15 2.5
    vertex -7.4190000000000005 -7.43 2.5
    vertex -10.5 0 2.5
  endloop
endfacet
facet normal 0 0 1
  outer loop
    vertex -15 -15 2.5
    vertex 0 -10.5 2.5
    vertex -7.4190000000000005 -7.43 2.5
  endloop
endfacet
facet normal 0 -1 0
  outer loop
    vertex -15 -15 2.5
    vertex 15 -15 0
    vertex 15 -15 2.5
  endloop
endfacet
facet normal 0 0 1
  outer loop
    vertex -15 -15 2.5
    vertex 15 -15 2.5
    vertex 0 -10.5 2.5
  endloop
endfacet
facet normal 0 1 0
  outer loop
    vertex -15 15 0
    vertex -15 15 2.5
    vertex 15 15 2.5
  endloop
endfacet
facet normal 0 0 -1
  outer loop
    vertex -15 15 0
    vertex 15 15 0
    vertex 15 -15 0
  endloop
endfacet
facet normal 0 1 0
  outer loop
    vertex -15 15 0
    vertex 15 15 2.5
    vertex 15 15 0
  endloop
endfacet
facet normal 0 0 1
  outer loop
    vertex -15 15 2.5
    vertex -10.5 0 2.5
    vertex -7.43 7.4190000000000005 2.5
  endloop
endfacet
facet normal 4.460406376397366e-17 0 1
  outer loop
    vertex -15 15 2.5
    vertex -7.43 7.4190000000000005 2.5
    vertex 0 10.5 2.5
  endloop
endfacet
facet normal 0 0 1
  outer loop
    vertex -15 15 2.5
    vertex 0 10.5 2.5
    vertex 15 15 2.5
  endloop
endfacet
facet normal 0.9087850252573033 -0.3760574238495663 0.18080539769517454
  outer loop
    vertex -10.5 0 2.5
    vertex -10.462 0 2.309
    vertex -7.43 7.4190000000000005 2.5
  endloop
endfacet
facet normal 0.9091372567200698 0.3769921787287391 0.17704899214868217
  outer loop
    vertex -10.5 0 2.5
    vertex -7.4190000000000005 -7.43 2.5
    vertex -7.393 -7.4030000000000005 2.309
  endloop
endfacet
facet normal 0.9085490866903991 0.37664962137685176 0.18075845703788182
  outer loop
    vertex -10.5 0 2.5
    vertex -7.393 -7.4030000000000005 2.309
    vertex -10.462 0 2.309
  endloop
endfacet
facet normal 0.7867312006931299 -0.32552559758153493 0.5244874671287493
  outer loop
    vertex -10.462 0 2.309
    vertex -10.354000000000001 0 2.1470000000000002
    vertex -7.4030000000000005 7.393 2.309
  endloop
endfacet
facet normal 0.9089838043782186 -0.37611003078492755 0.17969331685140968
  outer loop
    vertex -10.462 0 2.309
    vertex -7.4030000000000005 7.393 2.309
    vertex -7.43 7.4190000000000005 2.5
  endloop
endfacet
facet normal 0.7855564107736634 0.32566157296560494 0.5261612541664079
  outer loop
    vertex -10.462 0 2.309
    vertex -7.393 -7.4030000000000005 2.309
    vertex -7.316 -7.327 2.1470000000000002
  endloop
endfacet
facet normal 0.786557593899753 0.3261310181885428 0.5243717292664964
  outer loop
    vertex -10.462 0 2.309
    vertex -7.316 -7.327 2.1470000000000002
    vertex -10.354000000000001 0 2.1470000000000002
  endloop
endfacet
facet normal 0.5417330164884991 -0.22414240581064568 0.8101145108956432
  outer loop
    vertex -10.354000000000001 0 2.1470000000000002
    vertex -10.191 0 2.0380000000000003
    vertex -7.327 7.316 2.1470000000000002
  endloop
endfacet
facet normal 0.7870179637737708 -0.3256292203858939 0.5239926865217325
  outer loop
    vertex -10.354000000000001 0 2.1470000000000002
    vertex -7.327 7.316 2.1470000000000002
    vertex -7.4030000000000005 7.393 2.309
  endloop
endfacet
facet normal 0.5414632427336645 0.22450734699397765 0.8101938088593805
  outer loop
    vertex -10.354000000000001 0 2.1470000000000002
    vertex -7.316 -7.327 2.1470000000000002
    vertex -7.2010000000000005 -7.211 2.0380000000000003
  endloop
endfacet
facet normal 0.5416741808265126 0.22460210798381278 0.8100265272910229
  outer loop
    vertex -10.354000000000001 0 2.1470000000000002
    vertex -7.2010000000000005 -7.211 2.0380000000000003
    vertex -10.191 0 2.0380000000000003
  endloop
endfacet
facet normal 0.19449545848313646 -0.08048833027076065 0.9775955939547085
  outer loop
    vertex -10.191 0 2.0380000000000003
    vertex -10 0 2
    vertex -7.211 7.2010000000000005 2.0380000000000003
  endloop
endfacet
facet normal 0.5404417739771509 -0.22365178259296103 0.8111119337572473
  outer loop
    vertex -10.191 0 2.0380000000000003
    vertex -7.211 7.2010000000000005 2.0380000000000003
    vertex -7.327 7.316 2.1470000000000002
  endloop
endfacet
facet normal 0.19451538579399336 0.08065469470587137 0.9775779175653041
  outer loop
    vertex -10.191 0 2.0380000000000003
    vertex -7.2010000000000005 -7.211 2.0380000000000003
    vertex -7.066 -7.0760000000000005 2
  endloop
endfacet
facet normal 0.19449299100316658 0.08064477608865084 0.9775831916211805
  outer loop
    vertex -10.191 0 2.0380000000000003
    vertex -7.066 -7.0760000000000005 2
    vertex -10 0 2
  endloop
endfacet
facet normal 0.19462727050163808 -0.08053922147562828 0.9775651688665989
  outer loop
    vertex -10 0 2
    vertex -7.0760000000000005 7.066 2
    vertex -7.211 7.2010000000000005 2.0380000000000003
  endloop
endfacet
facet normal 0.2853297769704546 0.11830943550470792 0.9510992565681818
  outer loop
    vertex -10 0 2
    vertex -7.066 -7.0760000000000005 2
    vertex -3.533 -3.5380000000000003 0.5
  endloop
endfacet
facet normal 0.2853377485861797 -0.11807636242088726 0.951125828620599
  outer loop
    vertex -10 0 2
    vertex -5 0 0.5
    vertex -7.0760000000000005 7.066 2
  endloop
endfacet
facet normal 0.28532977697045453 0.11830943550470806 0.9510992565681818
  outer loop
    vertex -10 0 2
    vertex -3.533 -3.5380000000000003 0.5
    vertex -5 0 0.5
  endloop
endfacet
facet normal 0.3769921787287394 -0.9091372567200712 0.17704899214867564
  outer loop
    vertex -7.43 7.4190000000000005 2.5
    vertex -7.4030000000000005 7.393 2.309
    vertex 0 10.5 2.5
  endloop
endfacet
facet normal 0.3760574238495653 0.9087850252573035 0.180805397695176
  outer loop
    vertex -7.4190000000000005 -7.43 2.5
    vertex 0 -10.5 2.5
    vertex 0 -10.462 2.309
  endloop
endfacet
facet normal 0.37611003078492744 0.9089838043782215 0.17969331685139597
  outer loop
    vertex -7.4190000000000005 -7.43 2.5
    vertex 0 -10.462 2.309
    vertex -7.393 -7.4030000000000005 2.309
  endloop
endfacet
facet normal 0.3256615729656035 -0.7855564107736597 0.5261612541664145
  outer loop
    vertex -7.4030000000000005 7.393 2.309
    vertex -7.327 7.316 2.1470000000000002
    vertex 0 10.462 2.309
  endloop
endfacet
facet normal 0.3766496213768515 -0.9085490866903984 0.1807584570378862
  outer loop
    vertex -7.4030000000000005 7.393 2.309
    vertex 0 10.462 2.309
    vertex 0 10.5 2.5
  endloop
endfacet
facet normal 0.32552559758153193 0.7867312006931234 0.5244874671287608
  outer loop
    vertex -7.393 -7.4030000000000005 2.309
    vertex 0 -10.462 2.309
    vertex 0 -10.354000000000001 2.1470000000000002
  endloop
endfacet
facet normal 0.3256292203858939 0.7870179637737702 0.5239926865217333
  outer loop
    vertex -7.393 -7.4030000000000005 2.309
    vertex 0 -10.354000000000001 2.1470000000000002
    vertex -7.316 -7.327 2.1470000000000002
  endloop
endfacet
facet normal 0.22450734699397465 -0.5414632427336581 0.8101938088593855
  outer loop
    vertex -7.327 7.316 2.1470000000000002
    vertex -7.211 7.2010000000000005 2.0380000000000003
    vertex 0 10.354000000000001 2.1470000000000002
  endloop
endfacet
facet normal 0.32613101818854556 -0.7865575938997597 0.5243717292664843
  outer loop
    vertex -7.327 7.316 2.1470000000000002
    vertex 0 10.354000000000001 2.1470000000000002
    vertex 0 10.462 2.309
  endloop
endfacet
facet normal 0.22414240581064562 0.541733016488497 0.8101145108956449
  outer loop
    vertex -7.316 -7.327 2.1470000000000002
    vertex 0 -10.354000000000001 2.1470000000000002
    vertex 0 -10.191 2.0380000000000003
  endloop
endfacet
facet normal 0.22365178259296004 0.5404417739771509 0.8111119337572474
  outer loop
    vertex -7.316 -7.327 2.1470000000000002
    vertex 0 -10.191 2.0380000000000003
    vertex -7.2010000000000005 -7.211 2.0380000000000003
  endloop
endfacet
facet normal 0.08065469470587126 -0.1945153857939922 0.9775779175653043
  outer loop
    vertex -7.211 7.2010000000000005 2.0380000000000003
    vertex -7.0760000000000005 7.066 2
    vertex 0 10.191 2.0380000000000003
  endloop
endfacet
facet normal 0.22460210798381547 -0.5416741808265211 0.8100265272910163
  outer loop
    vertex -7.211 7.2010000000000005 2.0380000000000003
    vertex 0 10.191 2.0380000000000003
    vertex 0 10.354000000000001 2.1470000000000002
  endloop
endfacet
facet normal 0.08048833027075988 0.1944954584831341 0.9775955939547092
  outer loop
    vertex -7.2010000000000005 -7.211 2.0380000000000003
    vertex 0 -10.191 2.0380000000000003
    vertex 0 -10 2
  endloop
endfacet
facet normal 0.08053922147562856 0.1946272705016394 0.9775651688665986
  outer loop
    vertex -7.2010000000000005 -7.211 2.0380000000000003
    vertex 0 -10 2
    vertex -7.066 -7.0760000000000005 2
  endloop
endfacet
facet normal 0.2853377485861797 -0.11807636242088726 0.951125828620599
  outer loop
    vertex -7.0760000000000005 7.066 2
    vertex -5 0 0.5
    vertex -3.5380000000000003 3.533 0.5
  endloop
endfacet
facet normal 0.11830943550470796 -0.28532977697045453 0.9510992565681818
  outer loop
    vertex -7.0760000000000005 7.066 2
    vertex -3.5380000000000003 3.533 0.5
    vertex 0 10 2
  endloop
endfacet
facet normal 0.0806447760886497 -0.1944929910031656 0.9775831916211808
  outer loop
    vertex -7.0760000000000005 7.066 2
    vertex 0 10 2
    vertex 0 10.191 2.0380000000000003
  endloop
endfacet
facet normal 0.11807636242088726 0.2853377485861797 0.951125828620599
  outer loop
    vertex -7.066 -7.0760000000000005 2
    vertex 0 -10 2
    vertex 0 -5 0.5
  endloop
endfacet
facet normal 0.11807636242088729 0.28533774858617983 0.9511258286205991
  outer loop
    vertex -7.066 -7.0760000000000005 2
    vertex 0 -5 0.5
    vertex -3.533 -3.5380000000000003 0.5
  endloop
endfacet
facet normal 0 0 1
  outer loop
    vertex -5 0 0.5
    vertex -3.533 -3.5380000000000003 0.5
    vertex 3.5380000000000003 -3.533 0.5
  endloop
endfacet
facet normal 0 0 1
  outer loop
    vertex -5 0 0.5
    vertex 3.5380000000000003 -3.533 0.5
    vertex -3.5380000000000003 3.533 0.5
  endloop
endfacet
facet normal 0.11830943550470797 -0.2853297769704546 0.9510992565681817
  outer loop
    vertex -3.5380000000000003 3.533 0.5
    vertex 0 5 0.5
    vertex 0 10 2
  endloop
endfacet
facet normal 0 0 1
  outer loop
    vertex -3.5380000000000003 3.533 0.5
    vertex 3.5380000000000003 -3.533 0.5
    vertex 0 5 0.5
  endloop
endfacet
facet normal 0 0 1
  outer loop
    vertex -3.533 -3.5380000000000003 0.5
    vertex 0 -5 0.5
    vertex 3.5380000000000003 -3.533 0.5
  endloop
endfacet
facet normal -0.37664962137685165 0.9085490866903984 0.1807584570378862
  outer loop
    vertex 0 -10.5 2.5
    vertex 7.4030000000000005 -7.393 2.309
    vertex 0 -10.462 2.309
  endloop
endfacet
facet normal -0.3769921787287392 0.9091372567200701 0.17704899214868167
  outer loop
    vertex 0 -10.5 2.5
    vertex 7.43 -7.4190000000000005 2.5
    vertex 7.4030000000000005 -7.393 2.309
  endloop
endfacet
facet normal 0 0 1
  outer loop
    vertex 0 -10.5 2.5
    vertex 15 -15 2.5
    vertex 7.43 -7.4190000000000005 2.5
  endloop
endfacet
facet normal -0.3261310181885461 0.7865575938997597 0.5243717292664843
  outer loop
    vertex 0 -10.462 2.309
    vertex 7.327 -7.316 2.1470000000000002
    vertex 0 -10.354000000000001 2.1470000000000002
  endloop
endfacet
facet normal -0.3256615729656041 0.7855564107736608 0.5261612541664127
  outer loop
    vertex 0 -10.462 2.309
    vertex 7.4030000000000005 -7.393 2.309
    vertex 7.327 -7.316 2.1470000000000002
  endloop
endfacet
facet normal -0.2246021079838152 0.5416741808265211 0.8100265272910165
  outer loop
    vertex 0 -10.354000000000001 2.1470000000000002
    vertex 7.211 -7.2010000000000005 2.0380000000000003
    vertex 0 -10.191 2.0380000000000003
  endloop
endfacet
facet normal -0.22450734699397484 0.5414632427336574 0.8101938088593861
  outer loop
    vertex 0 -10.354000000000001 2.1470000000000002
    vertex 7.327 -7.316 2.1470000000000002
    vertex 7.211 -7.2010000000000005 2.0380000000000003
  endloop
endfacet
facet normal -0.08064477608864963 0.1944929910031656 0.9775831916211808
  outer loop
    vertex 0 -10.191 2.0380000000000003
    vertex 7.0760000000000005 -7.066 2
    vertex 0 -10 2
  endloop
endfacet
facet normal -0.08065469470587146 0.19451538579399152 0.9775779175653047
  outer loop
    vertex 0 -10.191 2.0380000000000003
    vertex 7.211 -7.2010000000000005 2.0380000000000003
    vertex 7.0760000000000005 -7.066 2
  endloop
endfacet
facet normal -0.118309435504708 0.2853297769704546 0.9510992565681817
  outer loop
    vertex 0 -10 2
    vertex 3.5380000000000003 -3.533 0.5
    vertex 0 -5 0.5
  endloop
endfacet
facet normal -0.11830943550470793 0.2853297769704545 0.9510992565681817
  outer loop
    vertex 0 -10 2
    vertex 7.0760000000000005 -7.066 2
    vertex 3.5380000000000003 -3.533 0.5
  endloop
endfacet
facet normal -0.1180763624208873 -0.28533774858617983 0.951125828620599
  outer loop
    vertex 0 5 0.5
    vertex 3.533 3.5380000000000003 0.5
    vertex 7.066 7.0760000000000005 2
  endloop
endfacet
facet normal 0 0 1
  outer loop
    vertex 0 5 0.5
    vertex 3.5380000000000003 -3.533 0.5
    vertex 3.533 3.5380000000000003 0.5
  endloop
endfacet
facet normal -0.11807636242088726 -0.2853377485861797 0.951125828620599
  outer loop
    vertex 0 5 0.5
    vertex 7.066 7.0760000000000005 2
    vertex 0 10 2
  endloop
endfacet
facet normal -0.08053922147562922 -0.19462727050163983 0.9775651688665984
  outer loop
    vertex 0 10 2
    vertex 7.066 7.0760000000000005 2
    vertex 7.2010000000000005 7.211 2.0380000000000003
  endloop
endfacet
facet normal -0.0804883302707598 -0.1944954584831341 0.9775955939547092
  outer loop
    vertex 0 10 2
    vertex 7.2010000000000005 7.211 2.0380000000000003
    vertex 0 10.191 2.0380000000000003
  endloop
endfacet
facet normal -0.22365178259296117 -0.5404417739771527 0.8111119337572459
  outer loop
    vertex 0 10.191 2.0380000000000003
    vertex 7.2010000000000005 7.211 2.0380000000000003
    vertex 7.316 7.327 2.1470000000000002
  endloop
endfacet
facet normal -0.22414240581064532 -0.541733016488497 0.8101145108956449
  outer loop
    vertex 0 10.191 2.0380000000000003
    vertex 7.316 7.327 2.1470000000000002
    vertex 0 10.354000000000001 2.1470000000000002
  endloop
endfacet
facet normal -0.3256292203858945 -0.7870179637737712 0.5239926865217315
  outer loop
    vertex 0 10.354000000000001 2.1470000000000002
    vertex 7.316 7.327 2.1470000000000002
    vertex 7.393 7.4030000000000005 2.309
  endloop
endfacet
facet normal -0.32552559758153243 -0.7867312006931233 0.5244874671287607
  outer loop
    vertex 0 10.354000000000001 2.1470000000000002
    vertex 7.393 7.4030000000000005 2.309
    vertex 0 10.462 2.309
  endloop
endfacet
facet normal -0.37611003078492794 -0.9089838043782216 0.17969331685139361
  outer loop
    vertex 0 10.462 2.309
    vertex 7.393 7.4030000000000005 2.309
    vertex 7.4190000000000005 7.43 2.5
  endloop
endfacet
facet normal -0.37605742384956536 -0.9087850252573033 0.18080539769517598
  outer loop
    vertex 0 10.462 2.309
    vertex 7.4190000000000005 7.43 2.5
    vertex 0 10.5 2.5
  endloop
endfacet
facet normal 0 0 1
  outer loop
    vertex 0 10.5 2.5
    vertex 7.4190000000000005 7.43 2.5
    vertex 15 15 2.5
  endloop
endfacet
facet normal -4.288451789282536e-17 0 1
  outer loop
    vertex 3.533 3.5380000000000003 0.5
    vertex 3.5380000000000003 -3.533 0.5
    vertex 5 0 0.5
  endloop
endfacet
facet normal -0.28532977697045453 -0.11830943550470806 0.9510992565681818
  outer loop
    vertex 3.533 3.5380000000000003 0.5
    vertex 5 0 0.5
    vertex 10 0 2
  endloop
endfacet
facet normal -0.28532977697045453 -0.11830943550470792 0.9510992565681818
  outer loop
    vertex 3.533 3.5380000000000003 0.5
    vertex 10 0 2
    vertex 7.066 7.0760000000000005 2
  endloop
endfacet
facet normal -0.2853377485861797 0.11807636242088726 0.9511258286205992
  outer loop
    vertex 3.5380000000000003 -3.533 0.5
    vertex 7.0760000000000005 -7.066 2
    vertex 5 0 0.5
  endloop
endfacet
facet normal -0.2853377485861797 0.11807636242088726 0.951125828620599
  outer loop
    vertex 5 0 0.5
    vertex 7.0760000000000005 -7.066 2
    vertex 10 0 2
  endloop
endfacet
facet normal -0.19449299100316658 -0.08064477608865084 0.9775831916211805
  outer loop
    vertex 7.066 7.0760000000000005 2
    vertex 10 0 2
    vertex 10.191 0 2.0380000000000003
  endloop
endfacet
facet normal -0.19451538579399255 -0.08065469470587137 0.9775779175653043
  outer loop
    vertex 7.066 7.0760000000000005 2
    vertex 10.191 0 2.0380000000000003
    vertex 7.2010000000000005 7.211 2.0380000000000003
  endloop
endfacet
facet normal -0.1946272705016371 0.0805392214756282 0.9775651688665992
  outer loop
    vertex 7.0760000000000005 -7.066 2
    vertex 7.211 -7.2010000000000005 2.0380000000000003
    vertex 10 0 2
  endloop
endfacet
facet normal -0.5416741808265126 -0.22460210798381278 0.8100265272910229
  outer loop
    vertex 7.2010000000000005 7.211 2.0380000000000003
    vertex 10.191 0 2.0380000000000003
    vertex 10.354000000000001 0 2.1470000000000002
  endloop
endfacet
facet normal -0.5414632427336638 -0.2245073469939776 0.8101938088593812
  outer loop
    vertex 7.2010000000000005 7.211 2.0380000000000003
    vertex 10.354000000000001 0 2.1470000000000002
    vertex 7.316 7.327 2.1470000000000002
  endloop
endfacet
facet normal -0.5404417739771515 0.22365178259296115 0.8111119337572469
  outer loop
    vertex 7.211 -7.2010000000000005 2.0380000000000003
    vertex 7.327 -7.316 2.1470000000000002
    vertex 10.191 0 2.0380000000000003
  endloop
endfacet
facet normal -0.19449545848313646 0.08048833027076065 0.9775955939547085
  outer loop
    vertex 7.211 -7.2010000000000005 2.0380000000000003
    vertex 10.191 0 2.0380000000000003
    vertex 10 0 2
  endloop
endfacet
facet normal -0.786557593899753 -0.3261310181885428 0.5243717292664964
  outer loop
    vertex 7.316 7.327 2.1470000000000002
    vertex 10.354000000000001 0 2.1470000000000002
    vertex 10.462 0 2.309
  endloop
endfacet
facet normal -0.785556410773664 -0.3256615729656046 0.5261612541664074
  outer loop
    vertex 7.316 7.327 2.1470000000000002
    vertex 10.462 0 2.309
    vertex 7.393 7.4030000000000005 2.309
  endloop
endfacet
facet normal -0.7870179637737703 0.3256292203858942 0.5239926865217327
  outer loop
    vertex 7.327 -7.316 2.1470000000000002
    vertex 7.4030000000000005 -7.393 2.309
    vertex 10.354000000000001 0 2.1470000000000002
  endloop
endfacet
facet normal -0.5417330164884991 0.22414240581064568 0.8101145108956432
  outer loop
    vertex 7.327 -7.316 2.1470000000000002
    vertex 10.354000000000001 0 2.1470000000000002
    vertex 10.191 0 2.0380000000000003
  endloop
endfacet
facet normal -0.9085490866903991 -0.37664962137685176 0.18075845703788182
  outer loop
    vertex 7.393 7.4030000000000005 2.309
    vertex 10.462 0 2.309
    vertex 10.5 0 2.5
  endloop
endfacet
facet normal -0.9091372567200702 -0.3769921787287386 0.1770489921486818
  outer loop
    vertex 7.393 7.4030000000000005 2.309
    vertex 10.5 0 2.5
    vertex 7.4190000000000005 7.43 2.5
  endloop
endfacet
facet normal -0.9089838043782185 0.37611003078492833 0.17969331685140946
  outer loop
    vertex 7.4030000000000005 -7.393 2.309
    vertex 7.43 -7.4190000000000005 2.5
    vertex 10.462 0 2.309
  endloop
endfacet
facet normal -0.7867312006931299 0.32552559758153493 0.5244874671287493
  outer loop
    vertex 7.4030000000000005 -7.393 2.309
    vertex 10.462 0 2.309
    vertex 10.354000000000001 0 2.1470000000000002
  endloop
endfacet
facet normal 0 0 1
  outer loop
    vertex 7.4190000000000005 7.43 2.5
    vertex 10.5 0 2.5
    vertex 15 15 2.5
  endloop
endfacet
facet normal -0.9087850252573033 0.3760574238495663 0.18080539769517454
  outer loop
    vertex 7.43 -7.4190000000000005 2.5
    vertex 10.5 0 2.5
    vertex 10.462 0 2.309
  endloop
endfacet
facet normal 0 0 1
  outer loop
    vertex 7.43 -7.4190000000000005 2.5
    vertex 15 -15 2.5
    vertex 10.5 0 2.5
  endloop
endfacet
facet normal 0 0 1
  outer loop
    vertex 10.5 0 2.5
    vertex 15 -15 2.5
    vertex 15 15 2.5
  endloop
endfacet
facet normal 1 0 0
  outer loop
    vertex 15 -15 0
    vertex 15 15 0
    vertex 15 -15 2.5
  endloop
endfacet
facet normal 1 0 0
  outer loop
    vertex 15 -15 2.5
    vertex 15 15 0
    vertex 15 15 2.5
  endloop
endfacet
endsolid JSxCAD
