solid JSxCAD
facet normal -0.8500138991020957 -0.49040076809046435 -0.1923108369009266
  outer loop
    vertex -32.5 0 3.525
    vertex -30 0 -7.525
    vertex -16.268 -28.135 3.525
  endloop
endfacet
facet normal 0 0 1
  outer loop
    vertex -32.5 0 3.525
    vertex -30 0 3.525
    vertex -16.214 28.167 3.525
  endloop
endfacet
facet normal 0 0 1
  outer loop
    vertex -32.5 0 3.525
    vertex -16.268 -28.135 3.525
    vertex -30 0 3.525
  endloop
endfacet
facet normal -0.8495667119898277 0.49121466508560846 -0.19220966334611483
  outer loop
    vertex -32.5 0 3.525
    vertex -16.214 28.167 3.525
    vertex -30 0 -7.525
  endloop
endfacet
facet normal -0.8495681518381769 0.49121377025320434 -0.19220558601637092
  outer loop
    vertex -30 0 -7.525
    vertex -16.214 28.167 3.525
    vertex -14.967 26 -7.525
  endloop
endfacet
facet normal -0.8500280153474308 -0.49039196619115766 -0.19227088344228987
  outer loop
    vertex -30 0 -7.525
    vertex -15.017 -25.971 -7.525
    vertex -16.268 -28.135 3.525
  endloop
endfacet
facet normal 0 0 -1
  outer loop
    vertex -30 0 -7.525
    vertex -14.967 26 -7.525
    vertex -15.017 -25.971 -7.525
  endloop
endfacet
facet normal 0.84171421260052 -0.4866726830009083 0.23380950350014446
  outer loop
    vertex -30 0 3.525
    vertex -27.5 0 -5.4750000000000005
    vertex -14.967 26 3.525
  endloop
endfacet
facet normal 0 0 1
  outer loop
    vertex -30 0 3.525
    vertex -16.268 -28.135 3.525
    vertex -15.017 -25.971 3.525
  endloop
endfacet
facet normal 0.8421552750108318 0.4858500822258401 0.23393202083634212
  outer loop
    vertex -30 0 3.525
    vertex -15.017 -25.971 3.525
    vertex -27.5 0 -5.4750000000000005
  endloop
endfacet
facet normal 0 0 1
  outer loop
    vertex -30 0 3.525
    vertex -14.967 26 3.525
    vertex -16.214 28.167 3.525
  endloop
endfacet
facet normal 0.8421400884881792 0.4858568536726651 0.23397262468164956
  outer loop
    vertex -27.5 0 -5.4750000000000005
    vertex -15.017 -25.971 3.525
    vertex -13.765 -23.807000000000002 -5.4750000000000005
  endloop
endfacet
facet normal 0 0 1
  outer loop
    vertex -27.5 0 -5.4750000000000005
    vertex -13.765 -23.807000000000002 -5.4750000000000005
    vertex -4.329 -2.503 -5.4750000000000005
  endloop
endfacet
facet normal 0.8416816422016938 -0.48668714434530036 0.23389663680710884
  outer loop
    vertex -27.5 0 -5.4750000000000005
    vertex -13.719 23.833000000000002 -5.4750000000000005
    vertex -14.967 26 3.525
  endloop
endfacet
facet normal 0 0 1
  outer loop
    vertex -27.5 0 -5.4750000000000005
    vertex -4.329 -2.503 -5.4750000000000005
    vertex -4.329 2.503 -5.4750000000000005
  endloop
endfacet
facet normal 0 0 1
  outer loop
    vertex -27.5 0 -5.4750000000000005
    vertex -4.329 2.503 -5.4750000000000005
    vertex -13.719 23.833000000000002 -5.4750000000000005
  endloop
endfacet
facet normal -0.0009491326737375542 -0.9813377272188638 -0.19228979245940891
  outer loop
    vertex -16.268 -28.135 3.525
    vertex -15.017 -25.971 -7.525
    vertex 14.967 -26 -7.525
  endloop
endfacet
facet normal -0.0009667663801535074 -0.9813282987545687 -0.19233781590272403
  outer loop
    vertex -16.268 -28.135 3.525
    vertex 14.967 -26 -7.525
    vertex 16.214 -28.167 3.525
  endloop
endfacet
facet normal 0 0 1
  outer loop
    vertex -16.268 -28.135 3.525
    vertex 14.967 -26 3.525
    vertex -15.017 -25.971 3.525
  endloop
endfacet
facet normal 0 0 1
  outer loop
    vertex -16.268 -28.135 3.525
    vertex 16.214 -28.167 3.525
    vertex 14.967 -26 3.525
  endloop
endfacet
facet normal 0 0 1
  outer loop
    vertex -16.214 28.167 3.525
    vertex -14.967 26 3.525
    vertex 16.268 28.135 3.525
  endloop
endfacet
facet normal 0.0009491232072686077 0.9813279395428333 -0.19233973650224948
  outer loop
    vertex -16.214 28.167 3.525
    vertex 15.017 25.971 -7.525
    vertex -14.967 26 -7.525
  endloop
endfacet
facet normal 0.0009667752810467847 0.9813373337175509 -0.19229171276392498
  outer loop
    vertex -16.214 28.167 3.525
    vertex 16.268 28.135 3.525
    vertex 15.017 25.971 -7.525
  endloop
endfacet
facet normal 0 0 -1
  outer loop
    vertex -15.017 -25.971 -7.525
    vertex -14.967 26 -7.525
    vertex 14.967 -26 -7.525
  endloop
endfacet
facet normal 0.0009197624415195946 0.9722596516432588 0.23390238097031027
  outer loop
    vertex -15.017 -25.971 3.525
    vertex 13.719 -23.833000000000002 -5.4750000000000005
    vertex -13.765 -23.807000000000002 -5.4750000000000005
  endloop
endfacet
facet normal 0.0009403380382657958 0.972244680667645 0.23396452012611438
  outer loop
    vertex -15.017 -25.971 3.525
    vertex 14.967 -26 3.525
    vertex 13.719 -23.833000000000002 -5.4750000000000005
  endloop
endfacet
facet normal 0 0 -1
  outer loop
    vertex -14.967 26 -7.525
    vertex 15.017 25.971 -7.525
    vertex 14.967 -26 -7.525
  endloop
endfacet
facet normal -0.0009403380382657958 -0.972244680667645 0.23396452012611438
  outer loop
    vertex -14.967 26 3.525
    vertex -13.719 23.833000000000002 -5.4750000000000005
    vertex 15.017 25.971 3.525
  endloop
endfacet
facet normal 0 0 1
  outer loop
    vertex -14.967 26 3.525
    vertex 15.017 25.971 3.525
    vertex 16.268 28.135 3.525
  endloop
endfacet
facet normal 0 0 1
  outer loop
    vertex -13.765 -23.807000000000002 -5.4750000000000005
    vertex 0 -5 -5.4750000000000005
    vertex -4.329 -2.503 -5.4750000000000005
  endloop
endfacet
facet normal 0 0 1
  outer loop
    vertex -13.765 -23.807000000000002 -5.4750000000000005
    vertex 13.719 -23.833000000000002 -5.4750000000000005
    vertex 0 -5 -5.4750000000000005
  endloop
endfacet
facet normal 0 0 1
  outer loop
    vertex -13.719 23.833000000000002 -5.4750000000000005
    vertex -4.329 2.503 -5.4750000000000005
    vertex 0 5 -5.4750000000000005
  endloop
endfacet
facet normal 0 0 1
  outer loop
    vertex -13.719 23.833000000000002 -5.4750000000000005
    vertex 0 5 -5.4750000000000005
    vertex 13.765 23.807000000000002 -5.4750000000000005
  endloop
endfacet
facet normal -0.0009197624415195944 -0.9722596516432588 0.2339023809703103
  outer loop
    vertex -13.719 23.833000000000002 -5.4750000000000005
    vertex 13.765 23.807000000000002 -5.4750000000000005
    vertex 15.017 25.971 3.525
  endloop
endfacet
facet normal -1 0 0
  outer loop
    vertex -7.791 -4.505 1.5250000000000001
    vertex -7.791 -4.505 5.525
    vertex -7.791 4.505 1.5250000000000001
  endloop
endfacet
facet normal -0.7560631531390419 0 -0.654498669567364
  outer loop
    vertex -7.791 -4.505 1.5250000000000001
    vertex -7.791 4.505 1.5250000000000001
    vertex -5.194 -3.003 -1.475
  endloop
endfacet
facet normal -0.3777205878811826 -0.6546876752352155 -0.6547604183102417
  outer loop
    vertex -7.791 -4.505 1.5250000000000001
    vertex -5.194 -3.003 -1.475
    vertex 0 -9 1.5250000000000001
  endloop
endfacet
facet normal -0.4997384944123985 -0.8661763314720793 0
  outer loop
    vertex -7.791 -4.505 1.5250000000000001
    vertex 0 -9 1.5250000000000001
    vertex -7.791 -4.505 5.525
  endloop
endfacet
facet normal -1 0 0
  outer loop
    vertex -7.791 -4.505 5.525
    vertex -7.791 4.505 5.525
    vertex -7.791 4.505 1.5250000000000001
  endloop
endfacet
facet normal -0.3134057168225128 0 0.9496193219722138
  outer loop
    vertex -7.791 -4.505 5.525
    vertex -1.731 -1.0010000000000001 7.525
    vertex -7.791 4.505 5.525
  endloop
endfacet
facet normal -0.4997384944123985 -0.8661763314720793 0
  outer loop
    vertex -7.791 -4.505 5.525
    vertex 0 -9 1.5250000000000001
    vertex 0 -9 5.525
  endloop
endfacet
facet normal -0.15653943518661984 -0.27132341257818804 0.9496731074524435
  outer loop
    vertex -7.791 -4.505 5.525
    vertex 0 -9 5.525
    vertex -1.731 -1.0010000000000001 7.525
  endloop
endfacet
facet normal -0.4997384944123985 0.8661763314720793 0
  outer loop
    vertex -7.791 4.505 1.5250000000000001
    vertex -7.791 4.505 5.525
    vertex 0 9 1.5250000000000001
  endloop
endfacet
facet normal -0.7560631531390419 0 -0.6544986695673641
  outer loop
    vertex -7.791 4.505 1.5250000000000001
    vertex -5.194 3.003 -1.475
    vertex -5.194 -3.003 -1.475
  endloop
endfacet
facet normal -0.37774761238961935 0.6546616946118395 -0.6547708048942749
  outer loop
    vertex -7.791 4.505 1.5250000000000001
    vertex 0 6 -1.475
    vertex -5.194 3.003 -1.475
  endloop
endfacet
facet normal -0.37773857872909 0.6547188580374506 -0.6547188580374507
  outer loop
    vertex -7.791 4.505 1.5250000000000001
    vertex 0 9 1.5250000000000001
    vertex 0 6 -1.475
  endloop
endfacet
facet normal -0.3134057168225127 0 0.9496193219722138
  outer loop
    vertex -7.791 4.505 5.525
    vertex -1.731 -1.0010000000000001 7.525
    vertex -1.731 1.0010000000000001 7.525
  endloop
endfacet
facet normal -0.15656440302039984 0.2712842658942064 0.9496801749984609
  outer loop
    vertex -7.791 4.505 5.525
    vertex -1.731 1.0010000000000001 7.525
    vertex 0 2 7.525
  endloop
endfacet
facet normal -0.15654555482133364 0.2713340194912148 0.9496690682192518
  outer loop
    vertex -7.791 4.505 5.525
    vertex 0 2 7.525
    vertex 0 9 5.525
  endloop
endfacet
facet normal -0.4997384944123985 0.8661763314720793 0
  outer loop
    vertex -7.791 4.505 5.525
    vertex 0 9 5.525
    vertex 0 9 1.5250000000000001
  endloop
endfacet
facet normal -0.9774073442235846 0 -0.21136433818835018
  outer loop
    vertex -5.194 -3.003 -1.475
    vertex -5.194 3.003 -1.475
    vertex -4.329 -2.503 -5.4750000000000005
  endloop
endfacet
facet normal -0.48847909594446604 -0.8465667081533389 -0.21145444301715818
  outer loop
    vertex -5.194 -3.003 -1.475
    vertex -4.329 -2.503 -5.4750000000000005
    vertex 0 -6 -1.475
  endloop
endfacet
facet normal -0.37777460016380404 -0.6547084662164826 -0.6547084662164826
  outer loop
    vertex -5.194 -3.003 -1.475
    vertex 0 -6 -1.475
    vertex 0 -9 1.5250000000000001
  endloop
endfacet
facet normal -0.9774073442235846 0 -0.2113643381883502
  outer loop
    vertex -5.194 3.003 -1.475
    vertex -4.329 2.503 -5.4750000000000005
    vertex -4.329 -2.503 -5.4750000000000005
  endloop
endfacet
facet normal -0.4883512193973206 0.8466449454429319 -0.2114365693750371
  outer loop
    vertex -5.194 3.003 -1.475
    vertex 0 5 -5.4750000000000005
    vertex -4.329 2.503 -5.4750000000000005
  endloop
endfacet
facet normal -0.48845974892837574 0.8465331784898177 -0.21163329462245437
  outer loop
    vertex -5.194 3.003 -1.475
    vertex 0 6 -1.475
    vertex 0 5 -5.4750000000000005
  endloop
endfacet
facet normal -0.4883280106686163 -0.8466047089244854 -0.21165117723112128
  outer loop
    vertex -4.329 -2.503 -5.4750000000000005
    vertex 0 -5 -5.4750000000000005
    vertex 0 -6 -1.475
  endloop
endfacet
facet normal -0.1565919508675829 -0.2713319989507368 0.9496619963275785
  outer loop
    vertex -1.731 -1.0010000000000001 7.525
    vertex 0 -9 5.525
    vertex 0 -2 7.525
  endloop
endfacet
facet normal 0 0 1
  outer loop
    vertex -1.731 -1.0010000000000001 7.525
    vertex 0 -2 7.525
    vertex -1.731 1.0010000000000001 7.525
  endloop
endfacet
facet normal 0 0 1
  outer loop
    vertex -1.731 1.0010000000000001 7.525
    vertex 0 -2 7.525
    vertex 0 2 7.525
  endloop
endfacet
facet normal 0.37777460016380404 -0.6547084662164826 -0.6547084662164826
  outer loop
    vertex 0 -9 1.5250000000000001
    vertex 0 -6 -1.475
    vertex 5.194 -3.003 -1.475
  endloop
endfacet
facet normal 0.3777205878811826 -0.6546876752352155 -0.6547604183102418
  outer loop
    vertex 0 -9 1.5250000000000001
    vertex 5.194 -3.003 -1.475
    vertex 7.791 -4.505 1.5250000000000001
  endloop
endfacet
facet normal 0.4997384944123985 -0.8661763314720793 0
  outer loop
    vertex 0 -9 1.5250000000000001
    vertex 7.791 -4.505 1.5250000000000001
    vertex 0 -9 5.525
  endloop
endfacet
facet normal 0.15659195086758285 -0.27133199895073673 0.9496619963275785
  outer loop
    vertex 0 -9 5.525
    vertex 1.731 -1.0010000000000001 7.525
    vertex 0 -2 7.525
  endloop
endfacet
facet normal 0.4997384944123985 -0.8661763314720793 0
  outer loop
    vertex 0 -9 5.525
    vertex 7.791 -4.505 1.5250000000000001
    vertex 7.791 -4.505 5.525
  endloop
endfacet
facet normal 0.15653943518661984 -0.27132341257818804 0.9496731074524435
  outer loop
    vertex 0 -9 5.525
    vertex 7.791 -4.505 5.525
    vertex 1.731 -1.0010000000000001 7.525
  endloop
endfacet
facet normal 0.4883280106686163 -0.8466047089244854 -0.21165117723112134
  outer loop
    vertex 0 -6 -1.475
    vertex 0 -5 -5.4750000000000005
    vertex 4.329 -2.503 -5.4750000000000005
  endloop
endfacet
facet normal 0.48847909594446604 -0.8465667081533389 -0.21145444301715818
  outer loop
    vertex 0 -6 -1.475
    vertex 4.329 -2.503 -5.4750000000000005
    vertex 5.194 -3.003 -1.475
  endloop
endfacet
facet normal 0 0 1
  outer loop
    vertex 0 -5 -5.4750000000000005
    vertex 13.719 -23.833000000000002 -5.4750000000000005
    vertex 4.329 -2.503 -5.4750000000000005
  endloop
endfacet
facet normal 0 0 1
  outer loop
    vertex 0 -2 7.525
    vertex 1.731 -1.0010000000000001 7.525
    vertex 0 2 7.525
  endloop
endfacet
facet normal 0 0 1
  outer loop
    vertex 0 2 7.525
    vertex 1.731 -1.0010000000000001 7.525
    vertex 1.731 1.0010000000000001 7.525
  endloop
endfacet
facet normal 0.15659195086758287 0.27133199895073673 0.9496619963275785
  outer loop
    vertex 0 2 7.525
    vertex 1.731 1.0010000000000001 7.525
    vertex 0 9 5.525
  endloop
endfacet
facet normal 0.48845974892837574 0.8465331784898177 -0.21163329462245442
  outer loop
    vertex 0 5 -5.4750000000000005
    vertex 0 6 -1.475
    vertex 5.194 3.003 -1.475
  endloop
endfacet
facet normal 0 0 1
  outer loop
    vertex 0 5 -5.4750000000000005
    vertex 4.329 2.503 -5.4750000000000005
    vertex 13.765 23.807000000000002 -5.4750000000000005
  endloop
endfacet
facet normal 0.4883512193973206 0.8466449454429319 -0.2114365693750371
  outer loop
    vertex 0 5 -5.4750000000000005
    vertex 5.194 3.003 -1.475
    vertex 4.329 2.503 -5.4750000000000005
  endloop
endfacet
facet normal 0.37773857872909006 0.6547188580374508 -0.6547188580374508
  outer loop
    vertex 0 6 -1.475
    vertex 0 9 1.5250000000000001
    vertex 7.791 4.505 1.5250000000000001
  endloop
endfacet
facet normal 0.37774761238961935 0.6546616946118395 -0.6547708048942749
  outer loop
    vertex 0 6 -1.475
    vertex 7.791 4.505 1.5250000000000001
    vertex 5.194 3.003 -1.475
  endloop
endfacet
facet normal 0.4997384944123985 0.8661763314720793 0
  outer loop
    vertex 0 9 1.5250000000000001
    vertex 0 9 5.525
    vertex 7.791 4.505 5.525
  endloop
endfacet
facet normal 0.4997384944123985 0.8661763314720793 0
  outer loop
    vertex 0 9 1.5250000000000001
    vertex 7.791 4.505 5.525
    vertex 7.791 4.505 1.5250000000000001
  endloop
endfacet
facet normal 0.15653943518661984 0.27132341257818804 0.9496731074524435
  outer loop
    vertex 0 9 5.525
    vertex 1.731 1.0010000000000001 7.525
    vertex 7.791 4.505 5.525
  endloop
endfacet
facet normal 0.3134057168225128 0 0.9496193219722138
  outer loop
    vertex 1.731 -1.0010000000000001 7.525
    vertex 7.791 -4.505 5.525
    vertex 1.731 1.0010000000000001 7.525
  endloop
endfacet
facet normal 0.3134057168225127 0 0.9496193219722138
  outer loop
    vertex 1.731 1.0010000000000001 7.525
    vertex 7.791 -4.505 5.525
    vertex 7.791 4.505 5.525
  endloop
endfacet
facet normal 0.9774073442235846 0 -0.2113643381883502
  outer loop
    vertex 4.329 -2.503 -5.4750000000000005
    vertex 4.329 2.503 -5.4750000000000005
    vertex 5.194 -3.003 -1.475
  endloop
endfacet
facet normal 0 0 1
  outer loop
    vertex 4.329 -2.503 -5.4750000000000005
    vertex 13.719 -23.833000000000002 -5.4750000000000005
    vertex 27.5 0 -5.4750000000000005
  endloop
endfacet
facet normal 0 0 1
  outer loop
    vertex 4.329 -2.503 -5.4750000000000005
    vertex 27.5 0 -5.4750000000000005
    vertex 4.329 2.503 -5.4750000000000005
  endloop
endfacet
facet normal 0.9774073442235846 0 -0.21136433818835018
  outer loop
    vertex 4.329 2.503 -5.4750000000000005
    vertex 5.194 3.003 -1.475
    vertex 5.194 -3.003 -1.475
  endloop
endfacet
facet normal 0 0 1
  outer loop
    vertex 4.329 2.503 -5.4750000000000005
    vertex 27.5 0 -5.4750000000000005
    vertex 13.765 23.807000000000002 -5.4750000000000005
  endloop
endfacet
facet normal 0.7560631531390419 0 -0.654498669567364
  outer loop
    vertex 5.194 -3.003 -1.475
    vertex 5.194 3.003 -1.475
    vertex 7.791 -4.505 1.5250000000000001
  endloop
endfacet
facet normal 0.7560631531390419 0 -0.6544986695673641
  outer loop
    vertex 5.194 3.003 -1.475
    vertex 7.791 4.505 1.5250000000000001
    vertex 7.791 -4.505 1.5250000000000001
  endloop
endfacet
facet normal 1 0 0
  outer loop
    vertex 7.791 -4.505 1.5250000000000001
    vertex 7.791 4.505 1.5250000000000001
    vertex 7.791 -4.505 5.525
  endloop
endfacet
facet normal 1 0 0
  outer loop
    vertex 7.791 -4.505 5.525
    vertex 7.791 4.505 1.5250000000000001
    vertex 7.791 4.505 5.525
  endloop
endfacet
facet normal -0.8416816422016938 0.48668714434530036 0.23389663680710884
  outer loop
    vertex 13.719 -23.833000000000002 -5.4750000000000005
    vertex 14.967 -26 3.525
    vertex 27.5 0 -5.4750000000000005
  endloop
endfacet
facet normal -0.8421489194699358 -0.48586194854116715 0.23393025540831563
  outer loop
    vertex 13.765 23.807000000000002 -5.4750000000000005
    vertex 27.5 0 -5.4750000000000005
    vertex 30 0 3.525
  endloop
endfacet
facet normal -0.8421471797299419 -0.48584541195540104 0.2339708600548192
  outer loop
    vertex 13.765 23.807000000000002 -5.4750000000000005
    vertex 30 0 3.525
    vertex 15.017 25.971 3.525
  endloop
endfacet
facet normal 0 0 -1
  outer loop
    vertex 14.967 -26 -7.525
    vertex 15.017 25.971 -7.525
    vertex 30 0 -7.525
  endloop
endfacet
facet normal 0.8495681518381769 -0.49121377025320434 -0.192205586016371
  outer loop
    vertex 14.967 -26 -7.525
    vertex 30 0 -7.525
    vertex 16.214 -28.167 3.525
  endloop
endfacet
facet normal 0 0 1
  outer loop
    vertex 14.967 -26 3.525
    vertex 16.214 -28.167 3.525
    vertex 30 0 3.525
  endloop
endfacet
facet normal -0.84171421260052 0.4866726830009083 0.23380950350014446
  outer loop
    vertex 14.967 -26 3.525
    vertex 30 0 3.525
    vertex 27.5 0 -5.4750000000000005
  endloop
endfacet
facet normal 0.8500280153474308 0.49039196619115766 -0.19227088344228985
  outer loop
    vertex 15.017 25.971 -7.525
    vertex 16.268 28.135 3.525
    vertex 30 0 -7.525
  endloop
endfacet
facet normal 0 0 1
  outer loop
    vertex 15.017 25.971 3.525
    vertex 30 0 3.525
    vertex 32.5 0 3.525
  endloop
endfacet
facet normal 0 0 1
  outer loop
    vertex 15.017 25.971 3.525
    vertex 32.5 0 3.525
    vertex 16.268 28.135 3.525
  endloop
endfacet
facet normal 0.8495667119898278 -0.4912146650856085 -0.19220966334611475
  outer loop
    vertex 16.214 -28.167 3.525
    vertex 30 0 -7.525
    vertex 32.5 0 3.525
  endloop
endfacet
facet normal 0 0 1
  outer loop
    vertex 16.214 -28.167 3.525
    vertex 32.5 0 3.525
    vertex 30 0 3.525
  endloop
endfacet
facet normal 0.8500138991020958 0.4904007680904644 -0.19231083690092657
  outer loop
    vertex 16.268 28.135 3.525
    vertex 32.5 0 3.525
    vertex 30 0 -7.525
  endloop
endfacet
endsolid JSxCAD
