solid JSxCAD
facet normal -0.9198726582703263 -0.2827978152863333 -0.27177138965674885
  outer loop
    vertex -37.423 -9.654 74.671
    vertex -32.786 5.0360000000000005 43.69
    vertex -30.778000000000002 -14.769 57.502
  endloop
endfacet
facet normal -0.7338710436711303 -0.6741765079563332 -0.08318249443753367
  outer loop
    vertex -37.423 -9.654 74.671
    vertex -30.778000000000002 -14.769 57.502
    vertex -25.512 -24.015 85.98
  endloop
endfacet
facet normal -0.9554193536245331 0.2952368525964891 -0.003009915048401802
  outer loop
    vertex -37.423 -9.654 74.671
    vertex -30.333000000000002 13.244 70.156
    vertex -32.786 5.0360000000000005 43.69
  endloop
endfacet
facet normal -0.9434200001930241 0.3134501223127269 0.10820223684347284
  outer loop
    vertex -37.423 -9.654 74.671
    vertex -28.833000000000002 12.065 86.65
    vertex -30.333000000000002 13.244 70.156
  endloop
endfacet
facet normal -0.9190508631485669 0.16643851378439362 0.3572726298992358
  outer loop
    vertex -37.423 -9.654 74.671
    vertex -26.717000000000002 -11.3 102.97800000000001
    vertex -28.833000000000002 12.065 86.65
  endloop
endfacet
facet normal -0.8362648231163986 -0.46586200577753634 0.28919498126874404
  outer loop
    vertex -37.423 -9.654 74.671
    vertex -25.512 -24.015 85.98
    vertex -26.717000000000002 -11.3 102.97800000000001
  endloop
endfacet
facet normal -0.9690779031895124 0.22580671298903918 -0.09949545677518992
  outer loop
    vertex -33.246 39.379 70.379
    vertex -31.661 49.448 77.793
    vertex -29.588 50.824 60.725
  endloop
endfacet
facet normal -0.917904568246139 -0.039654612018570026 -0.394814786119423
  outer loop
    vertex -33.246 39.379 70.379
    vertex -29.588 50.824 60.725
    vertex -22.357 43.194 44.68
  endloop
endfacet
facet normal -0.9608887189552199 -0.23879407011583556 -0.14025071073655873
  outer loop
    vertex -33.246 39.379 70.379
    vertex -29.419 29.609 60.794000000000004
    vertex -28.833000000000002 12.065 86.65
  endloop
endfacet
facet normal -0.9483835954988307 0.03456093875768481 0.31523657354580187
  outer loop
    vertex -33.246 39.379 70.379
    vertex -28.833000000000002 12.065 86.65
    vertex -24.067 31.196 98.891
  endloop
endfacet
facet normal -0.9551262132166161 -0.06279027367804256 0.2894672664705351
  outer loop
    vertex -33.246 39.379 70.379
    vertex -24.067 31.196 98.891
    vertex -31.661 49.448 77.793
  endloop
endfacet
facet normal -0.9216111308649539 0.019291118769575198 -0.3876348490557047
  outer loop
    vertex -33.246 39.379 70.379
    vertex -22.357 43.194 44.68
    vertex -29.419 29.609 60.794000000000004
  endloop
endfacet
facet normal -0.9413683655727206 0.33693944437653284 -0.017245611678859574
  outer loop
    vertex -32.786 5.0360000000000005 43.69
    vertex -30.333000000000002 13.244 70.156
    vertex -28.367 17.330000000000002 42.671
  endloop
endfacet
facet normal -0.6084019945171251 -0.7877689798145806 0.09626550529384455
  outer loop
    vertex -32.786 5.0360000000000005 43.69
    vertex -30.056 -1.913 4.078
    vertex -27.657 -1.1480000000000001 25.5
  endloop
endfacet
facet normal -0.940731699974842 0.3326707930585809 -0.06598493849522512
  outer loop
    vertex -32.786 5.0360000000000005 43.69
    vertex -28.367 17.330000000000002 42.671
    vertex -27.864 14.258000000000001 20.012
  endloop
endfacet
facet normal -0.9653548355508067 0.23745654390928628 -0.10818701970815242
  outer loop
    vertex -32.786 5.0360000000000005 43.69
    vertex -27.864 14.258000000000001 20.012
    vertex -30.056 -1.913 4.078
  endloop
endfacet
facet normal -0.9543020144329022 -0.22990472199060918 -0.19092271749513082
  outer loop
    vertex -32.786 5.0360000000000005 43.69
    vertex -27.657 -1.1480000000000001 25.5
    vertex -30.778000000000002 -14.769 57.502
  endloop
endfacet
facet normal -0.9848512616139333 0.13508061321050985 -0.1087254359941424
  outer loop
    vertex -31.661 49.448 77.793
    vertex -28.746000000000002 61.686 66.593
    vertex -29.588 50.824 60.725
  endloop
endfacet
facet normal -0.9058346893049627 0.09919001876996078 0.4118553821770411
  outer loop
    vertex -31.661 49.448 77.793
    vertex -24.067 31.196 98.891
    vertex -19.217 53.286 104.238
  endloop
endfacet
facet normal -0.8173895330019553 0.4826042069579575 0.31459105321881997
  outer loop
    vertex -31.661 49.448 77.793
    vertex -19.217 53.286 104.238
    vertex -28.746000000000002 61.686 66.593
  endloop
endfacet
facet normal -0.8957073508377645 -0.42460415223423575 0.13198354276439056
  outer loop
    vertex -31.143 72.111 83.864
    vertex -28.746000000000002 61.686 66.593
    vertex -19.217 53.286 104.238
  endloop
endfacet
facet normal -0.992851179055539 -0.04542067344375582 -0.11037888689392453
  outer loop
    vertex -31.143 72.111 83.864
    vertex -27.13 85.915 42.087
    vertex -28.746000000000002 61.686 66.593
  endloop
endfacet
facet normal -0.9655730001203302 0.2600426351443543 -0.00682710376403813
  outer loop
    vertex -31.143 72.111 83.864
    vertex -25.783 91.813 76.231
    vertex -27.13 85.915 42.087
  endloop
endfacet
facet normal -0.8272912713858155 0.07800368360846607 0.5563313559672431
  outer loop
    vertex -31.143 72.111 83.864
    vertex -19.217 53.286 104.238
    vertex -15.515 65.953 107.967
  endloop
endfacet
facet normal -0.7755437684834113 0.26836285616112643 0.5714133710367578
  outer loop
    vertex -31.143 72.111 83.864
    vertex -15.515 65.953 107.967
    vertex -12.098 86.176 103.107
  endloop
endfacet
facet normal -0.7806738071421521 0.3987955817390623 0.4811553707770294
  outer loop
    vertex -31.143 72.111 83.864
    vertex -12.098 86.176 103.107
    vertex -25.783 91.813 76.231
  endloop
endfacet
facet normal -0.33235334976271813 -0.8557039446880947 -0.3966257807388907
  outer loop
    vertex -30.778000000000002 -14.769 57.502
    vertex -27.657 -1.1480000000000001 25.5
    vertex -21.900000000000002 -6.985 33.269
  endloop
endfacet
facet normal -0.47023285343370047 -0.775457494862561 -0.42136295187531736
  outer loop
    vertex -30.778000000000002 -14.769 57.502
    vertex -21.900000000000002 -6.985 33.269
    vertex -17.198 -20.444 52.791000000000004
  endloop
endfacet
facet normal -0.4772400118522819 -0.6688598693775888 -0.5699723205765599
  outer loop
    vertex -30.778000000000002 -14.769 57.502
    vertex -17.198 -20.444 52.791000000000004
    vertex -13.673 -28.937 59.806000000000004
  endloop
endfacet
facet normal -0.6210753025185695 -0.7719017604535405 -0.13576870335313745
  outer loop
    vertex -30.778000000000002 -14.769 57.502
    vertex -13.673 -28.937 59.806000000000004
    vertex -25.512 -24.015 85.98
  endloop
endfacet
facet normal -0.9304812682736446 -0.1413715610130328 -0.33796255876739956
  outer loop
    vertex -30.333000000000002 13.244 70.156
    vertex -29.419 29.609 60.794000000000004
    vertex -23.537 20.433 48.438
  endloop
endfacet
facet normal -0.9889613625508764 0.1112344055175015 0.09788937843648896
  outer loop
    vertex -30.333000000000002 13.244 70.156
    vertex -28.833000000000002 12.065 86.65
    vertex -29.419 29.609 60.794000000000004
  endloop
endfacet
facet normal -0.6010572208820114 0.7956516738170535 0.07529031264189363
  outer loop
    vertex -30.333000000000002 13.244 70.156
    vertex -23.537 20.433 48.438
    vertex -28.367 17.330000000000002 42.671
  endloop
endfacet
facet normal -0.9263076682315871 0.3205904034638311 -0.19792902006087446
  outer loop
    vertex -30.056 -1.913 4.078
    vertex -27.864 14.258000000000001 20.012
    vertex -23.286 15.72 0.9550000000000001
  endloop
endfacet
facet normal -0.42551356583085775 0.0030952267117568526 -0.9049467525028813
  outer loop
    vertex -30.056 -1.913 4.078
    vertex -23.286 15.72 0.9550000000000001
    vertex -21.444 -13.773 -0.012
  endloop
endfacet
facet normal -0.36698855827311294 -0.9272605048476605 0.07421155062578931
  outer loop
    vertex -30.056 -1.913 4.078
    vertex -22.529 -4.276 11.775
    vertex -27.657 -1.1480000000000001 25.5
  endloop
endfacet
facet normal -0.8244399364072531 -0.5350462253503799 -0.18445684588844982
  outer loop
    vertex -30.056 -1.913 4.078
    vertex -21.444 -13.773 -0.012
    vertex -21.366 -16.243000000000002 6.804
  endloop
endfacet
facet normal -0.7242658907634438 -0.32335970725186514 0.6089970600935799
  outer loop
    vertex -30.056 -1.913 4.078
    vertex -21.366 -16.243000000000002 6.804
    vertex -22.529 -4.276 11.775
  endloop
endfacet
facet normal -0.8243465067461988 0.31719929221933996 -0.4688682606349986
  outer loop
    vertex -29.588 50.824 60.725
    vertex -28.746000000000002 61.686 66.593
    vertex -15.692 58.038000000000004 41.174
  endloop
endfacet
facet normal -0.8300546490102179 0.25563123030870183 -0.4956429700372877
  outer loop
    vertex -29.588 50.824 60.725
    vertex -15.692 58.038000000000004 41.174
    vertex -22.357 43.194 44.68
  endloop
endfacet
facet normal -0.9088475625757568 -0.021660452220884713 -0.41656564045741057
  outer loop
    vertex -29.419 29.609 60.794000000000004
    vertex -22.357 43.194 44.68
    vertex -23.537 20.433 48.438
  endloop
endfacet
facet normal -0.9658719637497741 0.08380175605437351 0.2450889947026554
  outer loop
    vertex -28.833000000000002 12.065 86.65
    vertex -26.717000000000002 -11.3 102.97800000000001
    vertex -24.067 31.196 98.891
  endloop
endfacet
facet normal -0.9954800821104611 -0.02599305516075895 -0.09134422370768534
  outer loop
    vertex -28.746000000000002 61.686 66.593
    vertex -27.13 85.915 42.087
    vertex -25.919 68.855 33.744
  endloop
endfacet
facet normal -0.6305967807684653 -0.7451860513824857 -0.21689962865212012
  outer loop
    vertex -28.746000000000002 61.686 66.593
    vertex -25.919 68.855 33.744
    vertex -15.692 58.038000000000004 41.174
  endloop
endfacet
facet normal -0.07324087319340185 0.9025590140198796 -0.4242911744372381
  outer loop
    vertex -28.367 17.330000000000002 42.671
    vertex -23.537 20.433 48.438
    vertex -7.7330000000000005 17.478 39.424
  endloop
endfacet
facet normal -0.543817456393955 0.829904077649526 -0.12458650015912016
  outer loop
    vertex -28.367 17.330000000000002 42.671
    vertex -21.233 19.412 25.400000000000002
    vertex -27.864 14.258000000000001 20.012
  endloop
endfacet
facet normal 0.18272477298671957 0.9642897872131844 0.19172079598547306
  outer loop
    vertex -28.367 17.330000000000002 42.671
    vertex -12.257 15.81 34.962
    vertex -21.233 19.412 25.400000000000002
  endloop
endfacet
facet normal -0.0541903086805881 0.9520923310926217 -0.30097110080491135
  outer loop
    vertex -28.367 17.330000000000002 42.671
    vertex -7.7330000000000005 17.478 39.424
    vertex -12.257 15.81 34.962
  endloop
endfacet
facet normal -0.5731974276469926 0.8159687055758227 -0.0750984717540053
  outer loop
    vertex -27.864 14.258000000000001 20.012
    vertex -21.233 19.412 25.400000000000002
    vertex -23.286 15.72 0.9550000000000001
  endloop
endfacet
facet normal -0.6581286304577367 -0.7491447205670568 -0.07515912065963722
  outer loop
    vertex -27.657 -1.1480000000000001 25.5
    vertex -22.529 -4.276 11.775
    vertex -21.900000000000002 -6.985 33.269
  endloop
endfacet
facet normal -0.5518456283262239 0.8251557360378998 -0.12076594628034527
  outer loop
    vertex -27.13 85.915 42.087
    vertex -25.783 91.813 76.231
    vertex -14.290000000000001 94.952 45.161
  endloop
endfacet
facet normal -0.989274220023439 0.0012081664437536682 -0.14606525230478487
  outer loop
    vertex -27.13 85.915 42.087
    vertex -24.387 82.996 23.485
    vertex -25.919 68.855 33.744
  endloop
endfacet
facet normal -0.7422069619963451 0.6366349425964167 -0.20934367778706162
  outer loop
    vertex -27.13 85.915 42.087
    vertex -20.6 91.571 36.136
    vertex -24.387 82.996 23.485
  endloop
endfacet
facet normal -0.5898003830352443 0.7996311531570658 0.11280747790895877
  outer loop
    vertex -27.13 85.915 42.087
    vertex -14.290000000000001 94.952 45.161
    vertex -20.6 91.571 36.136
  endloop
endfacet
facet normal -0.7443573864852063 -0.5589689514404285 0.36535707535300455
  outer loop
    vertex -26.717000000000002 -11.3 102.97800000000001
    vertex -25.512 -24.015 85.98
    vertex -15.775 -24.269000000000002 105.429
  endloop
endfacet
facet normal -0.5054638452853686 -0.2716878416510104 0.8189578852470647
  outer loop
    vertex -26.717000000000002 -11.3 102.97800000000001
    vertex -15.775 -24.269000000000002 105.429
    vertex -8.297 -5.69 116.208
  endloop
endfacet
facet normal -0.565868212489132 0.11382247955610789 0.8166012547394561
  outer loop
    vertex -26.717000000000002 -11.3 102.97800000000001
    vertex -9.831 14.02 111.15
    vertex -24.067 31.196 98.891
  endloop
endfacet
facet normal -0.6068054111576251 0.1529371940212621 0.779998338251261
  outer loop
    vertex -26.717000000000002 -11.3 102.97800000000001
    vertex -8.297 -5.69 116.208
    vertex -9.831 14.02 111.15
  endloop
endfacet
facet normal -0.9930336806821166 0.023871583662975177 -0.11538741926375581
  outer loop
    vertex -25.919 68.855 33.744
    vertex -24.387 82.996 23.485
    vertex -23.04 77.27 10.708
  endloop
endfacet
facet normal -0.5513426117575859 -0.7590614415984936 -0.34618933019193476
  outer loop
    vertex -25.919 68.855 33.744
    vertex -23.04 77.27 10.708
    vertex -15.692 58.038000000000004 41.174
  endloop
endfacet
facet normal -0.5468747744543534 0.7188125214724396 0.4292278416411657
  outer loop
    vertex -25.783 91.813 76.231
    vertex -12.098 86.176 103.107
    vertex -12.045 98.82900000000001 81.985
  endloop
endfacet
facet normal -0.4308595814805197 0.8998177457109541 -0.06846930370675675
  outer loop
    vertex -25.783 91.813 76.231
    vertex -12.045 98.82900000000001 81.985
    vertex -14.290000000000001 94.952 45.161
  endloop
endfacet
facet normal -0.9591342022438804 0.12983077801968357 0.25140714223108074
  outer loop
    vertex -25.67 78.60300000000001 -0.014
    vertex -23.04 77.27 10.708
    vertex -21.731 92.25 7.966
  endloop
endfacet
facet normal -0.2513749938852352 0.5416149268523737 -0.8021620057444107
  outer loop
    vertex -25.67 78.60300000000001 -0.014
    vertex -21.731 92.25 7.966
    vertex -12.462 94.28 6.432
  endloop
endfacet
facet normal -0.9154658889667241 -0.35999236970531456 0.17979905420306827
  outer loop
    vertex -25.67 78.60300000000001 -0.014
    vertex -17.652 61.504 6.575
    vertex -23.04 77.27 10.708
  endloop
endfacet
facet normal -0.8151785751634465 -0.49692097574839555 -0.2975792910398095
  outer loop
    vertex -25.67 78.60300000000001 -0.014
    vertex -14.946 60.967 0.059000000000000004
    vertex -17.652 61.504 6.575
  endloop
endfacet
facet normal -0.03349696917673684 0.4040810593170027 -0.914109649088785
  outer loop
    vertex -25.67 78.60300000000001 -0.014
    vertex -12.462 94.28 6.432
    vertex -5.986 80.237 -0.013000000000000001
  endloop
endfacet
facet normal 0.0003754543237017999 -0.003910924495669677 -0.9999922818220348
  outer loop
    vertex -25.67 78.60300000000001 -0.014
    vertex -5.986 80.237 -0.013000000000000001
    vertex -14.946 60.967 0.059000000000000004
  endloop
endfacet
facet normal -0.8671924310788838 -0.298563962882824 0.39854340735633687
  outer loop
    vertex -25.512 -24.015 85.98
    vertex -20.481 -37.672000000000004 86.696
    vertex -8.368 -45.522 107.172
  endloop
endfacet
facet normal -0.8788767790138142 -0.34124015856082424 -0.33336280760709747
  outer loop
    vertex -25.512 -24.015 85.98
    vertex -13.673 -28.937 59.806000000000004
    vertex -20.481 -37.672000000000004 86.696
  endloop
endfacet
facet normal -0.8634281263560409 -0.2657515003480759 0.4287983333456919
  outer loop
    vertex -25.512 -24.015 85.98
    vertex -8.368 -45.522 107.172
    vertex -15.775 -24.269000000000002 105.429
  endloop
endfacet
facet normal -0.9892679555650952 0.06224893106709652 -0.1321891927241433
  outer loop
    vertex -24.387 82.996 23.485
    vertex -21.731 92.25 7.966
    vertex -23.04 77.27 10.708
  endloop
endfacet
facet normal -0.9370937232290514 0.3460384962646251 0.045964257718698553
  outer loop
    vertex -24.387 82.996 23.485
    vertex -20.6 91.571 36.136
    vertex -21.731 92.25 7.966
  endloop
endfacet
facet normal -0.6733932023360019 -0.03094310562791995 0.7386366625491615
  outer loop
    vertex -24.067 31.196 98.891
    vertex -9.831 14.02 111.15
    vertex -19.217 53.286 104.238
  endloop
endfacet
facet normal -0.96915510993957 -0.09750339199513686 0.22634367989290713
  outer loop
    vertex -23.548000000000002 -60.581 85.455
    vertex -21.852 -79.268 84.667
    vertex -20.267 -67.565 96.495
  endloop
endfacet
facet normal -0.8301625108137711 0.3255035948355407 0.45263408553545253
  outer loop
    vertex -23.548000000000002 -60.581 85.455
    vertex -20.267 -67.565 96.495
    vertex -18.615000000000002 -56.741 91.741
  endloop
endfacet
facet normal -0.7277885836568485 0.6658017987997676 0.16441332736050324
  outer loop
    vertex -23.548000000000002 -60.581 85.455
    vertex -18.615000000000002 -56.741 91.741
    vertex -16.490000000000002 -49.407000000000004 71.44800000000001
  endloop
endfacet
facet normal -0.9064911880847842 0.046530859576370966 -0.41965295784936407
  outer loop
    vertex -23.548000000000002 -60.581 85.455
    vertex -16.490000000000002 -49.407000000000004 71.44800000000001
    vertex -15.964 -67.1 68.35000000000001
  endloop
endfacet
facet normal -0.921364976023275 -0.06747960809931423 -0.38279639947156346
  outer loop
    vertex -23.548000000000002 -60.581 85.455
    vertex -15.964 -67.1 68.35000000000001
    vertex -21.852 -79.268 84.667
  endloop
endfacet
facet normal -0.6185708071962481 -0.09667504741067978 -0.7797589959036862
  outer loop
    vertex -23.537 20.433 48.438
    vertex -22.357 43.194 44.68
    vertex -8.839 37.672000000000004 34.641
  endloop
endfacet
facet normal -0.5141224886278308 -0.22424435156362557 -0.8278843744623611
  outer loop
    vertex -23.537 20.433 48.438
    vertex -8.839 37.672000000000004 34.641
    vertex -7.7330000000000005 17.478 39.424
  endloop
endfacet
facet normal -0.4388705015716015 -0.8876517075536319 0.13952465347533582
  outer loop
    vertex -23.359 -64.22 108.05
    vertex -20.267 -67.565 96.495
    vertex -10.844 -70.385 108.194
  endloop
endfacet
facet normal -0.9633754882395397 0.029996634108220323 -0.2664730204005762
  outer loop
    vertex -23.359 -64.22 108.05
    vertex -18.615000000000002 -56.741 91.741
    vertex -20.267 -67.565 96.495
  endloop
endfacet
facet normal -0.7429796778334452 0.6634848805237076 0.08814199704426658
  outer loop
    vertex -23.359 -64.22 108.05
    vertex -14.382 -53.447 102.627
    vertex -18.615000000000002 -56.741 91.741
  endloop
endfacet
facet normal -0.11835991451380501 -0.2176420856222913 0.9688255019363725
  outer loop
    vertex -23.359 -64.22 108.05
    vertex -10.844 -70.385 108.194
    vertex -8.471 -60.854 110.625
  endloop
endfacet
facet normal -0.26623366829546596 0.6011456982439686 0.7534875469101737
  outer loop
    vertex -23.359 -64.22 108.05
    vertex -8.471 -60.854 110.625
    vertex -14.382 -53.447 102.627
  endloop
endfacet
facet normal 0.12089651696016418 0.9799838842113225 -0.1581632665096101
  outer loop
    vertex -23.286 15.72 0.9550000000000001
    vertex -21.233 19.412 25.400000000000002
    vertex -13.042 14.836 3.3080000000000003
  endloop
endfacet
facet normal 0.23104621863719016 0.5603957772216831 -0.7953453449449249
  outer loop
    vertex -23.286 15.72 0.9550000000000001
    vertex -13.042 14.836 3.3080000000000003
    vertex -9.261000000000001 8.595 0.009000000000000001
  endloop
endfacet
facet normal -0.052363940231541964 0.029457794494980115 -0.998193496325697
  outer loop
    vertex -23.286 15.72 0.9550000000000001
    vertex -9.261000000000001 8.595 0.009000000000000001
    vertex -21.444 -13.773 -0.012
  endloop
endfacet
facet normal -0.6669882034294018 -0.393755186059915 0.6325216122291323
  outer loop
    vertex -23.04 77.27 10.708
    vertex -17.652 61.504 6.575
    vertex -12.615 72.515 18.741
  endloop
endfacet
facet normal 0.031331925356133765 -0.8417667316151111 -0.5389314242085826
  outer loop
    vertex -23.04 77.27 10.708
    vertex -12.615 72.515 18.741
    vertex -15.692 58.038000000000004 41.174
  endloop
endfacet
facet normal 0.0014455226651538318 -0.38349219090723236 0.9235429876174662
  outer loop
    vertex -22.529 -4.276 11.775
    vertex -21.366 -16.243000000000002 6.804
    vertex -12.302 -1.7690000000000001 12.8
  endloop
endfacet
facet normal 0.24822854132837455 -0.9601702926887363 -0.12827938379963405
  outer loop
    vertex -22.529 -4.276 11.775
    vertex -12.302 -1.7690000000000001 12.8
    vertex -21.900000000000002 -6.985 33.269
  endloop
endfacet
facet normal -0.5771208390028137 0.06689068851413012 -0.8139147209498018
  outer loop
    vertex -22.357 43.194 44.68
    vertex -15.692 58.038000000000004 41.174
    vertex -8.839 37.672000000000004 34.641
  endloop
endfacet
facet normal 0.4854745913511943 -0.8742372455444891 0.004864119157199083
  outer loop
    vertex -21.900000000000002 -6.985 33.269
    vertex -12.302 -1.7690000000000001 12.8
    vertex -10.658 -0.718 37.615
  endloop
endfacet
facet normal 0.5580898640740343 -0.6142399473240007 -0.5578933506766638
  outer loop
    vertex -21.900000000000002 -6.985 33.269
    vertex -10.658 -0.718 37.615
    vertex -17.198 -20.444 52.791000000000004
  endloop
endfacet
facet normal -0.7775756941835907 -0.3362438736482117 -0.5313342613166898
  outer loop
    vertex -21.852 -79.268 84.667
    vertex -15.964 -67.1 68.35000000000001
    vertex -12.19 -87.028 75.438
  endloop
endfacet
facet normal -0.5337201647885544 -0.8336242863724209 0.14217360819839384
  outer loop
    vertex -21.852 -79.268 84.667
    vertex -12.19 -87.028 75.438
    vertex 1.079 -93.033 90.04
  endloop
endfacet
facet normal -0.7555113158789463 -0.41226871029340784 0.5091533777673217
  outer loop
    vertex -21.852 -79.268 84.667
    vertex -10.844 -70.385 108.194
    vertex -20.267 -67.565 96.495
  endloop
endfacet
facet normal -0.7829906503670468 -0.3645674229794033 0.504000233670527
  outer loop
    vertex -21.852 -79.268 84.667
    vertex -9.622 -87.806 97.491
    vertex -10.844 -70.385 108.194
  endloop
endfacet
facet normal -0.49391516798690055 -0.8633001967720892 -0.1037332014629056
  outer loop
    vertex -21.852 -79.268 84.667
    vertex 1.079 -93.033 90.04
    vertex -9.622 -87.806 97.491
  endloop
endfacet
facet normal -0.20878243074177527 0.9774403231727232 0.03194231127452002
  outer loop
    vertex -21.731 92.25 7.966
    vertex -20.6 91.571 36.136
    vertex -12.462 94.28 6.432
  endloop
endfacet
facet normal 0.865499915351195 -0.4676864197405665 -0.17938592285161284
  outer loop
    vertex -21.444 -13.773 -0.012
    vertex -12.302 -1.7690000000000001 12.8
    vertex -21.366 -16.243000000000002 6.804
  endloop
endfacet
facet normal 0.08532484047580666 -0.9606395199686567 0.2643697869881633
  outer loop
    vertex -21.444 -13.773 -0.012
    vertex -10.556000000000001 -12.815 -0.045
    vertex -8.222 -12.005 2.145
  endloop
endfacet
facet normal -0.0032701528165512135 0.0027199607383888882 -0.9999909539161531
  outer loop
    vertex -21.444 -13.773 -0.012
    vertex -9.261000000000001 8.595 0.009000000000000001
    vertex -10.556000000000001 -12.815 -0.045
  endloop
endfacet
facet normal -0.015677658639122315 -0.7240476593214403 0.6895717497481598
  outer loop
    vertex -21.444 -13.773 -0.012
    vertex -8.222 -12.005 2.145
    vertex -12.302 -1.7690000000000001 12.8
  endloop
endfacet
facet normal 0.4069133873242782 0.912668737882908 -0.03817420735918087
  outer loop
    vertex -21.233 19.412 25.400000000000002
    vertex -12.257 15.81 34.962
    vertex -13.042 14.836 3.3080000000000003
  endloop
endfacet
facet normal -0.43148602886639786 0.9014007627394583 -0.0360065525401815
  outer loop
    vertex -20.6 91.571 36.136
    vertex -14.290000000000001 94.952 45.161
    vertex -12.462 94.28 6.432
  endloop
endfacet
facet normal -0.9324510919020704 0.0043344974968359306 0.36127022205281006
  outer loop
    vertex -20.481 -37.672000000000004 86.696
    vertex -18.615000000000002 -56.741 91.741
    vertex -14.382 -53.447 102.627
  endloop
endfacet
facet normal -0.9790444957930474 -0.13592471545124826 -0.15164546477502988
  outer loop
    vertex -20.481 -37.672000000000004 86.696
    vertex -16.490000000000002 -49.407000000000004 71.44800000000001
    vertex -18.615000000000002 -56.741 91.741
  endloop
endfacet
facet normal -0.7804688095754887 0.26845796807445765 0.56462266750207
  outer loop
    vertex -20.481 -37.672000000000004 86.696
    vertex -14.382 -53.447 102.627
    vertex -8.368 -45.522 107.172
  endloop
endfacet
facet normal -0.9687967023274858 -0.007576889906753511 -0.24774087329048042
  outer loop
    vertex -20.481 -37.672000000000004 86.696
    vertex -13.673 -28.937 59.806000000000004
    vertex -16.490000000000002 -49.407000000000004 71.44800000000001
  endloop
endfacet
facet normal -0.34573760891435507 0.0819003670520382 0.9347501461133483
  outer loop
    vertex -19.217 53.286 104.238
    vertex -9.831 14.02 111.15
    vertex 1.724 35.464 113.545
  endloop
endfacet
facet normal -0.483117279853276 -0.11435078963585703 0.8680562140880206
  outer loop
    vertex -19.217 53.286 104.238
    vertex 1.724 35.464 113.545
    vertex -15.515 65.953 107.967
  endloop
endfacet
facet normal 0.6786209827619902 -0.653302947436561 0.33566176521291885
  outer loop
    vertex -17.652 61.504 6.575
    vertex -14.946 60.967 0.059000000000000004
    vertex -7.694 72.261 7.3790000000000004
  endloop
endfacet
facet normal 0.6855671646792729 -0.6579373457811719 0.3116345804625175
  outer loop
    vertex -17.652 61.504 6.575
    vertex -7.694 72.261 7.3790000000000004
    vertex -12.615 72.515 18.741
  endloop
endfacet
facet normal -0.06747533588823035 -0.5942262558096677 -0.8014625605436564
  outer loop
    vertex -17.198 -20.444 52.791000000000004
    vertex -10.658 -0.718 37.615
    vertex -0.394 -9.86 43.529
  endloop
endfacet
facet normal -0.01881242180564217 -0.6413470709459096 -0.7670202261837096
  outer loop
    vertex -17.198 -20.444 52.791000000000004
    vertex -0.394 -9.86 43.529
    vertex -13.673 -28.937 59.806000000000004
  endloop
endfacet
facet normal -0.2863743027413758 -0.443586636505947 -0.84924711047064
  outer loop
    vertex -16.490000000000002 -49.407000000000004 71.44800000000001
    vertex -13.673 -28.937 59.806000000000004
    vertex -3.368 -39.011 61.593
  endloop
endfacet
facet normal -0.6519316914365231 0.111936450000046 -0.7499701999827068
  outer loop
    vertex -16.490000000000002 -49.407000000000004 71.44800000000001
    vertex -3.368 -39.011 61.593
    vertex -15.964 -67.1 68.35000000000001
  endloop
endfacet
facet normal -0.5709610459180879 -0.36898103160507684 -0.7333869935850896
  outer loop
    vertex -15.964 -67.1 68.35000000000001
    vertex -5.804 -82.754 68.316
    vertex -12.19 -87.028 75.438
  endloop
endfacet
facet normal -0.18271723556026387 -0.15173722947588258 -0.9713857241179729
  outer loop
    vertex -15.964 -67.1 68.35000000000001
    vertex -3.368 -39.011 61.593
    vertex 8.457 -65.977 63.581
  endloop
endfacet
facet normal -0.18509285478716284 -0.11801282015078232 -0.9756093528594308
  outer loop
    vertex -15.964 -67.1 68.35000000000001
    vertex 8.457 -65.977 63.581
    vertex -5.804 -82.754 68.316
  endloop
endfacet
facet normal -0.3315437932696064 -0.03823838929117678 0.9426645950330462
  outer loop
    vertex -15.775 -24.269000000000002 105.429
    vertex -8.368 -45.522 107.172
    vertex 0.47400000000000003 -23.848 111.161
  endloop
endfacet
facet normal -0.2978941574516297 -0.3865031699472175 0.8728541519503336
  outer loop
    vertex -15.775 -24.269000000000002 105.429
    vertex 0.47400000000000003 -23.848 111.161
    vertex -8.297 -5.69 116.208
  endloop
endfacet
facet normal 0.37151719986238824 -0.8024752542435039 -0.466913735644213
  outer loop
    vertex -15.692 58.038000000000004 41.174
    vertex -12.615 72.515 18.741
    vertex -5.197 64.935 37.671
  endloop
endfacet
facet normal -0.4024372540905246 0.1540522196342696 -0.9023924701291746
  outer loop
    vertex -15.692 58.038000000000004 41.174
    vertex -5.197 64.935 37.671
    vertex -8.839 37.672000000000004 34.641
  endloop
endfacet
facet normal -0.25848470021125447 0.03049396625411927 0.965533934037945
  outer loop
    vertex -15.515 65.953 107.967
    vertex 1.724 35.464 113.545
    vertex 3.878 73.607 112.917
  endloop
endfacet
facet normal -0.3378224520052552 0.27351138114033596 0.9005928687858143
  outer loop
    vertex -15.515 65.953 107.967
    vertex 3.878 73.607 112.917
    vertex -12.098 86.176 103.107
  endloop
endfacet
facet normal 0.8801142966619484 -0.41012163226818893 -0.23916327384638333
  outer loop
    vertex -14.946 60.967 0.059000000000000004
    vertex -5.986 80.237 -0.013000000000000001
    vertex -7.694 72.261 7.3790000000000004
  endloop
endfacet
facet normal -0.71894819111243 0.1573070751281943 0.6770287900900357
  outer loop
    vertex -14.382 -53.447 102.627
    vertex -8.471 -60.854 110.625
    vertex -8.368 -45.522 107.172
  endloop
endfacet
facet normal -0.03724320041572889 0.9940471744138414 -0.1023872993229731
  outer loop
    vertex -14.290000000000001 94.952 45.161
    vertex -12.045 98.82900000000001 81.985
    vertex -7.135 97.806 70.267
  endloop
endfacet
facet normal 0.41196249943166907 0.8847433890163692 -0.21798173009186292
  outer loop
    vertex -14.290000000000001 94.952 45.161
    vertex -7.135 97.806 70.267
    vertex -3.607 92.065 53.633
  endloop
endfacet
facet normal 0.6753065459905997 0.7372902897316829 0.01908134192391046
  outer loop
    vertex -14.290000000000001 94.952 45.161
    vertex -6.9910000000000005 88.493 36.414
    vertex -12.462 94.28 6.432
  endloop
endfacet
facet normal 0.4415431561306452 0.8573294100227686 -0.26462411829650007
  outer loop
    vertex -14.290000000000001 94.952 45.161
    vertex -3.607 92.065 53.633
    vertex -6.9910000000000005 88.493 36.414
  endloop
endfacet
facet normal -0.3220370721537763 -0.4747203089506944 -0.8191048482510531
  outer loop
    vertex -13.673 -28.937 59.806000000000004
    vertex -0.394 -9.86 43.529
    vertex -3.368 -39.011 61.593
  endloop
endfacet
facet normal 0.8737227975928715 0.48504581572741806 -0.03659275354232986
  outer loop
    vertex -13.042 14.836 3.3080000000000003
    vertex -12.257 15.81 34.962
    vertex -8.302 6.41 4.796
  endloop
endfacet
facet normal 0.866283804202812 0.49671388166676433 0.053176031587922015
  outer loop
    vertex -13.042 14.836 3.3080000000000003
    vertex -8.302 6.41 4.796
    vertex -9.261000000000001 8.595 0.009000000000000001
  endloop
endfacet
facet normal 0.886633119991616 -0.2492150810954615 0.38958125453942893
  outer loop
    vertex -12.615 72.515 18.741
    vertex -7.694 72.261 7.3790000000000004
    vertex -6.664 86.063 13.864
  endloop
endfacet
facet normal 0.7255106367606502 -0.49193502166763015 -0.4812839602604933
  outer loop
    vertex -12.615 72.515 18.741
    vertex -6.664 86.063 13.864
    vertex -5.197 64.935 37.671
  endloop
endfacet
facet normal 0.8356482456889991 0.5472627990097855 -0.04685550444583021
  outer loop
    vertex -12.462 94.28 6.432
    vertex -6.9910000000000005 88.493 36.414
    vertex -6.664 86.063 13.864
  endloop
endfacet
facet normal 0.867933530884005 0.4716721367790345 -0.15561741982671354
  outer loop
    vertex -12.462 94.28 6.432
    vertex -6.664 86.063 13.864
    vertex -5.986 80.237 -0.013000000000000001
  endloop
endfacet
facet normal 0.8822402541708322 -0.46921641878140985 -0.03857572120562507
  outer loop
    vertex -12.302 -1.7690000000000001 12.8
    vertex -8.302 6.41 4.796
    vertex -10.658 -0.718 37.615
  endloop
endfacet
facet normal 0.914143714646686 -0.05387059822333047 0.4017950069612848
  outer loop
    vertex -12.302 -1.7690000000000001 12.8
    vertex -8.222 -12.005 2.145
    vertex -8.302 6.41 4.796
  endloop
endfacet
facet normal 0.989260865917808 0.11097408986721691 0.09511934893433309
  outer loop
    vertex -12.257 15.81 34.962
    vertex -10.658 -0.718 37.615
    vertex -8.302 6.41 4.796
  endloop
endfacet
facet normal 0.7097371389857738 -0.044191632590965146 -0.7030791514141445
  outer loop
    vertex -12.257 15.81 34.962
    vertex -7.7330000000000005 17.478 39.424
    vertex -10.658 -0.718 37.615
  endloop
endfacet
facet normal -0.7283638691355158 -0.05039299695032747 -0.6833349251986945
  outer loop
    vertex -12.19 -87.028 75.438
    vertex -5.804 -82.754 68.316
    vertex -4.746 -99.741 68.441
  endloop
endfacet
facet normal -0.7643112070922522 -0.19178132204399106 0.6156689883600142
  outer loop
    vertex -12.19 -87.028 75.438
    vertex -5.1850000000000005 -103.308 79.063
    vertex 1.079 -93.033 90.04
  endloop
endfacet
facet normal -0.8887694800092234 -0.4221682089621221 -0.17850158191413498
  outer loop
    vertex -12.19 -87.028 75.438
    vertex -4.746 -99.741 68.441
    vertex -5.1850000000000005 -103.308 79.063
  endloop
endfacet
facet normal -0.4714342187086981 0.7570640687344263 0.4523314860384972
  outer loop
    vertex -12.098 86.176 103.107
    vertex 0.19 95.229 100.762
    vertex -12.045 98.82900000000001 81.985
  endloop
endfacet
facet normal -0.17277985972949325 0.46010761420306096 0.8708892601382934
  outer loop
    vertex -12.098 86.176 103.107
    vertex 3.878 73.607 112.917
    vertex 0.19 95.229 100.762
  endloop
endfacet
facet normal -0.566850001376512 0.7655401676922347 -0.30435066549819395
  outer loop
    vertex -12.045 98.82900000000001 81.985
    vertex -0.08600000000000001 105.552 76.622
    vertex -7.135 97.806 70.267
  endloop
endfacet
facet normal -0.32046978042105756 0.8696344836823744 0.37554624832018924
  outer loop
    vertex -12.045 98.82900000000001 81.985
    vertex 0.19 95.229 100.762
    vertex -0.08600000000000001 105.552 76.622
  endloop
endfacet
facet normal -0.16772474027246226 -0.5245713046280627 0.8346815907047113
  outer loop
    vertex -10.844 -70.385 108.194
    vertex -9.622 -87.806 97.491
    vertex 6.05 -87.21600000000001 101.011
  endloop
endfacet
facet normal 0.13054710778429782 -0.2754287936149529 0.9524161024977301
  outer loop
    vertex -10.844 -70.385 108.194
    vertex 6.05 -87.21600000000001 101.011
    vertex -8.471 -60.854 110.625
  endloop
endfacet
facet normal 0.5026705129225965 0.005138600426376219 -0.8644628102028402
  outer loop
    vertex -10.658 -0.718 37.615
    vertex -7.7330000000000005 17.478 39.424
    vertex -0.394 -9.86 43.529
  endloop
endfacet
facet normal 0.403831498303293 -0.9100113709586966 -0.09380525413851293
  outer loop
    vertex -10.556000000000001 -12.815 -0.045
    vertex -9.697000000000001 -12.447000000000001 0.083
    vertex -8.222 -12.005 2.145
  endloop
endfacet
facet normal 0.11539715601081511 -0.00447457318393798 -0.9933093549239518
  outer loop
    vertex -10.556000000000001 -12.815 -0.045
    vertex -9.261000000000001 8.595 0.009000000000000001
    vertex -9.481 -12.174 0.077
  endloop
endfacet
facet normal -0.24600528414108358 0.22292067920140476 0.9432856253325655
  outer loop
    vertex -9.831 14.02 111.15
    vertex -8.297 -5.69 116.208
    vertex 0.203 6.4830000000000005 115.548
  endloop
endfacet
facet normal -0.34724703337552176 0.08278493030079924 0.9341124948992979
  outer loop
    vertex -9.831 14.02 111.15
    vertex 0.203 6.4830000000000005 115.548
    vertex 1.724 35.464 113.545
  endloop
endfacet
facet normal 0.773304926735322 -0.6152154959002679 -0.15332770099060958
  outer loop
    vertex -9.697000000000001 -12.447000000000001 0.083
    vertex -9.586 -12.3 0.053
    vertex -9.481 -12.174 0.077
  endloop
endfacet
facet normal 0.7179444422035975 -0.5766145771501835 -0.38996334100384406
  outer loop
    vertex -9.697000000000001 -12.447000000000001 0.083
    vertex -9.481 -12.174 0.077
    vertex -8.222 -12.005 2.145
  endloop
endfacet
facet normal -0.0784846678372532 -0.8656133228384612 0.4945237428466242
  outer loop
    vertex -9.622 -87.806 97.491
    vertex 1.079 -93.033 90.04
    vertex 6.05 -87.21600000000001 101.011
  endloop
endfacet
facet normal 0.854499336100765 -0.010751844362763446 -0.5193412004127449
  outer loop
    vertex -9.481 -12.174 0.077
    vertex -9.261000000000001 8.595 0.009000000000000001
    vertex -8.222 -12.005 2.145
  endloop
endfacet
facet normal 0.9826564781419772 0.030598044698878276 -0.1828934269628386
  outer loop
    vertex -9.261000000000001 8.595 0.009000000000000001
    vertex -8.302 6.41 4.796
    vertex -8.222 -12.005 2.145
  endloop
endfacet
facet normal 0.006080360276219893 0.1096551060933208 -0.993951098860791
  outer loop
    vertex -8.839 37.672000000000004 34.641
    vertex -5.197 64.935 37.671
    vertex 8.147 36.712 34.639
  endloop
endfacet
facet normal -0.013177876361097412 -0.23113931775242316 -0.9728314136393601
  outer loop
    vertex -8.839 37.672000000000004 34.641
    vertex 8.147 36.712 34.639
    vertex -7.7330000000000005 17.478 39.424
  endloop
endfacet
facet normal -0.08755214475118521 -0.3835148684084756 0.919375313818626
  outer loop
    vertex -8.471 -60.854 110.625
    vertex 6.05 -87.21600000000001 101.011
    vertex 10.821 -68.854 109.125
  endloop
endfacet
facet normal 0.05154283740278215 0.21909044401311775 0.9743421951525065
  outer loop
    vertex -8.471 -60.854 110.625
    vertex 8.032 -55.424 108.531
    vertex -8.368 -45.522 107.172
  endloop
endfacet
facet normal 0.10434695364756212 0.06556187371439194 0.992377626702422
  outer loop
    vertex -8.471 -60.854 110.625
    vertex 10.821 -68.854 109.125
    vertex 8.032 -55.424 108.531
  endloop
endfacet
facet normal -0.15271853861930243 -0.11827699755007862 0.9811664485766538
  outer loop
    vertex -8.368 -45.522 107.172
    vertex 8.032 -55.424 108.531
    vertex 0.47400000000000003 -23.848 111.161
  endloop
endfacet
facet normal 0.04106338865984966 -0.2491096065039274 0.9676043623605821
  outer loop
    vertex -8.297 -5.69 116.208
    vertex 0.47400000000000003 -23.848 111.161
    vertex 9.842 -5.92 115.379
  endloop
endfacet
facet normal 0.04592324423634309 0.022081246491469225 0.998700893256931
  outer loop
    vertex -8.297 -5.69 116.208
    vertex 9.842 -5.92 115.379
    vertex 0.203 6.4830000000000005 115.548
  endloop
endfacet
facet normal 0.03201405673749158 -0.14000629232899528 -0.9896329310807601
  outer loop
    vertex -7.7330000000000005 17.478 39.424
    vertex 4.071 16.346 39.966
    vertex -0.394 -9.86 43.529
  endloop
endfacet
facet normal 0.019751415316682633 -0.2566989723048803 -0.9662895628177954
  outer loop
    vertex -7.7330000000000005 17.478 39.424
    vertex 8.147 36.712 34.639
    vertex 4.071 16.346 39.966
  endloop
endfacet
facet normal 0.9878470410438469 -0.12008553055688859 0.09867972867710326
  outer loop
    vertex -7.694 72.261 7.3790000000000004
    vertex -5.986 80.237 -0.013000000000000001
    vertex -6.664 86.063 13.864
  endloop
endfacet
facet normal 0.01512525194850463 0.6259400193872191 -0.7797245147377516
  outer loop
    vertex -7.135 97.806 70.267
    vertex -0.08600000000000001 105.552 76.622
    vertex 8.739 99.276 71.755
  endloop
endfacet
facet normal -0.055540426700752515 0.9401322447401063 -0.33625380801089383
  outer loop
    vertex -7.135 97.806 70.267
    vertex 8.739 99.276 71.755
    vertex -3.607 92.065 53.633
  endloop
endfacet
facet normal 0.8222583687633429 0.5031411145468652 -0.2659702875345
  outer loop
    vertex -6.9910000000000005 88.493 36.414
    vertex -3.607 92.065 53.633
    vertex -1.492 79.64 36.667
  endloop
endfacet
facet normal 0.8491974259226075 0.5262064812620714 -0.04438998630554928
  outer loop
    vertex -6.9910000000000005 88.493 36.414
    vertex -1.492 79.64 36.667
    vertex -6.664 86.063 13.864
  endloop
endfacet
facet normal 0.9258693518314837 -0.25247080917365033 -0.28111284896701266
  outer loop
    vertex -6.664 86.063 13.864
    vertex -1.492 79.64 36.667
    vertex -5.197 64.935 37.671
  endloop
endfacet
facet normal -0.02267615316847962 -0.00876873026030172 -0.9997044070359505
  outer loop
    vertex -5.804 -82.754 68.316
    vertex 5.579 -87.337 68.098
    vertex -4.746 -99.741 68.441
  endloop
endfacet
facet normal -0.09658620356048066 -0.19345360071382897 -0.9763435920067421
  outer loop
    vertex -5.804 -82.754 68.316
    vertex 8.457 -65.977 63.581
    vertex 5.579 -87.337 68.098
  endloop
endfacet
facet normal 0.24611387108384397 -0.1276095757708382 -0.9608037045264302
  outer loop
    vertex -5.197 64.935 37.671
    vertex -1.492 79.64 36.667
    vertex 0.737 76.613 37.64
  endloop
endfacet
facet normal -0.1795013247489123 0.08861006462626433 -0.979758914662334
  outer loop
    vertex -5.197 64.935 37.671
    vertex 0.737 76.613 37.64
    vertex 8.708 63.802 35.021
  endloop
endfacet
facet normal -0.19749548133006178 -0.5863934788825861 -0.7855814552152979
  outer loop
    vertex -5.197 64.935 37.671
    vertex 8.708 63.802 35.021
    vertex 20.227 48.156 43.804
  endloop
endfacet
facet normal 0.39647658065598296 0.28133684205992426 -0.8738740769075881
  outer loop
    vertex -5.197 64.935 37.671
    vertex 20.227 48.156 43.804
    vertex 8.147 36.712 34.639
  endloop
endfacet
facet normal -0.17028575092248385 -0.9319851633557363 -0.32001002846402643
  outer loop
    vertex -5.1850000000000005 -103.308 79.063
    vertex -4.746 -99.741 68.441
    vertex 7.034 -103.935 74.387
  endloop
endfacet
facet normal 0.1936920748919531 -0.7689577379145164 0.6092514894733045
  outer loop
    vertex -5.1850000000000005 -103.308 79.063
    vertex 7.034 -103.935 74.387
    vertex 1.079 -93.033 90.04
  endloop
endfacet
facet normal 0.3394248283591985 -0.30712001975698666 -0.8890827179502461
  outer loop
    vertex -4.746 -99.741 68.441
    vertex 5.579 -87.337 68.098
    vertex 7.034 -103.935 74.387
  endloop
endfacet
facet normal -0.36369497686940566 0.7293422806364721 -0.5794702766112788
  outer loop
    vertex -3.607 92.065 53.633
    vertex 5.247 88.628 43.75
    vertex -1.492 79.64 36.667
  endloop
endfacet
facet normal -0.029744935082595615 0.9355288401546004 -0.3519957784916179
  outer loop
    vertex -3.607 92.065 53.633
    vertex 8.739 99.276 71.755
    vertex 5.247 88.628 43.75
  endloop
endfacet
facet normal 0.2567238460313013 -0.5278725770504776 -0.8095945956322733
  outer loop
    vertex -3.368 -39.011 61.593
    vertex -0.394 -9.86 43.529
    vertex 16.133 -28.05 60.63
  endloop
endfacet
facet normal 0.4881529669288409 0.15068687583671334 -0.8596511771231056
  outer loop
    vertex -3.368 -39.011 61.593
    vertex 4.684 -51.073 64.051
    vertex 8.457 -65.977 63.581
  endloop
endfacet
facet normal 0.0466423138569639 -0.16947163167189536 -0.9844307292118293
  outer loop
    vertex -3.368 -39.011 61.593
    vertex 16.133 -28.05 60.63
    vertex 4.684 -51.073 64.051
  endloop
endfacet
facet normal 0.5884647850694781 0.17995670753172754 -0.7882415747392885
  outer loop
    vertex -1.492 79.64 36.667
    vertex 5.247 88.628 43.75
    vertex 0.737 76.613 37.64
  endloop
endfacet
facet normal -0.2164239021394657 -0.0952314026248848 -0.9716438002358807
  outer loop
    vertex -0.394 -9.86 43.529
    vertex 4.071 16.346 39.966
    vertex 9.867 -1.448 40.419000000000004
  endloop
endfacet
facet normal 0.21477625067236253 -0.5582639163810494 -0.8013816580219536
  outer loop
    vertex -0.394 -9.86 43.529
    vertex 9.867 -1.448 40.419000000000004
    vertex 16.133 -28.05 60.63
  endloop
endfacet
facet normal 0.2642186658439988 0.8878714605934682 0.37666001391604953
  outer loop
    vertex -0.08600000000000001 105.552 76.622
    vertex 0.19 95.229 100.762
    vertex 11.31 96.955 88.893
  endloop
endfacet
facet normal 0.5872575078384623 0.8091151012013218 0.02147958322065465
  outer loop
    vertex -0.08600000000000001 105.552 76.622
    vertex 11.31 96.955 88.893
    vertex 8.739 99.276 71.755
  endloop
endfacet
facet normal 0.3642896551400691 0.5028052546886793 0.7838876979615013
  outer loop
    vertex 0.19 95.229 100.762
    vertex 3.878 73.607 112.917
    vertex 16.353 83.765 100.604
  endloop
endfacet
facet normal 0.4854982959375603 0.6768744568311007 0.5532923046015799
  outer loop
    vertex 0.19 95.229 100.762
    vertex 16.353 83.765 100.604
    vertex 11.31 96.955 88.893
  endloop
endfacet
facet normal 0.33043623258765586 0.2443769480012162 0.9116423659960562
  outer loop
    vertex 0.203 6.4830000000000005 115.548
    vertex 9.842 -5.92 115.379
    vertex 14.598 15.333 107.958
  endloop
endfacet
facet normal 0.44755686176951515 0.0382602250383085 0.8934366293493015
  outer loop
    vertex 0.203 6.4830000000000005 115.548
    vertex 14.598 15.333 107.958
    vertex 1.724 35.464 113.545
  endloop
endfacet
facet normal 0.43145510631320666 0.02816953263232931 0.9016944985234941
  outer loop
    vertex 0.47400000000000003 -23.848 111.161
    vertex 8.032 -55.424 108.531
    vertex 14.314 -29.621000000000002 104.71900000000001
  endloop
endfacet
facet normal 0.2702579864977807 -0.3520518329712552 0.8961139032710879
  outer loop
    vertex 0.47400000000000003 -23.848 111.161
    vertex 14.314 -29.621000000000002 104.71900000000001
    vertex 9.842 -5.92 115.379
  endloop
endfacet
facet normal -0.9213769738399743 0.3820839255461457 -0.07124848010125318
  outer loop
    vertex 0.737 76.613 37.64
    vertex 5.247 88.628 43.75
    vertex 6.574 86.435 14.829
  endloop
endfacet
facet normal -0.8148389362550053 -0.4267979417527626 -0.3922767197762528
  outer loop
    vertex 0.737 76.613 37.64
    vertex 6.574 86.435 14.829
    vertex 8.708 63.802 35.021
  endloop
endfacet
facet normal 0.8158629833540121 -0.28042587036182576 0.5056964738106282
  outer loop
    vertex 1.079 -93.033 90.04
    vertex 7.034 -103.935 74.387
    vertex 12.436 -85.73 75.767
  endloop
endfacet
facet normal 0.566411616888773 -0.8236020432411675 0.02928403357497016
  outer loop
    vertex 1.079 -93.033 90.04
    vertex 12.436 -85.73 75.767
    vertex 21.304000000000002 -79.135 89.724
  endloop
endfacet
facet normal 0.559366795466749 -0.8100135011925276 0.17603100867484467
  outer loop
    vertex 1.079 -93.033 90.04
    vertex 21.304000000000002 -79.135 89.724
    vertex 6.05 -87.21600000000001 101.011
  endloop
endfacet
facet normal 0.433594953909631 0.027317352343278083 0.9006937205316012
  outer loop
    vertex 1.724 35.464 113.545
    vertex 14.598 15.333 107.958
    vertex 18.486 53.854 104.918
  endloop
endfacet
facet normal 0.46785573155002563 -0.011870641145311982 0.8837251282692995
  outer loop
    vertex 1.724 35.464 113.545
    vertex 18.486 53.854 104.918
    vertex 3.878 73.607 112.917
  endloop
endfacet
facet normal 0.6272794802038334 0.1548144284221031 0.7632515617196901
  outer loop
    vertex 3.878 73.607 112.917
    vertex 18.486 53.854 104.918
    vertex 16.353 83.765 100.604
  endloop
endfacet
facet normal 0.36906357032821857 -0.30362346282955077 -0.8784104245032502
  outer loop
    vertex 4.071 16.346 39.966
    vertex 8.147 36.712 34.639
    vertex 21.69 19.643 46.229
  endloop
endfacet
facet normal -0.5053641860980563 -0.1860622764061297 -0.842607778689479
  outer loop
    vertex 4.071 16.346 39.966
    vertex 11.995000000000001 15.447000000000001 35.412
    vertex 9.867 -1.448 40.419000000000004
  endloop
endfacet
facet normal -0.06859763812890488 0.9493107568382582 -0.30676285791195324
  outer loop
    vertex 4.071 16.346 39.966
    vertex 21.69 19.643 46.229
    vertex 11.995000000000001 15.447000000000001 35.412
  endloop
endfacet
facet normal 0.5043057396257346 -0.36693511491986 -0.7816868570081564
  outer loop
    vertex 4.684 -51.073 64.051
    vertex 16.133 -28.05 60.63
    vertex 16.984 -53.929 73.327
  endloop
endfacet
facet normal 0.6186077759695789 0.1807156110501822 -0.7646347411887132
  outer loop
    vertex 4.684 -51.073 64.051
    vertex 16.984 -53.929 73.327
    vertex 8.457 -65.977 63.581
  endloop
endfacet
facet normal -0.8293672102554288 0.059270555365791136 0.5555511063977445
  outer loop
    vertex 4.9190000000000005 78.977 0.004
    vertex 6.114 63.708 3.4170000000000003
    vertex 12.798 72.016 12.509
  endloop
endfacet
facet normal -0.8572253275265176 0.49204710007277186 -0.1518367187376962
  outer loop
    vertex 4.9190000000000005 78.977 0.004
    vertex 6.574 86.435 14.829
    vertex 12.744 94.522 6.202
  endloop
endfacet
facet normal -0.6543985529674053 -0.21336520465631414 -0.7254225136540325
  outer loop
    vertex 4.9190000000000005 78.977 0.004
    vertex 10.176 62.738 0.038
    vertex 6.114 63.708 3.4170000000000003
  endloop
endfacet
facet normal -0.520175435893411 0.5291397408943617 -0.670394399215378
  outer loop
    vertex 4.9190000000000005 78.977 0.004
    vertex 12.744 94.522 6.202
    vertex 13.533 87.44 0
  endloop
endfacet
facet normal -0.8551975858204013 -0.4183739810302673 0.30594166307295084
  outer loop
    vertex 4.9190000000000005 78.977 0.004
    vertex 12.798 72.016 12.509
    vertex 6.574 86.435 14.829
  endloop
endfacet
facet normal 0.00033477961460175843 -0.0008133983283458337 -0.9999996131528097
  outer loop
    vertex 4.9190000000000005 78.977 0.004
    vertex 13.533 87.44 0
    vertex 26.914 70.818 0.018000000000000002
  endloop
endfacet
facet normal -0.00015928184103293762 -0.0021452839441334277 -0.9999976861903702
  outer loop
    vertex 4.9190000000000005 78.977 0.004
    vertex 26.914 70.818 0.018000000000000002
    vertex 10.176 62.738 0.038
  endloop
endfacet
facet normal -0.5504342839242213 0.8008669414226556 -0.23586911882896106
  outer loop
    vertex 5.247 88.628 43.75
    vertex 8.739 99.276 71.755
    vertex 15.083 92.636 34.405
  endloop
endfacet
facet normal -0.44646228207155464 0.8904640605610503 -0.08800674710830658
  outer loop
    vertex 5.247 88.628 43.75
    vertex 15.083 92.636 34.405
    vertex 6.574 86.435 14.829
  endloop
endfacet
facet normal 0.7487690670030851 -0.2321760415796611 -0.6208374747192127
  outer loop
    vertex 5.579 -87.337 68.098
    vertex 8.457 -65.977 63.581
    vertex 12.436 -85.73 75.767
  endloop
endfacet
facet normal 0.7519064780445011 -0.17493096421421112 -0.6356381093309309
  outer loop
    vertex 5.579 -87.337 68.098
    vertex 12.436 -85.73 75.767
    vertex 7.034 -103.935 74.387
  endloop
endfacet
facet normal 0.6730233710605352 -0.4381744254264237 0.5958546088674119
  outer loop
    vertex 6.05 -87.21600000000001 101.011
    vertex 21.304000000000002 -79.135 89.724
    vertex 10.821 -68.854 109.125
  endloop
endfacet
facet normal -0.32167238803032466 -0.9395989765717836 -0.11696425951599577
  outer loop
    vertex 6.114 63.708 3.4170000000000003
    vertex 10.176 62.738 0.038
    vertex 20.211000000000002 58.733000000000004 4.613
  endloop
endfacet
facet normal -0.27551068183307786 -0.6001503075686639 0.7509417237849491
  outer loop
    vertex 6.114 63.708 3.4170000000000003
    vertex 20.211000000000002 58.733000000000004 4.613
    vertex 12.798 72.016 12.509
  endloop
endfacet
facet normal -0.8954602430455764 -0.34036928301640884 -0.28687925038882334
  outer loop
    vertex 6.574 86.435 14.829
    vertex 12.798 72.016 12.509
    vertex 8.708 63.802 35.021
  endloop
endfacet
facet normal -0.7329630899342747 0.6720022858818814 0.10572623403643246
  outer loop
    vertex 6.574 86.435 14.829
    vertex 15.083 92.636 34.405
    vertex 12.744 94.522 6.202
  endloop
endfacet
facet normal -0.925259094014334 0.3693012310927703 -0.08667300420048958
  outer loop
    vertex 6.673 -1.216 0.11800000000000001
    vertex 8.935 7.3500000000000005 12.469
    vertex 12.968 14.528 0
  endloop
endfacet
facet normal -0.8598854859707347 -0.21146863793484738 0.46462669551679214
  outer loop
    vertex 6.673 -1.216 0.11800000000000001
    vertex 9.345 -12.415000000000001 -0.034
    vertex 13.99 -3.744 12.509
  endloop
endfacet
facet normal -0.032980648945781996 0.005696093342506068 -0.9994397587227298
  outer loop
    vertex 6.673 -1.216 0.11800000000000001
    vertex 12.968 14.528 0
    vertex 9.345 -12.415000000000001 -0.034
  endloop
endfacet
facet normal -0.8293391129891764 -0.3764009048053258 0.4129394562500153
  outer loop
    vertex 6.673 -1.216 0.11800000000000001
    vertex 13.99 -3.744 12.509
    vertex 8.935 7.3500000000000005 12.469
  endloop
endfacet
facet normal 0.5223173753286227 0.1456318730896206 0.8402237303065342
  outer loop
    vertex 8.032 -55.424 108.531
    vertex 10.821 -68.854 109.125
    vertex 17.028 -55.316 102.92
  endloop
endfacet
facet normal 0.44779765895067486 0.5192136602117344 0.7279384807027506
  outer loop
    vertex 8.032 -55.424 108.531
    vertex 17.028 -55.316 102.92
    vertex 20.061 -37.886 88.622
  endloop
endfacet
facet normal 0.9008769518606572 -0.1596973222798801 0.40363037901387855
  outer loop
    vertex 8.032 -55.424 108.531
    vertex 20.061 -37.886 88.622
    vertex 14.314 -29.621000000000002 104.71900000000001
  endloop
endfacet
facet normal 0.6297475413594896 -0.0436223365854643 -0.7755740621646025
  outer loop
    vertex 8.147 36.712 34.639
    vertex 20.227 48.156 43.804
    vertex 25.448 29.458000000000002 49.095
  endloop
endfacet
facet normal 0.6364898987040186 -0.018549721523932854 -0.7710619408835666
  outer loop
    vertex 8.147 36.712 34.639
    vertex 25.448 29.458000000000002 49.095
    vertex 21.69 19.643 46.229
  endloop
endfacet
facet normal 0.7167787801696079 0.05500831093460354 -0.6951275178171922
  outer loop
    vertex 8.457 -65.977 63.581
    vertex 16.984 -53.929 73.327
    vertex 22.174 -71.098 77.32000000000001
  endloop
endfacet
facet normal 0.6055158389299816 -0.3259285792287632 -0.7260310806341836
  outer loop
    vertex 8.457 -65.977 63.581
    vertex 22.174 -71.098 77.32000000000001
    vertex 12.436 -85.73 75.767
  endloop
endfacet
facet normal 0.43497907631566407 -0.8684589990087841 -0.23784904920607194
  outer loop
    vertex 8.708 63.802 35.021
    vertex 12.798 72.016 12.509
    vertex 20.505 75.688 13.196
  endloop
endfacet
facet normal 0.7067435590487658 0.12993547580286302 -0.6954353412582418
  outer loop
    vertex 8.708 63.802 35.021
    vertex 20.032 58.037 45.452
    vertex 20.227 48.156 43.804
  endloop
endfacet
facet normal -0.00435584972646304 -0.8772099491460817 -0.4800872125898471
  outer loop
    vertex 8.708 63.802 35.021
    vertex 20.505 75.688 13.196
    vertex 20.032 58.037 45.452
  endloop
endfacet
facet normal 0.45919271655039823 0.8868587949831945 0.0512203751257392
  outer loop
    vertex 8.739 99.276 71.755
    vertex 11.31 96.955 88.893
    vertex 25.992 89.816 80.877
  endloop
endfacet
facet normal 0.46901515134870436 0.8827344942531696 0.028365480093815287
  outer loop
    vertex 8.739 99.276 71.755
    vertex 25.992 89.816 80.877
    vertex 26.026 90.556 57.286
  endloop
endfacet
facet normal 0.3810899336151474 0.9192551140414136 -0.09869396033147235
  outer loop
    vertex 8.739 99.276 71.755
    vertex 26.026 90.556 57.286
    vertex 15.083 92.636 34.405
  endloop
endfacet
facet normal -0.9858441808441232 0.1476914476814265 0.0793630101340935
  outer loop
    vertex 8.935 7.3500000000000005 12.469
    vertex 9.867 -1.448 40.419000000000004
    vertex 11.995000000000001 15.447000000000001 35.412
  endloop
endfacet
facet normal -0.8184616600203638 0.5673010967493074 -0.09104930918872114
  outer loop
    vertex 8.935 7.3500000000000005 12.469
    vertex 11.995000000000001 15.447000000000001 35.412
    vertex 15.289 17.625 19.372
  endloop
endfacet
facet normal -0.905310489018836 -0.4128660021810156 -0.09977265514930304
  outer loop
    vertex 8.935 7.3500000000000005 12.469
    vertex 13.99 -3.744 12.509
    vertex 9.867 -1.448 40.419000000000004
  endloop
endfacet
facet normal -0.8563259590291961 0.5160444877454202 0.02009822281432986
  outer loop
    vertex 8.935 7.3500000000000005 12.469
    vertex 15.289 17.625 19.372
    vertex 12.968 14.528 0
  endloop
endfacet
facet normal 0.018877180341564232 -0.0012766993484947975 -0.9998209950291729
  outer loop
    vertex 9.345 -12.415000000000001 -0.034
    vertex 12.968 14.528 0
    vertex 30.938000000000002 -10.31 0.371
  endloop
endfacet
facet normal -0.4210771154460108 -0.6656608772042298 0.6161084802267875
  outer loop
    vertex 9.345 -12.415000000000001 -0.034
    vertex 19.25 -17.967 0.737
    vertex 13.99 -3.744 12.509
  endloop
endfacet
facet normal 0.027388871194432195 -0.08939765080789179 -0.9956193598784252
  outer loop
    vertex 9.345 -12.415000000000001 -0.034
    vertex 30.938000000000002 -10.31 0.371
    vertex 19.25 -17.967 0.737
  endloop
endfacet
facet normal 0.4981785640016521 -0.27574037763772796 0.8220616537154953
  outer loop
    vertex 9.842 -5.92 115.379
    vertex 14.314 -29.621000000000002 104.71900000000001
    vertex 25.926000000000002 -14.643 102.706
  endloop
endfacet
facet normal 0.5795316377459556 0.1500094273327662 0.8010245018492169
  outer loop
    vertex 9.842 -5.92 115.379
    vertex 22.8 7.873 103.421
    vertex 14.598 15.333 107.958
  endloop
endfacet
facet normal 0.6389142381450774 0.06436047886739872 0.76658093183659
  outer loop
    vertex 9.842 -5.92 115.379
    vertex 25.926000000000002 -14.643 102.706
    vertex 22.8 7.873 103.421
  endloop
endfacet
facet normal -0.3780409695652617 -0.925566384660081 0.020295145168827407
  outer loop
    vertex 9.867 -1.448 40.419000000000004
    vertex 13.99 -3.744 12.509
    vertex 22.028 -6.594 32.259
  endloop
endfacet
facet normal -0.4448014011953674 -0.605891348233587 -0.6595812214051611
  outer loop
    vertex 9.867 -1.448 40.419000000000004
    vertex 19.281 -16.196 47.618
    vertex 16.133 -28.05 60.63
  endloop
endfacet
facet normal -0.5995033816984116 -0.626073493423039 -0.49862578770581134
  outer loop
    vertex 9.867 -1.448 40.419000000000004
    vertex 22.028 -6.594 32.259
    vertex 19.281 -16.196 47.618
  endloop
endfacet
facet normal 0.21587920743065542 -0.44934700530185806 -0.8668814432350965
  outer loop
    vertex 10.176 62.738 0.038
    vertex 26.914 70.818 0.018000000000000002
    vertex 20.211000000000002 58.733000000000004 4.613
  endloop
endfacet
facet normal 0.3126155982858588 -0.7590022732273901 0.5711278639184302
  outer loop
    vertex 10.821 -68.854 109.125
    vertex 21.304000000000002 -79.135 89.724
    vertex 23.593 -66.179 105.68900000000001
  endloop
endfacet
facet normal 0.17666002018742785 0.3420219851712495 0.9229367253105141
  outer loop
    vertex 10.821 -68.854 109.125
    vertex 23.593 -66.179 105.68900000000001
    vertex 17.028 -55.316 102.92
  endloop
endfacet
facet normal 0.5820847453927848 0.652886170160069 0.4846823681492182
  outer loop
    vertex 11.31 96.955 88.893
    vertex 16.353 83.765 100.604
    vertex 25.992 89.816 80.877
  endloop
endfacet
facet normal -0.42908053965825077 0.9026092503826278 0.03444461656478089
  outer loop
    vertex 11.995000000000001 15.447000000000001 35.412
    vertex 21.69 19.643 46.229
    vertex 15.289 17.625 19.372
  endloop
endfacet
facet normal 0.8136203095254092 -0.5123118694075507 -0.2748791377895345
  outer loop
    vertex 12.436 -85.73 75.767
    vertex 22.174 -71.098 77.32000000000001
    vertex 21.304000000000002 -79.135 89.724
  endloop
endfacet
facet normal 0.30337402175229894 0.952093113541053 0.03850851949295493
  outer loop
    vertex 12.744 94.522 6.202
    vertex 15.083 92.636 34.405
    vertex 22.294 90.25 36.588
  endloop
endfacet
facet normal 0.4647317745009754 0.8851877485689758 -0.02161082026583447
  outer loop
    vertex 12.744 94.522 6.202
    vertex 22.294 90.25 36.588
    vertex 23.741 88.789 7.862
  endloop
endfacet
facet normal 0.42399080096067365 0.6229458381387538 -0.6573965952500302
  outer loop
    vertex 12.744 94.522 6.202
    vertex 23.741 88.789 7.862
    vertex 13.533 87.44 0
  endloop
endfacet
facet normal 0.13538361835532922 -0.44935879080073404 0.8830333815950111
  outer loop
    vertex 12.798 72.016 12.509
    vertex 20.211000000000002 58.733000000000004 4.613
    vertex 20.505 75.688 13.196
  endloop
endfacet
facet normal 0.06575129320355325 0.9840658614024603 -0.16520032646545868
  outer loop
    vertex 12.968 14.528 0
    vertex 15.289 17.625 19.372
    vertex 25.167 13.864 0.9
  endloop
endfacet
facet normal 0.07567624105159756 0.03986881948955957 -0.9963350760526347
  outer loop
    vertex 12.968 14.528 0
    vertex 25.167 13.864 0.9
    vertex 30.938000000000002 -10.31 0.371
  endloop
endfacet
facet normal 0.5192866741994802 0.41722717134219933 -0.7458303007337728
  outer loop
    vertex 13.533 87.44 0
    vertex 23.741 88.789 7.862
    vertex 26.914 70.818 0.018000000000000002
  endloop
endfacet
facet normal -0.30507240642619077 -0.6716337232297539 0.675158476698524
  outer loop
    vertex 13.99 -3.744 12.509
    vertex 19.25 -17.967 0.737
    vertex 25.903000000000002 -14.485 7.207
  endloop
endfacet
facet normal 0.244533574081238 -0.1973975738300571 0.949335309041575
  outer loop
    vertex 13.99 -3.744 12.509
    vertex 25.903000000000002 -14.485 7.207
    vertex 26.808 0.405 10.07
  endloop
endfacet
facet normal 0.2573626147014835 -0.9360818228437922 -0.23982348820634591
  outer loop
    vertex 13.99 -3.744 12.509
    vertex 26.808 0.405 10.07
    vertex 22.028 -6.594 32.259
  endloop
endfacet
facet normal 0.8453036787460986 -0.28830612963829755 0.44982359465828126
  outer loop
    vertex 14.314 -29.621000000000002 104.71900000000001
    vertex 20.061 -37.886 88.622
    vertex 26.793 -23.005 85.509
  endloop
endfacet
facet normal 0.7712205130688189 -0.556322987567388 0.30939239442165256
  outer loop
    vertex 14.314 -29.621000000000002 104.71900000000001
    vertex 26.793 -23.005 85.509
    vertex 25.926000000000002 -14.643 102.706
  endloop
endfacet
facet normal 0.6232324398121728 0.23078735011295184 0.74720714998828
  outer loop
    vertex 14.598 15.333 107.958
    vertex 22.8 7.873 103.421
    vertex 30.931 47.829 84.298
  endloop
endfacet
facet normal 0.8495398542045842 -0.04426134950391484 0.525664312140501
  outer loop
    vertex 14.598 15.333 107.958
    vertex 30.931 47.829 84.298
    vertex 18.486 53.854 104.918
  endloop
endfacet
facet normal 0.33339479364014163 0.9398779836670815 -0.07400869808035233
  outer loop
    vertex 15.083 92.636 34.405
    vertex 26.026 90.556 57.286
    vertex 22.294 90.25 36.588
  endloop
endfacet
facet normal 0.16035226622956952 0.9806957745158319 -0.11190598090287165
  outer loop
    vertex 15.289 17.625 19.372
    vertex 21.69 19.643 46.229
    vertex 27.892 16.458000000000002 27.204
  endloop
endfacet
facet normal 0.16124241144400894 0.9803798368772689 -0.11338544966714417
  outer loop
    vertex 15.289 17.625 19.372
    vertex 27.892 16.458000000000002 27.204
    vertex 25.167 13.864 0.9
  endloop
endfacet
facet normal 0.5603774717390586 -0.6752562245988042 -0.47958953315091213
  outer loop
    vertex 16.133 -28.05 60.63
    vertex 19.281 -16.196 47.618
    vertex 33.784 -12.833 59.829
  endloop
endfacet
facet normal 0.9872007777085517 -0.04289979906125074 -0.15360413969725834
  outer loop
    vertex 16.133 -28.05 60.63
    vertex 20.061 -37.886 88.622
    vertex 16.984 -53.929 73.327
  endloop
endfacet
facet normal 0.8528911504718766 -0.44347395336169915 -0.27551322679048323
  outer loop
    vertex 16.133 -28.05 60.63
    vertex 26.793 -23.005 85.509
    vertex 20.061 -37.886 88.622
  endloop
endfacet
facet normal 0.6447581076016287 -0.7543785911924032 -0.12328797115911758
  outer loop
    vertex 16.133 -28.05 60.63
    vertex 33.784 -12.833 59.829
    vertex 26.793 -23.005 85.509
  endloop
endfacet
facet normal 0.8561938668548212 0.1330589369557917 0.4992267837930807
  outer loop
    vertex 16.353 83.765 100.604
    vertex 18.486 53.854 104.918
    vertex 28.679000000000002 60.212 85.742
  endloop
endfacet
facet normal 0.8676800537430648 0.15630661806875445 0.47191054818084005
  outer loop
    vertex 16.353 83.765 100.604
    vertex 28.679000000000002 60.212 85.742
    vertex 25.992 89.816 80.877
  endloop
endfacet
facet normal 0.9831097474512165 -0.014632194842485737 -0.18243114684860368
  outer loop
    vertex 16.984 -53.929 73.327
    vertex 20.061 -37.886 88.622
    vertex 20.553 -60.548 93.09100000000001
  endloop
endfacet
facet normal 0.9591099084160025 0.27073499716724986 -0.08252723724381118
  outer loop
    vertex 16.984 -53.929 73.327
    vertex 20.553 -60.548 93.09100000000001
    vertex 22.174 -71.098 77.32000000000001
  endloop
endfacet
facet normal 0.9510193626006254 0.07955509735255947 0.2987191966444824
  outer loop
    vertex 17.028 -55.316 102.92
    vertex 20.553 -60.548 93.09100000000001
    vertex 20.061 -37.886 88.622
  endloop
endfacet
facet normal 0.8523750964792598 0.5221954567933552 0.02772363263267456
  outer loop
    vertex 17.028 -55.316 102.92
    vertex 23.593 -66.179 105.68900000000001
    vertex 20.553 -60.548 93.09100000000001
  endloop
endfacet
facet normal 0.8645099732180527 0.09977745044073674 0.492612389805685
  outer loop
    vertex 18.486 53.854 104.918
    vertex 30.931 47.829 84.298
    vertex 28.679000000000002 60.212 85.742
  endloop
endfacet
facet normal 0.5423107191688332 -0.833034170417741 -0.10933048427135629
  outer loop
    vertex 19.25 -17.967 0.737
    vertex 30.938000000000002 -10.31 0.371
    vertex 25.903000000000002 -14.485 7.207
  endloop
endfacet
facet normal 0.612926101527444 -0.7146087100662798 -0.3371290339970395
  outer loop
    vertex 19.281 -16.196 47.618
    vertex 22.028 -6.594 32.259
    vertex 30.88 -4.684 44.304
  endloop
endfacet
facet normal 0.5526149540360269 -0.6909537747196982 -0.4660467720909143
  outer loop
    vertex 19.281 -16.196 47.618
    vertex 30.88 -4.684 44.304
    vertex 33.784 -12.833 59.829
  endloop
endfacet
facet normal 0.6657268192853517 -0.6586643336258801 -0.3506694992345127
  outer loop
    vertex 20.032 58.037 45.452
    vertex 20.505 75.688 13.196
    vertex 26.865000000000002 69.368 37.141
  endloop
endfacet
facet normal 0.8763855838112021 0.32669983353672355 -0.35385806088737815
  outer loop
    vertex 20.032 58.037 45.452
    vertex 26.810000000000002 59.676 63.752
    vertex 30.071 46.873 60.008
  endloop
endfacet
facet normal 0.7533895165661255 -0.61836940181046 -0.2236593821703745
  outer loop
    vertex 20.032 58.037 45.452
    vertex 26.865000000000002 69.368 37.141
    vertex 26.810000000000002 59.676 63.752
  endloop
endfacet
facet normal 0.8537558213660088 0.10200630670831566 -0.510583696249088
  outer loop
    vertex 20.032 58.037 45.452
    vertex 30.071 46.873 60.008
    vertex 20.227 48.156 43.804
  endloop
endfacet
facet normal 0.9604099310295512 -0.1389026319292892 0.24149290511923724
  outer loop
    vertex 20.211000000000002 58.733000000000004 4.613
    vertex 23.741 88.789 7.862
    vertex 20.505 75.688 13.196
  endloop
endfacet
facet normal 0.7357111860254324 -0.1576118377987038 0.6587014189621626
  outer loop
    vertex 20.211000000000002 58.733000000000004 4.613
    vertex 26.914 70.818 0.018000000000000002
    vertex 23.741 88.789 7.862
  endloop
endfacet
facet normal 0.854161977762357 0.09377076243816694 -0.5114825117800837
  outer loop
    vertex 20.227 48.156 43.804
    vertex 30.071 46.873 60.008
    vertex 25.448 29.458000000000002 49.095
  endloop
endfacet
facet normal 0.9433505084730764 -0.2949133422103904 -0.15203926713150517
  outer loop
    vertex 20.505 75.688 13.196
    vertex 23.741 88.789 7.862
    vertex 26.237000000000002 84.645 31.387
  endloop
endfacet
facet normal 0.9603390905194457 -0.06284244397511875 -0.2716609255220893
  outer loop
    vertex 20.505 75.688 13.196
    vertex 26.237000000000002 84.645 31.387
    vertex 26.865000000000002 69.368 37.141
  endloop
endfacet
facet normal 0.996001571986109 0.02469037522555044 0.08585600720055318
  outer loop
    vertex 20.553 -60.548 93.09100000000001
    vertex 21.304000000000002 -79.135 89.724
    vertex 22.174 -71.098 77.32000000000001
  endloop
endfacet
facet normal 0.9765008413058928 0.07598777829860028 -0.20167291458727538
  outer loop
    vertex 20.553 -60.548 93.09100000000001
    vertex 23.593 -66.179 105.68900000000001
    vertex 21.304000000000002 -79.135 89.724
  endloop
endfacet
facet normal 0.9114557526526836 -0.25462619199704134 -0.3231314180104059
  outer loop
    vertex 21.69 19.643 46.229
    vertex 25.448 29.458000000000002 49.095
    vertex 28.727 16.024 68.93
  endloop
endfacet
facet normal 0.5666754132669377 0.822738529660368 -0.04450042484113339
  outer loop
    vertex 21.69 19.643 46.229
    vertex 28.727 16.024 68.93
    vertex 32.118 12.556000000000001 47.994
  endloop
endfacet
facet normal 0.5566430632418246 0.8296605184834704 0.04256670311989185
  outer loop
    vertex 21.69 19.643 46.229
    vertex 32.118 12.556000000000001 47.994
    vertex 27.892 16.458000000000002 27.204
  endloop
endfacet
facet normal 0.4387986521929564 -0.879759494654361 -0.18297260559752762
  outer loop
    vertex 22.028 -6.594 32.259
    vertex 26.808 0.405 10.07
    vertex 30.88 -4.684 44.304
  endloop
endfacet
facet normal 0.9698407259642392 0.1672094632401355 -0.1773413704246797
  outer loop
    vertex 22.294 90.25 36.588
    vertex 26.026 90.556 57.286
    vertex 30.328 71.682 63.017
  endloop
endfacet
facet normal 0.8232968449241936 0.5674709618223999 0.012610020865514939
  outer loop
    vertex 22.294 90.25 36.588
    vertex 26.237000000000002 84.645 31.387
    vertex 23.741 88.789 7.862
  endloop
endfacet
facet normal 0.8546049212557616 0.5098655241153462 0.09842548391558373
  outer loop
    vertex 22.294 90.25 36.588
    vertex 30.328 71.682 63.017
    vertex 26.237000000000002 84.645 31.387
  endloop
endfacet
facet normal 0.8602538215102813 0.10357972661860484 0.4992340160792054
  outer loop
    vertex 22.8 7.873 103.421
    vertex 25.926000000000002 -14.643 102.706
    vertex 36.744 -5.871 82.245
  endloop
endfacet
facet normal 0.9476582102388315 -0.04132145645569729 0.3166014115624169
  outer loop
    vertex 22.8 7.873 103.421
    vertex 28.457 12.207 87.054
    vertex 30.931 47.829 84.298
  endloop
endfacet
facet normal 0.8745234937940257 0.2993877884392391 0.38154372087056054
  outer loop
    vertex 22.8 7.873 103.421
    vertex 36.744 -5.871 82.245
    vertex 28.457 12.207 87.054
  endloop
endfacet
facet normal 0.9461833571372857 0.29751670430900934 -0.12736116100884548
  outer loop
    vertex 25.167 13.864 0.9
    vertex 27.892 16.458000000000002 27.204
    vertex 27.921 8.939 9.855
  endloop
endfacet
facet normal 0.958198853547664 0.23240006342838668 -0.16686871359971636
  outer loop
    vertex 25.167 13.864 0.9
    vertex 27.921 8.939 9.855
    vertex 30.938000000000002 -10.31 0.371
  endloop
endfacet
facet normal 0.9584862337679098 -0.08361532509658658 -0.2726034062267014
  outer loop
    vertex 25.448 29.458000000000002 49.095
    vertex 30.071 46.873 60.008
    vertex 32.628 35.464 72.498
  endloop
endfacet
facet normal 0.9557540987933861 -0.1447919814309119 -0.2560651962937424
  outer loop
    vertex 25.448 29.458000000000002 49.095
    vertex 32.628 35.464 72.498
    vertex 28.727 16.024 68.93
  endloop
endfacet
facet normal 0.8378303723381869 -0.15175522751946505 0.5244145479562617
  outer loop
    vertex 25.903000000000002 -14.485 7.207
    vertex 30.938000000000002 -10.31 0.371
    vertex 26.808 0.405 10.07
  endloop
endfacet
facet normal 0.8555924638065019 -0.4472601167429041 0.26061451196862234
  outer loop
    vertex 25.926000000000002 -14.643 102.706
    vertex 26.793 -23.005 85.509
    vertex 36.744 -5.871 82.245
  endloop
endfacet
facet normal 0.985711647078773 0.11037754858506238 0.1272373592212787
  outer loop
    vertex 25.992 89.816 80.877
    vertex 28.679000000000002 60.212 85.742
    vertex 30.328 71.682 63.017
  endloop
endfacet
facet normal 0.9743997001777523 0.22466373856039581 0.008451560185695152
  outer loop
    vertex 25.992 89.816 80.877
    vertex 30.328 71.682 63.017
    vertex 26.026 90.556 57.286
  endloop
endfacet
facet normal 0.9912283426857872 -0.008917106708881257 -0.13185923503619285
  outer loop
    vertex 26.237000000000002 84.645 31.387
    vertex 30.328 71.682 63.017
    vertex 26.865000000000002 69.368 37.141
  endloop
endfacet
facet normal 0.8673184637632481 -0.4961778424568018 0.039575637332487514
  outer loop
    vertex 26.793 -23.005 85.509
    vertex 33.784 -12.833 59.829
    vertex 36.744 -5.871 82.245
  endloop
endfacet
facet normal 0.9818966334738857 -0.13149331897969754 -0.13633967961071866
  outer loop
    vertex 26.808 0.405 10.07
    vertex 27.921 8.939 9.855
    vertex 30.88 -4.684 44.304
  endloop
endfacet
facet normal 0.8700608746258461 -0.10131914415566161 0.48241942899604706
  outer loop
    vertex 26.808 0.405 10.07
    vertex 30.938000000000002 -10.31 0.371
    vertex 27.921 8.939 9.855
  endloop
endfacet
facet normal 0.952942168103549 -0.28547586723836665 -0.1020036934361186
  outer loop
    vertex 26.810000000000002 59.676 63.752
    vertex 26.865000000000002 69.368 37.141
    vertex 30.328 71.682 63.017
  endloop
endfacet
facet normal 0.9782180881050967 0.18813095771119673 -0.08772750341071518
  outer loop
    vertex 26.810000000000002 59.676 63.752
    vertex 28.679000000000002 60.212 85.742
    vertex 30.931 47.829 84.298
  endloop
endfacet
facet normal 0.9557613221098524 -0.28460568870552583 -0.0742960100899114
  outer loop
    vertex 26.810000000000002 59.676 63.752
    vertex 30.328 71.682 63.017
    vertex 28.679000000000002 60.212 85.742
  endloop
endfacet
facet normal 0.9649280751165017 0.25874143529984256 -0.04434726046714044
  outer loop
    vertex 26.810000000000002 59.676 63.752
    vertex 30.931 47.829 84.298
    vertex 30.071 46.873 60.008
  endloop
endfacet
facet normal 0.9411954736326359 0.3105716812302021 -0.13302748299236522
  outer loop
    vertex 27.892 16.458000000000002 27.204
    vertex 32.118 12.556000000000001 47.994
    vertex 27.921 8.939 9.855
  endloop
endfacet
facet normal 0.9933030171093091 -0.048926029642099036 -0.10466785478361523
  outer loop
    vertex 27.921 8.939 9.855
    vertex 32.118 12.556000000000001 47.994
    vertex 30.88 -4.684 44.304
  endloop
endfacet
facet normal 0.9810313202874464 -0.19211850184051227 -0.02584627372807467
  outer loop
    vertex 28.457 12.207 87.054
    vertex 28.727 16.024 68.93
    vertex 32.628 35.464 72.498
  endloop
endfacet
facet normal 0.9791459884589865 -0.052825877857147464 0.19616972221343462
  outer loop
    vertex 28.457 12.207 87.054
    vertex 32.628 35.464 72.498
    vertex 30.931 47.829 84.298
  endloop
endfacet
facet normal 0.914273676159988 0.3934401275343207 0.09648062565447467
  outer loop
    vertex 28.457 12.207 87.054
    vertex 36.744 -5.871 82.245
    vertex 28.727 16.024 68.93
  endloop
endfacet
facet normal 0.9179847945204501 0.3875105292471576 0.08449560196741043
  outer loop
    vertex 28.727 16.024 68.93
    vertex 36.744 -5.871 82.245
    vertex 32.118 12.556000000000001 47.994
  endloop
endfacet
facet normal 0.9837181710713742 0.17481104303324305 -0.04170922125406185
  outer loop
    vertex 30.071 46.873 60.008
    vertex 30.931 47.829 84.298
    vertex 32.628 35.464 72.498
  endloop
endfacet
facet normal 0.9798090627326064 -0.027987571420352034 -0.19796690741899764
  outer loop
    vertex 30.88 -4.684 44.304
    vertex 32.118 12.556000000000001 47.994
    vertex 33.784 -12.833 59.829
  endloop
endfacet
facet normal 0.9912453730366331 0.0035197995823006375 -0.13198568651322318
  outer loop
    vertex 32.118 12.556000000000001 47.994
    vertex 36.744 -5.871 82.245
    vertex 33.784 -12.833 59.829
  endloop
endfacet
endsolid JSxCAD
