  0
SECTION
  2
HEADER
  9
$ACADVER
  1
AC1015
  9
$ACADMAINTVER
 70
    13
  9
$DWGCODEPAGE
  3
ANSI_1252
  9
$INSBASE
 10
0.0
 20
0.0
 30
0.0
  9
$EXTMIN
 10
-4982.98692488612
 20
-0.0066296847512604
 30
0.0
  9
$EXTMAX
 10
914.1743240776046
 20
1905.658677547839
 30
0.0
  9
$LIMMIN
 10
0.0
 20
0.0
  9
$LIMMAX
 10
420.0
 20
297.0
  9
$ORTHOMODE
 70
     0
  9
$REGENMODE
 70
     1
  9
$FILLMODE
 70
     1
  9
$QTEXTMODE
 70
     0
  9
$MIRRTEXT
 70
     1
  9
$LTSCALE
 40
1.0
  9
$ATTMODE
 70
     1
  9
$TEXTSIZE
 40
2.5
  9
$TRACEWID
 40
1.0
  9
$TEXTSTYLE
  7
Standard
  9
$CLAYER
  8
ceco.net 241
  9
$CELTYPE
  6
ByLayer
  9
$CECOLOR
 62
   256
  9
$CELTSCALE
 40
1.0
  9
$DISPSILH
 70
     0
  9
$DIMSCALE
 40
1.0
  9
$DIMASZ
 40
2.5
  9
$DIMEXO
 40
0.625
  9
$DIMDLI
 40
3.75
  9
$DIMRND
 40
0.0
  9
$DIMDLE
 40
0.0
  9
$DIMEXE
 40
1.25
  9
$DIMTP
 40
0.0
  9
$DIMTM
 40
0.0
  9
$DIMTXT
 40
2.5
  9
$DIMCEN
 40
2.5
  9
$DIMTSZ
 40
0.0
  9
$DIMTOL
 70
     0
  9
$DIMLIM
 70
     0
  9
$DIMTIH
 70
     0
  9
$DIMTOH
 70
     0
  9
$DIMSE1
 70
     0
  9
$DIMSE2
 70
     0
  9
$DIMTAD
 70
     1
  9
$DIMZIN
 70
     8
  9
$DIMBLK
  1

  9
$DIMASO
 70
     1
  9
$DIMSHO
 70
     1
  9
$DIMPOST
  1

  9
$DIMAPOST
  1

  9
$DIMALT
 70
     0
  9
$DIMALTD
 70
     3
  9
$DIMALTF
 40
0.03937007874016
  9
$DIMLFAC
 40
1.0
  9
$DIMTOFL
 70
     1
  9
$DIMTVP
 40
0.0
  9
$DIMTIX
 70
     0
  9
$DIMSOXD
 70
     0
  9
$DIMSAH
 70
     0
  9
$DIMBLK1
  1

  9
$DIMBLK2
  1

  9
$DIMSTYLE
  2
ISO-25
  9
$DIMCLRD
 70
     0
  9
$DIMCLRE
 70
     0
  9
$DIMCLRT
 70
     0
  9
$DIMTFAC
 40
1.0
  9
$DIMGAP
 40
0.625
  9
$DIMJUST
 70
     0
  9
$DIMSD1
 70
     0
  9
$DIMSD2
 70
     0
  9
$DIMTOLJ
 70
     0
  9
$DIMTZIN
 70
     8
  9
$DIMALTZ
 70
     0
  9
$DIMALTTZ
 70
     0
  9
$DIMUPT
 70
     0
  9
$DIMDEC
 70
     2
  9
$DIMTDEC
 70
     2
  9
$DIMALTU
 70
     2
  9
$DIMALTTD
 70
     3
  9
$DIMTXSTY
  7
Standard
  9
$DIMAUNIT
 70
     0
  9
$DIMADEC
 70
     0
  9
$DIMALTRND
 40
0.0
  9
$DIMAZIN
 70
     0
  9
$DIMDSEP
 70
    44
  9
$DIMATFIT
 70
     3
  9
$DIMFRAC
 70
     0
  9
$DIMLDRBLK
  1

  9
$DIMLUNIT
 70
     2
  9
$DIMLWD
 70
    -2
  9
$DIMLWE
 70
    -2
  9
$DIMTMOVE
 70
     0
  9
$LUNITS
 70
     2
  9
$LUPREC
 70
     2
  9
$SKETCHINC
 40
1.0
  9
$FILLETRAD
 40
10.0
  9
$AUNITS
 70
     0
  9
$AUPREC
 70
     0
  9
$MENU
  1
.
  9
$ELEVATION
 40
0.0
  9
$PELEVATION
 40
0.0
  9
$THICKNESS
 40
0.0
  9
$LIMCHECK
 70
     0
  9
$CHAMFERA
 40
10.0
  9
$CHAMFERB
 40
10.0
  9
$CHAMFERC
 40
20.0
  9
$CHAMFERD
 40
0.0
  9
$SKPOLY
 70
     0
  9
$TDCREATE
 40
2455079.811409143
  9
$TDUCREATE
 40
2455079.936409144
  9
$TDUPDATE
 40
2456968.005338125
  9
$TDUUPDATE
 40
2456968.130338125
  9
$TDINDWG
 40
0.0473589352
  9
$TDUSRTIMER
 40
0.0473589352
  9
$USRTIMER
 70
     1
  9
$ANGBASE
 50
0.0
  9
$ANGDIR
 70
     0
  9
$PDMODE
 70
     0
  9
$PDSIZE
 40
0.0
  9
$PLINEWID
 40
0.0
  9
$SPLFRAME
 70
     0
  9
$SPLINETYPE
 70
     6
  9
$SPLINESEGS
 70
     8
  9
$HANDSEED
  5
9BD
  9
$SURFTAB1
 70
     6
  9
$SURFTAB2
 70
     6
  9
$SURFTYPE
 70
     6
  9
$SURFU
 70
     6
  9
$SURFV
 70
     6
  9
$UCSBASE
  2

  9
$UCSNAME
  2

  9
$UCSORG
 10
0.0
 20
0.0
 30
0.0
  9
$UCSXDIR
 10
1.0
 20
0.0
 30
0.0
  9
$UCSYDIR
 10
0.0
 20
1.0
 30
0.0
  9
$UCSORTHOREF
  2

  9
$UCSORTHOVIEW
 70
     0
  9
$UCSORGTOP
 10
0.0
 20
0.0
 30
0.0
  9
$UCSORGBOTTOM
 10
0.0
 20
0.0
 30
0.0
  9
$UCSORGLEFT
 10
0.0
 20
0.0
 30
0.0
  9
$UCSORGRIGHT
 10
0.0
 20
0.0
 30
0.0
  9
$UCSORGFRONT
 10
0.0
 20
0.0
 30
0.0
  9
$UCSORGBACK
 10
0.0
 20
0.0
 30
0.0
  9
$PUCSBASE
  2

  9
$PUCSNAME
  2

  9
$PUCSORG
 10
0.0
 20
0.0
 30
0.0
  9
$PUCSXDIR
 10
1.0
 20
0.0
 30
0.0
  9
$PUCSYDIR
 10
0.0
 20
1.0
 30
0.0
  9
$PUCSORTHOREF
  2

  9
$PUCSORTHOVIEW
 70
     0
  9
$PUCSORGTOP
 10
0.0
 20
0.0
 30
0.0
  9
$PUCSORGBOTTOM
 10
0.0
 20
0.0
 30
0.0
  9
$PUCSORGLEFT
 10
0.0
 20
0.0
 30
0.0
  9
$PUCSORGRIGHT
 10
0.0
 20
0.0
 30
0.0
  9
$PUCSORGFRONT
 10
0.0
 20
0.0
 30
0.0
  9
$PUCSORGBACK
 10
0.0
 20
0.0
 30
0.0
  9
$USERI1
 70
     0
  9
$USERI2
 70
     0
  9
$USERI3
 70
     0
  9
$USERI4
 70
     0
  9
$USERI5
 70
     0
  9
$USERR1
 40
0.0
  9
$USERR2
 40
0.0
  9
$USERR3
 40
0.0
  9
$USERR4
 40
0.0
  9
$USERR5
 40
0.0
  9
$WORLDVIEW
 70
     1
  9
$SHADEDGE
 70
     3
  9
$SHADEDIF
 70
    70
  9
$TILEMODE
 70
     1
  9
$MAXACTVP
 70
    64
  9
$PINSBASE
 10
0.0
 20
0.0
 30
0.0
  9
$PLIMCHECK
 70
     0
  9
$PEXTMIN
 10
1.000000000000000E+20
 20
1.000000000000000E+20
 30
1.000000000000000E+20
  9
$PEXTMAX
 10
-1.000000000000000E+20
 20
-1.000000000000000E+20
 30
-1.000000000000000E+20
  9
$PLIMMIN
 10
0.0
 20
0.0
  9
$PLIMMAX
 10
420.0
 20
297.0
  9
$UNITMODE
 70
     0
  9
$VISRETAIN
 70
     1
  9
$PLINEGEN
 70
     0
  9
$PSLTSCALE
 70
     1
  9
$TREEDEPTH
 70
  3020
  9
$CMLSTYLE
  2
Standard
  9
$CMLJUST
 70
     0
  9
$CMLSCALE
 40
20.0
  9
$PROXYGRAPHICS
 70
     1
  9
$MEASUREMENT
 70
     1
  9
$CELWEIGHT
370
    -1
  9
$ENDCAPS
280
     0
  9
$JOINSTYLE
280
     0
  9
$LWDISPLAY
290
     0
  9
$INSUNITS
 70
     6
  9
$HYPERLINKBASE
  1

  9
$STYLESHEET
  1

  9
$XEDIT
290
     1
  9
$CEPSNTYPE
380
     0
  9
$PSTYLEMODE
290
     1
  9
$FINGERPRINTGUID
  2
{81085373-3A21-4932-80AA-8F6C3258C50C}
  9
$VERSIONGUID
  2
{05A8AE40-482A-4843-B68A-BEBC2ACEA2D1}
  9
$EXTNAMES
290
     1
  9
$PSVPSCALE
 40
0.0
  9
$OLESTARTUP
290
     0
  0
ENDSEC
  0
SECTION
  2
CLASSES
  0
CLASS
  1
ACDBDICTIONARYWDFLT
  2
AcDbDictionaryWithDefault
  3
AutoCAD 2000
 90
        0
280
     0
281
     0
  0
CLASS
  1
ACDBPLACEHOLDER
  2
AcDbPlaceHolder
  3
AutoCAD 2000
 90
        0
280
     0
281
     0
  0
CLASS
  1
LAYOUT
  2
AcDbLayout
  3
AutoCAD 2000
 90
        0
280
     0
281
     0
  0
CLASS
  1
DICTIONARYVAR
  2
AcDbDictionaryVar
  3
AutoCAD 2000
 90
        0
280
     0
281
     0
  0
ENDSEC
  0
SECTION
  2
TABLES
  0
TABLE
  2
VPORT
  5
8
330
0
100
AcDbSymbolTable
 70
     3
  0
VPORT
  5
9BC
330
8
100
AcDbSymbolTableRecord
100
AcDbViewportTableRecord
  2
*Active
 70
     0
 10
0.0
 20
0.0
 11
1.0
 21
1.0
 12
-2034.406300404258
 22
952.8260239315439
 13
0.0
 23
0.0
 14
10.0
 24
10.0
 15
10.0
 25
10.0
 16
0.0
 26
0.0
 36
1.0
 17
0.0
 27
0.0
 37
0.0
 40
2707.906581301907
 41
2.184834123222748
 42
50.0
 43
0.0
 44
0.0
 50
0.0
 51
0.0
 71
     0
 72
   100
 73
     1
 74
     3
 75
     0
 76
     0
 77
     0
 78
     0
281
     0
 65
     1
110
0.0
120
0.0
130
0.0
111
1.0
121
0.0
131
0.0
112
0.0
122
1.0
132
0.0
 79
     0
146
0.0
  0
ENDTAB
  0
TABLE
  2
LTYPE
  5
5
330
0
100
AcDbSymbolTable
 70
     1
  0
LTYPE
  5
14
330
5
100
AcDbSymbolTableRecord
100
AcDbLinetypeTableRecord
  2
ByBlock
 70
     0
  3

 72
    65
 73
     0
 40
0.0
  0
LTYPE
  5
15
330
5
100
AcDbSymbolTableRecord
100
AcDbLinetypeTableRecord
  2
ByLayer
 70
     0
  3

 72
    65
 73
     0
 40
0.0
  0
LTYPE
  5
16
330
5
100
AcDbSymbolTableRecord
100
AcDbLinetypeTableRecord
  2
Continuous
 70
     0
  3
Solid line
 72
    65
 73
     0
 40
0.0
  0
ENDTAB
  0
TABLE
  2
LAYER
  5
2
330
0
100
AcDbSymbolTable
 70
     2
  0
LAYER
  5
10
330
2
100
AcDbSymbolTableRecord
100
AcDbLayerTableRecord
  2
0
 70
     0
 62
     7
  6
Continuous
370
    -3
390
F
  0
LAYER
  5
8F1
102
{ACAD_XDICTIONARY
360
8F2
102
}
330
2
100
AcDbSymbolTableRecord
100
AcDbLayerTableRecord
  2
ceco.net 241
 70
     0
 62
     7
  6
Continuous
370
    -3
390
F
1001
AcAecLayerStandard
1000

1000

  0
ENDTAB
  0
TABLE
  2
STYLE
  5
3
330
0
100
AcDbSymbolTable
 70
     1
  0
STYLE
  5
11
330
3
100
AcDbSymbolTableRecord
100
AcDbTextStyleTableRecord
  2
Standard
 70
     0
 40
0.0
 41
1.0
 50
0.0
 71
     0
 42
2.5
  3
txt
  4

  0
ENDTAB
  0
TABLE
  2
VIEW
  5
6
330
0
100
AcDbSymbolTable
 70
     0
  0
ENDTAB
  0
TABLE
  2
UCS
  5
7
330
0
100
AcDbSymbolTable
 70
     0
  0
ENDTAB
  0
TABLE
  2
APPID
  5
9
330
0
100
AcDbSymbolTable
 70
     6
  0
APPID
  5
12
330
9
100
AcDbSymbolTableRecord
100
AcDbRegAppTableRecord
  2
ACAD
 70
     0
  0
APPID
  5
2C
330
9
100
AcDbSymbolTableRecord
100
AcDbRegAppTableRecord
  2
ACAD_DSTYLE_DIMJOGGED_JOGANGLE_SYMBOL
 70
     0
  0
APPID
  5
11B
330
9
100
AcDbSymbolTableRecord
100
AcDbRegAppTableRecord
  2
ACAD_NAV_VCDISPLAY
 70
     0
  0
APPID
  5
11C
330
9
100
AcDbSymbolTableRecord
100
AcDbRegAppTableRecord
  2
ACAD_MLEADERVER
 70
     0
  0
APPID
  5
8F4
330
9
100
AcDbSymbolTableRecord
100
AcDbRegAppTableRecord
  2
AcAecLayerStandard
 70
     0
  0
APPID
  5
8F5
330
9
100
AcDbSymbolTableRecord
100
AcDbRegAppTableRecord
  2
ACAD_EXEMPT_FROM_CAD_STANDARDS
 70
     0
  0
ENDTAB
  0
TABLE
  2
DIMSTYLE
  5
A
330
0
100
AcDbSymbolTable
 70
     2
100
AcDbDimStyleTable
 71
     0
  0
DIMSTYLE
105
27
330
A
100
AcDbSymbolTableRecord
100
AcDbDimStyleTableRecord
  2
ISO-25
 70
     0
 41
2.5
 42
0.625
 43
3.75
 44
1.25
 73
     0
 74
     0
 77
     1
 78
     8
140
2.5
141
2.5
143
0.03937007874016
147
0.625
171
     3
172
     1
271
     2
272
     2
274
     3
278
    44
283
     0
284
     8
340
11
  0
DIMSTYLE
105
2B
330
A
100
AcDbSymbolTableRecord
100
AcDbDimStyleTableRecord
  2
Standard
 70
     0
340
11
  0
ENDTAB
  0
TABLE
  2
BLOCK_RECORD
  5
1
330
0
100
AcDbSymbolTable
 70
     2
  0
BLOCK_RECORD
  5
1F
330
1
100
AcDbSymbolTableRecord
100
AcDbBlockTableRecord
  2
*Model_Space
340
22
  0
BLOCK_RECORD
  5
1B
330
1
100
AcDbSymbolTableRecord
100
AcDbBlockTableRecord
  2
*Paper_Space
340
1E
  0
BLOCK_RECORD
  5
23
330
1
100
AcDbSymbolTableRecord
100
AcDbBlockTableRecord
  2
*Paper_Space0
340
26
  0
ENDTAB
  0
ENDSEC
  0
SECTION
  2
BLOCKS
  0
BLOCK
  5
20
330
1F
100
AcDbEntity
  8
0
100
AcDbBlockBegin
  2
*Model_Space
 70
     0
 10
0.0
 20
0.0
 30
0.0
  3
*Model_Space
  1

  0
ENDBLK
  5
21
330
1F
100
AcDbEntity
  8
0
100
AcDbBlockEnd
  0
BLOCK
  5
1C
330
1B
100
AcDbEntity
 67
     1
  8
0
100
AcDbBlockBegin
  2
*Paper_Space
 70
     0
 10
0.0
 20
0.0
 30
0.0
  3
*Paper_Space
  1

  0
ENDBLK
  5
1D
330
1B
100
AcDbEntity
 67
     1
  8
0
100
AcDbBlockEnd
  0
BLOCK
  5
24
330
23
100
AcDbEntity
  8
0
100
AcDbBlockBegin
  2
*Paper_Space0
 70
     0
 10
0.0
 20
0.0
 30
0.0
  3
*Paper_Space0
  1

  0
ENDBLK
  5
25
330
23
100
AcDbEntity
  8
0
100
AcDbBlockEnd
  0
ENDSEC
  0
SECTION
  2
ENTITIES
  0
SPLINE
  5
95B
330
1F
100
AcDbEntity
  8
ceco.net 241
370
    18
100
AcDbSpline
210
0.0
220
0.0
230
1.0
 70
     8
 71
     3
 72
   188
 73
   184
 74
     0
 42
0.0000000001
 43
0.0000000001
 40
0.0
 40
0.0
 40
0.0
 40
0.0
 40
1.0
 40
1.0
 40
1.0
 40
2.0
 40
2.0
 40
2.0
 40
3.0
 40
3.0
 40
3.0
 40
4.0
 40
4.0
 40
4.0
 40
5.0
 40
5.0
 40
5.0
 40
6.0
 40
6.0
 40
6.0
 40
7.0
 40
7.0
 40
7.0
 40
8.0
 40
8.0
 40
8.0
 40
9.0
 40
9.0
 40
9.0
 40
10.0
 40
10.0
 40
10.0
 40
11.0
 40
11.0
 40
11.0
 40
12.0
 40
12.0
 40
12.0
 40
13.0
 40
13.0
 40
13.0
 40
14.0
 40
14.0
 40
14.0
 40
15.0
 40
15.0
 40
15.0
 40
16.0
 40
16.0
 40
16.0
 40
17.0
 40
17.0
 40
17.0
 40
18.0
 40
18.0
 40
18.0
 40
19.0
 40
19.0
 40
19.0
 40
20.0
 40
20.0
 40
20.0
 40
21.0
 40
21.0
 40
21.0
 40
22.0
 40
22.0
 40
22.0
 40
23.0
 40
23.0
 40
23.0
 40
24.0
 40
24.0
 40
24.0
 40
25.0
 40
25.0
 40
25.0
 40
26.0
 40
26.0
 40
26.0
 40
27.0
 40
27.0
 40
27.0
 40
28.0
 40
28.0
 40
28.0
 40
29.0
 40
29.0
 40
29.0
 40
30.0
 40
30.0
 40
30.0
 40
31.0
 40
31.0
 40
31.0
 40
32.0
 40
32.0
 40
32.0
 40
33.0
 40
33.0
 40
33.0
 40
34.0
 40
34.0
 40
34.0
 40
35.0
 40
35.0
 40
35.0
 40
36.0
 40
36.0
 40
36.0
 40
37.0
 40
37.0
 40
37.0
 40
38.0
 40
38.0
 40
38.0
 40
39.0
 40
39.0
 40
39.0
 40
40.0
 40
40.0
 40
40.0
 40
41.0
 40
41.0
 40
41.0
 40
42.0
 40
42.0
 40
42.0
 40
43.0
 40
43.0
 40
43.0
 40
44.0
 40
44.0
 40
44.0
 40
45.0
 40
45.0
 40
45.0
 40
46.0
 40
46.0
 40
46.0
 40
47.0
 40
47.0
 40
47.0
 40
48.0
 40
48.0
 40
48.0
 40
49.0
 40
49.0
 40
49.0
 40
50.0
 40
50.0
 40
50.0
 40
51.0
 40
51.0
 40
51.0
 40
52.0
 40
52.0
 40
52.0
 40
53.0
 40
53.0
 40
53.0
 40
54.0
 40
54.0
 40
54.0
 40
55.0
 40
55.0
 40
55.0
 40
56.0
 40
56.0
 40
56.0
 40
57.0
 40
57.0
 40
57.0
 40
58.0
 40
58.0
 40
58.0
 40
59.0
 40
59.0
 40
59.0
 40
60.0
 40
60.0
 40
60.0
 40
60.23247306935632
 40
60.23247306935632
 40
60.23247306935632
 40
60.23247306935632
 10
-4153.24764595359
 20
408.4762081127655
 30
0.0
 10
-4153.24764595359
 20
408.4762081127655
 30
0.0
 10
-4665.197447800429
 20
429.9477657245851
 30
0.0
 10
-4665.197447800429
 20
429.9477657245851
 30
0.0
 10
-4665.197447800429
 20
429.9477657245851
 30
0.0
 10
-4694.101798921676
 20
415.542960226885
 30
0.0
 10
-4706.71084839769
 20
410.831792150805
 30
0.0
 10
-4719.289753288209
 20
406.2928788489889
 30
0.0
 10
-4744.206406385277
 20
409.376239308287
 30
0.0
 10
-4744.206406385277
 20
409.376239308287
 30
0.0
 10
-4744.206406385277
 20
409.376239308287
 30
0.0
 10
-4744.826523572623
 20
393.1153886179072
 30
0.0
 10
-4744.507852240237
 20
390.2645721038643
 30
0.0
 10
-4744.206406385277
 20
387.5472530398728
 30
0.0
 10
-4749.731478269747
 20
386.5955454120721
 30
0.0
 10
-4749.731478269747
 20
386.5955454120721
 30
0.0
 10
-4749.731478269747
 20
386.5955454120721
 30
0.0
 10
-4779.234414731556
 20
386.2768740796864
 30
0.0
 10
-4779.234414731556
 20
386.2768740796864
 30
0.0
 10
-4779.234414731556
 20
386.2768740796864
 30
0.0
 10
-4793.070779474191
 20
378.5684729314407
 30
0.0
 10
-4793.070779474191
 20
378.5684729314407
 30
0.0
 10
-4793.070779474191
 20
378.5684729314407
 30
0.0
 10
-4795.865613186599
 20
380.4374372321881
 30
0.0
 10
-4795.865613186599
 20
380.4374372321881
 30
0.0
 10
-4795.865613186599
 20
380.4374372321881
 30
0.0
 10
-4794.922518297513
 20
387.5472530398728
 30
0.0
 10
-4794.922518297513
 20
387.5472530398728
 30
0.0
 10
-4794.922518297513
 20
387.5472530398728
 30
0.0
 10
-4804.103697765703
 20
387.3233218333316
 30
0.0
 10
-4804.103697765703
 20
387.3233218333316
 30
0.0
 10
-4804.103697765703
 20
387.3233218333316
 30
0.0
 10
-4804.766878646614
 20
370.9160545848289
 30
0.0
 10
-4804.766878646614
 20
370.9160545848289
 30
0.0
 10
-4804.766878646614
 20
370.9160545848289
 30
0.0
 10
-4844.376863988274
 20
371.6438310060884
 30
0.0
 10
-4844.376863988274
 20
371.6438310060884
 30
0.0
 10
-4844.376863988274
 20
371.6438310060884
 30
0.0
 10
-4844.376863988274
 20
387.3233218333316
 30
0.0
 10
-4844.376863988274
 20
387.3233218333316
 30
0.0
 10
-4844.376863988274
 20
387.3233218333316
 30
0.0
 10
-4849.294737793468
 20
384.7308874806813
 30
0.0
 10
-4852.352260036627
 20
384.7308874806813
 30
0.0
 10
-4855.461458712065
 20
384.7308874806813
 30
0.0
 10
-4857.881638290454
 20
384.7308874806813
 30
0.0
 10
-4862.523904456828
 20
385.139992569555
 30
0.0
 10
-4867.101575082853
 20
385.4199065777311
 30
0.0
 10
-4868.95762027553
 20
388.1329192723651
 30
0.0
 10
-4868.95762027553
 20
388.1329192723651
 30
0.0
 10
-4868.95762027553
 20
388.1329192723651
 30
0.0
 10
-4871.696471186305
 20
388.4515906047509
 30
0.0
 10
-4871.696471186305
 20
388.4515906047509
 30
0.0
 10
-4871.696471186305
 20
388.4515906047509
 30
0.0
 10
-4873.875494080724
 20
382.9179059815687
 30
0.0
 10
-4877.277525872409
 20
382.6552174508178
 30
0.0
 10
-4880.649413078598
 20
382.2848696861537
 30
0.0
 10
-4883.732773537897
 20
382.2848696861537
 30
0.0
 10
-4889.567904016039
 20
382.6552174508178
 30
0.0
 10
-4895.411647232894
 20
382.9179059815687
 30
0.0
 10
-4894.485777821233
 20
388.1329192723651
 30
0.0
 10
-4894.485777821233
 20
393.7139739584699
 30
0.0
 10
-4894.485777821233
 20
399.1916757800172
 30
0.0
 10
-4895.071444053725
 20
438.5561980683532
 30
0.0
 10
-4895.071444053725
 20
443.7712113591506
 30
0.0
 10
-4895.071444053725
 20
449.0249819741566
 30
0.0
 10
-4892.013921810566
 20
455.1873965233962
 30
0.0
 10
-4892.013921810566
 20
455.1873965233962
 30
0.0
 10
-4892.013921810566
 20
455.1873965233962
 30
0.0
 10
-4904.592826701084
 20
456.3716480964512
 30
0.0
 10
-4916.00901186533
 20
458.2190805504169
 30
0.0
 10
-4927.377826966655
 20
460.0320620495295
 30
0.0
 10
-4932.29570077185
 20
475.4402516073096
 30
0.0
 10
-4932.29570077185
 20
475.4402516073096
 30
0.0
 10
-4932.29570077185
 20
475.4402516073096
 30
0.0
 10
-4938.143750358062
 20
478.2092471035793
 30
0.0
 10
-4945.464578264217
 20
485.3104501725502
 30
0.0
 10
-4952.845695341364
 20
492.3341385931035
 30
0.0
 10
-4962.67283021304
 20
499.400890707222
 30
0.0
 10
-4969.78695239008
 20
531.6168398636646
 30
0.0
 10
-4976.82786628806
 20
563.8715463443158
 30
0.0
 10
-4982.408920974165
 20
604.5107539621949
 30
0.0
 10
-4982.951523513092
 20
614.3551143112963
 30
0.0
 10
-4983.601785285934
 20
624.1305727506924
 30
0.0
 10
-4976.220668208785
 20
626.6670243017078
 30
0.0
 10
-4976.220668208785
 20
626.6670243017078
 30
0.0
 10
-4976.220668208785
 20
626.6670243017078
 30
0.0
 10
-4980.199753494249
 20
629.0785911413823
 30
0.0
 10
-4980.199753494249
 20
634.3280553870317
 30
0.0
 10
-4980.199753494249
 20
639.4913922455498
 30
0.0
 10
-4980.199753494249
 20
654.8479053710507
 30
0.0
 10
-4980.54856941213
 20
662.233328817555
 30
0.0
 10
-4980.862934375159
 20
669.6230586334167
 30
0.0
 10
-4974.700519825919
 20
672.1121401215095
 30
0.0
 10
-4966.707898300138
 20
674.558157916037
 30
0.0
 10
-4958.68943855822
 20
677.0601585121994
 30
0.0
 10
-4942.127142012882
 20
683.7565628616539
 30
0.0
 10
-4933.815849154717
 20
685.9398921254315
 30
0.0
 10
-4925.521781773976
 20
688.105995911782
 30
0.0
 10
-4916.934881276991
 20
689.0060271073034
 30
0.0
 10
-4916.934881276991
 20
689.0060271073034
 30
0.0
 10
-4916.934881276991
 20
689.0060271073034
 30
0.0
 10
-4865.895791663015
 20
690.1902786803584
 30
0.0
 10
-4865.895791663015
 20
690.1902786803584
 30
0.0
 10
-4865.895791663015
 20
690.1902786803584
 30
0.0
 10
-4865.581426699986
 20
693.5836977333292
 30
0.0
 10
-4865.581426699986
 20
693.5836977333292
 30
0.0
 10
-4865.581426699986
 20
693.5836977333292
 30
0.0
 10
-4871.149562278021
 20
695.4526620340775
 30
0.0
 10
-4874.805669861743
 20
696.4000632925208
 30
0.0
 10
-4878.470390184176
 20
697.3000944880423
 30
0.0
 10
-4881.863809237149
 20
710.5292611514014
 30
0.0
 10
-4881.579588859615
 20
721.5880176590535
 30
0.0
 10
-4881.256611157873
 20
732.6381614279926
 30
0.0
 10
-4880.330741746212
 20
848.8067811906166
 30
0.0
 10
-4880.330741746212
 20
854.3318530750866
 30
0.0
 10
-4880.330741746212
 20
859.8655376982687
 30
0.0
 10
-4873.875494080724
 20
863.5819344529819
 30
0.0
 10
-4873.875494080724
 20
863.5819344529819
 30
0.0
 10
-4873.875494080724
 20
863.5819344529819
 30
0.0
 10
-4877.544520772516
 20
865.3949159520953
 30
0.0
 10
-4877.544520772516
 20
865.3949159520953
 30
0.0
 10
-4877.544520772516
 20
865.3949159520953
 30
0.0
 10
-4879.723543666937
 20
870.9070687284947
 30
0.0
 10
-4885.558674145079
 20
909.3457216051701
 30
0.0
 10
-4891.432561947429
 20
947.7972935899151
 30
0.0
 10
-4898.137579035597
 20
1032.568174373843
 30
0.0
 10
-4896.940408354473
 20
1091.599885513599
 30
0.0
 10
-4895.734624934636
 20
1150.592839329146
 30
0.0
 10
-4884.047138500926
 20
1194.224973649835
 30
0.0
 10
-4881.256611157873
 20
1205.00381614931
 30
0.0
 10
-4878.470390184176
 20
1215.696531261655
 30
0.0
 10
-4874.22000362925
 20
1214.830951020985
 30
0.0
 10
-4874.22000362925
 20
1214.830951020985
 30
0.0
 10
-4874.22000362925
 20
1214.830951020985
 30
0.0
 10
-4873.875494080724
 20
1217.879860525432
 30
0.0
 10
-4873.875494080724
 20
1217.879860525432
 30
0.0
 10
-4873.875494080724
 20
1217.879860525432
 30
0.0
 10
-4876.338737352678
 20
1220.958914615374
 30
0.0
 10
-4876.338737352678
 20
1220.958914615374
 30
0.0
 10
-4876.338737352678
 20
1220.958914615374
 30
0.0
 10
-4875.145873040911
 20
1227.392630434078
 30
0.0
 10
-4874.538674961636
 20
1236.905400342724
 30
0.0
 10
-4873.875494080724
 20
1246.465540314292
 30
0.0
 10
-4874.538674961636
 20
1254.161022354469
 30
0.0
 10
-4877.277525872409
 20
1263.092432399979
 30
0.0
 10
-4880.050827738036
 20
1271.972166013211
 30
0.0
 10
-4894.485777821233
 20
1303.731640017858
 30
0.0
 10
-4898.977321060127
 20
1311.935273642109
 30
0.0
 10
-4903.477477037735
 20
1320.078618095368
 30
0.0
 10
-4888.728161991508
 20
1323.795014850081
 30
0.0
 10
-4888.728161991508
 20
1323.795014850081
 30
0.0
 10
-4888.728161991508
 20
1323.795014850081
 30
0.0
 10
-4891.178486155393
 20
1325.840540294449
 30
0.0
 10
-4891.178486155393
 20
1325.840540294449
 30
0.0
 10
-4891.178486155393
 20
1325.840540294449
 30
0.0
 10
-4892.849357465738
 20
1327.511411604795
 30
0.0
 10
-4892.849357465738
 20
1327.511411604795
 30
0.0
 10
-4892.849357465738
 20
1327.511411604795
 30
0.0
 10
-4889.985621843625
 20
1343.466510070858
 30
0.0
 10
-4887.944402768614
 20
1350.44282842849
 30
0.0
 10
-4885.898877324247
 20
1357.419146786121
 30
0.0
 10
-4863.337808265217
 20
1362.311182375175
 30
0.0
 10
-4824.016349670447
 20
1366.018966391175
 30
0.0
 10
-4784.712116553103
 20
1369.696605821679
 30
0.0
 10
-4743.706867539916
 20
1374.188149060573
 30
0.0
 10
-4707.231919089834
 20
1374.592947780091
 30
0.0
 10
-4670.765583378464
 20
1375.036503823817
 30
0.0
 10
-4486.34962205304
 20
1373.008203856876
 30
0.0
 10
-4486.34962205304
 20
1373.008203856876
 30
0.0
 10
-4486.34962205304
 20
1373.008203856876
 30
0.0
 10
-4483.102619558192
 20
1376.263819090437
 30
0.0
 10
-4483.102619558192
 20
1376.263819090437
 30
0.0
 10
-4483.102619558192
 20
1376.263819090437
 30
0.0
 10
-2364.661729245788
 20
1372.551728705079
 30
0.0
 10
-2364.661729245788
 20
1372.551728705079
 30
0.0
 10
-2364.661729245788
 20
1372.551728705079
 30
0.0
 10
-2364.256930526271
 20
1368.430533230849
 30
0.0
 10
-2364.256930526271
 20
1368.430533230849
 30
0.0
 10
-2364.256930526271
 20
1368.430533230849
 30
0.0
 10
-2284.279038836197
 20
1368.150619222673
 30
0.0
 10
-2284.279038836197
 20
1368.150619222673
 30
0.0
 10
-2284.279038836197
 20
1368.150619222673
 30
0.0
 10
-2284.108911558472
 20
1369.681066525437
 30
0.0
 10
-2283.820326305298
 20
1372.330987287933
 30
0.0
  0
SPLINE
  5
95C
330
1F
100
AcDbEntity
  8
ceco.net 241
370
    18
100
AcDbSpline
210
0.0
220
0.0
230
1.0
 70
     8
 71
     3
 72
    17
 73
    13
 74
     0
 42
0.0000000001
 43
0.0000000001
 40
0.0
 40
0.0
 40
0.0
 40
0.0
 40
1.0
 40
1.0
 40
1.0
 40
2.0
 40
2.0
 40
2.0
 40
3.0
 40
3.0
 40
3.0
 40
4.0
 40
4.0
 40
4.0
 40
4.0
 10
-408.1391440847528
 20
438.4859255456458
 30
0.0
 10
-408.1391440847528
 20
438.4859255456458
 30
0.0
 10
-442.7290854120355
 20
440.3734859368232
 30
0.0
 10
-466.7155627280881
 20
438.5561980683532
 30
0.0
 10
-490.6331381344353
 20
436.695846506319
 30
0.0
 10
-543.2139079780609
 20
388.5377179918823
 30
0.0
 10
-543.7995742105531
 20
381.7379607778702
 30
0.0
 10
-543.7995742105531
 20
381.7379607778702
 30
0.0
 10
-603.9509413830155
 20
383.060016170335
 30
0.0
 10
-603.9509413830155
 20
383.060016170335
 30
0.0
 10
-603.9509413830155
 20
383.060016170335
 30
0.0
 10
-3334.739249584696
 20
402.2309315309575
 30
0.0
 10
-3334.739249584696
 20
402.2309315309575
 30
0.0
  0
SPLINE
  5
95D
330
1F
100
AcDbEntity
  8
ceco.net 241
370
    18
100
AcDbSpline
210
0.0
220
0.0
230
1.0
 70
     8
 71
     3
 72
    11
 73
     7
 74
     0
 42
0.0000000001
 43
0.0000000001
 40
0.1175748692539947
 40
0.1175748692539947
 40
0.1175748692539947
 40
0.1175748692539947
 40
1.0
 40
1.0
 40
1.0
 40
1.301897983228214
 40
1.301897983228214
 40
1.301897983228214
 40
1.301897983228214
 10
-2168.015076537983
 20
1858.853150796513
 30
0.0
 10
-2167.376934218903
 20
1861.201445370913
 30
0.0
 10
-2164.471044372201
 20
1871.610712002225
 30
0.0
 10
-2161.203002625647
 20
1878.804203893187
 30
0.0
 10
-2160.095330866985
 20
1881.29386518173
 30
0.0
 10
-2158.706173476867
 20
1883.103204257991
 30
0.0
 10
-2157.306446198125
 20
1884.416083243838
 30
0.0
  0
SPLINE
  5
95E
330
1F
100
AcDbEntity
  8
ceco.net 241
370
    18
100
AcDbSpline
210
0.0
220
0.0
230
1.0
 70
     8
 71
     3
 72
    26
 73
    22
 74
     0
 42
0.0000000001
 43
0.0000000001
 40
0.1687680223136591
 40
0.1687680223136591
 40
0.1687680223136591
 40
0.1687680223136591
 40
1.0
 40
1.0
 40
1.0
 40
2.0
 40
2.0
 40
2.0
 40
3.0
 40
3.0
 40
3.0
 40
4.0
 40
4.0
 40
4.0
 40
5.0
 40
5.0
 40
5.0
 40
6.0
 40
6.0
 40
6.0
 40
7.0
 40
7.0
 40
7.0
 40
7.0
 10
810.28480273277
 20
483.2033620940519
 30
0.0
 10
814.2400038774113
 20
483.1272205884824
 30
0.0
 10
826.9045239814268
 20
482.9587296205527
 30
0.0
 10
838.1229650490004
 20
483.6352724928474
 30
0.0
 10
851.636352089894
 20
484.4448699318809
 30
0.0
 10
852.1272781965418
 20
499.2630868878113
 30
0.0
 10
853.7120221197556
 20
509.8653682436689
 30
0.0
 10
855.3484424752506
 20
520.1532846364953
 30
0.0
 10
860.7744678645186
 20
574.6116315195831
 30
0.0
 10
863.4960932978666
 20
602.8872527147704
 30
0.0
 10
866.4502626764679
 20
631.1585675406022
 30
0.0
 10
848.3548986401938
 20
630.3834210564209
 30
0.0
 10
848.3548986401938
 20
630.3834210564209
 30
0.0
 10
848.3548986401938
 20
630.3834210564209
 30
0.0
 10
830.2003691216668
 20
630.8958496060577
 30
0.0
 10
830.2003691216668
 20
630.8958496060577
 30
0.0
 10
830.2003691216668
 20
630.8958496060577
 30
0.0
 10
844.2810732288853
 20
632.7949878960962
 30
0.0
 10
861.4979379164214
 20
635.2280865825532
 30
0.0
 10
878.7234153426698
 20
637.7300871787165
 30
0.0
 10
885.5670033003233
 20
641.674971283137
 30
0.0
 10
885.5670033003233
 20
641.674971283137
 30
0.0
  0
SPLINE
  5
95F
330
1F
100
AcDbEntity
  8
ceco.net 241
370
    18
100
AcDbSpline
210
0.0
220
0.0
230
1.0
 70
     8
 71
     3
 72
    11
 73
     7
 74
     0
 42
0.0000000001
 43
0.0000000001
 40
0.1036111552751884
 40
0.1036111552751884
 40
0.1036111552751884
 40
0.1036111552751884
 40
1.0
 40
1.0
 40
1.0
 40
2.0
 40
2.0
 40
2.0
 40
2.0
 10
824.2543848152818
 20
611.0540650795346
 30
0.0
 10
826.560296728384
 20
610.9256680641737
 30
0.0
 10
838.6219186378166
 20
610.3646518929608
 30
0.0
 10
856.6489660209317
 20
611.4956850585386
 30
0.0
 10
876.7338726999387
 20
612.7143875864458
 30
0.0
 10
913.157144717743
 20
626.2234682579819
 30
0.0
 10
913.157144717743
 20
626.2234682579819
 30
0.0
  0
SPLINE
  5
960
330
1F
100
AcDbEntity
  8
ceco.net 241
370
    18
100
AcDbSpline
210
0.0
220
0.0
230
1.0
 70
     8
 71
     3
 72
    11
 73
     7
 74
     0
 42
0.0000000001
 43
0.0000000001
 40
0.1723398437953913
 40
0.1723398437953913
 40
0.1723398437953913
 40
0.1723398437953913
 40
1.0
 40
1.0
 40
1.0
 40
1.189473990482795
 40
1.189473990482795
 40
1.189473990482795
 40
1.189473990482795
 10
839.7710754938161
 20
483.8121583288065
 30
0.0
 10
849.8387604367598
 20
484.6861396236281
 30
0.0
 10
861.8588347153673
 20
488.266009162954
 30
0.0
 10
881.2124968307635
 20
492.6571162948457
 30
0.0
 10
885.6447099973266
 20
493.6615445732031
 30
0.0
 10
889.1032501431963
 20
494.9929525973157
 30
0.0
 10
891.7979704988383
 20
496.4913726827099
 30
0.0
  0
SPLINE
  5
961
330
1F
100
AcDbEntity
  8
ceco.net 241
370
    18
100
AcDbSpline
210
0.0
220
0.0
230
1.0
 70
    11
 71
     3
 72
    17
 73
    13
 74
     0
 42
0.0000000001
 43
0.0000000001
 40
0.0
 40
0.0
 40
0.0
 40
0.0
 40
1.0
 40
1.0
 40
1.0
 40
2.0
 40
2.0
 40
2.0
 40
3.0
 40
3.0
 40
3.0
 40
4.0
 40
4.0
 40
4.0
 40
4.0
 10
-3769.080742024025
 20
1128.16526772017
 30
0.0
 10
-4102.346360159025
 20
1139.547001929563
 30
0.0
 10
-4317.307399330544
 20
881.0701004099819
 30
0.0
 10
-4317.307399330544
 20
881.0701004099819
 30
0.0
 10
-4317.307399330544
 20
881.0701004099819
 30
0.0
 10
-4190.738897571821
 20
1152.634058404157
 30
0.0
 10
-3764.137030002691
 20
1153.99487112083
 30
0.0
 10
-3391.476744993859
 20
1155.222186387451
 30
0.0
 10
-3236.796264075498
 20
895.836640933634
 30
0.0
 10
-3236.796264075498
 20
895.836640933634
 30
0.0
 10
-3236.796264075498
 20
895.836640933634
 30
0.0
 10
-3407.668693774534
 20
1115.892115053967
 30
0.0
 10
-3769.080742024025
 20
1128.16526772017
 30
0.0
  0
SPLINE
  5
962
330
1F
100
AcDbEntity
  8
ceco.net 241
370
    18
100
AcDbSpline
210
0.0
220
0.0
230
1.0
 70
     8
 71
     3
 72
    23
 73
    19
 74
     0
 42
0.0000000001
 43
0.0000000001
 40
0.0436226021845314
 40
0.0436226021845314
 40
0.0436226021845314
 40
0.0436226021845314
 40
1.0
 40
1.0
 40
1.0
 40
2.0
 40
2.0
 40
2.0
 40
3.0
 40
3.0
 40
3.0
 40
4.0
 40
4.0
 40
4.0
 40
5.0
 40
5.0
 40
5.0
 40
5.97572889225173
 40
5.97572889225173
 40
5.97572889225173
 40
5.97572889225173
 10
-4881.595906326924
 20
720.0773908502679
 30
0.0
 10
-4847.487026766629
 20
719.7804806001104
 30
0.0
 10
-4454.583776346026
 20
716.3773107376118
 30
0.0
 10
-4365.224371161013
 20
716.3773107376128
 30
0.0
 10
-4271.836445294603
 20
716.3773107376128
 30
0.0
 10
-4243.526373144563
 20
765.5732742669815
 30
0.0
 10
-4220.151400277141
 20
796.2561559324877
 30
0.0
 10
-4196.815184733931
 20
827.0122458770556
 30
0.0
 10
-4061.625331523371
 20
1010.14921550358
 30
0.0
 10
-3777.637497935514
 20
1010.14921550358
 30
0.0
 10
-3493.727178996074
 20
1010.14921550358
 30
0.0
 10
-3362.16328878374
 20
850.3527677896226
 30
0.0
 10
-3310.551452045341
 20
788.9137961795486
 30
0.0
 10
-3258.926696198872
 20
727.470518200118
 30
0.0
 10
-3230.608011310119
 20
715.162914579063
 30
0.0
 10
-3180.232102577052
 20
713.9269865737287
 30
0.0
 10
-3131.078872952764
 20
712.7378633061907
 30
0.0
 10
-2253.310032505795
 20
711.5405403077065
 30
0.0
 10
-2210.730143809095
 20
711.4831200933631
 30
0.0
  0
LWPOLYLINE
  5
963
330
1F
100
AcDbEntity
  8
ceco.net 241
370
    18
100
AcDbPolyline
 90
        2
 70
     0
 43
0.0
 10
-3260.971315173233
 20
466.8750512540619
 10
-2183.590242472371
 20
468.0445809882367
  0
LWPOLYLINE
  5
964
330
1F
100
AcDbEntity
  8
ceco.net 241
370
    18
100
AcDbPolyline
 90
        2
 70
     0
 43
0.0
 10
-3315.599299280936
 20
664.7310230443618
 10
-2205.812607236471
 20
664.7310230443618
  0
LWPOLYLINE
  5
965
330
1F
100
AcDbEntity
  8
ceco.net 241
370
    18
100
AcDbPolyline
 90
        2
 70
     0
 43
0.0
 10
-3329.284994211031
 20
690.6079965079443
 10
-2208.509863251452
 20
690.6079965079443
  0
LWPOLYLINE
  5
966
330
1F
100
AcDbEntity
  8
ceco.net 241
370
    18
100
AcDbPolyline
 90
        2
 70
     0
 43
0.0
 10
-4680.061687708376
 20
668.4857236485541
 10
-4210.5123251095
 20
669.1165251819338
  0
LWPOLYLINE
  5
967
330
1F
100
AcDbEntity
  8
ceco.net 241
370
    18
100
AcDbPolyline
 90
        2
 70
     0
 43
0.0
 10
-4736.325904771189
 20
691.8140914063087
 10
-4199.519104736242
 20
691.1917323333891
  0
SPLINE
  5
968
330
1F
100
AcDbEntity
  8
ceco.net 241
370
    18
100
AcDbSpline
210
0.0
220
0.0
230
1.0
 70
     8
 71
     3
 72
    23
 73
    19
 74
     0
 42
0.0000000001
 43
0.0000000001
 40
0.4045071992008448
 40
0.4045071992008448
 40
0.4045071992008448
 40
0.4045071992008448
 40
1.0
 40
1.0
 40
1.0
 40
2.0
 40
2.0
 40
2.0
 40
3.0
 40
3.0
 40
3.0
 40
4.0
 40
4.0
 40
4.0
 40
5.0
 40
5.0
 40
5.0
 40
6.0
 40
6.0
 40
6.0
 40
6.0
 10
-4932.29570077185
 20
475.4402516073096
 30
0.0
 10
-4917.910042168092
 20
468.9687463915333
 30
0.0
 10
-4893.777584425567
 20
467.7231572655901
 30
0.0
 10
-4872.923786452926
 20
466.2332339229797
 30
0.0
 10
-4837.878552629221
 20
463.8001352365217
 30
0.0
 10
-4692.211302774145
 20
457.0391353467185
 30
0.0
 10
-4675.661925336875
 20
457.0391353467185
 30
0.0
 10
-4659.030726881832
 20
457.0391353467185
 30
0.0
 10
-4669.469366202139
 20
472.361197517368
 30
0.0
 10
-4673.797267405484
 20
490.7881519940974
 30
0.0
 10
-4678.107943131402
 20
509.2366383176104
 30
0.0
 10
-4684.218681248365
 20
592.2332949266356
 30
0.0
 10
-4689.132248684202
 20
621.150565155951
 30
0.0
 10
-4694.080267074893
 20
650.0419971691281
 30
0.0
 10
-4710.069816495808
 20
667.8100771343042
 30
0.0
 10
-4754.283310679634
 20
669.1192134186985
 30
0.0
 10
-4798.548481295737
 20
670.299158622397
 30
0.0
 10
-4973.077018578495
 20
672.1121401215095
 30
0.0
 10
-4973.077018578495
 20
672.1121401215095
 30
0.0
  0
SPLINE
  5
969
330
1F
100
AcDbEntity
  8
ceco.net 241
370
    18
100
AcDbSpline
210
0.0
220
0.0
230
1.0
 70
     8
 71
     3
 72
    17
 73
    13
 74
     0
 42
0.0000000001
 43
0.0000000001
 40
0.0
 40
0.0
 40
0.0
 40
0.0
 40
1.0
 40
1.0
 40
1.0
 40
2.0
 40
2.0
 40
2.0
 40
3.0
 40
3.0
 40
3.0
 40
4.0
 40
4.0
 40
4.0
 40
4.0
 10
-4781.561756849262
 20
692.2181380801794
 30
0.0
 10
-4781.561756849262
 20
692.2181380801794
 30
0.0
 10
-4839.691534128334
 20
675.8328432455791
 30
0.0
 10
-4849.527281738723
 20
672.1121401215095
 30
0.0
 10
-4859.414705781389
 20
668.4431134297183
 30
0.0
 10
-4854.509751084265
 20
650.5889060774107
 30
0.0
 10
-4855.095417316757
 20
636.4941591733822
 30
0.0
 10
-4855.702615396032
 20
622.3175912515789
 30
0.0
 10
-4877.230155809488
 20
622.9463211776374
 30
0.0
 10
-4877.230155809488
 20
622.9463211776374
 30
0.0
 10
-4877.230155809488
 20
622.9463211776374
 30
0.0
 10
-4976.220668208785
 20
626.6670243017078
 30
0.0
 10
-4976.220668208785
 20
626.6670243017078
 30
0.0
  0
SPLINE
  5
96A
330
1F
100
AcDbEntity
  8
ceco.net 241
370
    18
100
AcDbSpline
210
0.0
220
0.0
230
1.0
 70
     8
 71
     3
 72
    59
 73
    55
 74
     0
 42
0.0000000001
 43
0.0000000001
 40
0.0947199408553192
 40
0.0947199408553192
 40
0.0947199408553192
 40
0.0947199408553192
 40
1.0
 40
1.0
 40
1.0
 40
2.0
 40
2.0
 40
2.0
 40
3.0
 40
3.0
 40
3.0
 40
4.0
 40
4.0
 40
4.0
 40
5.0
 40
5.0
 40
5.0
 40
6.0
 40
6.0
 40
6.0
 40
7.0
 40
7.0
 40
7.0
 40
8.0
 40
8.0
 40
8.0
 40
9.0
 40
9.0
 40
9.0
 40
10.0
 40
10.0
 40
10.0
 40
11.0
 40
11.0
 40
11.0
 40
12.0
 40
12.0
 40
12.0
 40
13.0
 40
13.0
 40
13.0
 40
14.0
 40
14.0
 40
14.0
 40
15.0
 40
15.0
 40
15.0
 40
16.0
 40
16.0
 40
16.0
 40
17.0
 40
17.0
 40
17.0
 40
18.0
 40
18.0
 40
18.0
 40
18.0
 10
-4865.686002965822
 20
692.4548470829477
 30
0.0
 10
-4851.301162130132
 20
692.4492858102494
 30
0.0
 10
-4773.469795573702
 20
692.3905730128399
 30
0.0
 10
-4733.397419300307
 20
691.7707162342158
 30
0.0
 10
-4689.132248684202
 20
691.1893563710809
 30
0.0
 10
-4667.617627378818
 20
658.6159785580439
 30
0.0
 10
-4663.94429431767
 20
635.2280865825532
 30
0.0
 10
-4660.24942940974
 20
611.9047901474123
 30
0.0
 10
-4651.055330833479
 20
529.5368634644446
 30
0.0
 10
-4647.950438527398
 20
492.0197736300742
 30
0.0
 10
-4644.888609914882
 20
454.5543602279821
 30
0.0
 10
-4620.906438968186
 20
444.0898826915363
 30
0.0
 10
-4594.512701181815
 20
445.3085852194426
 30
0.0
 10
-4568.054367855096
 20
446.5229813779933
 30
0.0
 10
-4271.836445294603
 20
434.2971987747132
 30
0.0
 10
-4258.288607298858
 20
433.6641624792982
 30
0.0
 10
-4244.796752104749
 20
433.078496246806
 30
0.0
 10
-4259.864738483361
 20
457.0046843918662
 30
0.0
 10
-4258.288607298858
 20
497.0065493449729
 30
0.0
 10
-4255.82967039626
 20
559.0785572504619
 30
0.0
 10
-4226.33104030381
 20
648.1902583458058
 30
0.0
 10
-4186.376545413625
 20
714.5212655449349
 30
0.0
 10
-4148.829310993757
 20
776.8645747198879
 30
0.0
 10
-4065.337421908727
 20
875.5407221561554
 30
0.0
 10
-3937.481315712393
 20
911.1931540591349
 30
0.0
 10
-3809.629515885415
 20
946.8455859621144
 30
0.0
 10
-3730.564574498931
 20
951.5179967139847
 30
0.0
 10
-3595.736456314322
 20
909.3801725600224
 30
0.0
 10
-3438.360188178753
 20
860.179902661298
 30
0.0
 10
-3370.177442156302
 20
766.8092022723149
 30
0.0
 10
-3322.195874785485
 20
677.6931948076144
 30
0.0
 10
-3274.28751569373
 20
588.5642682348443
 30
0.0
 10
-3258.319498119596
 20
453.3270449613619
 30
0.0
 10
-3257.6649299774
 20
437.3288828017329
 30
0.0
 10
-3257.066344636837
 20
421.3350270114606
 30
0.0
 10
-3247.833488736368
 20
421.3350270114606
 30
0.0
 10
-3227.550489066959
 20
421.9680633068755
 30
0.0
 10
-3207.289021244333
 20
422.6054059716471
 30
0.0
 10
-2202.406344629234
 20
423.1480085105731
 30
0.0
 10
-2186.39095699218
 20
422.6054059716471
 30
0.0
 10
-2170.444471264829
 20
421.9680633068755
 30
0.0
 10
-2177.17102019978
 20
439.8265770285388
 30
0.0
 10
-2183.33343474902
 20
466.8705765877502
 30
0.0
 10
-2189.444172865982
 20
493.875818822752
 30
0.0
 10
-2199.271307737657
 20
605.1954666898882
 30
0.0
 10
-2210.993245126219
 20
713.9269865737287
 30
0.0
 10
-2222.689344298643
 20
822.7187956285625
 30
0.0
 10
-2225.742560172446
 20
969.0061626709839
 30
0.0
 10
-2228.800082415605
 20
1071.028359097301
 30
0.0
 10
-2231.896361982973
 20
1173.016104568766
 30
0.0
 10
-2230.656127608283
 20
1292.263778421333
 30
0.0
 10
-2228.800082415605
 20
1303.959877593755
 30
0.0
 10
-2226.982794547135
 20
1315.643057658109
 30
0.0
 10
-2242.343614041994
 20
1315.005714993338
 30
0.0
 10
-2242.343614041994
 20
1315.005714993338
 30
0.0
  0
SPLINE
  5
96B
330
1F
100
AcDbEntity
  8
ceco.net 241
370
    18
100
AcDbSpline
210
0.0
220
0.0
230
1.0
 70
     8
 71
     3
 72
    23
 73
    19
 74
     0
 42
0.0000000001
 43
0.0000000001
 40
0.1883177986334183
 40
0.1883177986334183
 40
0.1883177986334183
 40
0.1883177986334183
 40
1.0
 40
1.0
 40
1.0
 40
2.0
 40
2.0
 40
2.0
 40
3.0
 40
3.0
 40
3.0
 40
4.0
 40
4.0
 40
4.0
 40
5.0
 40
5.0
 40
5.0
 40
5.700283856623363
 40
5.700283856623363
 40
5.700283856623363
 40
5.700283856623363
 10
-4883.902738194105
 20
898.6891464385644
 30
0.0
 10
-4876.946452491695
 20
894.0616858601597
 30
0.0
 10
-4858.693584980995
 20
894.5417076019776
 30
0.0
 10
-4836.448838002842
 20
894.2131396862096
 30
0.0
 10
-4808.974201507975
 20
893.7954218586238
 30
0.0
 10
-4801.606003538896
 20
906.1202509571048
 30
0.0
 10
-4786.856688492671
 20
917.9369284715113
 30
0.0
 10
-4772.094454338375
 20
929.9043289133988
 30
0.0
 10
-4699.579500743222
 20
992.5706157900931
 30
0.0
 10
-4689.347567152031
 20
1001.135984440294
 30
0.0
 10
-4679.124246299553
 20
1009.778867738915
 30
0.0
 10
-4689.752365871547
 20
1013.852693150224
 30
0.0
 10
-4703.657632523888
 20
1013.852693150224
 30
0.0
 10
-4717.631801085932
 20
1013.852693150224
 30
0.0
 10
-4826.617396761811
 20
1015.89821859459
 30
0.0
 10
-4856.538051051206
 20
1015.89821859459
 30
0.0
 10
-4877.500049272501
 20
1015.89821859459
 30
0.0
 10
-4889.989374782639
 20
1019.524235305721
 30
0.0
 10
-4895.592868325488
 20
1021.697786794679
 30
0.0
  0
SPLINE
  5
96C
330
1F
100
AcDbEntity
  8
ceco.net 241
370
    18
100
AcDbSpline
210
0.0
220
0.0
230
1.0
 70
     8
 71
     3
 72
    26
 73
    22
 74
     0
 42
0.0000000001
 43
0.0000000001
 40
0.0
 40
0.0
 40
0.0
 40
0.0
 40
1.0
 40
1.0
 40
1.0
 40
2.0
 40
2.0
 40
2.0
 40
3.0
 40
3.0
 40
3.0
 40
4.0
 40
4.0
 40
4.0
 40
5.0
 40
5.0
 40
5.0
 40
6.0
 40
6.0
 40
6.0
 40
6.654434836630127
 40
6.654434836630127
 40
6.654434836630127
 40
6.654434836630127
 10
-4887.665133900487
 20
1177.270118537977
 30
0.0
 10
-4887.665133900487
 20
1177.270118537977
 30
0.0
 10
-4881.954242993636
 20
1183.532258537491
 30
0.0
 10
-4866.735533687545
 20
1183.532258537491
 30
0.0
 10
-4851.628789984725
 20
1183.532258537491
 30
0.0
 10
-4682.840643054265
 20
1181.857080857787
 30
0.0
 10
-4663.539495598153
 20
1180.638378329881
 30
0.0
 10
-4644.281411835605
 20
1179.406756693903
 30
0.0
 10
-4640.211892793655
 20
1169.579621822229
 30
0.0
 10
-4640.569321450249
 20
1156.48825897828
 30
0.0
 10
-4640.999958385906
 20
1143.349526071408
 30
0.0
 10
-4639.376457138482
 20
1090.876415461696
 30
0.0
 10
-4639.376457138482
 20
1074.477760951907
 30
0.0
 10
-4639.376457138482
 20
1058.117863766326
 30
0.0
 10
-4646.757574215629
 20
1051.546344128213
 30
0.0
 10
-4661.498276523142
 20
1051.141545408696
 30
0.0
 10
-4676.243285200012
 20
1050.736746689179
 30
0.0
 10
-4824.985282775673
 20
1054.048344724376
 30
0.0
 10
-4857.791204533965
 20
1054.410079750327
 30
0.0
 10
-4879.223905484711
 20
1054.674994134202
 30
0.0
 10
-4891.200607539118
 20
1057.931449421114
 30
0.0
 10
-4896.918677512298
 20
1060.150449601677
 30
0.0
  0
SPLINE
  5
96D
330
1F
100
AcDbEntity
  8
ceco.net 241
370
    18
100
AcDbSpline
210
0.0
220
0.0
230
1.0
 70
     8
 71
     3
 72
    26
 73
    22
 74
     0
 42
0.0000000001
 43
0.0000000001
 40
0.3895289105080023
 40
0.3895289105080023
 40
0.3895289105080023
 40
0.3895289105080023
 40
1.0
 40
1.0
 40
1.0
 40
2.0
 40
2.0
 40
2.0
 40
3.0
 40
3.0
 40
3.0
 40
4.0
 40
4.0
 40
4.0
 40
5.0
 40
5.0
 40
5.0
 40
6.0
 40
6.0
 40
6.0
 40
6.956605048544659
 40
6.956605048544659
 40
6.956605048544659
 40
6.956605048544659
 10
-4878.324685868228
 20
859.6432159420102
 30
0.0
 10
-4863.270214339374
 20
859.669969427091
 30
0.0
 10
-4841.657031042925
 20
859.6561804618023
 30
0.0
 10
-4829.903156580868
 20
859.4090625464732
 30
0.0
 10
-4810.602009124756
 20
859.0042638269569
 30
0.0
 10
-4798.781025240992
 20
863.896299416011
 30
0.0
 10
-4763.50755384139
 20
891.8015728465352
 30
0.0
 10
-4728.311597090207
 20
919.6164125205704
 30
0.0
 10
-4651.662528912754
 20
991.7480992429892
 30
0.0
 10
-4628.266024198551
 20
1015.0843147862
 30
0.0
 10
-4604.938421394052
 20
1038.45928765362
 30
0.0
 10
-4607.767706061315
 20
1051.546344128213
 30
0.0
 10
-4606.966721360993
 20
1067.957917746072
 30
0.0
 10
-4606.208800354239
 20
1084.304895823583
 30
0.0
 10
-4606.561922641478
 20
1149.511940620649
 30
0.0
 10
-4607.39735829665
 20
1176.555940179861
 30
0.0
 10
-4608.23710032118
 20
1203.556876045506
 30
0.0
 10
-4629.101459853724
 20
1215.425229992192
 30
0.0
 10
-4661.860011549094
 20
1215.06349496624
 30
0.0
 10
-4693.238202430569
 20
1214.622709036831
 30
0.0
 10
-4859.586375134423
 20
1216.893144932056
 30
0.0
 10
-4873.964627937095
 20
1217.091025896567
 30
0.0
  0
LWPOLYLINE
  5
96E
330
1F
100
AcDbEntity
  8
ceco.net 241
370
    18
100
AcDbPolyline
 90
        2
 70
     0
 43
0.0
 10
-4760.027086199643
 20
1355.589881387921
 10
-4608.021781853351
 20
1370.33394848645
  0
LWPOLYLINE
  5
96F
330
1F
100
AcDbEntity
  8
ceco.net 241
370
    18
100
AcDbPolyline
 90
        6
 70
     0
 43
0.0
 10
-4845.871174155
 20
1354.973128991592
 10
-4676.243285200012
 20
1356.1918315195
 10
-4668.862168122864
 20
1358.637849314027
 10
-2445.776502445997
 20
1352.527111197065
 10
-2442.073024799352
 20
1348.810714442352
 10
-2282.364272580172
 20
1346.17494757648
  0
SPLINE
  5
970
330
1F
100
AcDbEntity
  8
ceco.net 241
370
    18
100
AcDbSpline
210
0.0
220
0.0
230
1.0
 70
     8
 71
     3
 72
    20
 73
    16
 74
     0
 42
0.0000000001
 43
0.0000000001
 40
0.0
 40
0.0
 40
0.0
 40
0.0
 40
1.0
 40
1.0
 40
1.0
 40
2.0
 40
2.0
 40
2.0
 40
3.0
 40
3.0
 40
3.0
 40
4.0
 40
4.0
 40
4.0
 40
5.0
 40
5.0
 40
5.0
 40
5.0
 10
-4888.966110894093
 20
1323.731056755808
 30
0.0
 10
-4888.966110894093
 20
1323.731056755808
 30
0.0
 10
-4883.160026413474
 20
1319.126910467568
 30
0.0
 10
-4829.067720925695
 20
1320.763330823062
 30
0.0
 10
-4774.971109068558
 20
1322.438508502765
 30
0.0
 10
-2242.343614041994
 20
1315.005714993338
 30
0.0
 10
-2242.343614041994
 20
1315.005714993338
 30
0.0
 10
-2242.343614041994
 20
1315.005714993338
 30
0.0
 10
-2244.742261773598
 20
1324.479727577774
 30
0.0
 10
-2251.774562932865
 20
1334.30686244945
 30
0.0
 10
-2258.720736705
 20
1344.138303690481
 30
0.0
 10
-2282.461750967728
 20
1346.183829134849
 30
0.0
 10
-2282.461750967728
 20
1346.183829134849
 30
0.0
 10
-2282.461750967728
 20
1346.183829134849
 30
0.0
 10
-2282.892387903384
 20
1368.6932217616
 30
0.0
 10
-2282.892387903384
 20
1368.6932217616
 30
0.0
  0
SPLINE
  5
971
330
1F
100
AcDbEntity
  8
ceco.net 241
370
    18
100
AcDbSpline
210
0.0
220
0.0
230
1.0
 70
     8
 71
     3
 72
    14
 73
    10
 74
     0
 42
0.0000000001
 43
0.0000000001
 40
0.0
 40
0.0
 40
0.0
 40
0.0
 40
1.0
 40
1.0
 40
1.0
 40
2.0
 40
2.0
 40
2.0
 40
3.0
 40
3.0
 40
3.0
 40
3.0
 10
-900.0813071981047
 20
1259.2118884161
 30
0.0
 10
-891.3494195012699
 20
1259.096121637089
 30
0.0
 10
-887.6890055481917
 20
1267.075824054799
 30
0.0
 10
-887.6890055481917
 20
1267.075824054799
 30
0.0
 10
-887.6890055481917
 20
1267.075824054799
 30
0.0
 10
-882.5041368428911
 20
1271.425257104928
 30
0.0
 10
-875.992906375769
 20
1276.640270395724
 30
0.0
 10
-869.6022542506298
 20
1281.850977317164
 30
0.0
 10
-870.1448567895567
 20
1311.655359633932
 30
0.0
 10
-870.1448567895567
 20
1311.655359633932
 30
0.0
  0
SPLINE
  5
972
330
1F
100
AcDbEntity
  8
ceco.net 241
370
    18
100
AcDbSpline
210
0.0
220
0.0
230
1.0
 70
     8
 71
     3
 72
    17
 73
    13
 74
     0
 42
0.0000000001
 43
0.0000000001
 40
0.1241868728175201
 40
0.1241868728175201
 40
0.1241868728175201
 40
0.1241868728175201
 40
1.0
 40
1.0
 40
1.0
 40
2.0
 40
2.0
 40
2.0
 40
3.0
 40
3.0
 40
3.0
 40
4.0
 40
4.0
 40
4.0
 40
4.0
 10
-1028.511367722635
 20
1259.249655557439
 30
0.0
 10
-1036.604526635284
 20
1260.202408465809
 30
0.0
 10
-1039.328433349608
 20
1265.334825912916
 30
0.0
 10
-1040.14309350921
 20
1274.771306094976
 30
0.0
 10
-1041.064656551514
 20
1285.46402120732
 30
0.0
 10
-1041.33165145162
 20
1294.128436352723
 30
0.0
 10
-1041.951768638966
 20
1330.995264414254
 30
0.0
 10
-1042.59772404245
 20
1367.87931795321
 30
0.0
 10
-1040.522054012587
 20
1430.269997191085
 30
0.0
 10
-1039.488525367012
 20
1447.443798185055
 30
0.0
 10
-1038.549736847282
 20
1464.708032935513
 30
0.0
 10
-1027.084158644101
 20
1465.191088383455
 30
0.0
 10
-1027.084158644101
 20
1465.191088383455
 30
0.0
  0
SPLINE
  5
973
330
1F
100
AcDbEntity
  8
ceco.net 241
370
    18
100
AcDbSpline
210
0.0
220
0.0
230
1.0
 70
     8
 71
     3
 72
    20
 73
    16
 74
     0
 42
0.0000000001
 43
0.0000000001
 40
0.0
 40
0.0
 40
0.0
 40
0.0
 40
1.0
 40
1.0
 40
1.0
 40
2.0
 40
2.0
 40
2.0
 40
3.0
 40
3.0
 40
3.0
 40
4.0
 40
4.0
 40
4.0
 40
5.0
 40
5.0
 40
5.0
 40
5.0
 10
-819.5019531563849
 20
1309.489255847582
 30
0.0
 10
-819.5019531563849
 20
1309.489255847582
 30
0.0
 10
-976.2193467803999
 20
1314.743026462587
 30
0.0
 10
-983.8674587576543
 20
1315.005714993338
 30
0.0
 10
-991.5672471671879
 20
1315.324386325724
 30
0.0
 10
-991.8945312382858
 20
1319.03647671108
 30
0.0
 10
-992.2218153093854
 20
1322.438508502765
 30
0.0
 10
-992.506035686917
 20
1325.750106537961
 30
0.0
 10
-992.506035686917
 20
1342.058327291262
 30
0.0
 10
-992.2218153093854
 20
1345.408682650668
 30
0.0
 10
-991.8945312382858
 20
1348.810714442352
 30
0.0
 10
-987.8637695205442
 20
1348.810714442352
 30
0.0
 10
-967.6668972382667
 20
1348.539413172889
 30
0.0
 10
-947.263319226875
 20
1348.225048209859
 30
0.0
 10
-815.6668007284014
 20
1344.531748389724
 30
0.0
 10
-815.6668007284014
 20
1344.531748389724
 30
0.0
  0
SPLINE
  5
974
330
1F
100
AcDbEntity
  8
ceco.net 241
370
    18
100
AcDbSpline
210
0.0
220
0.0
230
1.0
 70
     8
 71
     3
 72
    47
 73
    43
 74
     0
 42
0.0000000001
 43
0.0000000001
 40
0.0
 40
0.0
 40
0.0
 40
0.0
 40
1.0
 40
1.0
 40
1.0
 40
2.0
 40
2.0
 40
2.0
 40
3.0
 40
3.0
 40
3.0
 40
4.0
 40
4.0
 40
4.0
 40
5.0
 40
5.0
 40
5.0
 40
6.0
 40
6.0
 40
6.0
 40
7.0
 40
7.0
 40
7.0
 40
8.0
 40
8.0
 40
8.0
 40
9.0
 40
9.0
 40
9.0
 40
10.0
 40
10.0
 40
10.0
 40
11.0
 40
11.0
 40
11.0
 40
12.0
 40
12.0
 40
12.0
 40
13.0
 40
13.0
 40
13.0
 40
14.0
 40
14.0
 40
14.0
 40
14.0
 10
-1040.522054012587
 20
1389.673853266772
 30
0.0
 10
-1040.522054012587
 20
1389.673853266772
 30
0.0
 10
-976.2193467803999
 20
1387.542200435274
 30
0.0
 10
-946.9963243267676
 20
1387.542200435274
 30
0.0
 10
-946.9963243267676
 20
1387.542200435274
 30
0.0
 10
-879.3949381674529
 20
1387.542200435274
 30
0.0
 10
-879.3949381674529
 20
1387.542200435274
 30
0.0
 10
-879.3949381674529
 20
1387.542200435274
 30
0.0
 10
-879.6619330675595
 20
1393.067272319742
 30
0.0
 10
-879.6619330675595
 20
1393.067272319742
 30
0.0
 10
-879.6619330675595
 20
1393.067272319742
 30
0.0
 10
-883.4256998851952
 20
1416.450857925876
 30
0.0
 10
-889.5407443715139
 20
1435.485010481881
 30
0.0
 10
-895.7333035062502
 20
1454.549307623382
 30
0.0
 10
-928.8837348130673
 20
1466.788009334733
 30
0.0
 10
-961.1212158162926
 20
1466.788009334733
 30
0.0
 10
-991.5672471671879
 20
1466.788009334733
 30
0.0
 10
-1022.917616082961
 20
1466.241100426449
 30
0.0
 10
-1037.955457876077
 20
1464.074996640099
 30
0.0
 10
-1052.976074191765
 20
1461.9433438086
 30
0.0
 10
-1056.696777315835
 20
1449.984556105426
 30
0.0
 10
-1055.818277967097
 20
1433.672028982769
 30
0.0
 10
-1054.845038492514
 20
1417.398259184319
 30
0.0
 10
-1056.111111083343
 20
1299.967873200222
 30
0.0
 10
-1054.250759521308
 20
1277.501544267037
 30
0.0
 10
-1052.390407959273
 20
1255.117036351626
 30
0.0
 10
-1031.194457986272
 20
1260.00907194068
 30
0.0
 10
-1009.059719493543
 20
1259.096121637089
 30
0.0
 10
-986.9680446943794
 20
1258.148720378646
 30
0.0
 10
-865.7954237394296
 20
1259.410486600119
 30
0.0
 10
-846.2272813832106
 20
1260.00907194068
 30
0.0
 10
-826.590237117286
 20
1260.685171929662
 30
0.0
 10
-826.2285020913349
 20
1272.92387364101
 30
0.0
 10
-823.1193034158968
 20
1286.4674052674
 30
0.0
 10
-820.0359429565978
 20
1299.967873200222
 30
0.0
 10
-814.2395698026657
 20
1353.474512455509
 30
0.0
 10
-813.9725749025592
 20
1367.87931795321
 30
0.0
 10
-813.6539035701735
 20
1382.383169946111
 30
0.0
 10
-824.979654977932
 20
1390.621254525215
 30
0.0
 10
-839.4318305385549
 20
1393.067272319742
 30
0.0
 10
-839.4318305385549
 20
1393.067272319742
 30
0.0
 10
-880.6868489744211
 20
1397.369335306948
 30
0.0
 10
-880.6868489744211
 20
1397.369335306948
 30
0.0
  0
SPLINE
  5
975
330
1F
100
AcDbEntity
  8
ceco.net 241
370
    18
100
AcDbSpline
210
0.0
220
0.0
230
1.0
 70
     8
 71
     3
 72
    11
 73
     7
 74
     0
 42
0.0000000001
 43
0.0000000001
 40
0.0
 40
0.0
 40
0.0
 40
0.0
 40
1.0
 40
1.0
 40
1.0
 40
2.0
 40
2.0
 40
2.0
 40
2.0
 10
-1222.199806140112
 20
1768.271231546658
 30
0.0
 10
-1222.199806140112
 20
1768.271231546658
 30
0.0
 10
-1196.627943187971
 20
1779.271088954962
 30
0.0
 10
-1165.906304198255
 20
1787.057004751627
 30
0.0
 10
-1135.193277947253
 20
1794.855839656362
 30
0.0
 10
-1083.907286818875
 20
1807.007831568062
 30
0.0
 10
-1083.907286818875
 20
1807.007831568062
 30
0.0
  0
SPLINE
  5
976
330
1F
100
AcDbEntity
  8
ceco.net 241
370
    18
100
AcDbSpline
210
0.0
220
0.0
230
1.0
 70
     8
 71
     3
 72
    14
 73
    10
 74
     0
 42
0.0000000001
 43
0.0000000001
 40
0.0
 40
0.0
 40
0.0
 40
0.0
 40
1.0
 40
1.0
 40
1.0
 40
2.0
 40
2.0
 40
2.0
 40
3.0
 40
3.0
 40
3.0
 40
3.0
 10
-1232.24702143039
 20
1774.093542366349
 30
0.0
 10
-1237.219780742927
 20
1777.229869879952
 30
0.0
 10
-1231.061672563043
 20
1780.080686393996
 30
0.0
 10
-1223.723619179461
 20
1782.561155143376
 30
0.0
 10
-1216.290825670033
 20
1785.028704784686
 30
0.0
 10
-1213.836195136794
 20
1786.699576095032
 30
0.0
 10
-1176.577487463817
 20
1797.659286107483
 30
0.0
 10
-1139.284328835987
 20
1808.752493569988
 30
0.0
 10
-1092.987296926989
 20
1816.505590663724
 30
0.0
 10
-1092.987296926989
 20
1816.505590663724
 30
0.0
  0
SPLINE
  5
977
330
1F
100
AcDbEntity
  8
ceco.net 241
370
    18
100
AcDbSpline
210
0.0
220
0.0
230
1.0
 70
     8
 71
     3
 72
    11
 73
     7
 74
     0
 42
0.0000000001
 43
0.0000000001
 40
0.0
 40
0.0
 40
0.0
 40
0.0
 40
1.0
 40
1.0
 40
1.0
 40
1.43716895710373
 40
1.43716895710373
 40
1.43716895710373
 40
1.43716895710373
 10
-2117.23418558362
 20
463.1615991999442
 30
0.0
 10
-2142.832030950551
 20
463.8001352365217
 30
0.0
 10
-2145.837876761432
 20
487.2138654281506
 30
0.0
 10
-2152.607489389948
 20
542.4904224889842
 30
0.0
 10
-2155.551892994748
 20
566.6518520695526
 30
0.0
 10
-2159.561283299066
 20
614.8948201569774
 30
0.0
 10
-2163.655929269892
 20
673.6714779385765
 30
0.0
  0
SPLINE
  5
978
330
1F
100
AcDbEntity
  8
ceco.net 241
370
    18
100
AcDbSpline
210
0.0
220
0.0
230
1.0
 70
     8
 71
     3
 72
    29
 73
    25
 74
     0
 42
0.0000000001
 43
0.0000000001
 40
0.3477663787419565
 40
0.3477663787419565
 40
0.3477663787419565
 40
0.3477663787419565
 40
1.0
 40
1.0
 40
1.0
 40
2.0
 40
2.0
 40
2.0
 40
3.0
 40
3.0
 40
3.0
 40
4.0
 40
4.0
 40
4.0
 40
5.0
 40
5.0
 40
5.0
 40
6.0
 40
6.0
 40
6.0
 40
7.0
 40
7.0
 40
7.0
 40
8.0
 40
8.0
 40
8.0
 40
8.0
 10
-2194.603985618273
 20
1827.366999567149
 30
0.0
 10
-2187.251512895634
 20
1834.123841266971
 30
0.0
 10
-2180.235298558963
 20
1836.957197605116
 30
0.0
 10
-2169.837273185554
 20
1840.563644006913
 30
0.0
 10
-2153.761596377507
 20
1846.041345828461
 30
0.0
 10
-2114.487507845658
 20
1860.825111829539
 30
0.0
 10
-2094.798787147456
 20
1865.071192015109
 30
0.0
 10
-2075.144517404106
 20
1869.424931434594
 30
0.0
 10
-2054.250013286065
 20
1867.607643566125
 30
0.0
 10
-1934.369303138084
 20
1865.751598373447
 30
0.0
 10
-1814.540269422382
 20
1863.891246811412
 30
0.0
 10
-1644.275037802622
 20
1858.370481296299
 30
0.0
 10
-1537.985229343951
 20
1852.84540941183
 30
0.0
 10
-1431.652357191715
 20
1847.277273833794
 30
0.0
 10
-1340.064493716347
 20
1825.207130881413
 30
0.0
 10
-1300.747341490934
 20
1809.157292289505
 30
0.0
 10
-1261.438802004233
 20
1793.219419300868
 30
0.0
 10
-1196.257595423307
 20
1753.889347967384
 30
0.0
 10
-1118.183118988832
 20
1704.103411836167
 30
0.0
 10
-1040.14309350921
 20
1654.313169335594
 30
0.0
 10
-875.4158528819898
 20
1533.842486585765
 30
0.0
 10
-791.837836409828
 20
1468.691424590333
 30
0.0
 10
-708.251207198954
 20
1403.536056225545
 30
0.0
 10
-610.0419346960161
 20
1323.936901013229
 30
0.0
 10
-610.0419346960161
 20
1323.936901013229
 30
0.0
  0
LWPOLYLINE
  5
979
330
1F
100
AcDbEntity
  8
ceco.net 241
370
    18
100
AcDbPolyline
 90
        2
 70
     0
 43
0.0
 10
-1845.68393260904
 20
1328.549246619726
 10
-1857.173326052348
 20
1798.925358698313
  0
SPLINE
  5
97A
330
1F
100
AcDbEntity
  8
ceco.net 241
370
    18
100
AcDbSpline
210
0.0
220
0.0
230
1.0
 70
     8
 71
     3
 72
    23
 73
    19
 74
     0
 42
0.0000000001
 43
0.0000000001
 40
0.0
 40
0.0
 40
0.0
 40
0.0
 40
1.0
 40
1.0
 40
1.0
 40
2.0
 40
2.0
 40
2.0
 40
3.0
 40
3.0
 40
3.0
 40
4.0
 40
4.0
 40
4.0
 40
5.0
 40
5.0
 40
5.0
 40
6.0
 40
6.0
 40
6.0
 40
6.0
 10
-1830.508286996514
 20
1328.549246619727
 30
0.0
 10
-1830.508286996514
 20
1328.549246619727
 30
0.0
 10
-1834.625176101388
 20
1496.958433046807
 30
0.0
 10
-1836.261596456882
 20
1561.295591233849
 30
0.0
 10
-1837.872178596236
 20
1625.58107298861
 30
0.0
 10
-1843.272365769366
 20
1768.203719708597
 30
0.0
 10
-1842.428317375479
 20
1776.364289639283
 30
0.0
 10
-1841.584268981593
 20
1784.6109869571
 30
0.0
 10
-1834.220377381872
 20
1785.028704784686
 30
0.0
 10
-1834.220377381872
 20
1785.028704784686
 30
0.0
 10
-1834.220377381872
 20
1785.028704784686
 30
0.0
 10
-1594.553697211753
 20
1777.186806186386
 30
0.0
 10
-1482.226358915182
 20
1767.394122269563
 30
0.0
 10
-1387.434556638532
 20
1759.065603933973
 30
0.0
 10
-1293.314547981507
 20
1728.886567483184
 30
0.0
 10
-1216.290825670033
 20
1682.580177792069
 30
0.0
 10
-1139.284328835987
 20
1636.273788100955
 30
0.0
 10
-1013.882853172893
 20
1549.418624548449
 30
0.0
 10
-1013.882853172893
 20
1549.418624548449
 30
0.0
  0
LWPOLYLINE
  5
97B
330
1F
100
AcDbEntity
  8
ceco.net 241
370
    18
100
AcDbPolyline
 90
        3
 70
     0
 43
0.0
 10
-1009.800415022872
 20
1467.01624691063
 10
-1013.882853172893
 20
1549.418624548449
 10
-1007.031975057379
 20
1560.059086188254
  0
SPLINE
  5
97C
330
1F
100
AcDbEntity
  8
ceco.net 241
370
    18
100
AcDbSpline
210
0.0
220
0.0
230
1.0
 70
     8
 71
     3
 72
    29
 73
    25
 74
     0
 42
0.0000000001
 43
0.0000000001
 40
0.2104672664332518
 40
0.2104672664332518
 40
0.2104672664332518
 40
0.2104672664332518
 40
1.0
 40
1.0
 40
1.0
 40
2.0
 40
2.0
 40
2.0
 40
3.0
 40
3.0
 40
3.0
 40
4.0
 40
4.0
 40
4.0
 40
5.0
 40
5.0
 40
5.0
 40
6.0
 40
6.0
 40
6.0
 40
7.0
 40
7.0
 40
7.0
 40
8.0
 40
8.0
 40
8.0
 40
8.0
 10
-1041.816391600514
 20
1260.881798918115
 30
0.0
 10
-1085.108191350145
 20
1261.526433160482
 30
0.0
 10
-1192.954909768905
 20
1263.091501892799
 30
0.0
 10
-1240.466783237775
 20
1263.411103732364
 30
0.0
 10
-1300.747341490934
 20
1263.815902451882
 30
0.0
 10
-1312.607082698906
 20
1275.684256398568
 30
0.0
 10
-1348.651394213333
 20
1293.353289868542
 30
0.0
 10
-1384.730156682612
 20
1310.936195951387
 30
0.0
 10
-1402.394883783231
 20
1317.856531507382
 30
0.0
 10
-1440.006713743445
 20
1320.410208535823
 30
0.0
 10
-1477.730509306931
 20
1322.808856267428
 30
0.0
 10
-1572.832370177253
 20
1324.850075342439
 30
0.0
 10
-1745.285237430147
 20
1327.334850461175
 30
0.0
 10
-1917.815619331459
 20
1329.733498192781
 30
0.0
 10
-1925.997721108927
 20
1328.14444790021
 30
0.0
 10
-1987.880248762727
 20
1330.18566697522
 30
0.0
 10
-2049.762776416527
 20
1332.265643374439
 30
0.0
 10
-2052.596367453145
 20
1353.564946211997
 30
0.0
 10
-2053.414577630892
 20
1396.559737867915
 30
0.0
 10
-2054.250013286065
 20
1439.606205956111
 30
0.0
 10
-2049.340752219584
 20
1528.084870756039
 30
0.0
 10
-2042.381659339379
 20
1613.712719041925
 30
0.0
 10
-2035.439791936601
 20
1699.392243760088
 30
0.0
 10
-2023.123575576833
 20
1801.379989231554
 30
0.0
 10
-2023.123575576833
 20
1801.379989231554
 30
0.0
  0
SPLINE
  5
97D
330
1F
100
AcDbEntity
  8
ceco.net 241
370
    18
100
AcDbSpline
210
0.0
220
0.0
230
1.0
 70
     8
 71
     3
 72
    20
 73
    16
 74
     0
 42
0.0000000001
 43
0.0000000001
 40
0.0
 40
0.0
 40
0.0
 40
0.0
 40
1.0
 40
1.0
 40
1.0
 40
2.0
 40
2.0
 40
2.0
 40
3.0
 40
3.0
 40
3.0
 40
4.0
 40
4.0
 40
4.0
 40
4.960467454919279
 40
4.960467454919279
 40
4.960467454919279
 40
4.960467454919279
 10
-1951.000501593128
 20
1826.830632128837
 30
0.0
 10
-1951.000501593128
 20
1826.830632128837
 30
0.0
 10
-1952.257961445244
 20
1749.768152493154
 30
0.0
 10
-1953.859930845885
 20
1662.92590804872
 30
0.0
 10
-1955.530802156231
 20
1576.014761694579
 30
0.0
 10
-1955.918375398321
 20
1374.855636310841
 30
0.0
 10
-1956.323174117838
 20
1315.828231540441
 30
0.0
 10
-1956.736585576068
 20
1256.839584094251
 30
0.0
 10
-1957.959594473332
 20
1020.015107699464
 30
0.0
 10
-1958.407456886415
 20
938.0605924747269
 30
0.0
 10
-1958.795030128505
 20
856.0974645112773
 30
0.0
 10
-1957.158609773012
 20
651.2219423728256
 30
0.0
 10
-1958.407456886415
 20
580.373553718663
 30
0.0
 10
-1959.56557261885
 20
512.2639402686299
 30
0.0
 10
-1955.845315946993
 20
426.404678689626
 30
0.0
 10
-1955.549363588924
 20
419.7226516422096
 30
0.0
  0
SPLINE
  5
97E
330
1F
100
AcDbEntity
  8
ceco.net 241
370
    18
100
AcDbSpline
210
0.0
220
0.0
230
1.0
 70
     8
 71
     3
 72
    86
 73
    82
 74
     0
 42
0.0000000001
 43
0.0000000001
 40
0.0
 40
0.0
 40
0.0
 40
0.0
 40
1.0
 40
1.0
 40
1.0
 40
2.0
 40
2.0
 40
2.0
 40
3.0
 40
3.0
 40
3.0
 40
4.0
 40
4.0
 40
4.0
 40
5.0
 40
5.0
 40
5.0
 40
6.0
 40
6.0
 40
6.0
 40
7.0
 40
7.0
 40
7.0
 40
8.0
 40
8.0
 40
8.0
 40
9.0
 40
9.0
 40
9.0
 40
10.0
 40
10.0
 40
10.0
 40
11.0
 40
11.0
 40
11.0
 40
12.0
 40
12.0
 40
12.0
 40
13.0
 40
13.0
 40
13.0
 40
14.0
 40
14.0
 40
14.0
 40
15.0
 40
15.0
 40
15.0
 40
16.0
 40
16.0
 40
16.0
 40
17.0
 40
17.0
 40
17.0
 40
18.0
 40
18.0
 40
18.0
 40
19.0
 40
19.0
 40
19.0
 40
20.0
 40
20.0
 40
20.0
 40
21.0
 40
21.0
 40
21.0
 40
22.0
 40
22.0
 40
22.0
 40
23.0
 40
23.0
 40
23.0
 40
24.0
 40
24.0
 40
24.0
 40
25.0
 40
25.0
 40
25.0
 40
26.0
 40
26.0
 40
26.0
 40
26.75832330594852
 40
26.75832330594852
 40
26.75832330594852
 40
26.75832330594852
 10
-697.1493869977366
 20
405.7976463729837
 30
0.0
 10
-697.1493869977366
 20
405.7976463729837
 30
0.0
 10
-679.2090522582984
 20
604.5107539621949
 30
0.0
 10
-676.2376574022701
 20
643.4360265761616
 30
0.0
 10
-673.4040663656523
 20
682.3483800820586
 30
0.0
 10
-672.1379937748224
 20
724.1675329036352
 30
0.0
 10
-669.6919759802949
 20
777.8550396718965
 30
0.0
 10
-667.2631836631945
 20
831.5425464401586
 30
0.0
 10
-664.3434652394444
 20
997.0449335515613
 30
0.0
 10
-663.1979709905991
 20
1077.789358987104
 30
0.0
 10
-663.1979709905991
 20
1077.789358987104
 30
0.0
 10
-664.0334066457726
 20
1258.058286622158
 30
0.0
 10
-664.0334066457726
 20
1284.706100200565
 30
0.0
 10
-664.0334066457726
 20
1311.340994670903
 30
0.0
 10
-673.4040663656523
 20
1328.14444790021
 30
0.0
 10
-693.1186252799943
 20
1348.225048209859
 30
0.0
 10
-712.7384440684918
 20
1368.288423042083
 30
0.0
 10
-771.2878418403134
 20
1417.079587851934
 30
0.0
 10
-854.1165500444321
 20
1482.600997612029
 30
0.0
 10
-936.8246799065673
 20
1548.15255195762
 30
0.0
 10
-1070.864732498926
 20
1641.174436428723
 30
0.0
 10
-1150.747884063156
 20
1692.006820313584
 30
0.0
 10
-1230.631035627387
 20
1742.791834135523
 30
0.0
 10
-1286.768866559533
 20
1773.509166755882
 30
0.0
 10
-1378.580661241441
 20
1791.544241621165
 30
0.0
 10
-1470.349392229784
 20
1809.618073810657
 30
0.0
 10
-1567.027384284607
 20
1814.113923418908
 30
0.0
 10
-1683.402709776346
 20
1818.588241180376
 30
0.0
 10
-1799.778035268086
 20
1823.127154482192
 30
0.0
 10
-1982.95376221882
 20
1828.010577332534
 30
0.0
 10
-2007.138332525274
 20
1828.010577332534
 30
0.0
 10
-2031.305677354302
 20
1828.010577332534
 30
0.0
 10
-2034.182332084485
 20
1816.964739932952
 30
0.0
 10
-2037.067599553381
 20
1806.711274494977
 30
0.0
 10
-2039.935641544852
 20
1796.479340903785
 30
0.0
 10
-2050.563761116848
 20
1728.886567483184
 30
0.0
 10
-2058.763088371742
 20
1648.150754786354
 30
0.0
 10
-2066.927964671785
 20
1567.414942089523
 30
0.0
 10
-2067.616983768834
 20
1485.632681639049
 30
0.0
 10
-2075.144517404106
 20
1387.912548199938
 30
0.0
 10
-2081.69019882608
 20
1302.728255957778
 30
0.0
 10
-1998.508368334723
 20
1307.271475628952
 30
0.0
 10
-1932.155829288811
 20
1306.001096668766
 30
0.0
 10
-1865.75161381062
 20
1304.769475032789
 30
0.0
 10
-1495.403849146263
 20
1298.25393819631
 30
0.0
 10
-1449.050089392227
 20
1296.983559236125
 30
0.0
 10
-1402.748006070469
 20
1295.751937600148
 30
0.0
 10
-1365.868258900869
 20
1275.279457679051
 30
0.0
 10
-1323.286878703181
 20
1254.79836501924
 30
0.0
 10
-1280.636596595788
 20
1234.312965990074
 30
0.0
 10
-1221.277601384933
 20
1237.990605420578
 30
0.0
 10
-1106.108059313031
 20
1236.724532829748
 30
0.0
 10
-990.9126790249901
 20
1235.54458762605
 30
0.0
 10
-806.1780463671812
 20
1232.642094679728
 30
0.0
 10
-784.0863715680161
 20
1233.046893399244
 30
0.0
 10
-761.8741184268683
 20
1233.503368551041
 30
0.0
 10
-743.4945340130598
 20
1247.822046661609
 30
0.0
 10
-743.4945340130598
 20
1274.05214241243
 30
0.0
 10
-743.4945340130598
 20
1300.282238163252
 30
0.0
 10
-742.2542996383699
 20
1318.722111748051
 30
0.0
 10
-744.7003174328974
 20
1330.18566697522
 30
0.0
 10
-747.1204970112848
 20
1341.692285895954
 30
0.0
 10
-750.4536268932652
 20
1354.335786326821
 30
0.0
 10
-776.2057156455075
 20
1377.310266844081
 30
0.0
 10
-802.0525445235943
 20
1400.276134622628
 30
0.0
 10
-908.566284188806
 20
1491.605615936601
 30
0.0
 10
-1012.306721988391
 20
1563.741609028376
 30
0.0
 10
-1115.91796870728
 20
1635.868989381439
 30
0.0
 10
-1223.723619179461
 20
1717.018213536498
 30
0.0
 10
-1308.903605052262
 20
1744.462705445869
 30
0.0
 10
-1394.161105573483
 20
1771.885665508459
 30
0.0
 10
-1448.64529067271
 20
1783.340607996914
 30
0.0
 10
-1551.481390907417
 20
1787.866602190661
 30
0.0
 10
-1654.395005790543
 20
1792.409821861833
 30
0.0
 10
-1833.384941726698
 20
1798.925358698313
 30
0.0
 10
-1906.300387672011
 20
1799.790938938981
 30
0.0
 10
-1979.25889731089
 20
1800.600536378015
 30
0.0
 10
-2010.419785974974
 20
1802.23695673351
 30
0.0
 10
-2022.296752660373
 20
1801.379989231554
 30
0.0
 10
-2031.30986454238
 20
1800.788911966828
 30
0.0
 10
-2036.548949009149
 20
1800.180499930509
 30
0.0
 10
-2038.554843782811
 20
1799.920945330289
 30
0.0
  0
SPLINE
  5
97F
330
1F
100
AcDbEntity
  8
ceco.net 241
370
    18
100
AcDbSpline
210
0.0
220
0.0
230
1.0
 70
    11
 71
     3
 72
    17
 73
    13
 74
     0
 42
0.0000000001
 43
0.0000000001
 40
0.0
 40
0.0
 40
0.0
 40
0.0
 40
1.0
 40
1.0
 40
1.0
 40
2.0
 40
2.0
 40
2.0
 40
3.0
 40
3.0
 40
3.0
 40
4.0
 40
4.0
 40
4.0
 40
4.0
 10
-1880.927259423146
 20
1088.482074099448
 30
0.0
 10
-1880.927259423146
 20
1081.634946822514
 30
0.0
 10
-1886.465250415685
 20
1076.157245000967
 30
0.0
 10
-1893.243475782914
 20
1076.157245000967
 30
0.0
 10
-1900.013088411429
 20
1076.157245000967
 30
0.0
 10
-1905.508015710404
 20
1081.634946822514
 30
0.0
 10
-1905.508015710404
 20
1088.482074099448
 30
0.0
 10
-1905.508015710404
 20
1095.225848511825
 30
0.0
 10
-1900.013088411429
 20
1100.759533135007
 30
0.0
 10
-1893.243475782914
 20
1100.759533135007
 30
0.0
 10
-1886.465250415685
 20
1100.759533135007
 30
0.0
 10
-1880.927259423146
 20
1095.225848511825
 30
0.0
 10
-1880.927259423146
 20
1088.482074099448
 30
0.0
  0
SPLINE
  5
980
330
1F
100
AcDbEntity
  8
ceco.net 241
370
    18
100
AcDbSpline
210
0.0
220
0.0
230
1.0
 70
    11
 71
     3
 72
    29
 73
    25
 74
     0
 42
0.0000000001
 43
0.0000000001
 40
0.0
 40
0.0
 40
0.0
 40
0.0
 40
1.0
 40
1.0
 40
1.0
 40
2.0
 40
2.0
 40
2.0
 40
3.0
 40
3.0
 40
3.0
 40
4.0
 40
4.0
 40
4.0
 40
5.0
 40
5.0
 40
5.0
 40
6.0
 40
6.0
 40
6.0
 40
7.0
 40
7.0
 40
7.0
 40
8.0
 40
8.0
 40
8.0
 40
8.0
 10
-1719.128349958388
 20
1147.009940024486
 30
0.0
 10
-1719.128349958388
 20
1147.009940024486
 30
0.0
 10
-1719.128349958388
 20
1127.760469000652
 30
0.0
 10
-1719.128349958388
 20
1127.760469000652
 30
0.0
 10
-1719.128349958388
 20
1123.678030850632
 30
0.0
 10
-1722.366739714521
 20
1120.379351923505
 30
0.0
 10
-1726.492241558109
 20
1120.379351923505
 30
0.0
 10
-1726.492241558109
 20
1120.379351923505
 30
0.0
 10
-1907.153048804611
 20
1120.379351923505
 30
0.0
 10
-1907.153048804611
 20
1120.379351923505
 30
0.0
 10
-1911.226874215918
 20
1120.379351923505
 30
0.0
 10
-1914.534165881758
 20
1123.678030850632
 30
0.0
 10
-1914.534165881758
 20
1127.760469000652
 30
0.0
 10
-1914.534165881758
 20
1127.760469000652
 30
0.0
 10
-1914.534165881758
 20
1147.009940024486
 30
0.0
 10
-1914.534165881758
 20
1147.009940024486
 30
0.0
 10
-1914.534165881758
 20
1151.088071805151
 30
0.0
 10
-1911.226874215918
 20
1154.44703990327
 30
0.0
 10
-1907.153048804611
 20
1154.44703990327
 30
0.0
 10
-1907.153048804611
 20
1154.44703990327
 30
0.0
 10
-1726.492241558109
 20
1154.44703990327
 30
0.0
 10
-1726.492241558109
 20
1154.44703990327
 30
0.0
 10
-1722.366739714521
 20
1154.44703990327
 30
0.0
 10
-1719.128349958388
 20
1151.088071805151
 30
0.0
 10
-1719.128349958388
 20
1147.009940024486
 30
0.0
  0
SPLINE
  5
981
330
1F
100
AcDbEntity
  8
ceco.net 241
370
    18
100
AcDbSpline
210
0.0
220
0.0
230
1.0
 70
     8
 71
     3
 72
    20
 73
    16
 74
     0
 42
0.0000000001
 43
0.0000000001
 40
0.0958571041958611
 40
0.0958571041958611
 40
0.0958571041958611
 40
0.0958571041958611
 40
1.0
 40
1.0
 40
1.0
 40
2.0
 40
2.0
 40
2.0
 40
3.0
 40
3.0
 40
3.0
 40
4.0
 40
4.0
 40
4.0
 40
4.904142895804138
 40
4.904142895804138
 40
4.904142895804138
 40
4.904142895804138
 10
-1754.328613078927
 20
1120.379351923505
 30
0.0
 10
-1754.328613078927
 20
1118.470058515924
 30
0.0
 10
-1754.328613078927
 20
1108.510997976818
 30
0.0
 10
-1754.328613078927
 20
1108.510997976819
 30
0.0
 10
-1754.328613078927
 20
1098.347966295332
 30
0.0
 10
-1762.60545498224
 20
1090.066818022662
 30
0.0
 10
-1772.751261186301
 20
1090.066818022662
 30
0.0
 10
-1772.751261186301
 20
1090.066818022662
 30
0.0
 10
-1862.048136163976
 20
1090.066818022662
 30
0.0
 10
-1862.048136163976
 20
1090.066818022662
 30
0.0
 10
-1872.262844277743
 20
1090.066818022662
 30
0.0
 10
-1880.531073442341
 20
1098.347966295332
 30
0.0
 10
-1880.531073442341
 20
1108.510997976819
 30
0.0
 10
-1880.531073442341
 20
1108.510997976819
 30
0.0
 10
-1880.531073442341
 20
1118.470058515925
 30
0.0
 10
-1880.531073442341
 20
1120.379351923505
 30
0.0
  0
SPLINE
  5
982
330
1F
100
AcDbEntity
  8
ceco.net 241
370
    18
100
AcDbSpline
210
0.0
220
0.0
230
1.0
 70
     8
 71
     3
 72
    20
 73
    16
 74
     0
 42
0.0000000001
 43
0.0000000001
 40
0.0
 40
0.0
 40
0.0
 40
0.0
 40
1.0
 40
1.0
 40
1.0
 40
2.0
 40
2.0
 40
2.0
 40
3.0
 40
3.0
 40
3.0
 40
4.0
 40
4.0
 40
4.0
 40
4.814523013079442
 40
4.814523013079442
 40
4.814523013079442
 40
4.814523013079442
 10
-1880.463780677246
 20
1154.44703990327
 30
0.0
 10
-1880.463780677246
 20
1154.44703990327
 30
0.0
 10
-1880.531073442341
 20
1161.332924504412
 30
0.0
 10
-1880.531073442341
 20
1161.332924504412
 30
0.0
 10
-1880.531073442341
 20
1171.573470834317
 30
0.0
 10
-1872.262844277743
 20
1179.815861782778
 30
0.0
 10
-1862.048136163976
 20
1179.815861782778
 30
0.0
 10
-1862.048136163976
 20
1179.815861782778
 30
0.0
 10
-1772.751261186301
 20
1179.815861782778
 30
0.0
 10
-1772.751261186301
 20
1179.815861782778
 30
0.0
 10
-1762.60545498224
 20
1179.815861782778
 30
0.0
 10
-1754.328613078927
 20
1171.573470834317
 30
0.0
 10
-1754.328613078927
 20
1161.332924504412
 30
0.0
 10
-1754.328613078927
 20
1161.332924504412
 30
0.0
 10
-1754.328613078927
 20
1156.310228824958
 30
0.0
 10
-1754.328613078927
 20
1154.44703990327
 30
0.0
  0
SPLINE
  5
983
330
1F
100
AcDbEntity
  8
ceco.net 241
370
    18
100
AcDbSpline
210
0.0
220
0.0
230
1.0
 70
    11
 71
     3
 72
    29
 73
    25
 74
     0
 42
0.0000000001
 43
0.0000000001
 40
0.0
 40
0.0
 40
0.0
 40
0.0
 40
1.0
 40
1.0
 40
1.0
 40
2.0
 40
2.0
 40
2.0
 40
3.0
 40
3.0
 40
3.0
 40
4.0
 40
4.0
 40
4.0
 40
5.0
 40
5.0
 40
5.0
 40
6.0
 40
6.0
 40
6.0
 40
7.0
 40
7.0
 40
7.0
 40
8.0
 40
8.0
 40
8.0
 40
8.0
 10
-1710.722316974377
 20
1165.634987491618
 30
0.0
 10
-1710.722316974377
 20
1165.634987491618
 30
0.0
 10
-1710.722316974377
 20
1080.868413077046
 30
0.0
 10
-1710.722316974377
 20
1080.868413077046
 30
0.0
 10
-1710.722316974377
 20
1067.277511387736
 30
0.0
 10
-1721.660495140047
 20
1056.266124943005
 30
0.0
 10
-1735.251396829357
 20
1056.266124943005
 30
0.0
 10
-1735.251396829357
 20
1056.266124943005
 30
0.0
 10
-1899.401583962798
 20
1056.266124943005
 30
0.0
 10
-1899.401583962798
 20
1056.266124943005
 30
0.0
 10
-1912.949421958543
 20
1056.266124943005
 30
0.0
 10
-1923.990952988769
 20
1067.277511387736
 30
0.0
 10
-1923.990952988769
 20
1080.868413077046
 30
0.0
 10
-1923.990952988769
 20
1080.868413077046
 30
0.0
 10
-1923.990952988769
 20
1165.634987491618
 30
0.0
 10
-1923.990952988769
 20
1165.634987491618
 30
0.0
 10
-1923.990952988769
 20
1179.273259243851
 30
0.0
 10
-1912.949421958543
 20
1190.276032949867
 30
0.0
 10
-1899.401583962798
 20
1190.276032949867
 30
0.0
 10
-1899.401583962798
 20
1190.276032949867
 30
0.0
 10
-1735.251396829357
 20
1190.276032949867
 30
0.0
 10
-1735.251396829357
 20
1190.276032949867
 30
0.0
 10
-1721.660495140047
 20
1190.276032949867
 30
0.0
 10
-1710.722316974377
 20
1179.273259243851
 30
0.0
 10
-1710.722316974377
 20
1165.634987491618
 30
0.0
  0
SPLINE
  5
984
330
1F
100
AcDbEntity
  8
ceco.net 241
370
    18
100
AcDbSpline
210
0.0
220
0.0
230
1.0
 70
     8
 71
     3
 72
    14
 73
    10
 74
     0
 42
0.0000000001
 43
0.0000000001
 40
0.0742948138037087
 40
0.0742948138037087
 40
0.0742948138037087
 40
0.0742948138037087
 40
1.0
 40
1.0
 40
1.0
 40
2.0
 40
2.0
 40
2.0
 40
2.907092722278914
 40
2.907092722278914
 40
2.907092722278914
 40
2.907092722278914
 10
297.7814882714774
 20
838.0650563596427
 30
0.0
 10
301.6681099354009
 20
842.805258829787
 30
0.0
 10
328.1645675007075
 20
875.0008059090223
 30
0.0
 10
337.3094343582333
 20
882.9218392333032
 30
0.0
 10
347.0935055363415
 20
891.5733352706366
 30
0.0
 10
350.1251895633613
 20
890.9015416510138
 30
0.0
 10
363.0873613266139
 20
890.9015416510138
 30
0.0
 10
374.8061902349609
 20
890.9015416510138
 30
0.0
 10
480.5656556803433
 20
891.454305000666
 30
0.0
 10
500.1161495908518
 20
891.5570164767459
 30
0.0
  0
SPLINE
  5
985
330
1F
100
AcDbEntity
  8
ceco.net 241
370
    18
100
AcDbSpline
210
0.0
220
0.0
230
1.0
 70
     8
 71
     3
 72
    17
 73
    13
 74
     0
 42
0.0000000001
 43
0.0000000001
 40
0.135416434499428
 40
0.135416434499428
 40
0.135416434499428
 40
0.135416434499428
 40
1.0
 40
1.0
 40
1.0
 40
2.0
 40
2.0
 40
2.0
 40
3.0
 40
3.0
 40
3.0
 40
4.0
 40
4.0
 40
4.0
 40
4.0
 10
-672.5236872550713
 20
1321.583087216376
 30
0.0
 10
-666.8548248518
 20
1321.647948360781
 30
0.0
 10
-641.5382065439708
 20
1322.126923786804
 30
0.0
 10
-576.7691380043943
 20
1325.663979150829
 30
0.0
 10
-501.7435710743657
 20
1329.733498192781
 30
0.0
 10
-424.2633736110965
 20
1338.802712057701
 30
0.0
 10
-384.4639080177485
 20
1342.058327291262
 30
0.0
 10
-344.8022462438093
 20
1345.31824889418
 30
0.0
 10
-309.5244684748513
 20
1351.889768532294
 30
0.0
 10
-258.3131240866123
 20
1360.946063289145
 30
0.0
 10
-207.0931669596602
 20
1369.929149766933
 30
0.0
 10
-199.0252591490425
 20
1376.667115147914
 30
0.0
 10
-199.0252591490425
 20
1376.667115147914
 30
0.0
  0
SPLINE
  5
986
330
1F
100
AcDbEntity
  8
ceco.net 241
370
    18
100
AcDbSpline
210
0.0
220
0.0
230
1.0
 70
     8
 71
     3
 72
    17
 73
    13
 74
     0
 42
0.0000000001
 43
0.0000000001
 40
0.092593499871545
 40
0.092593499871545
 40
0.092593499871545
 40
0.092593499871545
 40
1.0
 40
1.0
 40
1.0
 40
2.0
 40
2.0
 40
2.0
 40
3.0
 40
3.0
 40
3.0
 40
4.0
 40
4.0
 40
4.0
 40
4.0
 10
-314.1308673751327
 20
1351.205891802232
 30
0.0
 10
-277.8075513933454
 20
1349.068448862819
 30
0.0
 10
-73.12821174750843
 20
1336.802547354519
 30
0.0
 10
111.2336558774241
 20
1321.168129542579
 30
0.0
 10
314.4770640297383
 20
1303.959877593755
 30
0.0
 10
410.7933210586115
 20
1286.32960144799
 30
0.0
 10
454.649386585841
 20
1280.214556961671
 30
0.0
 10
498.4623884195062
 20
1274.05214241243
 30
0.0
 10
507.488538590861
 20
1281.39450216537
 30
0.0
 10
514.5079206420578
 20
1283.930953716384
 30
0.0
 10
522.9828555357717
 20
1286.923880419195
 30
0.0
 10
516.4974632847888
 20
1291.225943406401
 30
0.0
 10
516.4974632847888
 20
1291.225943406401
 30
0.0
  0
SPLINE
  5
987
330
1F
100
AcDbEntity
  8
ceco.net 241
370
    18
100
AcDbSpline
210
0.0
220
0.0
230
1.0
 70
     8
 71
     3
 72
    23
 73
    19
 74
     0
 42
0.0000000001
 43
0.0000000001
 40
0.0
 40
0.0
 40
0.0
 40
0.0
 40
1.0
 40
1.0
 40
1.0
 40
2.0
 40
2.0
 40
2.0
 40
3.0
 40
3.0
 40
3.0
 40
4.0
 40
4.0
 40
4.0
 40
5.0
 40
5.0
 40
5.0
 40
5.921312646273382
 40
5.921312646273382
 40
5.921312646273382
 40
5.921312646273382
 10
-447.1798966342094
 20
1336.107719637442
 30
0.0
 10
-447.1798966342094
 20
1336.107719637442
 30
0.0
 10
-421.8431940327091
 20
1323.622760075819
 30
0.0
 10
-380.6226265516952
 20
1306.405895388284
 30
0.0
 10
-339.4451227642457
 20
1289.18472433139
 30
0.0
 10
-329.6266006312835
 20
1281.21794102175
 30
0.0
 10
-248.5290529085032
 20
1276.360356387547
 30
0.0
 10
-167.3367650598775
 20
1271.425257104928
 30
0.0
 10
126.4523651835161
 20
1253.58396886069
 30
0.0
 10
291.10209116232
 20
1242.469229551403
 30
0.0
 10
455.8723954831057
 20
1231.462149476029
 30
0.0
 10
521.5703663868198
 20
1199.487357003554
 30
0.0
 10
533.886582746587
 20
1193.324942454313
 30
0.0
 10
546.1683481515028
 20
1187.196978859926
 30
0.0
 10
552.3867455023792
 20
1179.182825487363
 30
0.0
 10
564.0225555038105
 20
1165.634987491618
 30
0.0
 10
574.8300596838134
 20
1153.236510779976
 30
0.0
 10
593.9058965376825
 20
1112.575103814435
 30
0.0
 10
596.8410339622833
 20
1106.252794432344
 30
0.0
  0
SPLINE
  5
988
330
1F
100
AcDbEntity
  8
ceco.net 241
370
    18
100
AcDbSpline
210
0.0
220
0.0
230
1.0
 70
     8
 71
     3
 72
    14
 73
    10
 74
     0
 42
0.0000000001
 43
0.0000000001
 40
0.0
 40
0.0
 40
0.0
 40
0.0
 40
1.0
 40
1.0
 40
1.0
 40
2.0
 40
2.0
 40
2.0
 40
3.0
 40
3.0
 40
3.0
 40
3.0
 10
-418.1569418634917
 20
1225.256671233223
 30
0.0
 10
-276.7271594552721
 20
1220.360329274812
 30
0.0
 10
255.4884165835483
 20
1199.487357003554
 30
0.0
 10
390.7342525957437
 20
1194.54364498222
 30
0.0
 10
525.9284121756609
 20
1189.642996654453
 30
0.0
 10
549.294772304368
 20
1185.573477612501
 30
0.0
 10
626.3184946158408
 20
1190.04779537397
 30
0.0
 10
703.428344314445
 20
1194.54364498222
 30
0.0
 10
723.8010854392932
 20
1209.05216809455
 30
0.0
 10
723.8010854392932
 20
1209.05216809455
 30
0.0
  0
SPLINE
  5
989
330
1F
100
AcDbEntity
  8
ceco.net 241
370
    18
100
AcDbSpline
210
0.0
220
0.0
230
1.0
 70
     8
 71
     3
 72
     8
 73
     4
 74
     0
 42
0.0000000001
 43
0.0000000001
 40
0.0556626493520232
 40
0.0556626493520232
 40
0.0556626493520232
 40
0.0556626493520232
 40
1.0
 40
1.0
 40
1.0
 40
1.0
 10
761.6403644698357
 20
1120.870332649314
 30
0.0
 10
774.5499922151593
 20
1113.453018471441
 30
0.0
 10
756.9306772003765
 20
1106.874577621325
 30
0.0
 10
756.9306772003765
 20
1106.874577621325
 30
0.0
  0
SPLINE
  5
98A
330
1F
100
AcDbEntity
  8
ceco.net 241
370
    18
100
AcDbSpline
210
0.0
220
0.0
230
1.0
 70
     8
 71
     3
 72
    11
 73
     7
 74
     0
 42
0.0000000001
 43
0.0000000001
 40
0.0
 40
0.0
 40
0.0
 40
0.0
 40
1.0
 40
1.0
 40
1.0
 40
2.0
 40
2.0
 40
2.0
 40
2.0
 10
760.5878023013493
 20
1028.431136727405
 30
0.0
 10
760.5878023013493
 20
1028.431136727405
 30
0.0
 10
786.0158958345964
 20
1023.292254779808
 30
0.0
 10
796.7559810098637
 20
1019.20551026043
 30
0.0
 10
807.4099387979986
 20
1015.0843147862
 30
0.0
 10
784.9479162341704
 20
1009.778867738915
 30
0.0
 10
784.9479162341704
 20
1009.778867738915
 30
0.0
  0
LWPOLYLINE
  5
98B
330
1F
100
AcDbEntity
  8
ceco.net 241
370
    18
100
AcDbPolyline
 90
        2
 70
     0
 43
0.0
 10
804.3015038565854
 20
938.4362630472615
 10
795.5329721125999
 20
963.4724780478009
  0
SPLINE
  5
98C
330
1F
100
AcDbEntity
  8
ceco.net 241
370
    18
100
AcDbSpline
210
0.0
220
0.0
230
1.0
 70
     8
 71
     3
 72
    11
 73
     7
 74
     0
 42
0.0000000001
 43
0.0000000001
 40
0.4676901434273975
 40
0.4676901434273975
 40
0.4676901434273975
 40
0.4676901434273975
 40
1.0
 40
1.0
 40
1.0
 40
2.0
 40
2.0
 40
2.0
 40
2.0
 10
803.2502321251204
 20
914.6318814755268
 30
0.0
 10
805.1259583207347
 20
915.1985755382765
 30
0.0
 10
808.2140847598084
 20
916.0649385574497
 30
0.0
 10
812.8445769259807
 20
917.1790074647569
 30
0.0
 10
821.3711882519737
 20
919.2073074316978
 30
0.0
 10
815.6598209224084
 20
926.383991272638
 30
0.0
 10
815.6598209224084
 20
926.383991272638
 30
0.0
  0
LWPOLYLINE
  5
98D
330
1F
100
AcDbEntity
  8
ceco.net 241
370
    18
100
AcDbPolyline
 90
       14
 70
     0
 43
0.0
 10
788.6083301872477
 20
825.3801318909181
 10
785.8436410603354
 20
865.5327197715051
 10
807.4099387979986
 20
867.1562210189286
 10
803.2413732608466
 20
914.7329896702286
 10
780.8051889131566
 20
920.4776863918832
 10
775.0949431463559
 20
962.2020990876153
 10
795.5329721125999
 20
963.4724780478009
 10
784.5258920372262
 20
1010.14921550358
 10
764.0017356838507
 20
1015.89821859459
 10
751.7199702789348
 20
1060.985905757797
 10
771.4345291932777
 20
1061.429461801523
 10
756.9306772003765
 20
1106.874577621325
 10
732.8408470197664
 20
1110.957015771347
 10
717.0164145347898
 20
1152.557195484831
  0
SPLINE
  5
98E
330
1F
100
AcDbEntity
  8
ceco.net 241
370
    18
100
AcDbSpline
210
0.0
220
0.0
230
1.0
 70
     8
 71
     3
 72
    26
 73
    22
 74
     0
 42
0.0000000001
 43
0.0000000001
 40
0.11996430289541
 40
0.11996430289541
 40
0.11996430289541
 40
0.11996430289541
 40
1.0
 40
1.0
 40
1.0
 40
2.0
 40
2.0
 40
2.0
 40
3.0
 40
3.0
 40
3.0
 40
4.0
 40
4.0
 40
4.0
 40
5.0
 40
5.0
 40
5.0
 40
6.0
 40
6.0
 40
6.0
 40
7.0
 40
7.0
 40
7.0
 40
7.0
 10
750.4322037800111
 20
1165.557135394663
 30
0.0
 10
746.1793177040281
 20
1156.356126712583
 30
0.0
 10
728.1979550032274
 20
1154.561144968266
 30
0.0
 10
718.1475147751761
 20
1152.776168592923
 30
0.0
 10
706.6495085931538
 20
1150.730643148555
 30
0.0
 10
707.416042338622
 20
1145.782624757866
 30
0.0
 10
711.9894065952912
 20
1133.92718991925
 30
0.0
 10
716.4249670325507
 20
1122.054529603207
 30
0.0
 10
741.0832379682269
 20
1055.228289928074
 30
0.0
 10
754.1746008121754
 20
998.3196188811033
 30
0.0
 10
767.317640088404
 20
941.3291268163575
 30
0.0
 10
772.2441266323103
 20
831.9128942048228
 30
0.0
 10
773.4240718360088
 20
823.2958491223426
 30
0.0
 10
774.6126297784203
 20
814.7390932108528
 30
0.0
 10
776.2404373952013
 20
813.4687142506672
 30
0.0
 10
786.9374588769014
 20
814.7390932108528
 30
0.0
 10
797.5397402327581
 20
815.966408477473
 30
0.0
 10
810.7689068961171
 20
818.4038135332865
 30
0.0
 10
821.3711882519737
 20
821.2675491554008
 30
0.0
 10
832.0509842562477
 20
824.1614293630108
 30
0.0
 10
827.4776199995786
 20
829.8673687604559
 30
0.0
 10
827.4776199995786
 20
829.8673687604559
 30
0.0
  0
SPLINE
  5
98F
330
1F
100
AcDbEntity
  8
ceco.net 241
370
    18
100
AcDbSpline
210
0.0
220
0.0
230
1.0
 70
     8
 71
     3
 72
    26
 73
    22
 74
     0
 42
0.0000000001
 43
0.0000000001
 40
0.1845392748133092
 40
0.1845392748133092
 40
0.1845392748133092
 40
0.1845392748133092
 40
1.0
 40
1.0
 40
1.0
 40
2.0
 40
2.0
 40
2.0
 40
3.0
 40
3.0
 40
3.0
 40
4.0
 40
4.0
 40
4.0
 40
5.0
 40
5.0
 40
5.0
 40
6.0
 40
6.0
 40
6.0
 40
7.0
 40
7.0
 40
7.0
 40
7.0
 10
660.9175852241687
 20
857.0508751971956
 30
0.0
 10
659.0535523316402
 20
862.0056013114417
 30
0.0
 10
653.631719736003
 20
876.3235115013868
 30
0.0
 10
649.6073400961295
 20
886.0051996926022
 30
0.0
 10
644.7583682006397
 20
897.9295364409235
 30
0.0
 10
655.8085119695797
 20
902.8086529219081
 30
0.0
 10
668.9860022006605
 20
905.258977085792
 30
0.0
 10
682.0429140897568
 20
907.756671312598
 30
0.0
 10
702.5756831818462
 20
912.2309890740671
 30
0.0
 10
716.9331186166255
 20
914.7329896702286
 30
0.0
 10
731.2905540514029
 20
917.1790074647569
 30
0.0
 10
731.9278967161745
 20
915.9086285045715
 30
0.0
 10
735.3816049401375
 20
907.3389534850111
 30
0.0
 10
738.5941564801332
 20
898.6874574476779
 30
0.0
 10
739.0075679383635
 20
824.1614293630108
 30
0.0
 10
739.446817612732
 20
812.2930754163252
 30
0.0
 10
739.8171653773961
 20
800.4161087309267
 30
0.0
 10
728.7584088697449
 20
802.0051590234979
 30
0.0
 10
728.7584088697449
 20
802.0051590234979
 30
0.0
 10
728.7584088697449
 20
802.0051590234979
 30
0.0
 10
696.8089193942715
 20
801.1641116826176
 30
0.0
 10
696.8089193942715
 20
801.1641116826176
 30
0.0
  0
SPLINE
  5
990
330
1F
100
AcDbEntity
  8
ceco.net 241
370
    18
100
AcDbSpline
210
0.0
220
0.0
230
1.0
 70
     8
 71
     3
 72
    11
 73
     7
 74
     0
 42
0.0000000001
 43
0.0000000001
 40
0.0
 40
0.0
 40
0.0
 40
0.0
 40
1.0
 40
1.0
 40
1.0
 40
2.0
 40
2.0
 40
2.0
 40
2.0
 10
549.2564919754322
 20
878.2501322578136
 30
0.0
 10
549.2564919754322
 20
878.2501322578136
 30
0.0
 10
543.8170704828198
 20
935.8385058867416
 30
0.0
 10
534.5756018436377
 20
986.2273337278766
 30
0.0
 10
525.3255204657425
 20
1036.646306154507
 30
0.0
 10
506.2569169548842
 20
1088.835196386686
 30
0.0
 10
506.2569169548842
 20
1088.835196386686
 30
0.0
  0
SPLINE
  5
991
330
1F
100
AcDbEntity
  8
ceco.net 241
370
    18
100
AcDbSpline
210
0.0
220
0.0
230
1.0
 70
     8
 71
     3
 72
    44
 73
    40
 74
     0
 42
0.0000000001
 43
0.0000000001
 40
0.1099032563697658
 40
0.1099032563697658
 40
0.1099032563697658
 40
0.1099032563697658
 40
1.0
 40
1.0
 40
1.0
 40
2.0
 40
2.0
 40
2.0
 40
3.0
 40
3.0
 40
3.0
 40
4.0
 40
4.0
 40
4.0
 40
5.0
 40
5.0
 40
5.0
 40
6.0
 40
6.0
 40
6.0
 40
7.0
 40
7.0
 40
7.0
 40
8.0
 40
8.0
 40
8.0
 40
9.0
 40
9.0
 40
9.0
 40
10.0
 40
10.0
 40
10.0
 40
11.0
 40
11.0
 40
11.0
 40
12.0
 40
12.0
 40
12.0
 40
13.0
 40
13.0
 40
13.0
 40
13.0
 10
650.6023056861685
 20
862.3422320502605
 30
0.0
 10
649.3736486042516
 20
865.1365068082105
 30
0.0
 10
642.6363920364438
 20
877.8489361312731
 30
0.0
 10
621.7537430978855
 20
877.8489361312731
 30
0.0
 10
603.7961828810202
 20
877.8489361312731
 30
0.0
 10
564.0225555038105
 20
878.2537348507903
 30
0.0
 10
546.0736080256583
 20
878.2537348507903
 30
0.0
 10
528.0040822055234
 20
878.2537348507903
 30
0.0
 10
520.157877237867
 20
881.4792054988556
 30
0.0
 10
513.6466467707459
 20
891.3580168028092
 30
0.0
 10
507.1181908261969
 20
901.2239089986932
 30
0.0
 10
498.4623884195062
 20
914.2722081490765
 30
0.0
 10
475.1821556779313
 20
942.5478293442656
 30
0.0
 10
451.6607662523874
 20
970.8665142330191
 30
0.0
 10
430.8782277376176
 20
989.2590177548964
 30
0.0
 10
421.8520775662628
 20
997.9105137922298
 30
0.0
 10
412.8776038271871
 20
1006.467269703718
 30
0.0
 10
411.6632076686364
 20
1013.094772143468
 30
0.0
 10
410.7933210586115
 20
1021.242422966084
 30
0.0
 10
410.0181745744302
 20
1029.40299289677
 30
0.0
 10
405.8668345147043
 20
1053.639239635503
 30
0.0
 10
405.091688030523
 20
1066.321497390578
 30
0.0
 10
404.2304141592103
 20
1079.008061515011
 30
0.0
 10
413.2996280241305
 20
1087.969616146017
 30
0.0
 10
432.0926238961683
 20
1087.211695139261
 30
0.0
 10
451.023423587616
 20
1086.402097700228
 30
0.0
 10
668.89987481353
 20
1093.735844714454
 30
0.0
 10
691.4221865483504
 20
1093.735844714454
 30
0.0
 10
704.1948780599132
 20
1093.735844714454
 30
0.0
 10
705.8399111541193
 20
1083.900097104065
 30
0.0
 10
705.8399111541193
 20
1083.900097104065
 30
0.0
 10
705.8399111541193
 20
1083.900097104065
 30
0.0
 10
722.1438255380653
 20
1037.593707412951
 30
0.0
 10
733.2800966941358
 20
971.275619321892
 30
0.0
 10
744.338853201787
 20
904.9058547985541
 30
0.0
 10
750.0921626621539
 20
794.6714120092719
 30
0.0
 10
750.0921626621539
 20
794.6714120092719
 30
0.0
 10
750.0921626621539
 20
794.6714120092719
 30
0.0
 10
702.1192080300497
 20
791.7646126935933
 30
0.0
 10
702.1192080300497
 20
791.7646126935933
 30
0.0
  0
SPLINE
  5
992
330
1F
100
AcDbEntity
  8
ceco.net 241
370
    18
100
AcDbSpline
210
0.0
220
0.0
230
1.0
 70
     8
 71
     3
 72
    32
 73
    28
 74
     0
 42
0.0000000001
 43
0.0000000001
 40
0.0
 40
0.0
 40
0.0
 40
0.0
 40
1.0
 40
1.0
 40
1.0
 40
2.0
 40
2.0
 40
2.0
 40
3.0
 40
3.0
 40
3.0
 40
4.0
 40
4.0
 40
4.0
 40
5.0
 40
5.0
 40
5.0
 40
6.0
 40
6.0
 40
6.0
 40
7.0
 40
7.0
 40
7.0
 40
8.0
 40
8.0
 40
8.0
 40
8.614124422251753
 40
8.614124422251753
 40
8.614124422251753
 40
8.614124422251753
 10
832.645263227454
 20
806.716327099577
 30
0.0
 10
829.9580887489591
 20
802.8276755706011
 30
0.0
 10
825.0316022050519
 20
798.2887622687849
 30
0.0
 10
805.325656029422
 20
795.8858081678227
 30
0.0
 10
785.8436410603354
 20
793.4053394184429
 30
0.0
 10
755.8110211676694
 20
789.7233936185821
 30
0.0
 10
755.8110211676694
 20
789.7233936185821
 30
0.0
 10
755.8110211676694
 20
789.7233936185821
 30
0.0
 10
754.9411345576436
 20
838.475801104224
 30
0.0
 10
752.0903180435998
 20
903.2651280737036
 30
0.0
 10
749.2395015295551
 20
967.9640212866962
 30
0.0
 10
729.1632075892612
 20
1032.749041886819
 30
0.0
 10
714.8488358480481
 20
1079.830578062114
 30
0.0
 10
700.4827876745576
 20
1126.937952453549
 30
0.0
 10
669.4080263976038
 20
1179.406756693903
 30
0.0
 10
663.6202659823839
 20
1186.7534228162
 30
0.0
 10
657.8841819994432
 20
1194.134539893348
 30
0.0
 10
647.2560624274474
 20
1202.781729561325
 30
0.0
 10
637.3341874299276
 20
1207.682377889093
 30
0.0
 10
627.5415035131054
 20
1212.617477171713
 30
0.0
 10
633.7082244317025
 20
1219.145933116261
 30
0.0
 10
642.303737667401
 20
1221.174233083202
 30
0.0
 10
650.8217362546811
 20
1223.215452158212
 30
0.0
 10
656.6267221473262
 20
1225.713146385019
 30
0.0
 10
669.7611486848418
 20
1228.973067987936
 30
0.0
 10
677.8326100869881
 20
1231.006801218031
 30
0.0
 10
677.5414041524063
 20
1235.254578113657
 30
0.0
 10
676.1148253438578
 20
1238.229982041479
 30
0.0
  0
SPLINE
  5
993
330
1F
100
AcDbEntity
  8
ceco.net 241
370
    18
100
AcDbSpline
210
0.0
220
0.0
230
1.0
 70
     8
 71
     3
 72
    38
 73
    34
 74
     0
 42
0.0000000001
 43
0.0000000001
 40
0.0
 40
0.0
 40
0.0
 40
0.0
 40
1.0
 40
1.0
 40
1.0
 40
2.0
 40
2.0
 40
2.0
 40
3.0
 40
3.0
 40
3.0
 40
4.0
 40
4.0
 40
4.0
 40
5.0
 40
5.0
 40
5.0
 40
6.0
 40
6.0
 40
6.0
 40
7.0
 40
7.0
 40
7.0
 40
8.0
 40
8.0
 40
8.0
 40
9.0
 40
9.0
 40
9.0
 40
10.0
 40
10.0
 40
10.0
 40
10.61671678501277
 40
10.61671678501277
 40
10.61671678501277
 40
10.61671678501277
 10
703.6615317620635
 20
1110.508193776847
 30
0.0
 10
703.6615317620635
 20
1110.508193776847
 30
0.0
 10
682.9041879610695
 20
1108.915796696336
 30
0.0
 10
642.7688255579087
 20
1107.279376340842
 30
0.0
 10
602.5387230289043
 20
1105.651568724061
 30
0.0
 10
464.8899329157465
 20
1105.246770004545
 30
0.0
 10
431.7222761315043
 20
1104.424253457441
 30
0.0
 10
398.5201683924078
 20
1103.562979586128
 30
0.0
 10
394.3429901165436
 20
1089.239995106203
 30
0.0
 10
395.2042639878563
 20
1075.343341192577
 30
0.0
 10
396.0655378591691
 20
1061.429461801523
 30
0.0
 10
398.5201683924078
 20
1040.905305448147
 30
0.0
 10
401.7843963646828
 20
1015.89821859459
 30
0.0
 10
405.091688030523
 20
990.8954381103894
 30
0.0
 10
427.5623233330652
 20
979.431882883221
 30
0.0
 10
453.0215789690609
 20
952.021841928702
 30
0.0
 10
478.4894473437707
 20
924.512754478982
 30
0.0
 10
490.667859884129
 20
904.0402745578848
 30
0.0
 10
502.9840762438971
 20
887.6760710029484
 30
0.0
 10
515.2658416488129
 20
871.2774164931587
 30
0.0
 10
525.9284121756609
 20
867.1562210189286
 30
0.0
 10
544.7730844799771
 20
867.1562210189286
 30
0.0
 10
563.6522077391464
 20
867.1562210189286
 30
0.0
 10
611.177299958168
 20
865.5327197715051
 30
0.0
 10
631.262206637175
 20
865.1150019439183
 30
0.0
 10
651.3212751000419
 20
864.710203224401
 30
0.0
 10
661.113959016864
 20
859.4090625464732
 30
0.0
 10
669.4080263976038
 20
848.3115487146124
 30
0.0
 10
677.564289958932
 20
837.2484858376036
 30
0.0
 10
709.5089378459115
 20
777.0023785392977
 30
0.0
 10
721.7734777734013
 20
757.7399884073939
 30
0.0
 10
729.3159789250267
 20
745.8950746270248
 30
0.0
 10
740.9269808724211
 20
742.9045550905884
 30
0.0
 10
748.7195463368252
 20
742.3522123807343
 30
0.0
  0
SPLINE
  5
994
330
1F
100
AcDbEntity
  8
ceco.net 241
370
    18
100
AcDbSpline
210
0.0
220
0.0
230
1.0
 70
     8
 71
     3
 72
    11
 73
     7
 74
     0
 42
0.0000000001
 43
0.0000000001
 40
0.0
 40
0.0
 40
0.0
 40
0.0
 40
1.0
 40
1.0
 40
1.0
 40
2.0
 40
2.0
 40
2.0
 40
2.0
 10
709.2672238340583
 20
778.9853039936851
 30
0.0
 10
709.2672238340583
 20
778.9853039936851
 30
0.0
 10
811.0359017962245
 20
784.3834956164455
 30
0.0
 10
845.1509598389103
 20
791.3598139740761
 30
0.0
 10
866.3641352893373
 20
795.7135533935606
 30
0.0
 10
850.2838884573547
 20
803.295762216495
 30
0.0
 10
850.2838884573547
 20
803.295762216495
 30
0.0
  0
SPLINE
  5
995
330
1F
100
AcDbEntity
  8
ceco.net 241
370
    18
100
AcDbSpline
210
0.0
220
0.0
230
1.0
 70
     8
 71
     3
 72
    17
 73
    13
 74
     0
 42
0.0000000001
 43
0.0000000001
 40
0.0069378903639147
 40
0.0069378903639147
 40
0.0069378903639147
 40
0.0069378903639147
 40
1.0
 40
1.0
 40
1.0
 40
2.0
 40
2.0
 40
2.0
 40
3.0
 40
3.0
 40
3.0
 40
3.986568283948727
 40
3.986568283948727
 40
3.986568283948727
 40
3.986568283948727
 10
-501.9775927775198
 20
656.7521991841013
 30
0.0
 10
-524.2572569403209
 20
656.8358509180752
 30
0.0
 10
-2129.963537573605
 20
662.8668390825678
 30
0.0
 10
-2145.837876761432
 20
663.5510778406633
 30
0.0
 10
-2161.805894335566
 20
664.1367440731555
 30
0.0
 10
-2163.063354187682
 20
668.4431134297183
 30
0.0
 10
-2164.303588562372
 20
677.6931948076144
 30
0.0
 10
-2165.509371982209
 20
686.8872933838747
 30
0.0
 10
-2151.952921247751
 20
688.7390322071969
 30
0.0
 10
-2151.952921247751
 20
688.7390322071969
 30
0.0
 10
-2151.952921247751
 20
688.7390322071969
 30
0.0
 10
-534.9873177463032
 20
680.972252357521
 30
0.0
 10
-491.5500720444933
 20
680.7636099943738
 30
0.0
  0
SPLINE
  5
996
330
1F
100
AcDbEntity
  8
ceco.net 241
370
    18
100
AcDbSpline
210
0.0
220
0.0
230
1.0
 70
    11
 71
     3
 72
    20
 73
    16
 74
     0
 42
0.0000000001
 43
0.0000000001
 40
0.0
 40
0.0
 40
0.0
 40
0.0
 40
1.0
 40
1.0
 40
1.0
 40
2.0
 40
2.0
 40
2.0
 40
3.0
 40
3.0
 40
3.0
 40
4.0
 40
4.0
 40
4.0
 40
5.0
 40
5.0
 40
5.0
 40
5.0
 10
-38.28348818241829
 20
1129.439953049712
 30
0.0
 10
-243.5164389774645
 20
1133.061609678581
 30
0.0
 10
-373.9391413103103
 20
1044.570025770582
 30
0.0
 10
-478.9887153942909
 20
959.8120640947236
 30
0.0
 10
-584.0813531718367
 20
874.9421368155935
 30
0.0
 10
-619.763929660312
 20
854.7022008397506
 30
0.0
 10
-566.8731012230137
 20
908.1097935998377
 30
0.0
 10
-513.9994982631423
 20
961.6250455938361
 30
0.0
 10
-333.3300782779279
 20
1149.692808133624
 30
0.0
 10
-37.68059647249993
 20
1149.094222793062
 30
0.0
 10
258.0291745039203
 20
1148.461186497647
 30
0.0
 10
423.9363603348401
 20
962.8911181846651
 30
0.0
 10
423.9363603348401
 20
962.8911181846651
 30
0.0
 10
423.9363603348401
 20
962.8911181846651
 30
0.0
 10
241.9750295426556
 20
1124.504853767091
 30
0.0
 10
-38.28348818241829
 20
1129.439953049712
 30
0.0
  0
SPLINE
  5
997
330
1F
100
AcDbEntity
  8
ceco.net 241
370
    18
100
AcDbSpline
210
0.0
220
0.0
230
1.0
 70
     8
 71
     3
 72
    11
 73
     7
 74
     0
 42
0.0000000001
 43
0.0000000001
 40
0.0
 40
0.0
 40
0.0
 40
0.0
 40
1.0
 40
1.0
 40
1.0
 40
1.982044487358388
 40
1.982044487358388
 40
1.982044487358388
 40
1.982044487358388
 10
-2166.387871330948
 20
488.6694182706687
 30
0.0
 10
-2162.925550368271
 20
464.2479976496042
 30
0.0
 10
-2137.25958900316
 20
461.8493499179985
 30
0.0
 10
-2124.323255456047
 20
463.1670989411068
 30
0.0
 10
-2124.323255456047
 20
463.1670989411068
 30
0.0
 10
-598.6361806257164
 20
461.9834621370828
 30
0.0
 10
-543.8471935071966
 20
461.9409565258865
 30
0.0
  0
SPLINE
  5
998
330
1F
100
AcDbEntity
  8
ceco.net 241
370
    18
100
AcDbSpline
210
0.0
220
0.0
230
1.0
 70
     8
 71
     3
 72
    29
 73
    25
 74
     0
 42
0.0000000001
 43
0.0000000001
 40
0.0137970382924487
 40
0.0137970382924487
 40
0.0137970382924487
 40
0.0137970382924487
 40
1.0
 40
1.0
 40
1.0
 40
2.0
 40
2.0
 40
2.0
 40
3.0
 40
3.0
 40
3.0
 40
4.0
 40
4.0
 40
4.0
 40
5.0
 40
5.0
 40
5.0
 40
6.0
 40
6.0
 40
6.0
 40
7.0
 40
7.0
 40
7.0
 40
8.0
 40
8.0
 40
8.0
 40
8.0
 10
-2190.332785019764
 20
711.8820265960011
 30
0.0
 10
-2152.404397508403
 20
711.7045147290419
 30
0.0
 10
-777.0868377498928
 20
705.2635171565935
 30
0.0
 10
-660.3040907829891
 20
704.0998517020543
 30
0.0
 10
-541.8961589549526
 20
702.8811491741471
 30
0.0
 10
-528.38277191406
 20
774.5563607447702
 30
0.0
 10
-436.5709772321515
 20
865.5327197715051
 30
0.0
 10
-344.8022462438093
 20
956.4617087353189
 30
0.0
 10
-216.9203018313355
 20
1010.14921550358
 30
0.0
 10
-79.64185948284285
 20
1018.39160645204
 30
0.0
 10
57.58490643337154
 20
1026.586627337578
 30
0.0
 10
137.106322971651
 20
1000.726879351421
 30
0.0
 10
228.9439558696985
 20
961.0393793613429
 30
0.0
 10
320.6868486419016
 20
921.248526506708
 30
0.0
 10
376.7643904030555
 20
854.8787619833701
 30
0.0
 10
422.6702877440093
 20
796.6997119762136
 30
0.0
 10
468.602023301104
 20
738.5335810771257
 30
0.0
 10
501.6835526982158
 20
732.8233353103241
 30
0.0
 10
598.4562848788828
 20
735.2219830419299
 30
0.0
 10
695.1515024111322
 20
737.6723072058139
 30
0.0
 10
845.5643712971395
 20
748.3650223181576
 30
0.0
 10
865.218641040491
 20
751.6206375517194
 30
0.0
 10
884.8815235225547
 20
754.8848655239926
 30
0.0
 10
883.6585146252909
 20
762.6837004287271
 30
0.0
 10
883.6585146252909
 20
762.6837004287271
 30
0.0
  0
SPLINE
  5
999
330
1F
100
AcDbEntity
  8
ceco.net 241
370
    18
100
AcDbSpline
210
0.0
220
0.0
230
1.0
 70
     8
 71
     3
 72
    11
 73
     7
 74
     0
 42
0.0000000001
 43
0.0000000001
 40
0.0
 40
0.0
 40
0.0
 40
0.0
 40
1.0
 40
1.0
 40
1.0
 40
1.491489974247806
 40
1.491489974247806
 40
1.491489974247806
 40
1.491489974247806
 10
463.3430325961708
 20
364.1471309312974
 30
0.0
 10
463.3430325961708
 20
364.1471309312974
 30
0.0
 10
530.7687713324358
 20
365.6536712311099
 30
0.0
 10
601.401841518771
 20
370.1495208393607
 30
0.0
 10
636.0283927964019
 20
372.3740016090914
 30
0.0
 10
658.5734005000931
 20
376.767418004073
 30
0.0
 10
672.5483070600958
 20
380.6603988932138
 30
0.0
  0
SPLINE
  5
99A
330
1F
100
AcDbEntity
  8
ceco.net 241
370
    18
100
AcDbSpline
210
0.0
220
0.0
230
1.0
 70
     8
 71
     3
 72
    11
 73
     7
 74
     0
 42
0.0000000001
 43
0.0000000001
 40
0.0
 40
0.0
 40
0.0
 40
0.0
 40
1.0
 40
1.0
 40
1.0
 40
1.900772207611864
 40
1.900772207611864
 40
1.900772207611864
 40
1.900772207611864
 10
472.2365990380413
 20
404.5789438450765
 30
0.0
 10
472.2365990380413
 20
404.5789438450765
 30
0.0
 10
526.4193382823086
 20
403.3128712542475
 30
0.0
 10
635.7494435067128
 20
408.3384042933557
 30
0.0
 10
734.3706098300908
 20
412.6674328339822
 30
0.0
 10
776.7360016147468
 20
419.7428612992943
 30
0.0
 10
784.1726109472237
 20
421.1043953078533
 30
0.0
  0
SPLINE
  5
99B
330
1F
100
AcDbEntity
  8
ceco.net 241
370
    18
100
AcDbSpline
210
0.0
220
0.0
230
1.0
 70
     8
 71
     3
 72
    29
 73
    25
 74
     0
 42
0.0000000001
 43
0.0000000001
 40
0.0
 40
0.0
 40
0.0
 40
0.0
 40
1.0
 40
1.0
 40
1.0
 40
2.0
 40
2.0
 40
2.0
 40
3.0
 40
3.0
 40
3.0
 40
4.0
 40
4.0
 40
4.0
 40
5.0
 40
5.0
 40
5.0
 40
6.0
 40
6.0
 40
6.0
 40
7.0
 40
7.0
 40
7.0
 40
7.866188426413477
 40
7.866188426413477
 40
7.866188426413477
 40
7.866188426413477
 10
473.9074703483884
 20
422.1575435585646
 30
0.0
 10
473.9074703483884
 20
422.1575435585646
 30
0.0
 10
473.0461964770756
 20
408.3384042933557
 30
0.0
 10
471.8231875798119
 20
401.3233286115155
 30
0.0
 10
470.6776933309656
 20
394.3470102538849
 30
0.0
 10
466.0698781194451
 20
390.2645721038643
 30
0.0
 10
464.0803354767131
 20
382.8834550267165
 30
0.0
 10
462.0391164017028
 20
375.5367889044209
 30
0.0
 10
466.0698781194451
 20
374.6755150331082
 30
0.0
 10
466.0698781194451
 20
374.6755150331082
 30
0.0
 10
466.0698781194451
 20
374.6755150331082
 30
0.0
 10
476.6721594753017
 20
373.4525061358445
 30
0.0
 10
539.9241125844882
 20
375.5367889044209
 30
0.0
 10
602.9435217484214
 20
377.4875742229433
 30
0.0
 10
685.7550044751142
 20
387.7281205528488
 30
0.0
 10
703.428344314445
 20
389.0458695759562
 30
0.0
 10
721.0069440279331
 20
390.2645721038643
 30
0.0
 10
721.4289682248754
 20
394.3470102538849
 30
0.0
 10
732.4360483002483
 20
398.4552866200456
 30
0.0
 10
743.4517411143351
 20
402.5377247700662
 30
0.0
 10
775.46529091102
 20
415.6807640462948
 30
0.0
 10
782.0368105491334
 20
419.3067270445198
 30
0.0
 10
787.7289848036171
 20
422.481065373855
 30
0.0
 10
787.5665995730569
 20
432.76358850843
 30
0.0
 10
787.4212200885913
 20
435.4585914774625
 30
0.0
  0
SPLINE
  5
99C
330
1F
100
AcDbEntity
  8
ceco.net 241
370
    18
100
AcDbSpline
210
0.0
220
0.0
230
1.0
 70
     8
 71
     3
 72
    26
 73
    22
 74
     0
 42
0.0000000001
 43
0.0000000001
 40
0.0
 40
0.0
 40
0.0
 40
0.0
 40
1.0
 40
1.0
 40
1.0
 40
2.0
 40
2.0
 40
2.0
 40
3.0
 40
3.0
 40
3.0
 40
4.0
 40
4.0
 40
4.0
 40
5.0
 40
5.0
 40
5.0
 40
6.0
 40
6.0
 40
6.0
 40
6.269963361201339
 40
6.269963361201339
 40
6.269963361201339
 40
6.269963361201339
 10
756.1555307161943
 20
432.445459951391
 30
0.0
 10
764.8199458615981
 20
432.8545650402648
 30
0.0
 10
788.6083301872477
 20
443.1424814330921
 30
0.0
 10
795.5329721125999
 20
445.9459278842141
 30
0.0
 10
802.5265159476566
 20
448.8441144611806
 30
0.0
 10
802.9657656220269
 20
453.3270449613619
 30
0.0
 10
805.0586611293166
 20
458.2750633520517
 30
0.0
 10
807.0482037720475
 20
463.1670989411068
 30
0.0
 10
810.7689068961171
 20
484.4448699318809
 30
0.0
 10
815.6609424851712
 20
517.668509517759
 30
0.0
 10
820.5443653355141
 20
550.8318599326448
 30
0.0
 10
821.77598697149
 20
582.453530117883
 30
0.0
 10
824.2564557208698
 20
611.0779672309518
 30
0.0
 10
826.7024735153972
 20
639.715323452091
 30
0.0
 10
844.2810732288853
 20
641.7651552658153
 30
0.0
 10
852.4976259612067
 20
643.892501727957
 30
0.0
 10
852.4976259612067
 20
643.892501727957
 30
0.0
 10
873.366291863107
 20
646.3385195224836
 30
0.0
 10
887.3706050106466
 20
649.1462723429631
 30
0.0
 10
891.1535815831657
 20
649.9286765326696
 30
0.0
 10
894.1291508028397
 20
651.3295383443828
 30
0.0
 10
896.4575493241273
 20
652.957914194656
 30
0.0
  0
SPLINE
  5
99D
330
1F
100
AcDbEntity
  8
ceco.net 241
370
    18
100
AcDbSpline
210
0.0
220
0.0
230
1.0
 70
     8
 71
     3
 72
    44
 73
    40
 74
     0
 42
0.0000000001
 43
0.0000000001
 40
0.0
 40
0.0
 40
0.0
 40
0.0
 40
1.0
 40
1.0
 40
1.0
 40
2.0
 40
2.0
 40
2.0
 40
3.0
 40
3.0
 40
3.0
 40
4.0
 40
4.0
 40
4.0
 40
5.0
 40
5.0
 40
5.0
 40
6.0
 40
6.0
 40
6.0
 40
7.0
 40
7.0
 40
7.0
 40
8.0
 40
8.0
 40
8.0
 40
9.0
 40
9.0
 40
9.0
 40
10.0
 40
10.0
 40
10.0
 40
11.0
 40
11.0
 40
11.0
 40
12.0
 40
12.0
 40
12.0
 40
13.0
 40
13.0
 40
13.0
 40
13.0
 10
867.5357168574574
 20
457.1604763894611
 30
0.0
 10
871.342298265522
 20
460.3507333819152
 30
0.0
 10
871.342298265522
 20
466.0609791487168
 30
0.0
 10
871.7815479398915
 20
471.8573523026488
 30
0.0
 10
872.1518957045564
 20
477.5719044388079
 30
0.0
 10
866.0799149118037
 20
477.1197356563679
 30
0.0
 10
855.434569862381
 20
473.8468949453809
 30
0.0
 10
844.6858719484016
 20
470.5482160182546
 30
0.0
 10
842.3001433248664
 20
461.9397836744865
 30
0.0
 10
839.8455127916259
 20
456.2682952318937
 30
0.0
 10
837.3478185648201
 20
450.467615708605
 30
0.0
 10
825.8411996440845
 20
446.3507266037313
 30
0.0
 10
815.2130800720906
 20
441.86779610355
 30
0.0
 10
804.5505095452417
 20
437.3288828017329
 30
0.0
 10
791.0543479817752
 20
436.1101802738257
 30
0.0
 10
775.0949431463559
 20
433.6641624792982
 30
0.0
 10
759.0235727076652
 20
431.2655147476935
 30
0.0
 10
480.0225148347071
 20
421.8431785955345
 30
0.0
 10
474.3122690679046
 20
422.1575435585646
 30
0.0
 10
468.602023301104
 20
422.6054059716471
 30
0.0
 10
470.9705264472122
 20
428.7721268902441
 30
0.0
 10
470.9705264472122
 20
441.86779610355
 30
0.0
 10
470.9705264472122
 20
454.963465316855
 30
0.0
 10
463.158772434409
 20
510.7266421149806
 30
0.0
 10
455.1058617376375
 20
555.7152827829868
 30
0.0
 10
446.8634707891769
 20
600.8460336397602
 30
0.0
 10
426.0206431034157
 20
645.0681405622981
 30
0.0
 10
420.2242699494827
 20
661.9146574851701
 30
0.0
 10
414.5140241826811
 20
678.7310298225456
 30
0.0
 10
434.5817053842611
 20
677.0601585121994
 30
0.0
 10
434.5817053842611
 20
677.0601585121994
 30
0.0
 10
434.5817053842611
 20
677.0601585121994
 30
0.0
 10
509.2024735947725
 20
676.1945782715302
 30
0.0
 10
601.8066402382892
 20
677.8697559512329
 30
0.0
 10
694.3246794946726
 20
679.5406272615791
 30
0.0
 10
833.6874046117419
 20
689.7424162672759
 30
0.0
 10
866.0799149118037
 20
692.5975391506763
 30
0.0
 10
900.215331622936
 20
694.8223983858897
 30
0.0
 10
889.9409581507198
 20
709.0861634440716
 30
0.0
 10
889.9409581507198
 20
709.0861634440716
 30
0.0
  0
SPLINE
  5
99E
330
1F
100
AcDbEntity
  8
ceco.net 241
370
    18
100
AcDbSpline
210
0.0
220
0.0
230
1.0
 70
     8
 71
     3
 72
    71
 73
    67
 74
     0
 42
0.0000000001
 43
0.0000000001
 40
0.8183919417374493
 40
0.8183919417374493
 40
0.8183919417374493
 40
0.8183919417374493
 40
1.0
 40
1.0
 40
1.0
 40
2.0
 40
2.0
 40
2.0
 40
3.0
 40
3.0
 40
3.0
 40
4.0
 40
4.0
 40
4.0
 40
5.0
 40
5.0
 40
5.0
 40
6.0
 40
6.0
 40
6.0
 40
7.0
 40
7.0
 40
7.0
 40
8.0
 40
8.0
 40
8.0
 40
9.0
 40
9.0
 40
9.0
 40
10.0
 40
10.0
 40
10.0
 40
11.0
 40
11.0
 40
11.0
 40
12.0
 40
12.0
 40
12.0
 40
13.0
 40
13.0
 40
13.0
 40
14.0
 40
14.0
 40
14.0
 40
15.0
 40
15.0
 40
15.0
 40
16.0
 40
16.0
 40
16.0
 40
17.0
 40
17.0
 40
17.0
 40
18.0
 40
18.0
 40
18.0
 40
19.0
 40
19.0
 40
19.0
 40
20.0
 40
20.0
 40
20.0
 40
21.0
 40
21.0
 40
21.0
 40
22.0
 40
22.0
 40
22.0
 40
22.0
 10
855.1592327834105
 20
716.9643263438947
 30
0.0
 10
851.270562814866
 20
716.4150311246321
 30
0.0
 10
847.2422656414
 20
715.8284573208957
 30
0.0
 10
843.1614171961792
 20
715.162914579063
 30
0.0
 10
820.5443653355141
 20
711.4809687792021
 30
0.0
 10
785.3871659085389
 20
708.6258458958018
 30
0.0
 10
689.8374426251339
 20
705.2797969057519
 30
0.0
 10
594.3738467288612
 20
702.0586326270431
 30
0.0
 10
433.1347652804561
 20
697.9891135850921
 30
0.0
 10
418.4069820810127
 20
697.9891135850921
 30
0.0
 10
403.6447479267171
 20
697.9891135850921
 30
0.0
 10
404.2304141592103
 20
697.9891135850921
 30
0.0
 10
395.0233964748795
 20
715.162914579063
 30
0.0
 10
385.7905405744113
 20
732.371166527886
 30
0.0
 10
341.4779998953845
 20
800.6098953519721
 30
0.0
 10
306.4930552426722
 20
830.6769661994904
 30
0.0
 10
271.5167233286729
 20
860.8646153889912
 30
0.0
 10
155.9079315824019
 20
955.458324675239
 30
0.0
 10
-20.45511904625072
 20
955.458324675239
 30
0.0
 10
-196.8956843233208
 20
955.458324675239
 30
0.0
 10
-326.5690783881245
 20
891.5733352706366
 30
0.0
 10
-406.5039063846334
 20
803.6372730096354
 30
0.0
 10
-486.3353815165855
 20
715.7959508744779
 30
0.0
 10
-508.5217964415951
 20
650.0419971691281
 30
0.0
 10
-527.5473362588873
 20
573.754664017626
 30
0.0
 10
-546.5470378600403
 20
497.5491518838999
 30
0.0
 10
-544.7211372528572
 20
433.078496246806
 30
0.0
 10
-544.144083759078
 20
420.8053435806041
 30
0.0
 10
-543.4895156168805
 20
408.4762081127655
 30
0.0
 10
-545.961371627547
 20
402.9425234895834
 30
0.0
 10
-562.5667318664509
 20
403.4937387672234
 30
0.0
 10
-579.1634793666426
 20
404.2172088191255
 30
0.0
 10
-2117.588093782383
 20
421.3350270114606
 30
0.0
 10
-2139.068264132916
 20
421.9680633068755
 30
0.0
 10
-2160.539821744735
 20
422.6054059716471
 30
0.0
 10
-2161.805894335566
 20
453.3270449613619
 30
0.0
 10
-2169.837273185554
 20
516.66512545768
 30
0.0
 10
-2177.804056495194
 20
579.9170785668675
 30
0.0
 10
-2195.632425631362
 20
737.9048511510681
 30
0.0
 10
-2203.612128049072
 20
906.2968121007243
 30
0.0
 10
-2211.626281421635
 20
1074.705998527805
 30
0.0
 10
-2212.233479500909
 20
1190.276032949867
 30
0.0
 10
-2210.993245126219
 20
1271.972166013211
 30
0.0
 10
-2209.72717253539
 20
1353.745813724972
 30
0.0
 10
-2245.405442654509
 20
1347.626462869297
 30
0.0
 10
-2265.671216846491
 20
1352.527111197065
 30
0.0
 10
-2285.9542165159
 20
1357.457904110328
 30
0.0
 10
-2285.11447449137
 20
1379.157699298047
 30
0.0
 10
-2284.748433096063
 20
1389.406858366664
 30
0.0
 10
-2284.317796160406
 20
1399.643098327214
 30
0.0
 10
-2282.892387903384
 20
1421.566824721472
 30
0.0
 10
-2264.047715599067
 20
1545.297429074219
 30
0.0
 10
-2245.22888151089
 20
1669.032339796324
 30
0.0
 10
-2213.249782669059
 20
1773.151738099288
 30
0.0
 10
-2213.249782669059
 20
1773.151738099288
 30
0.0
 10
-2213.249782669059
 20
1773.151738099288
 30
0.0
 10
-2216.096292813746
 20
1777.229869879952
 30
0.0
 10
-2216.096292813746
 20
1777.229869879952
 30
0.0
 10
-2216.096292813746
 20
1777.229869879952
 30
0.0
 10
-2203.836059255613
 20
1808.347694850471
 30
0.0
 10
-2196.838209051199
 20
1823.127154482192
 30
0.0
 10
-2189.874809801638
 20
1837.83771220421
 30
0.0
 10
-2171.030137497322
 20
1858.370481296299
 30
0.0
 10
-2163.235608961944
 20
1862.043814357446
 30
0.0
 10
-2155.484144120131
 20
1865.751598373447
 30
0.0
 10
-2053.171497905788
 20
1905.035399162751
 30
0.0
 10
-2053.171497905788
 20
1905.035399162751
 30
0.0
  0
SPLINE
  5
99F
330
1F
100
AcDbEntity
  8
ceco.net 241
370
    18
100
AcDbSpline
210
0.0
220
0.0
230
1.0
 70
    11
 71
     3
 72
    35
 73
    31
 74
     0
 42
0.0000000001
 43
0.0000000001
 40
0.0
 40
0.0
 40
0.0
 40
0.0
 40
1.0
 40
1.0
 40
1.0
 40
2.0
 40
2.0
 40
2.0
 40
3.0
 40
3.0
 40
3.0
 40
4.0
 40
4.0
 40
4.0
 40
5.0
 40
5.0
 40
5.0
 40
6.0
 40
6.0
 40
6.0
 40
7.0
 40
7.0
 40
7.0
 40
8.0
 40
8.0
 40
8.0
 40
9.0
 40
9.0
 40
9.0
 40
10.0
 40
10.0
 40
10.0
 40
10.0
 10
143.9362247711587
 20
421.3350270114606
 30
0.0
 10
143.9362247711587
 20
421.3350270114606
 30
0.0
 10
144.4013126616673
 20
415.9477589464013
 30
0.0
 10
148.8885495312051
 20
414.991744949244
 30
0.0
 10
153.2810462748993
 20
414.1821475102106
 30
0.0
 10
191.1943220900739
 20
410.9222259072931
 30
0.0
 10
196.3275143630953
 20
409.9748246488498
 30
0.0
 10
196.3275143630953
 20
409.9748246488498
 30
0.0
 10
207.9116479322483
 20
408.6570756257406
 30
0.0
 10
207.9977753193789
 20
416.8607092499923
 30
0.0
 10
208.0925154452233
 20
425.1031001984529
 30
0.0
 10
206.1029728024914
 20
448.4393157416634
 30
0.0
 10
199.0835907512955
 20
470.1434172987374
 30
0.0
 10
190.6086558575807
 20
495.964407960685
 30
0.0
 10
177.4225528877868
 20
517.2077279966069
 30
0.0
 10
172.573580992298
 20
525.8592240339403
 30
0.0
 10
168.051893167908
 20
533.6580589386748
 30
0.0
 10
163.9263913243212
 20
530.5273284164541
 30
0.0
 10
160.7052270456124
 20
527.6722055330528
 30
0.0
 10
157.5357391991829
 20
524.8213890190091
 30
0.0
 10
129.6735294622239
 20
497.6395856403878
 30
0.0
 10
126.6418454352051
 20
494.3839704068268
 30
0.0
 10
123.4206811564954
 20
491.2058698216842
 30
0.0
 10
120.0186493648116
 20
487.8469017235657
 30
0.0
 10
124.5489499279146
 20
480.6940222223156
 30
0.0
 10
128.8983829780436
 20
473.4420962258646
 30
0.0
 10
133.3856198475814
 20
465.1049651515604
 30
0.0
 10
137.106322971651
 20
454.4122500392159
 30
0.0
 10
140.8528643118597
 20
443.5472801526093
 30
0.0
 10
143.9362247711587
 20
421.3350270114606
 30
0.0
 10
143.9362247711587
 20
421.3350270114606
 30
0.0
  0
SPLINE
  5
9A0
330
1F
100
AcDbEntity
  8
ceco.net 241
370
    18
100
AcDbSpline
210
0.0
220
0.0
230
1.0
 70
    11
 71
     3
 72
    35
 73
    31
 74
     0
 42
0.0000000001
 43
0.0000000001
 40
0.0
 40
0.0
 40
0.0
 40
0.0
 40
1.0
 40
1.0
 40
1.0
 40
2.0
 40
2.0
 40
2.0
 40
3.0
 40
3.0
 40
3.0
 40
4.0
 40
4.0
 40
4.0
 40
5.0
 40
5.0
 40
5.0
 40
6.0
 40
6.0
 40
6.0
 40
7.0
 40
7.0
 40
7.0
 40
8.0
 40
8.0
 40
8.0
 40
9.0
 40
9.0
 40
9.0
 40
10.0
 40
10.0
 40
10.0
 40
10.0
 10
52.54645428619369
 20
276.9984452875624
 30
0.0
 10
52.54645428619369
 20
276.9984452875624
 30
0.0
 10
47.43910022931049
 20
275.0002899061173
 30
0.0
 10
47.8438989488277
 20
270.4699893430142
 30
0.0
 10
48.20563397477872
 20
266.0301225363982
 30
0.0
 10
55.40588353895145
 20
228.6163855665845
 30
0.0
 10
55.82790773589568
 20
223.3496958435089
 30
0.0
 10
55.82790773589568
 20
223.3496958435089
 30
0.0
 10
57.73132299149438
 20
211.8473832921308
 30
0.0
 10
65.68949356242228
 20
214.0651635107606
 30
0.0
 10
73.67350234948844
 20
216.1968163422598
 30
0.0
 10
95.54985868082439
 20
224.4908837229977
 30
0.0
 10
114.5840112368305
 20
237.1257714151515
 30
0.0
 10
137.0115828458065
 20
252.2583533341121
 30
0.0
 10
153.9097762009578
 20
270.7843543060425
 30
0.0
 10
160.8430308650222
 20
277.8080427265958
 30
0.0
 10
167.2336829901605
 20
284.2891286082222
 30
0.0
 10
163.1512448401399
 20
287.4112463917299
 30
0.0
 10
159.5166691032009
 20
289.6290266103596
 30
0.0
 10
155.8045787178443
 20
291.9932233871122
 30
0.0
 10
122.102932133389
 20
311.3804982303554
 30
0.0
 10
118.1669105414903
 20
313.5552147554199
 30
0.0
 10
114.2739526431578
 20
315.6481102627094
 30
0.0
 10
110.0967743672927
 20
318.0424516249577
 30
0.0
 10
104.4295922940573
 20
311.7896033192291
 30
0.0
 10
98.68489557240174
 20
305.5884314457789
 30
0.0
 10
91.83776829546786
 20
298.9695417447428
 30
0.0
 10
82.40681940459671
 20
292.4884558631165
 30
0.0
 10
73.04477242343001
 20
285.9686126572814
 30
0.0
 10
52.54645428619369
 20
276.9984452875624
 30
0.0
 10
52.54645428619369
 20
276.9984452875624
 30
0.0
  0
SPLINE
  5
9A1
330
1F
100
AcDbEntity
  8
ceco.net 241
370
    18
100
AcDbSpline
210
0.0
220
0.0
230
1.0
 70
    11
 71
     3
 72
    35
 73
    31
 74
     0
 42
0.0000000001
 43
0.0000000001
 40
0.0
 40
0.0
 40
0.0
 40
0.0
 40
1.0
 40
1.0
 40
1.0
 40
2.0
 40
2.0
 40
2.0
 40
3.0
 40
3.0
 40
3.0
 40
4.0
 40
4.0
 40
4.0
 40
5.0
 40
5.0
 40
5.0
 40
6.0
 40
6.0
 40
6.0
 40
7.0
 40
7.0
 40
7.0
 40
8.0
 40
8.0
 40
8.0
 40
9.0
 40
9.0
 40
9.0
 40
10.0
 40
10.0
 40
10.0
 40
10.0
 10
-107.8313532908996
 20
321.2636159036664
 30
0.0
 10
-107.8313532908996
 20
321.2636159036664
 30
0.0
 10
-111.2075468664443
 20
325.3891177472524
 30
0.0
 10
-115.3674996648833
 20
323.7526973917592
 30
0.0
 10
-119.5619034181745
 20
321.9870859555685
 30
0.0
 10
-152.9018149766798
 20
303.5816633256208
 30
0.0
 10
-157.7421741334565
 20
301.553363358681
 30
0.0
 10
-157.7421741334565
 20
301.553363358681
 30
0.0
 10
-168.0860733279187
 20
296.1660952936208
 30
0.0
 10
-163.5299345486755
 20
289.2802106924773
 30
0.0
 10
-159.0426976791377
 20
282.4287770461869
 30
0.0
 10
-144.452718299105
 20
264.1267072807968
 30
0.0
 10
-126.5037708209538
 20
250.0362667461258
 30
0.0
 10
-105.1183405962647
 20
233.2801835797417
 30
0.0
 10
-82.3462594387638
 20
222.9061397997829
 30
0.0
 10
-73.5612659513763
 20
218.5954640738646
 30
0.0
 10
-65.37916417390807
 20
214.5216386625561
 30
0.0
 10
-63.70829286356183
 20
219.2758704322013
 30
0.0
 10
-62.63170052442092
 20
223.4530487080665
 30
0.0
 10
-61.52065723042778
 20
227.6130015065055
 30
0.0
 10
-53.62277583049309
 20
265.7631276362917
 30
0.0
 10
-52.81317839145959
 20
270.1125606864188
 30
0.0
 10
-51.96051725885991
 20
274.5911848172445
 30
0.0
 10
-50.93560135199822
 20
279.2162255061921
 30
0.0
 10
-58.64400250024482
 20
282.7431420092161
 30
0.0
 10
-66.39546734205669
 20
286.2829776203107
 30
0.0
 10
-74.68953472279554
 20
290.6324106704387
 30
0.0
 10
-83.82765049742102
 20
297.6087290280693
 30
0.0
 10
-92.87102614620199
 20
304.4472435662901
 30
0.0
 10
-107.8313532908996
 20
321.2636159036664
 30
0.0
 10
-107.8313532908996
 20
321.2636159036664
 30
0.0
  0
SPLINE
  5
9A2
330
1F
100
AcDbEntity
  8
ceco.net 241
370
    18
100
AcDbSpline
210
0.0
220
0.0
230
1.0
 70
    11
 71
     3
 72
    35
 73
    31
 74
     0
 42
0.0000000001
 43
0.0000000001
 40
0.0
 40
0.0
 40
0.0
 40
0.0
 40
1.0
 40
1.0
 40
1.0
 40
2.0
 40
2.0
 40
2.0
 40
3.0
 40
3.0
 40
3.0
 40
4.0
 40
4.0
 40
4.0
 40
5.0
 40
5.0
 40
5.0
 40
6.0
 40
6.0
 40
6.0
 40
7.0
 40
7.0
 40
7.0
 40
8.0
 40
8.0
 40
8.0
 40
9.0
 40
9.0
 40
9.0
 40
10.0
 40
10.0
 40
10.0
 40
10.0
 10
-117.7101645948532
 20
483.7257062493354
 30
0.0
 10
-117.7101645948532
 20
483.7257062493354
 30
0.0
 10
-114.9627009453661
 20
488.3981170012048
 30
0.0
 10
-117.9771594949597
 20
491.6537322347667
 30
0.0
 10
-120.9485543509881
 20
495.0127003328852
 30
0.0
 10
-149.7064889141111
 20
520.1145273122866
 30
0.0
 10
-153.2377117864916
 20
524.0462425348278
 30
0.0
 10
-153.2377117864916
 20
524.0462425348278
 30
0.0
 10
-161.7126466802073
 20
531.9355111960494
 30
0.0
 10
-166.7252606112451
 20
525.2735578014481
 30
0.0
 10
-171.6689726325794
 20
518.7451018568999
 30
0.0
 10
-183.8559979116498
 20
498.858288168295
 30
0.0
 10
-191.0993111693878
 20
477.1197356563679
 30
0.0
 10
-199.6431479728071
 20
451.3331959492743
 30
0.0
 10
-201.6326906155391
 20
426.3174963570027
 30
0.0
 10
-202.7006702159669
 20
416.5420379176066
 30
0.0
 10
-203.794488032533
 20
407.5288068543214
 30
0.0
 10
-198.6612957595116
 20
407.5632578091744
 30
0.0
 10
-194.3463136642358
 20
408.0714093932483
 30
0.0
 10
-190.1260716948045
 20
408.4762081127655
 30
0.0
 10
-151.5237767825801
 20
413.8634761778248
 30
0.0
 10
-147.1571182550269
 20
414.5524952748756
 30
0.0
 10
-142.7043323403404
 20
415.271658957421
 30
0.0
 10
-138.0190024804005
 20
415.9046952528361
 30
0.0
 10
-137.3213706446376
 20
424.3322600836282
 30
0.0
 10
-136.5289986830303
 20
432.8071949773421
 30
0.0
 10
-135.2284751373481
 20
442.1864674359357
 30
0.0
 10
-131.8436688230904
 20
453.0600500612554
 30
0.0
 10
-128.4157988152674
 20
463.9250199478619
 30
0.0
 10
-117.7101645948532
 20
483.7257062493354
 30
0.0
 10
-117.7101645948532
 20
483.7257062493354
 30
0.0
  0
SPLINE
  5
9A3
330
1F
100
AcDbEntity
  8
ceco.net 241
370
    18
100
AcDbSpline
210
0.0
220
0.0
230
1.0
 70
    11
 71
     3
 72
    35
 73
    31
 74
     0
 42
0.0000000001
 43
0.0000000001
 40
0.0
 40
0.0
 40
0.0
 40
0.0
 40
1.0
 40
1.0
 40
1.0
 40
2.0
 40
2.0
 40
2.0
 40
3.0
 40
3.0
 40
3.0
 40
4.0
 40
4.0
 40
4.0
 40
5.0
 40
5.0
 40
5.0
 40
6.0
 40
6.0
 40
6.0
 40
7.0
 40
7.0
 40
7.0
 40
8.0
 40
8.0
 40
8.0
 40
9.0
 40
9.0
 40
9.0
 40
10.0
 40
10.0
 40
10.0
 40
10.0
 10
33.17640492037662
 20
547.8432395991912
 30
0.0
 10
33.17640492037662
 20
547.8432395991912
 30
0.0
 10
38.51630292251411
 20
546.7494217826242
 30
0.0
 10
40.68671307822114
 20
550.6423796809567
 30
0.0
 10
42.87434871135519
 20
554.5396439486458
 30
0.0
 10
57.12843128157601
 20
589.9250809515178
 30
0.0
 10
59.53138538253824
 20
594.5544280098228
 30
0.0
 10
59.53138538253824
 20
594.5544280098228
 30
0.0
 10
64.24255345861729
 20
605.24283675281
 30
0.0
 10
56.35328479739474
 20
607.7319182409028
 30
0.0
 10
48.48124161359828
 20
610.2339188370661
 30
0.0
 10
25.70054771738432
 20
615.2508391374612
 30
0.0
 10
2.868177388891126
 20
614.8847977421537
 30
0.0
 10
-24.2533368187378
 20
614.4369353290703
 30
0.0
 10
-48.46374534133156
 20
608.1022660055678
 30
0.0
 10
-58.17030187102318
 20
605.9663068047121
 30
0.0
 10
-66.989746313262
 20
603.9767641619801
 30
0.0
 10
-65.28442404806447
 20
599.1665495907009
 30
0.0
 10
-63.41545974731616
 20
595.2262216294466
 30
0.0
 10
-61.70152474340375
 20
591.3332637311141
 30
0.0
 10
-43.82147917495785
 20
556.7186668430658
 30
0.0
 10
-41.74580914509443
 20
552.8257089447333
 30
0.0
 10
-39.57539898938739
 20
548.8293981818442
 30
0.0
 10
-37.44805252724563
 20
544.5790116269172
 30
0.0
 10
-29.26595074977649
 20
546.7494217826242
 30
0.0
 10
-21.02355980131688
 20
548.8293981818442
 30
0.0
 10
-11.78209116213383
 20
550.6423796809567
 30
0.0
 10
-0.3529868898176574
 20
551.047178400474
 30
0.0
 10
11.01582821150714
 20
551.417526165138
 30
0.0
 10
33.17640492037662
 20
547.8432395991912
 30
0.0
 10
33.17640492037662
 20
547.8432395991912
 30
0.0
  0
SPLINE
  5
9A4
330
1F
100
AcDbEntity
  8
ceco.net 241
370
    18
100
AcDbSpline
210
0.0
220
0.0
230
1.0
 70
    11
 71
     3
 72
   104
 73
   100
 74
     0
 42
0.0000000001
 43
0.0000000001
 40
0.0
 40
0.0
 40
0.0
 40
0.0
 40
1.0
 40
1.0
 40
1.0
 40
2.0
 40
2.0
 40
2.0
 40
3.0
 40
3.0
 40
3.0
 40
4.0
 40
4.0
 40
4.0
 40
5.0
 40
5.0
 40
5.0
 40
6.0
 40
6.0
 40
6.0
 40
7.0
 40
7.0
 40
7.0
 40
8.0
 40
8.0
 40
8.0
 40
9.0
 40
9.0
 40
9.0
 40
10.0
 40
10.0
 40
10.0
 40
11.0
 40
11.0
 40
11.0
 40
12.0
 40
12.0
 40
12.0
 40
13.0
 40
13.0
 40
13.0
 40
14.0
 40
14.0
 40
14.0
 40
15.0
 40
15.0
 40
15.0
 40
16.0
 40
16.0
 40
16.0
 40
17.0
 40
17.0
 40
17.0
 40
18.0
 40
18.0
 40
18.0
 40
19.0
 40
19.0
 40
19.0
 40
20.0
 40
20.0
 40
20.0
 40
21.0
 40
21.0
 40
21.0
 40
22.0
 40
22.0
 40
22.0
 40
23.0
 40
23.0
 40
23.0
 40
24.0
 40
24.0
 40
24.0
 40
25.0
 40
25.0
 40
25.0
 40
26.0
 40
26.0
 40
26.0
 40
27.0
 40
27.0
 40
27.0
 40
28.0
 40
28.0
 40
28.0
 40
29.0
 40
29.0
 40
29.0
 40
30.0
 40
30.0
 40
30.0
 40
31.0
 40
31.0
 40
31.0
 40
32.0
 40
32.0
 40
32.0
 40
33.0
 40
33.0
 40
33.0
 40
33.0
 10
-176.8969050314453
 20
329.5447641763357
 30
0.0
 10
-173.40874585263
 20
330.5481482364148
 30
0.0
 10
-171.401977732472
 20
334.2645449911278
 30
0.0
 10
-172.4268936393336
 20
337.6622704134551
 30
0.0
 10
-172.4268936393336
 20
337.6622704134551
 30
0.0
 10
-181.5822348913852
 20
372.8625335339957
 30
0.0
 10
-181.5822348913852
 20
372.8625335339957
 30
0.0
 10
-182.6071507982469
 20
376.3119353886022
 30
0.0
 10
-186.2245010577598
 20
378.340235355542
 30
0.0
 10
-189.6437583268698
 20
377.3497704035335
 30
0.0
 10
-189.6437583268698
 20
377.3497704035335
 30
0.0
 10
-223.1903756144902
 20
374.6367577088995
 30
0.0
 10
-223.1903756144902
 20
374.6367577088995
 30
0.0
 10
-224.964599789394
 20
386.0012664408668
 30
0.0
 10
-226.1617704705185
 20
397.6026254874459
 30
0.0
 10
-226.1617704705185
 20
409.5140431276977
 30
0.0
 10
-226.1617704705185
 20
474.4411739165871
 30
0.0
 10
-199.0660944790279
 20
532.887218823851
 30
0.0
 10
-155.6406658874539
 20
574.6116315195831
 30
0.0
 10
-155.6406658874539
 20
574.6116315195831
 30
0.0
 10
-131.1977134196067
 20
549.4236771530495
 30
0.0
 10
-131.1977134196067
 20
549.4236771530495
 30
0.0
 10
-129.070366957465
 20
546.5728606390048
 30
0.0
 10
-124.919026897739
 20
545.8881479113115
 30
0.0
 10
-122.0509849062682
 20
548.0154943734541
 30
0.0
 10
-122.0509849062682
 20
548.0154943734541
 30
0.0
 10
-92.21645800400438
 20
568.854015689858
 30
0.0
 10
-92.21645800400438
 20
568.854015689858
 30
0.0
 10
-89.3398032738205
 20
570.9856685213572
 30
0.0
 10
-88.69384787033686
 20
575.1628467972222
 30
0.0
 10
-90.82980707119167
 20
578.0481142661192
 30
0.0
 10
-90.82980707119167
 20
578.0481142661192
 30
0.0
 10
-106.1604819805534
 20
610.9918398438203
 30
0.0
 10
-106.1604819805534
 20
610.9918398438203
 30
0.0
 10
-73.70768250950004
 20
628.5316822330988
 30
0.0
 10
-36.61261687207206
 20
638.53968461775
 30
0.0
 10
2.868177388891126
 20
638.53968461775
 30
0.0
 10
41.18625192358194
 20
638.53968461775
 30
0.0
 10
77.20472522186992
 20
628.9881573848942
 30
0.0
 10
108.9685055958734
 20
612.3483461911373
 30
0.0
 10
108.9685055958734
 20
612.3483461911373
 30
0.0
 10
92.88852241846962
 20
581.1831511576965
 30
0.0
 10
92.88852241846962
 20
581.1831511576965
 30
0.0
 10
90.70088678533556
 20
578.194530824242
 30
0.0
 10
91.4846460082299
 20
574.0690289806561
 30
0.0
 10
94.43020264811911
 20
572.0278099056449
 30
0.0
 10
94.43020264811911
 20
572.0278099056449
 30
0.0
 10
123.5929359307583
 20
550.3796911502067
 30
0.0
 10
123.5929359307583
 20
550.3796911502067
 30
0.0
 10
126.6418454352051
 20
548.2954083816302
 30
0.0
 10
130.6123179819551
 20
549.0619421270984
 30
0.0
 10
132.7052134892446
 20
552.0031923976302
 30
0.0
 10
132.7052134892446
 20
552.0031923976302
 30
0.0
 10
158.9482283481347
 20
576.747590720437
 30
0.0
 10
158.9482283481347
 20
576.747590720437
 30
0.0
 10
203.7344696563823
 20
534.9671952230701
 30
0.0
 10
231.8808997708738
 20
475.6641828138508
 30
0.0
 10
231.8808997708738
 20
409.5140431276977
 30
0.0
 10
231.8808997708738
 20
394.6484561088436
 30
0.0
 10
230.3392195412252
 20
380.1144595304467
 30
0.0
 10
227.6175941078772
 20
365.9723425634956
 30
0.0
 10
227.6175941078772
 20
365.9723425634956
 30
0.0
 10
193.1063500843865
 20
372.4146711209132
 30
0.0
 10
193.1063500843865
 20
372.4146711209132
 30
0.0
 10
189.6698673378496
 20
373.5989226939673
 30
0.0
 10
185.9405514750678
 20
371.7816348254982
 30
0.0
 10
184.7950572262216
 20
368.2934756466829
 30
0.0
 10
184.7950572262216
 20
368.2934756466829
 30
0.0
 10
172.4357771728882
 20
334.1784176039964
 30
0.0
 10
172.4357771728882
 20
334.1784176039964
 30
0.0
 10
171.2127682756245
 20
330.7763858123117
 30
0.0
 10
173.124796269938
 20
327.0642954269551
 30
0.0
 10
176.561279016475
 20
325.8283674216227
 30
0.0
 10
176.561279016475
 20
325.8283674216227
 30
0.0
 10
207.8169078064038
 20
307.8966454208966
 30
0.0
 10
207.8169078064038
 20
307.8966454208966
 30
0.0
 10
173.7104625024303
 20
239.1153140578835
 30
0.0
 10
106.2038164689602
 20
189.8633677268808
 30
0.0
 10
26.32927764344276
 20
181.6683468413421
 30
0.0
 10
26.32927764344276
 20
181.6683468413421
 30
0.0
 10
22.52244713224081
 20
216.7394188811858
 30
0.0
 10
22.52244713224081
 20
216.7394188811858
 30
0.0
 10
22.60857451937226
 20
220.3696882487674
 30
0.0
 10
19.89556182473916
 20
223.3496958435089
 30
0.0
 10
16.18347143938172
 20
223.4530487080665
 30
0.0
 10
16.18347143938172
 20
223.4530487080665
 30
0.0
 10
-20.17951140743025
 20
225.356463963667
 30
0.0
 10
-20.17951140743025
 20
225.356463963667
 30
0.0
 10
-23.79686166694318
 20
225.4382849814419
 30
0.0
 10
-26.76825652297066
 20
222.6779022238852
 30
0.0
 10
-26.86299664881516
 20
218.9615054691721
 30
0.0
 10
-26.86299664881516
 20
218.9615054691721
 30
0.0
 10
-34.967583777865
 20
183.9421098616076
 30
0.0
 10
-34.967583777865
 20
183.9421098616076
 30
0.0
 10
-111.8104385763626
 20
196.7148013731712
 30
0.0
 10
-175.6049942244762
 20
247.5859425822418
 30
0.0
 10
-206.3007949980528
 20
316.5093841340212
 30
0.0
 10
-206.3007949980528
 20
316.5093841340212
 30
0.0
 10
-176.8969050314453
 20
329.5447641763357
 30
0.0
 10
-176.8969050314453
 20
329.5447641763357
 30
0.0
  0
SPLINE
  5
9A5
330
1F
100
AcDbEntity
  8
ceco.net 241
370
    18
100
AcDbSpline
210
0.0
220
0.0
230
1.0
 70
    11
 71
     3
 72
    35
 73
    31
 74
     0
 42
0.0000000001
 43
0.0000000001
 40
0.0
 40
0.0
 40
0.0
 40
0.0
 40
1.0
 40
1.0
 40
1.0
 40
2.0
 40
2.0
 40
2.0
 40
3.0
 40
3.0
 40
3.0
 40
4.0
 40
4.0
 40
4.0
 40
5.0
 40
5.0
 40
5.0
 40
6.0
 40
6.0
 40
6.0
 40
7.0
 40
7.0
 40
7.0
 40
8.0
 40
8.0
 40
8.0
 40
9.0
 40
9.0
 40
9.0
 40
10.0
 40
10.0
 40
10.0
 40
10.0
 10
-3599.771524401421
 20
421.3350270114606
 30
0.0
 10
-3599.771524401421
 20
421.3350270114606
 30
0.0
 10
-3599.228921862494
 20
415.9477589464013
 30
0.0
 10
-3594.810586902662
 20
414.991744949244
 30
0.0
 10
-3590.461153852533
 20
414.1821475102106
 30
0.0
 10
-3552.483282497011
 20
410.9222259072931
 30
0.0
 10
-3547.298413791709
 20
409.9748246488498
 30
0.0
 10
-3547.298413791709
 20
409.9748246488498
 30
0.0
 10
-3535.74873117741
 20
408.6570756257406
 30
0.0
 10
-3535.658297420921
 20
416.8607092499923
 30
0.0
 10
-3535.567863664433
 20
425.1031001984529
 30
0.0
 10
-3537.609082739445
 20
448.4393157416634
 30
0.0
 10
-3544.649996637424
 20
470.1434172987374
 30
0.0
 10
-3553.06033599079
 20
495.964407960685
 30
0.0
 10
-3566.28950265415
 20
517.2077279966069
 30
0.0
 10
-3571.203070089987
 20
525.8592240339403
 30
0.0
 10
-3575.686000590168
 20
533.6580589386748
 30
0.0
 10
-3579.781357848259
 20
530.5273284164541
 30
0.0
 10
-3582.976683910828
 20
527.6722055330528
 30
0.0
 10
-3586.172009973398
 20
524.8213890190091
 30
0.0
 10
-3614.012687863572
 20
497.6395856403878
 30
0.0
 10
-3617.070210106732
 20
494.3839704068268
 30
0.0
 10
-3620.239697953162
 20
491.2058698216842
 30
0.0
 10
-3623.663261591629
 20
487.8469017235657
 30
0.0
 10
-3619.163105614021
 20
480.6940222223156
 30
0.0
 10
-3614.761996131614
 20
473.4420962258646
 30
0.0
 10
-3610.296291108859
 20
465.1049651515604
 30
0.0
 10
-3606.579894354146
 20
454.4122500392159
 30
0.0
 10
-3602.893642184929
 20
443.5472801526093
 30
0.0
 10
-3599.771524401421
 20
421.3350270114606
 30
0.0
 10
-3599.771524401421
 20
421.3350270114606
 30
0.0
  0
SPLINE
  5
9A6
330
1F
100
AcDbEntity
  8
ceco.net 241
370
    18
100
AcDbSpline
210
0.0
220
0.0
230
1.0
 70
    11
 71
     3
 72
    35
 73
    31
 74
     0
 42
0.0000000001
 43
0.0000000001
 40
0.0
 40
0.0
 40
0.0
 40
0.0
 40
1.0
 40
1.0
 40
1.0
 40
2.0
 40
2.0
 40
2.0
 40
3.0
 40
3.0
 40
3.0
 40
4.0
 40
4.0
 40
4.0
 40
5.0
 40
5.0
 40
5.0
 40
6.0
 40
6.0
 40
6.0
 40
7.0
 40
7.0
 40
7.0
 40
8.0
 40
8.0
 40
8.0
 40
9.0
 40
9.0
 40
9.0
 40
10.0
 40
10.0
 40
10.0
 40
10.0
 10
-3691.13115030089
 20
276.9984452875624
 30
0.0
 10
-3691.13115030089
 20
276.9984452875624
 30
0.0
 10
-3696.225585249703
 20
275.0002899061173
 30
0.0
 10
-3695.855237485039
 20
270.4699893430142
 30
0.0
 10
-3695.480583351018
 20
266.0301225363982
 30
0.0
 10
-3688.301865633629
 20
228.6163855665845
 30
0.0
 10
-3687.897066914112
 20
223.3496958435089
 30
0.0
 10
-3687.897066914112
 20
223.3496958435089
 30
0.0
 10
-3685.937668856876
 20
211.8473832921308
 30
0.0
 10
-3677.992417394019
 20
214.0651635107606
 30
0.0
 10
-3670.060085039231
 20
216.1968163422598
 30
0.0
 10
-3648.157890491755
 20
224.4908837229977
 30
0.0
 10
-3629.24862264709
 20
237.1257714151515
 30
0.0
 10
-3606.657409002564
 20
252.2583533341121
 30
0.0
 10
-3589.750602908701
 20
270.7843543060425
 30
0.0
 10
-3582.851799199488
 20
277.8080427265958
 30
0.0
 10
-3576.486985290488
 20
284.2891286082222
 30
0.0
 10
-3580.578036179223
 20
287.4112463917299
 30
0.0
 10
-3584.229837393588
 20
289.6290266103596
 30
0.0
 10
-3587.8471876531
 20
291.9932233871122
 30
0.0
 10
-3621.587591561766
 20
311.3804982303554
 30
0.0
 10
-3625.532225892377
 20
313.5552147554199
 30
0.0
 10
-3629.463941114919
 20
315.6481102627094
 30
0.0
 10
-3633.580830219791
 20
318.0424516249577
 30
0.0
 10
-3639.256625031741
 20
311.7896033192291
 30
0.0
 10
-3645.014240861464
 20
305.5884314457789
 30
0.0
 10
-3651.822610814189
 20
298.9695417447428
 30
0.0
 10
-3661.244946966348
 20
292.4884558631165
 30
0.0
 10
-3670.667283118506
 20
285.9686126572814
 30
0.0
 10
-3691.13115030089
 20
276.9984452875624
 30
0.0
 10
-3691.13115030089
 20
276.9984452875624
 30
0.0
  0
SPLINE
  5
9A7
330
1F
100
AcDbEntity
  8
ceco.net 241
370
    18
100
AcDbSpline
210
0.0
220
0.0
230
1.0
 70
    11
 71
     3
 72
    35
 73
    31
 74
     0
 42
0.0000000001
 43
0.0000000001
 40
0.0
 40
0.0
 40
0.0
 40
0.0
 40
1.0
 40
1.0
 40
1.0
 40
2.0
 40
2.0
 40
2.0
 40
3.0
 40
3.0
 40
3.0
 40
4.0
 40
4.0
 40
4.0
 40
5.0
 40
5.0
 40
5.0
 40
6.0
 40
6.0
 40
6.0
 40
7.0
 40
7.0
 40
7.0
 40
8.0
 40
8.0
 40
8.0
 40
9.0
 40
9.0
 40
9.0
 40
10.0
 40
10.0
 40
10.0
 40
10.0
 10
-3851.508957877983
 20
321.2636159036664
 30
0.0
 10
-3851.508957877983
 20
321.2636159036664
 30
0.0
 10
-3854.932521516451
 20
325.3891177472524
 30
0.0
 10
-3859.118312531029
 20
323.7526973917592
 30
0.0
 10
-3863.239508005259
 20
321.9870859555685
 30
0.0
 10
-3896.60956414926
 20
303.5816633256208
 30
0.0
 10
-3901.419778720541
 20
301.553363358681
 30
0.0
 10
-3901.419778720541
 20
301.553363358681
 30
0.0
 10
-3911.76798428436
 20
296.1660952936208
 30
0.0
 10
-3907.289360153535
 20
289.2802106924773
 30
0.0
 10
-3902.737527743648
 20
282.4287770461869
 30
0.0
 10
-3888.164773841042
 20
264.1267072807968
 30
0.0
 10
-3870.202907254821
 20
250.0362667461258
 30
0.0
 10
-3848.860540723698
 20
233.2801835797417
 30
0.0
 10
-3826.028170395204
 20
222.9061397997829
 30
0.0
 10
-3817.213032322321
 20
218.5954640738646
 30
0.0
 10
-3809.056768760992
 20
214.5216386625561
 30
0.0
 10
-3807.385897450646
 20
219.2758704322013
 30
0.0
 10
-3806.283466895366
 20
223.4530487080665
 30
0.0
 10
-3805.254244619148
 20
227.6130015065055
 30
0.0
 10
-3797.278848570794
 20
265.7631276362917
 30
0.0
 10
-3796.490782978544
 20
270.1125606864188
 30
0.0
 10
-3795.655347323371
 20
274.5911848172445
 30
0.0
 10
-3794.639044155222
 20
279.2162255061921
 30
0.0
 10
-3802.338832564755
 20
282.7431420092161
 30
0.0
 10
-3810.081684667854
 20
286.2829776203107
 30
0.0
 10
-3818.444653958298
 20
290.6324106704387
 30
0.0
 10
-3827.470804129653
 20
297.6087290280693
 30
0.0
 10
-3836.565856210712
 20
304.4472435662901
 30
0.0
 10
-3851.508957877983
 20
321.2636159036664
 30
0.0
 10
-3851.508957877983
 20
321.2636159036664
 30
0.0
  0
SPLINE
  5
9A8
330
1F
100
AcDbEntity
  8
ceco.net 241
370
    18
100
AcDbSpline
210
0.0
220
0.0
230
1.0
 70
    11
 71
     3
 72
    35
 73
    31
 74
     0
 42
0.0000000001
 43
0.0000000001
 40
0.0
 40
0.0
 40
0.0
 40
0.0
 40
1.0
 40
1.0
 40
1.0
 40
2.0
 40
2.0
 40
2.0
 40
3.0
 40
3.0
 40
3.0
 40
4.0
 40
4.0
 40
4.0
 40
5.0
 40
5.0
 40
5.0
 40
6.0
 40
6.0
 40
6.0
 40
7.0
 40
7.0
 40
7.0
 40
8.0
 40
8.0
 40
8.0
 40
9.0
 40
9.0
 40
9.0
 40
10.0
 40
10.0
 40
10.0
 40
10.0
 10
-3861.439445614216
 20
483.7257062493354
 30
0.0
 10
-3861.439445614216
 20
483.7257062493354
 30
0.0
 10
-3858.65322464052
 20
488.3981170012048
 30
0.0
 10
-3861.659070451401
 20
491.6537322347667
 30
0.0
 10
-3864.626158938072
 20
495.0127003328852
 30
0.0
 10
-3893.31519159149
 20
520.1145273122866
 30
0.0
 10
-3896.889478157437
 20
524.0462425348278
 30
0.0
 10
-3896.889478157437
 20
524.0462425348278
 30
0.0
 10
-3905.476378654422
 20
531.9355111960494
 30
0.0
 10
-3910.389946090259
 20
525.2735578014481
 30
0.0
 10
-3915.346577219663
 20
518.7451018568999
 30
0.0
 10
-3927.611117147153
 20
498.858288168295
 30
0.0
 10
-3934.789834864541
 20
477.1197356563679
 30
0.0
 10
-3943.286301605039
 20
451.3331959492743
 30
0.0
 10
-3945.280150617128
 20
426.3174963570027
 30
0.0
 10
-3946.42995123533
 20
416.5420379176066
 30
0.0
 10
-3947.446254403478
 20
407.5288068543214
 30
0.0
 10
-3942.399189517588
 20
407.5632578091744
 30
0.0
 10
-3938.071288314242
 20
408.0714093932483
 30
0.0
 10
-3933.812289020602
 20
408.4762081127655
 30
0.0
 10
-3895.253057801943
 20
413.8634761778248
 30
0.0
 10
-3890.869173796963
 20
414.5524952748756
 30
0.0
 10
-3886.442226098417
 20
415.271658957421
 30
0.0
 10
-3881.66646248199
 20
415.9046952528361
 30
0.0
 10
-3881.011894339792
 20
424.3322600836282
 30
0.0
 10
-3880.322875242742
 20
432.8071949773421
 30
0.0
 10
-3878.914692463146
 20
442.1864674359357
 30
0.0
 10
-3875.508354302105
 20
453.0600500612554
 30
0.0
 10
-3872.10632251042
 20
463.9250199478619
 30
0.0
 10
-3861.439445614216
 20
483.7257062493354
 30
0.0
 10
-3861.439445614216
 20
483.7257062493354
 30
0.0
  0
SPLINE
  5
9A9
330
1F
100
AcDbEntity
  8
ceco.net 241
370
    18
100
AcDbSpline
210
0.0
220
0.0
230
1.0
 70
    11
 71
     3
 72
    35
 73
    31
 74
     0
 42
0.0000000001
 43
0.0000000001
 40
0.0
 40
0.0
 40
0.0
 40
0.0
 40
1.0
 40
1.0
 40
1.0
 40
2.0
 40
2.0
 40
2.0
 40
3.0
 40
3.0
 40
3.0
 40
4.0
 40
4.0
 40
4.0
 40
5.0
 40
5.0
 40
5.0
 40
6.0
 40
6.0
 40
6.0
 40
7.0
 40
7.0
 40
7.0
 40
8.0
 40
8.0
 40
8.0
 40
9.0
 40
9.0
 40
9.0
 40
10.0
 40
10.0
 40
10.0
 40
10.0
 10
-3710.522731513491
 20
547.8432395991912
 30
0.0
 10
-3710.522731513491
 20
547.8432395991912
 30
0.0
 10
-3705.169914403283
 20
546.7494217826242
 30
0.0
 10
-3703.042567941142
 20
550.6423796809567
 30
0.0
 10
-3700.923834217713
 20
554.5396439486458
 30
0.0
 10
-3686.626687953926
 20
589.9250809515178
 30
0.0
 10
-3684.124687357764
 20
594.5544280098228
 30
0.0
 10
-3684.124687357764
 20
594.5544280098228
 30
0.0
 10
-3679.482421191389
 20
605.24283675281
 30
0.0
 10
-3687.358770744541
 20
607.7319182409028
 30
0.0
 10
-3695.200669342841
 20
610.2339188370661
 30
0.0
 10
-3718.041652410049
 20
615.2508391374612
 30
0.0
 10
-3740.852490891758
 20
614.8847977421537
 30
0.0
 10
-3767.952473252605
 20
614.4369353290703
 30
0.0
 10
-3792.227477315547
 20
608.1022660055678
 30
0.0
 10
-3801.817761872611
 20
605.9663068047121
 30
0.0
 10
-3810.731946440695
 20
603.9767641619801
 30
0.0
 10
-3808.966335004504
 20
599.1665495907009
 30
0.0
 10
-3807.20502993767
 20
595.2262216294466
 30
0.0
 10
-3805.430805762767
 20
591.3332637311141
 30
0.0
 10
-3787.585211149173
 20
556.7186668430658
 30
0.0
 10
-3785.427720101535
 20
552.8257089447333
 30
0.0
 10
-3783.261616315184
 20
548.8293981818442
 30
0.0
 10
-3781.177333546608
 20
544.5790116269172
 30
0.0
 10
-3772.973699922356
 20
546.7494217826242
 30
0.0
 10
-3764.757147190036
 20
548.8293981818442
 30
0.0
 10
-3755.459695749218
 20
550.6423796809567
 30
0.0
 10
-3744.065042431754
 20
551.047178400474
 30
0.0
 10
-3732.653163636864
 20
551.417526165138
 30
0.0
 10
-3710.522731513491
 20
547.8432395991912
 30
0.0
 10
-3710.522731513491
 20
547.8432395991912
 30
0.0
  0
SPLINE
  5
9AA
330
1F
100
AcDbEntity
  8
ceco.net 241
370
    18
100
AcDbSpline
210
0.0
220
0.0
230
1.0
 70
    11
 71
     3
 72
   104
 73
   100
 74
     0
 42
0.0000000001
 43
0.0000000001
 40
0.0
 40
0.0
 40
0.0
 40
0.0
 40
1.0
 40
1.0
 40
1.0
 40
2.0
 40
2.0
 40
2.0
 40
3.0
 40
3.0
 40
3.0
 40
4.0
 40
4.0
 40
4.0
 40
5.0
 40
5.0
 40
5.0
 40
6.0
 40
6.0
 40
6.0
 40
7.0
 40
7.0
 40
7.0
 40
8.0
 40
8.0
 40
8.0
 40
9.0
 40
9.0
 40
9.0
 40
10.0
 40
10.0
 40
10.0
 40
11.0
 40
11.0
 40
11.0
 40
12.0
 40
12.0
 40
12.0
 40
13.0
 40
13.0
 40
13.0
 40
14.0
 40
14.0
 40
14.0
 40
15.0
 40
15.0
 40
15.0
 40
16.0
 40
16.0
 40
16.0
 40
17.0
 40
17.0
 40
17.0
 40
18.0
 40
18.0
 40
18.0
 40
19.0
 40
19.0
 40
19.0
 40
20.0
 40
20.0
 40
20.0
 40
21.0
 40
21.0
 40
21.0
 40
22.0
 40
22.0
 40
22.0
 40
23.0
 40
23.0
 40
23.0
 40
24.0
 40
24.0
 40
24.0
 40
25.0
 40
25.0
 40
25.0
 40
26.0
 40
26.0
 40
26.0
 40
27.0
 40
27.0
 40
27.0
 40
28.0
 40
28.0
 40
28.0
 40
29.0
 40
29.0
 40
29.0
 40
30.0
 40
30.0
 40
30.0
 40
31.0
 40
31.0
 40
31.0
 40
32.0
 40
32.0
 40
32.0
 40
33.0
 40
33.0
 40
33.0
 40
33.0
 10
-3920.578815987886
 20
329.5447641763357
 30
0.0
 10
-3917.120801394566
 20
330.5481482364148
 30
0.0
 10
-3915.131258751835
 20
334.2645449911278
 30
0.0
 10
-3916.091579118348
 20
337.6622704134551
 30
0.0
 10
-3916.091579118348
 20
337.6622704134551
 30
0.0
 10
-3925.277064955895
 20
372.8625335339957
 30
0.0
 10
-3925.277064955895
 20
372.8625335339957
 30
0.0
 10
-3926.293368124044
 20
376.3119353886022
 30
0.0
 10
-3929.91933112227
 20
378.340235355542
 30
0.0
 10
-3933.403183931729
 20
377.3497704035335
 30
0.0
 10
-3933.403183931729
 20
377.3497704035335
 30
0.0
 10
-3966.928269372566
 20
374.6367577088995
 30
0.0
 10
-3966.928269372566
 20
374.6367577088995
 30
0.0
 10
-3968.655123484547
 20
386.0012664408668
 30
0.0
 10
-3969.804924102749
 20
397.6026254874459
 30
0.0
 10
-3969.804924102749
 20
409.5140431276977
 30
0.0
 10
-3969.804924102749
 20
474.4411739165871
 30
0.0
 10
-3942.713554480616
 20
532.887218823851
 30
0.0
 10
-3899.335495951964
 20
574.6116315195831
 30
0.0
 10
-3899.335495951964
 20
574.6116315195831
 30
0.0
 10
-3874.935607177682
 20
549.4236771530495
 30
0.0
 10
-3874.935607177682
 20
549.4236771530495
 30
0.0
 10
-3872.765197021975
 20
546.5728606390048
 30
0.0
 10
-3868.682758871953
 20
545.8881479113115
 30
0.0
 10
-3865.763040448205
 20
548.0154943734541
 30
0.0
 10
-3865.763040448205
 20
548.0154943734541
 30
0.0
 10
-3835.971577239507
 20
568.854015689858
 30
0.0
 10
-3835.971577239507
 20
568.854015689858
 30
0.0
 10
-3833.056165185114
 20
570.9856685213572
 30
0.0
 10
-3832.436047997769
 20
575.1628467972222
 30
0.0
 10
-3834.524637135702
 20
578.0481142661192
 30
0.0
 10
-3834.524637135702
 20
578.0481142661192
 30
0.0
 10
-3849.88545663056
 20
610.9918398438203
 30
0.0
 10
-3849.88545663056
 20
610.9918398438203
 30
0.0
 10
-3817.41543168208
 20
628.5316822330988
 30
0.0
 10
-3780.328978783365
 20
638.53968461775
 30
0.0
 10
-3740.852490891758
 20
638.53968461775
 30
0.0
 10
-3702.547335465137
 20
638.53968461775
 30
0.0
 10
-3666.520249428137
 20
628.9881573848942
 30
0.0
 10
-3634.816758225126
 20
612.3483461911373
 30
0.0
 10
-3634.816758225126
 20
612.3483461911373
 30
0.0
 10
-3650.84506497025
 20
581.1831511576965
 30
0.0
 10
-3650.84506497025
 20
581.1831511576965
 30
0.0
 10
-3652.976717801748
 20
578.194530824242
 30
0.0
 10
-3652.253247749846
 20
574.0690289806561
 30
0.0
 10
-3649.286159263175
 20
572.0278099056449
 30
0.0
 10
-3649.286159263175
 20
572.0278099056449
 30
0.0
 10
-3620.037298593404
 20
550.3796911502067
 30
0.0
 10
-3620.037298593404
 20
550.3796911502067
 30
0.0
 10
-3617.070210106732
 20
548.2954083816302
 30
0.0
 10
-3613.00069106478
 20
549.0619421270984
 30
0.0
 10
-3610.916408296204
 20
552.0031923976302
 30
0.0
 10
-3610.916408296204
 20
552.0031923976302
 30
0.0
 10
-3584.793971779298
 20
576.747590720437
 30
0.0
 10
-3584.793971779298
 20
576.747590720437
 30
0.0
 10
-3539.977585885554
 20
534.9671952230701
 30
0.0
 10
-3511.813930293636
 20
475.6641828138508
 30
0.0
 10
-3511.813930293636
 20
409.5140431276977
 30
0.0
 10
-3511.813930293636
 20
394.6484561088436
 30
0.0
 10
-3513.398674216851
 20
380.1144595304467
 30
0.0
 10
-3516.085848695346
 20
365.9723425634956
 30
0.0
 10
-3516.085848695346
 20
365.9723425634956
 30
0.0
 10
-3550.610011826906
 20
372.4146711209132
 30
0.0
 10
-3550.610011826906
 20
372.4146711209132
 30
0.0
 10
-3554.072332789582
 20
373.5989226939673
 30
0.0
 10
-3557.788729544295
 20
371.7816348254982
 30
0.0
 10
-3558.908385577002
 20
368.2934756466829
 30
0.0
 10
-3558.908385577002
 20
368.2934756466829
 30
0.0
 10
-3571.246133783553
 20
334.1784176039964
 30
0.0
 10
-3571.246133783553
 20
334.1784176039964
 30
0.0
 10
-3572.45191720339
 20
330.7763858123117
 30
0.0
 10
-3570.582952902642
 20
327.0642954269551
 30
0.0
 10
-3567.176614741601
 20
325.8283674216227
 30
0.0
 10
-3567.176614741601
 20
325.8283674216227
 30
0.0
 10
-3535.84777767261
 20
307.8966454208966
 30
0.0
 10
-3535.84777767261
 20
307.8966454208966
 30
0.0
 10
-3570.005899408863
 20
239.1153140578835
 30
0.0
 10
-3637.491013595551
 20
189.8633677268808
 30
0.0
 10
-3717.382777898494
 20
181.6683468413421
 30
0.0
 10
-3717.382777898494
 20
181.6683468413421
 30
0.0
 10
-3721.189608409695
 20
216.7394188811858
 30
0.0
 10
-3721.189608409695
 20
216.7394188811858
 30
0.0
 10
-3721.051804590285
 20
220.3696882487674
 30
0.0
 10
-3723.928459320468
 20
223.3496958435089
 30
0.0
 10
-3727.554422318695
 20
223.4530487080665
 30
0.0
 10
-3727.554422318695
 20
223.4530487080665
 30
0.0
 10
-3763.818358670306
 20
225.356463963667
 30
0.0
 10
-3763.818358670306
 20
225.356463963667
 30
0.0
 10
-3767.448628037887
 20
225.4382849814419
 30
0.0
 10
-3770.50184391169
 20
222.6779022238852
 30
0.0
 10
-3770.549213974613
 20
218.9615054691721
 30
0.0
 10
-3770.549213974613
 20
218.9615054691721
 30
0.0
 10
-3778.73131575208
 20
183.9421098616076
 30
0.0
 10
-3778.73131575208
 20
183.9421098616076
 30
0.0
 10
-3855.505268640873
 20
196.7148013731712
 30
0.0
 10
-3919.291211550274
 20
247.5859425822418
 30
0.0
 10
-3950.004237801276
 20
316.5093841340212
 30
0.0
 10
-3950.004237801276
 20
316.5093841340212
 30
0.0
 10
-3920.578815987886
 20
329.5447641763357
 30
0.0
 10
-3920.578815987886
 20
329.5447641763357
 30
0.0
  0
SPLINE
  5
9AB
330
1F
100
AcDbEntity
  8
ceco.net 241
370
    18
100
AcDbSpline
210
0.0
220
0.0
230
1.0
 70
     8
 71
     3
 72
    11
 73
     7
 74
     0
 42
0.0000000001
 43
0.0000000001
 40
0.0
 40
0.0
 40
0.0
 40
0.0
 40
1.0
 40
1.0
 40
1.0
 40
2.0
 40
2.0
 40
2.0
 40
2.0
 10
-4317.328931177327
 20
881.1088577341907
 30
0.0
 10
-4326.324936763186
 20
873.7794170893222
 30
0.0
 10
-4332.172986349397
 20
856.7864836083272
 30
0.0
 10
-4365.543042493398
 20
857.5056472908727
 30
0.0
 10
-4400.385876957344
 20
858.2764874056975
 30
0.0
 10
-4826.036036898675
 20
859.3703052222645
 30
0.0
 10
-4826.036036898675
 20
859.3703052222645
 30
0.0
  0
SPLINE
  5
9AC
330
1F
100
AcDbEntity
  8
ceco.net 241
370
    18
100
AcDbSpline
210
0.0
220
0.0
230
1.0
 70
     8
 71
     3
 72
    11
 73
     7
 74
     0
 42
0.0000000001
 43
0.0000000001
 40
0.0
 40
0.0
 40
0.0
 40
0.0
 40
1.0
 40
1.0
 40
1.0
 40
2.0
 40
2.0
 40
2.0
 40
2.0
 10
-3236.77042585936
 20
895.836640933634
 30
0.0
 10
-3236.77042585936
 20
895.836640933634
 30
0.0
 10
-3234.122008705073
 20
887.327255085067
 30
0.0
 10
-3212.878688669151
 20
888.2272862805885
 30
0.0
 10
-3201.983574197049
 20
888.7698888195155
 30
0.0
 10
-2747.868312808841
 20
886.414304781476
 30
0.0
 10
-2223.20610862143
 20
883.6065519609965
 30
0.0
  0
SPLINE
  5
9AD
330
1F
100
AcDbEntity
  8
ceco.net 241
370
    18
100
AcDbSpline
210
0.0
220
0.0
230
1.0
 70
     8
 71
     3
 72
    11
 73
     7
 74
     0
 42
0.0000000001
 43
0.0000000001
 40
0.0
 40
0.0
 40
0.0
 40
0.0
 40
1.0
 40
1.0
 40
1.0
 40
2.0
 40
2.0
 40
2.0
 40
2.0
 10
-2203.814527408831
 20
884.3816984451787
 30
0.0
 10
-1485.137464600218
 20
880.5231915016983
 30
0.0
 10
-627.4034288988532
 20
874.6794482848427
 30
0.0
 10
-627.4034288988532
 20
874.6794482848427
 30
0.0
 10
-610.005696698342
 20
873.7794170893222
 30
0.0
 10
-589.6796333353677
 20
878.5724061831761
 30
0.0
 10
-589.6796333353677
 20
878.5724061831761
 30
0.0
  0
SPLINE
  5
9AE
330
1F
100
AcDbEntity
  8
ceco.net 241
370
    18
100
AcDbSpline
210
0.0
220
0.0
230
1.0
 70
     8
 71
     3
 72
   260
 73
   256
 74
     0
 42
0.0000000001
 43
0.0000000001
 40
66.05082413496552
 40
66.05082413496552
 40
66.05082413496552
 40
66.05082413496552
 40
67.0
 40
67.0
 40
67.0
 40
68.0
 40
68.0
 40
68.0
 40
69.0
 40
69.0
 40
69.0
 40
70.0
 40
70.0
 40
70.0
 40
71.0
 40
71.0
 40
71.0
 40
72.0
 40
72.0
 40
72.0
 40
73.0
 40
73.0
 40
73.0
 40
74.0
 40
74.0
 40
74.0
 40
75.0
 40
75.0
 40
75.0
 40
76.0
 40
76.0
 40
76.0
 40
77.0
 40
77.0
 40
77.0
 40
78.0
 40
78.0
 40
78.0
 40
79.0
 40
79.0
 40
79.0
 40
80.0
 40
80.0
 40
80.0
 40
81.0
 40
81.0
 40
81.0
 40
82.0
 40
82.0
 40
82.0
 40
83.0
 40
83.0
 40
83.0
 40
84.0
 40
84.0
 40
84.0
 40
85.0
 40
85.0
 40
85.0
 40
86.0
 40
86.0
 40
86.0
 40
87.0
 40
87.0
 40
87.0
 40
88.0
 40
88.0
 40
88.0
 40
89.0
 40
89.0
 40
89.0
 40
90.0
 40
90.0
 40
90.0
 40
91.0
 40
91.0
 40
91.0
 40
92.0
 40
92.0
 40
92.0
 40
93.0
 40
93.0
 40
93.0
 40
94.0
 40
94.0
 40
94.0
 40
95.0
 40
95.0
 40
95.0
 40
96.0
 40
96.0
 40
96.0
 40
97.0
 40
97.0
 40
97.0
 40
98.0
 40
98.0
 40
98.0
 40
99.0
 40
99.0
 40
99.0
 40
100.0
 40
100.0
 40
100.0
 40
101.0
 40
101.0
 40
101.0
 40
102.0
 40
102.0
 40
102.0
 40
103.0
 40
103.0
 40
103.0
 40
104.0
 40
104.0
 40
104.0
 40
105.0
 40
105.0
 40
105.0
 40
106.0
 40
106.0
 40
106.0
 40
107.0
 40
107.0
 40
107.0
 40
108.0
 40
108.0
 40
108.0
 40
109.0
 40
109.0
 40
109.0
 40
110.0
 40
110.0
 40
110.0
 40
111.0
 40
111.0
 40
111.0
 40
112.0
 40
112.0
 40
112.0
 40
113.0
 40
113.0
 40
113.0
 40
114.0
 40
114.0
 40
114.0
 40
115.0
 40
115.0
 40
115.0
 40
116.0
 40
116.0
 40
116.0
 40
117.0
 40
117.0
 40
117.0
 40
118.0
 40
118.0
 40
118.0
 40
119.0
 40
119.0
 40
119.0
 40
120.0
 40
120.0
 40
120.0
 40
121.0
 40
121.0
 40
121.0
 40
122.0
 40
122.0
 40
122.0
 40
123.0
 40
123.0
 40
123.0
 40
124.0
 40
124.0
 40
124.0
 40
125.0
 40
125.0
 40
125.0
 40
126.0
 40
126.0
 40
126.0
 40
127.0
 40
127.0
 40
127.0
 40
128.0
 40
128.0
 40
128.0
 40
129.0
 40
129.0
 40
129.0
 40
130.0
 40
130.0
 40
130.0
 40
131.0
 40
131.0
 40
131.0
 40
132.0
 40
132.0
 40
132.0
 40
133.0
 40
133.0
 40
133.0
 40
134.0
 40
134.0
 40
134.0
 40
135.0
 40
135.0
 40
135.0
 40
136.0
 40
136.0
 40
136.0
 40
137.0
 40
137.0
 40
137.0
 40
138.0
 40
138.0
 40
138.0
 40
139.0
 40
139.0
 40
139.0
 40
140.0
 40
140.0
 40
140.0
 40
141.0
 40
141.0
 40
141.0
 40
142.0
 40
142.0
 40
142.0
 40
143.0
 40
143.0
 40
143.0
 40
144.0
 40
144.0
 40
144.0
 40
145.0
 40
145.0
 40
145.0
 40
146.0
 40
146.0
 40
146.0
 40
147.0
 40
147.0
 40
147.0
 40
148.0
 40
148.0
 40
148.0
 40
149.0
 40
149.0
 40
149.0
 40
150.0
 40
150.0
 40
150.0
 40
151.0
 40
151.0
 40
151.0
 40
151.0
 10
-2176.892924231141
 20
1850.504557712726
 30
0.0
 10
-2176.491433462129
 20
1852.42801289797
 30
0.0
 10
-2172.475462824699
 20
1871.491414699104
 30
0.0
 10
-2169.871724140406
 20
1877.029979718283
 30
0.0
 10
-2167.085503166711
 20
1882.878029304494
 30
0.0
 10
-2157.258368295035
 20
1884.4240159035
 30
0.0
 10
-2157.258368295035
 20
1884.4240159035
 30
0.0
 10
-2157.258368295035
 20
1884.4240159035
 30
0.0
 10
-2151.117485592578
 20
1889.677786518507
 30
0.0
 10
-2142.49613414074
 20
1891.805132980648
 30
0.0
 10
-2133.874782688903
 20
1893.979849505712
 30
0.0
 10
-2067.220797788031
 20
1904.452939780872
 30
0.0
 10
-2053.095906298507
 20
1905.038606013365
 30
0.0
 10
-2038.893500160564
 20
1905.619965876501
 30
0.0
 10
-1876.069674788944
 20
1906.30898497355
 30
0.0
 10
-1780.761108189506
 20
1904.452939780872
 30
0.0
 10
-1685.573119932053
 20
1902.588281849481
 30
0.0
 10
-1469.186672503512
 20
1893.979849505712
 30
0.0
 10
-1389.863348955635
 20
1887.826047695185
 30
0.0
 10
-1310.617540056175
 20
1881.698084100797
 30
0.0
 10
-1258.415730715926
 20
1873.731300791157
 30
0.0
 10
-1195.27574321001
 20
1856.876171129572
 30
0.0
 10
-1132.221883091225
 20
1840.111475224474
 30
0.0
 10
-1084.584825268932
 20
1811.840160398644
 30
0.0
 10
-1084.584825268932
 20
1811.840160398644
 30
0.0
 10
-1084.584825268932
 20
1811.840160398644
 30
0.0
 10
-1083.83551700089
 20
1806.49595602715
 30
0.0
 10
-1083.83551700089
 20
1806.49595602715
 30
0.0
 10
-1083.83551700089
 20
1806.49595602715
 30
0.0
 10
-878.9643012317965
 20
1686.477442059758
 30
0.0
 10
-794.0943739526665
 20
1634.017250558116
 30
0.0
 10
-702.7562798999806
 20
1577.375574411253
 30
0.0
 10
-331.6161432740154
 20
1351.200749435244
 30
0.0
 10
-331.6161432740154
 20
1351.200749435244
 30
0.0
 10
-331.6161432740154
 20
1351.200749435244
 30
0.0
 10
-250.4238554253906
 20
1367.198911594873
 30
0.0
 10
-209.6080866638931
 20
1376.263819090437
 30
0.0
 10
-201.4690485799901
 20
1378.081106958906
 30
0.0
 10
-171.8929038391206
 20
1374.403467528402
 30
0.0
 10
-133.3767363140268
 20
1371.143545925484
 30
0.0
 10
-94.86918152764701
 20
1367.844866998357
 30
0.0
 10
-54.49266244051887
 20
1357.419146786121
 30
0.0
 10
-54.49266244051887
 20
1357.419146786121
 30
0.0
 10
-54.49266244051887
 20
1357.419146786121
 30
0.0
 10
203.2952199820146
 20
1332.812552282723
 30
0.0
 10
203.2952199820146
 20
1332.812552282723
 30
0.0
 10
203.2952199820146
 20
1332.812552282723
 30
0.0
 10
422.2138125922147
 20
1306.582456531901
 30
0.0
 10
455.7862680959734
 20
1301.690420942847
 30
0.0
 10
489.4448509868643
 20
1296.755321660227
 30
0.0
 10
505.0252953189073
 20
1294.886357359479
 30
0.0
 10
537.5642221770922
 20
1285.253009108849
 30
0.0
 10
570.1289872514162
 20
1275.636886335645
 30
0.0
 10
667.0567487289209
 20
1241.198850591216
 30
0.0
 10
675.755614829176
 20
1238.348034077173
 30
0.0
 10
684.7214758295385
 20
1235.454153869563
 30
0.0
 10
701.0770666457619
 20
1226.122251473893
 30
0.0
 10
711.3176129756675
 20
1219.692842024544
 30
0.0
 10
721.5926102604253
 20
1213.388317286537
 30
0.0
 10
722.3246930510404
 20
1210.937993122654
 30
0.0
 10
726.441582155915
 20
1205.374163913975
 30
0.0
 10
730.6187604317801
 20
1199.840479290793
 30
0.0
 10
745.1570633795345
 20
1176.69374399927
 30
0.0
 10
749.2395015295551
 20
1168.71404158156
 30
0.0
 10
753.2702632472982
 20
1160.699888208997
 30
0.0
 10
747.8270123806033
 20
1158.482107990368
 30
0.0
 10
743.4517411143351
 20
1156.845687634874
 30
0.0
 10
739.1712099739134
 20
1155.222186387451
 30
0.0
 10
720.6602644301238
 20
1149.961475591266
 30
0.0
 10
720.6602644301238
 20
1149.961475591266
 30
0.0
 10
720.6602644301238
 20
1149.961475591266
 30
0.0
 10
729.128756634409
 20
1126.903501498696
 30
0.0
 10
729.128756634409
 20
1126.903501498696
 30
0.0
 10
729.128756634409
 20
1126.903501498696
 30
0.0
 10
753.2702632472982
 20
1123.006237231008
 30
0.0
 10
759.8503956241247
 20
1121.369816875514
 30
0.0
 10
766.4477534783773
 20
1119.780766582943
 30
0.0
 10
772.1666119838937
 20
1115.659571108712
 30
0.0
 10
774.8365609849615
 20
1110.53929794376
 30
0.0
 10
777.5065099860303
 20
1105.423331148164
 30
0.0
 10
786.5326601573842
 20
1078.560199101928
 30
0.0
 10
787.9279238289109
 20
1073.263364793357
 30
0.0
 10
789.383476671428
 20
1067.91054768315
 30
0.0
 10
785.3010385214084
 20
1065.236292312724
 30
0.0
 10
785.3010385214084
 20
1065.236292312724
 30
0.0
 10
785.3010385214084
 20
1065.236292312724
 30
0.0
 10
778.1438526508018
 20
1062.204608285705
 30
0.0
 10
778.1438526508018
 20
1062.204608285705
 30
0.0
 10
778.1438526508018
 20
1062.204608285705
 30
0.0
 10
786.0675722668766
 20
1058.893010250509
 30
0.0
 10
790.1930741104624
 20
1056.44699245598
 30
0.0
 10
794.2668995217709
 20
1053.992361922741
 30
0.0
 10
799.6154102626214
 20
1037.593707412951
 30
0.0
 10
799.6154102626214
 20
1037.593707412951
 30
0.0
 10
799.6154102626214
 20
1037.593707412951
 30
0.0
 10
807.3668751044325
 20
1032.025571834917
 30
0.0
 10
816.3844125370751
 20
998.2765551875372
 30
0.0
 10
821.6812468456454
 20
978.609366336118
 30
0.0
 10
816.1863195466731
 20
965.0615283403721
 30
0.0
 10
816.1863195466731
 20
965.0615283403721
 30
0.0
 10
816.1863195466731
 20
965.0615283403721
 30
0.0
 10
816.8322749501577
 20
951.3844992639306
 30
0.0
 10
816.6514074371807
 20
948.305445173989
 30
0.0
 10
816.3844125370751
 20
944.1325732674796
 30
0.0
 10
810.8550342832495
 20
941.1008892404607
 30
0.0
 10
807.1429438978912
 20
939.8735739738404
 30
0.0
 10
803.4566917286747
 20
938.6505650765766
 30
0.0
 10
805.15340125516
 20
937.8280485294736
 30
0.0
 10
800.8900955921635
 20
937.8280485294736
 30
0.0
 10
796.4889861097563
 20
937.8280485294736
 30
0.0
 10
779.9525277805578
 20
938.0605924747269
 30
0.0
 10
779.9525277805578
 20
938.0605924747269
 30
0.0
 10
779.9525277805578
 20
938.0605924747269
 30
0.0
 10
780.1333952935329
 20
935.5715109866341
 30
0.0
 10
780.1333952935329
 20
935.5715109866341
 30
0.0
 10
780.1333952935329
 20
935.5715109866341
 30
0.0
 10
784.2502843984066
 20
935.1667122671178
 30
0.0
 10
791.1835390624719
 20
933.9350906311402
 30
0.0
 10
798.1167937265372
 20
932.7206944725903
 30
0.0
 10
808.6673986501146
 20
929.404790068037
 30
0.0
 10
813.8005909231369
 20
927.3678773623833
 30
0.0
 10
818.8304303316026
 20
925.3352710260861
 30
0.0
 10
820.5443653355141
 20
920.1590150594975
 30
0.0
 10
821.9999181780313
 20
915.2755922091555
 30
0.0
 10
823.3607308947048
 20
910.3275738184656
 30
0.0
 10
826.2546111023148
 20
884.1491544999234
 30
0.0
 10
826.4440913540047
 20
878.7963373897174
 30
0.0
 10
826.6163461282667
 20
873.499503081145
 30
0.0
 10
822.7320009686472
 20
870.4678190541253
 30
0.0
 10
815.9623883401318
 20
868.598854753378
 30
0.0
 10
809.2702903600329
 20
866.7514222994123
 30
0.0
 10
796.807657442142
 20
865.5327197715051
 30
0.0
 10
792.9060868050973
 20
865.3044821956072
 30
0.0
 10
789.0131289067649
 20
865.0805509890661
 30
0.0
 10
789.7452116973799
 20
861.6311491344594
 30
0.0
 10
789.7452116973799
 20
861.6311491344594
 30
0.0
 10
789.7452116973799
 20
861.6311491344594
 30
0.0
 10
789.9691429039212
 20
842.553932884889
 30
0.0
 10
789.9691429039212
 20
842.553932884889
 30
0.0
 10
789.9691429039212
 20
842.553932884889
 30
0.0
 10
795.5329721125999
 20
841.3352303569817
 30
0.0
 10
804.3265783387004
 20
839.0614673367172
 30
0.0
 10
813.1115718260881
 20
836.8436871180865
 30
0.0
 10
825.6172684375433
 20
831.947345159676
 30
0.0
 10
828.4336339967358
 20
830.4616477316612
 30
0.0
 10
831.3705778979119
 20
829.053464952066
 30
0.0
 10
832.3265918950683
 20
827.1500496964645
 30
0.0
 10
832.2404645079368
 20
822.4862516833081
 30
0.0
 10
832.0509842562477
 20
817.9602574895616
 30
0.0
 10
832.645263227454
 20
806.716327099577
 30
0.0
 10
832.645263227454
 20
806.716327099577
 30
0.0
 10
832.645263227454
 20
806.716327099577
 30
0.0
 10
842.3345942797187
 20
805.4890118329566
 30
0.0
 10
848.7683100984231
 20
803.7277067661234
 30
0.0
 10
855.262315088119
 20
802.0051590234979
 30
0.0
 10
857.8892003956216
 20
799.8304424984344
 30
0.0
 10
860.86059525165
 20
795.3905756918183
 30
0.0
 10
863.8233773689654
 20
790.9937725787677
 30
0.0
 10
878.8095427298021
 20
770.0691238752324
 30
0.0
 10
881.488104469583
 20
766.4044035527977
 30
0.0
 10
884.2527935964954
 20
762.6837004287271
 30
0.0
 10
884.9848763871113
 20
760.9611526861026
 30
0.0
 10
885.2088075936526
 20
756.5557368343388
 30
0.0
 10
885.4671897550471
 20
752.1158700277237
 30
0.0
 10
885.9581158616956
 20
734.9549881418225
 30
0.0
 10
885.9581158616956
 20
731.0189665499255
 30
0.0
 10
885.9581158616956
 20
727.0312685257485
 30
0.0
 10
883.7963184447007
 20
724.3570131553233
 30
0.0
 10
877.8535287326459
 20
722.6258526739847
 30
0.0
 10
871.876288065736
 20
720.8645476071515
 30
0.0
 10
855.0207979286987
 20
716.9864564399567
 30
0.0
 10
855.0207979286987
 20
716.9864564399567
 30
0.0
 10
855.0207979286987
 20
716.9864564399567
 30
0.0
 10
876.5443924482505
 20
713.5738642864916
 30
0.0
 10
887.1983502363855
 20
710.1244624318842
 30
0.0
 10
897.7489551599619
 20
706.6363032530698
 30
0.0
 10
902.4170595424758
 20
699.7461122825698
 30
0.0
 10
902.6409907490169
 20
691.6458315228756
 30
0.0
 10
902.8735346942712
 20
683.5283252857561
 30
0.0
 10
902.4170595424758
 20
668.7660911314606
 30
0.0
 10
901.8313933099834
 20
663.0946026888677
 30
0.0
 10
901.5557856711648
 20
657.440339723701
 30
0.0
 10
898.9805767959387
 20
655.4809416664665
 30
0.0
 10
898.9805767959387
 20
655.4809416664665
 30
0.0
 10
898.9805767959387
 20
655.4809416664665
 30
0.0
 10
885.2088075936526
 20
641.7091724641795
 30
0.0
 10
885.2088075936526
 20
641.7091724641795
 30
0.0
 10
885.2088075936526
 20
641.7091724641795
 30
0.0
 10
892.8138558773417
 20
640.9857024122775
 30
0.0
 10
899.7471105414069
 20
640.2665387297311
 30
0.0
 10
906.5856250796278
 20
639.4913922455498
 30
0.0
 10
914.4576682634243
 20
630.1551834805231
 30
0.0
 10
914.233737056883
 20
624.0401389942044
 30
0.0
 10
914.0098058503417
 20
617.8777244449638
 30
0.0
 10
914.0098058503417
 20
610.7765213759931
 30
0.0
 10
911.9771995140444
 20
581.9927485967309
 30
0.0
 10
910.0221078261647
 20
553.2692649884593
 30
0.0
 10
905.8190913341613
 20
530.8416933794833
 30
0.0
 10
903.6314557010264
 20
514.9038203908458
 30
0.0
 10
901.5557856711648
 20
498.9099646005743
 30
0.0
 10
891.6855871059233
 20
496.4596404366902
 30
0.0
 10
891.6855871059233
 20
496.4596404366902
 30
0.0
 10
891.6855871059233
 20
496.4596404366902
 30
0.0
 10
888.3266190078039
 20
479.4279496314857
 30
0.0
 10
887.6892763430323
 20
474.3033700971773
 30
0.0
 10
886.9658062911303
 20
469.1960160402941
 30
0.0
 10
884.4336611094723
 20
467.641416702575
 30
0.0
 10
881.0316293177884
 20
464.5236052884238
 30
0.0
 10
877.5434701389722
 20
461.3067473790724
 30
0.0
 10
853.9359533262969
 20
450.7475297167811
 30
0.0
 10
848.1395801723657
 20
448.7579870740492
 30
0.0
 10
842.1623395054558
 20
446.8588781878052
 30
0.0
 10
825.4364009245682
 20
445.8038176954478
 30
0.0
 10
825.4364009245682
 20
445.8038176954478
 30
0.0
 10
825.4364009245682
 20
445.8038176954478
 30
0.0
 10
823.9980735594762
 20
441.86779610355
 30
0.0
 10
823.9980735594762
 20
441.86779610355
 30
0.0
 10
823.9980735594762
 20
441.86779610355
 30
0.0
 10
844.3758133547298
 20
442.3630285795543
 30
0.0
 10
853.083292193698
 20
441.6438648970088
 30
0.0
 10
861.6357417358303
 20
440.8687184128266
 30
0.0
 10
866.5794537571645
 20
435.6580114913867
 30
0.0
 10
867.0273161702471
 20
429.6290943921994
 30
0.0
 10
867.5354677543218
 20
423.4322288881067
 30
0.0
 10
859.1552729864506
 20
418.5315805603385
 30
0.0
 10
851.5416119640494
 20
417.8081105084356
 30
0.0
 10
843.8332108158029
 20
416.9985130694021
 30
0.0
 10
794.8956294478285
 20
416.9985130694021
 30
0.0
 10
794.8956294478285
 20
416.9985130694021
 30
0.0
 10
794.8956294478285
 20
416.9985130694021
 30
0.0
 10
744.4852697599108
 20
398.1538407650859
 30
0.0
 10
725.6750484104458
 20
392.8914574113669
 30
0.0
 10
706.8217633674175
 20
387.5472530398728
 30
0.0
 10
677.2800695813994
 20
385.5060339648625
 30
0.0
 10
677.2800695813994
 20
385.5060339648625
 30
0.0
 10
677.2800695813994
 20
385.5060339648625
 30
0.0
 10
669.8558888106863
 20
379.795788198061
 30
0.0
 10
669.5802811718658
 20
373.6333736488195
 30
0.0
 10
669.0979678039302
 20
367.4322017753702
 30
0.0
 10
667.5046111420024
 20
357.639517858548
 30
0.0
 10
666.2385385511734
 20
351.4771033093065
 30
0.0
 10
664.9638532216304
 20
345.3103823907103
 30
0.0
 10
662.9743105788993
 20
335.4832475190351
 30
0.0
 10
639.6424014050444
 20
330.5481482364148
 30
0.0
 10
616.2588157989111
 20
325.6561126473588
 30
0.0
 10
492.485147752598
 20
317.0562930423047
 30
0.0
 10
477.7143008595894
 20
315.8203650369714
 30
0.0
 10
462.9865176601461
 20
314.5542924461415
 30
0.0
 10
463.8564042701719
 20
319.0458356850367
 30
0.0
 10
463.3913163796623
 20
329.7385507973804
 30
0.0
 10
462.9865176601461
 20
340.4657168645771
 30
0.0
 10
463.509785780654
 20
379.5258935449765
 30
0.0
 10
463.509785780654
 20
379.5258935449765
 30
0.0
 10
463.509785780654
 20
379.5258935449765
 30
0.0
 10
407.9820347499162
 20
380.7654884262119
 30
0.0
 10
407.9820347499162
 20
380.7654884262119
 30
0.0
  0
SPLINE
  5
9AF
330
1F
100
AcDbEntity
  8
ceco.net 241
370
    18
100
AcDbSpline
210
0.0
220
0.0
230
1.0
 70
     8
 71
     3
 72
    23
 73
    19
 74
     0
 42
0.0000000001
 43
0.0000000001
 40
1.454512436375124
 40
1.454512436375124
 40
1.454512436375124
 40
1.454512436375124
 40
2.0
 40
2.0
 40
2.0
 40
3.0
 40
3.0
 40
3.0
 40
4.0
 40
4.0
 40
4.0
 40
5.0
 40
5.0
 40
5.0
 40
6.0
 40
6.0
 40
6.0
 40
7.0
 40
7.0
 40
7.0
 40
7.0
 10
-2164.143602187716
 20
680.7157765986722
 30
0.0
 10
-2169.259306933031
 20
755.0719661724087
 30
0.0
 10
-2174.447234138539
 20
844.9916355359828
 30
0.0
 10
-2177.804056495194
 20
924.1553258223875
 30
0.0
 10
-2183.940632828295
 20
1069.180926643336
 30
0.0
 10
-2183.738233468537
 20
1205.227747355852
 30
0.0
 10
-2178.424173682539
 20
1304.769475032789
 30
0.0
 10
-2173.071356572332
 20
1404.358572772649
 30
0.0
 10
-2166.551513366497
 20
1469.91012711824
 30
0.0
 10
-2149.730834659765
 20
1589.15349460145
 30
0.0
 10
-2132.953219646597
 20
1708.405474823373
 30
0.0
 10
-2112.454901509361
 20
1779.271088954962
 30
0.0
 10
-2102.188516963317
 20
1821.856775522007
 30
0.0
 10
-2091.922132417272
 20
1864.489832151974
 30
0.0
 10
-2086.220499389183
 20
1870.247447981698
 30
0.0
 10
-2077.185736479116
 20
1882.968463060982
 30
0.0
 10
-2068.194037262614
 20
1895.616269861206
 30
0.0
 10
-2053.171497905788
 20
1905.035399162751
 30
0.0
 10
-2053.171497905788
 20
1905.035399162751
 30
0.0
  0
CIRCLE
  5
9B0
330
1F
100
AcDbEntity
  8
ceco.net 241
100
AcDbCircle
 10
-3743.713489776804
 20
408.8748666339661
 30
0.0
 40
408.8814963187176
  0
CIRCLE
  5
9B1
330
1F
100
AcDbEntity
  8
ceco.net 241
100
AcDbCircle
 10
-3743.774226988933
 20
409.6040476611278
 30
0.0
 40
378.6552652725859
  0
CIRCLE
  5
9B2
330
1F
100
AcDbEntity
  8
ceco.net 241
100
AcDbCircle
 10
-3743.680105238029
 20
409.5426528974058
 30
0.0
 40
247.3865153738695
  0
CIRCLE
  5
9B3
330
1F
100
AcDbEntity
  8
ceco.net 241
100
AcDbCircle
 10
-3740.876843986625
 20
409.5404608671342
 30
0.0
 40
99.89435509793828
  0
CIRCLE
  5
9B4
330
1F
100
AcDbEntity
  8
ceco.net 241
100
AcDbCircle
 10
-3740.874462509651
 20
409.5293042238727
 30
0.0
 40
53.72592057136
  0
CIRCLE
  5
9B5
330
1F
100
AcDbEntity
  8
ceco.net 241
100
AcDbCircle
 10
-3247.857827103146
 20
1056.887043363935
 30
0.0
 40
86.0681346122919
  0
CIRCLE
  5
9B6
330
1F
100
AcDbEntity
  8
ceco.net 241
100
AcDbCircle
 10
0.0
 20
408.8814963187178
 30
0.0
 40
408.8814963187176
  0
CIRCLE
  5
9B7
330
1F
100
AcDbEntity
  8
ceco.net 241
100
AcDbCircle
 10
-0.0607372121294247
 20
409.6106773458796
 30
0.0
 40
378.6552652725859
  0
CIRCLE
  5
9B8
330
1F
100
AcDbEntity
  8
ceco.net 241
100
AcDbCircle
 10
0.0333845387749534
 20
409.5492825821574
 30
0.0
 40
247.3865153738695
  0
CIRCLE
  5
9B9
330
1F
100
AcDbEntity
  8
ceco.net 241
100
AcDbCircle
 10
2.836645790179318
 20
409.5470905518859
 30
0.0
 40
99.89435509793828
  0
CIRCLE
  5
9BA
330
1F
100
AcDbEntity
  8
ceco.net 241
100
AcDbCircle
 10
2.839027267152232
 20
409.5359339086244
 30
0.0
 40
53.72592057136
  0
ENDSEC
  0
SECTION
  2
OBJECTS
  0
DICTIONARY
  5
C
330
0
100
AcDbDictionary
281
     1
  3
ACAD_GROUP
350
D
  3
ACAD_LAYOUT
350
1A
  3
ACAD_MLINESTYLE
350
17
  3
ACAD_PLOTSETTINGS
350
19
  3
ACAD_PLOTSTYLENAME
350
E
  3
AcDbVariableDictionary
350
115
  3
DWGPROPS
350
8E3
  0
DICTIONARY
  5
8F2
330
8F1
100
AcDbDictionary
280
     1
281
     1
  3
ACAD_XREC_ROUNDTRIP
360
8F3
  0
DICTIONARY
  5
D
102
{ACAD_REACTORS
330
C
102
}
330
C
100
AcDbDictionary
281
     1
  0
DICTIONARY
  5
1A
102
{ACAD_REACTORS
330
C
102
}
330
C
100
AcDbDictionary
281
     1
  3
Layout1
350
1E
  3
Layout2
350
26
  3
Model
350
22
  0
DICTIONARY
  5
17
102
{ACAD_REACTORS
330
C
102
}
330
C
100
AcDbDictionary
281
     1
  3
Standard
350
18
  0
DICTIONARY
  5
19
102
{ACAD_REACTORS
330
C
102
}
330
C
100
AcDbDictionary
281
     1
  0
ACDBDICTIONARYWDFLT
  5
E
102
{ACAD_REACTORS
330
C
102
}
330
C
100
AcDbDictionary
281
     1
  3
Normal
350
F
100
AcDbDictionaryWithDefault
340
F
  0
DICTIONARY
  5
115
102
{ACAD_REACTORS
330
C
102
}
330
C
100
AcDbDictionary
281
     1
  3
DIMASSOC
350
117
  3
HIDETEXT
350
116
  0
XRECORD
  5
8E3
102
{ACAD_REACTORS
330
C
102
}
330
C
100
AcDbXrecord
280
     1
  1
DWGPROPS COOKIE
  2
Ceco.NET-Trees-and-Plants - T - xx . 67 . dwg
  3

  4
ceco.net
  6

  7

  8
peacosta
  9

300
=
301
=
302
=
303
=
304
=
305
=
306
=
307
=
308
=
309
=
 40
0.0450312037037037
 41
2455079.811409143
 42
2455838.656599502
  1

 90
        0
  0
XRECORD
  5
8F3
102
{ACAD_REACTORS
330
8F2
102
}
330
8F2
100
AcDbXrecord
280
     1
102
MATERIAL
340
0
  0
LAYOUT
  5
1E
102
{ACAD_REACTORS
330
1A
102
}
330
1A
100
AcDbPlotSettings
  1

  2
Microsoft Office Document Image Writer
  4

  6

 40
0.0
 41
0.0
 42
0.0
 43
0.0
 44
0.0
 45
0.0
 46
0.0
 47
0.0
 48
0.0
 49
0.0
140
0.0
141
0.0
142
1.0
143
1.0
 70
   688
 72
     0
 73
     0
 74
     5
  7

 75
    16
147
1.0
148
0.0
149
0.0
100
AcDbLayout
  1
Layout1
 70
     1
 71
     1
 10
0.0
 20
0.0
 11
420.0
 21
297.0
 12
0.0
 22
0.0
 32
0.0
 14
1.000000000000000E+20
 24
1.000000000000000E+20
 34
1.000000000000000E+20
 15
-1.000000000000000E+20
 25
-1.000000000000000E+20
 35
-1.000000000000000E+20
146
0.0
 13
0.0
 23
0.0
 33
0.0
 16
1.0
 26
0.0
 36
0.0
 17
0.0
 27
1.0
 37
0.0
 76
     0
330
1B
  0
LAYOUT
  5
26
102
{ACAD_REACTORS
330
1A
102
}
330
1A
100
AcDbPlotSettings
  1

  2
Microsoft Office Document Image Writer
  4

  6

 40
0.0
 41
0.0
 42
0.0
 43
0.0
 44
0.0
 45
0.0
 46
0.0
 47
0.0
 48
0.0
 49
0.0
140
0.0
141
0.0
142
1.0
143
1.0
 70
   688
 72
     0
 73
     0
 74
     5
  7

 75
    16
147
1.0
148
0.0
149
0.0
100
AcDbLayout
  1
Layout2
 70
     1
 71
     2
 10
0.0
 20
0.0
 11
12.0
 21
9.0
 12
0.0
 22
0.0
 32
0.0
 14
0.0
 24
0.0
 34
0.0
 15
0.0
 25
0.0
 35
0.0
146
0.0
 13
0.0
 23
0.0
 33
0.0
 16
1.0
 26
0.0
 36
0.0
 17
0.0
 27
1.0
 37
0.0
 76
     0
330
23
  0
LAYOUT
  5
22
102
{ACAD_REACTORS
330
1A
102
}
330
1A
100
AcDbPlotSettings
  1

  2
Microsoft Office Document Image Writer
  4

  6

 40
0.0
 41
0.0
 42
0.0
 43
0.0
 44
0.0
 45
0.0
 46
0.0
 47
0.0
 48
0.0
 49
0.0
140
0.0
141
0.0
142
1.0
143
1.0
 70
  1712
 72
     0
 73
     0
 74
     0
  7

 75
     0
147
1.0
148
0.0
149
0.0
100
AcDbLayout
  1
Model
 70
     1
 71
     0
 10
0.0
 20
0.0
 11
12.0
 21
9.0
 12
0.0
 22
0.0
 32
0.0
 14
0.0
 24
0.0
 34
0.0
 15
0.0
 25
0.0
 35
0.0
146
0.0
 13
0.0
 23
0.0
 33
0.0
 16
1.0
 26
0.0
 36
0.0
 17
0.0
 27
1.0
 37
0.0
 76
     0
330
1F
  0
MLINESTYLE
  5
18
102
{ACAD_REACTORS
330
17
102
}
330
17
100
AcDbMlineStyle
  2
STANDARD
 70
     0
  3

 62
   256
 51
90.0
 52
90.0
 71
     2
 49
0.5
 62
   256
  6
BYLAYER
 49
-0.5
 62
   256
  6
BYLAYER
  0
ACDBPLACEHOLDER
  5
F
102
{ACAD_REACTORS
330
E
102
}
330
E
  0
DICTIONARYVAR
  5
117
102
{ACAD_REACTORS
330
115
102
}
330
115
100
DictionaryVariables
280
     0
  1
2
  0
DICTIONARYVAR
  5
116
102
{ACAD_REACTORS
330
115
102
}
330
115
100
DictionaryVariables
280
     0
  1
1
  0
ENDSEC
  0
EOF
