solid JSxCAD
facet normal -1 0 0
  outer loop
    vertex -5.9 -7 -2
    vertex -5.9 -7 0
    vertex -5.9 7 0
  endloop
endfacet
facet normal 0 0 -1
  outer loop
    vertex -5.9 -7 -2
    vertex -5.9 7 -2
    vertex 5.9 -2.8000000000000003 -2
  endloop
endfacet
facet normal -1 0 0
  outer loop
    vertex -5.9 -7 -2
    vertex -5.9 7 0
    vertex -5.9 7 -2
  endloop
endfacet
facet normal 0 -1 0
  outer loop
    vertex -5.9 -7 -2
    vertex 5.9 -7 -2
    vertex -5.9 -7 0
  endloop
endfacet
facet normal 0 0 -1
  outer loop
    vertex -5.9 -7 -2
    vertex 5.9 -2.8000000000000003 -2
    vertex 5.9 -7 -2
  endloop
endfacet
facet normal -1 0 0
  outer loop
    vertex -5.9 -7 0
    vertex -5.9 -7 5
    vertex -5.9 7 5
  endloop
endfacet
facet normal 0 0 -1
  outer loop
    vertex -5.9 -7 0
    vertex -5.9 7 0
    vertex -4.9 3.446 0
  endloop
endfacet
facet normal -1 0 0
  outer loop
    vertex -5.9 -7 0
    vertex -5.9 7 5
    vertex -5.9 7 0
  endloop
endfacet
facet normal 0 0 -1
  outer loop
    vertex -5.9 -7 0
    vertex -4.9 -3.456 0
    vertex -4.537 -3.926 0
  endloop
endfacet
facet normal 0 0 -1
  outer loop
    vertex -5.9 -7 0
    vertex -4.9 3.446 0
    vertex -4.9 -3.456 0
  endloop
endfacet
facet normal 0 0 -1
  outer loop
    vertex -5.9 -7 0
    vertex -4.537 -3.926 0
    vertex -4.054 -4.424 0
  endloop
endfacet
facet normal 0 0 -1
  outer loop
    vertex -5.9 -7 0
    vertex -4.054 -4.424 0
    vertex -3.521 -4.8580000000000005 0
  endloop
endfacet
facet normal 0 0 -1
  outer loop
    vertex -5.9 -7 0
    vertex -3.521 -4.8580000000000005 0
    vertex -2.953 -5.223 0
  endloop
endfacet
facet normal 0 0 -1
  outer loop
    vertex -5.9 -7 0
    vertex -2.953 -5.223 0
    vertex -2.341 -5.525 0
  endloop
endfacet
facet normal 0 0 -1
  outer loop
    vertex -5.9 -7 0
    vertex -2.341 -5.525 0
    vertex -1.695 -5.755 0
  endloop
endfacet
facet normal 0 0 -1
  outer loop
    vertex -5.9 -7 0
    vertex -1.695 -5.755 0
    vertex -1.0210000000000001 -5.912 0
  endloop
endfacet
facet normal 0 0 -1
  outer loop
    vertex -5.9 -7 0
    vertex -1.0210000000000001 -5.912 0
    vertex -0.343 -5.99 0
  endloop
endfacet
facet normal 0 0 -1
  outer loop
    vertex -5.9 -7 0
    vertex -0.343 -5.99 0
    vertex 0.343 -5.99 0
  endloop
endfacet
facet normal 0 0 -1
  outer loop
    vertex -5.9 -7 0
    vertex 0.343 -5.99 0
    vertex 5.9 -7 0
  endloop
endfacet
facet normal 0 -1 0
  outer loop
    vertex -5.9 -7 0
    vertex 5.9 -7 -2
    vertex 5.9 -7 0
  endloop
endfacet
facet normal 0 -1 0
  outer loop
    vertex -5.9 -7 0
    vertex 5.9 -7 0
    vertex -5.9 -7 5
  endloop
endfacet
facet normal 0 0 1
  outer loop
    vertex -5.9 -7 0
    vertex 5.9 -7 0
    vertex 5.9 -2.8000000000000003 0
  endloop
endfacet
facet normal 0 0 1
  outer loop
    vertex -5.9 -7 0
    vertex 5.9 -2.8000000000000003 0
    vertex -5.9 7 0
  endloop
endfacet
facet normal 0 0 1
  outer loop
    vertex -5.9 -7 5
    vertex -4.9 -3.456 5
    vertex -4.9 3.446 5
  endloop
endfacet
facet normal 0 0 1
  outer loop
    vertex -5.9 -7 5
    vertex -4.9 3.446 5
    vertex -5.9 7 5
  endloop
endfacet
facet normal 0 0 1
  outer loop
    vertex -5.9 -7 5
    vertex -4.537 -3.926 5
    vertex -4.9 -3.456 5
  endloop
endfacet
facet normal 0 0 1
  outer loop
    vertex -5.9 -7 5
    vertex -4.054 -4.424 5
    vertex -4.537 -3.926 5
  endloop
endfacet
facet normal 0 0 1
  outer loop
    vertex -5.9 -7 5
    vertex -3.521 -4.8580000000000005 5
    vertex -4.054 -4.424 5
  endloop
endfacet
facet normal 0 0 1
  outer loop
    vertex -5.9 -7 5
    vertex -2.953 -5.223 5
    vertex -3.521 -4.8580000000000005 5
  endloop
endfacet
facet normal 0 0 1
  outer loop
    vertex -5.9 -7 5
    vertex -2.341 -5.525 5
    vertex -2.953 -5.223 5
  endloop
endfacet
facet normal 0 0 1
  outer loop
    vertex -5.9 -7 5
    vertex -1.695 -5.755 5
    vertex -2.341 -5.525 5
  endloop
endfacet
facet normal 0 0 1
  outer loop
    vertex -5.9 -7 5
    vertex -1.0210000000000001 -5.912 5
    vertex -1.695 -5.755 5
  endloop
endfacet
facet normal 0 0 1
  outer loop
    vertex -5.9 -7 5
    vertex -0.343 -5.99 5
    vertex -1.0210000000000001 -5.912 5
  endloop
endfacet
facet normal 0 0 1
  outer loop
    vertex -5.9 -7 5
    vertex 0.343 -5.99 5
    vertex -0.343 -5.99 5
  endloop
endfacet
facet normal 0 -1 0
  outer loop
    vertex -5.9 -7 5
    vertex 5.9 -7 0
    vertex 5.9 -7 5
  endloop
endfacet
facet normal 0 0 1
  outer loop
    vertex -5.9 -7 5
    vertex 5.9 -7 5
    vertex 0.343 -5.99 5
  endloop
endfacet
facet normal 0 1 0
  outer loop
    vertex -5.9 7 -2
    vertex -5.9 7 0
    vertex 5.9 7 0
  endloop
endfacet
facet normal 0 0 -1
  outer loop
    vertex -5.9 7 -2
    vertex 5.9 2.8000000000000003 -2
    vertex 5.9 -2.8000000000000003 -2
  endloop
endfacet
facet normal 0 0 -1
  outer loop
    vertex -5.9 7 -2
    vertex 5.9 7 -2
    vertex 5.9 2.8000000000000003 -2
  endloop
endfacet
facet normal 0 1 0
  outer loop
    vertex -5.9 7 -2
    vertex 5.9 7 0
    vertex 5.9 7 -2
  endloop
endfacet
facet normal 0 1 0
  outer loop
    vertex -5.9 7 0
    vertex -5.9 7 5
    vertex 5.9 7 5
  endloop
endfacet
facet normal 0 0 -1
  outer loop
    vertex -5.9 7 0
    vertex -4.747 3.67 0
    vertex -4.9 3.446 0
  endloop
endfacet
facet normal 0 0 -1
  outer loop
    vertex -5.9 7 0
    vertex -4.3 4.184 0
    vertex -4.747 3.67 0
  endloop
endfacet
facet normal 0 0 -1
  outer loop
    vertex -5.9 7 0
    vertex -3.801 4.643 0
    vertex -4.3 4.184 0
  endloop
endfacet
facet normal 0 0 -1
  outer loop
    vertex -5.9 7 0
    vertex -3.248 5.045 0
    vertex -3.801 4.643 0
  endloop
endfacet
facet normal 0 0 -1
  outer loop
    vertex -5.9 7 0
    vertex -2.648 5.384 0
    vertex -3.248 5.045 0
  endloop
endfacet
facet normal 0 0 -1
  outer loop
    vertex -5.9 7 0
    vertex -2.017 5.651 0
    vertex -2.648 5.384 0
  endloop
endfacet
facet normal 0 0 -1
  outer loop
    vertex -5.9 7 0
    vertex -1.354 5.845 0
    vertex -2.017 5.651 0
  endloop
endfacet
facet normal 0 0 -1
  outer loop
    vertex -5.9 7 0
    vertex -0.683 5.961 0
    vertex -1.354 5.845 0
  endloop
endfacet
facet normal 0 0 -1
  outer loop
    vertex -5.9 7 0
    vertex 0 6 0
    vertex -0.683 5.961 0
  endloop
endfacet
facet normal 0 0 1
  outer loop
    vertex -5.9 7 0
    vertex 5.9 -2.8000000000000003 0
    vertex 5.9 2.8000000000000003 0
  endloop
endfacet
facet normal 0 0 1
  outer loop
    vertex -5.9 7 0
    vertex 5.9 2.8000000000000003 0
    vertex 5.9 7 0
  endloop
endfacet
facet normal 0 0 -1
  outer loop
    vertex -5.9 7 0
    vertex 5.9 7 0
    vertex 0 6 0
  endloop
endfacet
facet normal 0 1 0
  outer loop
    vertex -5.9 7 0
    vertex 5.9 7 5
    vertex 5.9 7 0
  endloop
endfacet
facet normal 0 0 1
  outer loop
    vertex -5.9 7 5
    vertex -4.9 3.446 5
    vertex -4.747 3.67 5
  endloop
endfacet
facet normal 0 0 1
  outer loop
    vertex -5.9 7 5
    vertex -4.747 3.67 5
    vertex -4.3 4.184 5
  endloop
endfacet
facet normal 0 0 1
  outer loop
    vertex -5.9 7 5
    vertex -4.3 4.184 5
    vertex -3.801 4.643 5
  endloop
endfacet
facet normal 0 0 1
  outer loop
    vertex -5.9 7 5
    vertex -3.801 4.643 5
    vertex -3.248 5.045 5
  endloop
endfacet
facet normal 0 0 1
  outer loop
    vertex -5.9 7 5
    vertex -3.248 5.045 5
    vertex -2.648 5.384 5
  endloop
endfacet
facet normal 0 0 1
  outer loop
    vertex -5.9 7 5
    vertex -2.648 5.384 5
    vertex -2.017 5.651 5
  endloop
endfacet
facet normal 0 0 1
  outer loop
    vertex -5.9 7 5
    vertex -2.017 5.651 5
    vertex -1.354 5.845 5
  endloop
endfacet
facet normal 0 0 1
  outer loop
    vertex -5.9 7 5
    vertex -1.354 5.845 5
    vertex -0.683 5.961 5
  endloop
endfacet
facet normal 0 0 1
  outer loop
    vertex -5.9 7 5
    vertex -0.683 5.961 5
    vertex 0 6 5
  endloop
endfacet
facet normal 0 0 1
  outer loop
    vertex -5.9 7 5
    vertex 0 6 5
    vertex 5.9 7 5
  endloop
endfacet
facet normal 0.7914331091103433 0.6112557842703294 0
  outer loop
    vertex -4.9 -3.456 0
    vertex -4.9 -3.456 5
    vertex -4.537 -3.926 5
  endloop
endfacet
facet normal 1 0 0
  outer loop
    vertex -4.9 -3.456 0
    vertex -4.9 3.446 0
    vertex -4.9 -3.456 5
  endloop
endfacet
facet normal 0.7914331091103433 0.6112557842703294 0
  outer loop
    vertex -4.9 -3.456 0
    vertex -4.537 -3.926 5
    vertex -4.537 -3.926 0
  endloop
endfacet
facet normal 1 0 0
  outer loop
    vertex -4.9 -3.456 5
    vertex -4.9 3.446 0
    vertex -4.9 3.446 5
  endloop
endfacet
facet normal 0.8257591054031921 -0.5640229603870041 0
  outer loop
    vertex -4.9 3.446 0
    vertex -4.747 3.67 0
    vertex -4.9 3.446 5
  endloop
endfacet
facet normal 0.8257591054031921 -0.5640229603870041 0
  outer loop
    vertex -4.9 3.446 5
    vertex -4.747 3.67 0
    vertex -4.747 3.67 5
  endloop
endfacet
facet normal 0.7545739164951241 -0.6562150596757206 0
  outer loop
    vertex -4.747 3.67 0
    vertex -4.3 4.184 0
    vertex -4.747 3.67 5
  endloop
endfacet
facet normal 0.7545739164951241 -0.6562150596757206 0
  outer loop
    vertex -4.747 3.67 5
    vertex -4.3 4.184 0
    vertex -4.3 4.184 5
  endloop
endfacet
facet normal 0.7178349014848605 0.6962133683076048 0
  outer loop
    vertex -4.537 -3.926 0
    vertex -4.537 -3.926 5
    vertex -4.054 -4.424 5
  endloop
endfacet
facet normal 0.7178349014848605 0.6962133683076048 0
  outer loop
    vertex -4.537 -3.926 0
    vertex -4.054 -4.424 5
    vertex -4.054 -4.424 0
  endloop
endfacet
facet normal 0.6769926231788784 -0.7359898016694125 0
  outer loop
    vertex -4.3 4.184 0
    vertex -3.801 4.643 0
    vertex -4.3 4.184 5
  endloop
endfacet
facet normal 0.6769926231788784 -0.7359898016694125 0
  outer loop
    vertex -4.3 4.184 5
    vertex -3.801 4.643 0
    vertex -3.801 4.643 5
  endloop
endfacet
facet normal 0.6314138457729341 0.7754460363985577 0
  outer loop
    vertex -4.054 -4.424 0
    vertex -4.054 -4.424 5
    vertex -3.521 -4.8580000000000005 5
  endloop
endfacet
facet normal 0.6314138457729341 0.7754460363985577 0
  outer loop
    vertex -4.054 -4.424 0
    vertex -3.521 -4.8580000000000005 5
    vertex -3.521 -4.8580000000000005 0
  endloop
endfacet
facet normal 0.5879977436333934 -0.8088625677344935 0
  outer loop
    vertex -3.801 4.643 0
    vertex -3.248 5.045 0
    vertex -3.801 4.643 5
  endloop
endfacet
facet normal 0.5879977436333934 -0.8088625677344935 0
  outer loop
    vertex -3.801 4.643 5
    vertex -3.248 5.045 0
    vertex -3.248 5.045 5
  endloop
endfacet
facet normal 0.5406078669057376 0.8412747079519439 0
  outer loop
    vertex -3.521 -4.8580000000000005 0
    vertex -3.521 -4.8580000000000005 5
    vertex -2.953 -5.223 5
  endloop
endfacet
facet normal 0.5406078669057376 0.8412747079519439 0
  outer loop
    vertex -3.521 -4.8580000000000005 0
    vertex -2.953 -5.223 5
    vertex -2.953 -5.223 0
  endloop
endfacet
facet normal 0.49191380579206134 -0.8706439040567447 0
  outer loop
    vertex -3.248 5.045 0
    vertex -2.648 5.384 0
    vertex -3.248 5.045 5
  endloop
endfacet
facet normal 0.49191380579206134 -0.8706439040567447 0
  outer loop
    vertex -3.248 5.045 5
    vertex -2.648 5.384 0
    vertex -2.648 5.384 5
  endloop
endfacet
facet normal 0.4425185122669003 0.8967593692296105 0
  outer loop
    vertex -2.953 -5.223 0
    vertex -2.953 -5.223 5
    vertex -2.341 -5.525 5
  endloop
endfacet
facet normal 0.4425185122669003 0.8967593692296105 0
  outer loop
    vertex -2.953 -5.223 0
    vertex -2.341 -5.525 5
    vertex -2.341 -5.525 0
  endloop
endfacet
facet normal 0.3896876027468444 -0.9209471061170763 0
  outer loop
    vertex -2.648 5.384 0
    vertex -2.017 5.651 0
    vertex -2.648 5.384 5
  endloop
endfacet
facet normal 0.3896876027468444 -0.9209471061170763 0
  outer loop
    vertex -2.648 5.384 5
    vertex -2.017 5.651 0
    vertex -2.017 5.651 5
  endloop
endfacet
facet normal 0.3354124158070829 0.9420713939625045 0
  outer loop
    vertex -2.341 -5.525 0
    vertex -2.341 -5.525 5
    vertex -1.695 -5.755 5
  endloop
endfacet
facet normal 0.3354124158070829 0.9420713939625045 0
  outer loop
    vertex -2.341 -5.525 0
    vertex -1.695 -5.755 5
    vertex -1.695 -5.755 0
  endloop
endfacet
facet normal 0.2808337099361434 -0.959756441688985 0
  outer loop
    vertex -2.017 5.651 0
    vertex -1.354 5.845 0
    vertex -2.017 5.651 5
  endloop
endfacet
facet normal 0.2808337099361434 -0.959756441688985 0
  outer loop
    vertex -2.017 5.651 5
    vertex -1.354 5.845 0
    vertex -1.354 5.845 5
  endloop
endfacet
facet normal 0.22686416365262338 0.9739264095660389 0
  outer loop
    vertex -1.695 -5.755 0
    vertex -1.695 -5.755 5
    vertex -1.0210000000000001 -5.912 5
  endloop
endfacet
facet normal 0.22686416365262338 0.9739264095660389 0
  outer loop
    vertex -1.695 -5.755 0
    vertex -1.0210000000000001 -5.912 5
    vertex -1.0210000000000001 -5.912 0
  endloop
endfacet
facet normal 0.1703494933206292 -0.9853837070529454 0
  outer loop
    vertex -1.354 5.845 0
    vertex -0.683 5.961 0
    vertex -1.354 5.845 5
  endloop
endfacet
facet normal 0.1703494933206292 -0.9853837070529454 0
  outer loop
    vertex -1.354 5.845 5
    vertex -0.683 5.961 0
    vertex -0.683 5.961 5
  endloop
endfacet
facet normal 0.11429040689966308 0.993447383050914 0
  outer loop
    vertex -1.0210000000000001 -5.912 0
    vertex -1.0210000000000001 -5.912 5
    vertex -0.343 -5.99 5
  endloop
endfacet
facet normal 0.11429040689966308 0.993447383050914 0
  outer loop
    vertex -1.0210000000000001 -5.912 0
    vertex -0.343 -5.99 5
    vertex -0.343 -5.99 0
  endloop
endfacet
facet normal 0.05700816219664803 -0.9983737123156643 0
  outer loop
    vertex -0.683 5.961 0
    vertex 0 6 0
    vertex -0.683 5.961 5
  endloop
endfacet
facet normal 0.05700816219664803 -0.9983737123156643 0
  outer loop
    vertex -0.683 5.961 5
    vertex 0 6 0
    vertex 0 6 5
  endloop
endfacet
facet normal 0 1 0
  outer loop
    vertex -0.343 -5.99 0
    vertex -0.343 -5.99 5
    vertex 0.343 -5.99 5
  endloop
endfacet
facet normal 0 1 0
  outer loop
    vertex -0.343 -5.99 0
    vertex 0.343 -5.99 5
    vertex 0.343 -5.99 0
  endloop
endfacet
facet normal -0.05700816219664803 -0.9983737123156643 0
  outer loop
    vertex 0 6 0
    vertex 0.683 5.961 0
    vertex 0 6 5
  endloop
endfacet
facet normal 0 0 -1
  outer loop
    vertex 0 6 0
    vertex 5.9 7 0
    vertex 0.683 5.961 0
  endloop
endfacet
facet normal -0.05700816219664803 -0.9983737123156643 0
  outer loop
    vertex 0 6 5
    vertex 0.683 5.961 0
    vertex 0.683 5.961 5
  endloop
endfacet
facet normal 0 0 1
  outer loop
    vertex 0 6 5
    vertex 0.683 5.961 5
    vertex 5.9 7 5
  endloop
endfacet
facet normal -0.11429040689966308 0.993447383050914 0
  outer loop
    vertex 0.343 -5.99 0
    vertex 0.343 -5.99 5
    vertex 1.0210000000000001 -5.912 5
  endloop
endfacet
facet normal 0 0 -1
  outer loop
    vertex 0.343 -5.99 0
    vertex 1.0210000000000001 -5.912 0
    vertex 5.9 -7 0
  endloop
endfacet
facet normal -0.11429040689966308 0.993447383050914 0
  outer loop
    vertex 0.343 -5.99 0
    vertex 1.0210000000000001 -5.912 5
    vertex 1.0210000000000001 -5.912 0
  endloop
endfacet
facet normal 0 0 1
  outer loop
    vertex 0.343 -5.99 5
    vertex 5.9 -7 5
    vertex 1.0210000000000001 -5.912 5
  endloop
endfacet
facet normal -0.1703494933206292 -0.9853837070529454 0
  outer loop
    vertex 0.683 5.961 0
    vertex 1.354 5.845 0
    vertex 0.683 5.961 5
  endloop
endfacet
facet normal 0 0 -1
  outer loop
    vertex 0.683 5.961 0
    vertex 5.9 7 0
    vertex 1.354 5.845 0
  endloop
endfacet
facet normal -0.1703494933206292 -0.9853837070529454 0
  outer loop
    vertex 0.683 5.961 5
    vertex 1.354 5.845 0
    vertex 1.354 5.845 5
  endloop
endfacet
facet normal 0 0 1
  outer loop
    vertex 0.683 5.961 5
    vertex 1.354 5.845 5
    vertex 5.9 7 5
  endloop
endfacet
facet normal -0.22686416365262338 0.9739264095660389 0
  outer loop
    vertex 1.0210000000000001 -5.912 0
    vertex 1.0210000000000001 -5.912 5
    vertex 1.695 -5.755 5
  endloop
endfacet
facet normal 0 0 -1
  outer loop
    vertex 1.0210000000000001 -5.912 0
    vertex 1.695 -5.755 0
    vertex 5.9 -7 0
  endloop
endfacet
facet normal -0.22686416365262338 0.9739264095660389 0
  outer loop
    vertex 1.0210000000000001 -5.912 0
    vertex 1.695 -5.755 5
    vertex 1.695 -5.755 0
  endloop
endfacet
facet normal 0 0 1
  outer loop
    vertex 1.0210000000000001 -5.912 5
    vertex 5.9 -7 5
    vertex 1.695 -5.755 5
  endloop
endfacet
facet normal -0.2808337099361434 -0.959756441688985 0
  outer loop
    vertex 1.354 5.845 0
    vertex 2.017 5.651 0
    vertex 1.354 5.845 5
  endloop
endfacet
facet normal 0 0 -1
  outer loop
    vertex 1.354 5.845 0
    vertex 5.9 7 0
    vertex 2.017 5.651 0
  endloop
endfacet
facet normal -0.2808337099361434 -0.959756441688985 0
  outer loop
    vertex 1.354 5.845 5
    vertex 2.017 5.651 0
    vertex 2.017 5.651 5
  endloop
endfacet
facet normal 0 0 1
  outer loop
    vertex 1.354 5.845 5
    vertex 2.017 5.651 5
    vertex 5.9 7 5
  endloop
endfacet
facet normal -0.3354124158070829 0.9420713939625045 0
  outer loop
    vertex 1.695 -5.755 0
    vertex 1.695 -5.755 5
    vertex 2.341 -5.525 5
  endloop
endfacet
facet normal 0 0 -1
  outer loop
    vertex 1.695 -5.755 0
    vertex 2.341 -5.525 0
    vertex 5.9 -7 0
  endloop
endfacet
facet normal -0.3354124158070829 0.9420713939625045 0
  outer loop
    vertex 1.695 -5.755 0
    vertex 2.341 -5.525 5
    vertex 2.341 -5.525 0
  endloop
endfacet
facet normal 0 0 1
  outer loop
    vertex 1.695 -5.755 5
    vertex 5.9 -7 5
    vertex 2.341 -5.525 5
  endloop
endfacet
facet normal -0.3896876027468444 -0.9209471061170763 0
  outer loop
    vertex 2.017 5.651 0
    vertex 2.648 5.384 0
    vertex 2.017 5.651 5
  endloop
endfacet
facet normal 0 0 -1
  outer loop
    vertex 2.017 5.651 0
    vertex 5.9 7 0
    vertex 2.648 5.384 0
  endloop
endfacet
facet normal -0.3896876027468444 -0.9209471061170763 0
  outer loop
    vertex 2.017 5.651 5
    vertex 2.648 5.384 0
    vertex 2.648 5.384 5
  endloop
endfacet
facet normal 0 0 1
  outer loop
    vertex 2.017 5.651 5
    vertex 2.648 5.384 5
    vertex 5.9 7 5
  endloop
endfacet
facet normal -0.4425185122669003 0.8967593692296105 0
  outer loop
    vertex 2.341 -5.525 0
    vertex 2.341 -5.525 5
    vertex 2.953 -5.223 5
  endloop
endfacet
facet normal 0 0 -1
  outer loop
    vertex 2.341 -5.525 0
    vertex 2.953 -5.223 0
    vertex 5.9 -7 0
  endloop
endfacet
facet normal -0.4425185122669003 0.8967593692296105 0
  outer loop
    vertex 2.341 -5.525 0
    vertex 2.953 -5.223 5
    vertex 2.953 -5.223 0
  endloop
endfacet
facet normal 0 0 1
  outer loop
    vertex 2.341 -5.525 5
    vertex 5.9 -7 5
    vertex 2.953 -5.223 5
  endloop
endfacet
facet normal -0.49191380579206134 -0.8706439040567447 0
  outer loop
    vertex 2.648 5.384 0
    vertex 3.248 5.045 0
    vertex 2.648 5.384 5
  endloop
endfacet
facet normal 0 0 -1
  outer loop
    vertex 2.648 5.384 0
    vertex 5.9 7 0
    vertex 3.248 5.045 0
  endloop
endfacet
facet normal -0.49191380579206134 -0.8706439040567447 0
  outer loop
    vertex 2.648 5.384 5
    vertex 3.248 5.045 0
    vertex 3.248 5.045 5
  endloop
endfacet
facet normal 0 0 1
  outer loop
    vertex 2.648 5.384 5
    vertex 3.248 5.045 5
    vertex 5.9 7 5
  endloop
endfacet
facet normal -0.5406078669057376 0.8412747079519439 0
  outer loop
    vertex 2.953 -5.223 0
    vertex 2.953 -5.223 5
    vertex 3.521 -4.8580000000000005 5
  endloop
endfacet
facet normal 0 0 -1
  outer loop
    vertex 2.953 -5.223 0
    vertex 3.521 -4.8580000000000005 0
    vertex 5.9 -7 0
  endloop
endfacet
facet normal -0.5406078669057376 0.8412747079519439 0
  outer loop
    vertex 2.953 -5.223 0
    vertex 3.521 -4.8580000000000005 5
    vertex 3.521 -4.8580000000000005 0
  endloop
endfacet
facet normal 0 0 1
  outer loop
    vertex 2.953 -5.223 5
    vertex 5.9 -7 5
    vertex 3.521 -4.8580000000000005 5
  endloop
endfacet
facet normal -0.5879977436333934 -0.8088625677344935 0
  outer loop
    vertex 3.248 5.045 0
    vertex 3.801 4.643 0
    vertex 3.248 5.045 5
  endloop
endfacet
facet normal 0 0 -1
  outer loop
    vertex 3.248 5.045 0
    vertex 5.9 7 0
    vertex 3.801 4.643 0
  endloop
endfacet
facet normal -0.5879977436333934 -0.8088625677344935 0
  outer loop
    vertex 3.248 5.045 5
    vertex 3.801 4.643 0
    vertex 3.801 4.643 5
  endloop
endfacet
facet normal 0 0 1
  outer loop
    vertex 3.248 5.045 5
    vertex 3.801 4.643 5
    vertex 5.9 7 5
  endloop
endfacet
facet normal -0.6314138457729341 0.7754460363985577 0
  outer loop
    vertex 3.521 -4.8580000000000005 0
    vertex 3.521 -4.8580000000000005 5
    vertex 4.054 -4.424 5
  endloop
endfacet
facet normal 0 0 -1
  outer loop
    vertex 3.521 -4.8580000000000005 0
    vertex 4.054 -4.424 0
    vertex 5.9 -7 0
  endloop
endfacet
facet normal -0.6314138457729341 0.7754460363985577 0
  outer loop
    vertex 3.521 -4.8580000000000005 0
    vertex 4.054 -4.424 5
    vertex 4.054 -4.424 0
  endloop
endfacet
facet normal 0 0 1
  outer loop
    vertex 3.521 -4.8580000000000005 5
    vertex 5.9 -7 5
    vertex 4.054 -4.424 5
  endloop
endfacet
facet normal -0.6769926231788784 -0.7359898016694125 0
  outer loop
    vertex 3.801 4.643 0
    vertex 4.3 4.184 0
    vertex 3.801 4.643 5
  endloop
endfacet
facet normal 0 0 -1
  outer loop
    vertex 3.801 4.643 0
    vertex 5.9 7 0
    vertex 4.3 4.184 0
  endloop
endfacet
facet normal -0.6769926231788784 -0.7359898016694125 0
  outer loop
    vertex 3.801 4.643 5
    vertex 4.3 4.184 0
    vertex 4.3 4.184 5
  endloop
endfacet
facet normal 0 0 1
  outer loop
    vertex 3.801 4.643 5
    vertex 4.3 4.184 5
    vertex 5.9 7 5
  endloop
endfacet
facet normal -0.7178349014848605 0.6962133683076048 0
  outer loop
    vertex 4.054 -4.424 0
    vertex 4.054 -4.424 5
    vertex 4.537 -3.926 5
  endloop
endfacet
facet normal 0 0 -1
  outer loop
    vertex 4.054 -4.424 0
    vertex 4.537 -3.926 0
    vertex 5.9 -7 0
  endloop
endfacet
facet normal -0.7178349014848605 0.6962133683076048 0
  outer loop
    vertex 4.054 -4.424 0
    vertex 4.537 -3.926 5
    vertex 4.537 -3.926 0
  endloop
endfacet
facet normal 0 0 1
  outer loop
    vertex 4.054 -4.424 5
    vertex 5.9 -7 5
    vertex 4.537 -3.926 5
  endloop
endfacet
facet normal -0.7545739164951241 -0.6562150596757206 0
  outer loop
    vertex 4.3 4.184 0
    vertex 4.747 3.67 0
    vertex 4.3 4.184 5
  endloop
endfacet
facet normal 0 0 -1
  outer loop
    vertex 4.3 4.184 0
    vertex 5.9 7 0
    vertex 4.747 3.67 0
  endloop
endfacet
facet normal -0.7545739164951241 -0.6562150596757206 0
  outer loop
    vertex 4.3 4.184 5
    vertex 4.747 3.67 0
    vertex 4.747 3.67 5
  endloop
endfacet
facet normal 0 0 1
  outer loop
    vertex 4.3 4.184 5
    vertex 4.747 3.67 5
    vertex 5.9 7 5
  endloop
endfacet
facet normal -0.7914331091103433 0.6112557842703294 0
  outer loop
    vertex 4.537 -3.926 0
    vertex 4.537 -3.926 5
    vertex 4.9 -3.456 5
  endloop
endfacet
facet normal 0 0 -1
  outer loop
    vertex 4.537 -3.926 0
    vertex 4.9 -3.456 0
    vertex 5.9 -7 0
  endloop
endfacet
facet normal -0.7914331091103433 0.6112557842703294 0
  outer loop
    vertex 4.537 -3.926 0
    vertex 4.9 -3.456 5
    vertex 4.9 -3.456 0
  endloop
endfacet
facet normal 0 0 1
  outer loop
    vertex 4.537 -3.926 5
    vertex 5.9 -7 5
    vertex 4.9 -3.456 5
  endloop
endfacet
facet normal -0.8257591054031921 -0.5640229603870041 0
  outer loop
    vertex 4.747 3.67 0
    vertex 4.9 3.446 0
    vertex 4.747 3.67 5
  endloop
endfacet
facet normal 0 0 -1
  outer loop
    vertex 4.747 3.67 0
    vertex 5.9 2.8000000000000003 0
    vertex 4.9 3.446 0
  endloop
endfacet
facet normal 0 0 -1
  outer loop
    vertex 4.747 3.67 0
    vertex 5.9 7 0
    vertex 5.9 2.8000000000000003 0
  endloop
endfacet
facet normal -0.8257591054031921 -0.5640229603870041 0
  outer loop
    vertex 4.747 3.67 5
    vertex 4.9 3.446 0
    vertex 4.9 3.446 5
  endloop
endfacet
facet normal 0 0 1
  outer loop
    vertex 4.747 3.67 5
    vertex 4.9 3.446 5
    vertex 5.9 2.8000000000000003 5
  endloop
endfacet
facet normal 0 0 1
  outer loop
    vertex 4.747 3.67 5
    vertex 5.9 2.8000000000000003 5
    vertex 5.9 7 5
  endloop
endfacet
facet normal -1 0 0
  outer loop
    vertex 4.9 -3.456 0
    vertex 4.9 -3.456 5
    vertex 4.9 -2 5
  endloop
endfacet
facet normal 0 0 -1
  outer loop
    vertex 4.9 -3.456 0
    vertex 4.9 -2 0
    vertex 5.9 -2.8000000000000003 0
  endloop
endfacet
facet normal -1 0 0
  outer loop
    vertex 4.9 -3.456 0
    vertex 4.9 -2 5
    vertex 4.9 -2 0
  endloop
endfacet
facet normal 0 0 -1
  outer loop
    vertex 4.9 -3.456 0
    vertex 5.9 -2.8000000000000003 0
    vertex 5.9 -7 0
  endloop
endfacet
facet normal 0 0 1
  outer loop
    vertex 4.9 -3.456 5
    vertex 5.9 -7 5
    vertex 5.9 -2.8000000000000003 5
  endloop
endfacet
facet normal 0 0 1
  outer loop
    vertex 4.9 -3.456 5
    vertex 5.9 -2.8000000000000003 5
    vertex 4.9 -2 5
  endloop
endfacet
facet normal 0 1 0
  outer loop
    vertex 4.9 -2 0
    vertex 4.9 -2 5
    vertex 5.7 -2 5
  endloop
endfacet
facet normal 0 0 -1
  outer loop
    vertex 4.9 -2 0
    vertex 5.7 -2 0
    vertex 5.9 -2.8000000000000003 0
  endloop
endfacet
facet normal 0 1 0
  outer loop
    vertex 4.9 -2 0
    vertex 5.7 -2 5
    vertex 5.7 -2 0
  endloop
endfacet
facet normal 0 0 1
  outer loop
    vertex 4.9 -2 5
    vertex 5.9 -2.8000000000000003 5
    vertex 5.7 -2 5
  endloop
endfacet
facet normal -1 0 0
  outer loop
    vertex 4.9 2 0
    vertex 4.9 2 5
    vertex 4.9 3.446 5
  endloop
endfacet
facet normal 0 0 -1
  outer loop
    vertex 4.9 2 0
    vertex 4.9 3.446 0
    vertex 5.9 2.8000000000000003 0
  endloop
endfacet
facet normal -1 0 0
  outer loop
    vertex 4.9 2 0
    vertex 4.9 3.446 5
    vertex 4.9 3.446 0
  endloop
endfacet
facet normal 0 -1 0
  outer loop
    vertex 4.9 2 0
    vertex 5.7 2 0
    vertex 4.9 2 5
  endloop
endfacet
facet normal 0 0 -1
  outer loop
    vertex 4.9 2 0
    vertex 5.9 2.8000000000000003 0
    vertex 5.7 2 0
  endloop
endfacet
facet normal 0 -1 0
  outer loop
    vertex 4.9 2 5
    vertex 5.7 2 0
    vertex 5.7 2 5
  endloop
endfacet
facet normal 0 0 1
  outer loop
    vertex 4.9 2 5
    vertex 5.7 2 5
    vertex 5.9 2.8000000000000003 5
  endloop
endfacet
facet normal 0 0 1
  outer loop
    vertex 4.9 2 5
    vertex 5.9 2.8000000000000003 5
    vertex 4.9 3.446 5
  endloop
endfacet
facet normal -1 0 0
  outer loop
    vertex 5.7 -2 0
    vertex 5.7 -2 5
    vertex 5.7 2 5
  endloop
endfacet
facet normal 0 0 -1
  outer loop
    vertex 5.7 -2 0
    vertex 5.7 2 0
    vertex 6.5 -2.8000000000000003 0
  endloop
endfacet
facet normal -1 0 0
  outer loop
    vertex 5.7 -2 0
    vertex 5.7 2 5
    vertex 5.7 2 0
  endloop
endfacet
facet normal 0 0 -1
  outer loop
    vertex 5.7 -2 0
    vertex 6.5 -2.8000000000000003 0
    vertex 5.9 -2.8000000000000003 0
  endloop
endfacet
facet normal 0 0 1
  outer loop
    vertex 5.7 -2 5
    vertex 5.9 -2.8000000000000003 5
    vertex 6.5 -2.8000000000000003 5
  endloop
endfacet
facet normal 0 0 1
  outer loop
    vertex 5.7 -2 5
    vertex 6.5 -2.8000000000000003 5
    vertex 5.7 2 5
  endloop
endfacet
facet normal 0 0 -1
  outer loop
    vertex 5.7 2 0
    vertex 5.9 2.8000000000000003 0
    vertex 6.5 2.8000000000000003 0
  endloop
endfacet
facet normal 0 0 -1
  outer loop
    vertex 5.7 2 0
    vertex 6.5 2.8000000000000003 0
    vertex 6.5 -2.8000000000000003 0
  endloop
endfacet
facet normal 0 0 1
  outer loop
    vertex 5.7 2 5
    vertex 6.5 -2.8000000000000003 5
    vertex 6.5 2.8000000000000003 5
  endloop
endfacet
facet normal 0 0 1
  outer loop
    vertex 5.7 2 5
    vertex 6.5 2.8000000000000003 5
    vertex 5.9 2.8000000000000003 5
  endloop
endfacet
facet normal 1 0 0
  outer loop
    vertex 5.9 -7 -2
    vertex 5.9 -2.8000000000000003 -2
    vertex 5.9 -7 0
  endloop
endfacet
facet normal 1 0 0
  outer loop
    vertex 5.9 -7 0
    vertex 5.9 -2.8000000000000003 -2
    vertex 5.9 -2.8000000000000003 0
  endloop
endfacet
facet normal 1 0 0
  outer loop
    vertex 5.9 -7 0
    vertex 5.9 -2.8000000000000003 0
    vertex 5.9 -7 5
  endloop
endfacet
facet normal 1 0 0
  outer loop
    vertex 5.9 -7 5
    vertex 5.9 -2.8000000000000003 0
    vertex 5.9 -2.8000000000000003 5
  endloop
endfacet
facet normal 0 0 -1
  outer loop
    vertex 5.9 -2.8000000000000003 -2
    vertex 5.9 2.8000000000000003 -2
    vertex 6.5 -2.8000000000000003 -2
  endloop
endfacet
facet normal 0 -1 0
  outer loop
    vertex 5.9 -2.8000000000000003 -2
    vertex 6.5 -2.8000000000000003 -2
    vertex 5.9 -2.8000000000000003 0
  endloop
endfacet
facet normal 0 -1 0
  outer loop
    vertex 5.9 -2.8000000000000003 0
    vertex 6.5 -2.8000000000000003 -2
    vertex 6.5 -2.8000000000000003 0
  endloop
endfacet
facet normal 0 -1 0
  outer loop
    vertex 5.9 -2.8000000000000003 0
    vertex 6.5 -2.8000000000000003 0
    vertex 5.9 -2.8000000000000003 5
  endloop
endfacet
facet normal 0 0 1
  outer loop
    vertex 5.9 -2.8000000000000003 0
    vertex 6.5 -2.8000000000000003 0
    vertex 5.9 2.8000000000000003 0
  endloop
endfacet
facet normal 0 -1 0
  outer loop
    vertex 5.9 -2.8000000000000003 5
    vertex 6.5 -2.8000000000000003 0
    vertex 6.5 -2.8000000000000003 5
  endloop
endfacet
facet normal 0 1 0
  outer loop
    vertex 5.9 2.8000000000000003 -2
    vertex 5.9 2.8000000000000003 0
    vertex 6.5 2.8000000000000003 0
  endloop
endfacet
facet normal 1 0 0
  outer loop
    vertex 5.9 2.8000000000000003 -2
    vertex 5.9 7 -2
    vertex 5.9 2.8000000000000003 0
  endloop
endfacet
facet normal 0 0 -1
  outer loop
    vertex 5.9 2.8000000000000003 -2
    vertex 6.5 2.8000000000000003 -2
    vertex 6.5 -2.8000000000000003 -2
  endloop
endfacet
facet normal 0 1 0
  outer loop
    vertex 5.9 2.8000000000000003 -2
    vertex 6.5 2.8000000000000003 0
    vertex 6.5 2.8000000000000003 -2
  endloop
endfacet
facet normal 0 1 0
  outer loop
    vertex 5.9 2.8000000000000003 0
    vertex 5.9 2.8000000000000003 5
    vertex 6.5 2.8000000000000003 5
  endloop
endfacet
facet normal 1 0 0
  outer loop
    vertex 5.9 2.8000000000000003 0
    vertex 5.9 7 -2
    vertex 5.9 7 0
  endloop
endfacet
facet normal 1 0 0
  outer loop
    vertex 5.9 2.8000000000000003 0
    vertex 5.9 7 0
    vertex 5.9 2.8000000000000003 5
  endloop
endfacet
facet normal 0 0 1
  outer loop
    vertex 5.9 2.8000000000000003 0
    vertex 6.5 -2.8000000000000003 0
    vertex 6.5 2.8000000000000003 0
  endloop
endfacet
facet normal 0 1 0
  outer loop
    vertex 5.9 2.8000000000000003 0
    vertex 6.5 2.8000000000000003 5
    vertex 6.5 2.8000000000000003 0
  endloop
endfacet
facet normal 1 0 0
  outer loop
    vertex 5.9 2.8000000000000003 5
    vertex 5.9 7 0
    vertex 5.9 7 5
  endloop
endfacet
facet normal 1 0 0
  outer loop
    vertex 6.5 -2.8000000000000003 -2
    vertex 6.5 2.8000000000000003 -2
    vertex 6.5 -2.8000000000000003 0
  endloop
endfacet
facet normal 1 0 0
  outer loop
    vertex 6.5 -2.8000000000000003 0
    vertex 6.5 2.8000000000000003 -2
    vertex 6.5 2.8000000000000003 0
  endloop
endfacet
facet normal 1 0 0
  outer loop
    vertex 6.5 -2.8000000000000003 0
    vertex 6.5 2.8000000000000003 0
    vertex 6.5 -2.8000000000000003 5
  endloop
endfacet
facet normal 1 0 0
  outer loop
    vertex 6.5 -2.8000000000000003 5
    vertex 6.5 2.8000000000000003 0
    vertex 6.5 2.8000000000000003 5
  endloop
endfacet
endsolid JSxCAD
