solid JSxCAD
facet normal 0 0 -0.9999999999999999
  outer loop
    vertex 11.503 4.416 0
    vertex 12.363 4.658 0
    vertex 12.497 4.416 0
  endloop
endfacet
facet normal 0 0 -1
  outer loop
    vertex 16.416 0.497 0
    vertex 16.416 -0.497 0
    vertex 16.173000000000002 0.597 0
  endloop
endfacet
facet normal 0 0 -1
  outer loop
    vertex 9.863 3.092 0
    vertex 9.617 1.6520000000000001 0
    vertex 8.911 2.141 0
  endloop
endfacet
facet normal 0 0 -0.9999999999999999
  outer loop
    vertex 12.519 2.853 0
    vertex 10.351 2.386 0
    vertex 11.481 2.853 0
  endloop
endfacet
facet normal 0 0 -1
  outer loop
    vertex 15.039 3.548 0
    vertex 15.325000000000001 3.599 0
    vertex 15.552 3.0340000000000003 0
  endloop
endfacet
facet normal 0 0 -1
  outer loop
    vertex 11.637 4.658 0
    vertex 12.363 4.658 0
    vertex 11.503 4.416 0
  endloop
endfacet
facet normal 0 0 -1
  outer loop
    vertex 15.375 2.5260000000000002 0
    vertex 14.531 3.371 0
    vertex 15.476 2.769 0
  endloop
endfacet
facet normal 0 0 -1
  outer loop
    vertex 11.503 4.416 0
    vertex 12.497 4.416 0
    vertex 11.403 4.173 0
  endloop
endfacet
facet normal 0 0 -1
  outer loop
    vertex 14.386000000000001 1.649 0
    vertex 14.853 0.519 0
    vertex 13.649000000000001 -2.386 0
  endloop
endfacet
facet normal 0 0 -1
  outer loop
    vertex 12.363 4.658 0
    vertex 11.637 4.658 0
    vertex 12.197000000000001 4.896 0
  endloop
endfacet
facet normal 0 0 -0.9999999999999999
  outer loop
    vertex 16.416 0.497 0
    vertex 16.658 -0.363 0
    vertex 16.416 -0.497 0
  endloop
endfacet
facet normal 0 0 -1
  outer loop
    vertex 12.197000000000001 4.896 0
    vertex 11.637 4.658 0
    vertex 11.803 4.896 0
  endloop
endfacet
facet normal 0 0 -1
  outer loop
    vertex 16.416 -0.497 0
    vertex 16.173000000000002 -0.597 0
    vertex 16.173000000000002 0.597 0
  endloop
endfacet
facet normal 0 0 -1
  outer loop
    vertex 11.403 4.173 0
    vertex 12.497 4.416 0
    vertex 12.597 4.173 0
  endloop
endfacet
facet normal 0 0 -1
  outer loop
    vertex 11.34 3.932 0
    vertex 11.403 4.173 0
    vertex 12.597 4.173 0
  endloop
endfacet
facet normal 0 0 -1
  outer loop
    vertex 8.068 -0.66 0
    vertex 7.827 0.597 0
    vertex 8.068 0.66 0
  endloop
endfacet
facet normal 0 0 -1
  outer loop
    vertex 12.66 3.932 0
    vertex 11.34 3.932 0
    vertex 12.597 4.173 0
  endloop
endfacet
facet normal 0 0 -1
  outer loop
    vertex 8.966 3.552 0
    vertex 9.231 3.476 0
    vertex 8.528 2.773 0
  endloop
endfacet
facet normal 0 0 -1
  outer loop
    vertex 12.66 3.932 0
    vertex 11.327 3.698 0
    vertex 11.34 3.932 0
  endloop
endfacet
facet normal 0 0 -1
  outer loop
    vertex 12.66 3.932 0
    vertex 12.673 3.698 0
    vertex 11.327 3.698 0
  endloop
endfacet
facet normal 0 0 -1
  outer loop
    vertex 11.327 3.698 0
    vertex 12.673 3.698 0
    vertex 12.519 2.853 0
  endloop
endfacet
facet normal 0 0 -1
  outer loop
    vertex 11.481 2.853 0
    vertex 11.327 3.698 0
    vertex 12.519 2.853 0
  endloop
endfacet
facet normal 0 0 -1
  outer loop
    vertex 13.649000000000001 -2.386 0
    vertex 12.519 -2.853 0
    vertex 11.481 -2.853 0
  endloop
endfacet
facet normal 0 0 -1
  outer loop
    vertex 8.452 3.039 0
    vertex 8.966 3.552 0
    vertex 8.528 2.773 0
  endloop
endfacet
facet normal 0 0 -1
  outer loop
    vertex 8.528 2.773 0
    vertex 9.231 3.476 0
    vertex 9.474 3.375 0
  endloop
endfacet
facet normal 0 0 -1
  outer loop
    vertex 8.966 3.552 0
    vertex 8.452 3.039 0
    vertex 8.401 3.325 0
  endloop
endfacet
facet normal 0 0 -1
  outer loop
    vertex 8.68 3.604 0
    vertex 8.966 3.552 0
    vertex 8.401 3.325 0
  endloop
endfacet
facet normal 0 0 -1
  outer loop
    vertex 8.629 2.531 0
    vertex 8.528 2.773 0
    vertex 9.474 3.375 0
  endloop
endfacet
facet normal 0 0 -1
  outer loop
    vertex 8.755 2.316 0
    vertex 8.629 2.531 0
    vertex 9.474 3.375 0
  endloop
endfacet
facet normal 0 0 -1
  outer loop
    vertex 8.961 -3.548 0
    vertex 8.675 -3.599 0
    vertex 8.448 -3.0340000000000003 0
  endloop
endfacet
facet normal 0 0 -0.9999999999999999
  outer loop
    vertex 9.689 3.249 0
    vertex 8.755 2.316 0
    vertex 9.474 3.375 0
  endloop
endfacet
facet normal 0 0 -1
  outer loop
    vertex 7.3420000000000005 0.363 0
    vertex 7.5840000000000005 0.497 0
    vertex 7.5840000000000005 -0.497 0
  endloop
endfacet
facet normal 0 0 -1
  outer loop
    vertex 9.689 3.249 0
    vertex 9.863 3.092 0
    vertex 8.755 2.316 0
  endloop
endfacet
facet normal 0 0 -1
  outer loop
    vertex 8.755 2.316 0
    vertex 9.863 3.092 0
    vertex 8.911 2.141 0
  endloop
endfacet
facet normal 0 0 -1
  outer loop
    vertex 9.863 3.092 0
    vertex 10.351 2.386 0
    vertex 9.617 1.6520000000000001 0
  endloop
endfacet
facet normal 0 0 -0.9999999999999999
  outer loop
    vertex 9.617 1.6520000000000001 0
    vertex 10.351 2.386 0
    vertex 9.147 0.519 0
  endloop
endfacet
facet normal 0 0 -1
  outer loop
    vertex 9.147 0.519 0
    vertex 10.351 2.386 0
    vertex 9.147 -0.519 0
  endloop
endfacet
facet normal 0 0 -1
  outer loop
    vertex 7.3420000000000005 -0.363 0
    vertex 7.3420000000000005 0.363 0
    vertex 7.5840000000000005 -0.497 0
  endloop
endfacet
facet normal 0 0 -1
  outer loop
    vertex 7.5840000000000005 -0.497 0
    vertex 7.5840000000000005 0.497 0
    vertex 7.827 -0.597 0
  endloop
endfacet
facet normal 0 0 -1
  outer loop
    vertex 7.3420000000000005 0.363 0
    vertex 7.3420000000000005 -0.363 0
    vertex 7.104 0.197 0
  endloop
endfacet
facet normal 0 0 -1
  outer loop
    vertex 7.104 0.197 0
    vertex 7.3420000000000005 -0.363 0
    vertex 7.104 -0.197 0
  endloop
endfacet
facet normal 0 0 -1
  outer loop
    vertex 7.827 -0.597 0
    vertex 7.5840000000000005 0.497 0
    vertex 7.827 0.597 0
  endloop
endfacet
facet normal 0 0 -1
  outer loop
    vertex 8.068 -0.66 0
    vertex 7.827 -0.597 0
    vertex 7.827 0.597 0
  endloop
endfacet
facet normal 0 0 -1
  outer loop
    vertex 16.658 -0.363 0
    vertex 16.416 0.497 0
    vertex 16.658 0.363 0
  endloop
endfacet
facet normal 0 0 -1
  outer loop
    vertex 8.302 -0.673 0
    vertex 8.068 -0.66 0
    vertex 8.068 0.66 0
  endloop
endfacet
facet normal 0 0 -1
  outer loop
    vertex 8.961 -3.548 0
    vertex 8.524000000000001 -2.769 0
    vertex 9.227 -3.472 0
  endloop
endfacet
facet normal 0 0 -1
  outer loop
    vertex 8.302 0.673 0
    vertex 8.302 -0.673 0
    vertex 8.068 0.66 0
  endloop
endfacet
facet normal 0 0 -1
  outer loop
    vertex 8.302 0.673 0
    vertex 9.147 -0.519 0
    vertex 8.302 -0.673 0
  endloop
endfacet
facet normal 0 0 -1
  outer loop
    vertex 8.302 0.673 0
    vertex 9.147 0.519 0
    vertex 9.147 -0.519 0
  endloop
endfacet
facet normal 0 0 -1
  outer loop
    vertex 9.147 -0.519 0
    vertex 10.351 2.386 0
    vertex 9.614 -1.649 0
  endloop
endfacet
facet normal 0 0 -1
  outer loop
    vertex 9.614 -1.649 0
    vertex 11.481 -2.853 0
    vertex 10.348 -2.383 0
  endloop
endfacet
facet normal 0 0 -1
  outer loop
    vertex 8.961 -3.548 0
    vertex 8.448 -3.0340000000000003 0
    vertex 8.524000000000001 -2.769 0
  endloop
endfacet
facet normal 0 0 -1
  outer loop
    vertex 9.227 -3.472 0
    vertex 8.524000000000001 -2.769 0
    vertex 9.469 -3.371 0
  endloop
endfacet
facet normal 0 0 -1
  outer loop
    vertex 8.448 -3.0340000000000003 0
    vertex 8.675 -3.599 0
    vertex 8.396 -3.3200000000000003 0
  endloop
endfacet
facet normal 0 0 -1
  outer loop
    vertex 8.524000000000001 -2.769 0
    vertex 8.625 -2.5260000000000002 0
    vertex 9.469 -3.371 0
  endloop
endfacet
facet normal 0 0 -1
  outer loop
    vertex 9.469 -3.371 0
    vertex 8.625 -2.5260000000000002 0
    vertex 8.751 -2.311 0
  endloop
endfacet
facet normal 0 0 -1
  outer loop
    vertex 9.684000000000001 -3.245 0
    vertex 9.469 -3.371 0
    vertex 8.751 -2.311 0
  endloop
endfacet
facet normal 0 0 -1
  outer loop
    vertex 8.908 -2.137 0
    vertex 9.684000000000001 -3.245 0
    vertex 8.751 -2.311 0
  endloop
endfacet
facet normal 0 0 -1
  outer loop
    vertex 8.908 -2.137 0
    vertex 9.859 -3.089 0
    vertex 9.684000000000001 -3.245 0
  endloop
endfacet
facet normal 0 0 -1
  outer loop
    vertex 8.908 -2.137 0
    vertex 10.348 -2.383 0
    vertex 9.859 -3.089 0
  endloop
endfacet
facet normal 0 0 -1
  outer loop
    vertex 9.614 -1.649 0
    vertex 10.351 2.386 0
    vertex 11.481 -2.853 0
  endloop
endfacet
facet normal 0 0 -0.9999999999999999
  outer loop
    vertex 8.908 -2.137 0
    vertex 9.614 -1.649 0
    vertex 10.348 -2.383 0
  endloop
endfacet
facet normal 0 0 -1
  outer loop
    vertex 10.351 2.386 0
    vertex 13.649000000000001 -2.386 0
    vertex 11.481 -2.853 0
  endloop
endfacet
facet normal 0 0 -0.9999999999999999
  outer loop
    vertex 11.503 -4.416 0
    vertex 12.497 -4.416 0
    vertex 12.363 -4.658 0
  endloop
endfacet
facet normal 0 0 -1
  outer loop
    vertex 11.637 -4.658 0
    vertex 11.503 -4.416 0
    vertex 12.363 -4.658 0
  endloop
endfacet
facet normal 0 0 -1
  outer loop
    vertex 11.503 -4.416 0
    vertex 11.403 -4.173 0
    vertex 12.497 -4.416 0
  endloop
endfacet
facet normal 0 0 -1
  outer loop
    vertex 12.363 -4.658 0
    vertex 12.197000000000001 -4.896 0
    vertex 11.637 -4.658 0
  endloop
endfacet
facet normal 0 0 -1
  outer loop
    vertex 11.637 -4.658 0
    vertex 12.197000000000001 -4.896 0
    vertex 11.803 -4.896 0
  endloop
endfacet
facet normal 0 0 -0.9999999999999999
  outer loop
    vertex 12.497 -4.416 0
    vertex 11.403 -4.173 0
    vertex 12.597 -4.173 0
  endloop
endfacet
facet normal 0 0 -1
  outer loop
    vertex 12.597 -4.173 0
    vertex 11.403 -4.173 0
    vertex 11.34 -3.932 0
  endloop
endfacet
facet normal 0 0 -1
  outer loop
    vertex 12.66 -3.932 0
    vertex 12.597 -4.173 0
    vertex 11.34 -3.932 0
  endloop
endfacet
facet normal 0 0 -1
  outer loop
    vertex 11.327 -3.698 0
    vertex 12.66 -3.932 0
    vertex 11.34 -3.932 0
  endloop
endfacet
facet normal 0 0 -1
  outer loop
    vertex 11.327 -3.698 0
    vertex 12.673 -3.698 0
    vertex 12.66 -3.932 0
  endloop
endfacet
facet normal 0 0 -1
  outer loop
    vertex 11.327 -3.698 0
    vertex 12.519 -2.853 0
    vertex 12.673 -3.698 0
  endloop
endfacet
facet normal 0 0 -1
  outer loop
    vertex 10.351 2.386 0
    vertex 12.519 2.853 0
    vertex 13.649000000000001 -2.386 0
  endloop
endfacet
facet normal 0 0 -1
  outer loop
    vertex 11.327 -3.698 0
    vertex 11.481 -2.853 0
    vertex 12.519 -2.853 0
  endloop
endfacet
facet normal 0 0 -1
  outer loop
    vertex 13.649000000000001 -2.386 0
    vertex 12.519 2.853 0
    vertex 14.386000000000001 1.649 0
  endloop
endfacet
facet normal 0 0 -0.9999999999999999
  outer loop
    vertex 14.769 -3.476 0
    vertex 15.472 -2.773 0
    vertex 15.034 -3.552 0
  endloop
endfacet
facet normal 0 0 -1
  outer loop
    vertex 15.034 -3.552 0
    vertex 15.472 -2.773 0
    vertex 15.548 -3.039 0
  endloop
endfacet
facet normal 0 0 -1
  outer loop
    vertex 14.769 -3.476 0
    vertex 14.526 -3.375 0
    vertex 15.472 -2.773 0
  endloop
endfacet
facet normal 0 0 -1
  outer loop
    vertex 15.548 -3.039 0
    vertex 15.599 -3.325 0
    vertex 15.034 -3.552 0
  endloop
endfacet
facet normal 0 0 -1
  outer loop
    vertex 15.034 -3.552 0
    vertex 15.599 -3.325 0
    vertex 15.32 -3.604 0
  endloop
endfacet
facet normal 0 0 -1
  outer loop
    vertex 15.472 -2.773 0
    vertex 14.526 -3.375 0
    vertex 15.371 -2.531 0
  endloop
endfacet
facet normal 0 0 -1
  outer loop
    vertex 15.371 -2.531 0
    vertex 14.526 -3.375 0
    vertex 15.245000000000001 -2.316 0
  endloop
endfacet
facet normal 0 0 -1
  outer loop
    vertex 15.245000000000001 -2.316 0
    vertex 14.526 -3.375 0
    vertex 14.311 -3.249 0
  endloop
endfacet
facet normal 0 0 -1
  outer loop
    vertex 14.137 -3.092 0
    vertex 15.245000000000001 -2.316 0
    vertex 14.311 -3.249 0
  endloop
endfacet
facet normal 0 0 -1
  outer loop
    vertex 14.137 -3.092 0
    vertex 15.089 -2.141 0
    vertex 15.245000000000001 -2.316 0
  endloop
endfacet
facet normal 0 0 -1
  outer loop
    vertex 14.137 -3.092 0
    vertex 14.383000000000001 -1.6520000000000001 0
    vertex 15.089 -2.141 0
  endloop
endfacet
facet normal 0 0 -1
  outer loop
    vertex 14.383000000000001 -1.6520000000000001 0
    vertex 13.649000000000001 -2.386 0
    vertex 14.853 -0.519 0
  endloop
endfacet
facet normal 0 0 -1
  outer loop
    vertex 14.137 -3.092 0
    vertex 13.649000000000001 -2.386 0
    vertex 14.383000000000001 -1.6520000000000001 0
  endloop
endfacet
facet normal 0 0 -1
  outer loop
    vertex 14.853 -0.519 0
    vertex 13.649000000000001 -2.386 0
    vertex 14.853 0.519 0
  endloop
endfacet
facet normal 0 0 -1
  outer loop
    vertex 16.658 -0.363 0
    vertex 16.658 0.363 0
    vertex 16.896 -0.197 0
  endloop
endfacet
facet normal 0 0 -1
  outer loop
    vertex 16.896 -0.197 0
    vertex 16.658 0.363 0
    vertex 16.896 0.197 0
  endloop
endfacet
facet normal 0 0 -0.9999999999999999
  outer loop
    vertex 16.173000000000002 0.597 0
    vertex 16.173000000000002 -0.597 0
    vertex 15.932 0.66 0
  endloop
endfacet
facet normal 0 0 -1
  outer loop
    vertex 15.476 2.769 0
    vertex 14.531 3.371 0
    vertex 14.773 3.472 0
  endloop
endfacet
facet normal 0 0 -1
  outer loop
    vertex 15.552 3.0340000000000003 0
    vertex 15.476 2.769 0
    vertex 15.039 3.548 0
  endloop
endfacet
facet normal 0 0 -1
  outer loop
    vertex 15.604000000000001 3.3200000000000003 0
    vertex 15.552 3.0340000000000003 0
    vertex 15.325000000000001 3.599 0
  endloop
endfacet
facet normal 0 0 -1
  outer loop
    vertex 13.652000000000001 2.383 0
    vertex 15.092 2.137 0
    vertex 14.386000000000001 1.649 0
  endloop
endfacet
facet normal 0 0 -1
  outer loop
    vertex 15.932 -0.66 0
    vertex 15.932 0.66 0
    vertex 16.173000000000002 -0.597 0
  endloop
endfacet
facet normal 0 0 -1
  outer loop
    vertex 15.932 -0.66 0
    vertex 15.698 0.673 0
    vertex 15.932 0.66 0
  endloop
endfacet
facet normal 0 0 -1
  outer loop
    vertex 15.932 -0.66 0
    vertex 15.698 -0.673 0
    vertex 15.698 0.673 0
  endloop
endfacet
facet normal 0 0 -1
  outer loop
    vertex 15.698 0.673 0
    vertex 15.698 -0.673 0
    vertex 14.853 0.519 0
  endloop
endfacet
facet normal 0 0 -1
  outer loop
    vertex 14.853 0.519 0
    vertex 15.698 -0.673 0
    vertex 14.853 -0.519 0
  endloop
endfacet
facet normal 0 0 -1
  outer loop
    vertex 13.652000000000001 2.383 0
    vertex 14.386000000000001 1.649 0
    vertex 12.519 2.853 0
  endloop
endfacet
facet normal 0 0 -0.9999999999999999
  outer loop
    vertex 15.476 2.769 0
    vertex 14.773 3.472 0
    vertex 15.039 3.548 0
  endloop
endfacet
facet normal 0 0 -1
  outer loop
    vertex 15.249 2.311 0
    vertex 14.531 3.371 0
    vertex 15.375 2.5260000000000002 0
  endloop
endfacet
facet normal 0 0 -1
  outer loop
    vertex 15.249 2.311 0
    vertex 14.316 3.245 0
    vertex 14.531 3.371 0
  endloop
endfacet
facet normal 0 0 -1
  outer loop
    vertex 15.249 2.311 0
    vertex 15.092 2.137 0
    vertex 14.316 3.245 0
  endloop
endfacet
facet normal 0 0 -1
  outer loop
    vertex 14.316 3.245 0
    vertex 15.092 2.137 0
    vertex 14.141 3.089 0
  endloop
endfacet
facet normal 0 0 -1
  outer loop
    vertex 14.141 3.089 0
    vertex 15.092 2.137 0
    vertex 13.652000000000001 2.383 0
  endloop
endfacet
facet normal 0 0 1
  outer loop
    vertex 12.497 4.416 5
    vertex 12.363 4.658 5
    vertex 11.503 4.416 5
  endloop
endfacet
facet normal -7.354235865399233e-15 0 1
  outer loop
    vertex 16.173000000000002 0.597 5
    vertex 16.416 -0.497 5
    vertex 16.416 0.497 5
  endloop
endfacet
facet normal 1.5624098139384061e-15 0 1
  outer loop
    vertex 8.911 2.141 5
    vertex 9.617 1.6520000000000001 5
    vertex 9.863 3.092 5
  endloop
endfacet
facet normal 0 0 1
  outer loop
    vertex 11.481 2.853 5
    vertex 10.351 2.386 5
    vertex 12.519 2.853 5
  endloop
endfacet
facet normal 0 0 1
  outer loop
    vertex 15.552 3.0340000000000003 5
    vertex 15.325000000000001 3.599 5
    vertex 15.039 3.548 5
  endloop
endfacet
facet normal 0 0 1
  outer loop
    vertex 11.503 4.416 5
    vertex 12.363 4.658 5
    vertex 11.637 4.658 5
  endloop
endfacet
facet normal 0 0 1
  outer loop
    vertex 15.476 2.769 5
    vertex 14.531 3.371 5
    vertex 15.375 2.5260000000000002 5
  endloop
endfacet
facet normal 0 0 1
  outer loop
    vertex 11.403 4.173 5
    vertex 12.497 4.416 5
    vertex 11.503 4.416 5
  endloop
endfacet
facet normal -6.537561675356224e-16 0 1
  outer loop
    vertex 13.649000000000001 -2.386 5
    vertex 14.853 0.519 5
    vertex 14.386000000000001 1.649 5
  endloop
endfacet
facet normal 0 0 1
  outer loop
    vertex 12.197000000000001 4.896 5
    vertex 11.637 4.658 5
    vertex 12.363 4.658 5
  endloop
endfacet
facet normal 0 0 0.9999999999999999
  outer loop
    vertex 16.416 -0.497 5
    vertex 16.658 -0.363 5
    vertex 16.416 0.497 5
  endloop
endfacet
facet normal 0 0 1
  outer loop
    vertex 11.803 4.896 5
    vertex 11.637 4.658 5
    vertex 12.197000000000001 4.896 5
  endloop
endfacet
facet normal 6.887666881476291e-15 0 1
  outer loop
    vertex 16.173000000000002 0.597 5
    vertex 16.173000000000002 -0.597 5
    vertex 16.416 -0.497 5
  endloop
endfacet
facet normal 0 0 0.9999999999999999
  outer loop
    vertex 12.597 4.173 5
    vertex 12.497 4.416 5
    vertex 11.403 4.173 5
  endloop
endfacet
facet normal 0 0 1
  outer loop
    vertex 12.597 4.173 5
    vertex 11.403 4.173 5
    vertex 11.34 3.932 5
  endloop
endfacet
facet normal 0 0 1
  outer loop
    vertex 8.068 0.66 5
    vertex 7.827 0.597 5
    vertex 8.068 -0.66 5
  endloop
endfacet
facet normal 0 0 1
  outer loop
    vertex 12.597 4.173 5
    vertex 11.34 3.932 5
    vertex 12.66 3.932 5
  endloop
endfacet
facet normal 0 0 0.9999999999999999
  outer loop
    vertex 8.528 2.773 5
    vertex 9.231 3.476 5
    vertex 8.966 3.552 5
  endloop
endfacet
facet normal 0 0 1
  outer loop
    vertex 11.34 3.932 5
    vertex 11.327 3.698 5
    vertex 12.66 3.932 5
  endloop
endfacet
facet normal 0 0 1
  outer loop
    vertex 11.327 3.698 5
    vertex 12.673 3.698 5
    vertex 12.66 3.932 5
  endloop
endfacet
facet normal 0 0 1
  outer loop
    vertex 12.519 2.853 5
    vertex 12.673 3.698 5
    vertex 11.327 3.698 5
  endloop
endfacet
facet normal 0 0 1
  outer loop
    vertex 12.519 2.853 5
    vertex 11.327 3.698 5
    vertex 11.481 2.853 5
  endloop
endfacet
facet normal 0 0 1
  outer loop
    vertex 11.481 -2.853 5
    vertex 12.519 -2.853 5
    vertex 13.649000000000001 -2.386 5
  endloop
endfacet
facet normal 0 0 1
  outer loop
    vertex 8.528 2.773 5
    vertex 8.966 3.552 5
    vertex 8.452 3.039 5
  endloop
endfacet
facet normal 0 0 1
  outer loop
    vertex 9.474 3.375 5
    vertex 9.231 3.476 5
    vertex 8.528 2.773 5
  endloop
endfacet
facet normal 0 0 1
  outer loop
    vertex 8.401 3.325 5
    vertex 8.452 3.039 5
    vertex 8.966 3.552 5
  endloop
endfacet
facet normal 0 0 1
  outer loop
    vertex 8.401 3.325 5
    vertex 8.966 3.552 5
    vertex 8.68 3.604 5
  endloop
endfacet
facet normal 3.0654960056470045e-15 0 1
  outer loop
    vertex 9.474 3.375 5
    vertex 8.528 2.773 5
    vertex 8.629 2.531 5
  endloop
endfacet
facet normal -3.083749404379982e-15 0 1
  outer loop
    vertex 9.474 3.375 5
    vertex 8.629 2.531 5
    vertex 8.755 2.316 5
  endloop
endfacet
facet normal 0 0 1
  outer loop
    vertex 8.448 -3.0340000000000003 5
    vertex 8.675 -3.599 5
    vertex 8.961 -3.548 5
  endloop
endfacet
facet normal 0 0 1
  outer loop
    vertex 9.474 3.375 5
    vertex 8.755 2.316 5
    vertex 9.689 3.249 5
  endloop
endfacet
facet normal 9.23078158725208e-16 0 1
  outer loop
    vertex 7.5840000000000005 -0.497 5
    vertex 7.5840000000000005 0.497 5
    vertex 7.3420000000000005 0.363 5
  endloop
endfacet
facet normal -2.8745498728077147e-15 0 1
  outer loop
    vertex 8.755 2.316 5
    vertex 9.863 3.092 5
    vertex 9.689 3.249 5
  endloop
endfacet
facet normal -2.8200079366645863e-15 0 1
  outer loop
    vertex 8.911 2.141 5
    vertex 9.863 3.092 5
    vertex 8.755 2.316 5
  endloop
endfacet
facet normal -1.0134441732962318e-15 0 1
  outer loop
    vertex 9.617 1.6520000000000001 5
    vertex 10.351 2.386 5
    vertex 9.863 3.092 5
  endloop
endfacet
facet normal -3.650233311962906e-15 0 0.9999999999999999
  outer loop
    vertex 9.147 0.519 5
    vertex 10.351 2.386 5
    vertex 9.617 1.6520000000000001 5
  endloop
endfacet
facet normal 0 0 1
  outer loop
    vertex 9.147 -0.519 5
    vertex 10.351 2.386 5
    vertex 9.147 0.519 5
  endloop
endfacet
facet normal 0 0 1
  outer loop
    vertex 7.5840000000000005 -0.497 5
    vertex 7.3420000000000005 0.363 5
    vertex 7.3420000000000005 -0.363 5
  endloop
endfacet
facet normal 7.354235865399205e-15 0 1
  outer loop
    vertex 7.827 -0.597 5
    vertex 7.5840000000000005 0.497 5
    vertex 7.5840000000000005 -0.497 5
  endloop
endfacet
facet normal 0 0 1
  outer loop
    vertex 7.104 0.197 5
    vertex 7.3420000000000005 -0.363 5
    vertex 7.3420000000000005 0.363 5
  endloop
endfacet
facet normal -9.471680455787693e-15 0 1
  outer loop
    vertex 7.104 -0.197 5
    vertex 7.3420000000000005 -0.363 5
    vertex 7.104 0.197 5
  endloop
endfacet
facet normal -6.122370561312236e-15 0 1
  outer loop
    vertex 7.827 0.597 5
    vertex 7.5840000000000005 0.497 5
    vertex 7.827 -0.597 5
  endloop
endfacet
facet normal -7.716473269703692e-16 0 1
  outer loop
    vertex 7.827 0.597 5
    vertex 7.827 -0.597 5
    vertex 8.068 -0.66 5
  endloop
endfacet
facet normal 0 0 1
  outer loop
    vertex 16.658 0.363 5
    vertex 16.416 0.497 5
    vertex 16.658 -0.363 5
  endloop
endfacet
facet normal -2.156610381944748e-15 0 1
  outer loop
    vertex 8.068 0.66 5
    vertex 8.068 -0.66 5
    vertex 8.302 -0.673 5
  endloop
endfacet
facet normal 0 0 1
  outer loop
    vertex 9.227 -3.472 5
    vertex 8.524000000000001 -2.769 5
    vertex 8.961 -3.548 5
  endloop
endfacet
facet normal 5.6398726184587774e-15 0 1
  outer loop
    vertex 8.068 0.66 5
    vertex 8.302 -0.673 5
    vertex 8.302 0.673 5
  endloop
endfacet
facet normal -1.5618108789578142e-15 0 1
  outer loop
    vertex 8.302 -0.673 5
    vertex 9.147 -0.519 5
    vertex 8.302 0.673 5
  endloop
endfacet
facet normal 7.594643941752955e-16 0 1
  outer loop
    vertex 9.147 -0.519 5
    vertex 9.147 0.519 5
    vertex 8.302 0.673 5
  endloop
endfacet
facet normal 0 0 1
  outer loop
    vertex 9.614 -1.649 5
    vertex 10.351 2.386 5
    vertex 9.147 -0.519 5
  endloop
endfacet
facet normal 0 0 1
  outer loop
    vertex 10.348 -2.383 5
    vertex 11.481 -2.853 5
    vertex 9.614 -1.649 5
  endloop
endfacet
facet normal 0 0 1
  outer loop
    vertex 8.524000000000001 -2.769 5
    vertex 8.448 -3.0340000000000003 5
    vertex 8.961 -3.548 5
  endloop
endfacet
facet normal 0 0 0.9999999999999999
  outer loop
    vertex 9.469 -3.371 5
    vertex 8.524000000000001 -2.769 5
    vertex 9.227 -3.472 5
  endloop
endfacet
facet normal 0 0 1
  outer loop
    vertex 8.396 -3.3200000000000003 5
    vertex 8.675 -3.599 5
    vertex 8.448 -3.0340000000000003 5
  endloop
endfacet
facet normal 0 0 1
  outer loop
    vertex 9.469 -3.371 5
    vertex 8.625 -2.5260000000000002 5
    vertex 8.524000000000001 -2.769 5
  endloop
endfacet
facet normal -6.169405200570467e-15 0 1
  outer loop
    vertex 8.751 -2.311 5
    vertex 8.625 -2.5260000000000002 5
    vertex 9.469 -3.371 5
  endloop
endfacet
facet normal 2.7897854674468568e-15 0 1
  outer loop
    vertex 8.751 -2.311 5
    vertex 9.469 -3.371 5
    vertex 9.684000000000001 -3.245 5
  endloop
endfacet
facet normal 0 0 1
  outer loop
    vertex 8.751 -2.311 5
    vertex 9.684000000000001 -3.245 5
    vertex 8.908 -2.137 5
  endloop
endfacet
facet normal 0 0 1
  outer loop
    vertex 9.684000000000001 -3.245 5
    vertex 9.859 -3.089 5
    vertex 8.908 -2.137 5
  endloop
endfacet
facet normal 0 0 1
  outer loop
    vertex 9.859 -3.089 5
    vertex 10.348 -2.383 5
    vertex 8.908 -2.137 5
  endloop
endfacet
facet normal -8.438055344852265e-16 0 1
  outer loop
    vertex 11.481 -2.853 5
    vertex 10.351 2.386 5
    vertex 9.614 -1.649 5
  endloop
endfacet
facet normal 0 0 0.9999999999999999
  outer loop
    vertex 10.348 -2.383 5
    vertex 9.614 -1.649 5
    vertex 8.908 -2.137 5
  endloop
endfacet
facet normal 5.978049684239139e-16 0 1
  outer loop
    vertex 11.481 -2.853 5
    vertex 13.649000000000001 -2.386 5
    vertex 10.351 2.386 5
  endloop
endfacet
facet normal 0 0 1
  outer loop
    vertex 12.363 -4.658 5
    vertex 12.497 -4.416 5
    vertex 11.503 -4.416 5
  endloop
endfacet
facet normal 0 0 1
  outer loop
    vertex 12.363 -4.658 5
    vertex 11.503 -4.416 5
    vertex 11.637 -4.658 5
  endloop
endfacet
facet normal 0 0 1
  outer loop
    vertex 12.497 -4.416 5
    vertex 11.403 -4.173 5
    vertex 11.503 -4.416 5
  endloop
endfacet
facet normal 0 0 1
  outer loop
    vertex 11.637 -4.658 5
    vertex 12.197000000000001 -4.896 5
    vertex 12.363 -4.658 5
  endloop
endfacet
facet normal 0 0 1
  outer loop
    vertex 11.803 -4.896 5
    vertex 12.197000000000001 -4.896 5
    vertex 11.637 -4.658 5
  endloop
endfacet
facet normal 0 0 0.9999999999999999
  outer loop
    vertex 12.597 -4.173 5
    vertex 11.403 -4.173 5
    vertex 12.497 -4.416 5
  endloop
endfacet
facet normal 0 0 1
  outer loop
    vertex 11.34 -3.932 5
    vertex 11.403 -4.173 5
    vertex 12.597 -4.173 5
  endloop
endfacet
facet normal 0 0 1
  outer loop
    vertex 11.34 -3.932 5
    vertex 12.597 -4.173 5
    vertex 12.66 -3.932 5
  endloop
endfacet
facet normal 0 0 1
  outer loop
    vertex 11.34 -3.932 5
    vertex 12.66 -3.932 5
    vertex 11.327 -3.698 5
  endloop
endfacet
facet normal 0 0 1
  outer loop
    vertex 12.66 -3.932 5
    vertex 12.673 -3.698 5
    vertex 11.327 -3.698 5
  endloop
endfacet
facet normal 0 0 1
  outer loop
    vertex 12.673 -3.698 5
    vertex 12.519 -2.853 5
    vertex 11.327 -3.698 5
  endloop
endfacet
facet normal -6.725305894769037e-16 0 1
  outer loop
    vertex 13.649000000000001 -2.386 5
    vertex 12.519 2.853 5
    vertex 10.351 2.386 5
  endloop
endfacet
facet normal 0 0 1
  outer loop
    vertex 12.519 -2.853 5
    vertex 11.481 -2.853 5
    vertex 11.327 -3.698 5
  endloop
endfacet
facet normal 8.438055344852256e-16 0 1
  outer loop
    vertex 14.386000000000001 1.649 5
    vertex 12.519 2.853 5
    vertex 13.649000000000001 -2.386 5
  endloop
endfacet
facet normal 0 0 1
  outer loop
    vertex 15.034 -3.552 5
    vertex 15.472 -2.773 5
    vertex 14.769 -3.476 5
  endloop
endfacet
facet normal 0 0 1
  outer loop
    vertex 15.548 -3.039 5
    vertex 15.472 -2.773 5
    vertex 15.034 -3.552 5
  endloop
endfacet
facet normal 0 0 1
  outer loop
    vertex 15.472 -2.773 5
    vertex 14.526 -3.375 5
    vertex 14.769 -3.476 5
  endloop
endfacet
facet normal 0 0 1
  outer loop
    vertex 15.034 -3.552 5
    vertex 15.599 -3.325 5
    vertex 15.548 -3.039 5
  endloop
endfacet
facet normal 0 0 1
  outer loop
    vertex 15.32 -3.604 5
    vertex 15.599 -3.325 5
    vertex 15.034 -3.552 5
  endloop
endfacet
facet normal -3.065496005647008e-15 0 1
  outer loop
    vertex 15.371 -2.531 5
    vertex 14.526 -3.375 5
    vertex 15.472 -2.773 5
  endloop
endfacet
facet normal 0 0 1
  outer loop
    vertex 15.245000000000001 -2.316 5
    vertex 14.526 -3.375 5
    vertex 15.371 -2.531 5
  endloop
endfacet
facet normal -5.581131144059915e-15 0 1
  outer loop
    vertex 14.311 -3.249 5
    vertex 14.526 -3.375 5
    vertex 15.245000000000001 -2.316 5
  endloop
endfacet
facet normal 2.8745498728077147e-15 0 1
  outer loop
    vertex 14.311 -3.249 5
    vertex 15.245000000000001 -2.316 5
    vertex 14.137 -3.092 5
  endloop
endfacet
facet normal 0 0 1
  outer loop
    vertex 15.245000000000001 -2.316 5
    vertex 15.089 -2.141 5
    vertex 14.137 -3.092 5
  endloop
endfacet
facet normal -1.5624098139384087e-15 0 1
  outer loop
    vertex 15.089 -2.141 5
    vertex 14.383000000000001 -1.6520000000000001 5
    vertex 14.137 -3.092 5
  endloop
endfacet
facet normal 3.650233311962897e-15 0 1
  outer loop
    vertex 14.853 -0.519 5
    vertex 13.649000000000001 -2.386 5
    vertex 14.383000000000001 -1.6520000000000001 5
  endloop
endfacet
facet normal 1.0134441732962334e-15 0 1
  outer loop
    vertex 14.383000000000001 -1.6520000000000001 5
    vertex 13.649000000000001 -2.386 5
    vertex 14.137 -3.092 5
  endloop
endfacet
facet normal 0 0 1
  outer loop
    vertex 14.853 0.519 5
    vertex 13.649000000000001 -2.386 5
    vertex 14.853 -0.519 5
  endloop
endfacet
facet normal 0 0 1
  outer loop
    vertex 16.896 -0.197 5
    vertex 16.658 0.363 5
    vertex 16.658 -0.363 5
  endloop
endfacet
facet normal 9.471680455787727e-15 0 1
  outer loop
    vertex 16.896 0.197 5
    vertex 16.658 0.363 5
    vertex 16.896 -0.197 5
  endloop
endfacet
facet normal 0 0 0.9999999999999999
  outer loop
    vertex 15.932 0.66 5
    vertex 16.173000000000002 -0.597 5
    vertex 16.173000000000002 0.597 5
  endloop
endfacet
facet normal 0 0 1
  outer loop
    vertex 14.773 3.472 5
    vertex 14.531 3.371 5
    vertex 15.476 2.769 5
  endloop
endfacet
facet normal 0 0 1
  outer loop
    vertex 15.039 3.548 5
    vertex 15.476 2.769 5
    vertex 15.552 3.0340000000000003 5
  endloop
endfacet
facet normal 0 0 1
  outer loop
    vertex 15.325000000000001 3.599 5
    vertex 15.552 3.0340000000000003 5
    vertex 15.604000000000001 3.3200000000000003 5
  endloop
endfacet
facet normal 0 0 1
  outer loop
    vertex 14.386000000000001 1.649 5
    vertex 15.092 2.137 5
    vertex 13.652000000000001 2.383 5
  endloop
endfacet
facet normal 0 0 1
  outer loop
    vertex 16.173000000000002 -0.597 5
    vertex 15.932 0.66 5
    vertex 15.932 -0.66 5
  endloop
endfacet
facet normal 0 0 1
  outer loop
    vertex 15.932 0.66 5
    vertex 15.698 0.673 5
    vertex 15.932 -0.66 5
  endloop
endfacet
facet normal -3.5249203865367358e-15 0 1
  outer loop
    vertex 15.698 0.673 5
    vertex 15.698 -0.673 5
    vertex 15.932 -0.66 5
  endloop
endfacet
facet normal 1.5618108789578142e-15 0 1
  outer loop
    vertex 14.853 0.519 5
    vertex 15.698 -0.673 5
    vertex 15.698 0.673 5
  endloop
endfacet
facet normal 0 0 1
  outer loop
    vertex 14.853 -0.519 5
    vertex 15.698 -0.673 5
    vertex 14.853 0.519 5
  endloop
endfacet
facet normal 1.82511665598145e-15 0 1
  outer loop
    vertex 12.519 2.853 5
    vertex 14.386000000000001 1.649 5
    vertex 13.652000000000001 2.383 5
  endloop
endfacet
facet normal 0 0 1
  outer loop
    vertex 15.039 3.548 5
    vertex 14.773 3.472 5
    vertex 15.476 2.769 5
  endloop
endfacet
facet normal 0 0 1
  outer loop
    vertex 15.375 2.5260000000000002 5
    vertex 14.531 3.371 5
    vertex 15.249 2.311 5
  endloop
endfacet
facet normal -5.579570934893733e-15 0 1
  outer loop
    vertex 14.531 3.371 5
    vertex 14.316 3.245 5
    vertex 15.249 2.311 5
  endloop
endfacet
facet normal 2.8745498728077056e-15 0 1
  outer loop
    vertex 14.316 3.245 5
    vertex 15.092 2.137 5
    vertex 15.249 2.311 5
  endloop
endfacet
facet normal 0 0 1
  outer loop
    vertex 14.141 3.089 5
    vertex 15.092 2.137 5
    vertex 14.316 3.245 5
  endloop
endfacet
facet normal 0 0 1
  outer loop
    vertex 13.652000000000001 2.383 5
    vertex 15.092 2.137 5
    vertex 14.141 3.089 5
  endloop
endfacet
facet normal 0.8748384960353086 0.4844147044162465 0
  outer loop
    vertex 12.363 4.658 0
    vertex 12.363 4.658 5
    vertex 12.497 4.416 5
  endloop
endfacet
facet normal 0.8748384960353086 0.4844147044162465 0
  outer loop
    vertex 12.497 4.416 5
    vertex 12.497 4.416 0
    vertex 12.363 4.658 0
  endloop
endfacet
facet normal 0.3805583919888081 0.9247568925327849 0
  outer loop
    vertex 16.173000000000002 0.597 0
    vertex 16.173000000000002 0.597 5
    vertex 16.416 0.497 5
  endloop
endfacet
facet normal 0.3805583919888004 0.9247568925327879 0
  outer loop
    vertex 16.416 0.497 5
    vertex 16.416 0.497 0
    vertex 16.173000000000002 0.597 0
  endloop
endfacet
facet normal -0.5693916113424143 -0.8220664163757628 0
  outer loop
    vertex 9.617 1.6520000000000001 0
    vertex 9.617 1.6520000000000001 5
    vertex 8.911 2.141 5
  endloop
endfacet
facet normal -0.569391611342419 -0.8220664163757595 0
  outer loop
    vertex 8.911 2.141 5
    vertex 8.911 2.141 0
    vertex 9.617 1.6520000000000001 0
  endloop
endfacet
facet normal -0.38194240813303015 0.9241861267458744 0
  outer loop
    vertex 10.351 2.386 0
    vertex 10.351 2.386 5
    vertex 11.481 2.853 5
  endloop
endfacet
facet normal -0.3819424081330294 0.9241861267458749 0
  outer loop
    vertex 11.481 2.853 5
    vertex 11.481 2.853 0
    vertex 10.351 2.386 0
  endloop
endfacet
facet normal -0.17555235969360414 0.9844700955366837 0
  outer loop
    vertex 15.039 3.548 0
    vertex 15.039 3.548 5
    vertex 15.325000000000001 3.599 5
  endloop
endfacet
facet normal -0.17555235969360414 0.9844700955366837 0
  outer loop
    vertex 15.325000000000001 3.599 5
    vertex 15.325000000000001 3.599 0
    vertex 15.039 3.548 0
  endloop
endfacet
facet normal -0.8748384960353086 0.4844147044162465 0
  outer loop
    vertex 11.503 4.416 0
    vertex 11.503 4.416 5
    vertex 11.637 4.658 5
  endloop
endfacet
facet normal -0.8748384960353086 0.4844147044162465 0
  outer loop
    vertex 11.637 4.658 5
    vertex 11.637 4.658 0
    vertex 11.503 4.416 0
  endloop
endfacet
facet normal 0.9234138513116489 -0.3838057571295514 0
  outer loop
    vertex 15.476 2.769 0
    vertex 15.476 2.769 5
    vertex 15.375 2.5260000000000002 5
  endloop
endfacet
facet normal 0.9234138513116565 -0.38380575712953297 0
  outer loop
    vertex 15.375 2.5260000000000002 5
    vertex 15.375 2.5260000000000002 0
    vertex 15.476 2.769 0
  endloop
endfacet
facet normal -0.9247568925327878 0.38055839198880104 0
  outer loop
    vertex 11.403 4.173 0
    vertex 11.403 4.173 5
    vertex 11.503 4.416 5
  endloop
endfacet
facet normal -0.9247568925327878 0.38055839198880104 0
  outer loop
    vertex 11.503 4.416 5
    vertex 11.503 4.416 0
    vertex 11.403 4.173 0
  endloop
endfacet
facet normal 0.924186126745876 0.3819424081330268 0
  outer loop
    vertex 14.386000000000001 1.649 0
    vertex 14.386000000000001 1.649 5
    vertex 14.853 0.519 5
  endloop
endfacet
facet normal 0.9241861267458744 0.3819424081330308 0
  outer loop
    vertex 14.853 0.519 5
    vertex 14.853 0.519 0
    vertex 14.386000000000001 1.649 0
  endloop
endfacet
facet normal 0.8202021649867375 0.5720737789403294 0
  outer loop
    vertex 12.197000000000001 4.896 0
    vertex 12.197000000000001 4.896 5
    vertex 12.363 4.658 5
  endloop
endfacet
facet normal 0.820202164986742 0.5720737789403229 0
  outer loop
    vertex 12.363 4.658 5
    vertex 12.363 4.658 0
    vertex 12.197000000000001 4.896 0
  endloop
endfacet
facet normal 0.48441470441624307 -0.8748384960353104 0
  outer loop
    vertex 16.658 -0.363 0
    vertex 16.658 -0.363 5
    vertex 16.416 -0.497 5
  endloop
endfacet
facet normal 0.48441470441624307 -0.8748384960353104 0
  outer loop
    vertex 16.416 -0.497 5
    vertex 16.416 -0.497 0
    vertex 16.658 -0.363 0
  endloop
endfacet
facet normal 0 1 0
  outer loop
    vertex 11.803 4.896 0
    vertex 11.803 4.896 5
    vertex 12.197000000000001 4.896 5
  endloop
endfacet
facet normal 0 1 0
  outer loop
    vertex 12.197000000000001 4.896 5
    vertex 12.197000000000001 4.896 0
    vertex 11.803 4.896 0
  endloop
endfacet
facet normal -0.8202021649867375 0.5720737789403294 0
  outer loop
    vertex 11.637 4.658 0
    vertex 11.637 4.658 5
    vertex 11.803 4.896 5
  endloop
endfacet
facet normal -0.8202021649867375 0.5720737789403294 0
  outer loop
    vertex 11.803 4.896 5
    vertex 11.803 4.896 0
    vertex 11.637 4.658 0
  endloop
endfacet
facet normal 0.3805583919888004 -0.9247568925327879 0
  outer loop
    vertex 16.416 -0.497 0
    vertex 16.416 -0.497 5
    vertex 16.173000000000002 -0.597 5
  endloop
endfacet
facet normal 0.3805583919888081 -0.9247568925327849 0
  outer loop
    vertex 16.173000000000002 -0.597 5
    vertex 16.173000000000002 -0.597 0
    vertex 16.416 -0.497 0
  endloop
endfacet
facet normal 0.9247568925327878 0.38055839198880104 0
  outer loop
    vertex 12.497 4.416 0
    vertex 12.497 4.416 5
    vertex 12.597 4.173 5
  endloop
endfacet
facet normal 0.9247568925327878 0.38055839198880104 0
  outer loop
    vertex 12.597 4.173 5
    vertex 12.597 4.173 0
    vertex 12.497 4.416 0
  endloop
endfacet
facet normal -0.9674892533139593 0.25291212845966377 0
  outer loop
    vertex 11.34 3.932 0
    vertex 11.34 3.932 5
    vertex 11.403 4.173 5
  endloop
endfacet
facet normal -0.9674892533139593 0.25291212845966377 0
  outer loop
    vertex 11.403 4.173 5
    vertex 11.403 4.173 0
    vertex 11.34 3.932 0
  endloop
endfacet
facet normal -0.25291212845966615 0.9674892533139587 0
  outer loop
    vertex 7.827 0.597 0
    vertex 7.827 0.597 5
    vertex 8.068 0.66 5
  endloop
endfacet
facet normal -0.25291212845966615 0.9674892533139587 0
  outer loop
    vertex 8.068 0.66 5
    vertex 8.068 0.66 0
    vertex 7.827 0.597 0
  endloop
endfacet
facet normal 0.9674892533139593 0.25291212845966377 0
  outer loop
    vertex 12.597 4.173 0
    vertex 12.597 4.173 5
    vertex 12.66 3.932 5
  endloop
endfacet
facet normal 0.9674892533139593 0.25291212845966377 0
  outer loop
    vertex 12.66 3.932 5
    vertex 12.66 3.932 0
    vertex 12.597 4.173 0
  endloop
endfacet
facet normal 0.2756791613690769 0.9612497074053352 0
  outer loop
    vertex 8.966 3.552 0
    vertex 8.966 3.552 5
    vertex 9.231 3.476 5
  endloop
endfacet
facet normal 0.2756791613690769 0.9612497074053352 0
  outer loop
    vertex 9.231 3.476 5
    vertex 9.231 3.476 0
    vertex 8.966 3.552 0
  endloop
endfacet
facet normal -0.9984603532054119 0.055470019622533076 0
  outer loop
    vertex 11.327 3.698 0
    vertex 11.327 3.698 5
    vertex 11.34 3.932 5
  endloop
endfacet
facet normal -0.9984603532054124 0.055470019622520975 0
  outer loop
    vertex 11.34 3.932 5
    vertex 11.34 3.932 0
    vertex 11.327 3.698 0
  endloop
endfacet
facet normal 0.9984603532054124 0.055470019622520975 0
  outer loop
    vertex 12.66 3.932 0
    vertex 12.66 3.932 5
    vertex 12.673 3.698 5
  endloop
endfacet
facet normal 0.9984603532054119 0.055470019622533076 0
  outer loop
    vertex 12.673 3.698 5
    vertex 12.673 3.698 0
    vertex 12.66 3.932 0
  endloop
endfacet
facet normal 0.9837953124402101 -0.17929524037371788 0
  outer loop
    vertex 12.673 3.698 0
    vertex 12.673 3.698 5
    vertex 12.519 2.853 5
  endloop
endfacet
facet normal 0.9837953124402097 -0.17929524037372113 0
  outer loop
    vertex 12.519 2.853 5
    vertex 12.519 2.853 0
    vertex 12.673 3.698 0
  endloop
endfacet
facet normal -0.9837953124402097 -0.17929524037372113 0
  outer loop
    vertex 11.481 2.853 0
    vertex 11.481 2.853 5
    vertex 11.327 3.698 5
  endloop
endfacet
facet normal -0.9837953124402101 -0.17929524037371788 0
  outer loop
    vertex 11.327 3.698 5
    vertex 11.327 3.698 0
    vertex 11.481 2.853 0
  endloop
endfacet
facet normal 0.3819424081330294 -0.9241861267458749 0
  outer loop
    vertex 13.649000000000001 -2.386 0
    vertex 13.649000000000001 -2.386 5
    vertex 12.519 -2.853 5
  endloop
endfacet
facet normal 0.3819424081330294 -0.9241861267458749 0
  outer loop
    vertex 12.519 -2.853 5
    vertex 12.519 -2.853 0
    vertex 13.649000000000001 -2.386 0
  endloop
endfacet
facet normal -0.961523947640824 -0.274721127897375 0
  outer loop
    vertex 8.528 2.773 0
    vertex 8.528 2.773 5
    vertex 8.452 3.039 5
  endloop
endfacet
facet normal -0.9615239476408214 -0.2747211278973845 0
  outer loop
    vertex 8.452 3.039 5
    vertex 8.452 3.039 0
    vertex 8.528 2.773 0
  endloop
endfacet
facet normal 0.3838057571295386 0.9234138513116542 0
  outer loop
    vertex 9.231 3.476 0
    vertex 9.231 3.476 5
    vertex 9.474 3.375 5
  endloop
endfacet
facet normal 0.38380575712953097 0.9234138513116574 0
  outer loop
    vertex 9.474 3.375 5
    vertex 9.474 3.375 0
    vertex 9.231 3.476 0
  endloop
endfacet
facet normal -0.984470095536686 -0.17555235969359193 0
  outer loop
    vertex 8.452 3.039 0
    vertex 8.452 3.039 5
    vertex 8.401 3.325 5
  endloop
endfacet
facet normal -0.984470095536681 -0.17555235969362035 0
  outer loop
    vertex 8.401 3.325 5
    vertex 8.401 3.325 0
    vertex 8.452 3.039 0
  endloop
endfacet
facet normal 0.1788854381999825 0.9838699100999075 0
  outer loop
    vertex 8.68 3.604 0
    vertex 8.68 3.604 5
    vertex 8.966 3.552 5
  endloop
endfacet
facet normal 0.17888543819998423 0.9838699100999073 0
  outer loop
    vertex 8.966 3.552 5
    vertex 8.966 3.552 0
    vertex 8.68 3.604 0
  endloop
endfacet
facet normal -0.7071067811865448 0.7071067811865502 0
  outer loop
    vertex 8.401 3.325 0
    vertex 8.401 3.325 5
    vertex 8.68 3.604 5
  endloop
endfacet
facet normal -0.7071067811865483 0.7071067811865466 0
  outer loop
    vertex 8.68 3.604 5
    vertex 8.68 3.604 0
    vertex 8.401 3.325 0
  endloop
endfacet
facet normal -0.9228511172131487 -0.3851568712335834 0
  outer loop
    vertex 8.629 2.531 0
    vertex 8.629 2.531 5
    vertex 8.528 2.773 5
  endloop
endfacet
facet normal -0.9228511172131487 -0.3851568712335834 0
  outer loop
    vertex 8.528 2.773 5
    vertex 8.528 2.773 0
    vertex 8.629 2.531 0
  endloop
endfacet
facet normal -0.8627583339515464 -0.5056165119902156 0
  outer loop
    vertex 8.755 2.316 0
    vertex 8.755 2.316 5
    vertex 8.629 2.531 5
  endloop
endfacet
facet normal -0.8627583339515464 -0.5056165119902156 0
  outer loop
    vertex 8.629 2.531 5
    vertex 8.629 2.531 0
    vertex 8.755 2.316 0
  endloop
endfacet
facet normal 0.17555235969360586 -0.9844700955366835 0
  outer loop
    vertex 8.961 -3.548 0
    vertex 8.961 -3.548 5
    vertex 8.675 -3.599 5
  endloop
endfacet
facet normal 0.17555235969360414 -0.9844700955366837 0
  outer loop
    vertex 8.675 -3.599 5
    vertex 8.675 -3.599 0
    vertex 8.961 -3.548 0
  endloop
endfacet
facet normal 0.5056165119902141 0.8627583339515474 0
  outer loop
    vertex 9.474 3.375 0
    vertex 9.474 3.375 5
    vertex 9.689 3.249 5
  endloop
endfacet
facet normal 0.5056165119902091 0.8627583339515502 0
  outer loop
    vertex 9.689 3.249 5
    vertex 9.689 3.249 0
    vertex 9.474 3.375 0
  endloop
endfacet
facet normal -0.48441470441624307 0.8748384960353104 0
  outer loop
    vertex 7.3420000000000005 0.363 0
    vertex 7.3420000000000005 0.363 5
    vertex 7.5840000000000005 0.497 5
  endloop
endfacet
facet normal -0.48441470441624745 0.8748384960353079 0
  outer loop
    vertex 7.5840000000000005 0.497 5
    vertex 7.5840000000000005 0.497 0
    vertex 7.3420000000000005 0.363 0
  endloop
endfacet
facet normal 0.669907160056627 0.7424448780245337 0
  outer loop
    vertex 9.689 3.249 0
    vertex 9.689 3.249 5
    vertex 9.863 3.092 5
  endloop
endfacet
facet normal 0.669907160056621 0.7424448780245392 0
  outer loop
    vertex 9.863 3.092 5
    vertex 9.863 3.092 0
    vertex 9.689 3.249 0
  endloop
endfacet
facet normal -0.7464672107341996 -0.6654221992830596 0
  outer loop
    vertex 8.911 2.141 0
    vertex 8.911 2.141 5
    vertex 8.755 2.316 5
  endloop
endfacet
facet normal -0.7464672107342057 -0.6654221992830529 0
  outer loop
    vertex 8.755 2.316 5
    vertex 8.755 2.316 0
    vertex 8.911 2.141 0
  endloop
endfacet
facet normal 0.8226114303170267 0.5686039348366978 0
  outer loop
    vertex 9.863 3.092 0
    vertex 9.863 3.092 5
    vertex 10.351 2.386 5
  endloop
endfacet
facet normal 0.8226114303170251 0.5686039348367001 0
  outer loop
    vertex 10.351 2.386 5
    vertex 10.351 2.386 0
    vertex 9.863 3.092 0
  endloop
endfacet
facet normal -0.9236787845426202 0.38316772174319125 0
  outer loop
    vertex 9.147 0.519 0
    vertex 9.147 0.519 5
    vertex 9.617 1.6520000000000001 5
  endloop
endfacet
facet normal -0.923678784542622 0.38316772174318736 0
  outer loop
    vertex 9.617 1.6520000000000001 5
    vertex 9.617 1.6520000000000001 0
    vertex 9.147 0.519 0
  endloop
endfacet
facet normal -0.48441470441624745 -0.8748384960353079 0
  outer loop
    vertex 7.5840000000000005 -0.497 0
    vertex 7.5840000000000005 -0.497 5
    vertex 7.3420000000000005 -0.363 5
  endloop
endfacet
facet normal -0.48441470441624307 -0.8748384960353104 0
  outer loop
    vertex 7.3420000000000005 -0.363 5
    vertex 7.3420000000000005 -0.363 0
    vertex 7.5840000000000005 -0.497 0
  endloop
endfacet
facet normal -0.3805583919888043 -0.9247568925327865 0
  outer loop
    vertex 7.827 -0.597 0
    vertex 7.827 -0.597 5
    vertex 7.5840000000000005 -0.497 5
  endloop
endfacet
facet normal -0.3805583919888004 -0.9247568925327879 0
  outer loop
    vertex 7.5840000000000005 -0.497 5
    vertex 7.5840000000000005 -0.497 0
    vertex 7.827 -0.597 0
  endloop
endfacet
facet normal -0.5720737789403301 0.8202021649867369 0
  outer loop
    vertex 7.104 0.197 0
    vertex 7.104 0.197 5
    vertex 7.3420000000000005 0.363 5
  endloop
endfacet
facet normal -0.5720737789403301 0.8202021649867369 0
  outer loop
    vertex 7.3420000000000005 0.363 5
    vertex 7.3420000000000005 0.363 0
    vertex 7.104 0.197 0
  endloop
endfacet
facet normal -1 0 0
  outer loop
    vertex 7.104 -0.197 0
    vertex 7.104 -0.197 5
    vertex 7.104 0.197 5
  endloop
endfacet
facet normal -1 0 0
  outer loop
    vertex 7.104 0.197 5
    vertex 7.104 0.197 0
    vertex 7.104 -0.197 0
  endloop
endfacet
facet normal -0.5720737789403301 -0.8202021649867369 0
  outer loop
    vertex 7.3420000000000005 -0.363 0
    vertex 7.3420000000000005 -0.363 5
    vertex 7.104 -0.197 5
  endloop
endfacet
facet normal -0.5720737789403301 -0.8202021649867369 0
  outer loop
    vertex 7.104 -0.197 5
    vertex 7.104 -0.197 0
    vertex 7.3420000000000005 -0.363 0
  endloop
endfacet
facet normal -0.3805583919888004 0.9247568925327879 0
  outer loop
    vertex 7.5840000000000005 0.497 0
    vertex 7.5840000000000005 0.497 5
    vertex 7.827 0.597 5
  endloop
endfacet
facet normal -0.3805583919888043 0.9247568925327865 0
  outer loop
    vertex 7.827 0.597 5
    vertex 7.827 0.597 0
    vertex 7.5840000000000005 0.497 0
  endloop
endfacet
facet normal -0.25291212845966615 -0.9674892533139587 0
  outer loop
    vertex 8.068 -0.66 0
    vertex 8.068 -0.66 5
    vertex 7.827 -0.597 5
  endloop
endfacet
facet normal -0.25291212845966615 -0.9674892533139587 0
  outer loop
    vertex 7.827 -0.597 5
    vertex 7.827 -0.597 0
    vertex 8.068 -0.66 0
  endloop
endfacet
facet normal 0.48441470441624307 0.8748384960353104 0
  outer loop
    vertex 16.416 0.497 0
    vertex 16.416 0.497 5
    vertex 16.658 0.363 5
  endloop
endfacet
facet normal 0.48441470441624307 0.8748384960353104 0
  outer loop
    vertex 16.658 0.363 5
    vertex 16.658 0.363 0
    vertex 16.416 0.497 0
  endloop
endfacet
facet normal -0.05547001962252288 -0.9984603532054125 0
  outer loop
    vertex 8.302 -0.673 0
    vertex 8.302 -0.673 5
    vertex 8.068 -0.66 5
  endloop
endfacet
facet normal -0.05547001962252288 -0.9984603532054125 0
  outer loop
    vertex 8.068 -0.66 5
    vertex 8.068 -0.66 0
    vertex 8.302 -0.673 0
  endloop
endfacet
facet normal 0.2747211278973786 -0.961523947640823 0
  outer loop
    vertex 9.227 -3.472 0
    vertex 9.227 -3.472 5
    vertex 8.961 -3.548 5
  endloop
endfacet
facet normal 0.27472112789737585 -0.9615239476408237 0
  outer loop
    vertex 8.961 -3.548 5
    vertex 8.961 -3.548 0
    vertex 9.227 -3.472 0
  endloop
endfacet
facet normal -0.05547001962252288 0.9984603532054125 0
  outer loop
    vertex 8.068 0.66 0
    vertex 8.068 0.66 5
    vertex 8.302 0.673 5
  endloop
endfacet
facet normal -0.05547001962252288 0.9984603532054125 0
  outer loop
    vertex 8.302 0.673 5
    vertex 8.302 0.673 0
    vertex 8.068 0.66 0
  endloop
endfacet
facet normal 0.17929524037371844 -0.9837953124402101 0
  outer loop
    vertex 9.147 -0.519 0
    vertex 9.147 -0.519 5
    vertex 8.302 -0.673 5
  endloop
endfacet
facet normal 0.17929524037371902 -0.9837953124402101 0
  outer loop
    vertex 8.302 -0.673 5
    vertex 8.302 -0.673 0
    vertex 9.147 -0.519 0
  endloop
endfacet
facet normal 0.17929524037371902 0.9837953124402101 0
  outer loop
    vertex 8.302 0.673 0
    vertex 8.302 0.673 5
    vertex 9.147 0.519 5
  endloop
endfacet
facet normal 0.17929524037371844 0.9837953124402101 0
  outer loop
    vertex 9.147 0.519 5
    vertex 9.147 0.519 0
    vertex 8.302 0.673 0
  endloop
endfacet
facet normal -0.9241861267458744 -0.3819424081330308 0
  outer loop
    vertex 9.614 -1.649 0
    vertex 9.614 -1.649 5
    vertex 9.147 -0.519 5
  endloop
endfacet
facet normal -0.9241861267458744 -0.3819424081330308 0
  outer loop
    vertex 9.147 -0.519 5
    vertex 9.147 -0.519 0
    vertex 9.614 -1.649 0
  endloop
endfacet
facet normal -0.38316772174318875 -0.9236787845426214 0
  outer loop
    vertex 11.481 -2.853 0
    vertex 11.481 -2.853 5
    vertex 10.348 -2.383 5
  endloop
endfacet
facet normal -0.3831677217431879 -0.9236787845426218 0
  outer loop
    vertex 10.348 -2.383 5
    vertex 10.348 -2.383 0
    vertex 11.481 -2.853 0
  endloop
endfacet
facet normal -0.9612497074053333 0.2756791613690836 0
  outer loop
    vertex 8.448 -3.0340000000000003 0
    vertex 8.448 -3.0340000000000003 5
    vertex 8.524000000000001 -2.769 5
  endloop
endfacet
facet normal -0.9612497074053361 0.2756791613690741 0
  outer loop
    vertex 8.524000000000001 -2.769 5
    vertex 8.524000000000001 -2.769 0
    vertex 8.448 -3.0340000000000003 0
  endloop
endfacet
facet normal 0.38515687123358416 -0.9228511172131485 0
  outer loop
    vertex 9.469 -3.371 0
    vertex 9.469 -3.371 5
    vertex 9.227 -3.472 5
  endloop
endfacet
facet normal 0.3851568712335918 -0.9228511172131452 0
  outer loop
    vertex 9.227 -3.472 5
    vertex 9.227 -3.472 0
    vertex 9.469 -3.371 0
  endloop
endfacet
facet normal -0.9838699100999085 0.1788854381999771 0
  outer loop
    vertex 8.396 -3.3200000000000003 0
    vertex 8.396 -3.3200000000000003 5
    vertex 8.448 -3.0340000000000003 5
  endloop
endfacet
facet normal -0.9838699100999068 0.17888543819998656 0
  outer loop
    vertex 8.448 -3.0340000000000003 5
    vertex 8.448 -3.0340000000000003 0
    vertex 8.396 -3.3200000000000003 0
  endloop
endfacet
facet normal -0.7071067811865483 -0.7071067811865466 0
  outer loop
    vertex 8.675 -3.599 0
    vertex 8.675 -3.599 5
    vertex 8.396 -3.3200000000000003 5
  endloop
endfacet
facet normal -0.7071067811865483 -0.7071067811865466 0
  outer loop
    vertex 8.396 -3.3200000000000003 5
    vertex 8.396 -3.3200000000000003 0
    vertex 8.675 -3.599 0
  endloop
endfacet
facet normal -0.9234138513116565 0.38380575712953297 0
  outer loop
    vertex 8.524000000000001 -2.769 0
    vertex 8.524000000000001 -2.769 5
    vertex 8.625 -2.5260000000000002 5
  endloop
endfacet
facet normal -0.9234138513116565 0.38380575712953297 0
  outer loop
    vertex 8.625 -2.5260000000000002 5
    vertex 8.625 -2.5260000000000002 0
    vertex 8.524000000000001 -2.769 0
  endloop
endfacet
facet normal -0.8627583339515514 0.5056165119902072 0
  outer loop
    vertex 8.625 -2.5260000000000002 0
    vertex 8.625 -2.5260000000000002 5
    vertex 8.751 -2.311 5
  endloop
endfacet
facet normal -0.8627583339515514 0.5056165119902072 0
  outer loop
    vertex 8.751 -2.311 5
    vertex 8.751 -2.311 0
    vertex 8.625 -2.5260000000000002 0
  endloop
endfacet
facet normal 0.5056165119902041 -0.8627583339515532 0
  outer loop
    vertex 9.684000000000001 -3.245 0
    vertex 9.684000000000001 -3.245 5
    vertex 9.469 -3.371 5
  endloop
endfacet
facet normal 0.5056165119902141 -0.8627583339515474 0
  outer loop
    vertex 9.469 -3.371 5
    vertex 9.469 -3.371 0
    vertex 9.684000000000001 -3.245 0
  endloop
endfacet
facet normal -0.7424448780245387 0.6699071600566214 0
  outer loop
    vertex 8.751 -2.311 0
    vertex 8.751 -2.311 5
    vertex 8.908 -2.137 5
  endloop
endfacet
facet normal -0.7424448780245327 0.6699071600566281 0
  outer loop
    vertex 8.908 -2.137 5
    vertex 8.908 -2.137 0
    vertex 8.751 -2.311 0
  endloop
endfacet
facet normal 0.6654221992830591 -0.7464672107342003 0
  outer loop
    vertex 9.859 -3.089 0
    vertex 9.859 -3.089 5
    vertex 9.684000000000001 -3.245 5
  endloop
endfacet
facet normal 0.6654221992830591 -0.7464672107342003 0
  outer loop
    vertex 9.684000000000001 -3.245 5
    vertex 9.684000000000001 -3.245 0
    vertex 9.859 -3.089 0
  endloop
endfacet
facet normal 0.8220664163757596 -0.5693916113424188 0
  outer loop
    vertex 10.348 -2.383 0
    vertex 10.348 -2.383 5
    vertex 9.859 -3.089 5
  endloop
endfacet
facet normal 0.8220664163757612 -0.5693916113424166 0
  outer loop
    vertex 9.859 -3.089 5
    vertex 9.859 -3.089 0
    vertex 10.348 -2.383 0
  endloop
endfacet
facet normal -0.5686039348366995 0.8226114303170253 0
  outer loop
    vertex 8.908 -2.137 0
    vertex 8.908 -2.137 5
    vertex 9.614 -1.649 5
  endloop
endfacet
facet normal -0.5686039348366949 0.8226114303170287 0
  outer loop
    vertex 9.614 -1.649 5
    vertex 9.614 -1.649 0
    vertex 8.908 -2.137 0
  endloop
endfacet
facet normal 0.8748384960353086 -0.4844147044162465 0
  outer loop
    vertex 12.497 -4.416 0
    vertex 12.497 -4.416 5
    vertex 12.363 -4.658 5
  endloop
endfacet
facet normal 0.8748384960353086 -0.4844147044162465 0
  outer loop
    vertex 12.363 -4.658 5
    vertex 12.363 -4.658 0
    vertex 12.497 -4.416 0
  endloop
endfacet
facet normal -0.8748384960353086 -0.4844147044162465 0
  outer loop
    vertex 11.637 -4.658 0
    vertex 11.637 -4.658 5
    vertex 11.503 -4.416 5
  endloop
endfacet
facet normal -0.8748384960353086 -0.4844147044162465 0
  outer loop
    vertex 11.503 -4.416 5
    vertex 11.503 -4.416 0
    vertex 11.637 -4.658 0
  endloop
endfacet
facet normal -0.9247568925327878 -0.38055839198880104 0
  outer loop
    vertex 11.503 -4.416 0
    vertex 11.503 -4.416 5
    vertex 11.403 -4.173 5
  endloop
endfacet
facet normal -0.9247568925327878 -0.38055839198880104 0
  outer loop
    vertex 11.403 -4.173 5
    vertex 11.403 -4.173 0
    vertex 11.503 -4.416 0
  endloop
endfacet
facet normal 0.820202164986742 -0.5720737789403229 0
  outer loop
    vertex 12.363 -4.658 0
    vertex 12.363 -4.658 5
    vertex 12.197000000000001 -4.896 5
  endloop
endfacet
facet normal 0.8202021649867375 -0.5720737789403294 0
  outer loop
    vertex 12.197000000000001 -4.896 5
    vertex 12.197000000000001 -4.896 0
    vertex 12.363 -4.658 0
  endloop
endfacet
facet normal -0.8202021649867375 -0.5720737789403294 0
  outer loop
    vertex 11.803 -4.896 0
    vertex 11.803 -4.896 5
    vertex 11.637 -4.658 5
  endloop
endfacet
facet normal -0.8202021649867375 -0.5720737789403294 0
  outer loop
    vertex 11.637 -4.658 5
    vertex 11.637 -4.658 0
    vertex 11.803 -4.896 0
  endloop
endfacet
facet normal 0 -1 0
  outer loop
    vertex 12.197000000000001 -4.896 0
    vertex 12.197000000000001 -4.896 5
    vertex 11.803 -4.896 5
  endloop
endfacet
facet normal 0 -1 0
  outer loop
    vertex 11.803 -4.896 5
    vertex 11.803 -4.896 0
    vertex 12.197000000000001 -4.896 0
  endloop
endfacet
facet normal 0.9247568925327878 -0.38055839198880104 0
  outer loop
    vertex 12.597 -4.173 0
    vertex 12.597 -4.173 5
    vertex 12.497 -4.416 5
  endloop
endfacet
facet normal 0.9247568925327878 -0.38055839198880104 0
  outer loop
    vertex 12.497 -4.416 5
    vertex 12.497 -4.416 0
    vertex 12.597 -4.173 0
  endloop
endfacet
facet normal -0.9674892533139593 -0.25291212845966377 0
  outer loop
    vertex 11.403 -4.173 0
    vertex 11.403 -4.173 5
    vertex 11.34 -3.932 5
  endloop
endfacet
facet normal -0.9674892533139593 -0.25291212845966377 0
  outer loop
    vertex 11.34 -3.932 5
    vertex 11.34 -3.932 0
    vertex 11.403 -4.173 0
  endloop
endfacet
facet normal 0.9674892533139593 -0.25291212845966377 0
  outer loop
    vertex 12.66 -3.932 0
    vertex 12.66 -3.932 5
    vertex 12.597 -4.173 5
  endloop
endfacet
facet normal 0.9674892533139593 -0.25291212845966377 0
  outer loop
    vertex 12.597 -4.173 5
    vertex 12.597 -4.173 0
    vertex 12.66 -3.932 0
  endloop
endfacet
facet normal -0.9984603532054124 -0.055470019622520975 0
  outer loop
    vertex 11.34 -3.932 0
    vertex 11.34 -3.932 5
    vertex 11.327 -3.698 5
  endloop
endfacet
facet normal -0.9984603532054119 -0.055470019622533076 0
  outer loop
    vertex 11.327 -3.698 5
    vertex 11.327 -3.698 0
    vertex 11.34 -3.932 0
  endloop
endfacet
facet normal 0.9984603532054119 -0.055470019622533076 0
  outer loop
    vertex 12.673 -3.698 0
    vertex 12.673 -3.698 5
    vertex 12.66 -3.932 5
  endloop
endfacet
facet normal 0.9984603532054124 -0.055470019622520975 0
  outer loop
    vertex 12.66 -3.932 5
    vertex 12.66 -3.932 0
    vertex 12.673 -3.698 0
  endloop
endfacet
facet normal 0.9837953124402097 0.17929524037372113 0
  outer loop
    vertex 12.519 -2.853 0
    vertex 12.519 -2.853 5
    vertex 12.673 -3.698 5
  endloop
endfacet
facet normal 0.9837953124402101 0.17929524037371788 0
  outer loop
    vertex 12.673 -3.698 5
    vertex 12.673 -3.698 0
    vertex 12.519 -2.853 0
  endloop
endfacet
facet normal -0.9837953124402101 0.17929524037371788 0
  outer loop
    vertex 11.327 -3.698 0
    vertex 11.327 -3.698 5
    vertex 11.481 -2.853 5
  endloop
endfacet
facet normal -0.9837953124402097 0.17929524037372113 0
  outer loop
    vertex 11.481 -2.853 5
    vertex 11.481 -2.853 0
    vertex 11.327 -3.698 0
  endloop
endfacet
facet normal -0.2756791613690796 -0.9612497074053343 0
  outer loop
    vertex 15.034 -3.552 0
    vertex 15.034 -3.552 5
    vertex 14.769 -3.476 5
  endloop
endfacet
facet normal -0.27567916136907417 -0.9612497074053359 0
  outer loop
    vertex 14.769 -3.476 5
    vertex 14.769 -3.476 0
    vertex 15.034 -3.552 0
  endloop
endfacet
facet normal 0.961523947640824 0.274721127897375 0
  outer loop
    vertex 15.472 -2.773 0
    vertex 15.472 -2.773 5
    vertex 15.548 -3.039 5
  endloop
endfacet
facet normal 0.961523947640824 0.274721127897375 0
  outer loop
    vertex 15.548 -3.039 5
    vertex 15.548 -3.039 0
    vertex 15.472 -2.773 0
  endloop
endfacet
facet normal -0.3838057571295424 -0.9234138513116525 0
  outer loop
    vertex 14.769 -3.476 0
    vertex 14.769 -3.476 5
    vertex 14.526 -3.375 5
  endloop
endfacet
facet normal -0.3838057571295271 -0.9234138513116588 0
  outer loop
    vertex 14.526 -3.375 5
    vertex 14.526 -3.375 0
    vertex 14.769 -3.476 0
  endloop
endfacet
facet normal 0.9844700955366844 0.17555235969360142 0
  outer loop
    vertex 15.548 -3.039 0
    vertex 15.548 -3.039 5
    vertex 15.599 -3.325 5
  endloop
endfacet
facet normal 0.984470095536681 0.17555235969362035 0
  outer loop
    vertex 15.599 -3.325 5
    vertex 15.599 -3.325 0
    vertex 15.548 -3.039 0
  endloop
endfacet
facet normal -0.1788854381999825 -0.9838699100999075 0
  outer loop
    vertex 15.32 -3.604 0
    vertex 15.32 -3.604 5
    vertex 15.034 -3.552 5
  endloop
endfacet
facet normal -0.17888543819998595 -0.9838699100999069 0
  outer loop
    vertex 15.034 -3.552 5
    vertex 15.034 -3.552 0
    vertex 15.32 -3.604 0
  endloop
endfacet
facet normal 0.7071067811865448 -0.7071067811865502 0
  outer loop
    vertex 15.599 -3.325 0
    vertex 15.599 -3.325 5
    vertex 15.32 -3.604 5
  endloop
endfacet
facet normal 0.7071067811865448 -0.7071067811865502 0
  outer loop
    vertex 15.32 -3.604 5
    vertex 15.32 -3.604 0
    vertex 15.599 -3.325 0
  endloop
endfacet
facet normal 0.9228511172131487 0.3851568712335834 0
  outer loop
    vertex 15.371 -2.531 0
    vertex 15.371 -2.531 5
    vertex 15.472 -2.773 5
  endloop
endfacet
facet normal 0.9228511172131487 0.3851568712335834 0
  outer loop
    vertex 15.472 -2.773 5
    vertex 15.472 -2.773 0
    vertex 15.371 -2.531 0
  endloop
endfacet
facet normal 0.8627583339515613 0.5056165119901902 0
  outer loop
    vertex 15.245000000000001 -2.316 0
    vertex 15.245000000000001 -2.316 5
    vertex 15.371 -2.531 5
  endloop
endfacet
facet normal 0.8627583339515414 0.5056165119902242 0
  outer loop
    vertex 15.371 -2.531 5
    vertex 15.371 -2.531 0
    vertex 15.245000000000001 -2.316 0
  endloop
endfacet
facet normal -0.5056165119902141 -0.8627583339515474 0
  outer loop
    vertex 14.526 -3.375 0
    vertex 14.526 -3.375 5
    vertex 14.311 -3.249 5
  endloop
endfacet
facet normal -0.5056165119902141 -0.8627583339515474 0
  outer loop
    vertex 14.311 -3.249 5
    vertex 14.311 -3.249 0
    vertex 14.526 -3.375 0
  endloop
endfacet
facet normal -0.669907160056621 -0.7424448780245392 0
  outer loop
    vertex 14.311 -3.249 0
    vertex 14.311 -3.249 5
    vertex 14.137 -3.092 5
  endloop
endfacet
facet normal -0.669907160056621 -0.7424448780245392 0
  outer loop
    vertex 14.137 -3.092 5
    vertex 14.137 -3.092 0
    vertex 14.311 -3.249 0
  endloop
endfacet
facet normal 0.7464672107341996 0.6654221992830596 0
  outer loop
    vertex 15.089 -2.141 0
    vertex 15.089 -2.141 5
    vertex 15.245000000000001 -2.316 5
  endloop
endfacet
facet normal 0.7464672107341996 0.6654221992830596 0
  outer loop
    vertex 15.245000000000001 -2.316 5
    vertex 15.245000000000001 -2.316 0
    vertex 15.089 -2.141 0
  endloop
endfacet
facet normal 0.5693916113424174 0.8220664163757606 0
  outer loop
    vertex 14.383000000000001 -1.6520000000000001 0
    vertex 14.383000000000001 -1.6520000000000001 5
    vertex 15.089 -2.141 5
  endloop
endfacet
facet normal 0.5693916113424174 0.8220664163757606 0
  outer loop
    vertex 15.089 -2.141 5
    vertex 15.089 -2.141 0
    vertex 14.383000000000001 -1.6520000000000001 0
  endloop
endfacet
facet normal 0.923678784542622 -0.38316772174318736 0
  outer loop
    vertex 14.853 -0.519 0
    vertex 14.853 -0.519 5
    vertex 14.383000000000001 -1.6520000000000001 5
  endloop
endfacet
facet normal 0.923678784542622 -0.38316772174318736 0
  outer loop
    vertex 14.383000000000001 -1.6520000000000001 5
    vertex 14.383000000000001 -1.6520000000000001 0
    vertex 14.853 -0.519 0
  endloop
endfacet
facet normal -0.8226114303170267 -0.5686039348366978 0
  outer loop
    vertex 14.137 -3.092 0
    vertex 14.137 -3.092 5
    vertex 13.649000000000001 -2.386 5
  endloop
endfacet
facet normal -0.8226114303170267 -0.5686039348366978 0
  outer loop
    vertex 13.649000000000001 -2.386 5
    vertex 13.649000000000001 -2.386 0
    vertex 14.137 -3.092 0
  endloop
endfacet
facet normal 0.5720737789403301 -0.8202021649867369 0
  outer loop
    vertex 16.896 -0.197 0
    vertex 16.896 -0.197 5
    vertex 16.658 -0.363 5
  endloop
endfacet
facet normal 0.5720737789403301 -0.8202021649867369 0
  outer loop
    vertex 16.658 -0.363 5
    vertex 16.658 -0.363 0
    vertex 16.896 -0.197 0
  endloop
endfacet
facet normal 1 0 0
  outer loop
    vertex 16.896 0.197 0
    vertex 16.896 0.197 5
    vertex 16.896 -0.197 5
  endloop
endfacet
facet normal 1 0 0
  outer loop
    vertex 16.896 -0.197 5
    vertex 16.896 -0.197 0
    vertex 16.896 0.197 0
  endloop
endfacet
facet normal 0.5720737789403301 0.8202021649867369 0
  outer loop
    vertex 16.658 0.363 0
    vertex 16.658 0.363 5
    vertex 16.896 0.197 5
  endloop
endfacet
facet normal 0.5720737789403301 0.8202021649867369 0
  outer loop
    vertex 16.896 0.197 5
    vertex 16.896 0.197 0
    vertex 16.658 0.363 0
  endloop
endfacet
facet normal 0.25291212845965777 0.9674892533139609 0
  outer loop
    vertex 15.932 0.66 0
    vertex 15.932 0.66 5
    vertex 16.173000000000002 0.597 5
  endloop
endfacet
facet normal 0.25291212845966893 0.9674892533139579 0
  outer loop
    vertex 16.173000000000002 0.597 5
    vertex 16.173000000000002 0.597 0
    vertex 15.932 0.66 0
  endloop
endfacet
facet normal -0.38515687123358416 0.9228511172131485 0
  outer loop
    vertex 14.531 3.371 0
    vertex 14.531 3.371 5
    vertex 14.773 3.472 5
  endloop
endfacet
facet normal -0.3851568712335918 0.9228511172131452 0
  outer loop
    vertex 14.773 3.472 5
    vertex 14.773 3.472 0
    vertex 14.531 3.371 0
  endloop
endfacet
facet normal 0.9612497074053361 -0.2756791613690741 0
  outer loop
    vertex 15.552 3.0340000000000003 0
    vertex 15.552 3.0340000000000003 5
    vertex 15.476 2.769 5
  endloop
endfacet
facet normal 0.9612497074053415 -0.275679161369055 0
  outer loop
    vertex 15.476 2.769 5
    vertex 15.476 2.769 0
    vertex 15.552 3.0340000000000003 0
  endloop
endfacet
facet normal 0.9838699100999051 -0.17888543819999603 0
  outer loop
    vertex 15.604000000000001 3.3200000000000003 0
    vertex 15.604000000000001 3.3200000000000003 5
    vertex 15.552 3.0340000000000003 5
  endloop
endfacet
facet normal 0.9838699100999051 -0.17888543819999603 0
  outer loop
    vertex 15.552 3.0340000000000003 5
    vertex 15.552 3.0340000000000003 0
    vertex 15.604000000000001 3.3200000000000003 0
  endloop
endfacet
facet normal 0.7071067811865448 0.7071067811865502 0
  outer loop
    vertex 15.325000000000001 3.599 0
    vertex 15.325000000000001 3.599 5
    vertex 15.604000000000001 3.3200000000000003 5
  endloop
endfacet
facet normal 0.7071067811865448 0.7071067811865502 0
  outer loop
    vertex 15.604000000000001 3.3200000000000003 5
    vertex 15.604000000000001 3.3200000000000003 0
    vertex 15.325000000000001 3.599 0
  endloop
endfacet
facet normal 0.5686039348366979 -0.8226114303170264 0
  outer loop
    vertex 15.092 2.137 0
    vertex 15.092 2.137 5
    vertex 14.386000000000001 1.649 5
  endloop
endfacet
facet normal 0.5686039348366979 -0.8226114303170264 0
  outer loop
    vertex 14.386000000000001 1.649 5
    vertex 14.386000000000001 1.649 0
    vertex 15.092 2.137 0
  endloop
endfacet
facet normal 0.25291212845966893 -0.9674892533139579 0
  outer loop
    vertex 16.173000000000002 -0.597 0
    vertex 16.173000000000002 -0.597 5
    vertex 15.932 -0.66 5
  endloop
endfacet
facet normal 0.25291212845965777 -0.9674892533139609 0
  outer loop
    vertex 15.932 -0.66 5
    vertex 15.932 -0.66 0
    vertex 16.173000000000002 -0.597 0
  endloop
endfacet
facet normal 0.055470019622523556 0.9984603532054125 0
  outer loop
    vertex 15.698 0.673 0
    vertex 15.698 0.673 5
    vertex 15.932 0.66 5
  endloop
endfacet
facet normal 0.055470019622523556 0.9984603532054125 0
  outer loop
    vertex 15.932 0.66 5
    vertex 15.932 0.66 0
    vertex 15.698 0.673 0
  endloop
endfacet
facet normal 0.055470019622523556 -0.9984603532054125 0
  outer loop
    vertex 15.932 -0.66 0
    vertex 15.932 -0.66 5
    vertex 15.698 -0.673 5
  endloop
endfacet
facet normal 0.055470019622523556 -0.9984603532054125 0
  outer loop
    vertex 15.698 -0.673 5
    vertex 15.698 -0.673 0
    vertex 15.932 -0.66 0
  endloop
endfacet
facet normal -0.17929524037371902 0.9837953124402101 0
  outer loop
    vertex 14.853 0.519 0
    vertex 14.853 0.519 5
    vertex 15.698 0.673 5
  endloop
endfacet
facet normal -0.17929524037371783 0.9837953124402101 0
  outer loop
    vertex 15.698 0.673 5
    vertex 15.698 0.673 0
    vertex 14.853 0.519 0
  endloop
endfacet
facet normal -0.17929524037371783 -0.9837953124402101 0
  outer loop
    vertex 15.698 -0.673 0
    vertex 15.698 -0.673 5
    vertex 14.853 -0.519 5
  endloop
endfacet
facet normal -0.17929524037371902 -0.9837953124402101 0
  outer loop
    vertex 14.853 -0.519 5
    vertex 14.853 -0.519 0
    vertex 15.698 -0.673 0
  endloop
endfacet
facet normal 0.38316772174318875 0.9236787845426214 0
  outer loop
    vertex 12.519 2.853 0
    vertex 12.519 2.853 5
    vertex 13.652000000000001 2.383 5
  endloop
endfacet
facet normal 0.3831677217431871 0.923678784542622 0
  outer loop
    vertex 13.652000000000001 2.383 5
    vertex 13.652000000000001 2.383 0
    vertex 12.519 2.853 0
  endloop
endfacet
facet normal -0.27472112789737585 0.9615239476408237 0
  outer loop
    vertex 14.773 3.472 0
    vertex 14.773 3.472 5
    vertex 15.039 3.548 5
  endloop
endfacet
facet normal -0.2747211278973813 0.9615239476408222 0
  outer loop
    vertex 15.039 3.548 5
    vertex 15.039 3.548 0
    vertex 14.773 3.472 0
  endloop
endfacet
facet normal 0.8627583339515514 -0.5056165119902072 0
  outer loop
    vertex 15.375 2.5260000000000002 0
    vertex 15.375 2.5260000000000002 5
    vertex 15.249 2.311 5
  endloop
endfacet
facet normal 0.8627583339515514 -0.5056165119902072 0
  outer loop
    vertex 15.249 2.311 5
    vertex 15.249 2.311 0
    vertex 15.375 2.5260000000000002 0
  endloop
endfacet
facet normal -0.5056165119902041 0.8627583339515532 0
  outer loop
    vertex 14.316 3.245 0
    vertex 14.316 3.245 5
    vertex 14.531 3.371 5
  endloop
endfacet
facet normal -0.5056165119902141 0.8627583339515474 0
  outer loop
    vertex 14.531 3.371 5
    vertex 14.531 3.371 0
    vertex 14.316 3.245 0
  endloop
endfacet
facet normal 0.7424448780245387 -0.6699071600566214 0
  outer loop
    vertex 15.249 2.311 0
    vertex 15.249 2.311 5
    vertex 15.092 2.137 5
  endloop
endfacet
facet normal 0.7424448780245387 -0.6699071600566214 0
  outer loop
    vertex 15.092 2.137 5
    vertex 15.092 2.137 0
    vertex 15.249 2.311 0
  endloop
endfacet
facet normal -0.6654221992830591 0.7464672107342003 0
  outer loop
    vertex 14.141 3.089 0
    vertex 14.141 3.089 5
    vertex 14.316 3.245 5
  endloop
endfacet
facet normal -0.6654221992830591 0.7464672107342003 0
  outer loop
    vertex 14.316 3.245 5
    vertex 14.316 3.245 0
    vertex 14.141 3.089 0
  endloop
endfacet
facet normal -0.8220664163757612 0.5693916113424166 0
  outer loop
    vertex 13.652000000000001 2.383 0
    vertex 13.652000000000001 2.383 5
    vertex 14.141 3.089 5
  endloop
endfacet
facet normal -0.8220664163757612 0.5693916113424166 0
  outer loop
    vertex 14.141 3.089 5
    vertex 14.141 3.089 0
    vertex 13.652000000000001 2.383 0
  endloop
endfacet
endsolid JSxCAD
