solid JSxCAD
facet normal -0.9240539990811253 0.3822619609406352 0
  outer loop
    vertex -6 0 -4
    vertex -6 0 0
    vertex -4.246 4.24 0
  endloop
endfacet
facet normal 0 0 -1
  outer loop
    vertex -6 0 -4
    vertex -4.246 4.24 -4
    vertex -3.596 1.7530000000000001 -4
  endloop
endfacet
facet normal -0.9240539990811253 0.3822619609406352 0
  outer loop
    vertex -6 0 -4
    vertex -4.246 4.24 0
    vertex -4.246 4.24 -4
  endloop
endfacet
facet normal -0.9237834125269129 -0.3829154041562332 0
  outer loop
    vertex -6 0 -4
    vertex -4.24 -4.246 -4
    vertex -6 0 0
  endloop
endfacet
facet normal 0 0 -1
  outer loop
    vertex -6 0 -4
    vertex -3.997 0.14300000000000002 -4
    vertex -3.978 -0.42 -4
  endloop
endfacet
facet normal 0 0 -1
  outer loop
    vertex -6 0 -4
    vertex -3.978 -0.42 -4
    vertex -3.882 -0.965 -4
  endloop
endfacet
facet normal 0 0 -1
  outer loop
    vertex -6 0 -4
    vertex -3.939 0.6960000000000001 -4
    vertex -3.997 0.14300000000000002 -4
  endloop
endfacet
facet normal 0 0 -1
  outer loop
    vertex -6 0 -4
    vertex -3.882 -0.965 -4
    vertex -3.709 -1.499 -4
  endloop
endfacet
facet normal 0 0 -1
  outer loop
    vertex -6 0 -4
    vertex -3.805 1.232 -4
    vertex -3.939 0.6960000000000001 -4
  endloop
endfacet
facet normal 0 0 -1
  outer loop
    vertex -6 0 -4
    vertex -3.709 -1.499 -4
    vertex -4.24 -4.246 -4
  endloop
endfacet
facet normal 0 0 -1
  outer loop
    vertex -6 0 -4
    vertex -3.596 1.7530000000000001 -4
    vertex -3.805 1.232 -4
  endloop
endfacet
facet normal -0.9237834125269129 0.3829154041562332 0
  outer loop
    vertex -6 0 0
    vertex -6 0 4
    vertex -4.24 4.246 4
  endloop
endfacet
facet normal -0.9240539990811253 -0.3822619609406352 0
  outer loop
    vertex -6 0 0
    vertex -4.246 -4.24 0
    vertex -6 0 4
  endloop
endfacet
facet normal -0.9237834125269129 -0.3829154041562332 0
  outer loop
    vertex -6 0 0
    vertex -4.24 -4.246 -4
    vertex -4.24 -4.246 0
  endloop
endfacet
facet normal 0 0 1
  outer loop
    vertex -6 0 0
    vertex -4.24 -4.246 0
    vertex -3.709 -1.499 0
  endloop
endfacet
facet normal 0 0 -1
  outer loop
    vertex -6 0 0
    vertex -4.24 4.246 0
    vertex -3.709 1.499 0
  endloop
endfacet
facet normal -0.9237834125269129 0.3829154041562332 0
  outer loop
    vertex -6 0 0
    vertex -4.24 4.246 4
    vertex -4.24 4.246 0
  endloop
endfacet
facet normal 0 0 -1
  outer loop
    vertex -6 0 0
    vertex -3.997 -0.14300000000000002 0
    vertex -3.939 -0.6960000000000001 0
  endloop
endfacet
facet normal 0 0 1
  outer loop
    vertex -6 0 0
    vertex -3.997 0.14300000000000002 0
    vertex -3.939 0.6960000000000001 0
  endloop
endfacet
facet normal 0 0 1
  outer loop
    vertex -6 0 0
    vertex -3.978 -0.42 0
    vertex -3.997 0.14300000000000002 0
  endloop
endfacet
facet normal 0 0 -1
  outer loop
    vertex -6 0 0
    vertex -3.978 0.42 0
    vertex -3.997 -0.14300000000000002 0
  endloop
endfacet
facet normal 0 0 -1
  outer loop
    vertex -6 0 0
    vertex -3.939 -0.6960000000000001 0
    vertex -3.805 -1.232 0
  endloop
endfacet
facet normal 0 0 1
  outer loop
    vertex -6 0 0
    vertex -3.939 0.6960000000000001 0
    vertex -3.805 1.232 0
  endloop
endfacet
facet normal 0 0 1
  outer loop
    vertex -6 0 0
    vertex -3.882 -0.965 0
    vertex -3.978 -0.42 0
  endloop
endfacet
facet normal 0 0 -1
  outer loop
    vertex -6 0 0
    vertex -3.882 0.965 0
    vertex -3.978 0.42 0
  endloop
endfacet
facet normal 0 0 -1
  outer loop
    vertex -6 0 0
    vertex -3.805 -1.232 0
    vertex -3.596 -1.7530000000000001 0
  endloop
endfacet
facet normal 0 0 1
  outer loop
    vertex -6 0 0
    vertex -3.805 1.232 0
    vertex -3.596 1.7530000000000001 0
  endloop
endfacet
facet normal 0 0 1
  outer loop
    vertex -6 0 0
    vertex -3.709 -1.499 0
    vertex -3.882 -0.965 0
  endloop
endfacet
facet normal 0 0 -1
  outer loop
    vertex -6 0 0
    vertex -3.709 1.499 0
    vertex -3.882 0.965 0
  endloop
endfacet
facet normal 0 0 -1
  outer loop
    vertex -6 0 0
    vertex -3.596 -1.7530000000000001 0
    vertex -4.246 -4.24 0
  endloop
endfacet
facet normal 0 0 1
  outer loop
    vertex -6 0 0
    vertex -3.596 1.7530000000000001 0
    vertex -4.246 4.24 0
  endloop
endfacet
facet normal -0.9240539990811253 -0.3822619609406352 0
  outer loop
    vertex -6 0 4
    vertex -4.246 -4.24 0
    vertex -4.246 -4.24 4
  endloop
endfacet
facet normal 0 0 1
  outer loop
    vertex -6 0 4
    vertex -4.246 -4.24 4
    vertex -3.596 -1.7530000000000001 4
  endloop
endfacet
facet normal 0 0 1
  outer loop
    vertex -6 0 4
    vertex -3.997 -0.14300000000000002 4
    vertex -3.978 0.42 4
  endloop
endfacet
facet normal 0 0 1
  outer loop
    vertex -6 0 4
    vertex -3.978 0.42 4
    vertex -3.882 0.965 4
  endloop
endfacet
facet normal 0 0 1
  outer loop
    vertex -6 0 4
    vertex -3.939 -0.6960000000000001 4
    vertex -3.997 -0.14300000000000002 4
  endloop
endfacet
facet normal 0 0 1
  outer loop
    vertex -6 0 4
    vertex -3.882 0.965 4
    vertex -3.709 1.499 4
  endloop
endfacet
facet normal 0 0 1
  outer loop
    vertex -6 0 4
    vertex -3.805 -1.232 4
    vertex -3.939 -0.6960000000000001 4
  endloop
endfacet
facet normal 0 0 1
  outer loop
    vertex -6 0 4
    vertex -3.709 1.499 4
    vertex -4.24 4.246 4
  endloop
endfacet
facet normal 0 0 1
  outer loop
    vertex -6 0 4
    vertex -3.596 -1.7530000000000001 4
    vertex -3.805 -1.232 4
  endloop
endfacet
facet normal 0 0 -1
  outer loop
    vertex -4.246 -4.24 0
    vertex -3.596 -1.7530000000000001 0
    vertex -3.317 -2.236 0
  endloop
endfacet
facet normal 0 0 -1
  outer loop
    vertex -4.246 -4.24 0
    vertex -3.317 -2.236 0
    vertex -2.969 -2.68 0
  endloop
endfacet
facet normal 0 0 -1
  outer loop
    vertex -4.246 -4.24 0
    vertex -2.969 -2.68 0
    vertex -2.569 -3.0660000000000003 0
  endloop
endfacet
facet normal 0 0 -1
  outer loop
    vertex -4.246 -4.24 0
    vertex -2.569 -3.0660000000000003 0
    vertex -2.124 -3.39 0
  endloop
endfacet
facet normal 0 0 -1
  outer loop
    vertex -4.246 -4.24 0
    vertex -2.124 -3.39 0
    vertex -1.624 -3.656 0
  endloop
endfacet
facet normal 0 0 -1
  outer loop
    vertex -4.246 -4.24 0
    vertex -1.624 -3.656 0
    vertex 0 -6 0
  endloop
endfacet
facet normal -0.3829154041562332 -0.9237834125269129 0
  outer loop
    vertex -4.246 -4.24 0
    vertex 0 -6 0
    vertex -4.246 -4.24 4
  endloop
endfacet
facet normal 0 0 1
  outer loop
    vertex -4.246 -4.24 4
    vertex -3.317 -2.236 4
    vertex -3.596 -1.7530000000000001 4
  endloop
endfacet
facet normal 0 0 1
  outer loop
    vertex -4.246 -4.24 4
    vertex -2.969 -2.68 4
    vertex -3.317 -2.236 4
  endloop
endfacet
facet normal 0 0 1
  outer loop
    vertex -4.246 -4.24 4
    vertex -2.569 -3.0660000000000003 4
    vertex -2.969 -2.68 4
  endloop
endfacet
facet normal 0 0 1
  outer loop
    vertex -4.246 -4.24 4
    vertex -2.124 -3.39 4
    vertex -2.569 -3.0660000000000003 4
  endloop
endfacet
facet normal 0 0 1
  outer loop
    vertex -4.246 -4.24 4
    vertex -1.624 -3.656 4
    vertex -2.124 -3.39 4
  endloop
endfacet
facet normal -0.3829154041562332 -0.9237834125269129 0
  outer loop
    vertex -4.246 -4.24 4
    vertex 0 -6 0
    vertex 0 -6 4
  endloop
endfacet
facet normal 0 0 1
  outer loop
    vertex -4.246 -4.24 4
    vertex 0 -6 4
    vertex -1.624 -3.656 4
  endloop
endfacet
facet normal -0.3829154041562332 0.9237834125269129 0
  outer loop
    vertex -4.246 4.24 -4
    vertex -4.246 4.24 0
    vertex 0 6 0
  endloop
endfacet
facet normal 0 0 -1
  outer loop
    vertex -4.246 4.24 -4
    vertex -3.317 2.236 -4
    vertex -3.596 1.7530000000000001 -4
  endloop
endfacet
facet normal 0 0 -1
  outer loop
    vertex -4.246 4.24 -4
    vertex -2.969 2.68 -4
    vertex -3.317 2.236 -4
  endloop
endfacet
facet normal 0 0 -1
  outer loop
    vertex -4.246 4.24 -4
    vertex -2.569 3.0660000000000003 -4
    vertex -2.969 2.68 -4
  endloop
endfacet
facet normal 0 0 -1
  outer loop
    vertex -4.246 4.24 -4
    vertex -2.124 3.39 -4
    vertex -2.569 3.0660000000000003 -4
  endloop
endfacet
facet normal 0 0 -1
  outer loop
    vertex -4.246 4.24 -4
    vertex -1.624 3.656 -4
    vertex -2.124 3.39 -4
  endloop
endfacet
facet normal 0 0 -1
  outer loop
    vertex -4.246 4.24 -4
    vertex 0 6 -4
    vertex -1.624 3.656 -4
  endloop
endfacet
facet normal -0.3829154041562332 0.9237834125269129 0
  outer loop
    vertex -4.246 4.24 -4
    vertex 0 6 0
    vertex 0 6 -4
  endloop
endfacet
facet normal 0 0 1
  outer loop
    vertex -4.246 4.24 0
    vertex -3.596 1.7530000000000001 0
    vertex -3.317 2.236 0
  endloop
endfacet
facet normal 0 0 1
  outer loop
    vertex -4.246 4.24 0
    vertex -3.317 2.236 0
    vertex -2.969 2.68 0
  endloop
endfacet
facet normal 0 0 1
  outer loop
    vertex -4.246 4.24 0
    vertex -2.969 2.68 0
    vertex -2.569 3.0660000000000003 0
  endloop
endfacet
facet normal 0 0 1
  outer loop
    vertex -4.246 4.24 0
    vertex -2.569 3.0660000000000003 0
    vertex -2.124 3.39 0
  endloop
endfacet
facet normal 0 0 1
  outer loop
    vertex -4.246 4.24 0
    vertex -2.124 3.39 0
    vertex -1.624 3.656 0
  endloop
endfacet
facet normal 0 0 1
  outer loop
    vertex -4.246 4.24 0
    vertex -1.624 3.656 0
    vertex 0 6 0
  endloop
endfacet
facet normal 0 0 -1
  outer loop
    vertex -4.24 -4.246 -4
    vertex -3.709 -1.499 -4
    vertex -3.463 -2.0020000000000002 -4
  endloop
endfacet
facet normal 0 0 -1
  outer loop
    vertex -4.24 -4.246 -4
    vertex -3.463 -2.0020000000000002 -4
    vertex -3.15 -2.465 -4
  endloop
endfacet
facet normal 0 0 -1
  outer loop
    vertex -4.24 -4.246 -4
    vertex -3.15 -2.465 -4
    vertex -2.782 -2.874 -4
  endloop
endfacet
facet normal 0 0 -1
  outer loop
    vertex -4.24 -4.246 -4
    vertex -2.782 -2.874 -4
    vertex -2.348 -3.239 -4
  endloop
endfacet
facet normal 0 0 -1
  outer loop
    vertex -4.24 -4.246 -4
    vertex -2.348 -3.239 -4
    vertex -1.874 -3.5340000000000003 -4
  endloop
endfacet
facet normal 0 0 -1
  outer loop
    vertex -4.24 -4.246 -4
    vertex -1.874 -3.5340000000000003 -4
    vertex -1.369 -3.758 -4
  endloop
endfacet
facet normal 0 0 -1
  outer loop
    vertex -4.24 -4.246 -4
    vertex -1.369 -3.758 -4
    vertex 0 -6 -4
  endloop
endfacet
facet normal -0.3822619609406352 -0.9240539990811253 0
  outer loop
    vertex -4.24 -4.246 -4
    vertex 0 -6 -4
    vertex -4.24 -4.246 0
  endloop
endfacet
facet normal 0 0 1
  outer loop
    vertex -4.24 -4.246 0
    vertex -3.463 -2.0020000000000002 0
    vertex -3.709 -1.499 0
  endloop
endfacet
facet normal 0 0 1
  outer loop
    vertex -4.24 -4.246 0
    vertex -3.15 -2.465 0
    vertex -3.463 -2.0020000000000002 0
  endloop
endfacet
facet normal 0 0 1
  outer loop
    vertex -4.24 -4.246 0
    vertex -2.782 -2.874 0
    vertex -3.15 -2.465 0
  endloop
endfacet
facet normal 0 0 1
  outer loop
    vertex -4.24 -4.246 0
    vertex -2.348 -3.239 0
    vertex -2.782 -2.874 0
  endloop
endfacet
facet normal 0 0 1
  outer loop
    vertex -4.24 -4.246 0
    vertex -1.874 -3.5340000000000003 0
    vertex -2.348 -3.239 0
  endloop
endfacet
facet normal 0 0 1
  outer loop
    vertex -4.24 -4.246 0
    vertex -1.369 -3.758 0
    vertex -1.874 -3.5340000000000003 0
  endloop
endfacet
facet normal -0.3822619609406352 -0.9240539990811253 0
  outer loop
    vertex -4.24 -4.246 0
    vertex 0 -6 -4
    vertex 0 -6 0
  endloop
endfacet
facet normal 0 0 1
  outer loop
    vertex -4.24 -4.246 0
    vertex 0 -6 0
    vertex -1.369 -3.758 0
  endloop
endfacet
facet normal -0.3822619609406352 0.9240539990811253 0
  outer loop
    vertex -4.24 4.246 0
    vertex -4.24 4.246 4
    vertex 0 6 4
  endloop
endfacet
facet normal 0 0 -1
  outer loop
    vertex -4.24 4.246 0
    vertex -3.463 2.0020000000000002 0
    vertex -3.709 1.499 0
  endloop
endfacet
facet normal 0 0 -1
  outer loop
    vertex -4.24 4.246 0
    vertex -3.15 2.465 0
    vertex -3.463 2.0020000000000002 0
  endloop
endfacet
facet normal 0 0 -1
  outer loop
    vertex -4.24 4.246 0
    vertex -2.782 2.874 0
    vertex -3.15 2.465 0
  endloop
endfacet
facet normal 0 0 -1
  outer loop
    vertex -4.24 4.246 0
    vertex -2.348 3.239 0
    vertex -2.782 2.874 0
  endloop
endfacet
facet normal 0 0 -1
  outer loop
    vertex -4.24 4.246 0
    vertex -1.874 3.5340000000000003 0
    vertex -2.348 3.239 0
  endloop
endfacet
facet normal 0 0 -1
  outer loop
    vertex -4.24 4.246 0
    vertex -1.369 3.758 0
    vertex -1.874 3.5340000000000003 0
  endloop
endfacet
facet normal 0 0 -1
  outer loop
    vertex -4.24 4.246 0
    vertex 0 6 0
    vertex -1.369 3.758 0
  endloop
endfacet
facet normal -0.3822619609406352 0.9240539990811253 0
  outer loop
    vertex -4.24 4.246 0
    vertex 0 6 4
    vertex 0 6 0
  endloop
endfacet
facet normal 0 0 1
  outer loop
    vertex -4.24 4.246 4
    vertex -3.709 1.499 4
    vertex -3.463 2.0020000000000002 4
  endloop
endfacet
facet normal 0 0 1
  outer loop
    vertex -4.24 4.246 4
    vertex -3.463 2.0020000000000002 4
    vertex -3.15 2.465 4
  endloop
endfacet
facet normal 0 0 1
  outer loop
    vertex -4.24 4.246 4
    vertex -3.15 2.465 4
    vertex -2.782 2.874 4
  endloop
endfacet
facet normal 0 0 1
  outer loop
    vertex -4.24 4.246 4
    vertex -2.782 2.874 4
    vertex -2.348 3.239 4
  endloop
endfacet
facet normal 0 0 1
  outer loop
    vertex -4.24 4.246 4
    vertex -2.348 3.239 4
    vertex -1.874 3.5340000000000003 4
  endloop
endfacet
facet normal 0 0 1
  outer loop
    vertex -4.24 4.246 4
    vertex -1.874 3.5340000000000003 4
    vertex -1.369 3.758 4
  endloop
endfacet
facet normal 0 0 1
  outer loop
    vertex -4.24 4.246 4
    vertex -1.369 3.758 4
    vertex 0 6 4
  endloop
endfacet
facet normal 0.9945448005786952 0.10431030458149032 0
  outer loop
    vertex -3.997 -0.14300000000000002 0
    vertex -3.997 -0.14300000000000002 4
    vertex -3.939 -0.6960000000000001 4
  endloop
endfacet
facet normal 0.9994310296404774 -0.03372857826495339 0
  outer loop
    vertex -3.997 -0.14300000000000002 0
    vertex -3.978 0.42 0
    vertex -3.997 -0.14300000000000002 4
  endloop
endfacet
facet normal 0.9945448005786952 0.10431030458149032 0
  outer loop
    vertex -3.997 -0.14300000000000002 0
    vertex -3.939 -0.6960000000000001 4
    vertex -3.939 -0.6960000000000001 0
  endloop
endfacet
facet normal 0.9994310296404774 -0.03372857826495339 0
  outer loop
    vertex -3.997 -0.14300000000000002 4
    vertex -3.978 0.42 0
    vertex -3.978 0.42 4
  endloop
endfacet
facet normal 0.9994310296404774 0.03372857826495339 0
  outer loop
    vertex -3.997 0.14300000000000002 -4
    vertex -3.997 0.14300000000000002 0
    vertex -3.978 -0.42 0
  endloop
endfacet
facet normal 0.9994310296404774 0.03372857826495339 0
  outer loop
    vertex -3.997 0.14300000000000002 -4
    vertex -3.978 -0.42 0
    vertex -3.978 -0.42 -4
  endloop
endfacet
facet normal 0.9945448005786952 -0.10431030458149032 0
  outer loop
    vertex -3.997 0.14300000000000002 -4
    vertex -3.939 0.6960000000000001 -4
    vertex -3.997 0.14300000000000002 0
  endloop
endfacet
facet normal 0.9945448005786952 -0.10431030458149032 0
  outer loop
    vertex -3.997 0.14300000000000002 0
    vertex -3.939 0.6960000000000001 -4
    vertex -3.939 0.6960000000000001 0
  endloop
endfacet
facet normal 0.9848380853632774 0.17347606641261418 0
  outer loop
    vertex -3.978 -0.42 -4
    vertex -3.978 -0.42 0
    vertex -3.882 -0.965 0
  endloop
endfacet
facet normal 0.9848380853632774 0.17347606641261418 0
  outer loop
    vertex -3.978 -0.42 -4
    vertex -3.882 -0.965 0
    vertex -3.882 -0.965 -4
  endloop
endfacet
facet normal 0.9848380853632774 -0.17347606641261418 0
  outer loop
    vertex -3.978 0.42 0
    vertex -3.882 0.965 0
    vertex -3.978 0.42 4
  endloop
endfacet
facet normal 0.9848380853632774 -0.17347606641261418 0
  outer loop
    vertex -3.978 0.42 4
    vertex -3.882 0.965 0
    vertex -3.882 0.965 4
  endloop
endfacet
facet normal 0.970142500145332 0.24253562503633283 0
  outer loop
    vertex -3.939 -0.6960000000000001 0
    vertex -3.939 -0.6960000000000001 4
    vertex -3.805 -1.232 4
  endloop
endfacet
facet normal 0.970142500145332 0.24253562503633283 0
  outer loop
    vertex -3.939 -0.6960000000000001 0
    vertex -3.805 -1.232 4
    vertex -3.805 -1.232 0
  endloop
endfacet
facet normal 0.970142500145332 -0.24253562503633283 0
  outer loop
    vertex -3.939 0.6960000000000001 -4
    vertex -3.805 1.232 -4
    vertex -3.939 0.6960000000000001 0
  endloop
endfacet
facet normal 0.970142500145332 -0.24253562503633283 0
  outer loop
    vertex -3.939 0.6960000000000001 0
    vertex -3.805 1.232 -4
    vertex -3.805 1.232 0
  endloop
endfacet
facet normal 0.9513216769411251 0.30819971930864165 0
  outer loop
    vertex -3.882 -0.965 -4
    vertex -3.882 -0.965 0
    vertex -3.709 -1.499 0
  endloop
endfacet
facet normal 0.9513216769411251 0.30819971930864165 0
  outer loop
    vertex -3.882 -0.965 -4
    vertex -3.709 -1.499 0
    vertex -3.709 -1.499 -4
  endloop
endfacet
facet normal 0.9513216769411251 -0.30819971930864165 0
  outer loop
    vertex -3.882 0.965 0
    vertex -3.709 1.499 0
    vertex -3.882 0.965 4
  endloop
endfacet
facet normal 0.9513216769411251 -0.30819971930864165 0
  outer loop
    vertex -3.882 0.965 4
    vertex -3.709 1.499 0
    vertex -3.709 1.499 4
  endloop
endfacet
facet normal 0.928107668854762 0.37231190554826354 0
  outer loop
    vertex -3.805 -1.232 0
    vertex -3.805 -1.232 4
    vertex -3.596 -1.7530000000000001 4
  endloop
endfacet
facet normal 0.928107668854762 0.37231190554826354 0
  outer loop
    vertex -3.805 -1.232 0
    vertex -3.596 -1.7530000000000001 4
    vertex -3.596 -1.7530000000000001 0
  endloop
endfacet
facet normal 0.928107668854762 -0.37231190554826354 0
  outer loop
    vertex -3.805 1.232 -4
    vertex -3.596 1.7530000000000001 -4
    vertex -3.805 1.232 0
  endloop
endfacet
facet normal 0.928107668854762 -0.37231190554826354 0
  outer loop
    vertex -3.805 1.232 0
    vertex -3.596 1.7530000000000001 -4
    vertex -3.596 1.7530000000000001 0
  endloop
endfacet
facet normal 0.8983217126230816 0.439338253092004 0
  outer loop
    vertex -3.709 -1.499 -4
    vertex -3.709 -1.499 0
    vertex -3.463 -2.0020000000000002 0
  endloop
endfacet
facet normal 0.8983217126230816 0.439338253092004 0
  outer loop
    vertex -3.709 -1.499 -4
    vertex -3.463 -2.0020000000000002 0
    vertex -3.463 -2.0020000000000002 -4
  endloop
endfacet
facet normal 0.8983217126230816 -0.439338253092004 0
  outer loop
    vertex -3.709 1.499 0
    vertex -3.463 2.0020000000000002 0
    vertex -3.709 1.499 4
  endloop
endfacet
facet normal 0.8983217126230816 -0.439338253092004 0
  outer loop
    vertex -3.709 1.499 4
    vertex -3.463 2.0020000000000002 0
    vertex -3.463 2.0020000000000002 4
  endloop
endfacet
facet normal 0.865916841100504 0.500187988958676 0
  outer loop
    vertex -3.596 -1.7530000000000001 0
    vertex -3.596 -1.7530000000000001 4
    vertex -3.317 -2.236 4
  endloop
endfacet
facet normal 0.865916841100504 0.500187988958676 0
  outer loop
    vertex -3.596 -1.7530000000000001 0
    vertex -3.317 -2.236 4
    vertex -3.317 -2.236 0
  endloop
endfacet
facet normal 0.865916841100504 -0.500187988958676 0
  outer loop
    vertex -3.596 1.7530000000000001 -4
    vertex -3.317 2.236 -4
    vertex -3.596 1.7530000000000001 0
  endloop
endfacet
facet normal 0.865916841100504 -0.500187988958676 0
  outer loop
    vertex -3.596 1.7530000000000001 0
    vertex -3.317 2.236 -4
    vertex -3.317 2.236 0
  endloop
endfacet
facet normal 0.828454342068305 0.5600566070569758 0
  outer loop
    vertex -3.463 -2.0020000000000002 -4
    vertex -3.463 -2.0020000000000002 0
    vertex -3.15 -2.465 0
  endloop
endfacet
facet normal 0.828454342068305 0.5600566070569758 0
  outer loop
    vertex -3.463 -2.0020000000000002 -4
    vertex -3.15 -2.465 0
    vertex -3.15 -2.465 -4
  endloop
endfacet
facet normal 0.828454342068305 -0.5600566070569758 0
  outer loop
    vertex -3.463 2.0020000000000002 0
    vertex -3.15 2.465 0
    vertex -3.463 2.0020000000000002 4
  endloop
endfacet
facet normal 0.828454342068305 -0.5600566070569758 0
  outer loop
    vertex -3.463 2.0020000000000002 4
    vertex -3.15 2.465 0
    vertex -3.15 2.465 4
  endloop
endfacet
facet normal 0.7870559151513062 0.6168816632267001 0
  outer loop
    vertex -3.317 -2.236 0
    vertex -3.317 -2.236 4
    vertex -2.969 -2.68 4
  endloop
endfacet
facet normal 0.7870559151513062 0.6168816632267001 0
  outer loop
    vertex -3.317 -2.236 0
    vertex -2.969 -2.68 4
    vertex -2.969 -2.68 0
  endloop
endfacet
facet normal 0.7870559151513062 -0.6168816632267001 0
  outer loop
    vertex -3.317 2.236 -4
    vertex -2.969 2.68 -4
    vertex -3.317 2.236 0
  endloop
endfacet
facet normal 0.7870559151513062 -0.6168816632267001 0
  outer loop
    vertex -3.317 2.236 0
    vertex -2.969 2.68 -4
    vertex -2.969 2.68 0
  endloop
endfacet
facet normal 0.743384515676579 0.6688643075036206 0
  outer loop
    vertex -3.15 -2.465 -4
    vertex -3.15 -2.465 0
    vertex -2.782 -2.874 0
  endloop
endfacet
facet normal 0.743384515676579 0.6688643075036206 0
  outer loop
    vertex -3.15 -2.465 -4
    vertex -2.782 -2.874 0
    vertex -2.782 -2.874 -4
  endloop
endfacet
facet normal 0.743384515676579 -0.6688643075036206 0
  outer loop
    vertex -3.15 2.465 0
    vertex -2.782 2.874 0
    vertex -3.15 2.465 4
  endloop
endfacet
facet normal 0.743384515676579 -0.6688643075036206 0
  outer loop
    vertex -3.15 2.465 4
    vertex -2.782 2.874 0
    vertex -2.782 2.874 4
  endloop
endfacet
facet normal 0.6944018607824854 0.7195874204999846 0
  outer loop
    vertex -2.969 -2.68 0
    vertex -2.969 -2.68 4
    vertex -2.569 -3.0660000000000003 4
  endloop
endfacet
facet normal 0.6944018607824854 0.7195874204999846 0
  outer loop
    vertex -2.969 -2.68 0
    vertex -2.569 -3.0660000000000003 4
    vertex -2.569 -3.0660000000000003 0
  endloop
endfacet
facet normal 0.6944018607824854 -0.7195874204999846 0
  outer loop
    vertex -2.969 2.68 -4
    vertex -2.569 3.0660000000000003 -4
    vertex -2.969 2.68 0
  endloop
endfacet
facet normal 0.6944018607824854 -0.7195874204999846 0
  outer loop
    vertex -2.969 2.68 0
    vertex -2.569 3.0660000000000003 -4
    vertex -2.569 3.0660000000000003 0
  endloop
endfacet
facet normal 0.6436468879527831 0.7653226010178306 0
  outer loop
    vertex -2.782 -2.874 -4
    vertex -2.782 -2.874 0
    vertex -2.348 -3.239 0
  endloop
endfacet
facet normal 0.6436468879527831 0.7653226010178306 0
  outer loop
    vertex -2.782 -2.874 -4
    vertex -2.348 -3.239 0
    vertex -2.348 -3.239 -4
  endloop
endfacet
facet normal 0.6436468879527831 -0.7653226010178306 0
  outer loop
    vertex -2.782 2.874 0
    vertex -2.348 3.239 0
    vertex -2.782 2.874 4
  endloop
endfacet
facet normal 0.6436468879527831 -0.7653226010178306 0
  outer loop
    vertex -2.782 2.874 4
    vertex -2.348 3.239 0
    vertex -2.348 3.239 4
  endloop
endfacet
facet normal 0.5886036885129212 0.8084217326797839 0
  outer loop
    vertex -2.569 -3.0660000000000003 0
    vertex -2.569 -3.0660000000000003 4
    vertex -2.124 -3.39 4
  endloop
endfacet
facet normal 0.5886036885129212 0.8084217326797839 0
  outer loop
    vertex -2.569 -3.0660000000000003 0
    vertex -2.124 -3.39 4
    vertex -2.124 -3.39 0
  endloop
endfacet
facet normal 0.5886036885129212 -0.8084217326797839 0
  outer loop
    vertex -2.569 3.0660000000000003 -4
    vertex -2.124 3.39 -4
    vertex -2.569 3.0660000000000003 0
  endloop
endfacet
facet normal 0.5886036885129212 -0.8084217326797839 0
  outer loop
    vertex -2.569 3.0660000000000003 0
    vertex -2.124 3.39 -4
    vertex -2.124 3.39 0
  endloop
endfacet
facet normal 0.5283879661927551 0.8490030372046286 0
  outer loop
    vertex -2.348 -3.239 -4
    vertex -2.348 -3.239 0
    vertex -1.874 -3.5340000000000003 0
  endloop
endfacet
facet normal 0.5283879661927551 0.8490030372046286 0
  outer loop
    vertex -2.348 -3.239 -4
    vertex -1.874 -3.5340000000000003 0
    vertex -1.874 -3.5340000000000003 -4
  endloop
endfacet
facet normal 0.5283879661927551 -0.8490030372046286 0
  outer loop
    vertex -2.348 3.239 0
    vertex -1.874 3.5340000000000003 0
    vertex -2.348 3.239 4
  endloop
endfacet
facet normal 0.5283879661927551 -0.8490030372046286 0
  outer loop
    vertex -2.348 3.239 4
    vertex -1.874 3.5340000000000003 0
    vertex -1.874 3.5340000000000003 4
  endloop
endfacet
facet normal 0.469671537277602 0.8828412354842143 0
  outer loop
    vertex -2.124 -3.39 0
    vertex -2.124 -3.39 4
    vertex -1.624 -3.656 4
  endloop
endfacet
facet normal 0.469671537277602 0.8828412354842143 0
  outer loop
    vertex -2.124 -3.39 0
    vertex -1.624 -3.656 4
    vertex -1.624 -3.656 0
  endloop
endfacet
facet normal 0.469671537277602 -0.8828412354842143 0
  outer loop
    vertex -2.124 3.39 -4
    vertex -1.624 3.656 -4
    vertex -2.124 3.39 0
  endloop
endfacet
facet normal 0.469671537277602 -0.8828412354842143 0
  outer loop
    vertex -2.124 3.39 0
    vertex -1.624 3.656 -4
    vertex -1.624 3.656 0
  endloop
endfacet
facet normal 0.40546655972020623 0.9141098779406447 0
  outer loop
    vertex -1.874 -3.5340000000000003 -4
    vertex -1.874 -3.5340000000000003 0
    vertex -1.369 -3.758 0
  endloop
endfacet
facet normal 0.40546655972020623 0.9141098779406447 0
  outer loop
    vertex -1.874 -3.5340000000000003 -4
    vertex -1.369 -3.758 0
    vertex -1.369 -3.758 -4
  endloop
endfacet
facet normal 0.40546655972020623 -0.9141098779406447 0
  outer loop
    vertex -1.874 3.5340000000000003 0
    vertex -1.369 3.758 0
    vertex -1.874 3.5340000000000003 4
  endloop
endfacet
facet normal 0.40546655972020623 -0.9141098779406447 0
  outer loop
    vertex -1.874 3.5340000000000003 4
    vertex -1.369 3.758 0
    vertex -1.369 3.758 4
  endloop
endfacet
facet normal 0.3398653972944174 0.9404740888094194 0
  outer loop
    vertex -1.624 -3.656 0
    vertex -1.624 -3.656 4
    vertex -1.101 -3.845 4
  endloop
endfacet
facet normal 0 0 -1
  outer loop
    vertex -1.624 -3.656 0
    vertex -1.101 -3.845 0
    vertex 0 -6 0
  endloop
endfacet
facet normal 0.3398653972944174 0.9404740888094194 0
  outer loop
    vertex -1.624 -3.656 0
    vertex -1.101 -3.845 4
    vertex -1.101 -3.845 0
  endloop
endfacet
facet normal 0 0 1
  outer loop
    vertex -1.624 -3.656 4
    vertex 0 -6 4
    vertex -1.101 -3.845 4
  endloop
endfacet
facet normal 0.3398653972944174 -0.9404740888094194 0
  outer loop
    vertex -1.624 3.656 -4
    vertex -1.101 3.845 -4
    vertex -1.624 3.656 0
  endloop
endfacet
facet normal 0 0 -1
  outer loop
    vertex -1.624 3.656 -4
    vertex 0 6 -4
    vertex -1.101 3.845 -4
  endloop
endfacet
facet normal 0.3398653972944174 -0.9404740888094194 0
  outer loop
    vertex -1.624 3.656 0
    vertex -1.101 3.845 -4
    vertex -1.101 3.845 0
  endloop
endfacet
facet normal 0 0 1
  outer loop
    vertex -1.624 3.656 0
    vertex -1.101 3.845 0
    vertex 0 6 0
  endloop
endfacet
facet normal 0.2761417977034206 0.9611169062924255 0
  outer loop
    vertex -1.369 -3.758 -4
    vertex -1.369 -3.758 0
    vertex -0.833 -3.912 0
  endloop
endfacet
facet normal 0 0 -1
  outer loop
    vertex -1.369 -3.758 -4
    vertex -0.833 -3.912 -4
    vertex 0 -6 -4
  endloop
endfacet
facet normal 0.2761417977034206 0.9611169062924255 0
  outer loop
    vertex -1.369 -3.758 -4
    vertex -0.833 -3.912 0
    vertex -0.833 -3.912 -4
  endloop
endfacet
facet normal 0 0 1
  outer loop
    vertex -1.369 -3.758 0
    vertex 0 -6 0
    vertex -0.833 -3.912 0
  endloop
endfacet
facet normal 0.2761417977034206 -0.9611169062924255 0
  outer loop
    vertex -1.369 3.758 0
    vertex -0.833 3.912 0
    vertex -1.369 3.758 4
  endloop
endfacet
facet normal 0 0 -1
  outer loop
    vertex -1.369 3.758 0
    vertex 0 6 0
    vertex -0.833 3.912 0
  endloop
endfacet
facet normal 0.2761417977034206 -0.9611169062924255 0
  outer loop
    vertex -1.369 3.758 4
    vertex -0.833 3.912 0
    vertex -0.833 3.912 4
  endloop
endfacet
facet normal 0 0 1
  outer loop
    vertex -1.369 3.758 4
    vertex -0.833 3.912 4
    vertex 0 6 4
  endloop
endfacet
facet normal 0.2078159027838978 0.9781679562069662 0
  outer loop
    vertex -1.101 -3.845 0
    vertex -1.101 -3.845 4
    vertex -0.555 -3.9610000000000003 4
  endloop
endfacet
facet normal 0 0 -1
  outer loop
    vertex -1.101 -3.845 0
    vertex -0.555 -3.9610000000000003 0
    vertex 0 -6 0
  endloop
endfacet
facet normal 0.2078159027838978 0.9781679562069662 0
  outer loop
    vertex -1.101 -3.845 0
    vertex -0.555 -3.9610000000000003 4
    vertex -0.555 -3.9610000000000003 0
  endloop
endfacet
facet normal 0 0 1
  outer loop
    vertex -1.101 -3.845 4
    vertex 0 -6 4
    vertex -0.555 -3.9610000000000003 4
  endloop
endfacet
facet normal 0.2078159027838978 -0.9781679562069662 0
  outer loop
    vertex -1.101 3.845 -4
    vertex -0.555 3.9610000000000003 -4
    vertex -1.101 3.845 0
  endloop
endfacet
facet normal 0 0 -1
  outer loop
    vertex -1.101 3.845 -4
    vertex 0 6 -4
    vertex -0.555 3.9610000000000003 -4
  endloop
endfacet
facet normal 0.2078159027838978 -0.9781679562069662 0
  outer loop
    vertex -1.101 3.845 0
    vertex -0.555 3.9610000000000003 -4
    vertex -0.555 3.9610000000000003 0
  endloop
endfacet
facet normal 0 0 1
  outer loop
    vertex -1.101 3.845 0
    vertex -0.555 3.9610000000000003 0
    vertex 0 6 0
  endloop
endfacet
facet normal 0.1386827205488008 0.9903368634061761 0
  outer loop
    vertex -0.833 -3.912 -4
    vertex -0.833 -3.912 0
    vertex -0.276 -3.99 0
  endloop
endfacet
facet normal 0 0 -1
  outer loop
    vertex -0.833 -3.912 -4
    vertex -0.276 -3.99 -4
    vertex 0 -6 -4
  endloop
endfacet
facet normal 0.1386827205488008 0.9903368634061761 0
  outer loop
    vertex -0.833 -3.912 -4
    vertex -0.276 -3.99 0
    vertex -0.276 -3.99 -4
  endloop
endfacet
facet normal 0 0 1
  outer loop
    vertex -0.833 -3.912 0
    vertex 0 -6 0
    vertex -0.276 -3.99 0
  endloop
endfacet
facet normal 0.1386827205488008 -0.9903368634061761 0
  outer loop
    vertex -0.833 3.912 0
    vertex -0.276 3.99 0
    vertex -0.833 3.912 4
  endloop
endfacet
facet normal 0 0 -1
  outer loop
    vertex -0.833 3.912 0
    vertex 0 6 0
    vertex -0.276 3.99 0
  endloop
endfacet
facet normal 0.1386827205488008 -0.9903368634061761 0
  outer loop
    vertex -0.833 3.912 4
    vertex -0.276 3.99 0
    vertex -0.276 3.99 4
  endloop
endfacet
facet normal 0 0 1
  outer loop
    vertex -0.833 3.912 4
    vertex -0.276 3.99 4
    vertex 0 6 4
  endloop
endfacet
facet normal 0.07009741599556311 0.9975401507060981 0
  outer loop
    vertex -0.555 -3.9610000000000003 0
    vertex -0.555 -3.9610000000000003 4
    vertex 0 -4 4
  endloop
endfacet
facet normal 0 0 -1
  outer loop
    vertex -0.555 -3.9610000000000003 0
    vertex 0 -4 0
    vertex 0 -6 0
  endloop
endfacet
facet normal 0.07009741599556311 0.9975401507060981 0
  outer loop
    vertex -0.555 -3.9610000000000003 0
    vertex 0 -4 4
    vertex 0 -4 0
  endloop
endfacet
facet normal 0 0 1
  outer loop
    vertex -0.555 -3.9610000000000003 4
    vertex 0 -6 4
    vertex 0 -4 4
  endloop
endfacet
facet normal 0.07009741599556311 -0.9975401507060981 0
  outer loop
    vertex -0.555 3.9610000000000003 -4
    vertex 0 4 -4
    vertex -0.555 3.9610000000000003 0
  endloop
endfacet
facet normal 0 0 -1
  outer loop
    vertex -0.555 3.9610000000000003 -4
    vertex 0 6 -4
    vertex 0 4 -4
  endloop
endfacet
facet normal 0.07009741599556311 -0.9975401507060981 0
  outer loop
    vertex -0.555 3.9610000000000003 0
    vertex 0 4 -4
    vertex 0 4 0
  endloop
endfacet
facet normal 0 0 1
  outer loop
    vertex -0.555 3.9610000000000003 0
    vertex 0 4 0
    vertex 0 6 0
  endloop
endfacet
facet normal 0 1 0
  outer loop
    vertex -0.276 -3.99 -4
    vertex -0.276 -3.99 0
    vertex 0.276 -3.99 0
  endloop
endfacet
facet normal 0 0 -1
  outer loop
    vertex -0.276 -3.99 -4
    vertex 0.276 -3.99 -4
    vertex 0 -6 -4
  endloop
endfacet
facet normal 0 1 0
  outer loop
    vertex -0.276 -3.99 -4
    vertex 0.276 -3.99 0
    vertex 0.276 -3.99 -4
  endloop
endfacet
facet normal 0 0 1
  outer loop
    vertex -0.276 -3.99 0
    vertex 0 -6 0
    vertex 0.276 -3.99 0
  endloop
endfacet
facet normal 0 0 -1
  outer loop
    vertex -0.276 3.99 0
    vertex 0 6 0
    vertex 0.276 3.99 0
  endloop
endfacet
facet normal 0 -1 0
  outer loop
    vertex -0.276 3.99 0
    vertex 0.276 3.99 0
    vertex -0.276 3.99 4
  endloop
endfacet
facet normal 0 -1 0
  outer loop
    vertex -0.276 3.99 4
    vertex 0.276 3.99 0
    vertex 0.276 3.99 4
  endloop
endfacet
facet normal 0 0 1
  outer loop
    vertex -0.276 3.99 4
    vertex 0.276 3.99 4
    vertex 0 6 4
  endloop
endfacet
facet normal 0 0 -1
  outer loop
    vertex 0 -6 -4
    vertex 0.276 -3.99 -4
    vertex 0.833 -3.912 -4
  endloop
endfacet
facet normal 0 0 -1
  outer loop
    vertex 0 -6 -4
    vertex 0.833 -3.912 -4
    vertex 1.369 -3.758 -4
  endloop
endfacet
facet normal 0 0 -1
  outer loop
    vertex 0 -6 -4
    vertex 1.369 -3.758 -4
    vertex 4.246 -4.24 -4
  endloop
endfacet
facet normal 0.3829154041562332 -0.9237834125269129 0
  outer loop
    vertex 0 -6 -4
    vertex 4.246 -4.24 -4
    vertex 0 -6 0
  endloop
endfacet
facet normal 0 0 -1
  outer loop
    vertex 0 -6 0
    vertex 0 -4 0
    vertex 0.555 -3.9610000000000003 0
  endloop
endfacet
facet normal 0 0 -1
  outer loop
    vertex 0 -6 0
    vertex 0.555 -3.9610000000000003 0
    vertex 1.101 -3.845 0
  endloop
endfacet
facet normal 0 0 1
  outer loop
    vertex 0 -6 0
    vertex 0.833 -3.912 0
    vertex 0.276 -3.99 0
  endloop
endfacet
facet normal 0 0 -1
  outer loop
    vertex 0 -6 0
    vertex 1.101 -3.845 0
    vertex 1.624 -3.656 0
  endloop
endfacet
facet normal 0 0 1
  outer loop
    vertex 0 -6 0
    vertex 1.369 -3.758 0
    vertex 0.833 -3.912 0
  endloop
endfacet
facet normal 0 0 -1
  outer loop
    vertex 0 -6 0
    vertex 1.624 -3.656 0
    vertex 4.246 -4.24 0
  endloop
endfacet
facet normal 0.3829154041562332 -0.9237834125269129 0
  outer loop
    vertex 0 -6 0
    vertex 4.246 -4.24 -4
    vertex 4.246 -4.24 0
  endloop
endfacet
facet normal 0.3829154041562332 -0.9237834125269129 0
  outer loop
    vertex 0 -6 0
    vertex 4.246 -4.24 0
    vertex 0 -6 4
  endloop
endfacet
facet normal 0 0 1
  outer loop
    vertex 0 -6 0
    vertex 4.246 -4.24 0
    vertex 1.369 -3.758 0
  endloop
endfacet
facet normal 0 0 1
  outer loop
    vertex 0 -6 4
    vertex 0.555 -3.9610000000000003 4
    vertex 0 -4 4
  endloop
endfacet
facet normal 0 0 1
  outer loop
    vertex 0 -6 4
    vertex 1.101 -3.845 4
    vertex 0.555 -3.9610000000000003 4
  endloop
endfacet
facet normal 0 0 1
  outer loop
    vertex 0 -6 4
    vertex 1.624 -3.656 4
    vertex 1.101 -3.845 4
  endloop
endfacet
facet normal 0.3829154041562332 -0.9237834125269129 0
  outer loop
    vertex 0 -6 4
    vertex 4.246 -4.24 0
    vertex 4.246 -4.24 4
  endloop
endfacet
facet normal 0 0 1
  outer loop
    vertex 0 -6 4
    vertex 4.246 -4.24 4
    vertex 1.624 -3.656 4
  endloop
endfacet
facet normal -0.07009741599556311 0.9975401507060981 0
  outer loop
    vertex 0 -4 0
    vertex 0 -4 4
    vertex 0.555 -3.9610000000000003 4
  endloop
endfacet
facet normal -0.07009741599556311 0.9975401507060981 0
  outer loop
    vertex 0 -4 0
    vertex 0.555 -3.9610000000000003 4
    vertex 0.555 -3.9610000000000003 0
  endloop
endfacet
facet normal 0 0 -1
  outer loop
    vertex 0 4 -4
    vertex 0 6 -4
    vertex 0.555 3.9610000000000003 -4
  endloop
endfacet
facet normal -0.07009741599556311 -0.9975401507060981 0
  outer loop
    vertex 0 4 -4
    vertex 0.555 3.9610000000000003 -4
    vertex 0 4 0
  endloop
endfacet
facet normal -0.07009741599556311 -0.9975401507060981 0
  outer loop
    vertex 0 4 0
    vertex 0.555 3.9610000000000003 -4
    vertex 0.555 3.9610000000000003 0
  endloop
endfacet
facet normal 0 0 1
  outer loop
    vertex 0 4 0
    vertex 0.555 3.9610000000000003 0
    vertex 0 6 0
  endloop
endfacet
facet normal 0.3829154041562332 0.9237834125269129 0
  outer loop
    vertex 0 6 -4
    vertex 0 6 0
    vertex 4.246 4.24 0
  endloop
endfacet
facet normal 0 0 -1
  outer loop
    vertex 0 6 -4
    vertex 1.101 3.845 -4
    vertex 0.555 3.9610000000000003 -4
  endloop
endfacet
facet normal 0 0 -1
  outer loop
    vertex 0 6 -4
    vertex 1.624 3.656 -4
    vertex 1.101 3.845 -4
  endloop
endfacet
facet normal 0 0 -1
  outer loop
    vertex 0 6 -4
    vertex 4.246 4.24 -4
    vertex 1.624 3.656 -4
  endloop
endfacet
facet normal 0.3829154041562332 0.9237834125269129 0
  outer loop
    vertex 0 6 -4
    vertex 4.246 4.24 0
    vertex 4.246 4.24 -4
  endloop
endfacet
facet normal 0.3829154041562332 0.9237834125269129 0
  outer loop
    vertex 0 6 0
    vertex 0 6 4
    vertex 4.246 4.24 4
  endloop
endfacet
facet normal 0 0 1
  outer loop
    vertex 0 6 0
    vertex 0.555 3.9610000000000003 0
    vertex 1.101 3.845 0
  endloop
endfacet
facet normal 0 0 -1
  outer loop
    vertex 0 6 0
    vertex 0.833 3.912 0
    vertex 0.276 3.99 0
  endloop
endfacet
facet normal 0 0 1
  outer loop
    vertex 0 6 0
    vertex 1.101 3.845 0
    vertex 1.624 3.656 0
  endloop
endfacet
facet normal 0 0 -1
  outer loop
    vertex 0 6 0
    vertex 1.369 3.758 0
    vertex 0.833 3.912 0
  endloop
endfacet
facet normal 0 0 1
  outer loop
    vertex 0 6 0
    vertex 1.624 3.656 0
    vertex 4.246 4.24 0
  endloop
endfacet
facet normal 0 0 -1
  outer loop
    vertex 0 6 0
    vertex 4.246 4.24 0
    vertex 1.369 3.758 0
  endloop
endfacet
facet normal 0.3829154041562332 0.9237834125269129 0
  outer loop
    vertex 0 6 0
    vertex 4.246 4.24 4
    vertex 4.246 4.24 0
  endloop
endfacet
facet normal 0 0 1
  outer loop
    vertex 0 6 4
    vertex 0.276 3.99 4
    vertex 0.833 3.912 4
  endloop
endfacet
facet normal 0 0 1
  outer loop
    vertex 0 6 4
    vertex 0.833 3.912 4
    vertex 1.369 3.758 4
  endloop
endfacet
facet normal 0 0 1
  outer loop
    vertex 0 6 4
    vertex 1.369 3.758 4
    vertex 4.246 4.24 4
  endloop
endfacet
facet normal -0.1386827205488008 0.9903368634061761 0
  outer loop
    vertex 0.276 -3.99 -4
    vertex 0.276 -3.99 0
    vertex 0.833 -3.912 0
  endloop
endfacet
facet normal -0.1386827205488008 0.9903368634061761 0
  outer loop
    vertex 0.276 -3.99 -4
    vertex 0.833 -3.912 0
    vertex 0.833 -3.912 -4
  endloop
endfacet
facet normal -0.1386827205488008 -0.9903368634061761 0
  outer loop
    vertex 0.276 3.99 0
    vertex 0.833 3.912 0
    vertex 0.276 3.99 4
  endloop
endfacet
facet normal -0.1386827205488008 -0.9903368634061761 0
  outer loop
    vertex 0.276 3.99 4
    vertex 0.833 3.912 0
    vertex 0.833 3.912 4
  endloop
endfacet
facet normal -0.2078159027838978 0.9781679562069662 0
  outer loop
    vertex 0.555 -3.9610000000000003 0
    vertex 0.555 -3.9610000000000003 4
    vertex 1.101 -3.845 4
  endloop
endfacet
facet normal -0.2078159027838978 0.9781679562069662 0
  outer loop
    vertex 0.555 -3.9610000000000003 0
    vertex 1.101 -3.845 4
    vertex 1.101 -3.845 0
  endloop
endfacet
facet normal -0.2078159027838978 -0.9781679562069662 0
  outer loop
    vertex 0.555 3.9610000000000003 -4
    vertex 1.101 3.845 -4
    vertex 0.555 3.9610000000000003 0
  endloop
endfacet
facet normal -0.2078159027838978 -0.9781679562069662 0
  outer loop
    vertex 0.555 3.9610000000000003 0
    vertex 1.101 3.845 -4
    vertex 1.101 3.845 0
  endloop
endfacet
facet normal -0.2761417977034206 0.9611169062924255 0
  outer loop
    vertex 0.833 -3.912 -4
    vertex 0.833 -3.912 0
    vertex 1.369 -3.758 0
  endloop
endfacet
facet normal -0.2761417977034206 0.9611169062924255 0
  outer loop
    vertex 0.833 -3.912 -4
    vertex 1.369 -3.758 0
    vertex 1.369 -3.758 -4
  endloop
endfacet
facet normal -0.2761417977034206 -0.9611169062924255 0
  outer loop
    vertex 0.833 3.912 0
    vertex 1.369 3.758 0
    vertex 0.833 3.912 4
  endloop
endfacet
facet normal -0.2761417977034206 -0.9611169062924255 0
  outer loop
    vertex 0.833 3.912 4
    vertex 1.369 3.758 0
    vertex 1.369 3.758 4
  endloop
endfacet
facet normal -0.3398653972944174 0.9404740888094194 0
  outer loop
    vertex 1.101 -3.845 0
    vertex 1.101 -3.845 4
    vertex 1.624 -3.656 4
  endloop
endfacet
facet normal -0.3398653972944174 0.9404740888094194 0
  outer loop
    vertex 1.101 -3.845 0
    vertex 1.624 -3.656 4
    vertex 1.624 -3.656 0
  endloop
endfacet
facet normal -0.3398653972944174 -0.9404740888094194 0
  outer loop
    vertex 1.101 3.845 -4
    vertex 1.624 3.656 -4
    vertex 1.101 3.845 0
  endloop
endfacet
facet normal -0.3398653972944174 -0.9404740888094194 0
  outer loop
    vertex 1.101 3.845 0
    vertex 1.624 3.656 -4
    vertex 1.624 3.656 0
  endloop
endfacet
facet normal -0.40546655972020623 0.9141098779406447 0
  outer loop
    vertex 1.369 -3.758 -4
    vertex 1.369 -3.758 0
    vertex 1.874 -3.5340000000000003 0
  endloop
endfacet
facet normal 0 0 -1
  outer loop
    vertex 1.369 -3.758 -4
    vertex 1.874 -3.5340000000000003 -4
    vertex 4.246 -4.24 -4
  endloop
endfacet
facet normal -0.40546655972020623 0.9141098779406447 0
  outer loop
    vertex 1.369 -3.758 -4
    vertex 1.874 -3.5340000000000003 0
    vertex 1.874 -3.5340000000000003 -4
  endloop
endfacet
facet normal 0 0 1
  outer loop
    vertex 1.369 -3.758 0
    vertex 4.246 -4.24 0
    vertex 1.874 -3.5340000000000003 0
  endloop
endfacet
facet normal -0.40546655972020623 -0.9141098779406447 0
  outer loop
    vertex 1.369 3.758 0
    vertex 1.874 3.5340000000000003 0
    vertex 1.369 3.758 4
  endloop
endfacet
facet normal 0 0 -1
  outer loop
    vertex 1.369 3.758 0
    vertex 4.246 4.24 0
    vertex 1.874 3.5340000000000003 0
  endloop
endfacet
facet normal -0.40546655972020623 -0.9141098779406447 0
  outer loop
    vertex 1.369 3.758 4
    vertex 1.874 3.5340000000000003 0
    vertex 1.874 3.5340000000000003 4
  endloop
endfacet
facet normal 0 0 1
  outer loop
    vertex 1.369 3.758 4
    vertex 1.874 3.5340000000000003 4
    vertex 4.246 4.24 4
  endloop
endfacet
facet normal -0.469671537277602 0.8828412354842143 0
  outer loop
    vertex 1.624 -3.656 0
    vertex 1.624 -3.656 4
    vertex 2.124 -3.39 4
  endloop
endfacet
facet normal 0 0 -1
  outer loop
    vertex 1.624 -3.656 0
    vertex 2.124 -3.39 0
    vertex 4.246 -4.24 0
  endloop
endfacet
facet normal -0.469671537277602 0.8828412354842143 0
  outer loop
    vertex 1.624 -3.656 0
    vertex 2.124 -3.39 4
    vertex 2.124 -3.39 0
  endloop
endfacet
facet normal 0 0 1
  outer loop
    vertex 1.624 -3.656 4
    vertex 4.246 -4.24 4
    vertex 2.124 -3.39 4
  endloop
endfacet
facet normal -0.469671537277602 -0.8828412354842143 0
  outer loop
    vertex 1.624 3.656 -4
    vertex 2.124 3.39 -4
    vertex 1.624 3.656 0
  endloop
endfacet
facet normal 0 0 -1
  outer loop
    vertex 1.624 3.656 -4
    vertex 4.246 4.24 -4
    vertex 2.124 3.39 -4
  endloop
endfacet
facet normal -0.469671537277602 -0.8828412354842143 0
  outer loop
    vertex 1.624 3.656 0
    vertex 2.124 3.39 -4
    vertex 2.124 3.39 0
  endloop
endfacet
facet normal 0 0 1
  outer loop
    vertex 1.624 3.656 0
    vertex 2.124 3.39 0
    vertex 4.246 4.24 0
  endloop
endfacet
facet normal -0.5283879661927551 0.8490030372046286 0
  outer loop
    vertex 1.874 -3.5340000000000003 -4
    vertex 1.874 -3.5340000000000003 0
    vertex 2.348 -3.239 0
  endloop
endfacet
facet normal 0 0 -1
  outer loop
    vertex 1.874 -3.5340000000000003 -4
    vertex 2.348 -3.239 -4
    vertex 4.246 -4.24 -4
  endloop
endfacet
facet normal -0.5283879661927551 0.8490030372046286 0
  outer loop
    vertex 1.874 -3.5340000000000003 -4
    vertex 2.348 -3.239 0
    vertex 2.348 -3.239 -4
  endloop
endfacet
facet normal 0 0 1
  outer loop
    vertex 1.874 -3.5340000000000003 0
    vertex 4.246 -4.24 0
    vertex 2.348 -3.239 0
  endloop
endfacet
facet normal -0.5283879661927551 -0.8490030372046286 0
  outer loop
    vertex 1.874 3.5340000000000003 0
    vertex 2.348 3.239 0
    vertex 1.874 3.5340000000000003 4
  endloop
endfacet
facet normal 0 0 -1
  outer loop
    vertex 1.874 3.5340000000000003 0
    vertex 4.246 4.24 0
    vertex 2.348 3.239 0
  endloop
endfacet
facet normal -0.5283879661927551 -0.8490030372046286 0
  outer loop
    vertex 1.874 3.5340000000000003 4
    vertex 2.348 3.239 0
    vertex 2.348 3.239 4
  endloop
endfacet
facet normal 0 0 1
  outer loop
    vertex 1.874 3.5340000000000003 4
    vertex 2.348 3.239 4
    vertex 4.246 4.24 4
  endloop
endfacet
facet normal -0.5886036885129212 0.8084217326797839 0
  outer loop
    vertex 2.124 -3.39 0
    vertex 2.124 -3.39 4
    vertex 2.569 -3.0660000000000003 4
  endloop
endfacet
facet normal 0 0 -1
  outer loop
    vertex 2.124 -3.39 0
    vertex 2.569 -3.0660000000000003 0
    vertex 4.246 -4.24 0
  endloop
endfacet
facet normal -0.5886036885129212 0.8084217326797839 0
  outer loop
    vertex 2.124 -3.39 0
    vertex 2.569 -3.0660000000000003 4
    vertex 2.569 -3.0660000000000003 0
  endloop
endfacet
facet normal 0 0 1
  outer loop
    vertex 2.124 -3.39 4
    vertex 4.246 -4.24 4
    vertex 2.569 -3.0660000000000003 4
  endloop
endfacet
facet normal -0.5886036885129212 -0.8084217326797839 0
  outer loop
    vertex 2.124 3.39 -4
    vertex 2.569 3.0660000000000003 -4
    vertex 2.124 3.39 0
  endloop
endfacet
facet normal 0 0 -1
  outer loop
    vertex 2.124 3.39 -4
    vertex 4.246 4.24 -4
    vertex 2.569 3.0660000000000003 -4
  endloop
endfacet
facet normal -0.5886036885129212 -0.8084217326797839 0
  outer loop
    vertex 2.124 3.39 0
    vertex 2.569 3.0660000000000003 -4
    vertex 2.569 3.0660000000000003 0
  endloop
endfacet
facet normal 0 0 1
  outer loop
    vertex 2.124 3.39 0
    vertex 2.569 3.0660000000000003 0
    vertex 4.246 4.24 0
  endloop
endfacet
facet normal -0.6436468879527831 0.7653226010178306 0
  outer loop
    vertex 2.348 -3.239 -4
    vertex 2.348 -3.239 0
    vertex 2.782 -2.874 0
  endloop
endfacet
facet normal 0 0 -1
  outer loop
    vertex 2.348 -3.239 -4
    vertex 2.782 -2.874 -4
    vertex 4.246 -4.24 -4
  endloop
endfacet
facet normal -0.6436468879527831 0.7653226010178306 0
  outer loop
    vertex 2.348 -3.239 -4
    vertex 2.782 -2.874 0
    vertex 2.782 -2.874 -4
  endloop
endfacet
facet normal 0 0 1
  outer loop
    vertex 2.348 -3.239 0
    vertex 4.246 -4.24 0
    vertex 2.782 -2.874 0
  endloop
endfacet
facet normal -0.6436468879527831 -0.7653226010178306 0
  outer loop
    vertex 2.348 3.239 0
    vertex 2.782 2.874 0
    vertex 2.348 3.239 4
  endloop
endfacet
facet normal 0 0 -1
  outer loop
    vertex 2.348 3.239 0
    vertex 4.246 4.24 0
    vertex 2.782 2.874 0
  endloop
endfacet
facet normal -0.6436468879527831 -0.7653226010178306 0
  outer loop
    vertex 2.348 3.239 4
    vertex 2.782 2.874 0
    vertex 2.782 2.874 4
  endloop
endfacet
facet normal 0 0 1
  outer loop
    vertex 2.348 3.239 4
    vertex 2.782 2.874 4
    vertex 4.246 4.24 4
  endloop
endfacet
facet normal -0.6944018607824854 0.7195874204999846 0
  outer loop
    vertex 2.569 -3.0660000000000003 0
    vertex 2.569 -3.0660000000000003 4
    vertex 2.969 -2.68 4
  endloop
endfacet
facet normal 0 0 -1
  outer loop
    vertex 2.569 -3.0660000000000003 0
    vertex 2.969 -2.68 0
    vertex 4.246 -4.24 0
  endloop
endfacet
facet normal -0.6944018607824854 0.7195874204999846 0
  outer loop
    vertex 2.569 -3.0660000000000003 0
    vertex 2.969 -2.68 4
    vertex 2.969 -2.68 0
  endloop
endfacet
facet normal 0 0 1
  outer loop
    vertex 2.569 -3.0660000000000003 4
    vertex 4.246 -4.24 4
    vertex 2.969 -2.68 4
  endloop
endfacet
facet normal -0.6944018607824854 -0.7195874204999846 0
  outer loop
    vertex 2.569 3.0660000000000003 -4
    vertex 2.969 2.68 -4
    vertex 2.569 3.0660000000000003 0
  endloop
endfacet
facet normal 0 0 -1
  outer loop
    vertex 2.569 3.0660000000000003 -4
    vertex 4.246 4.24 -4
    vertex 2.969 2.68 -4
  endloop
endfacet
facet normal -0.6944018607824854 -0.7195874204999846 0
  outer loop
    vertex 2.569 3.0660000000000003 0
    vertex 2.969 2.68 -4
    vertex 2.969 2.68 0
  endloop
endfacet
facet normal 0 0 1
  outer loop
    vertex 2.569 3.0660000000000003 0
    vertex 2.969 2.68 0
    vertex 4.246 4.24 0
  endloop
endfacet
facet normal -0.743384515676579 0.6688643075036206 0
  outer loop
    vertex 2.782 -2.874 -4
    vertex 2.782 -2.874 0
    vertex 3.15 -2.465 0
  endloop
endfacet
facet normal 0 0 -1
  outer loop
    vertex 2.782 -2.874 -4
    vertex 3.15 -2.465 -4
    vertex 4.246 -4.24 -4
  endloop
endfacet
facet normal -0.743384515676579 0.6688643075036206 0
  outer loop
    vertex 2.782 -2.874 -4
    vertex 3.15 -2.465 0
    vertex 3.15 -2.465 -4
  endloop
endfacet
facet normal 0 0 1
  outer loop
    vertex 2.782 -2.874 0
    vertex 4.246 -4.24 0
    vertex 3.15 -2.465 0
  endloop
endfacet
facet normal -0.743384515676579 -0.6688643075036206 0
  outer loop
    vertex 2.782 2.874 0
    vertex 3.15 2.465 0
    vertex 2.782 2.874 4
  endloop
endfacet
facet normal 0 0 -1
  outer loop
    vertex 2.782 2.874 0
    vertex 4.246 4.24 0
    vertex 3.15 2.465 0
  endloop
endfacet
facet normal -0.743384515676579 -0.6688643075036206 0
  outer loop
    vertex 2.782 2.874 4
    vertex 3.15 2.465 0
    vertex 3.15 2.465 4
  endloop
endfacet
facet normal 0 0 1
  outer loop
    vertex 2.782 2.874 4
    vertex 3.15 2.465 4
    vertex 4.246 4.24 4
  endloop
endfacet
facet normal -0.7870559151513062 0.6168816632267001 0
  outer loop
    vertex 2.969 -2.68 0
    vertex 2.969 -2.68 4
    vertex 3.317 -2.236 4
  endloop
endfacet
facet normal 0 0 -1
  outer loop
    vertex 2.969 -2.68 0
    vertex 3.317 -2.236 0
    vertex 4.246 -4.24 0
  endloop
endfacet
facet normal -0.7870559151513062 0.6168816632267001 0
  outer loop
    vertex 2.969 -2.68 0
    vertex 3.317 -2.236 4
    vertex 3.317 -2.236 0
  endloop
endfacet
facet normal 0 0 1
  outer loop
    vertex 2.969 -2.68 4
    vertex 4.246 -4.24 4
    vertex 3.317 -2.236 4
  endloop
endfacet
facet normal -0.7870559151513062 -0.6168816632267001 0
  outer loop
    vertex 2.969 2.68 -4
    vertex 3.317 2.236 -4
    vertex 2.969 2.68 0
  endloop
endfacet
facet normal 0 0 -1
  outer loop
    vertex 2.969 2.68 -4
    vertex 4.246 4.24 -4
    vertex 3.317 2.236 -4
  endloop
endfacet
facet normal -0.7870559151513062 -0.6168816632267001 0
  outer loop
    vertex 2.969 2.68 0
    vertex 3.317 2.236 -4
    vertex 3.317 2.236 0
  endloop
endfacet
facet normal 0 0 1
  outer loop
    vertex 2.969 2.68 0
    vertex 3.317 2.236 0
    vertex 4.246 4.24 0
  endloop
endfacet
facet normal -0.828454342068305 0.5600566070569758 0
  outer loop
    vertex 3.15 -2.465 -4
    vertex 3.15 -2.465 0
    vertex 3.463 -2.0020000000000002 0
  endloop
endfacet
facet normal 0 0 -1
  outer loop
    vertex 3.15 -2.465 -4
    vertex 3.463 -2.0020000000000002 -4
    vertex 4.246 -4.24 -4
  endloop
endfacet
facet normal -0.828454342068305 0.5600566070569758 0
  outer loop
    vertex 3.15 -2.465 -4
    vertex 3.463 -2.0020000000000002 0
    vertex 3.463 -2.0020000000000002 -4
  endloop
endfacet
facet normal 0 0 1
  outer loop
    vertex 3.15 -2.465 0
    vertex 4.246 -4.24 0
    vertex 3.463 -2.0020000000000002 0
  endloop
endfacet
facet normal -0.828454342068305 -0.5600566070569758 0
  outer loop
    vertex 3.15 2.465 0
    vertex 3.463 2.0020000000000002 0
    vertex 3.15 2.465 4
  endloop
endfacet
facet normal 0 0 -1
  outer loop
    vertex 3.15 2.465 0
    vertex 4.246 4.24 0
    vertex 3.463 2.0020000000000002 0
  endloop
endfacet
facet normal -0.828454342068305 -0.5600566070569758 0
  outer loop
    vertex 3.15 2.465 4
    vertex 3.463 2.0020000000000002 0
    vertex 3.463 2.0020000000000002 4
  endloop
endfacet
facet normal 0 0 1
  outer loop
    vertex 3.15 2.465 4
    vertex 3.463 2.0020000000000002 4
    vertex 4.246 4.24 4
  endloop
endfacet
facet normal -0.865916841100504 0.500187988958676 0
  outer loop
    vertex 3.317 -2.236 0
    vertex 3.317 -2.236 4
    vertex 3.596 -1.7530000000000001 4
  endloop
endfacet
facet normal 0 0 -1
  outer loop
    vertex 3.317 -2.236 0
    vertex 3.596 -1.7530000000000001 0
    vertex 4.246 -4.24 0
  endloop
endfacet
facet normal -0.865916841100504 0.500187988958676 0
  outer loop
    vertex 3.317 -2.236 0
    vertex 3.596 -1.7530000000000001 4
    vertex 3.596 -1.7530000000000001 0
  endloop
endfacet
facet normal 0 0 1
  outer loop
    vertex 3.317 -2.236 4
    vertex 4.246 -4.24 4
    vertex 3.596 -1.7530000000000001 4
  endloop
endfacet
facet normal -0.865916841100504 -0.500187988958676 0
  outer loop
    vertex 3.317 2.236 -4
    vertex 3.596 1.7530000000000001 -4
    vertex 3.317 2.236 0
  endloop
endfacet
facet normal 0 0 -1
  outer loop
    vertex 3.317 2.236 -4
    vertex 4.246 4.24 -4
    vertex 3.596 1.7530000000000001 -4
  endloop
endfacet
facet normal -0.865916841100504 -0.500187988958676 0
  outer loop
    vertex 3.317 2.236 0
    vertex 3.596 1.7530000000000001 -4
    vertex 3.596 1.7530000000000001 0
  endloop
endfacet
facet normal 0 0 1
  outer loop
    vertex 3.317 2.236 0
    vertex 3.596 1.7530000000000001 0
    vertex 4.246 4.24 0
  endloop
endfacet
facet normal -0.8983217126230816 0.439338253092004 0
  outer loop
    vertex 3.463 -2.0020000000000002 -4
    vertex 3.463 -2.0020000000000002 0
    vertex 3.709 -1.499 0
  endloop
endfacet
facet normal 0 0 -1
  outer loop
    vertex 3.463 -2.0020000000000002 -4
    vertex 3.709 -1.499 -4
    vertex 4.246 -4.24 -4
  endloop
endfacet
facet normal -0.8983217126230816 0.439338253092004 0
  outer loop
    vertex 3.463 -2.0020000000000002 -4
    vertex 3.709 -1.499 0
    vertex 3.709 -1.499 -4
  endloop
endfacet
facet normal 0 0 1
  outer loop
    vertex 3.463 -2.0020000000000002 0
    vertex 4.246 -4.24 0
    vertex 3.709 -1.499 0
  endloop
endfacet
facet normal -0.8983217126230816 -0.439338253092004 0
  outer loop
    vertex 3.463 2.0020000000000002 0
    vertex 3.709 1.499 0
    vertex 3.463 2.0020000000000002 4
  endloop
endfacet
facet normal 0 0 -1
  outer loop
    vertex 3.463 2.0020000000000002 0
    vertex 4.246 4.24 0
    vertex 3.709 1.499 0
  endloop
endfacet
facet normal -0.8983217126230816 -0.439338253092004 0
  outer loop
    vertex 3.463 2.0020000000000002 4
    vertex 3.709 1.499 0
    vertex 3.709 1.499 4
  endloop
endfacet
facet normal 0 0 1
  outer loop
    vertex 3.463 2.0020000000000002 4
    vertex 3.709 1.499 4
    vertex 4.246 4.24 4
  endloop
endfacet
facet normal -0.928107668854762 0.37231190554826354 0
  outer loop
    vertex 3.596 -1.7530000000000001 0
    vertex 3.596 -1.7530000000000001 4
    vertex 3.805 -1.232 4
  endloop
endfacet
facet normal 0 0 -1
  outer loop
    vertex 3.596 -1.7530000000000001 0
    vertex 3.805 -1.232 0
    vertex 6 0 0
  endloop
endfacet
facet normal -0.928107668854762 0.37231190554826354 0
  outer loop
    vertex 3.596 -1.7530000000000001 0
    vertex 3.805 -1.232 4
    vertex 3.805 -1.232 0
  endloop
endfacet
facet normal 0 0 -1
  outer loop
    vertex 3.596 -1.7530000000000001 0
    vertex 6 0 0
    vertex 4.246 -4.24 0
  endloop
endfacet
facet normal 0 0 1
  outer loop
    vertex 3.596 -1.7530000000000001 4
    vertex 4.246 -4.24 4
    vertex 6 0 4
  endloop
endfacet
facet normal 0 0 1
  outer loop
    vertex 3.596 -1.7530000000000001 4
    vertex 6 0 4
    vertex 3.805 -1.232 4
  endloop
endfacet
facet normal -0.928107668854762 -0.37231190554826354 0
  outer loop
    vertex 3.596 1.7530000000000001 -4
    vertex 3.805 1.232 -4
    vertex 3.596 1.7530000000000001 0
  endloop
endfacet
facet normal 0 0 -1
  outer loop
    vertex 3.596 1.7530000000000001 -4
    vertex 4.246 4.24 -4
    vertex 6 0 -4
  endloop
endfacet
facet normal 0 0 -1
  outer loop
    vertex 3.596 1.7530000000000001 -4
    vertex 6 0 -4
    vertex 3.805 1.232 -4
  endloop
endfacet
facet normal -0.928107668854762 -0.37231190554826354 0
  outer loop
    vertex 3.596 1.7530000000000001 0
    vertex 3.805 1.232 -4
    vertex 3.805 1.232 0
  endloop
endfacet
facet normal 0 0 1
  outer loop
    vertex 3.596 1.7530000000000001 0
    vertex 3.805 1.232 0
    vertex 6 0 0
  endloop
endfacet
facet normal 0 0 1
  outer loop
    vertex 3.596 1.7530000000000001 0
    vertex 6 0 0
    vertex 4.246 4.24 0
  endloop
endfacet
facet normal -0.9513216769411251 0.30819971930864165 0
  outer loop
    vertex 3.709 -1.499 -4
    vertex 3.709 -1.499 0
    vertex 3.882 -0.965 0
  endloop
endfacet
facet normal 0 0 -1
  outer loop
    vertex 3.709 -1.499 -4
    vertex 3.882 -0.965 -4
    vertex 6 0 -4
  endloop
endfacet
facet normal -0.9513216769411251 0.30819971930864165 0
  outer loop
    vertex 3.709 -1.499 -4
    vertex 3.882 -0.965 0
    vertex 3.882 -0.965 -4
  endloop
endfacet
facet normal 0 0 -1
  outer loop
    vertex 3.709 -1.499 -4
    vertex 6 0 -4
    vertex 4.246 -4.24 -4
  endloop
endfacet
facet normal 0 0 1
  outer loop
    vertex 3.709 -1.499 0
    vertex 4.246 -4.24 0
    vertex 6 0 0
  endloop
endfacet
facet normal 0 0 1
  outer loop
    vertex 3.709 -1.499 0
    vertex 6 0 0
    vertex 3.882 -0.965 0
  endloop
endfacet
facet normal -0.9513216769411251 -0.30819971930864165 0
  outer loop
    vertex 3.709 1.499 0
    vertex 3.882 0.965 0
    vertex 3.709 1.499 4
  endloop
endfacet
facet normal 0 0 -1
  outer loop
    vertex 3.709 1.499 0
    vertex 4.246 4.24 0
    vertex 6 0 0
  endloop
endfacet
facet normal 0 0 -1
  outer loop
    vertex 3.709 1.499 0
    vertex 6 0 0
    vertex 3.882 0.965 0
  endloop
endfacet
facet normal -0.9513216769411251 -0.30819971930864165 0
  outer loop
    vertex 3.709 1.499 4
    vertex 3.882 0.965 0
    vertex 3.882 0.965 4
  endloop
endfacet
facet normal 0 0 1
  outer loop
    vertex 3.709 1.499 4
    vertex 3.882 0.965 4
    vertex 6 0 4
  endloop
endfacet
facet normal 0 0 1
  outer loop
    vertex 3.709 1.499 4
    vertex 6 0 4
    vertex 4.246 4.24 4
  endloop
endfacet
facet normal -0.970142500145332 0.24253562503633283 0
  outer loop
    vertex 3.805 -1.232 0
    vertex 3.805 -1.232 4
    vertex 3.939 -0.6960000000000001 4
  endloop
endfacet
facet normal 0 0 -1
  outer loop
    vertex 3.805 -1.232 0
    vertex 3.939 -0.6960000000000001 0
    vertex 6 0 0
  endloop
endfacet
facet normal -0.970142500145332 0.24253562503633283 0
  outer loop
    vertex 3.805 -1.232 0
    vertex 3.939 -0.6960000000000001 4
    vertex 3.939 -0.6960000000000001 0
  endloop
endfacet
facet normal 0 0 1
  outer loop
    vertex 3.805 -1.232 4
    vertex 6 0 4
    vertex 3.939 -0.6960000000000001 4
  endloop
endfacet
facet normal -0.970142500145332 -0.24253562503633283 0
  outer loop
    vertex 3.805 1.232 -4
    vertex 3.939 0.6960000000000001 -4
    vertex 3.805 1.232 0
  endloop
endfacet
facet normal 0 0 -1
  outer loop
    vertex 3.805 1.232 -4
    vertex 6 0 -4
    vertex 3.939 0.6960000000000001 -4
  endloop
endfacet
facet normal -0.970142500145332 -0.24253562503633283 0
  outer loop
    vertex 3.805 1.232 0
    vertex 3.939 0.6960000000000001 -4
    vertex 3.939 0.6960000000000001 0
  endloop
endfacet
facet normal 0 0 1
  outer loop
    vertex 3.805 1.232 0
    vertex 3.939 0.6960000000000001 0
    vertex 6 0 0
  endloop
endfacet
facet normal -0.9848380853632774 0.17347606641261418 0
  outer loop
    vertex 3.882 -0.965 -4
    vertex 3.882 -0.965 0
    vertex 3.978 -0.42 0
  endloop
endfacet
facet normal 0 0 -1
  outer loop
    vertex 3.882 -0.965 -4
    vertex 3.978 -0.42 -4
    vertex 6 0 -4
  endloop
endfacet
facet normal -0.9848380853632774 0.17347606641261418 0
  outer loop
    vertex 3.882 -0.965 -4
    vertex 3.978 -0.42 0
    vertex 3.978 -0.42 -4
  endloop
endfacet
facet normal 0 0 1
  outer loop
    vertex 3.882 -0.965 0
    vertex 6 0 0
    vertex 3.978 -0.42 0
  endloop
endfacet
facet normal -0.9848380853632774 -0.17347606641261418 0
  outer loop
    vertex 3.882 0.965 0
    vertex 3.978 0.42 0
    vertex 3.882 0.965 4
  endloop
endfacet
facet normal 0 0 -1
  outer loop
    vertex 3.882 0.965 0
    vertex 6 0 0
    vertex 3.978 0.42 0
  endloop
endfacet
facet normal -0.9848380853632774 -0.17347606641261418 0
  outer loop
    vertex 3.882 0.965 4
    vertex 3.978 0.42 0
    vertex 3.978 0.42 4
  endloop
endfacet
facet normal 0 0 1
  outer loop
    vertex 3.882 0.965 4
    vertex 3.978 0.42 4
    vertex 6 0 4
  endloop
endfacet
facet normal -0.9945448005786952 0.10431030458149032 0
  outer loop
    vertex 3.939 -0.6960000000000001 0
    vertex 3.939 -0.6960000000000001 4
    vertex 3.997 -0.14300000000000002 4
  endloop
endfacet
facet normal 0 0 -1
  outer loop
    vertex 3.939 -0.6960000000000001 0
    vertex 3.997 -0.14300000000000002 0
    vertex 6 0 0
  endloop
endfacet
facet normal -0.9945448005786952 0.10431030458149032 0
  outer loop
    vertex 3.939 -0.6960000000000001 0
    vertex 3.997 -0.14300000000000002 4
    vertex 3.997 -0.14300000000000002 0
  endloop
endfacet
facet normal 0 0 1
  outer loop
    vertex 3.939 -0.6960000000000001 4
    vertex 6 0 4
    vertex 3.997 -0.14300000000000002 4
  endloop
endfacet
facet normal -0.9945448005786952 -0.10431030458149032 0
  outer loop
    vertex 3.939 0.6960000000000001 -4
    vertex 3.997 0.14300000000000002 -4
    vertex 3.939 0.6960000000000001 0
  endloop
endfacet
facet normal 0 0 -1
  outer loop
    vertex 3.939 0.6960000000000001 -4
    vertex 6 0 -4
    vertex 3.997 0.14300000000000002 -4
  endloop
endfacet
facet normal -0.9945448005786952 -0.10431030458149032 0
  outer loop
    vertex 3.939 0.6960000000000001 0
    vertex 3.997 0.14300000000000002 -4
    vertex 3.997 0.14300000000000002 0
  endloop
endfacet
facet normal 0 0 1
  outer loop
    vertex 3.939 0.6960000000000001 0
    vertex 3.997 0.14300000000000002 0
    vertex 6 0 0
  endloop
endfacet
facet normal -0.9994310296404774 0.03372857826495339 0
  outer loop
    vertex 3.978 -0.42 -4
    vertex 3.978 -0.42 0
    vertex 3.997 0.14300000000000002 0
  endloop
endfacet
facet normal 0 0 -1
  outer loop
    vertex 3.978 -0.42 -4
    vertex 3.997 0.14300000000000002 -4
    vertex 6 0 -4
  endloop
endfacet
facet normal -0.9994310296404774 0.03372857826495339 0
  outer loop
    vertex 3.978 -0.42 -4
    vertex 3.997 0.14300000000000002 0
    vertex 3.997 0.14300000000000002 -4
  endloop
endfacet
facet normal 0 0 1
  outer loop
    vertex 3.978 -0.42 0
    vertex 6 0 0
    vertex 3.997 0.14300000000000002 0
  endloop
endfacet
facet normal -0.9994310296404774 -0.03372857826495339 0
  outer loop
    vertex 3.978 0.42 0
    vertex 3.997 -0.14300000000000002 0
    vertex 3.978 0.42 4
  endloop
endfacet
facet normal 0 0 -1
  outer loop
    vertex 3.978 0.42 0
    vertex 6 0 0
    vertex 3.997 -0.14300000000000002 0
  endloop
endfacet
facet normal -0.9994310296404774 -0.03372857826495339 0
  outer loop
    vertex 3.978 0.42 4
    vertex 3.997 -0.14300000000000002 0
    vertex 3.997 -0.14300000000000002 4
  endloop
endfacet
facet normal 0 0 1
  outer loop
    vertex 3.978 0.42 4
    vertex 3.997 -0.14300000000000002 4
    vertex 6 0 4
  endloop
endfacet
facet normal 0.9240539990811253 -0.3822619609406352 0
  outer loop
    vertex 4.246 -4.24 -4
    vertex 6 0 -4
    vertex 4.246 -4.24 0
  endloop
endfacet
facet normal 0.9240539990811253 -0.3822619609406352 0
  outer loop
    vertex 4.246 -4.24 0
    vertex 6 0 -4
    vertex 6 0 0
  endloop
endfacet
facet normal 0.9240539990811253 -0.3822619609406352 0
  outer loop
    vertex 4.246 -4.24 0
    vertex 6 0 0
    vertex 4.246 -4.24 4
  endloop
endfacet
facet normal 0.9240539990811253 -0.3822619609406352 0
  outer loop
    vertex 4.246 -4.24 4
    vertex 6 0 0
    vertex 6 0 4
  endloop
endfacet
facet normal 0.9240539990811253 0.3822619609406352 0
  outer loop
    vertex 4.246 4.24 -4
    vertex 4.246 4.24 0
    vertex 6 0 0
  endloop
endfacet
facet normal 0.9240539990811253 0.3822619609406352 0
  outer loop
    vertex 4.246 4.24 -4
    vertex 6 0 0
    vertex 6 0 -4
  endloop
endfacet
facet normal 0.9240539990811253 0.3822619609406352 0
  outer loop
    vertex 4.246 4.24 0
    vertex 4.246 4.24 4
    vertex 6 0 4
  endloop
endfacet
facet normal 0.9240539990811253 0.3822619609406352 0
  outer loop
    vertex 4.246 4.24 0
    vertex 6 0 4
    vertex 6 0 0
  endloop
endfacet
endsolid JSxCAD
