solid JSxCAD
facet normal -0.9945448005786952 0.10431030458149032 0
  outer loop
    vertex -3.997 0.14300000000000002 0
    vertex -3.997 0.14300000000000002 16
    vertex -3.939 0.6960000000000001 16
  endloop
endfacet
facet normal -0.9994310296404774 -0.03372857826495339 0
  outer loop
    vertex -3.997 0.14300000000000002 0
    vertex -3.978 -0.42 0
    vertex -3.997 0.14300000000000002 16
  endloop
endfacet
facet normal 0 0 -1
  outer loop
    vertex -3.997 0.14300000000000002 0
    vertex -3.939 0.6960000000000001 0
    vertex -2.511 0.446 0
  endloop
endfacet
facet normal -0.9945448005786952 0.10431030458149032 0
  outer loop
    vertex -3.997 0.14300000000000002 0
    vertex -3.939 0.6960000000000001 16
    vertex -3.939 0.6960000000000001 0
  endloop
endfacet
facet normal 0 0 -1
  outer loop
    vertex -3.997 0.14300000000000002 0
    vertex -2.5500000000000003 0 0
    vertex -3.978 -0.42 0
  endloop
endfacet
facet normal 0 0 -1
  outer loop
    vertex -3.997 0.14300000000000002 0
    vertex -2.511 0.446 0
    vertex -2.5500000000000003 0 0
  endloop
endfacet
facet normal -0.9994310296404774 -0.03372857826495339 0
  outer loop
    vertex -3.997 0.14300000000000002 16
    vertex -3.978 -0.42 0
    vertex -3.978 -0.42 16
  endloop
endfacet
facet normal 0 0 1
  outer loop
    vertex -3.997 0.14300000000000002 16
    vertex -3.978 -0.42 16
    vertex -2.5500000000000003 0 16
  endloop
endfacet
facet normal 0 0 1
  outer loop
    vertex -3.997 0.14300000000000002 16
    vertex -2.5500000000000003 0 16
    vertex -2.511 0.446 16
  endloop
endfacet
facet normal 0 0 1
  outer loop
    vertex -3.997 0.14300000000000002 16
    vertex -2.511 0.446 16
    vertex -3.939 0.6960000000000001 16
  endloop
endfacet
facet normal -0.9848380853632774 -0.17347606641261418 0
  outer loop
    vertex -3.978 -0.42 0
    vertex -3.882 -0.965 0
    vertex -3.978 -0.42 16
  endloop
endfacet
facet normal 0 0 -1
  outer loop
    vertex -3.978 -0.42 0
    vertex -2.5500000000000003 0 0
    vertex -2.512 -0.44 0
  endloop
endfacet
facet normal 0 0 -1
  outer loop
    vertex -3.978 -0.42 0
    vertex -2.512 -0.44 0
    vertex -3.882 -0.965 0
  endloop
endfacet
facet normal -0.9848380853632774 -0.17347606641261418 0
  outer loop
    vertex -3.978 -0.42 16
    vertex -3.882 -0.965 0
    vertex -3.882 -0.965 16
  endloop
endfacet
facet normal 0 0 1
  outer loop
    vertex -3.978 -0.42 16
    vertex -3.882 -0.965 16
    vertex -2.512 -0.44 16
  endloop
endfacet
facet normal 0 0 1
  outer loop
    vertex -3.978 -0.42 16
    vertex -2.512 -0.44 16
    vertex -2.5500000000000003 0 16
  endloop
endfacet
facet normal -0.970142500145332 0.24253562503633283 0
  outer loop
    vertex -3.939 0.6960000000000001 0
    vertex -3.939 0.6960000000000001 16
    vertex -3.805 1.232 16
  endloop
endfacet
facet normal 0 0 -1
  outer loop
    vertex -3.939 0.6960000000000001 0
    vertex -3.805 1.232 0
    vertex -2.511 0.446 0
  endloop
endfacet
facet normal -0.970142500145332 0.24253562503633283 0
  outer loop
    vertex -3.939 0.6960000000000001 0
    vertex -3.805 1.232 16
    vertex -3.805 1.232 0
  endloop
endfacet
facet normal 0 0 1
  outer loop
    vertex -3.939 0.6960000000000001 16
    vertex -2.511 0.446 16
    vertex -3.805 1.232 16
  endloop
endfacet
facet normal -0.9513216769411251 -0.30819971930864165 0
  outer loop
    vertex -3.882 -0.965 0
    vertex -3.709 -1.499 0
    vertex -3.882 -0.965 16
  endloop
endfacet
facet normal 0 0 -1
  outer loop
    vertex -3.882 -0.965 0
    vertex -2.512 -0.44 0
    vertex -2.3970000000000002 -0.87 0
  endloop
endfacet
facet normal 0 0 -1
  outer loop
    vertex -3.882 -0.965 0
    vertex -2.3970000000000002 -0.87 0
    vertex -3.709 -1.499 0
  endloop
endfacet
facet normal -0.9513216769411251 -0.30819971930864165 0
  outer loop
    vertex -3.882 -0.965 16
    vertex -3.709 -1.499 0
    vertex -3.709 -1.499 16
  endloop
endfacet
facet normal 0 0 1
  outer loop
    vertex -3.882 -0.965 16
    vertex -3.709 -1.499 16
    vertex -2.3970000000000002 -0.87 16
  endloop
endfacet
facet normal 0 0 1
  outer loop
    vertex -3.882 -0.965 16
    vertex -2.3970000000000002 -0.87 16
    vertex -2.512 -0.44 16
  endloop
endfacet
facet normal -0.928107668854762 0.37231190554826354 0
  outer loop
    vertex -3.805 1.232 0
    vertex -3.805 1.232 16
    vertex -3.596 1.7530000000000001 16
  endloop
endfacet
facet normal 0 0 -1
  outer loop
    vertex -3.805 1.232 0
    vertex -3.596 1.7530000000000001 0
    vertex -2.36 0.9500000000000001 0
  endloop
endfacet
facet normal -0.928107668854762 0.37231190554826354 0
  outer loop
    vertex -3.805 1.232 0
    vertex -3.596 1.7530000000000001 16
    vertex -3.596 1.7530000000000001 0
  endloop
endfacet
facet normal 0 0 -1
  outer loop
    vertex -3.805 1.232 0
    vertex -2.396 0.872 0
    vertex -2.511 0.446 0
  endloop
endfacet
facet normal 0 0 -1
  outer loop
    vertex -3.805 1.232 0
    vertex -2.36 0.9500000000000001 0
    vertex -2.396 0.872 0
  endloop
endfacet
facet normal 0 0 1
  outer loop
    vertex -3.805 1.232 16
    vertex -2.511 0.446 16
    vertex -2.396 0.872 16
  endloop
endfacet
facet normal 0 0 1
  outer loop
    vertex -3.805 1.232 16
    vertex -2.396 0.872 16
    vertex -2.36 0.9500000000000001 16
  endloop
endfacet
facet normal 0 0 1
  outer loop
    vertex -3.805 1.232 16
    vertex -2.36 0.9500000000000001 16
    vertex -3.596 1.7530000000000001 16
  endloop
endfacet
facet normal -0.8983217126230816 -0.439338253092004 0
  outer loop
    vertex -3.709 -1.499 0
    vertex -3.463 -2.0020000000000002 0
    vertex -3.709 -1.499 16
  endloop
endfacet
facet normal 0 0 -1
  outer loop
    vertex -3.709 -1.499 0
    vertex -2.3970000000000002 -0.87 0
    vertex -2.36 -0.9500000000000001 0
  endloop
endfacet
facet normal 0 0 -1
  outer loop
    vertex -3.709 -1.499 0
    vertex -2.36 -0.9500000000000001 0
    vertex -2.21 -1.2730000000000001 0
  endloop
endfacet
facet normal 0 0 -1
  outer loop
    vertex -3.709 -1.499 0
    vertex -2.21 -1.2730000000000001 0
    vertex -3.463 -2.0020000000000002 0
  endloop
endfacet
facet normal -0.8983217126230816 -0.439338253092004 0
  outer loop
    vertex -3.709 -1.499 16
    vertex -3.463 -2.0020000000000002 0
    vertex -3.463 -2.0020000000000002 16
  endloop
endfacet
facet normal 0 0 1
  outer loop
    vertex -3.709 -1.499 16
    vertex -3.463 -2.0020000000000002 16
    vertex -2.21 -1.2730000000000001 16
  endloop
endfacet
facet normal 0 0 1
  outer loop
    vertex -3.709 -1.499 16
    vertex -2.36 -0.9500000000000001 16
    vertex -2.3970000000000002 -0.87 16
  endloop
endfacet
facet normal 0 0 1
  outer loop
    vertex -3.709 -1.499 16
    vertex -2.21 -1.2730000000000001 16
    vertex -2.36 -0.9500000000000001 16
  endloop
endfacet
facet normal -0.865916841100504 0.500187988958676 0
  outer loop
    vertex -3.596 1.7530000000000001 0
    vertex -3.596 1.7530000000000001 16
    vertex -3.317 2.236 16
  endloop
endfacet
facet normal 0 0 -1
  outer loop
    vertex -3.596 1.7530000000000001 0
    vertex -3.317 2.236 0
    vertex -2.208 1.276 0
  endloop
endfacet
facet normal -0.865916841100504 0.500187988958676 0
  outer loop
    vertex -3.596 1.7530000000000001 0
    vertex -3.317 2.236 16
    vertex -3.317 2.236 0
  endloop
endfacet
facet normal 0 0 -1
  outer loop
    vertex -3.596 1.7530000000000001 0
    vertex -2.208 1.276 0
    vertex -2.36 0.9500000000000001 0
  endloop
endfacet
facet normal 0 0 1
  outer loop
    vertex -3.596 1.7530000000000001 16
    vertex -2.36 0.9500000000000001 16
    vertex -2.208 1.276 16
  endloop
endfacet
facet normal 0 0 1
  outer loop
    vertex -3.596 1.7530000000000001 16
    vertex -2.208 1.276 16
    vertex -3.317 2.236 16
  endloop
endfacet
facet normal -0.828454342068305 -0.5600566070569758 0
  outer loop
    vertex -3.463 -2.0020000000000002 0
    vertex -3.15 -2.465 0
    vertex -3.463 -2.0020000000000002 16
  endloop
endfacet
facet normal 0 0 -1
  outer loop
    vertex -3.463 -2.0020000000000002 0
    vertex -2.21 -1.2730000000000001 0
    vertex -3.15 -2.465 0
  endloop
endfacet
facet normal -0.828454342068305 -0.5600566070569758 0
  outer loop
    vertex -3.463 -2.0020000000000002 16
    vertex -3.15 -2.465 0
    vertex -3.15 -2.465 16
  endloop
endfacet
facet normal 0 0 1
  outer loop
    vertex -3.463 -2.0020000000000002 16
    vertex -3.15 -2.465 16
    vertex -2.21 -1.2730000000000001 16
  endloop
endfacet
facet normal -0.7870559151513062 0.6168816632267001 0
  outer loop
    vertex -3.317 2.236 0
    vertex -3.317 2.236 16
    vertex -2.969 2.68 16
  endloop
endfacet
facet normal 0 0 -1
  outer loop
    vertex -3.317 2.236 0
    vertex -2.969 2.68 0
    vertex -1.953 1.639 0
  endloop
endfacet
facet normal -0.7870559151513062 0.6168816632267001 0
  outer loop
    vertex -3.317 2.236 0
    vertex -2.969 2.68 16
    vertex -2.969 2.68 0
  endloop
endfacet
facet normal 0 0 -1
  outer loop
    vertex -3.317 2.236 0
    vertex -1.953 1.639 0
    vertex -2.208 1.276 0
  endloop
endfacet
facet normal 0 0 1
  outer loop
    vertex -3.317 2.236 16
    vertex -2.208 1.276 16
    vertex -1.953 1.639 16
  endloop
endfacet
facet normal 0 0 1
  outer loop
    vertex -3.317 2.236 16
    vertex -1.953 1.639 16
    vertex -2.969 2.68 16
  endloop
endfacet
facet normal -0.743384515676579 -0.6688643075036206 0
  outer loop
    vertex -3.15 -2.465 0
    vertex -2.782 -2.874 0
    vertex -3.15 -2.465 16
  endloop
endfacet
facet normal 0 0 -1
  outer loop
    vertex -3.15 -2.465 0
    vertex -2.21 -1.2730000000000001 0
    vertex -1.954 -1.6380000000000001 0
  endloop
endfacet
facet normal 0 0 -1
  outer loop
    vertex -3.15 -2.465 0
    vertex -1.954 -1.6380000000000001 0
    vertex -2.782 -2.874 0
  endloop
endfacet
facet normal -0.743384515676579 -0.6688643075036206 0
  outer loop
    vertex -3.15 -2.465 16
    vertex -2.782 -2.874 0
    vertex -2.782 -2.874 16
  endloop
endfacet
facet normal 0 0 1
  outer loop
    vertex -3.15 -2.465 16
    vertex -2.782 -2.874 16
    vertex -1.954 -1.6380000000000001 16
  endloop
endfacet
facet normal 0 0 1
  outer loop
    vertex -3.15 -2.465 16
    vertex -1.954 -1.6380000000000001 16
    vertex -2.21 -1.2730000000000001 16
  endloop
endfacet
facet normal -0.6944018607824854 0.7195874204999846 0
  outer loop
    vertex -2.969 2.68 0
    vertex -2.969 2.68 16
    vertex -2.569 3.0660000000000003 16
  endloop
endfacet
facet normal 0 0 -1
  outer loop
    vertex -2.969 2.68 0
    vertex -2.569 3.0660000000000003 0
    vertex -1.6380000000000001 1.954 0
  endloop
endfacet
facet normal -0.6944018607824854 0.7195874204999846 0
  outer loop
    vertex -2.969 2.68 0
    vertex -2.569 3.0660000000000003 16
    vertex -2.569 3.0660000000000003 0
  endloop
endfacet
facet normal 0 0 -1
  outer loop
    vertex -2.969 2.68 0
    vertex -1.6380000000000001 1.954 0
    vertex -1.953 1.639 0
  endloop
endfacet
facet normal 0 0 1
  outer loop
    vertex -2.969 2.68 16
    vertex -1.953 1.639 16
    vertex -1.6380000000000001 1.954 16
  endloop
endfacet
facet normal 0 0 1
  outer loop
    vertex -2.969 2.68 16
    vertex -1.6380000000000001 1.954 16
    vertex -2.569 3.0660000000000003 16
  endloop
endfacet
facet normal -0.6436468879527831 -0.7653226010178306 0
  outer loop
    vertex -2.782 -2.874 0
    vertex -2.348 -3.239 0
    vertex -2.782 -2.874 16
  endloop
endfacet
facet normal 0 0 -1
  outer loop
    vertex -2.782 -2.874 0
    vertex -1.954 -1.6380000000000001 0
    vertex -1.639 -1.953 0
  endloop
endfacet
facet normal 0 0 -1
  outer loop
    vertex -2.782 -2.874 0
    vertex -1.639 -1.953 0
    vertex -2.348 -3.239 0
  endloop
endfacet
facet normal -0.6436468879527831 -0.7653226010178306 0
  outer loop
    vertex -2.782 -2.874 16
    vertex -2.348 -3.239 0
    vertex -2.348 -3.239 16
  endloop
endfacet
facet normal 0 0 1
  outer loop
    vertex -2.782 -2.874 16
    vertex -2.348 -3.239 16
    vertex -1.639 -1.953 16
  endloop
endfacet
facet normal 0 0 1
  outer loop
    vertex -2.782 -2.874 16
    vertex -1.639 -1.953 16
    vertex -1.954 -1.6380000000000001 16
  endloop
endfacet
facet normal -0.5886036885129212 0.8084217326797839 0
  outer loop
    vertex -2.569 3.0660000000000003 0
    vertex -2.569 3.0660000000000003 16
    vertex -2.124 3.39 16
  endloop
endfacet
facet normal 0 0 -1
  outer loop
    vertex -2.569 3.0660000000000003 0
    vertex -2.124 3.39 0
    vertex -1.6380000000000001 1.954 0
  endloop
endfacet
facet normal -0.5886036885129212 0.8084217326797839 0
  outer loop
    vertex -2.569 3.0660000000000003 0
    vertex -2.124 3.39 16
    vertex -2.124 3.39 0
  endloop
endfacet
facet normal 0 0 1
  outer loop
    vertex -2.569 3.0660000000000003 16
    vertex -1.6380000000000001 1.954 16
    vertex -2.124 3.39 16
  endloop
endfacet
facet normal 0.9962913942811391 0.08604334768791713 0
  outer loop
    vertex -2.5500000000000003 0 0
    vertex -2.5500000000000003 0 16
    vertex -2.512 -0.44 16
  endloop
endfacet
facet normal 0.9962913942811391 0.08604334768791713 0
  outer loop
    vertex -2.5500000000000003 0 0
    vertex -2.512 -0.44 16
    vertex -2.512 -0.44 0
  endloop
endfacet
facet normal 0.9961985648936554 -0.08711153370146348 0
  outer loop
    vertex -2.5500000000000003 0 0
    vertex -2.511 0.446 0
    vertex -2.5500000000000003 0 16
  endloop
endfacet
facet normal 0.9961985648936554 -0.08711153370146348 0
  outer loop
    vertex -2.5500000000000003 0 16
    vertex -2.511 0.446 0
    vertex -2.511 0.446 16
  endloop
endfacet
facet normal 0.9660482448389766 0.2583617398987955 0
  outer loop
    vertex -2.512 -0.44 0
    vertex -2.512 -0.44 16
    vertex -2.3970000000000002 -0.87 16
  endloop
endfacet
facet normal 0.9660482448389766 0.2583617398987955 0
  outer loop
    vertex -2.512 -0.44 0
    vertex -2.3970000000000002 -0.87 16
    vertex -2.3970000000000002 -0.87 0
  endloop
endfacet
facet normal 0.9654404880820274 -0.260623605937637 0
  outer loop
    vertex -2.511 0.446 0
    vertex -2.396 0.872 0
    vertex -2.511 0.446 16
  endloop
endfacet
facet normal 0.9654404880820274 -0.260623605937637 0
  outer loop
    vertex -2.511 0.446 16
    vertex -2.396 0.872 0
    vertex -2.396 0.872 16
  endloop
endfacet
facet normal 0.9076270407793136 0.4197775063604363 0
  outer loop
    vertex -2.3970000000000002 -0.87 0
    vertex -2.3970000000000002 -0.87 16
    vertex -2.36 -0.9500000000000001 16
  endloop
endfacet
facet normal 0.9076270407793136 0.4197775063604363 0
  outer loop
    vertex -2.3970000000000002 -0.87 0
    vertex -2.36 -0.9500000000000001 16
    vertex -2.36 -0.9500000000000001 0
  endloop
endfacet
facet normal 0.9079593845004518 -0.41905817746174695 0
  outer loop
    vertex -2.396 0.872 0
    vertex -2.36 0.9500000000000001 0
    vertex -2.396 0.872 16
  endloop
endfacet
facet normal 0.9079593845004518 -0.41905817746174695 0
  outer loop
    vertex -2.396 0.872 16
    vertex -2.36 0.9500000000000001 0
    vertex -2.36 0.9500000000000001 16
  endloop
endfacet
facet normal 0.9069706602575374 0.42119380507315946 0
  outer loop
    vertex -2.36 -0.9500000000000001 0
    vertex -2.36 -0.9500000000000001 16
    vertex -2.21 -1.2730000000000001 16
  endloop
endfacet
facet normal 0.9069706602575374 0.42119380507315946 0
  outer loop
    vertex -2.36 -0.9500000000000001 0
    vertex -2.21 -1.2730000000000001 16
    vertex -2.21 -1.2730000000000001 0
  endloop
endfacet
facet normal 0.9063251397413578 -0.42258104675057095 0
  outer loop
    vertex -2.36 0.9500000000000001 0
    vertex -2.208 1.276 0
    vertex -2.36 0.9500000000000001 16
  endloop
endfacet
facet normal 0.9063251397413578 -0.42258104675057095 0
  outer loop
    vertex -2.36 0.9500000000000001 16
    vertex -2.208 1.276 0
    vertex -2.208 1.276 16
  endloop
endfacet
facet normal -0.5283879661927551 -0.8490030372046286 0
  outer loop
    vertex -2.348 -3.239 0
    vertex -1.874 -3.5340000000000003 0
    vertex -2.348 -3.239 16
  endloop
endfacet
facet normal 0 0 -1
  outer loop
    vertex -2.348 -3.239 0
    vertex -1.639 -1.953 0
    vertex -1.276 -2.208 0
  endloop
endfacet
facet normal 0 0 -1
  outer loop
    vertex -2.348 -3.239 0
    vertex -1.276 -2.208 0
    vertex -1.874 -3.5340000000000003 0
  endloop
endfacet
facet normal -0.5283879661927551 -0.8490030372046286 0
  outer loop
    vertex -2.348 -3.239 16
    vertex -1.874 -3.5340000000000003 0
    vertex -1.874 -3.5340000000000003 16
  endloop
endfacet
facet normal 0 0 1
  outer loop
    vertex -2.348 -3.239 16
    vertex -1.874 -3.5340000000000003 16
    vertex -1.276 -2.208 16
  endloop
endfacet
facet normal 0 0 1
  outer loop
    vertex -2.348 -3.239 16
    vertex -1.276 -2.208 16
    vertex -1.639 -1.953 16
  endloop
endfacet
facet normal 0.8187046893090313 0.5742147957893481 0
  outer loop
    vertex -2.21 -1.2730000000000001 0
    vertex -2.21 -1.2730000000000001 16
    vertex -1.954 -1.6380000000000001 16
  endloop
endfacet
facet normal 0.8187046893090313 0.5742147957893481 0
  outer loop
    vertex -2.21 -1.2730000000000001 0
    vertex -1.954 -1.6380000000000001 16
    vertex -1.954 -1.6380000000000001 0
  endloop
endfacet
facet normal 0.8182776673006987 -0.5748231547153672 0
  outer loop
    vertex -2.208 1.276 0
    vertex -1.953 1.639 0
    vertex -2.208 1.276 16
  endloop
endfacet
facet normal 0.8182776673006987 -0.5748231547153672 0
  outer loop
    vertex -2.208 1.276 16
    vertex -1.953 1.639 0
    vertex -1.953 1.639 16
  endloop
endfacet
facet normal -0.469671537277602 0.8828412354842143 0
  outer loop
    vertex -2.124 3.39 0
    vertex -2.124 3.39 16
    vertex -1.624 3.656 16
  endloop
endfacet
facet normal 0 0 -1
  outer loop
    vertex -2.124 3.39 0
    vertex -1.624 3.656 0
    vertex -1.2730000000000001 2.21 0
  endloop
endfacet
facet normal -0.469671537277602 0.8828412354842143 0
  outer loop
    vertex -2.124 3.39 0
    vertex -1.624 3.656 16
    vertex -1.624 3.656 0
  endloop
endfacet
facet normal 0 0 -1
  outer loop
    vertex -2.124 3.39 0
    vertex -1.2730000000000001 2.21 0
    vertex -1.6380000000000001 1.954 0
  endloop
endfacet
facet normal 0 0 1
  outer loop
    vertex -2.124 3.39 16
    vertex -1.6380000000000001 1.954 16
    vertex -1.2730000000000001 2.21 16
  endloop
endfacet
facet normal 0 0 1
  outer loop
    vertex -2.124 3.39 16
    vertex -1.2730000000000001 2.21 16
    vertex -1.624 3.656 16
  endloop
endfacet
facet normal 0.7071067811865476 0.7071067811865476 0
  outer loop
    vertex -1.954 -1.6380000000000001 0
    vertex -1.954 -1.6380000000000001 16
    vertex -1.639 -1.953 16
  endloop
endfacet
facet normal 0.7071067811865476 0.7071067811865476 0
  outer loop
    vertex -1.954 -1.6380000000000001 0
    vertex -1.639 -1.953 16
    vertex -1.639 -1.953 0
  endloop
endfacet
facet normal 0.7071067811865476 -0.7071067811865476 0
  outer loop
    vertex -1.953 1.639 0
    vertex -1.6380000000000001 1.954 0
    vertex -1.953 1.639 16
  endloop
endfacet
facet normal 0.7071067811865476 -0.7071067811865476 0
  outer loop
    vertex -1.953 1.639 16
    vertex -1.6380000000000001 1.954 0
    vertex -1.6380000000000001 1.954 16
  endloop
endfacet
facet normal -0.40546655972020623 -0.9141098779406447 0
  outer loop
    vertex -1.874 -3.5340000000000003 0
    vertex -1.369 -3.758 0
    vertex -1.874 -3.5340000000000003 16
  endloop
endfacet
facet normal 0 0 -1
  outer loop
    vertex -1.874 -3.5340000000000003 0
    vertex -1.276 -2.208 0
    vertex -0.9500000000000001 -2.36 0
  endloop
endfacet
facet normal 0 0 -1
  outer loop
    vertex -1.874 -3.5340000000000003 0
    vertex -0.9500000000000001 -2.36 0
    vertex -1.369 -3.758 0
  endloop
endfacet
facet normal -0.40546655972020623 -0.9141098779406447 0
  outer loop
    vertex -1.874 -3.5340000000000003 16
    vertex -1.369 -3.758 0
    vertex -1.369 -3.758 16
  endloop
endfacet
facet normal 0 0 1
  outer loop
    vertex -1.874 -3.5340000000000003 16
    vertex -1.369 -3.758 16
    vertex -0.9500000000000001 -2.36 16
  endloop
endfacet
facet normal 0 0 1
  outer loop
    vertex -1.874 -3.5340000000000003 16
    vertex -0.9500000000000001 -2.36 16
    vertex -1.276 -2.208 16
  endloop
endfacet
facet normal 0.5748231547153672 0.8182776673006987 0
  outer loop
    vertex -1.639 -1.953 0
    vertex -1.639 -1.953 16
    vertex -1.276 -2.208 16
  endloop
endfacet
facet normal 0.5748231547153672 0.8182776673006987 0
  outer loop
    vertex -1.639 -1.953 0
    vertex -1.276 -2.208 16
    vertex -1.276 -2.208 0
  endloop
endfacet
facet normal 0.5742147957893481 -0.8187046893090313 0
  outer loop
    vertex -1.6380000000000001 1.954 0
    vertex -1.2730000000000001 2.21 0
    vertex -1.6380000000000001 1.954 16
  endloop
endfacet
facet normal 0.5742147957893481 -0.8187046893090313 0
  outer loop
    vertex -1.6380000000000001 1.954 16
    vertex -1.2730000000000001 2.21 0
    vertex -1.2730000000000001 2.21 16
  endloop
endfacet
facet normal -0.3398653972944174 0.9404740888094194 0
  outer loop
    vertex -1.624 3.656 0
    vertex -1.624 3.656 16
    vertex -1.101 3.845 16
  endloop
endfacet
facet normal 0 0 -1
  outer loop
    vertex -1.624 3.656 0
    vertex -1.101 3.845 0
    vertex -0.87 2.3970000000000002 0
  endloop
endfacet
facet normal -0.3398653972944174 0.9404740888094194 0
  outer loop
    vertex -1.624 3.656 0
    vertex -1.101 3.845 16
    vertex -1.101 3.845 0
  endloop
endfacet
facet normal 0 0 -1
  outer loop
    vertex -1.624 3.656 0
    vertex -0.9500000000000001 2.36 0
    vertex -1.2730000000000001 2.21 0
  endloop
endfacet
facet normal 0 0 -1
  outer loop
    vertex -1.624 3.656 0
    vertex -0.87 2.3970000000000002 0
    vertex -0.9500000000000001 2.36 0
  endloop
endfacet
facet normal 0 0 1
  outer loop
    vertex -1.624 3.656 16
    vertex -1.2730000000000001 2.21 16
    vertex -0.9500000000000001 2.36 16
  endloop
endfacet
facet normal 0 0 1
  outer loop
    vertex -1.624 3.656 16
    vertex -0.9500000000000001 2.36 16
    vertex -0.87 2.3970000000000002 16
  endloop
endfacet
facet normal 0 0 1
  outer loop
    vertex -1.624 3.656 16
    vertex -0.87 2.3970000000000002 16
    vertex -1.101 3.845 16
  endloop
endfacet
facet normal 0 0 -1
  outer loop
    vertex -1.369 -3.758 0
    vertex -0.9500000000000001 -2.36 0
    vertex -0.872 -2.396 0
  endloop
endfacet
facet normal 0 0 -1
  outer loop
    vertex -1.369 -3.758 0
    vertex -0.872 -2.396 0
    vertex -0.833 -3.912 0
  endloop
endfacet
facet normal -0.2761417977034206 -0.9611169062924255 0
  outer loop
    vertex -1.369 -3.758 0
    vertex -0.833 -3.912 0
    vertex -1.369 -3.758 16
  endloop
endfacet
facet normal 0 0 1
  outer loop
    vertex -1.369 -3.758 16
    vertex -0.872 -2.396 16
    vertex -0.9500000000000001 -2.36 16
  endloop
endfacet
facet normal -0.2761417977034206 -0.9611169062924255 0
  outer loop
    vertex -1.369 -3.758 16
    vertex -0.833 -3.912 0
    vertex -0.833 -3.912 16
  endloop
endfacet
facet normal 0 0 1
  outer loop
    vertex -1.369 -3.758 16
    vertex -0.833 -3.912 16
    vertex -0.872 -2.396 16
  endloop
endfacet
facet normal 0.42258104675057095 0.9063251397413578 0
  outer loop
    vertex -1.276 -2.208 0
    vertex -1.276 -2.208 16
    vertex -0.9500000000000001 -2.36 16
  endloop
endfacet
facet normal 0.42258104675057095 0.9063251397413578 0
  outer loop
    vertex -1.276 -2.208 0
    vertex -0.9500000000000001 -2.36 16
    vertex -0.9500000000000001 -2.36 0
  endloop
endfacet
facet normal 0.42119380507315946 -0.9069706602575374 0
  outer loop
    vertex -1.2730000000000001 2.21 0
    vertex -0.9500000000000001 2.36 0
    vertex -1.2730000000000001 2.21 16
  endloop
endfacet
facet normal 0.42119380507315946 -0.9069706602575374 0
  outer loop
    vertex -1.2730000000000001 2.21 16
    vertex -0.9500000000000001 2.36 0
    vertex -0.9500000000000001 2.36 16
  endloop
endfacet
facet normal -0.2078159027838978 0.9781679562069662 0
  outer loop
    vertex -1.101 3.845 0
    vertex -1.101 3.845 16
    vertex -0.555 3.9610000000000003 16
  endloop
endfacet
facet normal 0 0 -1
  outer loop
    vertex -1.101 3.845 0
    vertex -0.555 3.9610000000000003 0
    vertex -0.44 2.512 0
  endloop
endfacet
facet normal -0.2078159027838978 0.9781679562069662 0
  outer loop
    vertex -1.101 3.845 0
    vertex -0.555 3.9610000000000003 16
    vertex -0.555 3.9610000000000003 0
  endloop
endfacet
facet normal 0 0 -1
  outer loop
    vertex -1.101 3.845 0
    vertex -0.44 2.512 0
    vertex -0.87 2.3970000000000002 0
  endloop
endfacet
facet normal 0 0 1
  outer loop
    vertex -1.101 3.845 16
    vertex -0.87 2.3970000000000002 16
    vertex -0.44 2.512 16
  endloop
endfacet
facet normal 0 0 1
  outer loop
    vertex -1.101 3.845 16
    vertex -0.44 2.512 16
    vertex -0.555 3.9610000000000003 16
  endloop
endfacet
facet normal 0.41905817746174695 0.9079593845004518 0
  outer loop
    vertex -0.9500000000000001 -2.36 0
    vertex -0.9500000000000001 -2.36 16
    vertex -0.872 -2.396 16
  endloop
endfacet
facet normal 0.41905817746174695 0.9079593845004518 0
  outer loop
    vertex -0.9500000000000001 -2.36 0
    vertex -0.872 -2.396 16
    vertex -0.872 -2.396 0
  endloop
endfacet
facet normal 0.4197775063604363 -0.9076270407793136 0
  outer loop
    vertex -0.9500000000000001 2.36 0
    vertex -0.87 2.3970000000000002 0
    vertex -0.9500000000000001 2.36 16
  endloop
endfacet
facet normal 0.4197775063604363 -0.9076270407793136 0
  outer loop
    vertex -0.9500000000000001 2.36 16
    vertex -0.87 2.3970000000000002 0
    vertex -0.87 2.3970000000000002 16
  endloop
endfacet
facet normal 0.260623605937637 0.9654404880820274 0
  outer loop
    vertex -0.872 -2.396 0
    vertex -0.872 -2.396 16
    vertex -0.446 -2.511 16
  endloop
endfacet
facet normal 0 0 -1
  outer loop
    vertex -0.872 -2.396 0
    vertex -0.446 -2.511 0
    vertex -0.833 -3.912 0
  endloop
endfacet
facet normal 0.260623605937637 0.9654404880820274 0
  outer loop
    vertex -0.872 -2.396 0
    vertex -0.446 -2.511 16
    vertex -0.446 -2.511 0
  endloop
endfacet
facet normal 0 0 1
  outer loop
    vertex -0.872 -2.396 16
    vertex -0.833 -3.912 16
    vertex -0.446 -2.511 16
  endloop
endfacet
facet normal 0.2583617398987955 -0.9660482448389766 0
  outer loop
    vertex -0.87 2.3970000000000002 0
    vertex -0.44 2.512 0
    vertex -0.87 2.3970000000000002 16
  endloop
endfacet
facet normal 0.2583617398987955 -0.9660482448389766 0
  outer loop
    vertex -0.87 2.3970000000000002 16
    vertex -0.44 2.512 0
    vertex -0.44 2.512 16
  endloop
endfacet
facet normal 0 0 -1
  outer loop
    vertex -0.833 -3.912 0
    vertex -0.446 -2.511 0
    vertex -0.276 -3.99 0
  endloop
endfacet
facet normal -0.1386827205488008 -0.9903368634061761 0
  outer loop
    vertex -0.833 -3.912 0
    vertex -0.276 -3.99 0
    vertex -0.833 -3.912 16
  endloop
endfacet
facet normal -0.1386827205488008 -0.9903368634061761 0
  outer loop
    vertex -0.833 -3.912 16
    vertex -0.276 -3.99 0
    vertex -0.276 -3.99 16
  endloop
endfacet
facet normal 0 0 1
  outer loop
    vertex -0.833 -3.912 16
    vertex -0.276 -3.99 16
    vertex -0.446 -2.511 16
  endloop
endfacet
facet normal -0.07009741599556311 0.9975401507060981 0
  outer loop
    vertex -0.555 3.9610000000000003 0
    vertex -0.555 3.9610000000000003 16
    vertex 0 4 16
  endloop
endfacet
facet normal 0 0 -1
  outer loop
    vertex -0.555 3.9610000000000003 0
    vertex 0 2.5500000000000003 0
    vertex -0.44 2.512 0
  endloop
endfacet
facet normal 0 0 -1
  outer loop
    vertex -0.555 3.9610000000000003 0
    vertex 0 4 0
    vertex 0 2.5500000000000003 0
  endloop
endfacet
facet normal -0.07009741599556311 0.9975401507060981 0
  outer loop
    vertex -0.555 3.9610000000000003 0
    vertex 0 4 16
    vertex 0 4 0
  endloop
endfacet
facet normal 0 0 1
  outer loop
    vertex -0.555 3.9610000000000003 16
    vertex -0.44 2.512 16
    vertex 0 2.5500000000000003 16
  endloop
endfacet
facet normal 0 0 1
  outer loop
    vertex -0.555 3.9610000000000003 16
    vertex 0 2.5500000000000003 16
    vertex 0 4 16
  endloop
endfacet
facet normal 0.08711153370146348 0.9961985648936554 0
  outer loop
    vertex -0.446 -2.511 0
    vertex -0.446 -2.511 16
    vertex 0 -2.5500000000000003 16
  endloop
endfacet
facet normal 0 0 -1
  outer loop
    vertex -0.446 -2.511 0
    vertex 0 -2.5500000000000003 0
    vertex -0.276 -3.99 0
  endloop
endfacet
facet normal 0.08711153370146348 0.9961985648936554 0
  outer loop
    vertex -0.446 -2.511 0
    vertex 0 -2.5500000000000003 16
    vertex 0 -2.5500000000000003 0
  endloop
endfacet
facet normal 0 0 1
  outer loop
    vertex -0.446 -2.511 16
    vertex -0.276 -3.99 16
    vertex 0 -2.5500000000000003 16
  endloop
endfacet
facet normal 0.08604334768791713 -0.9962913942811391 0
  outer loop
    vertex -0.44 2.512 0
    vertex 0 2.5500000000000003 0
    vertex -0.44 2.512 16
  endloop
endfacet
facet normal 0.08604334768791713 -0.9962913942811391 0
  outer loop
    vertex -0.44 2.512 16
    vertex 0 2.5500000000000003 0
    vertex 0 2.5500000000000003 16
  endloop
endfacet
facet normal 0 0 -1
  outer loop
    vertex -0.276 -3.99 0
    vertex 0 -2.5500000000000003 0
    vertex 0.276 -3.99 0
  endloop
endfacet
facet normal 0 -1 0
  outer loop
    vertex -0.276 -3.99 0
    vertex 0.276 -3.99 0
    vertex -0.276 -3.99 16
  endloop
endfacet
facet normal 0 -1 0
  outer loop
    vertex -0.276 -3.99 16
    vertex 0.276 -3.99 0
    vertex 0.276 -3.99 16
  endloop
endfacet
facet normal 0 0 1
  outer loop
    vertex -0.276 -3.99 16
    vertex 0.276 -3.99 16
    vertex 0 -2.5500000000000003 16
  endloop
endfacet
facet normal -0.08604334768791713 0.9962913942811391 0
  outer loop
    vertex 0 -2.5500000000000003 0
    vertex 0 -2.5500000000000003 16
    vertex 0.44 -2.512 16
  endloop
endfacet
facet normal 0 0 -1
  outer loop
    vertex 0 -2.5500000000000003 0
    vertex 0.44 -2.512 0
    vertex 0.276 -3.99 0
  endloop
endfacet
facet normal -0.08604334768791713 0.9962913942811391 0
  outer loop
    vertex 0 -2.5500000000000003 0
    vertex 0.44 -2.512 16
    vertex 0.44 -2.512 0
  endloop
endfacet
facet normal 0 0 1
  outer loop
    vertex 0 -2.5500000000000003 16
    vertex 0.276 -3.99 16
    vertex 0.44 -2.512 16
  endloop
endfacet
facet normal 0 0 -1
  outer loop
    vertex 0 2.5500000000000003 0
    vertex 0 4 0
    vertex 0.555 3.9610000000000003 0
  endloop
endfacet
facet normal -0.08711153370146348 -0.9961985648936554 0
  outer loop
    vertex 0 2.5500000000000003 0
    vertex 0.446 2.511 0
    vertex 0 2.5500000000000003 16
  endloop
endfacet
facet normal 0 0 -1
  outer loop
    vertex 0 2.5500000000000003 0
    vertex 0.555 3.9610000000000003 0
    vertex 0.446 2.511 0
  endloop
endfacet
facet normal -0.08711153370146348 -0.9961985648936554 0
  outer loop
    vertex 0 2.5500000000000003 16
    vertex 0.446 2.511 0
    vertex 0.446 2.511 16
  endloop
endfacet
facet normal 0 0 1
  outer loop
    vertex 0 2.5500000000000003 16
    vertex 0.446 2.511 16
    vertex 0.555 3.9610000000000003 16
  endloop
endfacet
facet normal 0 0 1
  outer loop
    vertex 0 2.5500000000000003 16
    vertex 0.555 3.9610000000000003 16
    vertex 0 4 16
  endloop
endfacet
facet normal 0.07009741599556311 0.9975401507060981 0
  outer loop
    vertex 0 4 0
    vertex 0 4 16
    vertex 0.555 3.9610000000000003 16
  endloop
endfacet
facet normal 0.07009741599556311 0.9975401507060981 0
  outer loop
    vertex 0 4 0
    vertex 0.555 3.9610000000000003 16
    vertex 0.555 3.9610000000000003 0
  endloop
endfacet
facet normal 0 0 -1
  outer loop
    vertex 0.276 -3.99 0
    vertex 0.44 -2.512 0
    vertex 0.833 -3.912 0
  endloop
endfacet
facet normal 0.1386827205488008 -0.9903368634061761 0
  outer loop
    vertex 0.276 -3.99 0
    vertex 0.833 -3.912 0
    vertex 0.276 -3.99 16
  endloop
endfacet
facet normal 0.1386827205488008 -0.9903368634061761 0
  outer loop
    vertex 0.276 -3.99 16
    vertex 0.833 -3.912 0
    vertex 0.833 -3.912 16
  endloop
endfacet
facet normal 0 0 1
  outer loop
    vertex 0.276 -3.99 16
    vertex 0.833 -3.912 16
    vertex 0.44 -2.512 16
  endloop
endfacet
facet normal -0.2583617398987955 0.9660482448389766 0
  outer loop
    vertex 0.44 -2.512 0
    vertex 0.44 -2.512 16
    vertex 0.87 -2.3970000000000002 16
  endloop
endfacet
facet normal 0 0 -1
  outer loop
    vertex 0.44 -2.512 0
    vertex 0.87 -2.3970000000000002 0
    vertex 0.833 -3.912 0
  endloop
endfacet
facet normal -0.2583617398987955 0.9660482448389766 0
  outer loop
    vertex 0.44 -2.512 0
    vertex 0.87 -2.3970000000000002 16
    vertex 0.87 -2.3970000000000002 0
  endloop
endfacet
facet normal 0 0 1
  outer loop
    vertex 0.44 -2.512 16
    vertex 0.833 -3.912 16
    vertex 0.87 -2.3970000000000002 16
  endloop
endfacet
facet normal 0 0 -1
  outer loop
    vertex 0.446 2.511 0
    vertex 0.555 3.9610000000000003 0
    vertex 1.101 3.845 0
  endloop
endfacet
facet normal -0.260623605937637 -0.9654404880820274 0
  outer loop
    vertex 0.446 2.511 0
    vertex 0.872 2.396 0
    vertex 0.446 2.511 16
  endloop
endfacet
facet normal 0 0 -1
  outer loop
    vertex 0.446 2.511 0
    vertex 1.101 3.845 0
    vertex 0.872 2.396 0
  endloop
endfacet
facet normal -0.260623605937637 -0.9654404880820274 0
  outer loop
    vertex 0.446 2.511 16
    vertex 0.872 2.396 0
    vertex 0.872 2.396 16
  endloop
endfacet
facet normal 0 0 1
  outer loop
    vertex 0.446 2.511 16
    vertex 0.872 2.396 16
    vertex 1.101 3.845 16
  endloop
endfacet
facet normal 0 0 1
  outer loop
    vertex 0.446 2.511 16
    vertex 1.101 3.845 16
    vertex 0.555 3.9610000000000003 16
  endloop
endfacet
facet normal 0.2078159027838978 0.9781679562069662 0
  outer loop
    vertex 0.555 3.9610000000000003 0
    vertex 0.555 3.9610000000000003 16
    vertex 1.101 3.845 16
  endloop
endfacet
facet normal 0.2078159027838978 0.9781679562069662 0
  outer loop
    vertex 0.555 3.9610000000000003 0
    vertex 1.101 3.845 16
    vertex 1.101 3.845 0
  endloop
endfacet
facet normal 0 0 -1
  outer loop
    vertex 0.833 -3.912 0
    vertex 0.87 -2.3970000000000002 0
    vertex 1.369 -3.758 0
  endloop
endfacet
facet normal 0.2761417977034206 -0.9611169062924255 0
  outer loop
    vertex 0.833 -3.912 0
    vertex 1.369 -3.758 0
    vertex 0.833 -3.912 16
  endloop
endfacet
facet normal 0.2761417977034206 -0.9611169062924255 0
  outer loop
    vertex 0.833 -3.912 16
    vertex 1.369 -3.758 0
    vertex 1.369 -3.758 16
  endloop
endfacet
facet normal 0 0 1
  outer loop
    vertex 0.833 -3.912 16
    vertex 1.369 -3.758 16
    vertex 0.87 -2.3970000000000002 16
  endloop
endfacet
facet normal -0.4197775063604363 0.9076270407793136 0
  outer loop
    vertex 0.87 -2.3970000000000002 0
    vertex 0.87 -2.3970000000000002 16
    vertex 0.9500000000000001 -2.36 16
  endloop
endfacet
facet normal 0 0 -1
  outer loop
    vertex 0.87 -2.3970000000000002 0
    vertex 0.9500000000000001 -2.36 0
    vertex 1.369 -3.758 0
  endloop
endfacet
facet normal -0.4197775063604363 0.9076270407793136 0
  outer loop
    vertex 0.87 -2.3970000000000002 0
    vertex 0.9500000000000001 -2.36 16
    vertex 0.9500000000000001 -2.36 0
  endloop
endfacet
facet normal 0 0 1
  outer loop
    vertex 0.87 -2.3970000000000002 16
    vertex 1.369 -3.758 16
    vertex 0.9500000000000001 -2.36 16
  endloop
endfacet
facet normal -0.41905817746174695 -0.9079593845004518 0
  outer loop
    vertex 0.872 2.396 0
    vertex 0.9500000000000001 2.36 0
    vertex 0.872 2.396 16
  endloop
endfacet
facet normal 0 0 -1
  outer loop
    vertex 0.872 2.396 0
    vertex 1.101 3.845 0
    vertex 1.624 3.656 0
  endloop
endfacet
facet normal 0 0 -1
  outer loop
    vertex 0.872 2.396 0
    vertex 1.624 3.656 0
    vertex 0.9500000000000001 2.36 0
  endloop
endfacet
facet normal -0.41905817746174695 -0.9079593845004518 0
  outer loop
    vertex 0.872 2.396 16
    vertex 0.9500000000000001 2.36 0
    vertex 0.9500000000000001 2.36 16
  endloop
endfacet
facet normal 0 0 1
  outer loop
    vertex 0.872 2.396 16
    vertex 0.9500000000000001 2.36 16
    vertex 1.624 3.656 16
  endloop
endfacet
facet normal 0 0 1
  outer loop
    vertex 0.872 2.396 16
    vertex 1.624 3.656 16
    vertex 1.101 3.845 16
  endloop
endfacet
facet normal -0.42119380507315946 0.9069706602575374 0
  outer loop
    vertex 0.9500000000000001 -2.36 0
    vertex 0.9500000000000001 -2.36 16
    vertex 1.2730000000000001 -2.21 16
  endloop
endfacet
facet normal 0 0 -1
  outer loop
    vertex 0.9500000000000001 -2.36 0
    vertex 1.2730000000000001 -2.21 0
    vertex 1.874 -3.5340000000000003 0
  endloop
endfacet
facet normal -0.42119380507315946 0.9069706602575374 0
  outer loop
    vertex 0.9500000000000001 -2.36 0
    vertex 1.2730000000000001 -2.21 16
    vertex 1.2730000000000001 -2.21 0
  endloop
endfacet
facet normal 0 0 -1
  outer loop
    vertex 0.9500000000000001 -2.36 0
    vertex 1.874 -3.5340000000000003 0
    vertex 1.369 -3.758 0
  endloop
endfacet
facet normal 0 0 1
  outer loop
    vertex 0.9500000000000001 -2.36 16
    vertex 1.369 -3.758 16
    vertex 1.874 -3.5340000000000003 16
  endloop
endfacet
facet normal 0 0 1
  outer loop
    vertex 0.9500000000000001 -2.36 16
    vertex 1.874 -3.5340000000000003 16
    vertex 1.2730000000000001 -2.21 16
  endloop
endfacet
facet normal -0.42258104675057095 -0.9063251397413578 0
  outer loop
    vertex 0.9500000000000001 2.36 0
    vertex 1.276 2.208 0
    vertex 0.9500000000000001 2.36 16
  endloop
endfacet
facet normal 0 0 -1
  outer loop
    vertex 0.9500000000000001 2.36 0
    vertex 1.624 3.656 0
    vertex 1.276 2.208 0
  endloop
endfacet
facet normal -0.42258104675057095 -0.9063251397413578 0
  outer loop
    vertex 0.9500000000000001 2.36 16
    vertex 1.276 2.208 0
    vertex 1.276 2.208 16
  endloop
endfacet
facet normal 0 0 1
  outer loop
    vertex 0.9500000000000001 2.36 16
    vertex 1.276 2.208 16
    vertex 1.624 3.656 16
  endloop
endfacet
facet normal 0.3398653972944174 0.9404740888094194 0
  outer loop
    vertex 1.101 3.845 0
    vertex 1.101 3.845 16
    vertex 1.624 3.656 16
  endloop
endfacet
facet normal 0.3398653972944174 0.9404740888094194 0
  outer loop
    vertex 1.101 3.845 0
    vertex 1.624 3.656 16
    vertex 1.624 3.656 0
  endloop
endfacet
facet normal -0.5742147957893481 0.8187046893090313 0
  outer loop
    vertex 1.2730000000000001 -2.21 0
    vertex 1.2730000000000001 -2.21 16
    vertex 1.6380000000000001 -1.954 16
  endloop
endfacet
facet normal 0 0 -1
  outer loop
    vertex 1.2730000000000001 -2.21 0
    vertex 1.6380000000000001 -1.954 0
    vertex 2.348 -3.239 0
  endloop
endfacet
facet normal -0.5742147957893481 0.8187046893090313 0
  outer loop
    vertex 1.2730000000000001 -2.21 0
    vertex 1.6380000000000001 -1.954 16
    vertex 1.6380000000000001 -1.954 0
  endloop
endfacet
facet normal 0 0 -1
  outer loop
    vertex 1.2730000000000001 -2.21 0
    vertex 2.348 -3.239 0
    vertex 1.874 -3.5340000000000003 0
  endloop
endfacet
facet normal 0 0 1
  outer loop
    vertex 1.2730000000000001 -2.21 16
    vertex 1.874 -3.5340000000000003 16
    vertex 2.348 -3.239 16
  endloop
endfacet
facet normal 0 0 1
  outer loop
    vertex 1.2730000000000001 -2.21 16
    vertex 2.348 -3.239 16
    vertex 1.6380000000000001 -1.954 16
  endloop
endfacet
facet normal 0 0 -1
  outer loop
    vertex 1.276 2.208 0
    vertex 1.624 3.656 0
    vertex 2.124 3.39 0
  endloop
endfacet
facet normal -0.5748231547153672 -0.8182776673006987 0
  outer loop
    vertex 1.276 2.208 0
    vertex 1.639 1.953 0
    vertex 1.276 2.208 16
  endloop
endfacet
facet normal 0 0 -1
  outer loop
    vertex 1.276 2.208 0
    vertex 2.124 3.39 0
    vertex 1.639 1.953 0
  endloop
endfacet
facet normal -0.5748231547153672 -0.8182776673006987 0
  outer loop
    vertex 1.276 2.208 16
    vertex 1.639 1.953 0
    vertex 1.639 1.953 16
  endloop
endfacet
facet normal 0 0 1
  outer loop
    vertex 1.276 2.208 16
    vertex 1.639 1.953 16
    vertex 2.124 3.39 16
  endloop
endfacet
facet normal 0 0 1
  outer loop
    vertex 1.276 2.208 16
    vertex 2.124 3.39 16
    vertex 1.624 3.656 16
  endloop
endfacet
facet normal 0.40546655972020623 -0.9141098779406447 0
  outer loop
    vertex 1.369 -3.758 0
    vertex 1.874 -3.5340000000000003 0
    vertex 1.369 -3.758 16
  endloop
endfacet
facet normal 0.40546655972020623 -0.9141098779406447 0
  outer loop
    vertex 1.369 -3.758 16
    vertex 1.874 -3.5340000000000003 0
    vertex 1.874 -3.5340000000000003 16
  endloop
endfacet
facet normal 0.469671537277602 0.8828412354842143 0
  outer loop
    vertex 1.624 3.656 0
    vertex 1.624 3.656 16
    vertex 2.124 3.39 16
  endloop
endfacet
facet normal 0.469671537277602 0.8828412354842143 0
  outer loop
    vertex 1.624 3.656 0
    vertex 2.124 3.39 16
    vertex 2.124 3.39 0
  endloop
endfacet
facet normal -0.7071067811865476 0.7071067811865476 0
  outer loop
    vertex 1.6380000000000001 -1.954 0
    vertex 1.6380000000000001 -1.954 16
    vertex 1.953 -1.639 16
  endloop
endfacet
facet normal 0 0 -1
  outer loop
    vertex 1.6380000000000001 -1.954 0
    vertex 1.953 -1.639 0
    vertex 2.782 -2.874 0
  endloop
endfacet
facet normal -0.7071067811865476 0.7071067811865476 0
  outer loop
    vertex 1.6380000000000001 -1.954 0
    vertex 1.953 -1.639 16
    vertex 1.953 -1.639 0
  endloop
endfacet
facet normal 0 0 -1
  outer loop
    vertex 1.6380000000000001 -1.954 0
    vertex 2.782 -2.874 0
    vertex 2.348 -3.239 0
  endloop
endfacet
facet normal 0 0 1
  outer loop
    vertex 1.6380000000000001 -1.954 16
    vertex 2.348 -3.239 16
    vertex 2.782 -2.874 16
  endloop
endfacet
facet normal 0 0 1
  outer loop
    vertex 1.6380000000000001 -1.954 16
    vertex 2.782 -2.874 16
    vertex 1.953 -1.639 16
  endloop
endfacet
facet normal -0.7071067811865476 -0.7071067811865476 0
  outer loop
    vertex 1.639 1.953 0
    vertex 1.954 1.6380000000000001 0
    vertex 1.639 1.953 16
  endloop
endfacet
facet normal 0 0 -1
  outer loop
    vertex 1.639 1.953 0
    vertex 2.124 3.39 0
    vertex 2.569 3.0660000000000003 0
  endloop
endfacet
facet normal 0 0 -1
  outer loop
    vertex 1.639 1.953 0
    vertex 2.569 3.0660000000000003 0
    vertex 2.969 2.68 0
  endloop
endfacet
facet normal 0 0 -1
  outer loop
    vertex 1.639 1.953 0
    vertex 2.969 2.68 0
    vertex 1.954 1.6380000000000001 0
  endloop
endfacet
facet normal -0.7071067811865476 -0.7071067811865476 0
  outer loop
    vertex 1.639 1.953 16
    vertex 1.954 1.6380000000000001 0
    vertex 1.954 1.6380000000000001 16
  endloop
endfacet
facet normal 0 0 1
  outer loop
    vertex 1.639 1.953 16
    vertex 1.954 1.6380000000000001 16
    vertex 2.969 2.68 16
  endloop
endfacet
facet normal 0 0 1
  outer loop
    vertex 1.639 1.953 16
    vertex 2.569 3.0660000000000003 16
    vertex 2.124 3.39 16
  endloop
endfacet
facet normal 0 0 1
  outer loop
    vertex 1.639 1.953 16
    vertex 2.969 2.68 16
    vertex 2.569 3.0660000000000003 16
  endloop
endfacet
facet normal 0.5283879661927551 -0.8490030372046286 0
  outer loop
    vertex 1.874 -3.5340000000000003 0
    vertex 2.348 -3.239 0
    vertex 1.874 -3.5340000000000003 16
  endloop
endfacet
facet normal 0.5283879661927551 -0.8490030372046286 0
  outer loop
    vertex 1.874 -3.5340000000000003 16
    vertex 2.348 -3.239 0
    vertex 2.348 -3.239 16
  endloop
endfacet
facet normal -0.8182776673006987 0.5748231547153672 0
  outer loop
    vertex 1.953 -1.639 0
    vertex 1.953 -1.639 16
    vertex 2.208 -1.276 16
  endloop
endfacet
facet normal 0 0 -1
  outer loop
    vertex 1.953 -1.639 0
    vertex 2.208 -1.276 0
    vertex 3.15 -2.465 0
  endloop
endfacet
facet normal -0.8182776673006987 0.5748231547153672 0
  outer loop
    vertex 1.953 -1.639 0
    vertex 2.208 -1.276 16
    vertex 2.208 -1.276 0
  endloop
endfacet
facet normal 0 0 -1
  outer loop
    vertex 1.953 -1.639 0
    vertex 3.15 -2.465 0
    vertex 2.782 -2.874 0
  endloop
endfacet
facet normal 0 0 1
  outer loop
    vertex 1.953 -1.639 16
    vertex 2.782 -2.874 16
    vertex 3.15 -2.465 16
  endloop
endfacet
facet normal 0 0 1
  outer loop
    vertex 1.953 -1.639 16
    vertex 3.15 -2.465 16
    vertex 2.208 -1.276 16
  endloop
endfacet
facet normal -0.8187046893090313 -0.5742147957893481 0
  outer loop
    vertex 1.954 1.6380000000000001 0
    vertex 2.21 1.2730000000000001 0
    vertex 1.954 1.6380000000000001 16
  endloop
endfacet
facet normal 0 0 -1
  outer loop
    vertex 1.954 1.6380000000000001 0
    vertex 2.969 2.68 0
    vertex 3.317 2.236 0
  endloop
endfacet
facet normal 0 0 -1
  outer loop
    vertex 1.954 1.6380000000000001 0
    vertex 3.317 2.236 0
    vertex 2.21 1.2730000000000001 0
  endloop
endfacet
facet normal -0.8187046893090313 -0.5742147957893481 0
  outer loop
    vertex 1.954 1.6380000000000001 16
    vertex 2.21 1.2730000000000001 0
    vertex 2.21 1.2730000000000001 16
  endloop
endfacet
facet normal 0 0 1
  outer loop
    vertex 1.954 1.6380000000000001 16
    vertex 2.21 1.2730000000000001 16
    vertex 3.317 2.236 16
  endloop
endfacet
facet normal 0 0 1
  outer loop
    vertex 1.954 1.6380000000000001 16
    vertex 3.317 2.236 16
    vertex 2.969 2.68 16
  endloop
endfacet
facet normal 0.5886036885129212 0.8084217326797839 0
  outer loop
    vertex 2.124 3.39 0
    vertex 2.124 3.39 16
    vertex 2.569 3.0660000000000003 16
  endloop
endfacet
facet normal 0.5886036885129212 0.8084217326797839 0
  outer loop
    vertex 2.124 3.39 0
    vertex 2.569 3.0660000000000003 16
    vertex 2.569 3.0660000000000003 0
  endloop
endfacet
facet normal -0.9063251397413578 0.42258104675057095 0
  outer loop
    vertex 2.208 -1.276 0
    vertex 2.208 -1.276 16
    vertex 2.36 -0.9500000000000001 16
  endloop
endfacet
facet normal 0 0 -1
  outer loop
    vertex 2.208 -1.276 0
    vertex 2.36 -0.9500000000000001 0
    vertex 3.709 -1.499 0
  endloop
endfacet
facet normal -0.9063251397413578 0.42258104675057095 0
  outer loop
    vertex 2.208 -1.276 0
    vertex 2.36 -0.9500000000000001 16
    vertex 2.36 -0.9500000000000001 0
  endloop
endfacet
facet normal 0 0 -1
  outer loop
    vertex 2.208 -1.276 0
    vertex 3.463 -2.0020000000000002 0
    vertex 3.15 -2.465 0
  endloop
endfacet
facet normal 0 0 -1
  outer loop
    vertex 2.208 -1.276 0
    vertex 3.709 -1.499 0
    vertex 3.463 -2.0020000000000002 0
  endloop
endfacet
facet normal 0 0 1
  outer loop
    vertex 2.208 -1.276 16
    vertex 3.15 -2.465 16
    vertex 3.463 -2.0020000000000002 16
  endloop
endfacet
facet normal 0 0 1
  outer loop
    vertex 2.208 -1.276 16
    vertex 3.463 -2.0020000000000002 16
    vertex 3.709 -1.499 16
  endloop
endfacet
facet normal 0 0 1
  outer loop
    vertex 2.208 -1.276 16
    vertex 3.709 -1.499 16
    vertex 2.36 -0.9500000000000001 16
  endloop
endfacet
facet normal -0.9069706602575374 -0.42119380507315946 0
  outer loop
    vertex 2.21 1.2730000000000001 0
    vertex 2.36 0.9500000000000001 0
    vertex 2.21 1.2730000000000001 16
  endloop
endfacet
facet normal 0 0 -1
  outer loop
    vertex 2.21 1.2730000000000001 0
    vertex 3.317 2.236 0
    vertex 3.596 1.7530000000000001 0
  endloop
endfacet
facet normal 0 0 -1
  outer loop
    vertex 2.21 1.2730000000000001 0
    vertex 3.596 1.7530000000000001 0
    vertex 2.36 0.9500000000000001 0
  endloop
endfacet
facet normal -0.9069706602575374 -0.42119380507315946 0
  outer loop
    vertex 2.21 1.2730000000000001 16
    vertex 2.36 0.9500000000000001 0
    vertex 2.36 0.9500000000000001 16
  endloop
endfacet
facet normal 0 0 1
  outer loop
    vertex 2.21 1.2730000000000001 16
    vertex 2.36 0.9500000000000001 16
    vertex 3.596 1.7530000000000001 16
  endloop
endfacet
facet normal 0 0 1
  outer loop
    vertex 2.21 1.2730000000000001 16
    vertex 3.596 1.7530000000000001 16
    vertex 3.317 2.236 16
  endloop
endfacet
facet normal 0.6436468879527831 -0.7653226010178306 0
  outer loop
    vertex 2.348 -3.239 0
    vertex 2.782 -2.874 0
    vertex 2.348 -3.239 16
  endloop
endfacet
facet normal 0.6436468879527831 -0.7653226010178306 0
  outer loop
    vertex 2.348 -3.239 16
    vertex 2.782 -2.874 0
    vertex 2.782 -2.874 16
  endloop
endfacet
facet normal -0.9079593845004518 0.41905817746174695 0
  outer loop
    vertex 2.36 -0.9500000000000001 0
    vertex 2.36 -0.9500000000000001 16
    vertex 2.396 -0.872 16
  endloop
endfacet
facet normal 0 0 -1
  outer loop
    vertex 2.36 -0.9500000000000001 0
    vertex 2.396 -0.872 0
    vertex 3.709 -1.499 0
  endloop
endfacet
facet normal -0.9079593845004518 0.41905817746174695 0
  outer loop
    vertex 2.36 -0.9500000000000001 0
    vertex 2.396 -0.872 16
    vertex 2.396 -0.872 0
  endloop
endfacet
facet normal 0 0 1
  outer loop
    vertex 2.36 -0.9500000000000001 16
    vertex 3.709 -1.499 16
    vertex 2.396 -0.872 16
  endloop
endfacet
facet normal -0.9076270407793136 -0.4197775063604363 0
  outer loop
    vertex 2.36 0.9500000000000001 0
    vertex 2.3970000000000002 0.87 0
    vertex 2.36 0.9500000000000001 16
  endloop
endfacet
facet normal 0 0 -1
  outer loop
    vertex 2.36 0.9500000000000001 0
    vertex 3.596 1.7530000000000001 0
    vertex 3.805 1.232 0
  endloop
endfacet
facet normal 0 0 -1
  outer loop
    vertex 2.36 0.9500000000000001 0
    vertex 3.805 1.232 0
    vertex 2.3970000000000002 0.87 0
  endloop
endfacet
facet normal -0.9076270407793136 -0.4197775063604363 0
  outer loop
    vertex 2.36 0.9500000000000001 16
    vertex 2.3970000000000002 0.87 0
    vertex 2.3970000000000002 0.87 16
  endloop
endfacet
facet normal 0 0 1
  outer loop
    vertex 2.36 0.9500000000000001 16
    vertex 2.3970000000000002 0.87 16
    vertex 3.805 1.232 16
  endloop
endfacet
facet normal 0 0 1
  outer loop
    vertex 2.36 0.9500000000000001 16
    vertex 3.805 1.232 16
    vertex 3.596 1.7530000000000001 16
  endloop
endfacet
facet normal -0.9654404880820274 0.260623605937637 0
  outer loop
    vertex 2.396 -0.872 0
    vertex 2.396 -0.872 16
    vertex 2.511 -0.446 16
  endloop
endfacet
facet normal 0 0 -1
  outer loop
    vertex 2.396 -0.872 0
    vertex 2.511 -0.446 0
    vertex 3.882 -0.965 0
  endloop
endfacet
facet normal -0.9654404880820274 0.260623605937637 0
  outer loop
    vertex 2.396 -0.872 0
    vertex 2.511 -0.446 16
    vertex 2.511 -0.446 0
  endloop
endfacet
facet normal 0 0 -1
  outer loop
    vertex 2.396 -0.872 0
    vertex 3.882 -0.965 0
    vertex 3.709 -1.499 0
  endloop
endfacet
facet normal 0 0 1
  outer loop
    vertex 2.396 -0.872 16
    vertex 3.709 -1.499 16
    vertex 3.882 -0.965 16
  endloop
endfacet
facet normal 0 0 1
  outer loop
    vertex 2.396 -0.872 16
    vertex 3.882 -0.965 16
    vertex 2.511 -0.446 16
  endloop
endfacet
facet normal -0.9660482448389766 -0.2583617398987955 0
  outer loop
    vertex 2.3970000000000002 0.87 0
    vertex 2.512 0.44 0
    vertex 2.3970000000000002 0.87 16
  endloop
endfacet
facet normal 0 0 -1
  outer loop
    vertex 2.3970000000000002 0.87 0
    vertex 3.805 1.232 0
    vertex 2.512 0.44 0
  endloop
endfacet
facet normal -0.9660482448389766 -0.2583617398987955 0
  outer loop
    vertex 2.3970000000000002 0.87 16
    vertex 2.512 0.44 0
    vertex 2.512 0.44 16
  endloop
endfacet
facet normal 0 0 1
  outer loop
    vertex 2.3970000000000002 0.87 16
    vertex 2.512 0.44 16
    vertex 3.805 1.232 16
  endloop
endfacet
facet normal -0.9961985648936554 0.08711153370146348 0
  outer loop
    vertex 2.511 -0.446 0
    vertex 2.511 -0.446 16
    vertex 2.5500000000000003 0 16
  endloop
endfacet
facet normal 0 0 -1
  outer loop
    vertex 2.511 -0.446 0
    vertex 2.5500000000000003 0 0
    vertex 3.978 -0.42 0
  endloop
endfacet
facet normal -0.9961985648936554 0.08711153370146348 0
  outer loop
    vertex 2.511 -0.446 0
    vertex 2.5500000000000003 0 16
    vertex 2.5500000000000003 0 0
  endloop
endfacet
facet normal 0 0 -1
  outer loop
    vertex 2.511 -0.446 0
    vertex 3.978 -0.42 0
    vertex 3.882 -0.965 0
  endloop
endfacet
facet normal 0 0 1
  outer loop
    vertex 2.511 -0.446 16
    vertex 3.882 -0.965 16
    vertex 3.978 -0.42 16
  endloop
endfacet
facet normal 0 0 1
  outer loop
    vertex 2.511 -0.446 16
    vertex 3.978 -0.42 16
    vertex 2.5500000000000003 0 16
  endloop
endfacet
facet normal -0.9962913942811391 -0.08604334768791713 0
  outer loop
    vertex 2.512 0.44 0
    vertex 2.5500000000000003 0 0
    vertex 2.512 0.44 16
  endloop
endfacet
facet normal 0 0 -1
  outer loop
    vertex 2.512 0.44 0
    vertex 3.805 1.232 0
    vertex 3.939 0.6960000000000001 0
  endloop
endfacet
facet normal 0 0 -1
  outer loop
    vertex 2.512 0.44 0
    vertex 3.939 0.6960000000000001 0
    vertex 3.997 0.14300000000000002 0
  endloop
endfacet
facet normal 0 0 -1
  outer loop
    vertex 2.512 0.44 0
    vertex 3.997 0.14300000000000002 0
    vertex 2.5500000000000003 0 0
  endloop
endfacet
facet normal -0.9962913942811391 -0.08604334768791713 0
  outer loop
    vertex 2.512 0.44 16
    vertex 2.5500000000000003 0 0
    vertex 2.5500000000000003 0 16
  endloop
endfacet
facet normal 0 0 1
  outer loop
    vertex 2.512 0.44 16
    vertex 2.5500000000000003 0 16
    vertex 3.997 0.14300000000000002 16
  endloop
endfacet
facet normal 0 0 1
  outer loop
    vertex 2.512 0.44 16
    vertex 3.939 0.6960000000000001 16
    vertex 3.805 1.232 16
  endloop
endfacet
facet normal 0 0 1
  outer loop
    vertex 2.512 0.44 16
    vertex 3.997 0.14300000000000002 16
    vertex 3.939 0.6960000000000001 16
  endloop
endfacet
facet normal 0 0 -1
  outer loop
    vertex 2.5500000000000003 0 0
    vertex 3.997 0.14300000000000002 0
    vertex 3.978 -0.42 0
  endloop
endfacet
facet normal 0 0 1
  outer loop
    vertex 2.5500000000000003 0 16
    vertex 3.978 -0.42 16
    vertex 3.997 0.14300000000000002 16
  endloop
endfacet
facet normal 0.6944018607824854 0.7195874204999846 0
  outer loop
    vertex 2.569 3.0660000000000003 0
    vertex 2.569 3.0660000000000003 16
    vertex 2.969 2.68 16
  endloop
endfacet
facet normal 0.6944018607824854 0.7195874204999846 0
  outer loop
    vertex 2.569 3.0660000000000003 0
    vertex 2.969 2.68 16
    vertex 2.969 2.68 0
  endloop
endfacet
facet normal 0.743384515676579 -0.6688643075036206 0
  outer loop
    vertex 2.782 -2.874 0
    vertex 3.15 -2.465 0
    vertex 2.782 -2.874 16
  endloop
endfacet
facet normal 0.743384515676579 -0.6688643075036206 0
  outer loop
    vertex 2.782 -2.874 16
    vertex 3.15 -2.465 0
    vertex 3.15 -2.465 16
  endloop
endfacet
facet normal 0.7870559151513062 0.6168816632267001 0
  outer loop
    vertex 2.969 2.68 0
    vertex 2.969 2.68 16
    vertex 3.317 2.236 16
  endloop
endfacet
facet normal 0.7870559151513062 0.6168816632267001 0
  outer loop
    vertex 2.969 2.68 0
    vertex 3.317 2.236 16
    vertex 3.317 2.236 0
  endloop
endfacet
facet normal 0.828454342068305 -0.5600566070569758 0
  outer loop
    vertex 3.15 -2.465 0
    vertex 3.463 -2.0020000000000002 0
    vertex 3.15 -2.465 16
  endloop
endfacet
facet normal 0.828454342068305 -0.5600566070569758 0
  outer loop
    vertex 3.15 -2.465 16
    vertex 3.463 -2.0020000000000002 0
    vertex 3.463 -2.0020000000000002 16
  endloop
endfacet
facet normal 0.865916841100504 0.500187988958676 0
  outer loop
    vertex 3.317 2.236 0
    vertex 3.317 2.236 16
    vertex 3.596 1.7530000000000001 16
  endloop
endfacet
facet normal 0.865916841100504 0.500187988958676 0
  outer loop
    vertex 3.317 2.236 0
    vertex 3.596 1.7530000000000001 16
    vertex 3.596 1.7530000000000001 0
  endloop
endfacet
facet normal 0.8983217126230816 -0.439338253092004 0
  outer loop
    vertex 3.463 -2.0020000000000002 0
    vertex 3.709 -1.499 0
    vertex 3.463 -2.0020000000000002 16
  endloop
endfacet
facet normal 0.8983217126230816 -0.439338253092004 0
  outer loop
    vertex 3.463 -2.0020000000000002 16
    vertex 3.709 -1.499 0
    vertex 3.709 -1.499 16
  endloop
endfacet
facet normal 0.928107668854762 0.37231190554826354 0
  outer loop
    vertex 3.596 1.7530000000000001 0
    vertex 3.596 1.7530000000000001 16
    vertex 3.805 1.232 16
  endloop
endfacet
facet normal 0.928107668854762 0.37231190554826354 0
  outer loop
    vertex 3.596 1.7530000000000001 0
    vertex 3.805 1.232 16
    vertex 3.805 1.232 0
  endloop
endfacet
facet normal 0.9513216769411251 -0.30819971930864165 0
  outer loop
    vertex 3.709 -1.499 0
    vertex 3.882 -0.965 0
    vertex 3.709 -1.499 16
  endloop
endfacet
facet normal 0.9513216769411251 -0.30819971930864165 0
  outer loop
    vertex 3.709 -1.499 16
    vertex 3.882 -0.965 0
    vertex 3.882 -0.965 16
  endloop
endfacet
facet normal 0.970142500145332 0.24253562503633283 0
  outer loop
    vertex 3.805 1.232 0
    vertex 3.805 1.232 16
    vertex 3.939 0.6960000000000001 16
  endloop
endfacet
facet normal 0.970142500145332 0.24253562503633283 0
  outer loop
    vertex 3.805 1.232 0
    vertex 3.939 0.6960000000000001 16
    vertex 3.939 0.6960000000000001 0
  endloop
endfacet
facet normal 0.9848380853632774 -0.17347606641261418 0
  outer loop
    vertex 3.882 -0.965 0
    vertex 3.978 -0.42 0
    vertex 3.882 -0.965 16
  endloop
endfacet
facet normal 0.9848380853632774 -0.17347606641261418 0
  outer loop
    vertex 3.882 -0.965 16
    vertex 3.978 -0.42 0
    vertex 3.978 -0.42 16
  endloop
endfacet
facet normal 0.9945448005786952 0.10431030458149032 0
  outer loop
    vertex 3.939 0.6960000000000001 0
    vertex 3.939 0.6960000000000001 16
    vertex 3.997 0.14300000000000002 16
  endloop
endfacet
facet normal 0.9945448005786952 0.10431030458149032 0
  outer loop
    vertex 3.939 0.6960000000000001 0
    vertex 3.997 0.14300000000000002 16
    vertex 3.997 0.14300000000000002 0
  endloop
endfacet
facet normal 0.9994310296404774 -0.03372857826495339 0
  outer loop
    vertex 3.978 -0.42 0
    vertex 3.997 0.14300000000000002 0
    vertex 3.978 -0.42 16
  endloop
endfacet
facet normal 0.9994310296404774 -0.03372857826495339 0
  outer loop
    vertex 3.978 -0.42 16
    vertex 3.997 0.14300000000000002 0
    vertex 3.997 0.14300000000000002 16
  endloop
endfacet
endsolid JSxCAD
