solid JSxCAD
facet normal -1 0 0
  outer loop
    vertex -4 0 0
    vertex -4 0 0.8
    vertex -4 12.8 0.8
  endloop
endfacet
facet normal 0 0 -1
  outer loop
    vertex -4 0 0
    vertex -4 12.8 0
    vertex -3.2 5.6000000000000005 0
  endloop
endfacet
facet normal -1 0 0
  outer loop
    vertex -4 0 0
    vertex -4 12.8 0.8
    vertex -4 12.8 0
  endloop
endfacet
facet normal 0 0 -1
  outer loop
    vertex -4 0 0
    vertex -3.2 5.6000000000000005 0
    vertex -3.16 5.098 0
  endloop
endfacet
facet normal 0 0 -1
  outer loop
    vertex -4 0 0
    vertex -3.16 5.098 0
    vertex -3.044 4.614 0
  endloop
endfacet
facet normal 0 0 -1
  outer loop
    vertex -4 0 0
    vertex -3.044 4.614 0
    vertex -2.851 4.148 0
  endloop
endfacet
facet normal 0 0 -1
  outer loop
    vertex -4 0 0
    vertex -2.851 4.148 0
    vertex -2.591 3.722 0
  endloop
endfacet
facet normal 0 0 -1
  outer loop
    vertex -4 0 0
    vertex -2.591 3.722 0
    vertex -2.2640000000000002 3.339 0
  endloop
endfacet
facet normal 0 0 -1
  outer loop
    vertex -4 0 0
    vertex -2.2640000000000002 3.339 0
    vertex -1.8780000000000001 3.009 0
  endloop
endfacet
facet normal 0 0 -1
  outer loop
    vertex -4 0 0
    vertex -1.8780000000000001 3.009 0
    vertex -1.452 2.749 0
  endloop
endfacet
facet normal 0 0 -1
  outer loop
    vertex -4 0 0
    vertex -1.452 2.749 0
    vertex -0.986 2.556 0
  endloop
endfacet
facet normal 0 0 -1
  outer loop
    vertex -4 0 0
    vertex -0.986 2.556 0
    vertex -0.502 2.44 0
  endloop
endfacet
facet normal 0 0 -1
  outer loop
    vertex -4 0 0
    vertex -0.502 2.44 0
    vertex 0 2.4 0
  endloop
endfacet
facet normal 0 0 -1
  outer loop
    vertex -4 0 0
    vertex 0 2.4 0
    vertex 4 0 0
  endloop
endfacet
facet normal 0 -1 0
  outer loop
    vertex -4 0 0
    vertex 4 0 0
    vertex -4 0 0.8
  endloop
endfacet
facet normal -1 0 0
  outer loop
    vertex -4 0 0.8
    vertex -4 0 7.2
    vertex -4 12.8 7.2
  endloop
endfacet
facet normal 0 0 -1
  outer loop
    vertex -4 0 0.8
    vertex -4 12.8 0.8
    vertex -2.5 5.6000000000000005 0.8
  endloop
endfacet
facet normal -1 0 0
  outer loop
    vertex -4 0 0.8
    vertex -4 12.8 7.2
    vertex -4 12.8 0.8
  endloop
endfacet
facet normal 0 0 1
  outer loop
    vertex -4 0 0.8
    vertex -3.2 5.6000000000000005 0.8
    vertex -4 12.8 0.8
  endloop
endfacet
facet normal 0 0 1
  outer loop
    vertex -4 0 0.8
    vertex -3.16 5.098 0.8
    vertex -3.2 5.6000000000000005 0.8
  endloop
endfacet
facet normal 0 0 1
  outer loop
    vertex -4 0 0.8
    vertex -3.044 4.614 0.8
    vertex -3.16 5.098 0.8
  endloop
endfacet
facet normal 0 0 1
  outer loop
    vertex -4 0 0.8
    vertex -2.851 4.148 0.8
    vertex -3.044 4.614 0.8
  endloop
endfacet
facet normal 0 0 1
  outer loop
    vertex -4 0 0.8
    vertex -2.591 3.722 0.8
    vertex -2.851 4.148 0.8
  endloop
endfacet
facet normal 0 0 -1
  outer loop
    vertex -4 0 0.8
    vertex -2.5 5.6000000000000005 0.8
    vertex -2.462 5.165 0.8
  endloop
endfacet
facet normal 0 0 -1
  outer loop
    vertex -4 0 0.8
    vertex -2.462 5.165 0.8
    vertex -2.349 4.744 0.8
  endloop
endfacet
facet normal 0 0 -1
  outer loop
    vertex -4 0 0.8
    vertex -2.349 4.744 0.8
    vertex -2.164 4.349 0.8
  endloop
endfacet
facet normal 0 0 1
  outer loop
    vertex -4 0 0.8
    vertex -2.2640000000000002 3.339 0.8
    vertex -2.591 3.722 0.8
  endloop
endfacet
facet normal 0 0 -1
  outer loop
    vertex -4 0 0.8
    vertex -2.164 4.349 0.8
    vertex -1.9160000000000001 3.994 0.8
  endloop
endfacet
facet normal 0 0 -1
  outer loop
    vertex -4 0 0.8
    vertex -1.9160000000000001 3.994 0.8
    vertex -1.606 3.684 0.8
  endloop
endfacet
facet normal 0 0 1
  outer loop
    vertex -4 0 0.8
    vertex -1.8780000000000001 3.009 0.8
    vertex -2.2640000000000002 3.339 0.8
  endloop
endfacet
facet normal 0 0 -1
  outer loop
    vertex -4 0 0.8
    vertex -1.606 3.684 0.8
    vertex -1.2510000000000001 3.436 0.8
  endloop
endfacet
facet normal 0 0 1
  outer loop
    vertex -4 0 0.8
    vertex -1.452 2.749 0.8
    vertex -1.8780000000000001 3.009 0.8
  endloop
endfacet
facet normal 0 0 -1
  outer loop
    vertex -4 0 0.8
    vertex -1.2510000000000001 3.436 0.8
    vertex -0.856 3.251 0.8
  endloop
endfacet
facet normal 0 0 1
  outer loop
    vertex -4 0 0.8
    vertex -0.986 2.556 0.8
    vertex -1.452 2.749 0.8
  endloop
endfacet
facet normal 0 0 -1
  outer loop
    vertex -4 0 0.8
    vertex -0.856 3.251 0.8
    vertex -0.435 3.138 0.8
  endloop
endfacet
facet normal 0 0 1
  outer loop
    vertex -4 0 0.8
    vertex -0.502 2.44 0.8
    vertex -0.986 2.556 0.8
  endloop
endfacet
facet normal 0 0 -1
  outer loop
    vertex -4 0 0.8
    vertex -0.435 3.138 0.8
    vertex 0 3.1 0.8
  endloop
endfacet
facet normal 0 0 1
  outer loop
    vertex -4 0 0.8
    vertex 0 2.4 0.8
    vertex -0.502 2.44 0.8
  endloop
endfacet
facet normal 0 0 -1
  outer loop
    vertex -4 0 0.8
    vertex 0 3.1 0.8
    vertex 4 0 0.8
  endloop
endfacet
facet normal 0 -1 0
  outer loop
    vertex -4 0 0.8
    vertex 4 0 0
    vertex 4 0 0.8
  endloop
endfacet
facet normal 0 -1 0
  outer loop
    vertex -4 0 0.8
    vertex 4 0 0.8
    vertex -4 0 7.2
  endloop
endfacet
facet normal 0 0 1
  outer loop
    vertex -4 0 0.8
    vertex 4 0 0.8
    vertex 0 2.4 0.8
  endloop
endfacet
facet normal -1 0 0
  outer loop
    vertex -4 0 7.2
    vertex -4 0 8
    vertex -4 12.8 8
  endloop
endfacet
facet normal 0 0 -1
  outer loop
    vertex -4 0 7.2
    vertex -4 12.8 7.2
    vertex -3.2 5.6000000000000005 7.2
  endloop
endfacet
facet normal -1 0 0
  outer loop
    vertex -4 0 7.2
    vertex -4 12.8 8
    vertex -4 12.8 7.2
  endloop
endfacet
facet normal 0 0 -1
  outer loop
    vertex -4 0 7.2
    vertex -3.2 5.6000000000000005 7.2
    vertex -3.16 5.098 7.2
  endloop
endfacet
facet normal 0 0 -1
  outer loop
    vertex -4 0 7.2
    vertex -3.16 5.098 7.2
    vertex -3.044 4.614 7.2
  endloop
endfacet
facet normal 0 0 -1
  outer loop
    vertex -4 0 7.2
    vertex -3.044 4.614 7.2
    vertex -2.851 4.148 7.2
  endloop
endfacet
facet normal 0 0 -1
  outer loop
    vertex -4 0 7.2
    vertex -2.851 4.148 7.2
    vertex -2.591 3.722 7.2
  endloop
endfacet
facet normal 0 0 -1
  outer loop
    vertex -4 0 7.2
    vertex -2.591 3.722 7.2
    vertex -2.2640000000000002 3.339 7.2
  endloop
endfacet
facet normal 0 0 1
  outer loop
    vertex -4 0 7.2
    vertex -2.5 5.6000000000000005 7.2
    vertex -4 12.8 7.2
  endloop
endfacet
facet normal 0 0 1
  outer loop
    vertex -4 0 7.2
    vertex -2.462 5.165 7.2
    vertex -2.5 5.6000000000000005 7.2
  endloop
endfacet
facet normal 0 0 1
  outer loop
    vertex -4 0 7.2
    vertex -2.349 4.744 7.2
    vertex -2.462 5.165 7.2
  endloop
endfacet
facet normal 0 0 -1
  outer loop
    vertex -4 0 7.2
    vertex -2.2640000000000002 3.339 7.2
    vertex -1.8780000000000001 3.009 7.2
  endloop
endfacet
facet normal 0 0 1
  outer loop
    vertex -4 0 7.2
    vertex -2.164 4.349 7.2
    vertex -2.349 4.744 7.2
  endloop
endfacet
facet normal 0 0 1
  outer loop
    vertex -4 0 7.2
    vertex -1.9160000000000001 3.994 7.2
    vertex -2.164 4.349 7.2
  endloop
endfacet
facet normal 0 0 -1
  outer loop
    vertex -4 0 7.2
    vertex -1.8780000000000001 3.009 7.2
    vertex -1.452 2.749 7.2
  endloop
endfacet
facet normal 0 0 1
  outer loop
    vertex -4 0 7.2
    vertex -1.606 3.684 7.2
    vertex -1.9160000000000001 3.994 7.2
  endloop
endfacet
facet normal 0 0 -1
  outer loop
    vertex -4 0 7.2
    vertex -1.452 2.749 7.2
    vertex -0.986 2.556 7.2
  endloop
endfacet
facet normal 0 0 1
  outer loop
    vertex -4 0 7.2
    vertex -1.2510000000000001 3.436 7.2
    vertex -1.606 3.684 7.2
  endloop
endfacet
facet normal 0 0 -1
  outer loop
    vertex -4 0 7.2
    vertex -0.986 2.556 7.2
    vertex -0.502 2.44 7.2
  endloop
endfacet
facet normal 0 0 1
  outer loop
    vertex -4 0 7.2
    vertex -0.856 3.251 7.2
    vertex -1.2510000000000001 3.436 7.2
  endloop
endfacet
facet normal 0 0 -1
  outer loop
    vertex -4 0 7.2
    vertex -0.502 2.44 7.2
    vertex 0 2.4 7.2
  endloop
endfacet
facet normal 0 0 1
  outer loop
    vertex -4 0 7.2
    vertex -0.435 3.138 7.2
    vertex -0.856 3.251 7.2
  endloop
endfacet
facet normal 0 0 -1
  outer loop
    vertex -4 0 7.2
    vertex 0 2.4 7.2
    vertex 4 0 7.2
  endloop
endfacet
facet normal 0 0 1
  outer loop
    vertex -4 0 7.2
    vertex 0 3.1 7.2
    vertex -0.435 3.138 7.2
  endloop
endfacet
facet normal 0 -1 0
  outer loop
    vertex -4 0 7.2
    vertex 4 0 0.8
    vertex 4 0 7.2
  endloop
endfacet
facet normal 0 -1 0
  outer loop
    vertex -4 0 7.2
    vertex 4 0 7.2
    vertex -4 0 8
  endloop
endfacet
facet normal 0 0 1
  outer loop
    vertex -4 0 7.2
    vertex 4 0 7.2
    vertex 0 3.1 7.2
  endloop
endfacet
facet normal 0 0 1
  outer loop
    vertex -4 0 8
    vertex -3.2 5.6000000000000005 8
    vertex -4 12.8 8
  endloop
endfacet
facet normal 0 0 1
  outer loop
    vertex -4 0 8
    vertex -3.16 5.098 8
    vertex -3.2 5.6000000000000005 8
  endloop
endfacet
facet normal 0 0 1
  outer loop
    vertex -4 0 8
    vertex -3.044 4.614 8
    vertex -3.16 5.098 8
  endloop
endfacet
facet normal 0 0 1
  outer loop
    vertex -4 0 8
    vertex -2.851 4.148 8
    vertex -3.044 4.614 8
  endloop
endfacet
facet normal 0 0 1
  outer loop
    vertex -4 0 8
    vertex -2.591 3.722 8
    vertex -2.851 4.148 8
  endloop
endfacet
facet normal 0 0 1
  outer loop
    vertex -4 0 8
    vertex -2.2640000000000002 3.339 8
    vertex -2.591 3.722 8
  endloop
endfacet
facet normal 0 0 1
  outer loop
    vertex -4 0 8
    vertex -1.8780000000000001 3.009 8
    vertex -2.2640000000000002 3.339 8
  endloop
endfacet
facet normal 0 0 1
  outer loop
    vertex -4 0 8
    vertex -1.452 2.749 8
    vertex -1.8780000000000001 3.009 8
  endloop
endfacet
facet normal 0 0 1
  outer loop
    vertex -4 0 8
    vertex -0.986 2.556 8
    vertex -1.452 2.749 8
  endloop
endfacet
facet normal 0 0 1
  outer loop
    vertex -4 0 8
    vertex -0.502 2.44 8
    vertex -0.986 2.556 8
  endloop
endfacet
facet normal 0 0 1
  outer loop
    vertex -4 0 8
    vertex 0 2.4 8
    vertex -0.502 2.44 8
  endloop
endfacet
facet normal 0 -1 0
  outer loop
    vertex -4 0 8
    vertex 4 0 7.2
    vertex 4 0 8
  endloop
endfacet
facet normal 0 0 1
  outer loop
    vertex -4 0 8
    vertex 4 0 8
    vertex 0 2.4 8
  endloop
endfacet
facet normal 0 1 0
  outer loop
    vertex -4 12.8 0
    vertex -4 12.8 0.8
    vertex 4 12.8 0.8
  endloop
endfacet
facet normal 0 0 -1
  outer loop
    vertex -4 12.8 0
    vertex -3.16 6.102 0
    vertex -3.2 5.6000000000000005 0
  endloop
endfacet
facet normal 0 0 -1
  outer loop
    vertex -4 12.8 0
    vertex -3.044 6.586 0
    vertex -3.16 6.102 0
  endloop
endfacet
facet normal 0 0 -1
  outer loop
    vertex -4 12.8 0
    vertex -2.851 7.0520000000000005 0
    vertex -3.044 6.586 0
  endloop
endfacet
facet normal 0 0 -1
  outer loop
    vertex -4 12.8 0
    vertex -2.591 7.478 0
    vertex -2.851 7.0520000000000005 0
  endloop
endfacet
facet normal 0 0 -1
  outer loop
    vertex -4 12.8 0
    vertex -2.261 7.864 0
    vertex -2.591 7.478 0
  endloop
endfacet
facet normal 0 0 -1
  outer loop
    vertex -4 12.8 0
    vertex -1.8780000000000001 8.191 0
    vertex -2.261 7.864 0
  endloop
endfacet
facet normal 0 0 -1
  outer loop
    vertex -4 12.8 0
    vertex -1.452 8.451 0
    vertex -1.8780000000000001 8.191 0
  endloop
endfacet
facet normal 0 0 -1
  outer loop
    vertex -4 12.8 0
    vertex -0.986 8.644 0
    vertex -1.452 8.451 0
  endloop
endfacet
facet normal 0 0 -1
  outer loop
    vertex -4 12.8 0
    vertex -0.502 8.76 0
    vertex -0.986 8.644 0
  endloop
endfacet
facet normal 0 0 -1
  outer loop
    vertex -4 12.8 0
    vertex 0 8.8 0
    vertex -0.502 8.76 0
  endloop
endfacet
facet normal 0 0 -1
  outer loop
    vertex -4 12.8 0
    vertex 4 12.8 0
    vertex 0 8.8 0
  endloop
endfacet
facet normal 0 1 0
  outer loop
    vertex -4 12.8 0
    vertex 4 12.8 0.8
    vertex 4 12.8 0
  endloop
endfacet
facet normal 0 1 0
  outer loop
    vertex -4 12.8 0.8
    vertex -4 12.8 7.2
    vertex 4 12.8 7.2
  endloop
endfacet
facet normal 0 0 1
  outer loop
    vertex -4 12.8 0.8
    vertex -3.2 5.6000000000000005 0.8
    vertex -3.16 6.102 0.8
  endloop
endfacet
facet normal 0 0 1
  outer loop
    vertex -4 12.8 0.8
    vertex -3.16 6.102 0.8
    vertex -3.044 6.586 0.8
  endloop
endfacet
facet normal 0 0 1
  outer loop
    vertex -4 12.8 0.8
    vertex -3.044 6.586 0.8
    vertex -2.851 7.0520000000000005 0.8
  endloop
endfacet
facet normal 0 0 1
  outer loop
    vertex -4 12.8 0.8
    vertex -2.851 7.0520000000000005 0.8
    vertex -2.591 7.478 0.8
  endloop
endfacet
facet normal 0 0 1
  outer loop
    vertex -4 12.8 0.8
    vertex -2.591 7.478 0.8
    vertex -2.261 7.864 0.8
  endloop
endfacet
facet normal 0 0 -1
  outer loop
    vertex -4 12.8 0.8
    vertex -2.462 6.035 0.8
    vertex -2.5 5.6000000000000005 0.8
  endloop
endfacet
facet normal 0 0 -1
  outer loop
    vertex -4 12.8 0.8
    vertex -2.349 6.456 0.8
    vertex -2.462 6.035 0.8
  endloop
endfacet
facet normal 0 0 1
  outer loop
    vertex -4 12.8 0.8
    vertex -2.261 7.864 0.8
    vertex -1.8780000000000001 8.191 0.8
  endloop
endfacet
facet normal 0 0 -1
  outer loop
    vertex -4 12.8 0.8
    vertex -2.164 6.851 0.8
    vertex -2.349 6.456 0.8
  endloop
endfacet
facet normal 0 0 -1
  outer loop
    vertex -4 12.8 0.8
    vertex -1.9160000000000001 7.206 0.8
    vertex -2.164 6.851 0.8
  endloop
endfacet
facet normal 0 0 1
  outer loop
    vertex -4 12.8 0.8
    vertex -1.8780000000000001 8.191 0.8
    vertex -1.452 8.451 0.8
  endloop
endfacet
facet normal 0 0 -1
  outer loop
    vertex -4 12.8 0.8
    vertex -1.606 7.516 0.8
    vertex -1.9160000000000001 7.206 0.8
  endloop
endfacet
facet normal 0 0 1
  outer loop
    vertex -4 12.8 0.8
    vertex -1.452 8.451 0.8
    vertex -0.986 8.644 0.8
  endloop
endfacet
facet normal 0 0 -1
  outer loop
    vertex -4 12.8 0.8
    vertex -1.2510000000000001 7.764 0.8
    vertex -1.606 7.516 0.8
  endloop
endfacet
facet normal 0 0 1
  outer loop
    vertex -4 12.8 0.8
    vertex -0.986 8.644 0.8
    vertex -0.502 8.76 0.8
  endloop
endfacet
facet normal 0 0 -1
  outer loop
    vertex -4 12.8 0.8
    vertex -0.856 7.949 0.8
    vertex -1.2510000000000001 7.764 0.8
  endloop
endfacet
facet normal 0 0 1
  outer loop
    vertex -4 12.8 0.8
    vertex -0.502 8.76 0.8
    vertex 0 8.8 0.8
  endloop
endfacet
facet normal 0 0 -1
  outer loop
    vertex -4 12.8 0.8
    vertex -0.435 8.062 0.8
    vertex -0.856 7.949 0.8
  endloop
endfacet
facet normal 0 0 -1
  outer loop
    vertex -4 12.8 0.8
    vertex 0 8.1 0.8
    vertex -0.435 8.062 0.8
  endloop
endfacet
facet normal 0 0 1
  outer loop
    vertex -4 12.8 0.8
    vertex 0 8.8 0.8
    vertex 4 12.8 0.8
  endloop
endfacet
facet normal 0 0 -1
  outer loop
    vertex -4 12.8 0.8
    vertex 4 12.8 0.8
    vertex 0 8.1 0.8
  endloop
endfacet
facet normal 0 1 0
  outer loop
    vertex -4 12.8 0.8
    vertex 4 12.8 7.2
    vertex 4 12.8 0.8
  endloop
endfacet
facet normal 0 1 0
  outer loop
    vertex -4 12.8 7.2
    vertex -4 12.8 8
    vertex 4 12.8 8
  endloop
endfacet
facet normal 0 0 -1
  outer loop
    vertex -4 12.8 7.2
    vertex -3.16 6.102 7.2
    vertex -3.2 5.6000000000000005 7.2
  endloop
endfacet
facet normal 0 0 -1
  outer loop
    vertex -4 12.8 7.2
    vertex -3.044 6.586 7.2
    vertex -3.16 6.102 7.2
  endloop
endfacet
facet normal 0 0 -1
  outer loop
    vertex -4 12.8 7.2
    vertex -2.851 7.0520000000000005 7.2
    vertex -3.044 6.586 7.2
  endloop
endfacet
facet normal 0 0 -1
  outer loop
    vertex -4 12.8 7.2
    vertex -2.591 7.478 7.2
    vertex -2.851 7.0520000000000005 7.2
  endloop
endfacet
facet normal 0 0 1
  outer loop
    vertex -4 12.8 7.2
    vertex -2.5 5.6000000000000005 7.2
    vertex -2.462 6.035 7.2
  endloop
endfacet
facet normal 0 0 1
  outer loop
    vertex -4 12.8 7.2
    vertex -2.462 6.035 7.2
    vertex -2.349 6.456 7.2
  endloop
endfacet
facet normal 0 0 1
  outer loop
    vertex -4 12.8 7.2
    vertex -2.349 6.456 7.2
    vertex -2.164 6.851 7.2
  endloop
endfacet
facet normal 0 0 -1
  outer loop
    vertex -4 12.8 7.2
    vertex -2.261 7.864 7.2
    vertex -2.591 7.478 7.2
  endloop
endfacet
facet normal 0 0 1
  outer loop
    vertex -4 12.8 7.2
    vertex -2.164 6.851 7.2
    vertex -1.9160000000000001 7.206 7.2
  endloop
endfacet
facet normal 0 0 1
  outer loop
    vertex -4 12.8 7.2
    vertex -1.9160000000000001 7.206 7.2
    vertex -1.606 7.516 7.2
  endloop
endfacet
facet normal 0 0 -1
  outer loop
    vertex -4 12.8 7.2
    vertex -1.8780000000000001 8.191 7.2
    vertex -2.261 7.864 7.2
  endloop
endfacet
facet normal 0 0 1
  outer loop
    vertex -4 12.8 7.2
    vertex -1.606 7.516 7.2
    vertex -1.2510000000000001 7.764 7.2
  endloop
endfacet
facet normal 0 0 -1
  outer loop
    vertex -4 12.8 7.2
    vertex -1.452 8.451 7.2
    vertex -1.8780000000000001 8.191 7.2
  endloop
endfacet
facet normal 0 0 1
  outer loop
    vertex -4 12.8 7.2
    vertex -1.2510000000000001 7.764 7.2
    vertex -0.856 7.949 7.2
  endloop
endfacet
facet normal 0 0 -1
  outer loop
    vertex -4 12.8 7.2
    vertex -0.986 8.644 7.2
    vertex -1.452 8.451 7.2
  endloop
endfacet
facet normal 0 0 1
  outer loop
    vertex -4 12.8 7.2
    vertex -0.856 7.949 7.2
    vertex -0.435 8.062 7.2
  endloop
endfacet
facet normal 0 0 -1
  outer loop
    vertex -4 12.8 7.2
    vertex -0.502 8.76 7.2
    vertex -0.986 8.644 7.2
  endloop
endfacet
facet normal 0 0 1
  outer loop
    vertex -4 12.8 7.2
    vertex -0.435 8.062 7.2
    vertex 0 8.1 7.2
  endloop
endfacet
facet normal 0 0 1
  outer loop
    vertex -4 12.8 7.2
    vertex 0 8.1 7.2
    vertex 4 12.8 7.2
  endloop
endfacet
facet normal 0 0 -1
  outer loop
    vertex -4 12.8 7.2
    vertex 0 8.8 7.2
    vertex -0.502 8.76 7.2
  endloop
endfacet
facet normal 0 0 -1
  outer loop
    vertex -4 12.8 7.2
    vertex 4 12.8 7.2
    vertex 0 8.8 7.2
  endloop
endfacet
facet normal 0 1 0
  outer loop
    vertex -4 12.8 7.2
    vertex 4 12.8 8
    vertex 4 12.8 7.2
  endloop
endfacet
facet normal 0 0 1
  outer loop
    vertex -4 12.8 8
    vertex -3.2 5.6000000000000005 8
    vertex -3.16 6.102 8
  endloop
endfacet
facet normal 0 0 1
  outer loop
    vertex -4 12.8 8
    vertex -3.16 6.102 8
    vertex -3.044 6.586 8
  endloop
endfacet
facet normal 0 0 1
  outer loop
    vertex -4 12.8 8
    vertex -3.044 6.586 8
    vertex -2.851 7.0520000000000005 8
  endloop
endfacet
facet normal 0 0 1
  outer loop
    vertex -4 12.8 8
    vertex -2.851 7.0520000000000005 8
    vertex -2.591 7.478 8
  endloop
endfacet
facet normal 0 0 1
  outer loop
    vertex -4 12.8 8
    vertex -2.591 7.478 8
    vertex -2.261 7.864 8
  endloop
endfacet
facet normal 0 0 1
  outer loop
    vertex -4 12.8 8
    vertex -2.261 7.864 8
    vertex -1.8780000000000001 8.191 8
  endloop
endfacet
facet normal 0 0 1
  outer loop
    vertex -4 12.8 8
    vertex -1.8780000000000001 8.191 8
    vertex -1.452 8.451 8
  endloop
endfacet
facet normal 0 0 1
  outer loop
    vertex -4 12.8 8
    vertex -1.452 8.451 8
    vertex -0.986 8.644 8
  endloop
endfacet
facet normal 0 0 1
  outer loop
    vertex -4 12.8 8
    vertex -0.986 8.644 8
    vertex -0.502 8.76 8
  endloop
endfacet
facet normal 0 0 1
  outer loop
    vertex -4 12.8 8
    vertex -0.502 8.76 8
    vertex 0 8.8 8
  endloop
endfacet
facet normal 0 0 1
  outer loop
    vertex -4 12.8 8
    vertex 0 8.8 8
    vertex 4 12.8 8
  endloop
endfacet
facet normal 0.9968404843538538 0.07942952066564568 0
  outer loop
    vertex -3.2 5.6000000000000005 0
    vertex -3.2 5.6000000000000005 0.8
    vertex -3.16 5.098 0.8
  endloop
endfacet
facet normal 0.9968404843538538 0.07942952066564568 0
  outer loop
    vertex -3.2 5.6000000000000005 0
    vertex -3.16 5.098 0.8
    vertex -3.16 5.098 0
  endloop
endfacet
facet normal 0.9968404843538538 -0.07942952066564582 0
  outer loop
    vertex -3.2 5.6000000000000005 0
    vertex -3.16 6.102 0
    vertex -3.2 5.6000000000000005 0.8
  endloop
endfacet
facet normal 0.9968404843538538 -0.07942952066564582 0
  outer loop
    vertex -3.2 5.6000000000000005 0.8
    vertex -3.16 6.102 0
    vertex -3.16 6.102 0.8
  endloop
endfacet
facet normal 0.9968404843538538 0.07942952066564568 0
  outer loop
    vertex -3.2 5.6000000000000005 7.2
    vertex -3.2 5.6000000000000005 8
    vertex -3.16 5.098 8
  endloop
endfacet
facet normal 0.9968404843538538 0.07942952066564568 0
  outer loop
    vertex -3.2 5.6000000000000005 7.2
    vertex -3.16 5.098 8
    vertex -3.16 5.098 7.2
  endloop
endfacet
facet normal 0.9968404843538538 -0.07942952066564582 0
  outer loop
    vertex -3.2 5.6000000000000005 7.2
    vertex -3.16 6.102 7.2
    vertex -3.2 5.6000000000000005 8
  endloop
endfacet
facet normal 0.9968404843538538 -0.07942952066564582 0
  outer loop
    vertex -3.2 5.6000000000000005 8
    vertex -3.16 6.102 7.2
    vertex -3.16 6.102 8
  endloop
endfacet
facet normal 0.9724602063125191 0.23306897506663704 0
  outer loop
    vertex -3.16 5.098 0
    vertex -3.16 5.098 0.8
    vertex -3.044 4.614 0.8
  endloop
endfacet
facet normal 0.9724602063125191 0.23306897506663704 0
  outer loop
    vertex -3.16 5.098 0
    vertex -3.044 4.614 0.8
    vertex -3.044 4.614 0
  endloop
endfacet
facet normal 0.9724602063125192 0.23306897506663707 0
  outer loop
    vertex -3.16 5.098 7.2
    vertex -3.16 5.098 8
    vertex -3.044 4.614 8
  endloop
endfacet
facet normal 0.9724602063125192 0.23306897506663707 0
  outer loop
    vertex -3.16 5.098 7.2
    vertex -3.044 4.614 8
    vertex -3.044 4.614 7.2
  endloop
endfacet
facet normal 0.9724602063125191 -0.23306897506663704 0
  outer loop
    vertex -3.16 6.102 0
    vertex -3.044 6.586 0
    vertex -3.16 6.102 0.8
  endloop
endfacet
facet normal 0.9724602063125191 -0.23306897506663704 0
  outer loop
    vertex -3.16 6.102 0.8
    vertex -3.044 6.586 0
    vertex -3.044 6.586 0.8
  endloop
endfacet
facet normal 0.9724602063125192 -0.23306897506663707 0
  outer loop
    vertex -3.16 6.102 7.2
    vertex -3.044 6.586 7.2
    vertex -3.16 6.102 8
  endloop
endfacet
facet normal 0.9724602063125192 -0.23306897506663707 0
  outer loop
    vertex -3.16 6.102 8
    vertex -3.044 6.586 7.2
    vertex -3.044 6.586 8
  endloop
endfacet
facet normal 0.9238960182394022 0.3826436298716837 0
  outer loop
    vertex -3.044 4.614 0
    vertex -3.044 4.614 0.8
    vertex -2.851 4.148 0.8
  endloop
endfacet
facet normal 0.9238960182394022 0.3826436298716837 0
  outer loop
    vertex -3.044 4.614 0
    vertex -2.851 4.148 0.8
    vertex -2.851 4.148 0
  endloop
endfacet
facet normal 0.9238960182394023 0.3826436298716837 0
  outer loop
    vertex -3.044 4.614 7.2
    vertex -3.044 4.614 8
    vertex -2.851 4.148 8
  endloop
endfacet
facet normal 0.9238960182394023 0.3826436298716837 0
  outer loop
    vertex -3.044 4.614 7.2
    vertex -2.851 4.148 8
    vertex -2.851 4.148 7.2
  endloop
endfacet
facet normal 0.9238960182394022 -0.3826436298716837 0
  outer loop
    vertex -3.044 6.586 0
    vertex -2.851 7.0520000000000005 0
    vertex -3.044 6.586 0.8
  endloop
endfacet
facet normal 0.9238960182394022 -0.3826436298716837 0
  outer loop
    vertex -3.044 6.586 0.8
    vertex -2.851 7.0520000000000005 0
    vertex -2.851 7.0520000000000005 0.8
  endloop
endfacet
facet normal 0.9238960182394023 -0.3826436298716837 0
  outer loop
    vertex -3.044 6.586 7.2
    vertex -2.851 7.0520000000000005 7.2
    vertex -3.044 6.586 8
  endloop
endfacet
facet normal 0.9238960182394023 -0.3826436298716837 0
  outer loop
    vertex -3.044 6.586 8
    vertex -2.851 7.0520000000000005 7.2
    vertex -2.851 7.0520000000000005 8
  endloop
endfacet
facet normal 0.8535788739891997 0.5209636320121876 0
  outer loop
    vertex -2.851 4.148 0
    vertex -2.851 4.148 0.8
    vertex -2.591 3.722 0.8
  endloop
endfacet
facet normal 0.8535788739891997 0.5209636320121876 0
  outer loop
    vertex -2.851 4.148 0
    vertex -2.591 3.722 0.8
    vertex -2.591 3.722 0
  endloop
endfacet
facet normal 0.8535788739891997 0.5209636320121875 0
  outer loop
    vertex -2.851 4.148 7.2
    vertex -2.851 4.148 8
    vertex -2.591 3.722 8
  endloop
endfacet
facet normal 0.8535788739891997 0.5209636320121875 0
  outer loop
    vertex -2.851 4.148 7.2
    vertex -2.591 3.722 8
    vertex -2.591 3.722 7.2
  endloop
endfacet
facet normal 0.8535788739891995 -0.520963632012188 0
  outer loop
    vertex -2.851 7.0520000000000005 0
    vertex -2.591 7.478 0
    vertex -2.851 7.0520000000000005 0.8
  endloop
endfacet
facet normal 0.8535788739891995 -0.520963632012188 0
  outer loop
    vertex -2.851 7.0520000000000005 0.8
    vertex -2.591 7.478 0
    vertex -2.591 7.478 0.8
  endloop
endfacet
facet normal 0.8535788739891995 -0.520963632012188 0
  outer loop
    vertex -2.851 7.0520000000000005 7.2
    vertex -2.591 7.478 7.2
    vertex -2.851 7.0520000000000005 8
  endloop
endfacet
facet normal 0.8535788739891995 -0.520963632012188 0
  outer loop
    vertex -2.851 7.0520000000000005 8
    vertex -2.591 7.478 7.2
    vertex -2.591 7.478 8
  endloop
endfacet
facet normal 0.7605166688150166 0.6493184091449359 0
  outer loop
    vertex -2.591 3.722 0
    vertex -2.591 3.722 0.8
    vertex -2.2640000000000002 3.339 0.8
  endloop
endfacet
facet normal 0.7605166688150166 0.6493184091449359 0
  outer loop
    vertex -2.591 3.722 0
    vertex -2.2640000000000002 3.339 0.8
    vertex -2.2640000000000002 3.339 0
  endloop
endfacet
facet normal 0.7605166688150167 0.6493184091449358 0
  outer loop
    vertex -2.591 3.722 7.2
    vertex -2.591 3.722 8
    vertex -2.2640000000000002 3.339 8
  endloop
endfacet
facet normal 0.7605166688150167 0.6493184091449358 0
  outer loop
    vertex -2.591 3.722 7.2
    vertex -2.2640000000000002 3.339 8
    vertex -2.2640000000000002 3.339 7.2
  endloop
endfacet
facet normal 0.7600899697441449 -0.6498178497812637 0
  outer loop
    vertex -2.591 7.478 0
    vertex -2.261 7.864 0
    vertex -2.591 7.478 0.8
  endloop
endfacet
facet normal 0.7600899697441449 -0.6498178497812637 0
  outer loop
    vertex -2.591 7.478 0.8
    vertex -2.261 7.864 0
    vertex -2.261 7.864 0.8
  endloop
endfacet
facet normal 0.7600899697441448 -0.6498178497812637 0
  outer loop
    vertex -2.591 7.478 7.2
    vertex -2.261 7.864 7.2
    vertex -2.591 7.478 8
  endloop
endfacet
facet normal 0.7600899697441448 -0.6498178497812637 0
  outer loop
    vertex -2.591 7.478 8
    vertex -2.261 7.864 7.2
    vertex -2.261 7.864 8
  endloop
endfacet
facet normal 0.9962061363529302 0.0870249038653129 0
  outer loop
    vertex -2.5 5.6000000000000005 0.8
    vertex -2.5 5.6000000000000005 7.2
    vertex -2.462 5.165 7.2
  endloop
endfacet
facet normal 0.9962061363529302 0.0870249038653129 0
  outer loop
    vertex -2.5 5.6000000000000005 0.8
    vertex -2.462 5.165 7.2
    vertex -2.462 5.165 0.8
  endloop
endfacet
facet normal 0.9962061363529302 -0.08702490386531309 0
  outer loop
    vertex -2.5 5.6000000000000005 0.8
    vertex -2.462 6.035 0.8
    vertex -2.5 5.6000000000000005 7.2
  endloop
endfacet
facet normal 0.9962061363529302 -0.08702490386531309 0
  outer loop
    vertex -2.5 5.6000000000000005 7.2
    vertex -2.462 6.035 0.8
    vertex -2.462 6.035 7.2
  endloop
endfacet
facet normal 0.9658148237499073 0.2592329574435617 0
  outer loop
    vertex -2.462 5.165 0.8
    vertex -2.462 5.165 7.2
    vertex -2.349 4.744 7.2
  endloop
endfacet
facet normal 0.9658148237499073 0.2592329574435617 0
  outer loop
    vertex -2.462 5.165 0.8
    vertex -2.349 4.744 7.2
    vertex -2.349 4.744 0.8
  endloop
endfacet
facet normal 0.9658148237499073 -0.2592329574435617 0
  outer loop
    vertex -2.462 6.035 0.8
    vertex -2.349 6.456 0.8
    vertex -2.462 6.035 7.2
  endloop
endfacet
facet normal 0.9658148237499073 -0.2592329574435617 0
  outer loop
    vertex -2.462 6.035 7.2
    vertex -2.349 6.456 0.8
    vertex -2.349 6.456 7.2
  endloop
endfacet
facet normal 0.9055965574336852 0.4241401598107139 0
  outer loop
    vertex -2.349 4.744 0.8
    vertex -2.349 4.744 7.2
    vertex -2.164 4.349 7.2
  endloop
endfacet
facet normal 0.9055965574336852 0.4241401598107139 0
  outer loop
    vertex -2.349 4.744 0.8
    vertex -2.164 4.349 7.2
    vertex -2.164 4.349 0.8
  endloop
endfacet
facet normal 0.9055965574336852 -0.4241401598107139 0
  outer loop
    vertex -2.349 6.456 0.8
    vertex -2.164 6.851 0.8
    vertex -2.349 6.456 7.2
  endloop
endfacet
facet normal 0.9055965574336852 -0.4241401598107139 0
  outer loop
    vertex -2.349 6.456 7.2
    vertex -2.164 6.851 0.8
    vertex -2.164 6.851 7.2
  endloop
endfacet
facet normal 0.6498178497812637 0.7600899697441449 0
  outer loop
    vertex -2.2640000000000002 3.339 0
    vertex -2.2640000000000002 3.339 0.8
    vertex -1.8780000000000001 3.009 0.8
  endloop
endfacet
facet normal 0.6498178497812637 0.7600899697441449 0
  outer loop
    vertex -2.2640000000000002 3.339 0
    vertex -1.8780000000000001 3.009 0.8
    vertex -1.8780000000000001 3.009 0
  endloop
endfacet
facet normal 0.6498178497812637 0.7600899697441448 0
  outer loop
    vertex -2.2640000000000002 3.339 7.2
    vertex -2.2640000000000002 3.339 8
    vertex -1.8780000000000001 3.009 8
  endloop
endfacet
facet normal 0.6498178497812637 0.7600899697441448 0
  outer loop
    vertex -2.2640000000000002 3.339 7.2
    vertex -1.8780000000000001 3.009 8
    vertex -1.8780000000000001 3.009 7.2
  endloop
endfacet
facet normal 0.6493184091449368 -0.7605166688150158 0
  outer loop
    vertex -2.261 7.864 0
    vertex -1.8780000000000001 8.191 0
    vertex -2.261 7.864 0.8
  endloop
endfacet
facet normal 0.6493184091449368 -0.7605166688150158 0
  outer loop
    vertex -2.261 7.864 0.8
    vertex -1.8780000000000001 8.191 0
    vertex -1.8780000000000001 8.191 0.8
  endloop
endfacet
facet normal 0.6493184091449368 -0.7605166688150159 0
  outer loop
    vertex -2.261 7.864 7.2
    vertex -1.8780000000000001 8.191 7.2
    vertex -2.261 7.864 8
  endloop
endfacet
facet normal 0.6493184091449368 -0.7605166688150159 0
  outer loop
    vertex -2.261 7.864 8
    vertex -1.8780000000000001 8.191 7.2
    vertex -1.8780000000000001 8.191 8
  endloop
endfacet
facet normal 0.819773988845248 0.572687180939779 0
  outer loop
    vertex -2.164 4.349 0.8
    vertex -2.164 4.349 7.2
    vertex -1.9160000000000001 3.994 7.2
  endloop
endfacet
facet normal 0.819773988845248 0.572687180939779 0
  outer loop
    vertex -2.164 4.349 0.8
    vertex -1.9160000000000001 3.994 7.2
    vertex -1.9160000000000001 3.994 0.8
  endloop
endfacet
facet normal 0.8197739888452483 -0.5726871809397784 0
  outer loop
    vertex -2.164 6.851 0.8
    vertex -1.9160000000000001 7.206 0.8
    vertex -2.164 6.851 7.2
  endloop
endfacet
facet normal 0.8197739888452483 -0.5726871809397784 0
  outer loop
    vertex -2.164 6.851 7.2
    vertex -1.9160000000000001 7.206 0.8
    vertex -1.9160000000000001 7.206 7.2
  endloop
endfacet
facet normal 0.7071067811865475 0.7071067811865475 0
  outer loop
    vertex -1.9160000000000001 3.994 0.8
    vertex -1.9160000000000001 3.994 7.2
    vertex -1.606 3.684 7.2
  endloop
endfacet
facet normal 0.7071067811865475 0.7071067811865475 0
  outer loop
    vertex -1.9160000000000001 3.994 0.8
    vertex -1.606 3.684 7.2
    vertex -1.606 3.684 0.8
  endloop
endfacet
facet normal 0.707106781186547 -0.707106781186548 0
  outer loop
    vertex -1.9160000000000001 7.206 0.8
    vertex -1.606 7.516 0.8
    vertex -1.9160000000000001 7.206 7.2
  endloop
endfacet
facet normal 0.707106781186547 -0.707106781186548 0
  outer loop
    vertex -1.9160000000000001 7.206 7.2
    vertex -1.606 7.516 0.8
    vertex -1.606 7.516 7.2
  endloop
endfacet
facet normal 0.5209636320121871 0.8535788739891998 0
  outer loop
    vertex -1.8780000000000001 3.009 0
    vertex -1.8780000000000001 3.009 0.8
    vertex -1.452 2.749 0.8
  endloop
endfacet
facet normal 0.5209636320121871 0.8535788739891998 0
  outer loop
    vertex -1.8780000000000001 3.009 0
    vertex -1.452 2.749 0.8
    vertex -1.452 2.749 0
  endloop
endfacet
facet normal 0.5209636320121872 0.8535788739892 0
  outer loop
    vertex -1.8780000000000001 3.009 7.2
    vertex -1.8780000000000001 3.009 8
    vertex -1.452 2.749 8
  endloop
endfacet
facet normal 0.5209636320121872 0.8535788739892 0
  outer loop
    vertex -1.8780000000000001 3.009 7.2
    vertex -1.452 2.749 8
    vertex -1.452 2.749 7.2
  endloop
endfacet
facet normal 0.5209636320121871 -0.8535788739891998 0
  outer loop
    vertex -1.8780000000000001 8.191 0
    vertex -1.452 8.451 0
    vertex -1.8780000000000001 8.191 0.8
  endloop
endfacet
facet normal 0.5209636320121871 -0.8535788739891998 0
  outer loop
    vertex -1.8780000000000001 8.191 0.8
    vertex -1.452 8.451 0
    vertex -1.452 8.451 0.8
  endloop
endfacet
facet normal 0.5209636320121872 -0.8535788739892 0
  outer loop
    vertex -1.8780000000000001 8.191 7.2
    vertex -1.452 8.451 7.2
    vertex -1.8780000000000001 8.191 8
  endloop
endfacet
facet normal 0.5209636320121872 -0.8535788739892 0
  outer loop
    vertex -1.8780000000000001 8.191 8
    vertex -1.452 8.451 7.2
    vertex -1.452 8.451 8
  endloop
endfacet
facet normal 0.5726871809397793 0.8197739888452478 0
  outer loop
    vertex -1.606 3.684 0.8
    vertex -1.606 3.684 7.2
    vertex -1.2510000000000001 3.436 7.2
  endloop
endfacet
facet normal 0.5726871809397793 0.8197739888452478 0
  outer loop
    vertex -1.606 3.684 0.8
    vertex -1.2510000000000001 3.436 7.2
    vertex -1.2510000000000001 3.436 0.8
  endloop
endfacet
facet normal 0.5726871809397793 -0.8197739888452478 0
  outer loop
    vertex -1.606 7.516 0.8
    vertex -1.2510000000000001 7.764 0.8
    vertex -1.606 7.516 7.2
  endloop
endfacet
facet normal 0.5726871809397793 -0.8197739888452478 0
  outer loop
    vertex -1.606 7.516 7.2
    vertex -1.2510000000000001 7.764 0.8
    vertex -1.2510000000000001 7.764 7.2
  endloop
endfacet
facet normal 0.3826436298716839 0.9238960182394022 0
  outer loop
    vertex -1.452 2.749 0
    vertex -1.452 2.749 0.8
    vertex -0.986 2.556 0.8
  endloop
endfacet
facet normal 0.3826436298716839 0.9238960182394022 0
  outer loop
    vertex -1.452 2.749 0
    vertex -0.986 2.556 0.8
    vertex -0.986 2.556 0
  endloop
endfacet
facet normal 0.3826436298716838 0.9238960182394022 0
  outer loop
    vertex -1.452 2.749 7.2
    vertex -1.452 2.749 8
    vertex -0.986 2.556 8
  endloop
endfacet
facet normal 0.3826436298716838 0.9238960182394022 0
  outer loop
    vertex -1.452 2.749 7.2
    vertex -0.986 2.556 8
    vertex -0.986 2.556 7.2
  endloop
endfacet
facet normal 0.3826436298716831 -0.9238960182394024 0
  outer loop
    vertex -1.452 8.451 0
    vertex -0.986 8.644 0
    vertex -1.452 8.451 0.8
  endloop
endfacet
facet normal 0.3826436298716831 -0.9238960182394024 0
  outer loop
    vertex -1.452 8.451 0.8
    vertex -0.986 8.644 0
    vertex -0.986 8.644 0.8
  endloop
endfacet
facet normal 0.3826436298716831 -0.9238960182394025 0
  outer loop
    vertex -1.452 8.451 7.2
    vertex -0.986 8.644 7.2
    vertex -1.452 8.451 8
  endloop
endfacet
facet normal 0.3826436298716831 -0.9238960182394025 0
  outer loop
    vertex -1.452 8.451 8
    vertex -0.986 8.644 7.2
    vertex -0.986 8.644 8
  endloop
endfacet
facet normal 0.4241401598107134 0.9055965574336855 0
  outer loop
    vertex -1.2510000000000001 3.436 0.8
    vertex -1.2510000000000001 3.436 7.2
    vertex -0.856 3.251 7.2
  endloop
endfacet
facet normal 0.4241401598107134 0.9055965574336855 0
  outer loop
    vertex -1.2510000000000001 3.436 0.8
    vertex -0.856 3.251 7.2
    vertex -0.856 3.251 0.8
  endloop
endfacet
facet normal 0.42414015981071257 -0.9055965574336858 0
  outer loop
    vertex -1.2510000000000001 7.764 0.8
    vertex -0.856 7.949 0.8
    vertex -1.2510000000000001 7.764 7.2
  endloop
endfacet
facet normal 0.42414015981071257 -0.9055965574336858 0
  outer loop
    vertex -1.2510000000000001 7.764 7.2
    vertex -0.856 7.949 0.8
    vertex -0.856 7.949 7.2
  endloop
endfacet
facet normal 0.23306897506663704 0.9724602063125191 0
  outer loop
    vertex -0.986 2.556 0
    vertex -0.986 2.556 0.8
    vertex -0.502 2.44 0.8
  endloop
endfacet
facet normal 0.23306897506663704 0.9724602063125191 0
  outer loop
    vertex -0.986 2.556 0
    vertex -0.502 2.44 0.8
    vertex -0.502 2.44 0
  endloop
endfacet
facet normal 0.23306897506663707 0.9724602063125192 0
  outer loop
    vertex -0.986 2.556 7.2
    vertex -0.986 2.556 8
    vertex -0.502 2.44 8
  endloop
endfacet
facet normal 0.23306897506663707 0.9724602063125192 0
  outer loop
    vertex -0.986 2.556 7.2
    vertex -0.502 2.44 8
    vertex -0.502 2.44 7.2
  endloop
endfacet
facet normal 0.2330689750666362 -0.9724602063125194 0
  outer loop
    vertex -0.986 8.644 0
    vertex -0.502 8.76 0
    vertex -0.986 8.644 0.8
  endloop
endfacet
facet normal 0.2330689750666362 -0.9724602063125194 0
  outer loop
    vertex -0.986 8.644 0.8
    vertex -0.502 8.76 0
    vertex -0.502 8.76 0.8
  endloop
endfacet
facet normal 0.2330689750666362 -0.9724602063125194 0
  outer loop
    vertex -0.986 8.644 7.2
    vertex -0.502 8.76 7.2
    vertex -0.986 8.644 8
  endloop
endfacet
facet normal 0.2330689750666362 -0.9724602063125194 0
  outer loop
    vertex -0.986 8.644 8
    vertex -0.502 8.76 7.2
    vertex -0.502 8.76 8
  endloop
endfacet
facet normal 0.25923295744356184 0.9658148237499073 0
  outer loop
    vertex -0.856 3.251 0.8
    vertex -0.856 3.251 7.2
    vertex -0.435 3.138 7.2
  endloop
endfacet
facet normal 0.25923295744356184 0.9658148237499073 0
  outer loop
    vertex -0.856 3.251 0.8
    vertex -0.435 3.138 7.2
    vertex -0.435 3.138 0.8
  endloop
endfacet
facet normal 0.25923295744356084 -0.9658148237499075 0
  outer loop
    vertex -0.856 7.949 0.8
    vertex -0.435 8.062 0.8
    vertex -0.856 7.949 7.2
  endloop
endfacet
facet normal 0.25923295744356084 -0.9658148237499075 0
  outer loop
    vertex -0.856 7.949 7.2
    vertex -0.435 8.062 0.8
    vertex -0.435 8.062 7.2
  endloop
endfacet
facet normal 0.07942952066564579 0.9968404843538538 0
  outer loop
    vertex -0.502 2.44 0
    vertex -0.502 2.44 0.8
    vertex 0 2.4 0.8
  endloop
endfacet
facet normal 0.07942952066564579 0.9968404843538538 0
  outer loop
    vertex -0.502 2.44 0
    vertex 0 2.4 0.8
    vertex 0 2.4 0
  endloop
endfacet
facet normal 0.07942952066564579 0.9968404843538538 0
  outer loop
    vertex -0.502 2.44 7.2
    vertex -0.502 2.44 8
    vertex 0 2.4 8
  endloop
endfacet
facet normal 0.07942952066564579 0.9968404843538538 0
  outer loop
    vertex -0.502 2.44 7.2
    vertex 0 2.4 8
    vertex 0 2.4 7.2
  endloop
endfacet
facet normal 0.07942952066564755 -0.9968404843538536 0
  outer loop
    vertex -0.502 8.76 0
    vertex 0 8.8 0
    vertex -0.502 8.76 0.8
  endloop
endfacet
facet normal 0.07942952066564755 -0.9968404843538536 0
  outer loop
    vertex -0.502 8.76 0.8
    vertex 0 8.8 0
    vertex 0 8.8 0.8
  endloop
endfacet
facet normal 0.07942952066564754 -0.9968404843538536 0
  outer loop
    vertex -0.502 8.76 7.2
    vertex 0 8.8 7.2
    vertex -0.502 8.76 8
  endloop
endfacet
facet normal 0.07942952066564754 -0.9968404843538536 0
  outer loop
    vertex -0.502 8.76 8
    vertex 0 8.8 7.2
    vertex 0 8.8 8
  endloop
endfacet
facet normal 0.08702490386531302 0.9962061363529303 0
  outer loop
    vertex -0.435 3.138 0.8
    vertex -0.435 3.138 7.2
    vertex 0 3.1 7.2
  endloop
endfacet
facet normal 0.08702490386531302 0.9962061363529303 0
  outer loop
    vertex -0.435 3.138 0.8
    vertex 0 3.1 7.2
    vertex 0 3.1 0.8
  endloop
endfacet
facet normal 0.08702490386531402 -0.9962061363529302 0
  outer loop
    vertex -0.435 8.062 0.8
    vertex 0 8.1 0.8
    vertex -0.435 8.062 7.2
  endloop
endfacet
facet normal 0.08702490386531402 -0.9962061363529302 0
  outer loop
    vertex -0.435 8.062 7.2
    vertex 0 8.1 0.8
    vertex 0 8.1 7.2
  endloop
endfacet
facet normal -0.07942952066564579 0.9968404843538538 0
  outer loop
    vertex 0 2.4 0
    vertex 0 2.4 0.8
    vertex 0.502 2.44 0.8
  endloop
endfacet
facet normal 0 0 -1
  outer loop
    vertex 0 2.4 0
    vertex 0.502 2.44 0
    vertex 4 0 0
  endloop
endfacet
facet normal -0.07942952066564579 0.9968404843538538 0
  outer loop
    vertex 0 2.4 0
    vertex 0.502 2.44 0.8
    vertex 0.502 2.44 0
  endloop
endfacet
facet normal 0 0 1
  outer loop
    vertex 0 2.4 0.8
    vertex 4 0 0.8
    vertex 0.502 2.44 0.8
  endloop
endfacet
facet normal -0.07942952066564579 0.9968404843538538 0
  outer loop
    vertex 0 2.4 7.2
    vertex 0 2.4 8
    vertex 0.502 2.44 8
  endloop
endfacet
facet normal 0 0 -1
  outer loop
    vertex 0 2.4 7.2
    vertex 0.502 2.44 7.2
    vertex 4 0 7.2
  endloop
endfacet
facet normal -0.07942952066564579 0.9968404843538538 0
  outer loop
    vertex 0 2.4 7.2
    vertex 0.502 2.44 8
    vertex 0.502 2.44 7.2
  endloop
endfacet
facet normal 0 0 1
  outer loop
    vertex 0 2.4 8
    vertex 4 0 8
    vertex 0.502 2.44 8
  endloop
endfacet
facet normal -0.08702490386531302 0.9962061363529303 0
  outer loop
    vertex 0 3.1 0.8
    vertex 0 3.1 7.2
    vertex 0.435 3.138 7.2
  endloop
endfacet
facet normal 0 0 -1
  outer loop
    vertex 0 3.1 0.8
    vertex 0.435 3.138 0.8
    vertex 4 0 0.8
  endloop
endfacet
facet normal -0.08702490386531302 0.9962061363529303 0
  outer loop
    vertex 0 3.1 0.8
    vertex 0.435 3.138 7.2
    vertex 0.435 3.138 0.8
  endloop
endfacet
facet normal 0 0 1
  outer loop
    vertex 0 3.1 7.2
    vertex 4 0 7.2
    vertex 0.435 3.138 7.2
  endloop
endfacet
facet normal -0.08702490386531402 -0.9962061363529302 0
  outer loop
    vertex 0 8.1 0.8
    vertex 0.435 8.062 0.8
    vertex 0 8.1 7.2
  endloop
endfacet
facet normal 0 0 -1
  outer loop
    vertex 0 8.1 0.8
    vertex 4 12.8 0.8
    vertex 0.435 8.062 0.8
  endloop
endfacet
facet normal -0.08702490386531402 -0.9962061363529302 0
  outer loop
    vertex 0 8.1 7.2
    vertex 0.435 8.062 0.8
    vertex 0.435 8.062 7.2
  endloop
endfacet
facet normal 0 0 1
  outer loop
    vertex 0 8.1 7.2
    vertex 0.435 8.062 7.2
    vertex 4 12.8 7.2
  endloop
endfacet
facet normal -0.07942952066564755 -0.9968404843538536 0
  outer loop
    vertex 0 8.8 0
    vertex 0.502 8.76 0
    vertex 0 8.8 0.8
  endloop
endfacet
facet normal 0 0 -1
  outer loop
    vertex 0 8.8 0
    vertex 4 12.8 0
    vertex 0.502 8.76 0
  endloop
endfacet
facet normal -0.07942952066564755 -0.9968404843538536 0
  outer loop
    vertex 0 8.8 0.8
    vertex 0.502 8.76 0
    vertex 0.502 8.76 0.8
  endloop
endfacet
facet normal 0 0 1
  outer loop
    vertex 0 8.8 0.8
    vertex 0.502 8.76 0.8
    vertex 4 12.8 0.8
  endloop
endfacet
facet normal -0.07942952066564754 -0.9968404843538536 0
  outer loop
    vertex 0 8.8 7.2
    vertex 0.502 8.76 7.2
    vertex 0 8.8 8
  endloop
endfacet
facet normal 0 0 -1
  outer loop
    vertex 0 8.8 7.2
    vertex 4 12.8 7.2
    vertex 0.502 8.76 7.2
  endloop
endfacet
facet normal -0.07942952066564754 -0.9968404843538536 0
  outer loop
    vertex 0 8.8 8
    vertex 0.502 8.76 7.2
    vertex 0.502 8.76 8
  endloop
endfacet
facet normal 0 0 1
  outer loop
    vertex 0 8.8 8
    vertex 0.502 8.76 8
    vertex 4 12.8 8
  endloop
endfacet
facet normal -0.25923295744356184 0.9658148237499073 0
  outer loop
    vertex 0.435 3.138 0.8
    vertex 0.435 3.138 7.2
    vertex 0.856 3.251 7.2
  endloop
endfacet
facet normal 0 0 -1
  outer loop
    vertex 0.435 3.138 0.8
    vertex 0.856 3.251 0.8
    vertex 4 0 0.8
  endloop
endfacet
facet normal -0.25923295744356184 0.9658148237499073 0
  outer loop
    vertex 0.435 3.138 0.8
    vertex 0.856 3.251 7.2
    vertex 0.856 3.251 0.8
  endloop
endfacet
facet normal 0 0 1
  outer loop
    vertex 0.435 3.138 7.2
    vertex 4 0 7.2
    vertex 0.856 3.251 7.2
  endloop
endfacet
facet normal -0.25923295744356084 -0.9658148237499075 0
  outer loop
    vertex 0.435 8.062 0.8
    vertex 0.856 7.949 0.8
    vertex 0.435 8.062 7.2
  endloop
endfacet
facet normal 0 0 -1
  outer loop
    vertex 0.435 8.062 0.8
    vertex 4 12.8 0.8
    vertex 0.856 7.949 0.8
  endloop
endfacet
facet normal -0.25923295744356084 -0.9658148237499075 0
  outer loop
    vertex 0.435 8.062 7.2
    vertex 0.856 7.949 0.8
    vertex 0.856 7.949 7.2
  endloop
endfacet
facet normal 0 0 1
  outer loop
    vertex 0.435 8.062 7.2
    vertex 0.856 7.949 7.2
    vertex 4 12.8 7.2
  endloop
endfacet
facet normal -0.23306897506663704 0.9724602063125191 0
  outer loop
    vertex 0.502 2.44 0
    vertex 0.502 2.44 0.8
    vertex 0.986 2.556 0.8
  endloop
endfacet
facet normal 0 0 -1
  outer loop
    vertex 0.502 2.44 0
    vertex 0.986 2.556 0
    vertex 4 0 0
  endloop
endfacet
facet normal -0.23306897506663704 0.9724602063125191 0
  outer loop
    vertex 0.502 2.44 0
    vertex 0.986 2.556 0.8
    vertex 0.986 2.556 0
  endloop
endfacet
facet normal 0 0 1
  outer loop
    vertex 0.502 2.44 0.8
    vertex 4 0 0.8
    vertex 0.986 2.556 0.8
  endloop
endfacet
facet normal -0.23306897506663707 0.9724602063125192 0
  outer loop
    vertex 0.502 2.44 7.2
    vertex 0.502 2.44 8
    vertex 0.986 2.556 8
  endloop
endfacet
facet normal 0 0 -1
  outer loop
    vertex 0.502 2.44 7.2
    vertex 0.986 2.556 7.2
    vertex 4 0 7.2
  endloop
endfacet
facet normal -0.23306897506663707 0.9724602063125192 0
  outer loop
    vertex 0.502 2.44 7.2
    vertex 0.986 2.556 8
    vertex 0.986 2.556 7.2
  endloop
endfacet
facet normal 0 0 1
  outer loop
    vertex 0.502 2.44 8
    vertex 4 0 8
    vertex 0.986 2.556 8
  endloop
endfacet
facet normal -0.2330689750666362 -0.9724602063125194 0
  outer loop
    vertex 0.502 8.76 0
    vertex 0.986 8.644 0
    vertex 0.502 8.76 0.8
  endloop
endfacet
facet normal 0 0 -1
  outer loop
    vertex 0.502 8.76 0
    vertex 4 12.8 0
    vertex 0.986 8.644 0
  endloop
endfacet
facet normal -0.2330689750666362 -0.9724602063125194 0
  outer loop
    vertex 0.502 8.76 0.8
    vertex 0.986 8.644 0
    vertex 0.986 8.644 0.8
  endloop
endfacet
facet normal 0 0 1
  outer loop
    vertex 0.502 8.76 0.8
    vertex 0.986 8.644 0.8
    vertex 4 12.8 0.8
  endloop
endfacet
facet normal -0.2330689750666362 -0.9724602063125194 0
  outer loop
    vertex 0.502 8.76 7.2
    vertex 0.986 8.644 7.2
    vertex 0.502 8.76 8
  endloop
endfacet
facet normal 0 0 -1
  outer loop
    vertex 0.502 8.76 7.2
    vertex 4 12.8 7.2
    vertex 0.986 8.644 7.2
  endloop
endfacet
facet normal -0.2330689750666362 -0.9724602063125194 0
  outer loop
    vertex 0.502 8.76 8
    vertex 0.986 8.644 7.2
    vertex 0.986 8.644 8
  endloop
endfacet
facet normal 0 0 1
  outer loop
    vertex 0.502 8.76 8
    vertex 0.986 8.644 8
    vertex 4 12.8 8
  endloop
endfacet
facet normal -0.4241401598107134 0.9055965574336855 0
  outer loop
    vertex 0.856 3.251 0.8
    vertex 0.856 3.251 7.2
    vertex 1.2510000000000001 3.436 7.2
  endloop
endfacet
facet normal 0 0 -1
  outer loop
    vertex 0.856 3.251 0.8
    vertex 1.2510000000000001 3.436 0.8
    vertex 4 0 0.8
  endloop
endfacet
facet normal -0.4241401598107134 0.9055965574336855 0
  outer loop
    vertex 0.856 3.251 0.8
    vertex 1.2510000000000001 3.436 7.2
    vertex 1.2510000000000001 3.436 0.8
  endloop
endfacet
facet normal 0 0 1
  outer loop
    vertex 0.856 3.251 7.2
    vertex 4 0 7.2
    vertex 1.2510000000000001 3.436 7.2
  endloop
endfacet
facet normal -0.42414015981071257 -0.9055965574336858 0
  outer loop
    vertex 0.856 7.949 0.8
    vertex 1.2510000000000001 7.764 0.8
    vertex 0.856 7.949 7.2
  endloop
endfacet
facet normal 0 0 -1
  outer loop
    vertex 0.856 7.949 0.8
    vertex 4 12.8 0.8
    vertex 1.2510000000000001 7.764 0.8
  endloop
endfacet
facet normal -0.42414015981071257 -0.9055965574336858 0
  outer loop
    vertex 0.856 7.949 7.2
    vertex 1.2510000000000001 7.764 0.8
    vertex 1.2510000000000001 7.764 7.2
  endloop
endfacet
facet normal 0 0 1
  outer loop
    vertex 0.856 7.949 7.2
    vertex 1.2510000000000001 7.764 7.2
    vertex 4 12.8 7.2
  endloop
endfacet
facet normal -0.3826436298716839 0.9238960182394022 0
  outer loop
    vertex 0.986 2.556 0
    vertex 0.986 2.556 0.8
    vertex 1.452 2.749 0.8
  endloop
endfacet
facet normal 0 0 -1
  outer loop
    vertex 0.986 2.556 0
    vertex 1.452 2.749 0
    vertex 4 0 0
  endloop
endfacet
facet normal -0.3826436298716839 0.9238960182394022 0
  outer loop
    vertex 0.986 2.556 0
    vertex 1.452 2.749 0.8
    vertex 1.452 2.749 0
  endloop
endfacet
facet normal 0 0 1
  outer loop
    vertex 0.986 2.556 0.8
    vertex 4 0 0.8
    vertex 1.452 2.749 0.8
  endloop
endfacet
facet normal -0.3826436298716838 0.9238960182394022 0
  outer loop
    vertex 0.986 2.556 7.2
    vertex 0.986 2.556 8
    vertex 1.452 2.749 8
  endloop
endfacet
facet normal 0 0 -1
  outer loop
    vertex 0.986 2.556 7.2
    vertex 1.452 2.749 7.2
    vertex 4 0 7.2
  endloop
endfacet
facet normal -0.3826436298716838 0.9238960182394022 0
  outer loop
    vertex 0.986 2.556 7.2
    vertex 1.452 2.749 8
    vertex 1.452 2.749 7.2
  endloop
endfacet
facet normal 0 0 1
  outer loop
    vertex 0.986 2.556 8
    vertex 4 0 8
    vertex 1.452 2.749 8
  endloop
endfacet
facet normal -0.3826436298716831 -0.9238960182394024 0
  outer loop
    vertex 0.986 8.644 0
    vertex 1.452 8.451 0
    vertex 0.986 8.644 0.8
  endloop
endfacet
facet normal 0 0 -1
  outer loop
    vertex 0.986 8.644 0
    vertex 4 12.8 0
    vertex 1.452 8.451 0
  endloop
endfacet
facet normal -0.3826436298716831 -0.9238960182394024 0
  outer loop
    vertex 0.986 8.644 0.8
    vertex 1.452 8.451 0
    vertex 1.452 8.451 0.8
  endloop
endfacet
facet normal 0 0 1
  outer loop
    vertex 0.986 8.644 0.8
    vertex 1.452 8.451 0.8
    vertex 4 12.8 0.8
  endloop
endfacet
facet normal -0.3826436298716831 -0.9238960182394025 0
  outer loop
    vertex 0.986 8.644 7.2
    vertex 1.452 8.451 7.2
    vertex 0.986 8.644 8
  endloop
endfacet
facet normal 0 0 -1
  outer loop
    vertex 0.986 8.644 7.2
    vertex 4 12.8 7.2
    vertex 1.452 8.451 7.2
  endloop
endfacet
facet normal -0.3826436298716831 -0.9238960182394025 0
  outer loop
    vertex 0.986 8.644 8
    vertex 1.452 8.451 7.2
    vertex 1.452 8.451 8
  endloop
endfacet
facet normal 0 0 1
  outer loop
    vertex 0.986 8.644 8
    vertex 1.452 8.451 8
    vertex 4 12.8 8
  endloop
endfacet
facet normal -0.5726871809397793 0.8197739888452478 0
  outer loop
    vertex 1.2510000000000001 3.436 0.8
    vertex 1.2510000000000001 3.436 7.2
    vertex 1.606 3.684 7.2
  endloop
endfacet
facet normal 0 0 -1
  outer loop
    vertex 1.2510000000000001 3.436 0.8
    vertex 1.606 3.684 0.8
    vertex 4 0 0.8
  endloop
endfacet
facet normal -0.5726871809397793 0.8197739888452478 0
  outer loop
    vertex 1.2510000000000001 3.436 0.8
    vertex 1.606 3.684 7.2
    vertex 1.606 3.684 0.8
  endloop
endfacet
facet normal 0 0 1
  outer loop
    vertex 1.2510000000000001 3.436 7.2
    vertex 4 0 7.2
    vertex 1.606 3.684 7.2
  endloop
endfacet
facet normal -0.5726871809397793 -0.8197739888452478 0
  outer loop
    vertex 1.2510000000000001 7.764 0.8
    vertex 1.606 7.516 0.8
    vertex 1.2510000000000001 7.764 7.2
  endloop
endfacet
facet normal 0 0 -1
  outer loop
    vertex 1.2510000000000001 7.764 0.8
    vertex 4 12.8 0.8
    vertex 1.606 7.516 0.8
  endloop
endfacet
facet normal -0.5726871809397793 -0.8197739888452478 0
  outer loop
    vertex 1.2510000000000001 7.764 7.2
    vertex 1.606 7.516 0.8
    vertex 1.606 7.516 7.2
  endloop
endfacet
facet normal 0 0 1
  outer loop
    vertex 1.2510000000000001 7.764 7.2
    vertex 1.606 7.516 7.2
    vertex 4 12.8 7.2
  endloop
endfacet
facet normal -0.5209636320121871 0.8535788739891998 0
  outer loop
    vertex 1.452 2.749 0
    vertex 1.452 2.749 0.8
    vertex 1.8780000000000001 3.009 0.8
  endloop
endfacet
facet normal 0 0 -1
  outer loop
    vertex 1.452 2.749 0
    vertex 1.8780000000000001 3.009 0
    vertex 4 0 0
  endloop
endfacet
facet normal -0.5209636320121871 0.8535788739891998 0
  outer loop
    vertex 1.452 2.749 0
    vertex 1.8780000000000001 3.009 0.8
    vertex 1.8780000000000001 3.009 0
  endloop
endfacet
facet normal 0 0 1
  outer loop
    vertex 1.452 2.749 0.8
    vertex 4 0 0.8
    vertex 1.8780000000000001 3.009 0.8
  endloop
endfacet
facet normal -0.5209636320121872 0.8535788739892 0
  outer loop
    vertex 1.452 2.749 7.2
    vertex 1.452 2.749 8
    vertex 1.8780000000000001 3.009 8
  endloop
endfacet
facet normal 0 0 -1
  outer loop
    vertex 1.452 2.749 7.2
    vertex 1.8780000000000001 3.009 7.2
    vertex 4 0 7.2
  endloop
endfacet
facet normal -0.5209636320121872 0.8535788739892 0
  outer loop
    vertex 1.452 2.749 7.2
    vertex 1.8780000000000001 3.009 8
    vertex 1.8780000000000001 3.009 7.2
  endloop
endfacet
facet normal 0 0 1
  outer loop
    vertex 1.452 2.749 8
    vertex 4 0 8
    vertex 1.8780000000000001 3.009 8
  endloop
endfacet
facet normal -0.5209636320121871 -0.8535788739891998 0
  outer loop
    vertex 1.452 8.451 0
    vertex 1.8780000000000001 8.191 0
    vertex 1.452 8.451 0.8
  endloop
endfacet
facet normal 0 0 -1
  outer loop
    vertex 1.452 8.451 0
    vertex 4 12.8 0
    vertex 1.8780000000000001 8.191 0
  endloop
endfacet
facet normal -0.5209636320121871 -0.8535788739891998 0
  outer loop
    vertex 1.452 8.451 0.8
    vertex 1.8780000000000001 8.191 0
    vertex 1.8780000000000001 8.191 0.8
  endloop
endfacet
facet normal 0 0 1
  outer loop
    vertex 1.452 8.451 0.8
    vertex 1.8780000000000001 8.191 0.8
    vertex 4 12.8 0.8
  endloop
endfacet
facet normal -0.5209636320121872 -0.8535788739892 0
  outer loop
    vertex 1.452 8.451 7.2
    vertex 1.8780000000000001 8.191 7.2
    vertex 1.452 8.451 8
  endloop
endfacet
facet normal 0 0 -1
  outer loop
    vertex 1.452 8.451 7.2
    vertex 4 12.8 7.2
    vertex 1.8780000000000001 8.191 7.2
  endloop
endfacet
facet normal -0.5209636320121872 -0.8535788739892 0
  outer loop
    vertex 1.452 8.451 8
    vertex 1.8780000000000001 8.191 7.2
    vertex 1.8780000000000001 8.191 8
  endloop
endfacet
facet normal 0 0 1
  outer loop
    vertex 1.452 8.451 8
    vertex 1.8780000000000001 8.191 8
    vertex 4 12.8 8
  endloop
endfacet
facet normal -0.7071067811865475 0.7071067811865475 0
  outer loop
    vertex 1.606 3.684 0.8
    vertex 1.606 3.684 7.2
    vertex 1.9160000000000001 3.994 7.2
  endloop
endfacet
facet normal 0 0 -1
  outer loop
    vertex 1.606 3.684 0.8
    vertex 1.9160000000000001 3.994 0.8
    vertex 4 0 0.8
  endloop
endfacet
facet normal -0.7071067811865475 0.7071067811865475 0
  outer loop
    vertex 1.606 3.684 0.8
    vertex 1.9160000000000001 3.994 7.2
    vertex 1.9160000000000001 3.994 0.8
  endloop
endfacet
facet normal 0 0 1
  outer loop
    vertex 1.606 3.684 7.2
    vertex 4 0 7.2
    vertex 1.9160000000000001 3.994 7.2
  endloop
endfacet
facet normal -0.707106781186547 -0.707106781186548 0
  outer loop
    vertex 1.606 7.516 0.8
    vertex 1.9160000000000001 7.206 0.8
    vertex 1.606 7.516 7.2
  endloop
endfacet
facet normal 0 0 -1
  outer loop
    vertex 1.606 7.516 0.8
    vertex 4 12.8 0.8
    vertex 1.9160000000000001 7.206 0.8
  endloop
endfacet
facet normal -0.707106781186547 -0.707106781186548 0
  outer loop
    vertex 1.606 7.516 7.2
    vertex 1.9160000000000001 7.206 0.8
    vertex 1.9160000000000001 7.206 7.2
  endloop
endfacet
facet normal 0 0 1
  outer loop
    vertex 1.606 7.516 7.2
    vertex 1.9160000000000001 7.206 7.2
    vertex 4 12.8 7.2
  endloop
endfacet
facet normal -0.6498178497812637 0.7600899697441449 0
  outer loop
    vertex 1.8780000000000001 3.009 0
    vertex 1.8780000000000001 3.009 0.8
    vertex 2.2640000000000002 3.339 0.8
  endloop
endfacet
facet normal 0 0 -1
  outer loop
    vertex 1.8780000000000001 3.009 0
    vertex 2.2640000000000002 3.339 0
    vertex 4 0 0
  endloop
endfacet
facet normal -0.6498178497812637 0.7600899697441449 0
  outer loop
    vertex 1.8780000000000001 3.009 0
    vertex 2.2640000000000002 3.339 0.8
    vertex 2.2640000000000002 3.339 0
  endloop
endfacet
facet normal 0 0 1
  outer loop
    vertex 1.8780000000000001 3.009 0.8
    vertex 4 0 0.8
    vertex 2.2640000000000002 3.339 0.8
  endloop
endfacet
facet normal -0.6498178497812637 0.7600899697441448 0
  outer loop
    vertex 1.8780000000000001 3.009 7.2
    vertex 1.8780000000000001 3.009 8
    vertex 2.2640000000000002 3.339 8
  endloop
endfacet
facet normal 0 0 -1
  outer loop
    vertex 1.8780000000000001 3.009 7.2
    vertex 2.2640000000000002 3.339 7.2
    vertex 4 0 7.2
  endloop
endfacet
facet normal -0.6498178497812637 0.7600899697441448 0
  outer loop
    vertex 1.8780000000000001 3.009 7.2
    vertex 2.2640000000000002 3.339 8
    vertex 2.2640000000000002 3.339 7.2
  endloop
endfacet
facet normal 0 0 1
  outer loop
    vertex 1.8780000000000001 3.009 8
    vertex 4 0 8
    vertex 2.2640000000000002 3.339 8
  endloop
endfacet
facet normal -0.6493184091449368 -0.7605166688150158 0
  outer loop
    vertex 1.8780000000000001 8.191 0
    vertex 2.261 7.864 0
    vertex 1.8780000000000001 8.191 0.8
  endloop
endfacet
facet normal 0 0 -1
  outer loop
    vertex 1.8780000000000001 8.191 0
    vertex 4 12.8 0
    vertex 2.261 7.864 0
  endloop
endfacet
facet normal -0.6493184091449368 -0.7605166688150158 0
  outer loop
    vertex 1.8780000000000001 8.191 0.8
    vertex 2.261 7.864 0
    vertex 2.261 7.864 0.8
  endloop
endfacet
facet normal 0 0 1
  outer loop
    vertex 1.8780000000000001 8.191 0.8
    vertex 2.261 7.864 0.8
    vertex 4 12.8 0.8
  endloop
endfacet
facet normal -0.6493184091449368 -0.7605166688150159 0
  outer loop
    vertex 1.8780000000000001 8.191 7.2
    vertex 2.261 7.864 7.2
    vertex 1.8780000000000001 8.191 8
  endloop
endfacet
facet normal 0 0 -1
  outer loop
    vertex 1.8780000000000001 8.191 7.2
    vertex 4 12.8 7.2
    vertex 2.261 7.864 7.2
  endloop
endfacet
facet normal -0.6493184091449368 -0.7605166688150159 0
  outer loop
    vertex 1.8780000000000001 8.191 8
    vertex 2.261 7.864 7.2
    vertex 2.261 7.864 8
  endloop
endfacet
facet normal 0 0 1
  outer loop
    vertex 1.8780000000000001 8.191 8
    vertex 2.261 7.864 8
    vertex 4 12.8 8
  endloop
endfacet
facet normal -0.819773988845248 0.572687180939779 0
  outer loop
    vertex 1.9160000000000001 3.994 0.8
    vertex 1.9160000000000001 3.994 7.2
    vertex 2.164 4.349 7.2
  endloop
endfacet
facet normal 0 0 -1
  outer loop
    vertex 1.9160000000000001 3.994 0.8
    vertex 2.164 4.349 0.8
    vertex 4 0 0.8
  endloop
endfacet
facet normal -0.819773988845248 0.572687180939779 0
  outer loop
    vertex 1.9160000000000001 3.994 0.8
    vertex 2.164 4.349 7.2
    vertex 2.164 4.349 0.8
  endloop
endfacet
facet normal 0 0 1
  outer loop
    vertex 1.9160000000000001 3.994 7.2
    vertex 4 0 7.2
    vertex 2.164 4.349 7.2
  endloop
endfacet
facet normal -0.8197739888452483 -0.5726871809397784 0
  outer loop
    vertex 1.9160000000000001 7.206 0.8
    vertex 2.164 6.851 0.8
    vertex 1.9160000000000001 7.206 7.2
  endloop
endfacet
facet normal 0 0 -1
  outer loop
    vertex 1.9160000000000001 7.206 0.8
    vertex 4 12.8 0.8
    vertex 2.164 6.851 0.8
  endloop
endfacet
facet normal -0.8197739888452483 -0.5726871809397784 0
  outer loop
    vertex 1.9160000000000001 7.206 7.2
    vertex 2.164 6.851 0.8
    vertex 2.164 6.851 7.2
  endloop
endfacet
facet normal 0 0 1
  outer loop
    vertex 1.9160000000000001 7.206 7.2
    vertex 2.164 6.851 7.2
    vertex 4 12.8 7.2
  endloop
endfacet
facet normal -0.9055965574336852 0.4241401598107139 0
  outer loop
    vertex 2.164 4.349 0.8
    vertex 2.164 4.349 7.2
    vertex 2.349 4.744 7.2
  endloop
endfacet
facet normal 0 0 -1
  outer loop
    vertex 2.164 4.349 0.8
    vertex 2.349 4.744 0.8
    vertex 4 0 0.8
  endloop
endfacet
facet normal -0.9055965574336852 0.4241401598107139 0
  outer loop
    vertex 2.164 4.349 0.8
    vertex 2.349 4.744 7.2
    vertex 2.349 4.744 0.8
  endloop
endfacet
facet normal 0 0 1
  outer loop
    vertex 2.164 4.349 7.2
    vertex 4 0 7.2
    vertex 2.349 4.744 7.2
  endloop
endfacet
facet normal -0.9055965574336852 -0.4241401598107139 0
  outer loop
    vertex 2.164 6.851 0.8
    vertex 2.349 6.456 0.8
    vertex 2.164 6.851 7.2
  endloop
endfacet
facet normal 0 0 -1
  outer loop
    vertex 2.164 6.851 0.8
    vertex 4 12.8 0.8
    vertex 2.349 6.456 0.8
  endloop
endfacet
facet normal -0.9055965574336852 -0.4241401598107139 0
  outer loop
    vertex 2.164 6.851 7.2
    vertex 2.349 6.456 0.8
    vertex 2.349 6.456 7.2
  endloop
endfacet
facet normal 0 0 1
  outer loop
    vertex 2.164 6.851 7.2
    vertex 2.349 6.456 7.2
    vertex 4 12.8 7.2
  endloop
endfacet
facet normal -0.7600899697441449 -0.6498178497812637 0
  outer loop
    vertex 2.261 7.864 0
    vertex 2.591 7.478 0
    vertex 2.261 7.864 0.8
  endloop
endfacet
facet normal 0 0 -1
  outer loop
    vertex 2.261 7.864 0
    vertex 4 12.8 0
    vertex 2.591 7.478 0
  endloop
endfacet
facet normal -0.7600899697441449 -0.6498178497812637 0
  outer loop
    vertex 2.261 7.864 0.8
    vertex 2.591 7.478 0
    vertex 2.591 7.478 0.8
  endloop
endfacet
facet normal 0 0 1
  outer loop
    vertex 2.261 7.864 0.8
    vertex 2.591 7.478 0.8
    vertex 4 12.8 0.8
  endloop
endfacet
facet normal -0.7600899697441448 -0.6498178497812637 0
  outer loop
    vertex 2.261 7.864 7.2
    vertex 2.591 7.478 7.2
    vertex 2.261 7.864 8
  endloop
endfacet
facet normal 0 0 -1
  outer loop
    vertex 2.261 7.864 7.2
    vertex 4 12.8 7.2
    vertex 2.591 7.478 7.2
  endloop
endfacet
facet normal -0.7600899697441448 -0.6498178497812637 0
  outer loop
    vertex 2.261 7.864 8
    vertex 2.591 7.478 7.2
    vertex 2.591 7.478 8
  endloop
endfacet
facet normal 0 0 1
  outer loop
    vertex 2.261 7.864 8
    vertex 2.591 7.478 8
    vertex 4 12.8 8
  endloop
endfacet
facet normal -0.7605166688150166 0.6493184091449359 0
  outer loop
    vertex 2.2640000000000002 3.339 0
    vertex 2.2640000000000002 3.339 0.8
    vertex 2.591 3.722 0.8
  endloop
endfacet
facet normal 0 0 -1
  outer loop
    vertex 2.2640000000000002 3.339 0
    vertex 2.591 3.722 0
    vertex 4 0 0
  endloop
endfacet
facet normal -0.7605166688150166 0.6493184091449359 0
  outer loop
    vertex 2.2640000000000002 3.339 0
    vertex 2.591 3.722 0.8
    vertex 2.591 3.722 0
  endloop
endfacet
facet normal 0 0 1
  outer loop
    vertex 2.2640000000000002 3.339 0.8
    vertex 4 0 0.8
    vertex 2.591 3.722 0.8
  endloop
endfacet
facet normal -0.7605166688150167 0.6493184091449358 0
  outer loop
    vertex 2.2640000000000002 3.339 7.2
    vertex 2.2640000000000002 3.339 8
    vertex 2.591 3.722 8
  endloop
endfacet
facet normal 0 0 -1
  outer loop
    vertex 2.2640000000000002 3.339 7.2
    vertex 2.591 3.722 7.2
    vertex 4 0 7.2
  endloop
endfacet
facet normal -0.7605166688150167 0.6493184091449358 0
  outer loop
    vertex 2.2640000000000002 3.339 7.2
    vertex 2.591 3.722 8
    vertex 2.591 3.722 7.2
  endloop
endfacet
facet normal 0 0 1
  outer loop
    vertex 2.2640000000000002 3.339 8
    vertex 4 0 8
    vertex 2.591 3.722 8
  endloop
endfacet
facet normal -0.9658148237499073 0.2592329574435617 0
  outer loop
    vertex 2.349 4.744 0.8
    vertex 2.349 4.744 7.2
    vertex 2.462 5.165 7.2
  endloop
endfacet
facet normal 0 0 -1
  outer loop
    vertex 2.349 4.744 0.8
    vertex 2.462 5.165 0.8
    vertex 4 0 0.8
  endloop
endfacet
facet normal -0.9658148237499073 0.2592329574435617 0
  outer loop
    vertex 2.349 4.744 0.8
    vertex 2.462 5.165 7.2
    vertex 2.462 5.165 0.8
  endloop
endfacet
facet normal 0 0 1
  outer loop
    vertex 2.349 4.744 7.2
    vertex 4 0 7.2
    vertex 2.462 5.165 7.2
  endloop
endfacet
facet normal -0.9658148237499073 -0.2592329574435617 0
  outer loop
    vertex 2.349 6.456 0.8
    vertex 2.462 6.035 0.8
    vertex 2.349 6.456 7.2
  endloop
endfacet
facet normal 0 0 -1
  outer loop
    vertex 2.349 6.456 0.8
    vertex 4 12.8 0.8
    vertex 2.462 6.035 0.8
  endloop
endfacet
facet normal -0.9658148237499073 -0.2592329574435617 0
  outer loop
    vertex 2.349 6.456 7.2
    vertex 2.462 6.035 0.8
    vertex 2.462 6.035 7.2
  endloop
endfacet
facet normal 0 0 1
  outer loop
    vertex 2.349 6.456 7.2
    vertex 2.462 6.035 7.2
    vertex 4 12.8 7.2
  endloop
endfacet
facet normal -0.9962061363529302 0.0870249038653129 0
  outer loop
    vertex 2.462 5.165 0.8
    vertex 2.462 5.165 7.2
    vertex 2.5 5.6000000000000005 7.2
  endloop
endfacet
facet normal 0 0 -1
  outer loop
    vertex 2.462 5.165 0.8
    vertex 2.5 5.6000000000000005 0.8
    vertex 4 0 0.8
  endloop
endfacet
facet normal -0.9962061363529302 0.0870249038653129 0
  outer loop
    vertex 2.462 5.165 0.8
    vertex 2.5 5.6000000000000005 7.2
    vertex 2.5 5.6000000000000005 0.8
  endloop
endfacet
facet normal 0 0 1
  outer loop
    vertex 2.462 5.165 7.2
    vertex 4 0 7.2
    vertex 2.5 5.6000000000000005 7.2
  endloop
endfacet
facet normal -0.9962061363529302 -0.08702490386531309 0
  outer loop
    vertex 2.462 6.035 0.8
    vertex 2.5 5.6000000000000005 0.8
    vertex 2.462 6.035 7.2
  endloop
endfacet
facet normal 0 0 -1
  outer loop
    vertex 2.462 6.035 0.8
    vertex 4 12.8 0.8
    vertex 2.5 5.6000000000000005 0.8
  endloop
endfacet
facet normal -0.9962061363529302 -0.08702490386531309 0
  outer loop
    vertex 2.462 6.035 7.2
    vertex 2.5 5.6000000000000005 0.8
    vertex 2.5 5.6000000000000005 7.2
  endloop
endfacet
facet normal 0 0 1
  outer loop
    vertex 2.462 6.035 7.2
    vertex 2.5 5.6000000000000005 7.2
    vertex 4 12.8 7.2
  endloop
endfacet
facet normal 0 0 -1
  outer loop
    vertex 2.5 5.6000000000000005 0.8
    vertex 4 12.8 0.8
    vertex 4 0 0.8
  endloop
endfacet
facet normal 0 0 1
  outer loop
    vertex 2.5 5.6000000000000005 7.2
    vertex 4 0 7.2
    vertex 4 12.8 7.2
  endloop
endfacet
facet normal -0.8535788739891997 0.5209636320121876 0
  outer loop
    vertex 2.591 3.722 0
    vertex 2.591 3.722 0.8
    vertex 2.851 4.148 0.8
  endloop
endfacet
facet normal 0 0 -1
  outer loop
    vertex 2.591 3.722 0
    vertex 2.851 4.148 0
    vertex 4 0 0
  endloop
endfacet
facet normal -0.8535788739891997 0.5209636320121876 0
  outer loop
    vertex 2.591 3.722 0
    vertex 2.851 4.148 0.8
    vertex 2.851 4.148 0
  endloop
endfacet
facet normal 0 0 1
  outer loop
    vertex 2.591 3.722 0.8
    vertex 4 0 0.8
    vertex 2.851 4.148 0.8
  endloop
endfacet
facet normal -0.8535788739891997 0.5209636320121875 0
  outer loop
    vertex 2.591 3.722 7.2
    vertex 2.591 3.722 8
    vertex 2.851 4.148 8
  endloop
endfacet
facet normal 0 0 -1
  outer loop
    vertex 2.591 3.722 7.2
    vertex 2.851 4.148 7.2
    vertex 4 0 7.2
  endloop
endfacet
facet normal -0.8535788739891997 0.5209636320121875 0
  outer loop
    vertex 2.591 3.722 7.2
    vertex 2.851 4.148 8
    vertex 2.851 4.148 7.2
  endloop
endfacet
facet normal 0 0 1
  outer loop
    vertex 2.591 3.722 8
    vertex 4 0 8
    vertex 2.851 4.148 8
  endloop
endfacet
facet normal -0.8535788739891995 -0.520963632012188 0
  outer loop
    vertex 2.591 7.478 0
    vertex 2.851 7.0520000000000005 0
    vertex 2.591 7.478 0.8
  endloop
endfacet
facet normal 0 0 -1
  outer loop
    vertex 2.591 7.478 0
    vertex 4 12.8 0
    vertex 2.851 7.0520000000000005 0
  endloop
endfacet
facet normal -0.8535788739891995 -0.520963632012188 0
  outer loop
    vertex 2.591 7.478 0.8
    vertex 2.851 7.0520000000000005 0
    vertex 2.851 7.0520000000000005 0.8
  endloop
endfacet
facet normal 0 0 1
  outer loop
    vertex 2.591 7.478 0.8
    vertex 2.851 7.0520000000000005 0.8
    vertex 4 12.8 0.8
  endloop
endfacet
facet normal -0.8535788739891995 -0.520963632012188 0
  outer loop
    vertex 2.591 7.478 7.2
    vertex 2.851 7.0520000000000005 7.2
    vertex 2.591 7.478 8
  endloop
endfacet
facet normal 0 0 -1
  outer loop
    vertex 2.591 7.478 7.2
    vertex 4 12.8 7.2
    vertex 2.851 7.0520000000000005 7.2
  endloop
endfacet
facet normal -0.8535788739891995 -0.520963632012188 0
  outer loop
    vertex 2.591 7.478 8
    vertex 2.851 7.0520000000000005 7.2
    vertex 2.851 7.0520000000000005 8
  endloop
endfacet
facet normal 0 0 1
  outer loop
    vertex 2.591 7.478 8
    vertex 2.851 7.0520000000000005 8
    vertex 4 12.8 8
  endloop
endfacet
facet normal -0.9238960182394022 0.3826436298716837 0
  outer loop
    vertex 2.851 4.148 0
    vertex 2.851 4.148 0.8
    vertex 3.044 4.614 0.8
  endloop
endfacet
facet normal 0 0 -1
  outer loop
    vertex 2.851 4.148 0
    vertex 3.044 4.614 0
    vertex 4 0 0
  endloop
endfacet
facet normal -0.9238960182394022 0.3826436298716837 0
  outer loop
    vertex 2.851 4.148 0
    vertex 3.044 4.614 0.8
    vertex 3.044 4.614 0
  endloop
endfacet
facet normal 0 0 1
  outer loop
    vertex 2.851 4.148 0.8
    vertex 4 0 0.8
    vertex 3.044 4.614 0.8
  endloop
endfacet
facet normal -0.9238960182394023 0.3826436298716837 0
  outer loop
    vertex 2.851 4.148 7.2
    vertex 2.851 4.148 8
    vertex 3.044 4.614 8
  endloop
endfacet
facet normal 0 0 -1
  outer loop
    vertex 2.851 4.148 7.2
    vertex 3.044 4.614 7.2
    vertex 4 0 7.2
  endloop
endfacet
facet normal -0.9238960182394023 0.3826436298716837 0
  outer loop
    vertex 2.851 4.148 7.2
    vertex 3.044 4.614 8
    vertex 3.044 4.614 7.2
  endloop
endfacet
facet normal 0 0 1
  outer loop
    vertex 2.851 4.148 8
    vertex 4 0 8
    vertex 3.044 4.614 8
  endloop
endfacet
facet normal -0.9238960182394022 -0.3826436298716837 0
  outer loop
    vertex 2.851 7.0520000000000005 0
    vertex 3.044 6.586 0
    vertex 2.851 7.0520000000000005 0.8
  endloop
endfacet
facet normal 0 0 -1
  outer loop
    vertex 2.851 7.0520000000000005 0
    vertex 4 12.8 0
    vertex 3.044 6.586 0
  endloop
endfacet
facet normal -0.9238960182394022 -0.3826436298716837 0
  outer loop
    vertex 2.851 7.0520000000000005 0.8
    vertex 3.044 6.586 0
    vertex 3.044 6.586 0.8
  endloop
endfacet
facet normal 0 0 1
  outer loop
    vertex 2.851 7.0520000000000005 0.8
    vertex 3.044 6.586 0.8
    vertex 4 12.8 0.8
  endloop
endfacet
facet normal -0.9238960182394023 -0.3826436298716837 0
  outer loop
    vertex 2.851 7.0520000000000005 7.2
    vertex 3.044 6.586 7.2
    vertex 2.851 7.0520000000000005 8
  endloop
endfacet
facet normal 0 0 -1
  outer loop
    vertex 2.851 7.0520000000000005 7.2
    vertex 4 12.8 7.2
    vertex 3.044 6.586 7.2
  endloop
endfacet
facet normal -0.9238960182394023 -0.3826436298716837 0
  outer loop
    vertex 2.851 7.0520000000000005 8
    vertex 3.044 6.586 7.2
    vertex 3.044 6.586 8
  endloop
endfacet
facet normal 0 0 1
  outer loop
    vertex 2.851 7.0520000000000005 8
    vertex 3.044 6.586 8
    vertex 4 12.8 8
  endloop
endfacet
facet normal -0.9724602063125191 0.23306897506663704 0
  outer loop
    vertex 3.044 4.614 0
    vertex 3.044 4.614 0.8
    vertex 3.16 5.098 0.8
  endloop
endfacet
facet normal 0 0 -1
  outer loop
    vertex 3.044 4.614 0
    vertex 3.16 5.098 0
    vertex 4 0 0
  endloop
endfacet
facet normal -0.9724602063125191 0.23306897506663704 0
  outer loop
    vertex 3.044 4.614 0
    vertex 3.16 5.098 0.8
    vertex 3.16 5.098 0
  endloop
endfacet
facet normal 0 0 1
  outer loop
    vertex 3.044 4.614 0.8
    vertex 4 0 0.8
    vertex 3.16 5.098 0.8
  endloop
endfacet
facet normal -0.9724602063125192 0.23306897506663707 0
  outer loop
    vertex 3.044 4.614 7.2
    vertex 3.044 4.614 8
    vertex 3.16 5.098 8
  endloop
endfacet
facet normal 0 0 -1
  outer loop
    vertex 3.044 4.614 7.2
    vertex 3.16 5.098 7.2
    vertex 4 0 7.2
  endloop
endfacet
facet normal -0.9724602063125192 0.23306897506663707 0
  outer loop
    vertex 3.044 4.614 7.2
    vertex 3.16 5.098 8
    vertex 3.16 5.098 7.2
  endloop
endfacet
facet normal 0 0 1
  outer loop
    vertex 3.044 4.614 8
    vertex 4 0 8
    vertex 3.16 5.098 8
  endloop
endfacet
facet normal -0.9724602063125191 -0.23306897506663704 0
  outer loop
    vertex 3.044 6.586 0
    vertex 3.16 6.102 0
    vertex 3.044 6.586 0.8
  endloop
endfacet
facet normal 0 0 -1
  outer loop
    vertex 3.044 6.586 0
    vertex 4 12.8 0
    vertex 3.16 6.102 0
  endloop
endfacet
facet normal -0.9724602063125191 -0.23306897506663704 0
  outer loop
    vertex 3.044 6.586 0.8
    vertex 3.16 6.102 0
    vertex 3.16 6.102 0.8
  endloop
endfacet
facet normal 0 0 1
  outer loop
    vertex 3.044 6.586 0.8
    vertex 3.16 6.102 0.8
    vertex 4 12.8 0.8
  endloop
endfacet
facet normal -0.9724602063125192 -0.23306897506663707 0
  outer loop
    vertex 3.044 6.586 7.2
    vertex 3.16 6.102 7.2
    vertex 3.044 6.586 8
  endloop
endfacet
facet normal 0 0 -1
  outer loop
    vertex 3.044 6.586 7.2
    vertex 4 12.8 7.2
    vertex 3.16 6.102 7.2
  endloop
endfacet
facet normal -0.9724602063125192 -0.23306897506663707 0
  outer loop
    vertex 3.044 6.586 8
    vertex 3.16 6.102 7.2
    vertex 3.16 6.102 8
  endloop
endfacet
facet normal 0 0 1
  outer loop
    vertex 3.044 6.586 8
    vertex 3.16 6.102 8
    vertex 4 12.8 8
  endloop
endfacet
facet normal -0.9968404843538538 0.07942952066564568 0
  outer loop
    vertex 3.16 5.098 0
    vertex 3.16 5.098 0.8
    vertex 3.2 5.6000000000000005 0.8
  endloop
endfacet
facet normal 0 0 -1
  outer loop
    vertex 3.16 5.098 0
    vertex 3.2 5.6000000000000005 0
    vertex 4 0 0
  endloop
endfacet
facet normal -0.9968404843538538 0.07942952066564568 0
  outer loop
    vertex 3.16 5.098 0
    vertex 3.2 5.6000000000000005 0.8
    vertex 3.2 5.6000000000000005 0
  endloop
endfacet
facet normal 0 0 1
  outer loop
    vertex 3.16 5.098 0.8
    vertex 4 0 0.8
    vertex 3.2 5.6000000000000005 0.8
  endloop
endfacet
facet normal -0.9968404843538538 0.07942952066564568 0
  outer loop
    vertex 3.16 5.098 7.2
    vertex 3.16 5.098 8
    vertex 3.2 5.6000000000000005 8
  endloop
endfacet
facet normal 0 0 -1
  outer loop
    vertex 3.16 5.098 7.2
    vertex 3.2 5.6000000000000005 7.2
    vertex 4 0 7.2
  endloop
endfacet
facet normal -0.9968404843538538 0.07942952066564568 0
  outer loop
    vertex 3.16 5.098 7.2
    vertex 3.2 5.6000000000000005 8
    vertex 3.2 5.6000000000000005 7.2
  endloop
endfacet
facet normal 0 0 1
  outer loop
    vertex 3.16 5.098 8
    vertex 4 0 8
    vertex 3.2 5.6000000000000005 8
  endloop
endfacet
facet normal -0.9968404843538538 -0.07942952066564582 0
  outer loop
    vertex 3.16 6.102 0
    vertex 3.2 5.6000000000000005 0
    vertex 3.16 6.102 0.8
  endloop
endfacet
facet normal 0 0 -1
  outer loop
    vertex 3.16 6.102 0
    vertex 4 12.8 0
    vertex 3.2 5.6000000000000005 0
  endloop
endfacet
facet normal -0.9968404843538538 -0.07942952066564582 0
  outer loop
    vertex 3.16 6.102 0.8
    vertex 3.2 5.6000000000000005 0
    vertex 3.2 5.6000000000000005 0.8
  endloop
endfacet
facet normal 0 0 1
  outer loop
    vertex 3.16 6.102 0.8
    vertex 3.2 5.6000000000000005 0.8
    vertex 4 12.8 0.8
  endloop
endfacet
facet normal -0.9968404843538538 -0.07942952066564582 0
  outer loop
    vertex 3.16 6.102 7.2
    vertex 3.2 5.6000000000000005 7.2
    vertex 3.16 6.102 8
  endloop
endfacet
facet normal 0 0 -1
  outer loop
    vertex 3.16 6.102 7.2
    vertex 4 12.8 7.2
    vertex 3.2 5.6000000000000005 7.2
  endloop
endfacet
facet normal -0.9968404843538538 -0.07942952066564582 0
  outer loop
    vertex 3.16 6.102 8
    vertex 3.2 5.6000000000000005 7.2
    vertex 3.2 5.6000000000000005 8
  endloop
endfacet
facet normal 0 0 1
  outer loop
    vertex 3.16 6.102 8
    vertex 3.2 5.6000000000000005 8
    vertex 4 12.8 8
  endloop
endfacet
facet normal 0 0 -1
  outer loop
    vertex 3.2 5.6000000000000005 0
    vertex 4 12.8 0
    vertex 4 0 0
  endloop
endfacet
facet normal 0 0 1
  outer loop
    vertex 3.2 5.6000000000000005 0.8
    vertex 4 0 0.8
    vertex 4 12.8 0.8
  endloop
endfacet
facet normal 0 0 -1
  outer loop
    vertex 3.2 5.6000000000000005 7.2
    vertex 4 12.8 7.2
    vertex 4 0 7.2
  endloop
endfacet
facet normal 0 0 1
  outer loop
    vertex 3.2 5.6000000000000005 8
    vertex 4 0 8
    vertex 4 12.8 8
  endloop
endfacet
facet normal 1 0 0
  outer loop
    vertex 4 0 0
    vertex 4 12.8 0
    vertex 4 0 0.8
  endloop
endfacet
facet normal 1 0 0
  outer loop
    vertex 4 0 0.8
    vertex 4 12.8 0
    vertex 4 12.8 0.8
  endloop
endfacet
facet normal 1 0 0
  outer loop
    vertex 4 0 0.8
    vertex 4 12.8 0.8
    vertex 4 0 7.2
  endloop
endfacet
facet normal 1 0 0
  outer loop
    vertex 4 0 7.2
    vertex 4 12.8 0.8
    vertex 4 12.8 7.2
  endloop
endfacet
facet normal 1 0 0
  outer loop
    vertex 4 0 7.2
    vertex 4 12.8 7.2
    vertex 4 0 8
  endloop
endfacet
facet normal 1 0 0
  outer loop
    vertex 4 0 8
    vertex 4 12.8 7.2
    vertex 4 12.8 8
  endloop
endfacet
endsolid JSxCAD
